<svg width="107" height="29" viewBox="0 0 107 29" fill="none" xmlns="http://www.w3.org/2000/svg">
<g clip-path="url(#clip0_373_44592)">
<path d="M11.6995 0.392578H0V28.3724L11.6995 0.392578Z" fill="#FA0C00"/>
<path d="M19.9311 0.392578H31.6154V28.3724L19.9311 0.392578Z" fill="#FA0C00"/>
<path d="M15.8153 10.7051L23.2619 28.3725H18.3763L16.1507 22.7476H10.7011L15.8153 10.7051Z" fill="#FA0C00"/>
<path d="M50.7023 18.1855L52.0819 22.1413C52.1276 22.2403 52.1962 22.2861 52.3182 22.2861H54.9706C55.1154 22.2861 55.1382 22.2175 55.1154 22.0727L49.6353 6.85185C49.6124 6.7299 49.5895 6.70703 49.4676 6.70703H46.1749C46.0835 6.70703 46.0301 6.77563 46.0301 6.87471C45.9844 7.67501 45.9158 7.91891 45.8167 8.15518L40.9311 22.0498C40.9082 22.2175 40.9616 22.2861 41.0988 22.2861H43.4692C43.614 22.2861 43.6826 22.2403 43.736 22.0955L45.0393 18.1855H50.7023ZM45.7939 15.6017C46.5103 13.4371 47.4554 10.6628 47.8365 9.07743H47.8594C48.3319 10.739 49.4447 14.0316 49.9478 15.6017H45.7939Z" fill="#FA0C00"/>
<path d="M62.1604 22.523C63.5857 22.523 65.1025 22.2638 66.6421 21.6007C66.764 21.555 66.7869 21.5016 66.7869 21.3873C66.7411 20.9605 66.6878 20.3431 66.6878 19.8706V5.54149C66.6878 5.45003 66.6878 5.4043 66.5735 5.4043H63.9897C63.8906 5.4043 63.8449 5.45003 63.8449 5.57198V10.4271C63.4409 10.3814 63.1589 10.3585 62.8235 10.3585C58.6544 10.3585 56.0934 13.11 56.0934 16.5474C56.0934 20.5337 58.723 22.523 62.1604 22.523ZM63.8448 19.8706C63.418 20.0078 62.9455 20.0611 62.4653 20.0611C60.5751 20.0611 59.0278 18.9941 59.0278 16.4026C59.0278 14.1084 60.6208 12.7518 62.7321 12.7518C63.1589 12.7518 63.5323 12.7975 63.8448 12.9194V19.8706Z" fill="#FA0C00"/>
<path d="M75.0298 10.3594C71.4704 10.3594 69.2676 13.088 69.2676 16.4569C69.2676 19.4675 71.0207 22.5238 74.9764 22.5238C78.3224 22.5238 80.6699 20.062 80.6699 16.3806C80.6699 13.1337 78.6806 10.3594 75.0298 10.3594ZM74.8849 12.7526C76.8971 12.7526 77.7508 14.4828 77.7508 16.4569C77.7508 18.8958 76.4931 20.1077 75.0298 20.1077C73.2234 20.1077 72.1563 18.591 72.1563 16.4035C72.1563 14.1551 73.292 12.7526 74.8849 12.7526Z" fill="#FA0C00"/>
<path d="M83.3412 5.4043C83.2421 5.4043 83.1735 5.45003 83.1735 5.57198V21.7913C83.1735 21.8599 83.2421 21.9818 83.3412 22.0047C84.4769 22.3553 85.6659 22.523 86.893 22.523C90.4067 22.523 93.8212 20.3431 93.8212 15.9529C93.8212 12.7746 91.6414 10.3585 88.2268 10.3585C87.4418 10.3585 86.7101 10.4804 86.0698 10.6939L86.0393 5.59484C86.0393 5.42716 85.9936 5.4043 85.8259 5.4043H83.3412ZM90.9021 16.2426C90.9021 18.8721 89.1033 20.1068 87.1597 20.1068C86.7558 20.1068 86.3976 20.084 86.0698 19.9849V13.0643C86.4433 12.9194 86.893 12.7975 87.7238 12.7975C89.5987 12.7975 90.9021 13.9865 90.9021 16.2426Z" fill="#FA0C00"/>
<path d="M103.464 17.0971C104.622 17.0971 105.575 17.0742 105.903 16.998C106.025 16.9751 106.071 16.9294 106.093 16.8303C106.162 16.5712 106.193 16.03 106.193 15.3669C106.193 13.1109 104.836 10.3594 101.33 10.3594C97.7476 10.3594 95.7583 13.2785 95.7583 16.5712C95.7583 19.4903 97.2979 22.5238 101.612 22.5238C103.228 22.5238 104.272 22.2647 105.171 21.8379C105.263 21.7921 105.308 21.7159 105.308 21.5787V19.6047C105.308 19.4903 105.24 19.4675 105.171 19.5132C104.272 19.8943 103.296 20.0848 102.229 20.0848C99.8131 20.0848 98.7155 18.751 98.6469 17.0971H103.464ZM98.6469 15.0544C98.8375 13.8959 99.5692 12.6383 101.208 12.6383C103.014 12.6383 103.487 14.1551 103.487 14.841C103.487 14.8639 103.487 14.963 103.487 15.0316C103.388 15.0544 103.083 15.0544 102.183 15.0544H98.6469Z" fill="#FA0C00"/>
</g>
<defs>
<clipPath id="clip0_373_44592">
<rect width="106.193" height="28" fill="white" transform="translate(0 0.382812)"/>
</clipPath>
</defs>
</svg>
