<svg width="21" height="20" viewBox="0 0 21 20" fill="none" xmlns="http://www.w3.org/2000/svg">
<g clip-path="url(#clip0_373_48201)">
<path d="M20.8862 10C20.8862 4.47715 16.4091 0 10.8862 0C5.36338 0 0.88623 4.47715 0.88623 10C0.88623 14.9912 4.54307 19.1283 9.32373 19.8785V12.8906H6.78467V10H9.32373V7.79687C9.32373 5.29062 10.8167 3.90625 13.1009 3.90625C14.1946 3.90625 15.3394 4.10156 15.3394 4.10156V6.5625H14.0784C12.8362 6.5625 12.4487 7.3334 12.4487 8.125V10H15.2222L14.7788 12.8906H12.4487V19.8785C17.2294 19.1283 20.8862 14.9912 20.8862 10Z" fill="#1877F2"/>
<path d="M14.7788 12.8906L15.2222 10H12.4487V8.125C12.4487 7.33418 12.8362 6.5625 14.0784 6.5625H15.3394V4.10156C15.3394 4.10156 14.195 3.90625 13.1009 3.90625C10.8167 3.90625 9.32373 5.29063 9.32373 7.79688V10H6.78467V12.8906H9.32373V19.8785C10.3591 20.0405 11.4134 20.0405 12.4487 19.8785V12.8906H14.7788Z" fill="white"/>
</g>
<defs>
<clipPath id="clip0_373_48201">
<rect width="20" height="20" fill="white" transform="translate(0.88623)"/>
</clipPath>
</defs>
</svg>
