<svg width="130" height="29" viewBox="0 0 130 29" fill="none" xmlns="http://www.w3.org/2000/svg">
<g clip-path="url(#clip0_373_44595)">
<path d="M52.2718 11.0471H56.4959C55.7913 6.55595 51.9028 3.42773 46.8424 3.42773C40.8549 3.42773 36.3619 7.82985 36.3619 15.2026C36.3619 22.4436 40.6527 26.9347 46.9648 26.9347C52.6297 26.9347 56.6851 23.291 56.6851 17.3925V14.6444H47.4006V17.8839H52.6742C52.6074 21.1474 50.4286 23.2131 46.987 23.2131C43.1561 23.2131 40.5304 20.3426 40.5304 15.1581C40.5304 10.0068 43.2006 7.14747 46.898 7.14747C49.6572 7.14747 51.5449 8.62164 52.2718 11.0471Z" fill="#171321"/>
<path d="M59.4777 26.6207H63.5219V9.46838H59.4777V26.6207ZM61.5174 6.74256C62.8024 6.74256 63.852 5.75792 63.852 4.55262C63.852 3.34732 62.8024 2.35156 61.5174 2.35156C60.2324 2.35156 59.1717 3.33434 59.1717 4.55262C59.1717 5.7709 60.2138 6.74256 61.51 6.74256H61.5174Z" fill="#171321"/>
<path d="M75.6324 9.46987H72.2464V5.34961H68.2022V9.46987H65.7675V12.5981H68.2022V22.1403C68.1799 25.3686 70.5275 26.9615 73.5648 26.8669C74.3738 26.851 75.1762 26.7152 75.9457 26.4645L75.2634 23.3011C74.8769 23.4014 74.4795 23.4544 74.0803 23.4587C73.0623 23.4587 72.2464 23.1008 72.2464 21.469V12.5888H75.6324V9.46987Z" fill="#171321"/>
<path d="M78.7624 26.6204H92.9849V23.1454H82.9086V3.73828H78.7624V26.6204Z" fill="#171321"/>
<path d="M100.732 26.9672C103.425 26.9672 105.032 25.7044 105.77 24.2636H105.904V26.6204H109.798V15.1349C109.798 10.5992 106.1 9.23633 102.826 9.23633C99.2172 9.23633 96.4469 10.844 95.5531 13.9722L99.3303 14.51C99.7309 13.3362 100.871 12.3312 102.854 12.3312C104.732 12.3312 105.759 13.2917 105.759 14.9791V15.0459C105.759 16.2067 104.541 16.2641 101.513 16.5868C98.1844 16.9447 95.0005 17.9386 95.0005 21.8048C94.9894 25.1796 97.4575 26.9672 100.732 26.9672ZM102.062 24.0003C100.374 24.0003 99.1671 23.2289 99.1671 21.7436C99.1671 20.1897 100.519 19.5426 102.319 19.2848C103.382 19.1402 105.505 18.8713 106.028 18.4485V20.4697C106.039 22.3741 104.496 23.9947 102.062 23.9947V24.0003Z" fill="#171321"/>
<path d="M112.776 26.6204H116.753V23.9168H116.987C117.625 25.1685 118.954 26.9226 121.905 26.9226C125.949 26.9226 128.977 23.7147 128.977 18.0628C128.977 12.3423 125.86 9.23629 121.893 9.23629C118.865 9.23629 117.603 11.0572 116.987 12.2978H116.816V3.73828H112.776V26.6204ZM116.742 18.0405C116.742 14.7028 118.172 12.5536 120.775 12.5536C123.468 12.5536 124.855 14.8437 124.855 18.0405C124.855 21.2373 123.447 23.6034 120.775 23.6034C118.194 23.6034 116.742 21.369 116.742 18.0405Z" fill="#171321"/>
<path d="M28.737 11.578L28.698 11.4742L24.7669 1.21989C24.6873 1.01854 24.5457 0.847741 24.3626 0.732207C24.226 0.644752 24.0708 0.590519 23.9095 0.573855C23.7481 0.557189 23.5851 0.578555 23.4335 0.636241C23.282 0.693928 23.1459 0.786328 23.0364 0.906039C22.927 1.02575 22.8471 1.16944 22.8032 1.32558L20.1497 9.4493H9.40397L6.75044 1.32558C6.70618 1.16967 6.62611 1.02625 6.5166 0.906771C6.40708 0.787291 6.27116 0.695054 6.11966 0.637415C5.96818 0.579776 5.80534 0.55833 5.64409 0.574788C5.48286 0.591246 5.32769 0.645151 5.19097 0.732207C5.0079 0.847741 4.8663 1.01854 4.78673 1.21989L0.857469 11.476L0.816674 11.578C0.250974 13.0565 0.181282 14.6788 0.618104 16.2003C1.05492 17.7218 1.97458 19.0601 3.23841 20.0132L3.25324 20.0244L3.2866 20.0503L9.26673 24.5322L12.2336 26.774L14.036 28.1369C14.2475 28.2968 14.5053 28.3832 14.7703 28.3832C15.0353 28.3832 15.2931 28.2968 15.5046 28.1369L17.307 26.774L20.2739 24.5322L26.2967 20.0244L26.3134 20.0114C27.5771 19.0586 28.4968 17.7207 28.9341 16.1996C29.3711 14.6785 29.302 13.0564 28.737 11.578Z" fill="#E24329"/>
<path d="M28.7369 11.5765L28.698 11.4727C26.7827 11.8657 24.9779 12.6775 23.4132 13.8499L14.7814 20.377L20.2776 24.5306L26.3004 20.0228L26.3171 20.0099C27.5802 19.0566 28.4992 17.7185 28.9357 16.1974C29.372 14.6763 29.3023 13.0545 28.7369 11.5765Z" fill="#FC6D26"/>
<path d="M9.26678 24.5306L12.2337 26.7725L14.0361 28.1354C14.2475 28.2952 14.5053 28.3816 14.7704 28.3816C15.0354 28.3816 15.2932 28.2952 15.5047 28.1354L17.3071 26.7725L20.2739 24.5306L14.7778 20.377L9.26678 24.5306Z" fill="#FCA326"/>
<path d="M6.14038 13.85C4.5762 12.6782 2.77211 11.867 0.857469 11.4746L0.816674 11.5766C0.250974 13.0551 0.181282 14.6773 0.618104 16.1989C1.05492 17.7204 1.97458 19.0587 3.23841 20.0118L3.25324 20.0229L3.2866 20.0489L9.26674 24.5307L14.7666 20.3771L6.14038 13.85Z" fill="#FC6D26"/>
</g>
<defs>
<clipPath id="clip0_373_44595">
<rect width="128.874" height="28" fill="white" transform="translate(0.180664 0.382812)"/>
</clipPath>
</defs>
</svg>
