<svg width="21" height="20" viewBox="0 0 21 20" fill="none" xmlns="http://www.w3.org/2000/svg">
<g clip-path="url(#clip0_373_48188)">
<path d="M20.6913 10.2312C20.6913 9.55141 20.6361 8.86797 20.5186 8.19922H11.0862V12.05H16.4877C16.2635 13.292 15.5434 14.3907 14.4888 15.0888V17.5874H17.7113C19.6036 15.8457 20.6913 13.2736 20.6913 10.2312Z" fill="#4285F4"/>
<path d="M11.0862 20.0017C13.7833 20.0017 16.0577 19.1162 17.7149 17.5876L14.4924 15.089C13.5959 15.699 12.4384 16.0444 11.0899 16.0444C8.48103 16.0444 6.26902 14.2843 5.47534 11.918H2.14996V14.4938C3.84756 17.8706 7.30521 20.0017 11.0862 20.0017Z" fill="#34A853"/>
<path d="M5.47169 11.9163C5.0528 10.6743 5.0528 9.32947 5.47169 8.0875V5.51172H2.14999C0.731659 8.33737 0.731659 11.6664 2.14999 14.4921L5.47169 11.9163Z" fill="#FBBC04"/>
<path d="M11.0862 3.95805C12.5119 3.93601 13.8898 4.47247 14.9223 5.45723L17.7774 2.60218C15.9695 0.904588 13.5701 -0.0287217 11.0862 0.000673889C7.30521 0.000673889 3.84756 2.13185 2.14996 5.51234L5.47166 8.08813C6.26166 5.71811 8.47735 3.95805 11.0862 3.95805Z" fill="#EA4335"/>
</g>
<defs>
<clipPath id="clip0_373_48188">
<rect width="20" height="20" fill="white" transform="translate(0.88623)"/>
</clipPath>
</defs>
</svg>
