<svg width="737" height="453" viewBox="0 0 737 453" fill="none" xmlns="http://www.w3.org/2000/svg">
<g clip-path="url(#clip0_379_52159)">
<path d="M101.618 47.9441C186.637 -19.9618 296.7 3.82614 301.286 4.90518C370.827 21.0662 367.712 57.3121 443.556 84.5088C554.257 124.188 612.415 65.4785 675.873 110.602C725.471 145.867 746.272 221.792 731.996 278.907C705.602 384.604 554.306 445.987 439.656 431.591C330.182 417.834 301.336 340.854 179.94 342.865C101.447 344.116 74.6363 376.904 44.1955 355.912C-14.3313 315.546 -4.88755 132.967 101.618 47.9441Z" fill="#FFB5C1"/>
<path d="M598.115 69.8438H145.011C132.005 69.8438 121.463 80.3842 121.463 93.3864V384.31C121.463 397.312 132.005 407.853 145.011 407.853H598.115C611.12 407.853 621.663 397.312 621.663 384.31V93.3864C621.663 80.3842 611.12 69.8438 598.115 69.8438Z" fill="white"/>
<path d="M602.383 71.1166H143.956C132.01 70.6506 122.149 78.817 122.517 92.5993V99.9563L620.657 99.4904V90.9807C620.657 80.3865 612.317 71.1166 602.383 71.1166Z" fill="#F4F6F9"/>
<path d="M333.027 251.246H168.191C165.034 251.246 162.475 253.804 162.475 256.96V307.945C162.475 311.1 165.034 313.659 168.191 313.659H333.027C336.184 313.659 338.743 311.1 338.743 307.945V256.96C338.743 253.804 336.184 251.246 333.027 251.246Z" fill="#392C7D"/>
<path d="M214.796 283.344C214.796 286.696 213.802 289.972 211.94 292.759C210.077 295.546 207.43 297.718 204.333 299C201.236 300.283 197.828 300.618 194.54 299.964C191.252 299.311 188.232 297.697 185.861 295.327C183.491 292.957 181.877 289.937 181.223 286.65C180.569 283.363 180.904 279.956 182.187 276.859C183.47 273.763 185.643 271.116 188.43 269.254C191.217 267.392 194.494 266.398 197.847 266.398C202.342 266.398 206.653 268.184 209.832 271.362C213.011 274.54 214.796 278.85 214.796 283.344Z" fill="white"/>
<path d="M229.048 285.137H318.236" stroke="white" stroke-miterlimit="10"/>
<path d="M229.048 273.586H271.778" stroke="white" stroke-miterlimit="10"/>
<path d="M229.048 295.828H318.236" stroke="white" stroke-miterlimit="10"/>
<path d="M593.7 136.718V128.208C593.7 125.606 592.666 123.111 590.826 121.272C588.986 119.432 586.49 118.398 583.888 118.398H398.422C395.82 118.398 393.324 119.432 391.484 121.272C389.644 123.111 388.611 125.606 388.611 128.208V211.343L593.7 136.718Z" fill="#FF4667"/>
<path d="M461.785 120.083L427.026 133.969L456.451 207.594L491.21 193.708L461.785 120.083Z" fill="#FF4667"/>
<path d="M580.871 118.5H401.538C394.452 118.5 388.709 124.242 388.709 131.326V344.313C388.709 351.397 394.452 357.139 401.538 357.139H580.871C587.956 357.139 593.7 351.397 593.7 344.313V131.326C593.7 124.242 587.956 118.5 580.871 118.5Z" stroke="#B3B3B3" stroke-miterlimit="10"/>
<path d="M449.041 146.989L414.282 160.875L443.707 234.5L478.466 220.615L449.041 146.989Z" fill="#FF4667"/>
<path d="M437.126 174.989L402.367 188.875L416.255 223.627L451.015 209.741L437.126 174.989Z" fill="#FF4667"/>
<path d="M570.36 129.095L535.6 142.98L555.368 192.443L590.128 178.558L570.36 129.095Z" fill="#FF4667"/>
<path d="M338.743 118.5H163.064V144.005H338.743V118.5Z" fill="#E6E6E6"/>
<path d="M338.743 329.695H163.064V339.529H338.743V329.695Z" fill="#E6E6E6"/>
<path d="M338.743 348.039H163.064V357.873H338.743V348.039Z" fill="#E6E6E6"/>
<path d="M333.027 172.793H168.191C165.034 172.793 162.475 175.351 162.475 178.507V229.492C162.475 232.647 165.034 235.206 168.191 235.206H333.027C336.184 235.206 338.743 232.647 338.743 229.492V178.507C338.743 175.351 336.184 172.793 333.027 172.793Z" stroke="#B3B3B3" stroke-miterlimit="10" stroke-dasharray="6.81 6.81"/>
<path d="M576.627 90.8372C578.876 90.8372 580.699 89.0145 580.699 86.7662C580.699 84.5179 578.876 82.6953 576.627 82.6953C574.378 82.6953 572.555 84.5179 572.555 86.7662C572.555 89.0145 574.378 90.8372 576.627 90.8372Z" fill="#FFC107"/>
<path d="M590.241 90.8372C592.49 90.8372 594.313 89.0145 594.313 86.7662C594.313 84.5179 592.49 82.6953 590.241 82.6953C587.992 82.6953 586.169 84.5179 586.169 86.7662C586.169 89.0145 587.992 90.8372 590.241 90.8372Z" fill="#E70D0D"/>
<path d="M603.879 90.8372C606.128 90.8372 607.951 89.0145 607.951 86.7662C607.951 84.5179 606.128 82.6953 603.879 82.6953C601.63 82.6953 599.807 84.5179 599.807 86.7662C599.807 89.0145 601.63 90.8372 603.879 90.8372Z" fill="#03C95A"/>
<path d="M554.379 93.4837H142.656C140.529 93.4837 138.488 92.6389 136.984 91.135C135.48 89.6311 134.635 87.5914 134.635 85.4645C134.641 83.3397 135.488 81.3037 136.991 79.8012C138.494 78.2987 140.531 77.4518 142.656 77.4453H554.379C556.507 77.4453 558.547 78.2902 560.051 79.7941C561.555 81.298 562.4 83.3377 562.4 85.4645C562.404 86.5185 562.198 87.5628 561.796 88.5372C561.394 89.5116 560.804 90.3969 560.058 91.1422C559.313 91.8875 558.427 92.4781 557.453 92.8799C556.478 93.2818 555.433 93.487 554.379 93.4837Z" fill="white"/>
<path d="M598.115 69.8438H145.011C132.005 69.8438 121.463 80.3842 121.463 93.3864V384.31C121.463 397.312 132.005 407.853 145.011 407.853H598.115C611.12 407.853 621.663 397.312 621.663 384.31V93.3864C621.663 80.3842 611.12 69.8438 598.115 69.8438Z" stroke="#E7E7E7" stroke-miterlimit="10"/>
<path d="M267.044 172.793H102.207C99.0506 172.793 96.4918 175.351 96.4918 178.507V229.492C96.4918 232.647 99.0506 235.206 102.207 235.206H267.044C270.2 235.206 272.759 232.647 272.759 229.492V178.507C272.759 175.351 270.2 172.793 267.044 172.793Z" fill="#392C7D"/>
<path d="M148.813 204.895C148.813 208.247 147.819 211.523 145.956 214.31C144.094 217.096 141.447 219.268 138.349 220.551C135.252 221.833 131.844 222.169 128.556 221.515C125.268 220.861 122.248 219.247 119.878 216.878C117.507 214.508 115.893 211.488 115.239 208.201C114.585 204.914 114.921 201.507 116.203 198.41C117.486 195.314 119.659 192.667 122.446 190.805C125.234 188.943 128.511 187.949 131.863 187.949C134.089 187.949 136.293 188.388 138.349 189.239C140.406 190.091 142.274 191.339 143.848 192.913C145.422 194.486 146.671 196.354 147.522 198.41C148.374 200.466 148.813 202.67 148.813 204.895Z" fill="white"/>
<path d="M163.064 206.684H252.253" stroke="white" stroke-miterlimit="10"/>
<path d="M163.064 195.133H205.794" stroke="white" stroke-miterlimit="10"/>
<path d="M163.064 217.379H252.253" stroke="white" stroke-miterlimit="10"/>
<path d="M77.8005 433.258C83.4597 434.839 88.9741 436.898 94.2842 439.413C98.6259 441.866 99.19 443.827 93.7936 443.852C87.1418 443.976 80.4888 443.673 73.8758 442.945C70.5644 442.43 71.938 434.656 72.5022 433.331L77.8005 433.258Z" fill="#FFA320"/>
<path d="M76.8439 433.26L77.9477 428.969L72.2324 429.631L72.5022 433.334L76.8439 433.26Z" fill="#FFC69A"/>
<path d="M97.6202 442.823C90.3462 442.712 83.0834 442.213 75.8627 441.327C74.3454 440.983 72.9375 440.266 71.7664 439.242C71.7664 441.106 72.4286 442.725 73.8759 442.945C80.4889 443.674 87.1418 443.977 93.7936 443.853C96.0503 443.877 97.3258 443.46 97.6202 442.823Z" fill="#685F78"/>
<path d="M51.6278 283.372C51.6278 283.372 50.2542 276.873 61.832 268.216C68.1068 263.636 74.0722 258.647 79.6893 253.281L90.6539 215.27L94.4804 217.06C94.4804 217.06 94.7012 246.905 93.0332 255.758C91.3652 264.611 54.6449 303.015 51.6278 283.372Z" fill="#DAA184"/>
<path d="M81.7252 243.91L94.1861 245.7L93.72 256.123C93.72 256.123 75.5193 284.472 63.6472 289.034C51.775 293.595 44.6615 286.581 47.5805 281.677C50.4995 276.772 77.727 253.572 77.727 253.572L81.7252 243.91Z" fill="#FFA320"/>
<path d="M94.4799 248.465L95.4514 242.312L80.6958 239.984L79.7243 246.137L94.4799 248.465Z" fill="#FF725E"/>
<path d="M94.4559 225.619C94.4559 225.619 87.2688 208.011 89.3783 206C89.3783 206 96.0994 217.354 98.1353 222.137" fill="#DAA184"/>
<path d="M9.51111 422.468C13.5071 426.769 17.1263 431.404 20.3285 436.324C22.7814 440.665 22.1682 442.651 17.5812 439.855C11.8405 436.492 6.32602 432.756 1.07305 428.673C-1.37987 426.49 3.77127 420.58 4.94867 419.746L9.51111 422.468Z" fill="#FF725E"/>
<path d="M8.67712 421.954L11.8904 418.889L6.64119 416.461L4.94867 419.747L8.67712 421.954Z" fill="#FFC69A"/>
<path d="M74.1702 327.732L51.4807 315.078C51.4807 315.078 55.2827 362.948 69.7795 384.088C69.7795 384.088 69.9021 422.59 72.4286 430.903L77.7269 430.78C77.7269 430.78 85.8461 386.957 85.0857 379.992C83.7857 367.142 82.363 348.651 74.1702 327.732Z" fill="#685F78"/>
<path d="M50.107 239.594C50.107 239.594 41.0312 244.057 40.2953 260.758C39.5594 277.458 36.665 278.096 36.665 278.096C40.6928 280.171 45.1586 281.254 49.69 281.254C54.2214 281.254 58.6872 280.171 62.715 278.096L50.107 239.594Z" fill="#411809"/>
<path d="M61.0716 241.166C64.6631 244.891 66.653 249.873 66.6152 255.047C66.8114 260.613 58.2998 261.349 53.492 258.652C51.3313 257.462 49.5637 255.668 48.4051 253.491C47.2465 251.314 46.7469 248.846 46.9673 246.39C48.0956 240.332 56.2148 236.703 61.0716 241.166Z" fill="#FFC69A"/>
<path d="M56.1167 247.957L47.1635 249.355L50.524 270.985C50.7538 272.473 51.5645 273.81 52.7784 274.702C53.9923 275.593 55.5103 275.968 56.9997 275.742C57.7943 275.627 58.5557 275.345 59.2341 274.915C59.9125 274.486 60.4928 273.918 60.9371 273.25C61.3815 272.581 61.6799 271.826 61.813 271.035C61.946 270.243 61.9107 269.432 61.7094 268.655L56.1167 247.957Z" fill="#FFC69A"/>
<path d="M57.0733 240.038C57.0733 240.038 59.281 252.128 47.2616 255.095C38.799 257.18 39.0443 236.114 50.9901 235.673C67.7681 235.059 63.9906 244.722 63.9906 244.722C63.9906 244.722 59.8451 238.812 57.0733 240.038Z" fill="#411809"/>
<path d="M59.8206 261.863L53.0015 258.871L59.3545 260.024L59.8206 261.863Z" fill="#DAA184"/>
<path d="M69.9021 317.824L42.2577 325.181C42.2577 325.181 34.4819 335.726 37.3518 376.681C37.3518 376.681 13.215 396.962 6.46948 416.728L10.9583 419.646C10.9583 419.646 44.9313 389.286 49.7145 384.136C55.4299 378.054 66.6152 357.479 69.9021 317.824Z" fill="#685F78"/>
<path d="M66.9586 270.767C66.6907 269.55 66.118 268.421 65.2942 267.486C64.4704 266.551 63.4226 265.84 62.249 265.421C57.1224 263.532 44.6615 263.434 44.5634 280.135C44.3181 313.242 42.2577 325.038 42.2577 325.038C42.2577 325.038 48.8806 330.825 74.1457 327.49L70.8097 306.596L73.7777 300.171C75.6645 295.071 75.4707 289.434 73.2381 284.476L66.9586 270.767Z" fill="#FF725E"/>
<path d="M56.8035 284.72C56.8035 284.72 55.4053 278.197 67.0077 269.54C73.2721 264.957 79.2292 259.968 84.8404 254.605L95.805 216.594L99.6316 218.408C99.6316 218.408 99.8768 248.229 98.1843 257.082C96.4918 265.935 59.6979 304.339 56.8035 284.72Z" fill="#FFC69A"/>
<path d="M94.8484 220.147C94.8484 220.147 92.3954 209.43 94.4314 207.395C94.4314 207.395 96.4918 211.858 98.5277 216.64C99.1655 218.136 105.666 222.82 102.305 222.329C99.7558 221.841 97.2589 221.11 94.8484 220.147Z" fill="#FFC69A"/>
<path d="M62.7396 243.227C64.1136 244.699 65.7862 245.861 67.6454 246.635C67.3377 247.84 66.5837 248.883 65.5359 249.554L62.7396 243.227Z" fill="#FFC69A"/>
<path d="M21.3833 440.985C15.2425 437.086 9.3143 432.862 3.6241 428.331C2.48265 427.246 1.63818 425.887 1.17118 424.383C0.288122 426.05 -0.0798163 427.718 1.024 428.674C6.28488 432.759 11.8076 436.494 17.5567 439.857C19.5681 441.059 20.7946 441.427 21.3833 440.985Z" fill="#685F78"/>
<path d="M5.29208 419.992C5.29208 419.992 11.3263 430.439 14 427.742L9.53564 421.047L5.29208 419.992Z" fill="#FFC69A"/>
<path d="M73.14 433.161C73.14 433.161 83.7366 439.096 84.4725 435.368L77.1137 432.254L73.14 433.161Z" fill="#FFC69A"/>
<path d="M87.7103 244.379L99.0674 246.463L98.5032 259.584C98.5032 259.584 81.6026 285.015 69.7304 289.502C57.8582 293.99 50.7693 287.05 53.6637 282.145C56.5582 277.241 83.7857 254.041 83.7857 254.041L87.7103 244.379Z" fill="#FF725E"/>
<path d="M100.449 248.934L101.42 242.781L86.6648 240.453L85.6934 246.605L100.449 248.934Z" fill="#FF725E"/>
<path d="M74.1702 327.734L77.1383 336.097L58.03 357.138L59.8206 328.617C64.6192 328.683 69.4159 328.388 74.1702 327.734Z" fill="#685F78"/>
<path d="M51.8977 373.665C48.022 377.662 46.771 379.477 46.2314 381.831C45.7899 383.769 46.2314 384.014 45.7163 385.191C44.2691 388.355 40.0991 387.643 35.0215 390.096C31.3176 391.788 28.8892 394.51 24.0079 399.905C21.555 402.603 21.8003 402.775 17.8265 407.753C13.0924 413.688 10.247 416.679 8.89789 418.519L10.8357 419.769C10.8357 419.769 44.8087 389.409 49.5919 384.259C53.8517 379.062 57.1721 373.161 59.4036 366.823C58.7904 366.676 56.5092 369.03 51.8977 373.665Z" fill="#685F78"/>
<path d="M70.4418 431.148H79.3459V427.642H70.4418V431.148Z" fill="#685F78"/>
<path d="M3.99941 417.022L11.7106 421.473L13.4644 418.436L5.75324 413.985L3.99941 417.022Z" fill="#685F78"/>
<path d="M39.9274 253.084L60.3112 236.972C59.2773 235.566 57.9707 234.382 56.4694 233.491C54.968 232.601 53.3026 232.022 51.5725 231.788C49.8424 231.555 48.0831 231.673 46.3994 232.134C44.7157 232.595 43.1423 233.391 41.7728 234.474C40.4034 235.556 39.266 236.903 38.4286 238.434C37.5912 239.966 37.0708 241.65 36.8986 243.387C36.7264 245.124 36.9058 246.878 37.4262 248.544C37.9465 250.21 38.7972 251.754 39.9274 253.084Z" fill="#FF725E"/>
<path d="M46.4522 232.559C44.8612 233.032 43.3722 233.797 42.0614 234.815C39.3586 236.957 37.616 240.084 37.216 243.509C36.8159 246.934 37.791 250.378 39.9274 253.085L45.2257 248.891C43.525 246.441 42.7187 243.481 42.942 240.508C43.1653 237.534 44.4046 234.727 46.4522 232.559Z" fill="#FFA320"/>
<path d="M62.7588 233.214L38.5945 251.234L40.809 254.203L64.9734 236.182L62.7588 233.214Z" fill="#FFA320"/>
<path d="M73.8023 300.415C75.39 296.102 75.5021 291.384 74.1211 287.001C67.9546 289.38 61.1711 289.639 54.8412 287.736C50.6712 272.777 57.2941 266.107 58.913 264.66C57.1459 264.467 55.3584 264.6 53.6392 265.052C51.0391 268.804 48.3409 275.524 50.5976 286.069C48.3974 285.012 46.3577 283.65 44.5389 282.022C44.2445 313.707 41.4482 326.533 41.4482 326.533C41.4482 326.533 48.807 330.874 74.1702 327.661L70.8342 306.767L73.8023 300.415Z" fill="#685F78"/>
<path d="M85.0857 380.115C83.7121 367.264 82.363 348.773 74.1702 327.855L70.8342 306.961L73.8022 300.536C75.39 296.222 75.5021 291.505 74.1211 287.121C72.8623 287.577 71.576 287.954 70.27 288.249C70.9417 292.897 70.287 297.641 68.3813 301.933C67.0823 304.218 66.1783 306.705 65.7076 309.29C65.2707 312.417 65.4963 315.6 66.3699 318.634C69.2398 329.719 72.0607 337.689 72.0607 337.689C76.0099 348.822 77.9722 354.365 78.0703 357.062C78.4628 367.191 73.8268 372.88 77.7515 378.128C79.6157 380.581 82.2648 381.414 82.412 384.136C82.5592 386.859 80.3025 387.594 78.7326 390.807C76.6231 395.221 78.5119 398.409 78.7326 404.859C78.9534 411.309 77.1873 412.216 76.2797 419.23C75.8998 423.12 75.8998 427.038 76.2797 430.928H77.6533C77.6533 430.928 85.8461 386.957 85.0857 380.115Z" fill="#685F78"/>
<path d="M220.708 438.384H176.997L191.248 366.383H206.481L220.708 438.384Z" fill="#EB4334"/>
<path d="M229.048 434.805H166.67V442.26H229.048V434.805Z" fill="#EB4334"/>
<path d="M220.708 438.384H176.997L191.248 366.383H206.481L220.708 438.384Z" fill="#EB4334"/>
<path d="M185.214 396.89H212.515L210.283 385.609H187.446L185.214 396.89Z" fill="white"/>
<path d="M179.989 423.277H217.715L215.483 411.996H182.222L179.989 423.277Z" fill="white"/>
<path d="M689.658 427.669C689.658 427.669 672.488 437.086 666.919 437.16C661.351 437.233 665.448 439.612 671.58 440.201C678.387 440.271 685.181 439.596 691.841 438.19C692.283 438.19 693.632 436.718 693.632 436.718L694.024 438.043C695.01 438.051 695.994 437.977 696.968 437.822C696.839 434.402 696.428 430.998 695.741 427.645L689.658 427.669Z" fill="#685F78"/>
<path d="M689.535 427.667L689.756 423.105L695.839 423.4L695.619 427.642L689.535 427.667Z" fill="#FFB780"/>
<path d="M689.339 290.605L709.6 294.063C709.6 294.063 703.419 348.236 697.017 369.302C697.017 369.302 701.211 405.572 696.722 425.191L688.701 425.559C688.701 425.559 681.858 379.185 679.994 371.362C677.786 361.969 680.533 339.26 689.339 290.605Z" fill="#685F78"/>
<path d="M686.935 420.996L687.524 426.244L697.581 426.023L698.121 421.29L686.935 420.996Z" fill="#685F78"/>
<path d="M713.451 429.529C713.451 429.529 696.281 438.947 690.713 438.996C685.145 439.045 689.241 441.448 695.373 442.061C702.18 442.109 708.973 441.426 715.635 440.026C716.052 440.026 717.425 438.554 717.425 438.554L717.818 439.903C718.796 439.905 719.772 439.822 720.737 439.658C720.625 436.237 720.223 432.833 719.535 429.48L713.451 429.529Z" fill="#685F78"/>
<path d="M713.451 429.531L713.672 424.945L719.755 425.264L719.535 429.482L713.451 429.531Z" fill="#FFB780"/>
<path d="M699.175 293.793L720.638 310.518C720.638 310.518 727.703 320.965 716.91 369.89C722.577 388.361 723.738 407.92 720.295 426.932L712.348 428.133C712.348 428.133 702.732 378.252 700.083 370.65C697.017 361.527 694.368 336.194 699.175 293.793Z" fill="#685F78"/>
<path d="M710.336 423.276L711.366 428.475L721.374 427.421L721.522 422.688L710.336 423.276Z" fill="#685F78"/>
<path d="M697.606 310.198L685.93 309.879L684.065 321.086L700.966 350.049L697.606 310.198Z" fill="#685F78"/>
<path d="M710.017 249.873C710.017 249.873 702.07 242.687 692.356 257.23C687.513 264.698 682.144 271.811 676.29 278.516L639.496 258.186L635.669 266.034C635.669 266.034 668.882 304.021 679.429 301.47C689.977 298.92 733.811 252.301 710.017 249.873Z" fill="#FF725E"/>
<path d="M635.694 266.227C635.694 266.227 617.836 252.47 626.348 254.897C630.224 256.001 633.707 258.919 634.958 257.718C636.209 256.516 633.462 255.437 632.971 252.813C632.48 250.189 640.943 259.336 640.943 259.336L635.694 266.227Z" fill="#FFB780"/>
<g opacity="0.1">
<path opacity="0.1" d="M648.253 269.98L663.559 284.278L646.241 276.16L648.253 269.98Z" fill="black"/>
</g>
<g opacity="0.1">
<path opacity="0.1" d="M675.088 292.369L693.534 275.668V280.082L684.311 294.845L675.088 292.369Z" fill="black"/>
</g>
<path d="M633.51 265.959L637.288 268.829L644.352 260.221L640.55 257.352L633.51 265.959Z" fill="#FF725E"/>
<path d="M702.34 244.058C708.497 241.801 725.961 240.33 728.66 255.24C731.112 268.851 725.912 280.696 723.876 290.358C722.835 296.038 722.09 301.768 721.644 307.525C721.644 307.525 710.214 321.037 688.947 314.882L690.32 291.756L691.768 278.955C690.59 264.412 690.934 262.622 693.534 255.314C694.613 252.248 698.587 245.676 701.481 244.229L702.34 244.058Z" fill="#FF725E"/>
<path d="M692.945 267.822L691.13 266.473C691.13 257.154 694.956 244.402 709.919 243.176H710.41C691.13 246.903 692.945 267.601 692.945 267.822Z" fill="#685F78"/>
<path d="M707.834 219.902H718.897L717.572 242.979C717.583 243.34 717.513 243.698 717.369 244.029C717.225 244.359 717.009 244.654 716.738 244.892C715.581 245.83 714.212 246.472 712.75 246.763C711.288 247.054 709.778 246.984 708.349 246.56C704.621 245.677 707.344 243.96 707.883 239.766L707.834 219.902Z" fill="#FFB780"/>
<path d="M706.436 214.705C702.107 219.98 700.02 226.742 700.623 233.539C700.843 241.362 711.268 241.46 717.793 237.34C720.586 235.67 722.788 233.171 724.094 230.191C725.4 227.211 725.744 223.898 725.078 220.713C723.189 212.326 712.225 207.421 706.436 214.705Z" fill="#FFB780"/>
<g opacity="0.1">
<path opacity="0.1" d="M707.344 242L713.648 239.449L707.834 240.038L707.344 242Z" fill="black"/>
</g>
<path d="M702.879 222.137C701.183 223.592 699.661 225.238 698.341 227.041C698.953 228.264 700.005 229.21 701.285 229.69L702.879 222.137Z" fill="#FFB780"/>
<path d="M726.256 219.39C725.839 208.722 707.319 208.845 705.087 210.586C704.51 210.961 704.023 211.459 703.66 212.044C703.297 212.629 703.068 213.287 702.988 213.971C702.908 214.654 702.98 215.347 703.199 216C703.418 216.653 703.778 217.249 704.253 217.747L705.161 217.06L705.676 216.84C708.398 217.232 717.94 219.292 715.021 226.649C714.285 228.562 715.929 229.42 717.867 229.518C718.061 231.914 717.987 234.324 717.646 236.704C717.376 238.518 726.918 236.704 726.256 219.39Z" fill="#411809"/>
<path d="M609.647 247.644L611.272 245.807L648.983 279.175L646.382 282.113L609.847 249.786C609.693 249.658 609.566 249.502 609.472 249.325C609.379 249.148 609.321 248.955 609.303 248.756C609.284 248.557 609.305 248.357 609.364 248.166C609.423 247.975 609.519 247.797 609.647 247.644Z" fill="#685F78"/>
<path d="M647.419 268.364C647.955 268.834 648.381 269.416 648.669 270.068C648.958 270.72 649.1 271.427 649.087 272.14V279.154L611.361 245.777L622.252 247.469C623.515 247.672 624.696 248.224 625.661 249.063L647.419 268.364Z" fill="white"/>
<path d="M711.587 231.038C712.446 232.338 714.629 232.387 716.493 231.161C718.357 229.935 719.142 227.899 718.308 226.599C717.641 225.981 716.765 225.637 715.855 225.637C714.945 225.637 714.069 225.981 713.402 226.599C711.538 227.727 710.729 229.763 711.587 231.038Z" fill="#FFB780"/>
<path d="M721.767 313.582C722.041 305.808 722.745 298.055 723.876 290.358C724.71 286.484 726.01 282.265 727.139 277.729C714.516 276.179 702.304 272.243 691.154 266.129C691.132 270.477 691.337 274.824 691.768 279.151L688.947 291.83L685.022 315.274C697.09 319.03 710.095 318.431 721.767 313.582Z" fill="#685F78"/>
<path d="M714.972 328.42L707.785 326.483C717.033 292.371 721.546 260.465 717.597 256.787C715.021 254.506 713.378 254.604 712.348 254.899C706.927 256.395 701.702 268.215 700.083 273.708L694.466 271.526C695.104 269.417 699.642 250.73 710.434 247.738C712.608 247.185 714.89 247.22 717.046 247.841C719.201 248.462 721.152 249.645 722.699 251.269C732.241 259.95 720.467 308.115 714.972 328.42Z" fill="#685F78"/>
<path d="M713.034 252.395C713.034 252.395 705.676 252.395 697.949 267.943C690.222 283.491 686.003 287.562 686.003 287.562L649.013 271.254L642.586 279.592C642.586 279.592 682.152 313.337 691.375 307.623C708.595 297.028 736.975 251.856 713.034 252.395Z" fill="#FF725E"/>
<path d="M642.586 279.569C642.586 279.569 634.124 280.28 632.137 275.252C630.861 272.064 626.348 264.953 630.812 268.239C633.609 270.299 637.435 274.149 638.588 272.53C639.741 270.912 633.854 270.348 635.35 267.258L645.285 272.825L642.586 279.569Z" fill="#FFB780"/>
<path d="M639.667 281.774L643.862 283.982L650.902 271.524L646.707 269.316L639.667 281.774Z" fill="#FF725E"/>
<path d="M727.531 222.895L704.375 211.124C705.103 209.528 706.146 208.096 707.441 206.914C708.737 205.731 710.258 204.823 711.914 204.244C713.57 203.665 715.326 203.427 717.076 203.545C718.826 203.662 720.535 204.132 722.098 204.927C723.662 205.722 725.048 206.825 726.174 208.17C727.3 209.515 728.143 211.073 728.65 212.752C729.158 214.431 729.32 216.195 729.128 217.938C728.936 219.681 728.392 221.368 727.531 222.895Z" fill="#FF725E"/>
<path d="M717.106 204.086C719.221 204.272 721.259 204.975 723.039 206.131C724.82 207.288 726.289 208.864 727.318 210.721C728.347 212.578 728.905 214.659 728.942 216.782C728.979 218.904 728.495 221.004 727.531 222.896L721.546 219.83C722.726 217.095 722.929 214.037 722.121 211.17C721.312 208.303 719.542 205.802 717.106 204.086Z" fill="#FFA320"/>
<path d="M701.232 207.919L699.645 211.266L726.887 224.175L728.473 220.828L701.232 207.919Z" fill="#FFA320"/>
<path d="M665.668 438.384H621.957L636.184 366.383H651.441L665.668 438.384Z" fill="#EB4334"/>
<path d="M673.984 434.805H611.606V442.26H673.984V434.805Z" fill="#EB4334"/>
<path d="M665.668 438.384H621.957L636.184 366.383H651.441L665.668 438.384Z" fill="#EB4334"/>
<path d="M630.15 396.89H657.451L655.219 385.609H632.382L630.15 396.89Z" fill="white"/>
<path d="M624.95 423.277H662.676L660.444 411.996H627.182L624.95 423.277Z" fill="white"/>
<path d="M338.89 452.998C339.328 452.996 339.752 452.844 340.091 452.568C340.43 452.291 340.664 451.906 340.754 451.478L373.819 290.161C373.921 289.667 373.824 289.153 373.548 288.73C373.273 288.308 372.841 288.011 372.348 287.905C371.851 287.811 371.336 287.914 370.915 288.194C370.493 288.473 370.197 288.907 370.091 289.401L337.026 450.717C336.924 451.212 337.021 451.726 337.297 452.148C337.573 452.571 338.004 452.868 338.497 452.974L338.89 452.998Z" fill="#685F78"/>
<path d="M370.361 305.688H418.095C418.562 305.635 418.993 305.412 419.306 305.062C419.619 304.711 419.792 304.258 419.792 303.788C419.792 303.318 419.619 302.865 419.306 302.514C418.993 302.163 418.562 301.94 418.095 301.887H370.361C370.093 301.857 369.822 301.883 369.565 301.965C369.308 302.046 369.072 302.181 368.87 302.361C368.669 302.54 368.509 302.76 368.398 303.006C368.288 303.252 368.231 303.518 368.231 303.788C368.231 304.057 368.288 304.324 368.398 304.57C368.509 304.816 368.669 305.035 368.87 305.215C369.072 305.394 369.308 305.529 369.565 305.611C369.822 305.692 370.093 305.719 370.361 305.688Z" fill="#685F78"/>
<path d="M365.7 326.434H413.434C413.684 326.437 413.933 326.391 414.165 326.297C414.397 326.204 414.608 326.065 414.786 325.89C414.964 325.714 415.105 325.505 415.201 325.274C415.298 325.043 415.347 324.796 415.347 324.546C415.347 324.038 415.146 323.552 414.787 323.193C414.428 322.834 413.942 322.633 413.434 322.633H365.7C365.45 322.633 365.203 322.682 364.972 322.779C364.741 322.875 364.532 323.017 364.356 323.195C364.18 323.372 364.042 323.584 363.948 323.816C363.855 324.047 363.808 324.296 363.812 324.546C363.808 324.795 363.855 325.042 363.949 325.272C364.042 325.503 364.181 325.712 364.357 325.888C364.533 326.064 364.743 326.203 364.974 326.297C365.204 326.391 365.451 326.437 365.7 326.434Z" fill="#685F78"/>
<path d="M361.702 347.18H409.436C409.685 347.183 409.932 347.137 410.163 347.043C410.393 346.949 410.603 346.81 410.779 346.634C410.955 346.458 411.094 346.249 411.188 346.018C411.281 345.788 411.328 345.541 411.325 345.292C411.328 345.042 411.281 344.794 411.188 344.562C411.095 344.33 410.956 344.119 410.78 343.941C410.605 343.763 410.395 343.621 410.164 343.525C409.934 343.429 409.686 343.379 409.436 343.379H361.702C361.195 343.379 360.708 343.58 360.349 343.939C359.99 344.298 359.789 344.784 359.789 345.292C359.789 345.542 359.838 345.789 359.935 346.02C360.031 346.251 360.173 346.46 360.351 346.636C360.529 346.811 360.74 346.95 360.972 347.043C361.204 347.137 361.452 347.183 361.702 347.18Z" fill="#685F78"/>
<path d="M357.385 367.853H405.119C405.626 367.853 406.113 367.652 406.472 367.293C406.83 366.934 407.032 366.448 407.032 365.94C407.032 365.433 406.83 364.946 406.472 364.588C406.113 364.229 405.626 364.027 405.119 364.027H357.385C356.877 364.027 356.391 364.229 356.032 364.588C355.673 364.946 355.472 365.433 355.472 365.94C355.472 366.448 355.673 366.934 356.032 367.293C356.391 367.652 356.877 367.853 357.385 367.853Z" fill="#685F78"/>
<path d="M353.313 388.701H401.022C401.53 388.701 402.017 388.499 402.375 388.14C402.734 387.782 402.936 387.295 402.936 386.788C402.936 386.281 402.734 385.794 402.375 385.435C402.017 385.077 401.53 384.875 401.022 384.875H353.313C352.806 384.875 352.319 385.077 351.96 385.435C351.601 385.794 351.4 386.281 351.4 386.788C351.4 387.295 351.601 387.782 351.96 388.14C352.319 388.499 352.806 388.701 353.313 388.701Z" fill="#685F78"/>
<path d="M349.266 409.544H396.975C397.482 409.544 397.969 409.342 398.328 408.983C398.687 408.625 398.888 408.138 398.888 407.631C398.888 407.381 398.839 407.133 398.742 406.902C398.646 406.672 398.504 406.462 398.326 406.287C398.148 406.111 397.937 405.972 397.705 405.879C397.473 405.786 397.225 405.739 396.975 405.742H349.266C349.016 405.739 348.767 405.786 348.535 405.879C348.303 405.972 348.092 406.111 347.914 406.287C347.736 406.462 347.595 406.672 347.499 406.902C347.402 407.133 347.352 407.381 347.352 407.631C347.352 408.138 347.554 408.625 347.913 408.983C348.272 409.342 348.758 409.544 349.266 409.544Z" fill="#685F78"/>
<path d="M345.145 430.192H392.854C393.122 430.223 393.393 430.196 393.65 430.115C393.907 430.033 394.144 429.898 394.345 429.719C394.546 429.539 394.707 429.319 394.817 429.074C394.927 428.828 394.984 428.561 394.984 428.292C394.984 428.022 394.927 427.756 394.817 427.51C394.707 427.264 394.546 427.044 394.345 426.865C394.144 426.685 393.907 426.55 393.65 426.469C393.393 426.387 393.122 426.361 392.854 426.391H345.145C344.877 426.361 344.606 426.387 344.349 426.469C344.092 426.55 343.855 426.685 343.654 426.865C343.453 427.044 343.292 427.264 343.182 427.51C343.072 427.756 343.015 428.022 343.015 428.292C343.015 428.561 343.072 428.828 343.182 429.074C343.292 429.319 343.453 429.539 343.654 429.719C343.855 429.898 344.092 430.033 344.349 430.115C344.606 430.196 344.877 430.223 345.145 430.192Z" fill="#685F78"/>
<path d="M389.911 453.002C390.35 453.004 390.776 452.854 391.116 452.577C391.456 452.299 391.689 451.912 391.775 451.481L424.865 290.165C424.959 289.668 424.856 289.154 424.576 288.732C424.297 288.311 423.863 288.015 423.369 287.909C422.875 287.815 422.363 287.919 421.946 288.199C421.528 288.479 421.237 288.912 421.136 289.405L387.948 450.721C387.854 451.218 387.957 451.732 388.237 452.154C388.516 452.575 388.95 452.871 389.445 452.977L389.911 453.002Z" fill="#685F78"/>
<path d="M547.192 186.625L556.955 211.467" stroke="#685F78" stroke-width="2" stroke-miterlimit="10" stroke-linecap="round"/>
<path d="M521.461 180.666L524.674 186.233L546.775 185.473L562.989 171.029L560.561 162.887" stroke="#685F78" stroke-miterlimit="10" stroke-linecap="round"/>
<path d="M562.4 161.367L519.352 180.397" stroke="#685F78" stroke-miterlimit="10" stroke-linecap="round"/>
<path d="M556.415 172.598L531.224 183.168C529.47 183.893 527.5 183.895 525.745 183.174C523.989 182.453 522.59 181.066 521.853 179.318C521.127 177.567 521.121 175.601 521.838 173.846C522.554 172.092 523.935 170.691 525.68 169.95L550.872 159.405C552.622 158.678 554.589 158.672 556.344 159.389C558.099 160.105 559.5 161.486 560.242 163.23C560.969 164.981 560.974 166.947 560.258 168.702C559.541 170.457 558.16 171.857 556.415 172.598Z" fill="#FF7E93"/>
<path d="M529.801 180.346L554.968 169.801C556.542 169.129 557.824 167.917 558.584 166.384C559.344 164.851 559.531 163.098 559.113 161.438C558.136 160.265 556.809 159.435 555.327 159.068C553.844 158.702 552.283 158.819 550.872 159.403L525.68 169.948C524.111 170.62 522.833 171.827 522.074 173.355C521.314 174.883 521.123 176.631 521.535 178.286C522.51 179.469 523.84 180.308 525.328 180.678C526.816 181.049 528.384 180.933 529.801 180.346Z" fill="#FF4667"/>
<path d="M524.257 411.089H491.584L485.55 366.383H530.292L524.257 411.089Z" fill="#685F78"/>
<path d="M488.518 367.485C488.518 362.334 490.565 357.394 494.208 353.751C497.852 350.109 502.793 348.063 507.945 348.062C513.098 348.063 518.039 350.109 521.682 353.751C525.326 357.394 527.373 362.334 527.373 367.485" stroke="#685F78" stroke-miterlimit="10"/>
<path d="M521.167 367.853C521.315 367.647 521.415 367.409 521.457 367.158C521.5 366.907 521.484 366.65 521.412 366.406H494.43C493.915 369.447 495.166 372.782 496.269 372.93C497.373 373.077 498.551 368.393 500.219 368.491C501.887 368.589 503.53 371.777 502.206 379.404C501.004 386.123 505.1 387.546 505.542 387.447C509.736 386.663 507.013 371.311 510.742 370.281C512.14 369.864 513.514 371.949 515.402 371.164C517.291 370.379 517.021 368.711 518.885 368.147C520.087 367.853 520.701 368.27 521.167 367.853Z" fill="#FF4667"/>
<path d="M549.424 326.163L570.446 329.915L586.292 321.724C586.292 321.724 584.697 310.541 584.796 307.402C585.016 300.045 588.622 283.026 583.299 270.985C579.375 262.132 572.065 266.08 562.817 269.072L552.417 270.224C552.417 270.224 535.737 260.145 547.388 306.593C548.466 313.069 549.146 319.604 549.424 326.163Z" fill="#FF725E"/>
<path d="M558.108 236.922C554.078 241.588 552.019 247.638 552.368 253.794C552.49 260.44 562.719 260.759 568.287 257.227C570.788 255.651 572.776 253.381 574.009 250.694C575.242 248.007 575.666 245.02 575.229 242.096C573.586 235.107 563.627 231.281 558.108 236.922Z" fill="#FFC69A"/>
<path d="M555.949 239.938C554.689 241.467 553.106 242.698 551.313 243.542C551.689 244.704 552.485 245.683 553.545 246.289L555.949 239.938Z" fill="#FFC69A"/>
<path d="M543.268 274.123L537.896 294.576L534.56 305.121L514.127 341.048L520.504 345.315L546.309 309.143L550.258 297.886L565.589 268.066C566.816 264.559 559.334 264.706 555.777 263.48C552.221 262.254 545.794 266.815 543.268 274.123Z" fill="#FF725E"/>
<path d="M515.01 339.527C515.01 339.527 507.259 348.086 512.557 347.498C516.261 347.105 513.587 346.566 513.587 346.566C513.587 346.566 508.313 351.176 510.644 351.103C512.974 351.029 517.855 353.089 519.057 349.901C520.504 346.051 521.167 343.794 521.167 343.794L515.01 339.527Z" fill="#FFC69A"/>
<path d="M515.932 335.496L513.156 339.57L522.259 345.769L525.035 341.695L515.932 335.496Z" fill="#FF725E"/>
<path d="M567.085 249.161L553.202 210.242L560.242 207.152L579.35 247.248L581.312 258.995L568.557 260.148L567.085 249.161Z" fill="#FF725E"/>
<path d="M579.276 287.271C577.517 287.554 575.718 287.131 574.27 286.092C572.822 285.054 571.844 283.485 571.55 281.728L568.655 260.148L581.41 259.02L585.458 277.878C585.642 279.912 585.132 281.948 584.009 283.654C582.886 285.36 581.218 286.635 579.276 287.271Z" fill="#FF725E"/>
<path d="M555.36 210.902C555.36 210.902 547.388 202.466 550.749 200.798L553.202 204.82C553.202 204.82 550.307 194.446 552.589 195.01C554.87 195.575 559.825 198.395 559.31 201.754C558.696 205.752 558.378 209.112 558.378 209.112L555.36 210.902Z" fill="#FFC69A"/>
<path d="M562.894 211.019L561.065 206.441L552.159 209.999L553.988 214.577L562.894 211.019Z" fill="#FF725E"/>
<path d="M556.513 254.014L557.494 275.914L569.465 272.088L563.823 252.102L556.513 254.014Z" fill="#FFC69A"/>
<path d="M560.364 316.356C561.021 298.577 559.472 280.784 555.753 263.385C554.811 263.212 553.843 263.24 552.912 263.469C551.982 263.697 551.111 264.12 550.356 264.71C554.019 281.667 555.495 299.024 554.747 316.356H560.364Z" fill="#685F78"/>
<path d="M589.75 340.24C591.486 329.384 589.851 318.257 585.065 308.359C572.801 315.201 548.492 313.632 548.492 313.632L545.058 345.782L543.145 381.415C544.319 397.201 547.391 412.787 552.294 427.838L561.787 426.318C562.738 411.092 562.237 395.81 560.291 380.679C560.291 380.679 565.074 361.478 567.65 351.594C567.797 350.957 570.618 349.927 570.765 349.363C570.838 349.363 584.992 348.603 589.75 340.24Z" fill="#685F78"/>
<path d="M573.733 427.546L582.048 426.32C584.406 411.379 584.406 396.162 582.048 381.221C586.7 369.212 589.119 356.455 589.186 343.577C589.407 342.449 589.579 341.346 589.726 340.242C584.967 348.605 570.814 349.365 570.814 349.365L564.731 383.011C564.731 383.011 567.257 399.172 573.733 427.546Z" fill="#685F78"/>
<path d="M575.548 348.676C573.997 349.02 572.423 349.25 570.838 349.362L564.755 383.009C564.755 383.009 567.208 398.998 573.635 427.151C574.58 426.565 575.331 425.711 575.793 424.699C576.627 422.762 575.376 421.511 573.806 415.331C572.801 411.481 573.34 412.045 571.795 404.295C571.181 400.8 570.362 397.345 569.342 393.946C567.772 389.875 566.178 388.159 566.889 385.927C567.601 383.695 569.882 383.475 569.906 381.586C569.931 379.698 568.361 379.379 567.453 377.908C565.54 374.401 569.367 368.932 570.47 367.216C573.853 361.628 575.612 355.207 575.548 348.676Z" fill="#685F78"/>
<path d="M552.343 427.841L554.134 433.677L560.757 433.162L560.732 426.59L552.343 427.841Z" fill="#FFC69A"/>
<path d="M542.115 442.382C542.115 442.382 542.115 438.458 549.473 437.232C553.374 436.594 551.362 433.7 551.362 433.7L558.721 431.469L551.779 443.731L542.115 442.382Z" fill="#FF725E"/>
<path d="M559.898 431.395C554.993 431.395 555.336 435.539 554.6 438.188C553.314 439.773 551.648 441.006 549.756 441.774C547.865 442.542 545.81 442.818 543.783 442.577L550.602 443.509C552.847 443.825 555.134 443.683 557.323 443.092L561.444 441.989C563.897 440.664 566.35 431.64 560.291 431.395H559.898Z" fill="#685F78"/>
<path d="M542.483 442.456L543.685 442.578C542.286 442.382 541.55 442.284 542.483 442.456Z" fill="#FFA320"/>
<path d="M573.733 427.543L575.45 433.404L582.073 432.889L582.048 426.316L573.733 427.543Z" fill="#FFC69A"/>
<path d="M563.406 442.112C563.406 442.112 563.406 438.188 570.765 436.962C574.665 436.325 572.678 433.431 572.678 433.431L580.037 431.199L573.12 443.461L563.406 442.112Z" fill="#FF725E"/>
<path d="M581.19 431.125C576.284 431.125 576.652 435.27 575.916 437.918C574.617 439.495 572.946 440.722 571.052 441.488C569.159 442.255 567.104 442.537 565.074 442.308L571.893 443.24C574.147 443.556 576.441 443.414 578.639 442.823L582.76 441.719C585.213 440.395 587.665 431.37 581.607 431.125H581.19Z" fill="#685F78"/>
<path d="M563.872 442.186L565.074 442.309C563.602 442.113 562.866 442.015 563.872 442.186Z" fill="#FFA320"/>
<path d="M562.453 423.283L550.138 424.625L550.704 429.818L563.019 428.476L562.453 423.283Z" fill="#685F78"/>
<path d="M583.782 422.084L571.468 423.426L572.034 428.619L584.349 427.277L583.782 422.084Z" fill="#685F78"/>
<path d="M556.317 262.107L556.121 265.786C558.643 266.68 561.345 266.949 563.995 266.571C564.9 266.276 565.732 265.791 566.434 265.148C567.137 264.505 567.693 263.719 568.067 262.843L567.061 260.121C567.061 260.121 564.314 264.413 556.317 262.107Z" fill="white"/>
<path d="M558.672 231.75C558.672 231.75 551.558 238.151 560.266 244.723C560.266 244.723 563.48 247.175 558.721 252.767C558.25 253.331 557.992 254.043 557.992 254.778C557.992 255.513 558.25 256.224 558.721 256.789C561.591 260.173 567.919 265.151 574.665 254.655C577.78 249.75 578.197 244.085 575.597 240.726C573.505 237.718 570.492 235.472 567.012 234.325C563.48 233.123 561.64 233.54 558.672 231.75Z" fill="#411809"/>
<path d="M558.696 252.764C556.076 255.108 554.01 258.005 552.648 261.245C551.286 264.486 550.662 267.989 550.822 271.5C550.822 279.495 558.917 285.92 559.089 287.784C559.579 292.934 551.313 303.773 552.515 309.144C554.208 316.918 568.042 319.738 581.607 314.049C597.109 307.599 599.096 287.073 585.262 272.8C579.129 266.522 581.141 254.236 579.963 245.26C579.276 239.865 577.682 245.579 575.057 241.581C571.157 235.598 561.542 233.538 560.046 235.377C558.549 237.216 564.78 241.532 563.431 246.756C562.744 249.38 561.91 249.968 558.696 252.764Z" fill="#411809"/>
<path d="M562.842 246.73C563.202 247.174 563.416 247.719 563.455 248.29C563.493 248.86 563.355 249.428 563.057 249.917C562.76 250.405 562.319 250.79 561.794 251.018C561.269 251.246 560.687 251.306 560.127 251.19C559.567 251.074 559.057 250.787 558.666 250.37C558.275 249.953 558.023 249.424 557.944 248.858C557.865 248.292 557.964 247.715 558.226 247.207C558.488 246.698 558.901 246.284 559.408 246.019C559.679 245.837 559.984 245.71 560.304 245.648C560.625 245.585 560.955 245.586 561.274 245.653C561.594 245.719 561.898 245.848 562.167 246.033C562.436 246.218 562.666 246.455 562.842 246.73Z" fill="#FFC69A"/>
<path d="M579.276 249.159L558.794 232.974C560.941 230.258 564.079 228.507 567.518 228.104C570.956 227.702 574.414 228.681 577.13 230.828C579.846 232.974 581.598 236.111 582.001 239.549C582.403 242.987 581.423 246.444 579.276 249.159Z" fill="#FF725E"/>
<path d="M572.678 228.633C574.269 229.1 575.752 229.875 577.044 230.914C579.749 233.048 581.496 236.168 581.901 239.59C582.305 243.011 581.335 246.453 579.203 249.159L573.88 244.966C575.579 242.517 576.387 239.559 576.169 236.587C575.95 233.614 574.718 230.807 572.678 228.633Z" fill="#FFA320"/>
<path d="M556.373 229.333L554.158 232.301L578.319 250.326L580.534 247.358L556.373 229.333Z" fill="#FFA320"/>
</g>
<defs>
<clipPath id="clip0_379_52159">
<rect width="736" height="453" fill="white" transform="translate(0.38623)"/>
</clipPath>
</defs>
</svg>
