<svg width="48" height="48" viewBox="0 0 48 48" fill="none" xmlns="http://www.w3.org/2000/svg">
<rect width="48" height="48" rx="24" fill="#445F11"/>
<path d="M33.3547 15.4517C33.3351 15.311 33.2105 15.2331 33.1075 15.2245C33.0047 15.216 30.8292 15.0565 30.8292 15.0565C30.8292 15.0565 29.3183 13.5727 29.1525 13.4084C28.9866 13.2443 28.6625 13.2942 28.5367 13.3308C28.5182 13.3362 28.2066 13.4313 27.6912 13.5891C27.1865 12.1524 26.2958 10.8321 24.7288 10.8321C24.6855 10.8321 24.641 10.8338 24.5965 10.8363C24.1508 10.2533 23.5988 10 23.1219 10C19.4716 10 17.7277 14.5142 17.1809 16.8082C15.7625 17.243 14.7548 17.5521 14.6261 17.5921C13.8344 17.8378 13.8093 17.8625 13.7054 18.6005C13.6271 19.1593 11.5555 35.008 11.5555 35.008L27.6979 38L36.4444 36.1282C36.4444 36.1282 33.374 15.5924 33.3548 15.4517H33.3547ZM26.799 13.8621L25.4331 14.2803C25.4336 14.1851 25.4341 14.0914 25.4341 13.9889C25.4341 13.096 25.3088 12.3771 25.1078 11.8071C25.9152 11.9074 26.4529 12.8162 26.799 13.8621ZM24.1062 11.9842C24.3307 12.5406 24.4766 13.3392 24.4766 14.4168C24.4766 14.4719 24.4761 14.5223 24.4757 14.5733C23.5874 14.8455 22.6221 15.141 21.6547 15.4375C22.1979 13.3637 23.216 12.362 24.1062 11.9842ZM23.0217 10.9686C23.1792 10.9686 23.3379 11.0215 23.4898 11.1249C22.32 11.6695 21.066 13.0411 20.5365 15.7801L18.3066 16.4633C18.9269 14.3741 20.3997 10.9686 23.0216 10.9686H23.0217Z" fill="#95BF46"/>
<path d="M33.1071 15.2243C33.0043 15.2158 30.8289 15.0563 30.8289 15.0563C30.8289 15.0563 29.318 13.5724 29.1522 13.4082C29.0901 13.3471 29.0064 13.3157 28.9189 13.3022L27.6984 37.9996L36.4441 36.1279C36.4441 36.1279 33.3736 15.5922 33.3543 15.4515C33.3347 15.3107 33.2101 15.2329 33.1071 15.2243Z" fill="#5E8E3E"/>
<path d="M24.7285 20.0055L23.6501 23.1791C23.6501 23.1791 22.7052 22.6802 21.5469 22.6802C19.8488 22.6802 19.7634 23.7344 19.7634 24.0001C19.7634 25.4495 23.5827 26.0049 23.5827 29.4C23.5827 32.0711 21.8702 33.7912 19.561 33.7912C16.79 33.7912 15.373 32.0851 15.373 32.0851L16.1149 29.66C16.1149 29.66 17.5715 30.8972 18.8007 30.8972C19.6038 30.8972 19.9305 30.2716 19.9305 29.8146C19.9305 27.9238 16.7971 27.8395 16.7971 24.7327C16.7971 22.1178 18.6943 19.5874 22.5239 19.5874C23.9995 19.5874 24.7285 20.0055 24.7285 20.0055Z" fill="white"/>
</svg>
