<svg width="48" height="48" viewBox="0 0 48 48" fill="none" xmlns="http://www.w3.org/2000/svg">
<rect width="48" height="48" rx="24" fill="#5200CC"/>
<path fill-rule="evenodd" clip-rule="evenodd" d="M15.3643 12C13.616 12 12.3223 13.5261 12.3802 15.1812C12.4358 16.7712 12.3636 18.8305 11.8437 20.5099C11.322 22.194 10.4404 23.2612 9 23.3982V24.9447C10.4404 25.082 11.322 26.1487 11.8437 27.833C12.3636 29.5124 12.4357 31.5717 12.3801 33.1618C12.3222 34.8166 13.6159 36.3429 15.3646 36.3429H33.2795C35.0278 36.3429 36.3213 34.8168 36.2633 33.1618C36.2077 31.5717 36.28 29.5124 36.7998 27.833C37.3215 26.1487 38.201 25.0816 39.6414 24.9447V23.3982C38.2011 23.2609 37.3216 22.1943 36.7998 20.5099C36.2799 18.8308 36.2077 16.7712 36.2633 15.1812C36.3213 13.5264 35.0278 12 33.2795 12H15.3643ZM29.7739 26.9847C29.7739 29.2636 28.0694 30.6457 25.2407 30.6457H20.4256C20.2879 30.6457 20.1558 30.5911 20.0584 30.494C19.961 30.3968 19.9063 30.2651 19.9063 30.1277V18.2152C19.9063 18.0779 19.961 17.9461 20.0584 17.849C20.1558 17.7519 20.2879 17.6973 20.4256 17.6973H25.2133C27.5719 17.6973 29.1199 18.9714 29.1199 20.9276C29.1199 22.3007 28.0785 23.5299 26.7519 23.7452V23.8168C28.5579 24.0144 29.7739 25.2618 29.7739 26.9847ZM24.7157 19.3392H21.9702V23.2067H24.2826C26.0702 23.2067 27.0559 22.4888 27.0559 21.2056C27.0557 20.0031 26.2083 19.3392 24.7157 19.3392ZM21.9702 24.7412V29.0033H24.8167C26.678 29.0033 27.6638 28.2585 27.6638 26.8588C27.6638 25.4591 26.6503 24.741 24.697 24.741L21.9702 24.7412Z" fill="white"/>
</svg>
