<svg width="48" height="48" viewBox="0 0 48 48" fill="none" xmlns="http://www.w3.org/2000/svg">
<rect width="48" height="48" rx="24" fill="#0E061B"/>
<path d="M24.0001 24.0003C24.0001 21.0549 26.3879 18.667 29.3335 18.667C32.2789 18.667 34.6668 21.0549 34.6668 24.0003C34.6668 26.9459 32.2789 29.3337 29.3335 29.3337C26.3879 29.3337 24.0001 26.9459 24.0001 24.0003Z" fill="#1ABCFE"/>
<path d="M13.3331 34.6663C13.3331 31.7209 15.7209 29.333 18.6665 29.333H23.9998V34.6663C23.9998 37.6119 21.612 39.9997 18.6665 39.9997C15.7209 39.9997 13.3331 37.6119 13.3331 34.6663Z" fill="#0ACF83"/>
<path d="M24.0001 8V18.6666H29.3335C32.279 18.6666 34.6668 16.2788 34.6668 13.3333C34.6668 10.3878 32.279 8 29.3335 8H24.0001Z" fill="#FF7262"/>
<path d="M13.3331 13.3333C13.3331 16.2789 15.7209 18.6666 18.6665 18.6666H23.9998V8H18.6665C15.7209 8 13.3331 10.3878 13.3331 13.3333Z" fill="#F24E1E"/>
<path d="M13.3331 24.0003C13.3331 26.9459 15.7209 29.3337 18.6665 29.3337H23.9998V18.667H18.6665C15.7209 18.667 13.3331 21.0549 13.3331 24.0003Z" fill="#A259FF"/>
</svg>
