<svg width="141" height="42" viewBox="0 0 141 42" fill="none" xmlns="http://www.w3.org/2000/svg">
<rect y="0.886719" width="141" height="41" rx="8" fill="#08131E"/>
<path d="M34.1294 21.2359C34.1011 18.1532 36.7014 16.6535 36.8203 16.5837C35.3477 14.4766 33.0651 14.1887 32.263 14.1657C30.3459 13.9677 28.4864 15.2915 27.5098 15.2915C26.5138 15.2915 25.0099 14.1848 23.3892 14.2174C21.3035 14.2489 19.3523 15.434 18.2822 17.2742C16.0737 21.0265 17.7208 26.5405 19.8367 29.5735C20.8951 31.0589 22.1319 32.7174 23.7507 32.6591C25.3345 32.595 25.9261 31.6682 27.8373 31.6682C29.731 31.6682 30.2865 32.6591 31.9375 32.6218C33.6372 32.595 34.7073 31.1297 35.7287 29.6309C36.9519 27.9284 37.4431 26.2517 37.4626 26.1656C37.4226 26.1522 34.1616 24.9308 34.1294 21.2359Z" fill="white"/>
<path d="M31.0106 12.1705C31.8624 11.1251 32.4453 9.70283 32.2835 8.25952C31.0506 8.31308 29.5088 9.09643 28.6209 10.1189C27.8353 11.0199 27.1336 12.4967 27.3149 13.8855C28.6998 13.9869 30.1218 13.1997 31.0106 12.1705Z" fill="white"/>
<path d="M56.9952 32.4458H54.7818L53.5694 28.707H49.3552L48.2003 32.4458H46.0454L50.2207 19.7171H52.7995L56.9952 32.4458ZM53.2039 27.1384L52.1075 23.8146C51.9915 23.4751 51.7742 22.6755 51.4535 21.4168H51.4146C51.2869 21.9581 51.0812 22.7577 50.7986 23.8146L49.7217 27.1384H53.2039Z" fill="white"/>
<path d="M67.7325 27.7439C67.7325 29.3048 67.3027 30.5387 66.4431 31.4444C65.6732 32.2507 64.7171 32.6534 63.5758 32.6534C62.3439 32.6534 61.4589 32.2192 60.92 31.3507H60.881V36.1857H58.8031V26.2891C58.8031 25.3077 58.7768 24.3006 58.7261 23.2676H60.5535L60.6695 24.7224H60.7085C61.4014 23.6262 62.453 23.0791 63.8643 23.0791C64.9675 23.0791 65.8885 23.5067 66.6254 24.3627C67.3641 25.2197 67.7325 26.3464 67.7325 27.7439ZM65.6157 27.8185C65.6157 26.9251 65.411 26.1886 64.9997 25.609C64.5504 25.0045 63.9471 24.7023 63.1908 24.7023C62.6782 24.7023 62.2123 24.8706 61.7961 25.2025C61.379 25.5373 61.1061 25.9744 60.9784 26.5157C60.9141 26.7683 60.882 26.9748 60.882 27.1374V28.6678C60.882 29.3354 61.0905 29.8988 61.5077 30.3588C61.9248 30.8189 62.4667 31.0485 63.1333 31.0485C63.9159 31.0485 64.5251 30.7519 64.9607 30.1608C65.3973 29.5688 65.6157 28.7883 65.6157 27.8185Z" fill="white"/>
<path d="M78.4893 27.7439C78.4893 29.3048 78.0595 30.5387 77.199 31.4444C76.43 32.2507 75.4739 32.6534 74.3326 32.6534C73.1007 32.6534 72.2158 32.2192 71.6778 31.3507H71.6388V36.1857H69.5609V26.2891C69.5609 25.3077 69.5346 24.3006 69.4839 23.2676H71.3113L71.4273 24.7224H71.4663C72.1582 23.6262 73.2099 23.0791 74.6221 23.0791C75.7244 23.0791 76.6454 23.5067 77.3841 24.3627C78.12 25.2197 78.4893 26.3464 78.4893 27.7439ZM76.3725 27.8185C76.3725 26.9251 76.1668 26.1886 75.7555 25.609C75.3062 25.0045 74.7049 24.7023 73.9476 24.7023C73.434 24.7023 72.9691 24.8706 72.552 25.2025C72.1349 25.5373 71.8629 25.9744 71.7353 26.5157C71.6719 26.7683 71.6388 26.9748 71.6388 27.1374V28.6678C71.6388 29.3354 71.8473 29.8988 72.2625 30.3588C72.6797 30.8179 73.2216 31.0485 73.8901 31.0485C74.6728 31.0485 75.2819 30.7519 75.7175 30.1608C76.1542 29.5688 76.3725 28.7883 76.3725 27.8185Z" fill="white"/>
<path d="M90.5161 28.8763C90.5161 29.959 90.1331 30.8399 89.3641 31.52C88.5191 32.2632 87.3427 32.6343 85.8311 32.6343C84.4355 32.6343 83.3166 32.3703 82.4697 31.8414L82.9511 30.1417C83.8634 30.6831 84.8643 30.9547 85.9549 30.9547C86.7375 30.9547 87.3466 30.7806 87.7842 30.4344C88.2199 30.0882 88.4372 29.6233 88.4372 29.0437C88.4372 28.5272 88.2579 28.092 87.8983 27.7391C87.5406 27.3861 86.9431 27.0581 86.1089 26.7549C83.838 25.9237 82.7036 24.7061 82.7036 23.105C82.7036 22.0586 83.1012 21.2006 83.8975 20.533C84.6908 19.8644 85.7492 19.5306 87.0728 19.5306C88.253 19.5306 89.2335 19.7325 90.0161 20.1351L89.4966 21.7975C88.7657 21.4072 87.9392 21.2121 87.0143 21.2121C86.2833 21.2121 85.7122 21.3891 85.3029 21.741C84.9569 22.0557 84.7834 22.4393 84.7834 22.8936C84.7834 23.3967 84.9812 23.8128 85.3789 24.1399C85.7249 24.4421 86.3535 24.7692 87.2657 25.1222C88.3817 25.5631 89.2013 26.0786 89.7286 26.6697C90.2539 27.2589 90.5161 27.9964 90.5161 28.8763Z" fill="white"/>
<path d="M97.3861 24.7979H95.0958V29.2541C95.0958 30.3875 95.4993 30.9537 96.3082 30.9537C96.6795 30.9537 96.9875 30.9222 97.2312 30.8591L97.2887 32.4076C96.8793 32.5577 96.3404 32.6333 95.6728 32.6333C94.8521 32.6333 94.2108 32.3875 93.7479 31.8968C93.2869 31.4052 93.0549 30.5807 93.0549 29.4224V24.796H91.6905V23.2656H93.0549V21.5851L95.0958 20.9806V23.2656H97.3861V24.7979Z" fill="white"/>
<path d="M107.72 27.7811C107.72 29.1919 107.309 30.3502 106.488 31.256C105.627 32.1886 104.485 32.6534 103.061 32.6534C101.689 32.6534 100.596 32.2067 99.7817 31.3134C98.9669 30.42 98.5596 29.2924 98.5596 27.9332C98.5596 26.511 98.9786 25.346 99.8197 24.4402C100.659 23.5335 101.791 23.0801 103.215 23.0801C104.588 23.0801 105.692 23.5268 106.525 24.4211C107.322 25.2886 107.72 26.4086 107.72 27.7811ZM105.564 27.8471C105.564 27.0007 105.38 26.2747 105.007 25.6693C104.571 24.9366 103.948 24.5712 103.141 24.5712C102.306 24.5712 101.671 24.9376 101.236 25.6693C100.863 26.2757 100.678 27.0131 100.678 27.8854C100.678 28.7319 100.863 29.4578 101.236 30.0623C101.685 30.795 102.313 31.1603 103.123 31.1603C103.916 31.1603 104.539 30.7873 104.988 30.0432C105.371 29.4263 105.564 28.6927 105.564 27.8471Z" fill="white"/>
<path d="M114.474 25.061C114.268 25.0237 114.049 25.0045 113.819 25.0045C113.088 25.0045 112.523 25.2752 112.125 25.8175C111.779 26.2958 111.606 26.9002 111.606 27.63V32.4459H109.529L109.548 26.158C109.548 25.1002 109.522 24.137 109.47 23.2685H111.28L111.356 25.0246H111.414C111.633 24.4211 111.979 23.9352 112.453 23.5708C112.916 23.2427 113.416 23.0791 113.955 23.0791C114.147 23.0791 114.32 23.0925 114.474 23.1165V25.061Z" fill="white"/>
<path d="M123.767 27.4225C123.767 27.7878 123.743 28.0958 123.691 28.3474H117.457C117.482 29.2541 117.783 29.9475 118.362 30.4258C118.887 30.8533 119.566 31.0676 120.401 31.0676C121.324 31.0676 122.166 30.9231 122.923 30.6333L123.248 32.0489C122.364 32.4277 121.319 32.6161 120.113 32.6161C118.663 32.6161 117.525 32.1972 116.696 31.3602C115.87 30.5233 115.455 29.3995 115.455 27.9897C115.455 26.6056 115.84 25.4531 116.611 24.5339C117.418 23.5526 118.509 23.0619 119.881 23.0619C121.229 23.0619 122.25 23.5526 122.942 24.5339C123.491 25.3135 123.767 26.2776 123.767 27.4225ZM121.786 26.8935C121.799 26.289 121.664 25.7668 121.382 25.3259C121.022 24.7587 120.47 24.4756 119.726 24.4756C119.047 24.4756 118.494 24.752 118.072 25.3068C117.726 25.7477 117.521 26.2766 117.457 26.8926H121.786V26.8935Z" fill="white"/>
<path d="M52.5169 11.8867C52.5169 13.0124 52.1728 13.8599 51.4857 14.429C50.8493 14.9541 49.9449 15.2171 48.7734 15.2171C48.1925 15.2171 47.6955 15.1922 47.2793 15.1425V8.99145C47.8222 8.90536 48.4069 8.86137 49.0385 8.86137C50.1544 8.86137 50.9955 9.09953 51.5627 9.57585C52.1982 10.1143 52.5169 10.8843 52.5169 11.8867ZM51.4399 11.9144C51.4399 11.1846 51.2431 10.6251 50.8493 10.2349C50.4556 9.84557 49.8805 9.65045 49.1233 9.65045C48.8016 9.65045 48.5278 9.6715 48.3007 9.71549V14.3917C48.4264 14.4108 48.6564 14.4194 48.9907 14.4194C49.7724 14.4194 50.3757 14.2061 50.8006 13.7795C51.2255 13.3529 51.4399 12.7312 51.4399 11.9144Z" fill="white"/>
<path d="M58.2271 12.8699C58.2271 13.5634 58.0254 14.1315 57.6219 14.5772C57.1989 15.0354 56.6385 15.264 55.9387 15.264C55.2643 15.264 54.7273 15.0449 54.3267 14.605C53.9271 14.1659 53.7273 13.6121 53.7273 12.9445C53.7273 12.2463 53.933 11.6734 54.3462 11.2286C54.7595 10.7839 55.315 10.561 56.0148 10.561C56.6892 10.561 57.2311 10.78 57.6414 11.2191C58.0312 11.6456 58.2271 12.1966 58.2271 12.8699ZM57.1677 12.9024C57.1677 12.4864 57.0761 12.1296 56.8939 11.8322C56.6795 11.4725 56.3744 11.2927 55.9777 11.2927C55.5674 11.2927 55.2555 11.4725 55.0411 11.8322C54.8579 12.1296 54.7673 12.4921 54.7673 12.9206C54.7673 13.3367 54.8589 13.6934 55.0411 13.9909C55.2624 14.3505 55.5703 14.5304 55.968 14.5304C56.3578 14.5304 56.6639 14.3477 56.8841 13.9813C57.0732 13.6781 57.1677 13.3185 57.1677 12.9024Z" fill="white"/>
<path d="M65.8837 10.6528L64.4461 15.1616H63.5105L62.915 13.2037C62.764 12.715 62.6412 12.2291 62.5457 11.747H62.5271C62.4384 12.2425 62.3156 12.7274 62.1578 13.2037L61.5252 15.1616H60.5789L59.2271 10.6528H60.2768L60.7962 12.7963C60.9219 13.3032 61.0253 13.7862 61.1081 14.2434H61.1266C61.2026 13.8666 61.3284 13.3864 61.5057 12.8058L62.1578 10.6538H62.9901L63.6148 12.7599C63.7659 13.2736 63.8887 13.7681 63.9832 14.2444H64.0115C64.0807 13.7805 64.185 13.286 64.3233 12.7599L64.8808 10.6538H65.8837V10.6528Z" fill="white"/>
<path d="M71.1788 15.1616H70.1574V12.5792C70.1574 11.7834 69.8494 11.3855 69.2315 11.3855C68.9284 11.3855 68.6838 11.4945 68.4937 11.7136C68.3056 11.9326 68.2101 12.1908 68.2101 12.4864V15.1607H67.1887V11.9412C67.1887 11.5452 67.1761 11.1158 67.1517 10.6509H68.0493L68.0971 11.3558H68.1253C68.2442 11.1368 68.4216 10.956 68.6545 10.8116C68.9313 10.6433 69.2412 10.5581 69.5804 10.5581C70.0092 10.5581 70.366 10.694 70.6496 10.9666C71.0024 11.3004 71.1788 11.7987 71.1788 12.4606V15.1616Z" fill="white"/>
<path d="M73.9954 15.1616H72.975V8.58398H73.9954V15.1616Z" fill="white"/>
<path d="M80.0088 12.8699C80.0088 13.5634 79.8071 14.1315 79.4036 14.5772C78.9806 15.0354 78.4192 15.264 77.7204 15.264C77.045 15.264 76.508 15.0449 76.1084 14.605C75.7088 14.1659 75.509 13.6121 75.509 12.9445C75.509 12.2463 75.7146 11.6734 76.1279 11.2286C76.5411 10.7839 77.0966 10.561 77.7954 10.561C78.4709 10.561 79.0118 10.78 79.423 11.2191C79.8129 11.6456 80.0088 12.1966 80.0088 12.8699ZM78.9484 12.9024C78.9484 12.4864 78.8568 12.1296 78.6745 11.8322C78.4611 11.4725 78.1551 11.2927 77.7594 11.2927C77.3481 11.2927 77.0362 11.4725 76.8228 11.8322C76.6396 12.1296 76.5489 12.4921 76.5489 12.9206C76.5489 13.3367 76.6405 13.6934 76.8228 13.9909C77.044 14.3505 77.352 14.5304 77.7496 14.5304C78.1395 14.5304 78.4445 14.3477 78.6648 13.9813C78.8549 13.6781 78.9484 13.3185 78.9484 12.9024Z" fill="white"/>
<path d="M84.952 15.1616H84.0349L83.9589 14.6423H83.9306C83.6168 15.0564 83.1695 15.264 82.5886 15.264C82.1549 15.264 81.804 15.1272 81.5399 14.8556C81.3002 14.6088 81.1803 14.3018 81.1803 13.9373C81.1803 13.3864 81.4142 12.9665 81.8849 12.6758C82.3547 12.385 83.0155 12.2425 83.8663 12.2492V12.165C83.8663 11.571 83.5486 11.2745 82.9122 11.2745C82.459 11.2745 82.0594 11.3864 81.7144 11.6083L81.5068 10.9503C81.9337 10.6911 82.4609 10.561 83.0827 10.561C84.2835 10.561 84.8858 11.1827 84.8858 12.4261V14.0866C84.8858 14.5371 84.9082 14.8957 84.952 15.1616ZM83.8917 13.6121V12.9168C82.765 12.8977 82.2017 13.2009 82.2017 13.8254C82.2017 14.0607 82.266 14.2367 82.3976 14.3544C82.5291 14.472 82.6968 14.5304 82.8966 14.5304C83.1207 14.5304 83.3303 14.4605 83.5213 14.3218C83.7133 14.1822 83.8312 14.0053 83.8751 13.7881C83.8858 13.7394 83.8917 13.6801 83.8917 13.6121Z" fill="white"/>
<path d="M90.7559 15.1616H89.8495L89.8017 14.4376H89.7734C89.484 14.9885 88.9908 15.264 88.2979 15.264C87.7443 15.264 87.2833 15.0507 86.9178 14.6241C86.5524 14.1975 86.3701 13.6437 86.3701 12.9637C86.3701 12.2339 86.568 11.6428 86.9656 11.1913C87.3506 10.7705 87.8223 10.5601 88.3836 10.5601C89.0006 10.5601 89.4323 10.7638 89.6779 11.1722H89.6974V8.58398H90.7198V13.9469C90.7198 14.3859 90.7315 14.7905 90.7559 15.1616ZM89.6974 13.2602V12.5084C89.6974 12.3783 89.6877 12.2731 89.6692 12.1927C89.6117 11.9517 89.4879 11.7489 89.2998 11.5854C89.1097 11.4218 88.8807 11.3396 88.6166 11.3396C88.2355 11.3396 87.9373 11.4878 87.718 11.7853C87.5006 12.0828 87.3905 12.4625 87.3905 12.9264C87.3905 13.3721 87.4948 13.7336 87.7043 14.012C87.9256 14.3085 88.2238 14.4567 88.5971 14.4567C88.9324 14.4567 89.2004 14.3333 89.4041 14.0856C89.6009 13.857 89.6974 13.5815 89.6974 13.2602Z" fill="white"/>
<path d="M99.4913 12.8699C99.4913 13.5634 99.2896 14.1315 98.8861 14.5772C98.4631 15.0354 97.9037 15.264 97.2029 15.264C96.5295 15.264 95.9925 15.0449 95.5909 14.605C95.1913 14.1659 94.9915 13.6121 94.9915 12.9445C94.9915 12.2463 95.1972 11.6734 95.6104 11.2286C96.0237 10.7839 96.5792 10.561 97.2799 10.561C97.9534 10.561 98.4963 10.78 98.9056 11.2191C99.2954 11.6456 99.4913 12.1966 99.4913 12.8699ZM98.4329 12.9024C98.4329 12.4864 98.3413 12.1296 98.159 11.8322C97.9436 11.4725 97.6396 11.2927 97.2419 11.2927C96.8326 11.2927 96.5207 11.4725 96.3053 11.8322C96.1221 12.1296 96.0315 12.4921 96.0315 12.9206C96.0315 13.3367 96.1231 13.6934 96.3053 13.9909C96.5266 14.3505 96.8345 14.5304 97.2322 14.5304C97.622 14.5304 97.929 14.3477 98.1493 13.9813C98.3374 13.6781 98.4329 13.3185 98.4329 12.9024Z" fill="white"/>
<path d="M104.983 15.1616H103.963V12.5792C103.963 11.7834 103.655 11.3855 103.036 11.3855C102.733 11.3855 102.488 11.4945 102.299 11.7136C102.11 11.9326 102.016 12.1908 102.016 12.4864V15.1607H100.993V11.9412C100.993 11.5452 100.982 11.1158 100.957 10.6509H101.854L101.902 11.3558H101.93C102.05 11.1368 102.227 10.956 102.459 10.8116C102.737 10.6433 103.046 10.5581 103.386 10.5581C103.814 10.5581 104.17 10.694 104.454 10.9666C104.808 11.3004 104.983 11.7987 104.983 12.4606V15.1616Z" fill="white"/>
<path d="M111.857 11.4037H110.733V13.594C110.733 14.1506 110.932 14.429 111.328 14.429C111.511 14.429 111.663 14.4137 111.783 14.3821L111.809 15.1425C111.608 15.2171 111.343 15.2544 111.016 15.2544C110.613 15.2544 110.299 15.1339 110.072 14.8929C109.844 14.6518 109.731 14.2463 109.731 13.6772V11.4037H109.059V10.6528H109.731V9.82645L110.732 9.52994V10.6519H111.856V11.4037H111.857Z" fill="white"/>
<path d="M117.264 15.1616H116.242V12.5983C116.242 11.7901 115.934 11.3855 115.317 11.3855C114.843 11.3855 114.52 11.6198 114.342 12.0885C114.312 12.187 114.295 12.3075 114.295 12.4491V15.1607H113.274V8.58398H114.295V11.3013H114.314C114.636 10.8068 115.097 10.5601 115.694 10.5601C116.117 10.5601 116.467 10.6959 116.745 10.9685C117.091 11.308 117.264 11.813 117.264 12.4806V15.1616Z" fill="white"/>
<path d="M122.842 12.6939C122.842 12.8737 122.828 13.0249 122.804 13.1483H119.741C119.755 13.594 119.901 13.9335 120.184 14.1688C120.444 14.3792 120.778 14.4844 121.187 14.4844C121.64 14.4844 122.054 14.4137 122.426 14.2711L122.586 14.9675C122.15 15.153 121.637 15.2458 121.044 15.2458C120.332 15.2458 119.772 15.0402 119.367 14.6289C118.959 14.2176 118.757 13.6657 118.757 12.9732C118.757 12.2932 118.946 11.7269 119.325 11.2755C119.72 10.7934 120.255 10.5524 120.931 10.5524C121.592 10.5524 122.094 10.7934 122.433 11.2755C122.707 11.6581 122.842 12.1315 122.842 12.6939ZM121.867 12.4347C121.875 12.1373 121.808 11.8809 121.67 11.6648C121.492 11.3864 121.222 11.2468 120.857 11.2468C120.523 11.2468 120.252 11.3826 120.044 11.6552C119.874 11.8723 119.774 12.1315 119.741 12.4347H121.867Z" fill="white"/>
</svg>
