<svg width="141" height="42" viewBox="0 0 141 42" fill="none" xmlns="http://www.w3.org/2000/svg">
<rect y="0.118286" width="141" height="41" rx="8" fill="#333333"/>
<path d="M34.1294 20.4675C34.1011 17.3848 36.7014 15.8851 36.8203 15.8152C35.3477 13.7081 33.0651 13.4202 32.263 13.3973C30.3459 13.1993 28.4864 14.5231 27.5098 14.5231C26.5138 14.5231 25.0099 13.4164 23.3892 13.4489C21.3035 13.4805 19.3523 14.6656 18.2822 16.5058C16.0737 20.258 17.7208 25.7721 19.8367 28.8051C20.8951 30.2905 22.1319 31.949 23.7507 31.8906C25.3345 31.8265 25.9261 30.8997 27.8373 30.8997C29.731 30.8997 30.2865 31.8906 31.9375 31.8533C33.6372 31.8265 34.7073 30.3612 35.7287 28.8624C36.9519 27.1599 37.4431 25.4832 37.4626 25.3972C37.4226 25.3838 34.1616 24.1624 34.1294 20.4675Z" fill="white"/>
<path d="M31.0106 11.4021C31.8624 10.3567 32.4453 8.9344 32.2835 7.49109C31.0506 7.54465 29.5088 8.328 28.6209 9.35047C27.8353 10.2515 27.1336 11.7282 27.3149 13.117C28.6998 13.2184 30.1218 12.4313 31.0106 11.4021Z" fill="white"/>
<path d="M56.995 31.6774H54.7816L53.5692 27.9386H49.355L48.2 31.6774H46.0452L50.2204 18.9487H52.7992L56.995 31.6774ZM53.2037 26.3699L52.1073 23.0462C51.9913 22.7067 51.7739 21.9071 51.4533 20.6483H51.4143C51.2866 21.1897 51.081 21.9893 50.7984 23.0462L49.7214 26.3699H53.2037Z" fill="white"/>
<path d="M67.7323 26.9754C67.7323 28.5364 67.3025 29.7702 66.4429 30.676C65.6729 31.4823 64.7168 31.885 63.5755 31.885C62.3436 31.885 61.4587 31.4507 60.9197 30.5823H60.8807V35.4172H58.8029V25.5206C58.8029 24.5393 58.7765 23.5321 58.7259 22.4991H60.5533L60.6692 23.9539H60.7082C61.4012 22.8578 62.4528 22.3107 63.864 22.3107C64.9673 22.3107 65.8883 22.7383 66.6251 23.5943C67.3639 24.4513 67.7323 25.578 67.7323 26.9754ZM65.6154 27.05C65.6154 26.1567 65.4107 25.4202 64.9995 24.8406C64.5502 24.2361 63.9469 23.9338 63.1906 23.9338C62.6779 23.9338 62.2121 24.1022 61.7959 24.4341C61.3788 24.7688 61.1059 25.2059 60.9782 25.7473C60.9139 25.9998 60.8817 26.2064 60.8817 26.369V27.8994C60.8817 28.567 61.0903 29.1303 61.5074 29.5904C61.9245 30.0505 62.4664 30.28 63.1331 30.28C63.9157 30.28 64.5248 29.9835 64.9605 29.3924C65.3971 28.8004 65.6154 28.0199 65.6154 27.05Z" fill="white"/>
<path d="M78.4891 26.9754C78.4891 28.5364 78.0593 29.7702 77.1987 30.676C76.4297 31.4823 75.4736 31.885 74.3324 31.885C73.1005 31.885 72.2155 31.4507 71.6775 30.5823H71.6385V35.4172H69.5607V25.5206C69.5607 24.5393 69.5343 23.5321 69.4837 22.4991H71.3111L71.427 23.9539H71.466C72.158 22.8578 73.2096 22.3107 74.6218 22.3107C75.7241 22.3107 76.6451 22.7383 77.3839 23.5943C78.1197 24.4513 78.4891 25.578 78.4891 26.9754ZM76.3722 27.05C76.3722 26.1567 76.1666 25.4202 75.7553 24.8406C75.306 24.2361 74.7047 23.9338 73.9474 23.9338C73.4338 23.9338 72.9689 24.1022 72.5518 24.4341C72.1346 24.7688 71.8627 25.2059 71.735 25.7473C71.6717 25.9998 71.6385 26.2064 71.6385 26.369V27.8994C71.6385 28.567 71.8471 29.1303 72.2623 29.5904C72.6794 30.0495 73.2213 30.28 73.8899 30.28C74.6725 30.28 75.2816 29.9835 75.7173 29.3924C76.1539 28.8004 76.3722 28.0199 76.3722 27.05Z" fill="white"/>
<path d="M90.5158 28.1079C90.5158 29.1906 90.1328 30.0715 89.3638 30.7516C88.5189 31.4947 87.3425 31.8658 85.8309 31.8658C84.4352 31.8658 83.3164 31.6019 82.4694 31.0729L82.9509 29.3733C83.8631 29.9146 84.864 30.1863 85.9546 30.1863C86.7373 30.1863 87.3464 30.0122 87.784 29.666C88.2196 29.3197 88.437 28.8549 88.437 28.2753C88.437 27.7588 88.2576 27.3236 87.898 26.9706C87.5403 26.6177 86.9429 26.2896 86.1086 25.9864C83.8378 25.1553 82.7033 23.9377 82.7033 22.3365C82.7033 21.2902 83.101 20.4322 83.8972 19.7646C84.6906 19.096 85.749 18.7622 87.0725 18.7622C88.2528 18.7622 89.2332 18.964 90.0159 19.3667L89.4964 21.029C88.7654 20.6388 87.9389 20.4437 87.014 20.4437C86.2831 20.4437 85.712 20.6206 85.3026 20.9726C84.9566 21.2873 84.7831 21.6708 84.7831 22.1252C84.7831 22.6283 84.981 23.0443 85.3786 23.3714C85.7246 23.6737 86.3533 24.0008 87.2655 24.3537C88.3814 24.7947 89.2011 25.3102 89.7283 25.9013C90.2537 26.4905 90.5158 27.2279 90.5158 28.1079Z" fill="white"/>
<path d="M97.3859 24.0295H95.0955V28.4857C95.0955 29.6191 95.499 30.1853 96.308 30.1853C96.6793 30.1853 96.9873 30.1537 97.2309 30.0906L97.2884 31.6391C96.8791 31.7893 96.3401 31.8649 95.6725 31.8649C94.8519 31.8649 94.2106 31.6191 93.7477 31.1284C93.2867 30.6368 93.0547 29.8123 93.0547 28.654V24.0276H91.6902V22.4972H93.0547V20.8167L95.0955 20.2122V22.4972H97.3859V24.0295Z" fill="white"/>
<path d="M107.72 27.0127C107.72 28.4235 107.308 29.5818 106.488 30.4876C105.627 31.4201 104.485 31.885 103.061 31.885C101.689 31.885 100.596 31.4383 99.7815 30.545C98.9667 29.6516 98.5593 28.5239 98.5593 27.1648C98.5593 25.7425 98.9784 24.5775 99.8195 23.6718C100.659 22.765 101.791 22.3117 103.215 22.3117C104.587 22.3117 105.692 22.7583 106.525 23.6526C107.322 24.5202 107.72 25.6402 107.72 27.0127ZM105.564 27.0787C105.564 26.2322 105.38 25.5063 105.006 24.9008C104.571 24.1682 103.948 23.8028 103.141 23.8028C102.306 23.8028 101.671 24.1691 101.236 24.9008C100.862 25.5072 100.678 26.2447 100.678 27.117C100.678 27.9634 100.862 28.6894 101.236 29.2939C101.685 30.0265 102.313 30.3919 103.122 30.3919C103.916 30.3919 104.539 30.0189 104.988 29.2748C105.371 28.6578 105.564 27.9242 105.564 27.0787Z" fill="white"/>
<path d="M114.474 24.2925C114.268 24.2552 114.049 24.2361 113.819 24.2361C113.088 24.2361 112.523 24.5068 112.125 25.0491C111.779 25.5273 111.606 26.1318 111.606 26.8616V31.6774H109.529L109.548 25.3896C109.548 24.3317 109.522 23.3686 109.47 22.5001H111.28L111.356 24.2562H111.414C111.633 23.6526 111.979 23.1668 112.452 22.8023C112.915 22.4743 113.415 22.3107 113.954 22.3107C114.146 22.3107 114.32 22.3241 114.474 22.348V24.2925Z" fill="white"/>
<path d="M123.767 26.654C123.767 27.0194 123.742 27.3274 123.691 27.5789H117.457C117.481 28.4857 117.783 29.1791 118.362 29.6573C118.887 30.0849 119.566 30.2991 120.4 30.2991C121.323 30.2991 122.165 30.1547 122.923 29.8649L123.248 31.2805C122.363 31.6592 121.319 31.8477 120.113 31.8477C118.663 31.8477 117.524 31.4287 116.696 30.5918C115.869 29.7549 115.455 28.6311 115.455 27.2212C115.455 25.8372 115.84 24.6847 116.611 23.7655C117.418 22.7842 118.509 22.2935 119.881 22.2935C121.229 22.2935 122.249 22.7842 122.942 23.7655C123.491 24.545 123.767 25.5091 123.767 26.654ZM121.785 26.1251C121.799 25.5206 121.664 24.9984 121.382 24.5575C121.022 23.9903 120.47 23.7071 119.726 23.7071C119.047 23.7071 118.494 23.9836 118.072 24.5383C117.726 24.9793 117.52 25.5082 117.457 26.1241H121.785V26.1251Z" fill="white"/>
<path d="M52.5166 11.1182C52.5166 12.244 52.1726 13.0914 51.4855 13.6605C50.8491 14.1856 49.9446 14.4487 48.7731 14.4487C48.1923 14.4487 47.6952 14.4238 47.2791 14.3741V8.22301C47.8219 8.13693 48.4067 8.09293 49.0382 8.09293C50.1542 8.09293 50.9953 8.33109 51.5625 8.80742C52.1979 9.34591 52.5166 10.1159 52.5166 11.1182ZM51.4397 11.146C51.4397 10.4162 51.2428 9.85666 50.8491 9.46642C50.4553 9.07714 49.8803 8.88202 49.123 8.88202C48.8014 8.88202 48.5275 8.90306 48.3004 8.94706V13.6232C48.4262 13.6424 48.6562 13.651 48.9905 13.651C49.7721 13.651 50.3754 13.4377 50.8003 13.0111C51.2253 12.5845 51.4397 11.9628 51.4397 11.146Z" fill="white"/>
<path d="M58.2269 12.1015C58.2269 12.7949 58.0252 13.3631 57.6217 13.8088C57.1987 14.2669 56.6383 14.4955 55.9385 14.4955C55.2641 14.4955 54.7271 14.2765 54.3265 13.8365C53.9269 13.3975 53.7271 12.8437 53.7271 12.1761C53.7271 11.4779 53.9327 10.905 54.346 10.4602C54.7592 10.0154 55.3147 9.79258 56.0145 9.79258C56.689 9.79258 57.2308 10.0116 57.6412 10.4506C58.031 10.8772 58.2269 11.4281 58.2269 12.1015ZM57.1675 12.134C57.1675 11.718 57.0759 11.3612 56.8936 11.0637C56.6792 10.7041 56.3742 10.5243 55.9775 10.5243C55.5672 10.5243 55.2553 10.7041 55.0409 11.0637C54.8577 11.3612 54.767 11.7237 54.767 12.1522C54.767 12.5683 54.8586 12.925 55.0409 13.2225C55.2621 13.5821 55.5701 13.7619 55.9677 13.7619C56.3576 13.7619 56.6636 13.5792 56.8839 13.2129C57.073 12.9097 57.1675 12.5501 57.1675 12.134Z" fill="white"/>
<path d="M65.8835 9.8844L64.4459 14.3932H63.5103L62.9148 12.4353C62.7637 11.9465 62.6409 11.4607 62.5454 10.9786H62.5269C62.4382 11.474 62.3154 11.959 62.1575 12.4353L61.525 14.3932H60.5786L59.2268 9.8844H60.2765L60.796 12.0278C60.9217 12.5348 61.025 13.0178 61.1079 13.475H61.1264C61.2024 13.0981 61.3281 12.618 61.5055 12.0374L62.1575 9.88535H62.9898L63.6146 11.9915C63.7656 12.5051 63.8884 12.9996 63.983 13.4759H64.0112C64.0804 13.0121 64.1847 12.5176 64.3231 11.9915L64.8806 9.88535H65.8835V9.8844Z" fill="white"/>
<path d="M71.1785 14.3932H70.1571V11.8107C70.1571 11.015 69.8492 10.6171 69.2313 10.6171C68.9282 10.6171 68.6835 10.7261 68.4935 10.9451C68.3054 11.1642 68.2099 11.4224 68.2099 11.718V14.3922H67.1885V11.1728C67.1885 10.7768 67.1758 10.3473 67.1514 9.88249H68.0491L68.0968 10.5874H68.1251C68.244 10.3684 68.4214 10.1876 68.6543 10.0432C68.9311 9.87484 69.241 9.78971 69.5802 9.78971C70.009 9.78971 70.3657 9.92553 70.6493 10.1981C71.0021 10.5319 71.1785 11.0303 71.1785 11.6921V14.3932Z" fill="white"/>
<path d="M73.9952 14.3932H72.9748V7.81555H73.9952V14.3932Z" fill="white"/>
<path d="M80.0086 12.1015C80.0086 12.7949 79.8068 13.3631 79.4033 13.8088C78.9803 14.2669 78.419 14.4955 77.7202 14.4955C77.0448 14.4955 76.5077 14.2765 76.1081 13.8365C75.7085 13.3975 75.5088 12.8437 75.5088 12.1761C75.5088 11.4779 75.7144 10.905 76.1276 10.4602C76.5409 10.0154 77.0964 9.79258 77.7952 9.79258C78.4706 9.79258 79.0115 10.0116 79.4228 10.4506C79.8126 10.8772 80.0086 11.4281 80.0086 12.1015ZM78.9482 12.134C78.9482 11.718 78.8566 11.3612 78.6743 11.0637C78.4609 10.7041 78.1548 10.5243 77.7591 10.5243C77.3479 10.5243 77.036 10.7041 76.8225 11.0637C76.6393 11.3612 76.5487 11.7237 76.5487 12.1522C76.5487 12.5683 76.6403 12.925 76.8225 13.2225C77.0438 13.5821 77.3518 13.7619 77.7494 13.7619C78.1392 13.7619 78.4443 13.5792 78.6646 13.2129C78.8546 12.9097 78.9482 12.5501 78.9482 12.134Z" fill="white"/>
<path d="M84.9518 14.3932H84.0347L83.9587 13.8738H83.9304C83.6166 14.288 83.1692 14.4955 82.5884 14.4955C82.1546 14.4955 81.8038 14.3588 81.5397 14.0871C81.2999 13.8404 81.18 13.5333 81.18 13.1689C81.18 12.618 81.4139 12.1981 81.8847 11.9073C82.3544 11.6166 83.0152 11.4741 83.8661 11.4807V11.3966C83.8661 10.8026 83.5483 10.5061 82.9119 10.5061C82.4587 10.5061 82.0591 10.618 81.7141 10.8399L81.5065 10.1819C81.9334 9.92266 82.4607 9.79258 83.0825 9.79258C84.2832 9.79258 84.8855 10.4143 84.8855 11.6577V13.3181C84.8855 13.7686 84.9079 14.1273 84.9518 14.3932ZM83.8914 12.8437V12.1484C82.7648 12.1292 82.2014 12.4324 82.2014 13.057C82.2014 13.2923 82.2658 13.4683 82.3973 13.5859C82.5289 13.7036 82.6965 13.7619 82.8963 13.7619C83.1205 13.7619 83.33 13.6921 83.5211 13.5534C83.7131 13.4138 83.831 13.2368 83.8748 13.0197C83.8856 12.9709 83.8914 12.9116 83.8914 12.8437Z" fill="white"/>
<path d="M90.7556 14.3932H89.8492L89.8015 13.6691H89.7732C89.4837 14.2201 88.9906 14.4955 88.2976 14.4955C87.7441 14.4955 87.2831 14.2822 86.9176 13.8557C86.5521 13.4291 86.3699 12.8753 86.3699 12.1952C86.3699 11.4654 86.5677 10.8743 86.9654 10.4229C87.3503 10.002 87.822 9.79162 88.3834 9.79162C89.0003 9.79162 89.4321 9.99535 89.6777 10.4038H89.6972V7.81555H90.7196V13.1785C90.7196 13.6175 90.7313 14.0221 90.7556 14.3932ZM89.6972 12.4917V11.7399C89.6972 11.6099 89.6874 11.5047 89.6689 11.4243C89.6114 11.1833 89.4876 10.9805 89.2995 10.817C89.1095 10.6534 88.8805 10.5711 88.6163 10.5711C88.2353 10.5711 87.937 10.7194 87.7177 11.0169C87.5004 11.3143 87.3903 11.694 87.3903 12.1579C87.3903 12.6036 87.4946 12.9652 87.7041 13.2435C87.9253 13.54 88.2236 13.6883 88.5968 13.6883C88.9321 13.6883 89.2001 13.5649 89.4038 13.3172C89.6007 13.0886 89.6972 12.8131 89.6972 12.4917Z" fill="white"/>
<path d="M99.4911 12.1015C99.4911 12.7949 99.2893 13.3631 98.8858 13.8088C98.4629 14.2669 97.9034 14.4955 97.2027 14.4955C96.5292 14.4955 95.9922 14.2765 95.5907 13.8365C95.1911 13.3975 94.9913 12.8437 94.9913 12.1761C94.9913 11.4779 95.1969 10.905 95.6102 10.4602C96.0234 10.0154 96.5789 9.79258 97.2797 9.79258C97.9531 9.79258 98.496 10.0116 98.9053 10.4506C99.2952 10.8772 99.4911 11.4281 99.4911 12.1015ZM98.4327 12.134C98.4327 11.718 98.341 11.3612 98.1588 11.0637C97.9434 10.7041 97.6393 10.5243 97.2417 10.5243C96.8323 10.5243 96.5205 10.7041 96.3051 11.0637C96.1218 11.3612 96.0312 11.7237 96.0312 12.1522C96.0312 12.5683 96.1228 12.925 96.3051 13.2225C96.5263 13.5821 96.8343 13.7619 97.2319 13.7619C97.6218 13.7619 97.9288 13.5792 98.149 13.2129C98.3371 12.9097 98.4327 12.5501 98.4327 12.134Z" fill="white"/>
<path d="M104.983 14.3932H103.963V11.8107C103.963 11.015 103.655 10.6171 103.036 10.6171C102.733 10.6171 102.488 10.7261 102.299 10.9451C102.11 11.1642 102.015 11.4224 102.015 11.718V14.3922H100.993V11.1728C100.993 10.7768 100.981 10.3473 100.957 9.88249H101.854L101.901 10.5874H101.93C102.049 10.3684 102.227 10.1876 102.459 10.0432C102.737 9.87484 103.046 9.78971 103.386 9.78971C103.813 9.78971 104.17 9.92553 104.454 10.1981C104.808 10.5319 104.983 11.0303 104.983 11.6921V14.3932Z" fill="white"/>
<path d="M111.857 10.6352H110.732V12.8255C110.732 13.3822 110.932 13.6605 111.328 13.6605C111.511 13.6605 111.663 13.6452 111.783 13.6137L111.809 14.3741C111.607 14.4487 111.342 14.486 111.016 14.486C110.612 14.486 110.299 14.3655 110.071 14.1244C109.843 13.8834 109.73 13.4779 109.73 12.9088V10.6352H109.059V9.8844H109.73V9.05801L110.731 8.76151V9.88345H111.856V10.6352H111.857Z" fill="white"/>
<path d="M117.264 14.3932H116.242V11.8299C116.242 11.0216 115.934 10.6171 115.317 10.6171C114.843 10.6171 114.52 10.8514 114.342 11.3201C114.312 11.4186 114.294 11.5391 114.294 11.6806V14.3922H113.274V7.81555H114.294V10.5329H114.314C114.636 10.0384 115.097 9.79162 115.694 9.79162C116.117 9.79162 116.467 9.92744 116.745 10.2C117.091 10.5396 117.264 11.0446 117.264 11.7122V14.3932Z" fill="white"/>
<path d="M122.842 11.9255C122.842 12.1053 122.828 12.2564 122.804 12.3798H119.741C119.754 12.8255 119.9 13.1651 120.184 13.4004C120.443 13.6108 120.778 13.716 121.187 13.716C121.64 13.716 122.053 13.6452 122.426 13.5027L122.586 14.199C122.15 14.3846 121.637 14.4774 121.044 14.4774C120.332 14.4774 119.772 14.2717 119.366 13.8604C118.959 13.4492 118.757 12.8973 118.757 12.2048C118.757 11.5247 118.945 10.9585 119.324 10.5071C119.72 10.025 120.255 9.78396 120.931 9.78396C121.591 9.78396 122.093 10.025 122.433 10.5071C122.706 10.8896 122.842 11.3631 122.842 11.9255ZM121.867 11.6663C121.875 11.3688 121.808 11.1125 121.669 10.8963C121.492 10.618 121.222 10.4784 120.857 10.4784C120.523 10.4784 120.251 10.6142 120.044 10.8868C119.874 11.1039 119.774 11.3631 119.741 11.6663H121.867Z" fill="white"/>
</svg>
