<svg width="36" height="36" viewBox="0 0 36 36" fill="none" xmlns="http://www.w3.org/2000/svg">
<path d="M33 7.27499V25.11C33 26.565 31.815 27.9 30.36 28.08L29.895 28.14C27.435 28.47 23.97 29.49 21.18 30.66C20.205 31.065 19.125 30.33 19.125 29.265V8.39999C19.125 7.84499 19.44 7.33499 19.935 7.06499C22.68 5.57999 26.835 4.25999 29.655 4.01999H29.745C31.545 4.01999 33 5.47499 33 7.27499Z" fill="#FF4667"/>
<path d="M16.0651 7.06499C13.3201 5.57999 9.16511 4.25999 6.34511 4.01999H6.24011C4.44011 4.01999 2.98511 5.47499 2.98511 7.27499V25.11C2.98511 26.565 4.17011 27.9 5.62511 28.08L6.09011 28.14C8.55011 28.47 12.0151 29.49 14.8051 30.66C15.7801 31.065 16.8601 30.33 16.8601 29.265V8.39999C16.8601 7.82999 16.5601 7.33499 16.0651 7.06499ZM7.50011 11.61H10.8751C11.4901 11.61 12.0001 12.12 12.0001 12.735C12.0001 13.365 11.4901 13.86 10.8751 13.86H7.50011C6.88511 13.86 6.37511 13.365 6.37511 12.735C6.37511 12.12 6.88511 11.61 7.50011 11.61ZM12.0001 18.36H7.50011C6.88511 18.36 6.37511 17.865 6.37511 17.235C6.37511 16.62 6.88511 16.11 7.50011 16.11H12.0001C12.6151 16.11 13.1251 16.62 13.1251 17.235C13.1251 17.865 12.6151 18.36 12.0001 18.36Z" fill="#FF4667"/>
</svg>
