<svg width="36" height="36" viewBox="0 0 36 36" fill="none" xmlns="http://www.w3.org/2000/svg">
<path d="M30.75 24V27.75C30.75 30.645 28.395 33 25.5 33H10.5C7.605 33 5.25 30.645 5.25 27.75V26.775C5.25 24.42 7.17 22.5 9.525 22.5H29.25C30.075 22.5 30.75 23.175 30.75 24Z" fill="#0DCAF0"/>
<path d="M23.25 3H12.75C6.75 3 5.25 4.5 5.25 10.5V21.87C6.39 20.865 7.89 20.25 9.525 20.25H29.25C30.075 20.25 30.75 19.575 30.75 18.75V10.5C30.75 4.5 29.25 3 23.25 3ZM19.5 16.125H12C11.385 16.125 10.875 15.615 10.875 15C10.875 14.385 11.385 13.875 12 13.875H19.5C20.115 13.875 20.625 14.385 20.625 15C20.625 15.615 20.115 16.125 19.5 16.125ZM24 10.875H12C11.385 10.875 10.875 10.365 10.875 9.75C10.875 9.135 11.385 8.625 12 8.625H24C24.615 8.625 25.125 9.135 25.125 9.75C25.125 10.365 24.615 10.875 24 10.875Z" fill="#0DCAF0"/>
</svg>
