<svg width="36" height="36" viewBox="0 0 36 36" fill="none" xmlns="http://www.w3.org/2000/svg">
<path d="M25.5 7.44V18.12C25.5 21.105 23.385 22.26 20.79 20.7L18.81 19.5C18.36 19.23 17.64 19.23 17.19 19.5L15.21 20.7C12.615 22.26 10.5 21.105 10.5 18.12V7.485C10.515 4.5 12.015 3 15 3H21C23.97 3 25.47 4.485 25.5 7.44Z" fill="#03C95A"/>
<path d="M33 17.85V22.395C33 29.97 30 33 22.5 33H13.5C6 33 3 29.97 3 22.395V17.85C3 13.815 3.855 11.07 5.775 9.39C6.75 8.565 8.25 9.285 8.25 10.56V18.12C8.25 20.355 9.165 22.155 10.755 23.055C12.36 23.97 14.4 23.805 16.38 22.62L18 21.645L19.635 22.62C20.745 23.295 21.9 23.64 22.98 23.64C23.79 23.64 24.555 23.445 25.245 23.055C26.835 22.155 27.75 20.355 27.75 18.12V10.545C27.75 9.27 29.265 8.55 30.225 9.39C32.145 11.07 33 13.815 33 17.85Z" fill="#03C95A"/>
</svg>
