<svg width="36" height="37" viewBox="0 0 36 37" fill="none" xmlns="http://www.w3.org/2000/svg">
<path d="M18 3.85547C9.735 3.85547 3 10.5905 3 18.8555C3 27.1205 9.735 33.8555 18 33.8555C26.265 33.8555 33 27.1205 33 18.8555C33 10.5905 26.265 3.85547 18 3.85547ZM24.525 24.2105C24.315 24.5705 23.94 24.7655 23.55 24.7655C23.355 24.7655 23.16 24.7205 22.98 24.6005L18.33 21.8255C17.175 21.1355 16.32 19.6205 16.32 18.2855V12.1355C16.32 11.5205 16.83 11.0105 17.445 11.0105C18.06 11.0105 18.57 11.5205 18.57 12.1355V18.2855C18.57 18.8255 19.02 19.6205 19.485 19.8905L24.135 22.6655C24.675 22.9805 24.855 23.6705 24.525 24.2105Z" fill="#AB47BC"/>
</svg>
