<svg width="84" height="29" viewBox="0 0 84 29" fill="none" xmlns="http://www.w3.org/2000/svg">
<g clip-path="url(#clip0_446_56745)">
<path d="M8.1165 24.5474C8.1165 26.5201 6.52562 28.111 4.5529 28.111C2.58017 28.111 0.989258 26.5201 0.989258 24.5474C0.989258 22.5747 2.58017 20.9837 4.5529 20.9837C6.52562 20.9837 8.1165 22.5747 8.1165 24.5474Z" fill="black"/>
<path d="M20.0167 24.6112C20.0167 26.0112 18.8712 27.1566 17.4712 27.1566C16.0712 27.1566 14.9258 26.0112 14.9258 24.6112C14.9258 23.2112 16.0712 22.0657 17.4712 22.0657C18.8712 22.0657 20.0167 23.2112 20.0167 24.6112Z" fill="black"/>
<path d="M29.244 24.611C29.244 25.2473 28.7349 25.7564 28.0986 25.7564C27.4622 25.7564 26.9531 25.2473 26.9531 24.611C26.9531 23.9746 27.4622 23.4655 28.0986 23.4655C28.7349 23.4655 29.244 23.9746 29.244 24.611Z" fill="black"/>
<path d="M16.7709 17.0384C16.1345 17.0384 15.6891 16.5293 15.6891 15.9565V11.2475C15.6891 9.65654 14.9255 8.38381 13.2073 8.38381C11.4891 8.38381 10.4073 9.72018 10.4073 11.2475V15.8929C10.4073 16.5293 9.96182 16.9747 9.32545 16.9747C8.68909 16.9747 8.24364 16.4656 8.24364 15.8929V11.1838C8.24364 9.59291 7.41636 8.32018 5.69818 8.32018C3.91636 8.32018 3.02545 9.65654 3.02545 11.1838V15.8293C3.02545 16.4656 2.58 16.9111 1.94364 16.9111C1.30727 16.9111 0.861816 16.402 0.861816 15.8293V7.62018C0.861816 6.98381 1.30727 6.47472 1.94364 6.47472C2.70727 6.47472 3.02545 6.98381 3.02545 7.62018V8.38381C3.66182 7.17472 4.93454 6.41109 6.33454 6.41109C7.98909 6.41109 9.26182 7.23836 9.89818 8.51109C10.7891 7.11109 12.1255 6.41109 13.78 6.41109C16.58 6.41109 17.98 8.38381 17.98 11.1202V15.9565C17.9164 16.5293 17.4709 17.0384 16.7709 17.0384Z" fill="black"/>
<path d="M20.971 17.0384C20.3346 17.0384 19.8892 16.5293 19.8892 15.9566V7.62024C19.8892 6.98388 20.3346 6.53843 20.971 6.53843C21.6073 6.53843 22.0528 7.04752 22.0528 7.62024V15.9566C22.0528 16.5293 21.6073 17.0384 20.971 17.0384ZM20.971 2.33842C21.671 2.33842 22.2437 2.91115 22.2437 3.61115C22.2437 4.31115 21.671 4.88388 20.971 4.88388C20.271 4.88388 19.6982 4.31115 19.6982 3.61115C19.6982 2.91115 20.271 2.33842 20.971 2.33842Z" fill="black"/>
<path d="M28.2255 10.2927L31.0255 6.85635C31.2164 6.66544 31.471 6.53817 31.7255 6.53817C32.3619 6.53817 32.7437 6.91999 32.7437 7.49272C32.7437 7.68362 32.6801 7.93817 32.4892 8.12908L29.4346 11.7564L32.5528 15.4473C32.7437 15.6382 32.8074 15.8291 32.8074 16.0836C32.8074 16.5927 32.3619 17.0382 31.8528 17.0382C31.5346 17.0382 31.2801 16.9109 31.0892 16.6564L28.2892 13.1564L25.4892 16.6564C25.2983 16.9109 25.0437 17.0382 24.7255 17.0382C24.2165 17.0382 23.771 16.5927 23.771 16.0836C23.771 15.8291 23.8346 15.6382 24.0255 15.4473L27.1437 11.7564L24.0892 8.12908C23.8983 7.93817 23.8346 7.68362 23.8346 7.49272C23.8346 6.91999 24.2164 6.53817 24.8528 6.53817C25.171 6.53817 25.3619 6.66544 25.5528 6.85635L28.2255 10.2927Z" fill="black"/>
<path d="M39.7437 8.25661C37.8346 8.25661 36.6256 9.91116 36.6256 11.8202C36.6256 13.6657 37.8983 15.3839 39.7437 15.3839C41.6528 15.3839 42.8619 13.9839 42.8619 11.8202C42.8619 9.65661 41.6528 8.25661 39.7437 8.25661ZM40.1892 17.1657C38.5983 17.1657 37.3256 16.3384 36.6256 15.1293V20.3475C36.6256 20.9839 36.1801 21.4293 35.5437 21.4293C34.9074 21.4293 34.4619 20.9202 34.4619 20.3475V7.62025C34.4619 6.98388 34.8437 6.53843 35.4801 6.53843C36.1165 6.53843 36.5619 7.04752 36.5619 7.68388V8.51116C37.2619 7.30207 38.6619 6.47479 40.1892 6.47479C42.8619 6.47479 45.0256 8.70207 45.0256 11.8202C45.0256 15.0021 42.8619 17.1657 40.1892 17.1657Z" fill="black"/>
<path d="M51.262 8.32025C49.4165 8.32025 48.0801 9.91116 48.0801 11.8202C48.0801 13.8566 49.162 15.3202 51.262 15.3202C53.171 15.3202 54.4438 13.6657 54.4438 11.8202C54.3801 9.59297 53.1074 8.32025 51.262 8.32025ZM56.6074 15.9566C56.6074 16.593 56.162 17.0384 55.5256 17.0384C54.8892 17.0384 54.4438 16.5293 54.4438 15.9566V15.4475C53.8074 16.4021 52.5347 17.1657 51.071 17.1657C47.8256 17.1657 45.9165 14.7475 45.9165 11.8202C45.9165 8.89297 48.0165 6.47479 51.3256 6.47479C54.6983 6.47479 56.671 8.70207 56.671 11.8202V15.9566H56.6074Z" fill="black"/>
<path d="M63.1619 6.41109C65.9618 6.41109 68.0618 8.57472 68.0618 11.3111V15.9565C68.0618 16.5929 67.5527 17.0384 66.98 17.0384C66.3436 17.0384 65.8982 16.5293 65.8982 15.9565V11.0565C65.8982 9.59291 64.7527 8.44745 63.2255 8.44745C61.6982 8.44745 60.5528 9.59291 60.5528 11.0565V15.9565C60.5528 16.5929 60.0437 17.0384 59.471 17.0384C58.8346 17.0384 58.3891 16.5293 58.3891 15.9565V11.3111C58.3255 8.57472 60.3619 6.41109 63.1619 6.41109Z" fill="black"/>
<path d="M74.6166 8.19291C73.0257 8.19291 71.9439 9.33836 71.6893 10.802H77.4166C77.2257 9.33836 76.2075 8.19291 74.6166 8.19291ZM79.453 11.8202C79.453 12.202 79.2621 12.5838 78.6257 12.5838H71.6893C71.8166 14.1747 72.8984 15.3838 74.8075 15.3838C76.0166 15.3838 76.7166 14.9384 77.4803 14.2384C77.6712 14.0475 77.9257 13.8565 78.1803 13.8565C78.6893 13.8565 79.0712 14.2384 79.0712 14.7475C79.0712 15.002 78.9439 15.1929 78.8166 15.3838C77.9257 16.402 76.3348 17.102 74.6803 17.102C71.1803 17.102 69.3984 14.6838 69.3984 11.7565C69.3984 8.702 71.6257 6.41109 74.6166 6.41109C77.5439 6.41109 79.453 8.82927 79.453 11.8202Z" fill="black"/>
<path d="M82.0618 17.0382C81.4254 17.0382 80.98 16.5291 80.98 15.9564V2.2109C80.98 1.57453 81.4254 1.12908 82.0618 1.12908C82.6982 1.12908 83.1436 1.63817 83.1436 2.2109V15.9564C83.1436 16.5291 82.6982 17.0382 82.0618 17.0382Z" fill="black"/>
</g>
<defs>
<clipPath id="clip0_446_56745">
<rect width="82.7273" height="28" fill="white" transform="translate(0.79834 0.620117)"/>
</clipPath>
</defs>
</svg>
