<svg width="148" height="29" viewBox="0 0 148 29" fill="none" xmlns="http://www.w3.org/2000/svg">
<g clip-path="url(#clip0_446_56744)">
<path fill-rule="evenodd" clip-rule="evenodd" d="M131.54 22.1192L136.952 14.8386L131.96 7.95946H136.235L139.126 12.2515L142.042 7.95946H146.293L141.227 14.814L146.564 22.1192H142.364L139.077 17.4995L135.889 22.1192H131.54Z" fill="black"/>
<path fill-rule="evenodd" clip-rule="evenodd" d="M117.933 15.3222C117.933 19.9956 120.486 22.4799 125.007 22.4799C129.238 22.4799 132.107 19.9956 132.107 15.3222V14.9287C132.107 10.2061 129.189 7.59879 125.007 7.59879C120.924 7.59879 117.933 10.1569 117.933 14.9287V15.3222ZM128.422 15.3233C128.422 17.9158 127.129 19.3233 125.007 19.3233C122.91 19.3233 121.618 17.8912 121.618 15.3233V14.9776C121.618 12.2122 122.983 10.7554 125.032 10.7554C127.105 10.7554 128.422 12.311 128.422 14.9776V15.3233Z" fill="black"/>
<path fill-rule="evenodd" clip-rule="evenodd" d="M105.57 19.5295C106.337 21.349 107.87 22.4799 110.22 22.4799C113.856 22.4799 116.232 19.8245 116.232 15.104V14.686C116.232 9.96537 113.708 7.62965 110.319 7.60506C108.068 7.60506 106.485 8.61311 105.693 10.4571V3.1795H102.057V22.1111H105.273L105.57 19.5295ZM112.546 15.1378C112.546 17.9445 111.249 19.3233 109.12 19.3233C107.088 19.3233 105.742 17.7968 105.742 15.1378V14.8423C105.742 12.405 107.137 10.7554 109.169 10.7554C111.126 10.7554 112.546 12.1833 112.546 14.7932V15.1378Z" fill="black"/>
<path fill-rule="evenodd" clip-rule="evenodd" d="M85.8989 7.97622V26.9894H89.5288V19.869C90.2944 21.5232 91.8008 22.5354 94.0726 22.5354C97.4309 22.5354 100.073 20.0912 100.073 15.4004V15.0054C100.073 10.2158 97.7025 7.59879 94.0726 7.59879C91.7266 7.59879 90.1462 8.80854 89.3808 10.6355L89.0103 7.97622H85.8989ZM96.3878 15.3102C96.3878 17.92 95.0417 19.3233 92.937 19.3233C90.9058 19.3233 89.5842 17.7476 89.5842 15.2363V14.9654C89.5842 12.3311 90.9547 10.7554 93.0105 10.7554C94.9438 10.7554 96.3878 12.1588 96.3878 14.9901V15.3102Z" fill="black"/>
<path fill-rule="evenodd" clip-rule="evenodd" d="M69.7402 15.3222C69.7402 19.9956 72.3174 22.4799 76.8395 22.4799C81.0698 22.4799 83.9143 19.9956 83.9143 15.3222V14.9287C83.9143 10.2061 81.0211 7.59879 76.8395 7.59879C72.7549 7.59879 69.7402 10.1569 69.7402 14.9287V15.3222ZM80.229 15.3233C80.229 17.9158 78.9123 19.3233 76.8151 19.3233C74.718 19.3233 73.4255 17.8912 73.4255 15.3233V14.9776C73.4255 12.2122 74.7911 10.7554 76.8395 10.7554C78.9122 10.7554 80.229 12.311 80.229 14.9776V15.3233Z" fill="black"/>
<path fill-rule="evenodd" clip-rule="evenodd" d="M59.8184 22.1193H63.5362V15.6145C63.5362 12.6085 64.2798 11.5491 67.3532 11.5491H68.8898V7.77926H67.9727C65.3208 7.77926 63.8584 8.93729 63.2883 11.2041L62.8174 7.95881H59.8184V22.1193Z" fill="black"/>
<path fill-rule="evenodd" clip-rule="evenodd" d="M43.3765 4.62243V22.1191H50.1268C54.5239 22.1191 57.8342 19.5649 57.8342 13.9165V12.7131C57.8342 7.08921 54.3264 4.62243 50.028 4.62243H43.3765ZM47.0618 7.77904H49.8739C52.4137 7.77904 54.1489 9.38372 54.1489 12.914V13.8275C54.1489 17.3577 52.464 18.9625 49.9997 18.9625H47.0618V7.77904Z" fill="black"/>
<path d="M9.12163 0.978867L1.03271 6.12304L9.12163 11.2672L17.2119 6.12304L25.3009 11.2672L33.3897 6.12304L25.3009 0.978867L17.2119 6.12304L9.12163 0.978867Z" fill="#0056FE"/>
<path d="M9.12163 21.5557L1.03271 16.4114L9.12163 11.2672L17.2119 16.4114L9.12163 21.5557Z" fill="#0056FE"/>
<path d="M17.2119 16.4114L25.3009 11.2672L33.3898 16.4114L25.3009 21.5557L17.2119 16.4114Z" fill="#0056FE"/>
<path d="M17.2118 28.4145L9.12158 23.2703L17.2118 18.1262L25.3008 23.2703L17.2118 28.4145Z" fill="#0056FE"/>
</g>
<defs>
<clipPath id="clip0_446_56744">
<rect width="146.72" height="28" fill="white" transform="translate(0.496582 0.620117)"/>
</clipPath>
</defs>
</svg>
