<svg width="205" height="29" viewBox="0 0 205 29" fill="none" xmlns="http://www.w3.org/2000/svg">
<g clip-path="url(#clip0_446_56741)">
<path d="M123.393 2.91728C120.113 2.91728 118.518 4.85032 118.518 7.69764V9.36978H116.036V11.8065H118.528V24.6889H121.101V11.8065H125.053V9.36978H121.101L121.077 7.77432C121.077 6.39584 121.892 5.445 123.514 5.445C124.07 5.44278 124.623 5.4951 125.168 5.5988V3.16118C124.591 2.9965 123.993 2.91396 123.393 2.91728ZM46.4347 3.48564C46.0025 3.5014 45.5897 3.67954 45.2819 3.9886C44.9287 4.34042 44.7469 4.82964 44.7815 5.32674C44.7815 5.9841 45.1313 6.59208 45.7009 6.92004C46.2695 7.24942 46.9711 7.24942 47.5397 6.92004C48.1083 6.59208 48.4597 5.9841 48.4585 5.32674C48.4941 4.82964 48.3121 4.34042 47.9591 3.9886C47.6071 3.63538 47.1177 3.45334 46.6205 3.48912C46.5583 3.48468 46.4963 3.48336 46.4347 3.48558V3.48564ZM90.3791 4.25502C85.6886 4.25502 83.3003 6.57364 83.3003 9.70682C83.3003 13.0152 85.3303 14.5778 89.8571 15.6815C93.6865 16.6008 94.7899 17.5475 94.7899 19.3268C94.7899 21.1061 93.6441 22.3007 90.6117 22.3007C87.9485 22.3007 85.0689 21.5967 83.1997 20.6156V23.4327C84.7627 24.2297 86.5697 24.9953 90.4623 24.9953C95.4581 24.9953 97.5411 22.6343 97.5615 19.1427C97.5615 15.5147 95.1703 14.1499 90.9121 13.0767C87.3607 12.1898 86.0719 11.3606 86.0719 9.70682C86.0719 7.86894 87.6355 6.9495 90.2705 6.9495C92.4581 6.89626 94.6211 7.42458 96.5378 8.48172V5.72356C95.159 4.95142 93.2902 4.25502 90.3791 4.25502ZM38.8389 4.56432L38.8459 18.7451C38.8459 20.7543 38.0409 22.1469 35.7125 22.1469C34.7377 22.1545 33.7717 21.9771 32.8643 21.6249V24.3051C33.9285 24.6681 35.0475 24.8445 36.1717 24.8285C39.9741 24.8285 41.5967 22.2691 41.5967 18.5609V4.56432H38.8389ZM128.964 6.1208V9.38278H126.48V11.8208H128.974V19.9052C128.974 22.7567 130.569 24.6855 133.848 24.6855C134.449 24.6889 135.047 24.6063 135.624 24.4417V21.9001C135.081 22.0267 134.527 22.0993 133.97 22.1157C132.347 22.1157 131.55 21.1971 131.536 19.8488V11.8065H135.61V9.36978H131.536V6.1208H128.964ZM197.393 9.05268C192.735 9.05268 190.162 12.3598 190.162 16.9876C190.162 21.6877 192.672 24.9953 198.404 24.9953C199.966 24.9953 201.9 24.7581 203.156 24.0803V21.6423C201.662 22.1891 200.086 22.4699 198.498 22.4709C194.883 22.4709 193.197 20.7857 192.829 18.181H204.008V16.9876C204.008 12.3318 202.112 9.05268 197.393 9.05268ZM67.3607 9.06354C63.0711 9.06354 60.9269 12.7087 60.9269 17.0288C60.9269 21.5341 62.9811 24.9953 67.0545 24.9953C69.4121 24.9953 71.2503 23.9547 72.2325 21.9317L72.2355 24.6889H74.8717V9.36982H72.2355V12.0643C71.3129 10.0726 69.5963 9.06354 67.3609 9.06354H67.3607ZM107.161 9.06354C102.565 9.06354 99.87 12.4025 99.87 16.9976C99.87 21.5937 102.596 25.0061 107.161 25.0061C111.726 25.0061 114.392 21.5937 114.392 16.9976C114.392 12.4025 111.756 9.06354 107.161 9.06354ZM169.634 9.06354C165.344 9.06354 163.2 12.7087 163.2 17.0288C163.2 21.5341 165.254 24.9953 169.327 24.9953C171.685 24.9953 173.523 23.9547 174.505 21.9317L174.508 24.6889H177.144V9.36982H174.508V12.0643C173.585 10.0726 171.869 9.06354 169.634 9.06354ZM59.3427 9.13588C56.7073 9.13234 55.2939 10.3696 54.4615 12.0643V9.36982H51.8883V24.6993H54.4615V15.6469C54.4615 12.4022 56.5157 11.3787 59.8859 11.7264V9.15322C59.6991 9.14168 59.5183 9.13614 59.3427 9.13592V9.13588ZM188.577 9.13588C185.942 9.13234 184.529 10.3696 183.696 12.0643V9.36982H181.123V24.6993H183.696V15.6469C183.696 12.4022 185.751 11.3787 189.121 11.7264V9.15322C188.934 9.14168 188.753 9.13614 188.577 9.13592V9.13588ZM136.362 9.36982L141.999 24.6889H145.369L148.039 17.277L149.433 12.5582L150.825 17.277L153.461 24.6889H156.831L162.468 9.36982H159.557L155.142 22.3593L150.668 9.36982H148.154L143.684 22.3593L139.273 9.36982H136.362ZM45.2733 9.37336V24.6921H47.9079V9.37336H45.2733ZM197.264 11.4688C199.897 11.4688 201.184 13.0942 201.338 15.9424H192.798V15.9255C193.073 13.269 194.483 11.4549 197.264 11.4688V11.4688ZM68.0539 11.5004C70.3035 11.5004 72.2325 13.0013 72.2325 16.4029V17.6418C72.2325 21.0419 70.1203 22.5433 67.7619 22.5447C65.0315 22.5447 63.5627 20.7055 63.5487 17.0146C63.5487 13.4603 65.0801 11.5004 68.0539 11.5004ZM170.327 11.5004C172.576 11.5004 174.505 13.0013 174.505 16.4029V17.6418C174.505 21.0415 172.393 22.5429 170.034 22.5447C167.304 22.5447 165.825 20.7057 165.825 17.0288C165.825 13.4745 167.367 11.5284 170.327 11.5004ZM107.161 11.5281C110.409 11.5281 111.819 14.0877 111.819 16.9977C111.819 19.9087 110.437 22.5447 107.161 22.5447C103.885 22.5447 102.443 19.9087 102.443 16.9977H102.456C102.456 14.0877 103.912 11.5281 107.161 11.5281Z" fill="#253858"/>
<path d="M25.9982 13.8817L14.6472 2.53065L13.5471 1.43135L1.09675 13.8817C0.689754 14.2898 0.689754 14.9505 1.09675 15.3577L8.90317 23.1639L13.5471 27.8089L25.9982 15.3577C26.4056 14.9505 26.4056 14.2898 25.9982 13.8817ZM13.5471 18.5189L9.64815 14.6203L13.5471 10.7202L17.4468 14.6203L13.5471 18.5189Z" fill="#2684FF"/>
<path d="M13.5469 10.7202C10.9943 8.16649 10.9813 4.03051 13.5198 1.46181L4.98584 9.99243L9.63082 14.6374L13.5469 10.7202Z" fill="url(#paint0_linear_446_56741)"/>
<path d="M17.4575 14.6092L13.5469 18.5189C14.7792 19.7502 15.4724 21.4213 15.4724 23.1639C15.4724 24.9063 14.7792 26.5765 13.5469 27.8089L22.1014 19.2542L17.4575 14.6092Z" fill="url(#paint1_linear_446_56741)"/>
</g>
<defs>
<linearGradient id="paint0_linear_446_56741" x1="11.871" y1="7.75583" x2="7.40554" y2="12.2202" gradientUnits="userSpaceOnUse">
<stop stop-color="#0052CC"/>
<stop offset="1" stop-color="#2684FF"/>
</linearGradient>
<linearGradient id="paint1_linear_446_56741" x1="15.2711" y1="21.4409" x2="19.7276" y2="16.9844" gradientUnits="userSpaceOnUse">
<stop stop-color="#0052CC"/>
<stop offset="1" stop-color="#2684FF"/>
</linearGradient>
<clipPath id="clip0_446_56741">
<rect width="204.8" height="28" fill="white" transform="translate(0 0.620117)"/>
</clipPath>
</defs>
</svg>
