<svg width="136" height="29" viewBox="0 0 136 29" fill="none" xmlns="http://www.w3.org/2000/svg">
<g clip-path="url(#clip0_446_56746)">
<path d="M46.5062 15.1556V27.3196C46.5064 27.4137 46.488 27.5068 46.4521 27.5939C46.4163 27.6808 46.3635 27.7598 46.2969 27.8263C46.2304 27.8929 46.1514 27.9457 46.0645 27.9815C45.9774 28.0174 45.8843 28.0358 45.7902 28.0356H40.5344C40.4403 28.0356 40.3473 28.0171 40.2604 27.9812C40.1735 27.9452 40.0945 27.8924 40.0281 27.8259C39.9616 27.7595 39.9088 27.6805 39.8728 27.5936C39.8369 27.5067 39.8184 27.4137 39.8184 27.3196V8.1082C39.8184 8.01417 39.8369 7.92105 39.8728 7.83417C39.9088 7.74729 39.9616 7.66836 40.0281 7.60186C40.0945 7.53538 40.1735 7.48263 40.2604 7.44664C40.3473 7.41067 40.4403 7.39214 40.5344 7.39214H45.7902C45.8843 7.39194 45.9774 7.41032 46.0645 7.44624C46.1514 7.48215 46.2304 7.53489 46.2969 7.60142C46.3635 7.66795 46.4163 7.74697 46.4521 7.83394C46.488 7.92091 46.5064 8.01411 46.5062 8.1082V9.62143C47.8282 7.96438 49.6811 6.93771 52.2822 6.93771C54.7165 6.93771 56.8219 7.92766 58.0964 9.78667C59.6647 7.92766 61.894 6.93771 64.619 6.93771C69.2428 6.93771 72.4223 9.66274 72.4223 14.8634V27.3165C72.4224 27.4106 72.4041 27.5038 72.3681 27.5908C72.3323 27.6778 72.2795 27.7567 72.213 27.8233C72.1464 27.8898 72.0675 27.9426 71.9806 27.9784C71.8935 28.0144 71.8003 28.0327 71.7062 28.0326H66.4597C66.2698 28.0326 66.0876 27.9571 65.9534 27.8228C65.819 27.6886 65.7436 27.5064 65.7436 27.3165V16.268C65.7436 13.9974 64.4645 12.882 62.7309 12.882C61.285 12.882 60.1298 13.7908 59.4689 15.1526V27.3165C59.469 27.4106 59.4506 27.5038 59.4147 27.5908C59.3789 27.6778 59.3261 27.7567 59.2595 27.8233C59.193 27.8898 59.114 27.9426 59.0271 27.9784C58.9401 28.0144 58.8469 28.0327 58.7528 28.0326H53.497C53.3072 28.0326 53.1249 27.9571 52.9908 27.8228C52.8564 27.6886 52.781 27.5064 52.781 27.3165V16.268C52.781 13.9974 51.5019 12.882 49.7683 12.882C48.2811 12.882 47.1672 13.7908 46.5062 15.1556ZM81.2201 28.4457C77.3399 28.4457 74.0778 25.8859 74.0778 21.9231C74.0778 18.2907 76.4723 16.5969 80.9309 15.4418L86.6288 13.9561C86.4636 12.5928 85.3895 11.9333 83.656 11.9333C82.1259 11.9333 81.0151 12.5209 80.5056 13.696C80.4412 13.8563 80.3217 13.9885 80.1685 14.0687C80.0153 14.1489 79.8388 14.1719 79.6702 14.1336L75.1534 13.0625C75.0549 13.039 74.9625 12.995 74.8822 12.9333C74.8018 12.8716 74.7354 12.7937 74.6874 12.7045C74.6393 12.6154 74.6106 12.5171 74.6031 12.4161C74.5956 12.3151 74.6095 12.2137 74.6439 12.1185C75.9399 8.61159 79.5401 6.774 83.8992 6.774C89.7609 6.774 93.1469 9.54033 93.1469 14.4105V27.318C93.1469 27.5079 93.0714 27.6901 92.9371 27.8243C92.8029 27.9587 92.6207 28.0341 92.4308 28.0341H87.452C87.265 28.0341 87.0854 27.961 86.9515 27.8303C86.8178 27.6996 86.7404 27.5218 86.736 27.3349L86.7115 26.2638L86.6702 26.3051C84.9764 27.7434 83.3255 28.4457 81.2201 28.4457ZM82.9123 23.2848C83.7799 23.2848 84.4424 23.0385 85.4308 22.4601L86.5875 21.7578L86.6288 18.4147L83.656 19.2394C81.6332 19.8177 80.7244 20.3104 80.7244 21.4686C80.7244 22.7493 81.8398 23.2848 82.9123 23.2848ZM103.828 18.2907L101.805 20.1482V27.3165C101.806 27.4106 101.787 27.5038 101.751 27.5908C101.715 27.6778 101.663 27.7567 101.596 27.8233C101.53 27.8898 101.451 27.9426 101.364 27.9784C101.277 28.0144 101.183 28.0327 101.089 28.0326H95.9576C95.7677 28.0326 95.5855 27.9571 95.4513 27.8228C95.317 27.6886 95.2415 27.5064 95.2415 27.3165V1.33618C95.242 1.14639 95.3176 0.964496 95.4518 0.830295C95.5859 0.696094 95.7679 0.620521 95.9576 0.620117H101.091C101.281 0.620117 101.463 0.69556 101.597 0.829848C101.732 0.964136 101.807 1.14627 101.807 1.33618V13.0885L107.794 7.58034C107.928 7.45882 108.102 7.39166 108.282 7.39214H114.618C114.763 7.39218 114.904 7.43591 115.023 7.51759C115.142 7.59926 115.234 7.71506 115.286 7.84978C115.338 7.9845 115.348 8.13183 115.315 8.27244C115.282 8.41304 115.207 8.54034 115.1 8.6376L108.948 14.2453L115.958 26.9707C116.019 27.0798 116.049 27.2027 116.047 27.3271C116.046 27.4516 116.011 27.5736 115.948 27.6807C115.885 27.7879 115.794 27.8768 115.686 27.9385C115.578 28.0001 115.456 28.0326 115.331 28.0326H109.341C109.21 28.0324 109.082 27.9963 108.97 27.9284C108.858 27.8604 108.767 27.7631 108.706 27.647L103.828 18.2907Z" fill="black"/>
<path d="M125.606 28.487C119.868 28.487 114.625 24.896 114.625 17.6236C114.625 10.7706 119.661 6.80772 125.193 6.80772C130.932 6.80772 135.101 10.8119 135.266 17.1279C135.285 17.795 135.296 18.2601 135.302 18.5906C135.303 18.6855 135.286 18.7797 135.25 18.8677C135.215 18.9558 135.162 19.0359 135.096 19.1035C135.029 19.171 134.95 19.2245 134.862 19.2609C134.774 19.2975 134.68 19.3162 134.586 19.3159H121.23C121.436 21.793 123.418 23.3613 125.936 23.3613C127.728 23.3613 129.197 22.6162 130.22 21.2697C130.331 21.1268 130.491 21.0314 130.67 21.0029C130.848 20.9746 131.03 21.0153 131.18 21.1167L134.517 23.3506C134.596 23.4043 134.663 23.4729 134.715 23.5527C134.768 23.6324 134.803 23.7216 134.821 23.8154C134.839 23.9091 134.838 24.0053 134.818 24.0986C134.798 24.192 134.76 24.2804 134.706 24.3589C132.927 26.9906 129.979 28.487 125.606 28.487ZM121.354 15.2766H128.579C128.537 12.9233 126.804 11.8921 124.988 11.8921C123.294 11.8921 121.56 12.882 121.354 15.2766Z" fill="black"/>
<path d="M29.3145 27.9729H24.1292C23.9393 27.9729 23.757 27.8975 23.6229 27.7631C23.4885 27.6288 23.4131 27.4467 23.4131 27.2568V8.11737C23.4143 7.9281 23.4902 7.74699 23.6244 7.61345C23.7584 7.47991 23.9399 7.40477 24.1292 7.40437H29.313C29.5026 7.40395 29.6846 7.47879 29.8193 7.61247C29.9538 7.74614 30.0298 7.92772 30.0306 8.11737V27.2568C30.0307 27.3509 30.0124 27.4441 29.9764 27.531C29.9406 27.6181 29.8878 27.697 29.8213 27.7636C29.7547 27.8302 29.6758 27.8829 29.5888 27.9187C29.5018 27.9547 29.4086 27.9731 29.3145 27.9729Z" fill="url(#paint0_linear_446_56746)"/>
<path d="M5.28213 28.0448L0.650664 25.713C0.481103 25.6278 0.352338 25.4786 0.292663 25.2984C0.232987 25.1183 0.247284 24.9218 0.332413 24.7521L8.92519 7.65837C9.01048 7.48881 9.1596 7.36004 9.33976 7.30037C9.51994 7.2407 9.71643 7.25499 9.88607 7.34012L14.5191 9.66733C14.6886 9.75262 14.8174 9.90172 14.8771 10.0819C14.9368 10.2621 14.9225 10.4586 14.8373 10.6282L6.24301 27.7266C6.15774 27.8961 6.00862 28.0249 5.82844 28.0846C5.64828 28.1443 5.45177 28.1299 5.28213 28.0448Z" fill="url(#paint1_linear_446_56746)"/>
<path d="M18.9622 27.6592L22.6343 9.0217C22.6709 8.83612 22.6325 8.64361 22.5275 8.48623C22.4226 8.32885 22.2596 8.21937 22.0743 8.1817L16.993 7.15504C16.9006 7.13654 16.8055 7.13642 16.713 7.1547C16.6205 7.17298 16.5325 7.20931 16.4542 7.26159C16.3757 7.31389 16.3083 7.38112 16.2559 7.45944C16.2034 7.53777 16.167 7.62567 16.1484 7.7181L12.4763 26.3572C12.4398 26.5431 12.4784 26.7357 12.5837 26.8931C12.6889 27.0506 12.8522 27.16 13.0378 27.1972L18.1176 28.2223C18.21 28.2413 18.3054 28.2417 18.3979 28.2237C18.4907 28.2055 18.5788 28.1692 18.6573 28.1169C18.7358 28.0646 18.8032 27.9971 18.8556 27.9186C18.9079 27.8401 18.9442 27.752 18.9622 27.6592Z" fill="url(#paint2_linear_446_56746)"/>
</g>
<defs>
<linearGradient id="paint0_linear_446_56746" x1="17.1246" y1="21.2284" x2="31.1139" y2="16.0706" gradientUnits="userSpaceOnUse">
<stop offset="0.02" stop-color="#B02DE9"/>
<stop offset="0.8" stop-color="#6D00CC"/>
</linearGradient>
<linearGradient id="paint1_linear_446_56746" x1="4.84607" y1="18.8752" x2="19.885" y2="12.3725" gradientUnits="userSpaceOnUse">
<stop stop-color="#FF00FF"/>
<stop offset="0.18" stop-color="#E80DF9"/>
<stop offset="0.54" stop-color="#C024ED"/>
<stop offset="0.73" stop-color="#B02DE9"/>
</linearGradient>
<linearGradient id="paint2_linear_446_56746" x1="1.33751" y1="23.6612" x2="32.1651" y2="12.3113" gradientUnits="userSpaceOnUse">
<stop offset="0.02" stop-color="#FF00FF"/>
<stop offset="0.09" stop-color="#E80DF9"/>
<stop offset="0.23" stop-color="#C024ED"/>
<stop offset="0.3" stop-color="#B02DE9"/>
<stop offset="0.42" stop-color="#A42BE3"/>
<stop offset="0.63" stop-color="#8527D5"/>
<stop offset="0.85" stop-color="#6021C3"/>
</linearGradient>
<clipPath id="clip0_446_56746">
<rect width="135.257" height="28" fill="white" transform="translate(0.107422 0.620117)"/>
</clipPath>
</defs>
</svg>
