<svg width="96" height="66" viewBox="0 0 96 66" fill="none" xmlns="http://www.w3.org/2000/svg">
<path d="M15.3234 41.9986C16.2485 40.5949 17.8171 39.75 19.4983 39.75H70.7469C72.1726 39.75 73.5305 40.3587 74.4792 41.423L88.2959 56.9229C91.1689 60.1459 88.8811 65.25 84.5635 65.25H9.2833C5.30183 65.25 2.91749 60.8231 5.10841 57.4986L15.3234 41.9986Z" fill="#1CBEEF"/>
<path d="M69.8924 8.30236H61.1716V4.42825C61.1716 3.91679 60.7186 3.47666 60.2012 3.47666H35.4218C34.9044 3.47666 34.4513 3.91679 34.4513 4.42825V8.30236H25.4984C25.2345 8.30236 24.9785 8.43048 24.7901 8.61474C24.5902 8.81034 24.5279 9.06765 24.5279 9.31072C24.5279 9.48989 24.7032 13.1337 26.0414 17.346L26.0418 17.3471C27.8983 22.9661 31.0323 26.9604 35.2236 28.8003C36.6236 33.3218 39.8002 36.8927 43.7943 38.3353V38.4352C43.7943 43.0937 40.1816 46.7944 35.5378 46.7944C35.0204 46.7944 34.5674 47.2345 34.5674 47.746V52.5717C34.5674 53.0831 35.0204 53.5233 35.5378 53.5233H60.2012C60.7186 53.5233 61.1716 53.0831 61.1716 52.5717V47.746C61.1716 47.2345 60.7186 46.7944 60.2012 46.7944C55.4957 46.7944 51.6545 43.0333 51.6545 38.4352V38.3931C55.8222 36.9502 59.058 33.3211 60.4582 28.685C64.4747 26.7891 67.5504 22.8529 69.3491 17.3468C70.716 13.2236 70.8573 9.59116 70.8627 9.32346C70.9264 9.05082 70.7837 8.79381 70.6007 8.61474C70.4123 8.43048 70.1563 8.30236 69.8924 8.30236ZM28.3267 17.9333C27.1347 14.7729 26.6925 11.7188 26.5374 10.2055H34.4513V23.731C34.4513 24.6235 34.5007 25.4702 34.6457 26.3144C31.4774 24.3842 29.5253 21.1111 28.3267 17.9333ZM49.7194 38.8935C50.0067 44.0284 54.0972 48.1923 59.2307 48.633V51.5633H36.5083V48.6329C41.5851 48.1922 45.5037 44.0802 45.6741 38.8361C46.3394 38.9433 47.0602 39.0462 47.7825 39.0462C48.4437 39.0462 49.1056 38.9954 49.7194 38.8935ZM50.8271 36.6937L50.0783 36.9191C49.3294 37.088 48.5839 37.1998 47.8405 37.1998C46.9793 37.1998 46.1186 37.0875 45.3161 36.8634C45.2766 36.8505 45.2308 36.8345 45.1812 36.8173L45.1722 36.8141C45.1188 36.7955 45.0617 36.7757 45.0062 36.7576C44.9509 36.7396 44.8957 36.7228 44.8461 36.7104C44.805 36.7002 44.7623 36.6915 44.7245 36.6893C39.9622 35.11 36.3922 29.9344 36.3922 23.7878V5.43662H59.2307V8.74299V9.82168V23.7878C59.2307 29.9396 55.6546 35.1189 50.8282 36.6934C50.8278 36.6935 50.8275 36.6936 50.8271 36.6937ZM67.1728 17.8131C66.0094 20.9429 64.1127 24.1897 61.0256 26.199C61.1313 25.4093 61.2297 24.5708 61.2297 23.731V10.2055H68.9114C68.757 11.7157 68.3295 14.7011 67.1728 17.8131Z" fill="#002058" stroke="#002058" stroke-width="0.2" stroke-linecap="round" stroke-linejoin="round"/>
<path d="M49.0105 10.5144L49.0103 10.514C48.7621 10.0283 48.2065 9.66465 47.6445 9.66465C47.0889 9.66465 46.5285 9.96624 46.2777 10.5162L44.1549 14.7258L39.4496 15.3995C38.8859 15.4615 38.3921 15.8878 38.2068 16.4316C38.022 16.9739 38.142 17.5862 38.5831 17.9578L42.0238 21.2117L41.221 25.8117C41.0957 26.3684 41.3516 26.916 41.8403 27.2746C42.088 27.4563 42.3986 27.5778 42.7699 27.5778C43.0142 27.5778 43.2642 27.5189 43.4576 27.3947L47.8174 25.262L51.951 27.3963L51.951 27.3963L51.953 27.3973C52.4456 27.6383 53.0664 27.6403 53.5649 27.2746C54.0616 26.9101 54.2469 26.362 54.1854 25.8201L54.1856 25.8201L54.1845 25.8142L53.3813 21.2117L56.8242 17.9558L56.8254 17.9547C57.2589 17.5305 57.3849 16.9793 57.1983 16.4316C57.1963 16.4257 57.1937 16.4199 57.1906 16.4145C56.8933 15.8909 56.4644 15.4615 55.839 15.3994L51.1342 14.7258L49.0105 10.5144ZM51.3184 21.0246L52.0946 25.3099L48.2703 23.3578L48.2703 23.3578L48.2688 23.3571C48.0064 23.2287 47.6864 23.2323 47.376 23.3538L47.3759 23.3535L47.3685 23.3571L43.2512 25.3711L44.0288 21.0245C44.0939 20.7033 43.963 20.3866 43.7683 20.1962L43.7677 20.1955L40.6067 17.1573L44.9898 16.506L44.9898 16.5061L44.9943 16.5052C45.3111 16.4432 45.5709 16.2558 45.7025 15.9984L45.703 15.9974L47.6445 12.09L49.5861 15.9974L49.5866 15.9984C49.7099 16.2397 49.9662 16.5031 50.3063 16.507L54.6846 17.1577L51.5837 20.1914C51.3146 20.3929 51.2565 20.7202 51.3184 21.0246Z" fill="#002058" stroke="#002058" stroke-width="0.2" stroke-linecap="round" stroke-linejoin="round"/>
</svg>
