<svg width="92" height="64" viewBox="0 0 92 64" fill="none" xmlns="http://www.w3.org/2000/svg">
<path d="M14.68 40.5466C15.5968 39.0993 17.1907 38.2222 18.9039 38.2222H67.8521C69.3121 38.2222 70.6991 38.8603 71.6491 39.969L84.929 55.469C87.708 58.7126 85.4032 63.7222 81.132 63.7222H9.08582C5.14507 63.7222 2.75318 59.3757 4.8619 56.0466L14.68 40.5466Z" fill="#0DD3A3"/>
<path d="M21.342 40.0609L21.3365 40.1661H21.4418H39.4267C39.8511 40.1661 40.1946 40.5095 40.1946 40.9339C40.1946 41.3583 39.8511 41.7018 39.4267 41.7018H20.5514C20.127 41.7018 19.7836 41.3583 19.7836 40.9339C19.7836 30.9628 27.8964 22.85 37.8687 22.85C40.61 22.85 43.2433 23.4478 45.6954 24.6267C46.0773 24.8105 46.2385 25.2697 46.0548 25.6515C45.8711 26.0332 45.4113 26.1936 45.0299 26.0108C42.7865 24.9322 40.3771 24.3857 37.8687 24.3857C29.0362 24.3857 21.7977 31.3402 21.342 40.0609Z" fill="#002058" stroke="#002058" stroke-width="0.2"/>
<path d="M47.9788 10.5123C47.9788 16.2536 43.3067 20.9252 37.5642 20.9252C31.8247 20.9252 27.1542 16.2536 27.1542 10.5123C27.1542 4.771 31.8241 0.1 37.5642 0.1C43.3067 0.1 47.9788 4.77104 47.9788 10.5123ZM46.4432 10.5123C46.4432 5.61746 42.4602 1.63566 37.5642 1.63566C32.6705 1.63566 28.6899 5.61752 28.6899 10.5123C28.6899 15.4071 32.6705 19.3896 37.5642 19.3896C42.4602 19.3896 46.4432 15.4077 46.4432 10.5123Z" fill="#002058" stroke="#002058" stroke-width="0.2"/>
<path d="M66.8082 29.8093V29.9093H66.9082H71.2474C71.6717 29.9093 72.0152 30.2528 72.0152 30.6772V52.6622C72.0152 53.0866 71.6717 53.43 71.2474 53.43H44.0553C43.6309 53.43 43.2875 53.0866 43.2875 52.6622V30.6772C43.2875 30.2528 43.6309 29.9093 44.0553 29.9093H60.5441H60.6441V29.8093V23.7345C60.6441 23.3101 60.9875 22.9667 61.4119 22.9667H66.0404C66.4648 22.9667 66.8082 23.3101 66.8082 23.7345V29.8093ZM62.2798 24.5024H62.1798V24.6024V35.5949V35.6949H62.2798H65.1725H65.2725V35.5949V24.6024V24.5024H65.1725H62.2798ZM60.6441 31.545V31.445H60.5441H44.9232H44.8232V31.545V45.4303V45.5303H44.9232H70.3795H70.4795V45.4303V31.545V31.445H70.3795H66.9082H66.8082V31.545V36.4627C66.8082 36.8871 66.4648 37.2305 66.0404 37.2305H61.4119C60.9875 37.2305 60.6441 36.8871 60.6441 36.4627V31.545ZM44.8232 51.7944V51.8944H44.9232H70.3795H70.4795V51.7944V47.1659V47.0659H70.3795H44.9232H44.8232V47.1659V51.7944Z" fill="#002058" stroke="#002058" stroke-width="0.2"/>
<path d="M56.2047 34.2304H55.6261C55.2017 34.2304 54.8583 33.8869 54.8583 33.4626C54.8583 33.0382 55.2017 32.6947 55.6261 32.6947H56.2047C56.6291 32.6947 56.9725 33.0382 56.9725 33.4626C56.9725 33.8869 56.6291 34.2304 56.2047 34.2304Z" fill="#002058" stroke="#002058" stroke-width="0.2"/>
<path d="M56.2047 38.2802H55.6261C55.2017 38.2802 54.8583 37.9368 54.8583 37.5124C54.8583 37.088 55.2017 36.7445 55.6261 36.7445H56.2047C56.6291 36.7445 56.9725 37.088 56.9725 37.5124C56.9725 37.9368 56.6291 38.2802 56.2047 38.2802Z" fill="#002058" stroke="#002058" stroke-width="0.2"/>
<path d="M49.8409 34.2304H49.2624C48.838 34.2304 48.4945 33.8869 48.4945 33.4626C48.4945 33.0382 48.838 32.6947 49.2624 32.6947H49.8409C50.2653 32.6947 50.6087 33.0382 50.6087 33.4626C50.6087 33.8869 50.2653 34.2304 49.8409 34.2304Z" fill="#002058" stroke="#002058" stroke-width="0.2"/>
<path d="M49.8409 38.2802H49.2624C48.838 38.2802 48.4945 37.9368 48.4945 37.5124C48.4945 37.088 48.838 36.7445 49.2624 36.7445H49.8409C50.2653 36.7445 50.6087 37.088 50.6087 37.5124C50.6087 37.9368 50.2653 38.2802 49.8409 38.2802Z" fill="#002058" stroke="#002058" stroke-width="0.2"/>
</svg>
