<svg width="92" height="65" viewBox="0 0 92 65" fill="none" xmlns="http://www.w3.org/2000/svg">
<path d="M14.6569 44.4671C15.5954 43.1524 17.1112 42.3721 18.7265 42.3721H68.0298C69.3863 42.3721 70.6846 42.9232 71.6268 43.8991L83.8193 56.5271C86.884 59.7014 84.6346 65.0001 80.2222 65.0001H9.71229C5.64613 65.0001 3.28034 60.4046 5.64274 57.0951L14.6569 44.4671Z" fill="#7B1FFE"/>
<path d="M26.6426 9.64394L26.6425 9.64404L26.6468 9.6457L32.9941 12.122C31.7505 13.7964 31.1011 15.7094 31.1011 17.7192C31.1011 23.3284 36.2328 27.9161 42.5796 27.9161C48.926 27.9161 54.058 23.3782 54.058 17.7192C54.058 15.7586 53.4091 13.7993 52.218 12.1693L57.6509 9.90065V19.3277L55.9334 22.5724L55.9332 22.5723L55.9306 22.5781C55.8087 22.8485 55.8014 23.1403 56.0012 23.3767C56.1852 23.5944 56.491 23.7586 56.8027 23.7586H60.0935C60.384 23.7586 60.709 23.6569 60.8481 23.366C61.0388 23.1315 61.0298 22.8444 60.9098 22.5781L60.9094 22.5773L59.4126 19.3306V9.10708C59.4126 8.90639 59.3996 8.70586 59.2693 8.51803C59.1406 8.33248 58.9088 8.17481 58.5115 8.02372L58.5116 8.02345L58.5043 8.02129C58.5056 8.02166 58.5027 8.02076 58.4917 8.0167L58.4523 8.00187C58.4186 7.9891 58.371 7.97083 58.3103 7.94738C58.1889 7.90049 58.0157 7.83314 57.798 7.74823C57.3626 7.57841 56.7498 7.3385 56.0191 7.05198C54.5576 6.47894 52.6246 5.71951 50.6968 4.96163C48.769 4.20374 46.8465 3.4474 45.4059 2.88053L43.666 2.19583L43.1789 2.0041L43.0506 1.95359L43.0177 1.94065L43.0094 1.93737L43.0086 1.93703C42.7609 1.82776 42.5098 1.82776 42.2621 1.93702L26.6481 8.07302C26.3328 8.18578 26.0812 8.5181 26.0812 8.85961C26.0812 9.20258 26.2781 9.48222 26.6426 9.64394ZM52.129 17.7192C52.129 22.4046 47.8347 26.2313 42.5238 26.2313C37.2129 26.2313 32.9186 22.4046 32.9186 17.7192C32.9186 15.9371 33.5611 14.2477 34.6918 12.7913L42.2062 15.7821C42.3366 15.8394 42.4657 15.8394 42.573 15.8394L42.5796 15.8394L42.5861 15.8394C42.6934 15.8394 42.8225 15.8394 42.9529 15.7821L50.3573 12.8401C51.5392 14.2949 52.129 15.9836 52.129 17.7192ZM58.6559 22.0737H58.2511L58.4691 21.6593L58.6559 22.0737ZM29.3541 8.85961L42.6353 3.62166L55.9166 8.85961L42.6353 14.0976L29.3541 8.85961Z" fill="#002058" stroke="#002058" stroke-width="0.2" stroke-linecap="round" stroke-linejoin="round"/>
<path d="M42.8583 29.4981C31.9381 29.4981 23.0133 37.4017 23.0133 47.1193C23.0133 47.5814 23.4601 47.9617 23.9499 47.9617H61.7667C62.2565 47.9617 62.7033 47.5814 62.7033 47.1193C62.7033 37.4017 53.7785 29.4981 42.8583 29.4981ZM60.8242 46.2769H24.9481C25.4505 37.876 33.2918 31.183 42.9141 31.183C52.5355 31.183 60.3219 37.9242 60.8242 46.2769Z" fill="#002058" stroke="#002058" stroke-width="0.2" stroke-linecap="round" stroke-linejoin="round"/>
</svg>
