<svg width="92" height="66" viewBox="0 0 92 66" fill="none" xmlns="http://www.w3.org/2000/svg">
<path d="M14.68 42.3567C15.5968 40.9094 17.1907 40.0322 18.9039 40.0322H67.8521C69.3121 40.0322 70.6991 40.6704 71.6491 41.7791L84.929 57.2791C87.708 60.5227 85.4032 65.5322 81.132 65.5322H9.08582C5.14507 65.5322 2.75317 61.1858 4.8619 57.8567L14.68 42.3567Z" fill="#FED700"/>
<path d="M41.9945 21.2469C47.6095 21.2469 52.1978 16.6586 52.1978 11.0436C52.1978 5.42773 47.6087 0.9 41.9945 0.9C36.3802 0.9 31.7911 5.42773 31.7911 11.0436C31.7911 16.6586 36.3794 21.2469 41.9945 21.2469ZM41.9945 2.89349C46.4837 2.89349 50.2043 6.55621 50.2043 11.0436C50.2043 15.5323 46.5421 19.2534 41.9945 19.2534C37.4469 19.2534 33.7846 15.5323 33.7846 11.0436C33.7846 6.55574 37.4459 2.89349 41.9945 2.89349Z" fill="#002058" stroke="#002058" stroke-width="0.2" stroke-linecap="round" stroke-linejoin="round"/>
<path d="M60.8314 16.4673L60.8305 16.4666C60.0953 15.8539 59.1725 15.5441 58.2456 15.6667C57.3228 15.7291 56.4618 16.1603 55.8472 16.8979C54.6171 18.374 54.8004 20.6489 56.278 21.8808C56.2782 21.8809 56.2783 21.881 56.2785 21.8811L58.7287 23.9728L58.7303 23.9741C59.4035 24.5249 60.2025 24.8337 61.0056 24.8337C61.6521 24.8337 62.3008 24.6649 62.8431 24.3249L64.6122 26.2081V39.4001H59.7278C59.4366 30.0054 51.7013 22.4815 42.2935 22.4815C32.8267 22.4815 25.0906 30.0049 24.8585 39.4001H22.7444C22.2109 39.4001 21.7477 39.8634 21.7477 40.3969V50.2013C21.7477 50.7348 22.2109 51.198 22.7444 51.198H69.2557C69.7892 51.198 70.2524 50.7348 70.2524 50.2013V40.3969H70.2532L70.2516 40.3845C70.1865 39.8634 69.7315 39.4001 69.1959 39.4001H66.6056V25.75C66.6056 25.5067 66.547 25.2266 66.3323 25.076L64.1752 22.7441C64.8717 21.3369 64.4943 19.5898 63.2823 18.5596L60.8314 16.4673ZM57.5433 20.3532L57.5424 20.3525C56.8702 19.7923 56.811 18.8396 57.3759 18.1618C57.6554 17.8263 57.9882 17.6577 58.4412 17.5999H58.4416H58.4419H58.4423H58.4426H58.443H58.4433H58.4437H58.444H58.4444H58.4447H58.4451H58.4454H58.4458H58.4461H58.4465H58.4468H58.4472H58.4475H58.4479H58.4482H58.4486H58.4489H58.4493H58.4496H58.45H58.4503H58.4506H58.451H58.4513H58.4517H58.452H58.4524H58.4527H58.4531H58.4534H58.4538H58.4541H58.4545H58.4548H58.4552H58.4555H58.4558H58.4562H58.4565H58.4569H58.4572H58.4576H58.4579H58.4583H58.4586H58.459H58.4593H58.4596H58.46H58.4603H58.4607H58.461H58.4614H58.4617H58.462H58.4624H58.4627H58.4631H58.4634H58.4637H58.4641H58.4644H58.4648H58.4651H58.4654H58.4658H58.4661H58.4665H58.4668H58.4671H58.4675H58.4678H58.4682H58.4685H58.4688H58.4692H58.4695H58.4698H58.4702H58.4705H58.4709H58.4712H58.4715H58.4719H58.4722H58.4725H58.4729H58.4732H58.4735H58.4739H58.4742H58.4745H58.4749H58.4752H58.4755H58.4759H58.4762H58.4765H58.4769H58.4772H58.4775H58.4778H58.4782H58.4785H58.4788H58.4792H58.4795H58.4798H58.4801H58.4805H58.4808H58.4811H58.4814H58.4818H58.4821H58.4824H58.4827H58.4831H58.4834H58.4837H58.484H58.4844H58.4847H58.485H58.4853H58.4856H58.486H58.4863H58.4866H58.4869H58.4872H58.4876H58.4879H58.4882H58.4885H58.4888H58.4891H58.4895H58.4898H58.4901H58.4904H58.4907H58.491H58.4913H58.4917H58.492H58.4923H58.4926H58.4929H58.4932H58.4935H58.4938H58.4941H58.4945H58.4948H58.4951H58.4954H58.4957H58.496H58.4963H58.4966H58.4969H58.4972H58.4975H58.4978H58.4981H58.4984H58.4987H58.499H58.4993H58.4996H58.4999H58.5002H58.5005H58.5008H58.5011H58.5014H58.5017H58.502H58.5023H58.5026H58.5029H58.5032H58.5035H58.5038H58.5041H58.5044H58.5047H58.5049H58.5052H58.5055H58.5058H58.5061H58.5064H58.5067H58.507H58.5072H58.5075H58.5078H58.5081H58.5084H58.5087H58.5089H58.5092H58.5095H58.5098H58.5101H58.5104H58.5106H58.5109H58.5112H58.5115H58.5117H58.512H58.5123H58.5126H58.5128H58.5131H58.5134H58.5137H58.5139H58.5142H58.5145H58.5147H58.515H58.5153H58.5155H58.5158H58.5161H58.5163H58.5166H58.5169H58.5171H58.5174H58.5177H58.5179H58.5182H58.5184H58.5187H58.5189H58.5192H58.5195H58.5197H58.52H58.5202H58.5205H58.5207H58.521H58.5212H58.5215H58.5217H58.522H58.5222H58.5225H58.5227H58.523H58.5232H58.5235H58.5237H58.524H58.5242H58.5244H58.5247H58.5249H58.5252H58.5254H58.5256H58.5259H58.5261H58.5264H58.5266H58.5268H58.5271H58.5273H58.5275H58.5278H58.528H58.5282H58.5284H58.5287H58.5289H58.5291H58.5294H58.5296H58.5298H58.53H58.5302H58.5305H58.5307H58.5309H58.5311H58.5313H58.5316H58.5318H58.532H58.5322H58.5324H58.5326H58.5328H58.5331H58.5333H58.5335H58.5337H58.5339H58.5341H58.5343H58.5345H58.5347H58.5349H58.5351H58.5353H58.5355H58.5357H58.5359H58.5361H58.5363H58.5365H58.5367H58.5369H58.5371H58.5373H58.5375H58.5377H58.5379H58.5381H58.5382H58.5384H58.5386H58.5388H58.539H58.5392H58.5393H58.5395H58.5397H58.5399H58.5401H58.5402H58.5404H58.5406H58.5408H58.5409H58.5411H58.5413H58.5415H58.5416H58.5418H58.542H58.5421H58.5423H58.5425H58.5426H58.5428H58.543H58.5431H58.5433H58.5434H58.5436H58.5438H58.5439H58.5441H58.5442H58.5444H58.5445H58.5447H58.5448H58.545H58.5451H58.5453H58.5454H58.5456H58.5457H58.5458H58.546H58.5461H58.5463H58.5464H58.5465H58.5467H58.5468H58.5469H58.5471H58.5472H58.5473H58.5475H58.5476H58.5477H58.5478H58.548H58.5481H58.5482H58.5483H58.5485H58.5486H58.5487H58.5488H58.5489H58.549H58.5492H58.5493H58.5494H58.5495H58.5496H58.5497H58.5498H58.5499H58.55H58.5501H58.5502H58.5503H58.5504H58.5505H58.5506H58.5507H58.5508H58.5509H58.551H58.5511H58.5512H58.5513H58.5514H58.5515H58.5516H58.5516H58.5517H58.5518H58.5519H58.552H58.552H58.5521H58.5522H58.5523H58.5523H58.5524H58.5525H58.5526H58.5526H58.5527H58.5528H58.5528H58.5529H58.553H58.553H58.5531H58.5531H58.5532H58.5533H58.5533H58.5534H58.5534H58.5535H58.5535H58.5536H58.5536H58.5537H58.5537H58.5538H58.5538H58.5538H58.5539H58.5539H58.554H58.554H58.554H58.5541H58.5541H58.5541H58.5542H58.5542H58.5543H58.5543H58.5544H58.5544H58.5544H58.5545C58.8939 17.5999 59.2843 17.7135 59.5599 17.9891L59.5597 17.9893L59.5657 17.9945L62.0168 20.0869L62.0177 20.0876C62.6893 20.6473 62.749 21.599 62.1856 22.2767C61.6213 22.8959 60.6668 23.0056 59.994 22.4453C59.9938 22.4451 59.9937 22.445 59.9935 22.4449L57.5433 20.3532ZM42.2337 24.4152C50.5749 24.4152 57.4427 31.0728 57.6748 39.3403H26.7933C27.084 31.072 33.8933 24.4152 42.2337 24.4152ZM68.1991 49.2045H23.6814V41.3936H68.1991V49.2045Z" fill="#002058" stroke="#002058" stroke-width="0.2" stroke-linecap="round" stroke-linejoin="round"/>
</svg>
