<svg width="37" height="37" viewBox="0 0 37 37" fill="none" xmlns="http://www.w3.org/2000/svg">
<path d="M24.619 3.85547H12.049C6.58898 3.85547 3.33398 7.11047 3.33398 12.5705V25.1255C3.33398 30.6005 6.58898 33.8555 12.049 33.8555H24.604C30.064 33.8555 33.319 30.6005 33.319 25.1405V12.5705C33.334 7.11047 30.079 3.85547 24.619 3.85547ZM23.959 24.4805H12.709C12.094 24.4805 11.584 23.9705 11.584 23.3555C11.584 22.7405 12.094 22.2305 12.709 22.2305H23.959C24.574 22.2305 25.084 22.7405 25.084 23.3555C25.084 23.9705 24.574 24.4805 23.959 24.4805ZM23.959 15.4805H12.709C12.094 15.4805 11.584 14.9705 11.584 14.3555C11.584 13.7405 12.094 13.2305 12.709 13.2305H23.959C24.574 13.2305 25.084 13.7405 25.084 14.3555C25.084 14.9705 24.574 15.4805 23.959 15.4805Z" fill="#5625E8"/>
</svg>
