<svg width="40" height="40" viewBox="0 0 40 40" fill="none" xmlns="http://www.w3.org/2000/svg">
<path d="M21.25 26.5332H22.3333C23.4167 26.5332 24.3167 25.5665 24.3167 24.3999C24.3167 22.9499 23.8 22.6665 22.95 22.3665L21.2667 21.7832V26.5332H21.25Z" fill="white"/>
<path d="M19.95 3.16702C10.75 3.20035 3.30003 10.6837 3.33336 19.8837C3.3667 29.0837 10.85 36.5337 20.05 36.5004C29.25 36.467 36.7 28.9837 36.6667 19.7837C36.6334 10.5837 29.15 3.15035 19.95 3.16702ZM23.7667 20.0004C25.0667 20.4504 26.8167 21.417 26.8167 24.4004C26.8167 26.967 24.8 29.0337 22.3334 29.0337H21.25V30.0004C21.25 30.6837 20.6834 31.2504 20 31.2504C19.3167 31.2504 18.75 30.6837 18.75 30.0004V29.0337H18.15C15.4167 29.0337 13.2 26.7337 13.2 23.9004C13.2 23.217 13.7667 22.6504 14.45 22.6504C15.1334 22.6504 15.7 23.217 15.7 23.9004C15.7 25.3504 16.8 26.5337 18.15 26.5337H18.75V20.9004L16.2334 20.0004C14.9334 19.5504 13.1834 18.5837 13.1834 15.6004C13.1834 13.0337 15.2 10.967 17.6667 10.967H18.75V10.0004C18.75 9.31702 19.3167 8.75035 20 8.75035C20.6834 8.75035 21.25 9.31702 21.25 10.0004V10.967H21.85C24.5834 10.967 26.8 13.267 26.8 16.1004C26.8 16.7837 26.2334 17.3504 25.55 17.3504C24.8667 17.3504 24.3 16.7837 24.3 16.1004C24.3 14.6504 23.2 13.467 21.85 13.467H21.25V19.1004L23.7667 20.0004Z" fill="white"/>
<path d="M15.7 15.6168C15.7 17.0668 16.2166 17.3501 17.0666 17.6501L18.75 18.2335V13.4668H17.6666C16.5833 13.4668 15.7 14.4335 15.7 15.6168Z" fill="white"/>
</svg>
