<svg width="39" height="41" viewBox="0 0 39 41" fill="none" xmlns="http://www.w3.org/2000/svg">
<path d="M27.2647 0.921002C26.616 0.896124 25.9369 1.02512 25.2561 1.27686C23.8945 1.78034 22.4676 2.7615 21.0033 4.12C20.4294 4.65239 19.8504 5.26098 19.2694 5.90669C18.7012 5.27737 18.134 4.68327 17.5728 4.16263C16.1097 2.80522 14.6867 1.82553 13.3281 1.32319C11.9696 0.820854 10.6178 0.805288 9.50757 1.53634C8.39736 2.26738 7.73344 3.60936 7.43561 5.20239C7.13777 6.79543 7.16895 8.69253 7.46811 10.8164C7.57202 11.5541 7.72184 12.328 7.89062 13.1165C7.25625 13.3357 6.6402 13.5663 6.06892 13.8208C4.34486 14.5888 2.91831 15.5076 1.87949 16.6009C0.840678 17.6942 0.169922 19.0212 0.169922 20.4782C0.169922 21.9353 0.840678 23.2604 1.87949 24.3537C2.91831 25.4471 4.34486 26.3677 6.06892 27.1357C6.67978 27.4078 7.34114 27.6528 8.02388 27.8845C7.7783 28.931 7.57933 29.9466 7.44373 30.9093C7.14434 33.0348 7.11272 34.9322 7.41123 36.5288C7.70974 38.1255 8.37399 39.475 9.48969 40.2097C10.6054 40.9444 11.9632 40.9263 13.3249 40.4229C14.6865 39.9194 16.1117 38.9401 17.576 37.5816C18.1446 37.0541 18.7198 36.4523 19.2954 35.8134C19.8737 36.4558 20.4517 37.061 21.0228 37.5908C22.4859 38.9482 23.9106 39.9279 25.2691 40.4303C26.6277 40.9326 27.9778 40.9482 29.088 40.2171C30.1982 39.4861 30.8622 38.1441 31.16 36.5511C31.4578 34.958 31.425 33.0609 31.1259 30.9371C30.9899 29.9718 30.7908 28.9547 30.5441 27.9049C31.2494 27.6676 31.9316 27.416 32.5608 27.1357C34.2849 26.3677 35.7114 25.4471 36.7502 24.3537C37.789 23.2604 38.4598 21.9353 38.4598 20.4782C38.4598 19.0212 37.789 17.6942 36.7502 16.6009C35.7114 15.5076 34.2849 14.5888 32.5608 13.8208C31.9813 13.5626 31.3558 13.3291 30.7115 13.1072C30.8816 12.3139 31.0327 11.5345 31.1372 10.7923C31.4366 8.66673 31.4683 6.76754 31.1697 5.17088C30.8712 3.57423 30.2054 2.22652 29.0897 1.49185C28.5318 1.12452 27.9134 0.945881 27.2647 0.921002ZM27.1883 2.85226C27.5954 2.86496 27.9427 2.97544 28.2397 3.17105C28.8339 3.56226 29.273 4.32366 29.5073 5.57678C29.7416 6.8299 29.7335 8.52299 29.4569 10.4865C29.3622 11.1587 29.2247 11.8712 29.0685 12.6012C27.3671 12.1342 25.5027 11.7875 23.5157 11.5837C22.5174 10.0063 21.4914 8.57143 20.4573 7.29675C21.004 6.68804 21.5473 6.11873 22.0775 5.62682C23.4301 4.37191 24.7107 3.51801 25.7794 3.12286C26.3137 2.92528 26.7812 2.83957 27.1883 2.85226ZM11.3991 2.85782C11.8086 2.84479 12.2771 2.93027 12.813 3.12842C13.8847 3.52471 15.1675 4.37823 16.5214 5.63424C17.0408 6.11615 17.5721 6.67305 18.1074 7.2671C17.0658 8.55188 16.0326 10.0018 15.0279 11.593C13.048 11.8005 11.1903 12.1505 9.49619 12.6198C9.34099 11.8932 9.20533 11.1836 9.11105 10.5143C8.83425 8.54908 8.82734 6.8539 9.0623 5.59717C9.29726 4.34044 9.74 3.57514 10.3396 3.18032C10.6394 2.9829 10.9897 2.87086 11.3991 2.85782ZM19.2954 8.66272C19.9731 9.50387 20.6512 10.4247 21.3234 11.415C20.6628 11.3836 19.994 11.365 19.3149 11.365C18.6222 11.365 17.9407 11.3842 17.2673 11.4169C17.9398 10.4256 18.6174 9.50459 19.2954 8.66272ZM19.3149 13.2814C20.4463 13.2814 21.5492 13.3345 22.6219 13.4241C23.36 14.6333 24.0813 15.916 24.7686 17.2737C25.3725 18.4667 25.919 19.6578 26.4164 20.8341C25.9137 22.026 25.3581 23.2333 24.7458 24.4427C24.2069 25.5073 23.6441 26.5185 23.072 27.4934C21.8603 27.6089 20.6048 27.6732 19.3149 27.6732C17.9939 27.6732 16.7101 27.6051 15.4716 27.4842C14.909 26.5232 14.3557 25.5255 13.8254 24.4779C13.2145 23.2712 12.6616 22.068 12.1597 20.8786C12.6637 19.6824 13.2191 18.4707 13.8335 17.257C14.5172 15.9064 15.2364 14.6311 15.9705 13.4279C17.0547 13.3361 18.1704 13.2814 19.3149 13.2814ZM24.7653 13.6614C26.1363 13.8565 27.4236 14.1277 28.6216 14.4528C28.266 15.7824 27.828 17.1712 27.2972 18.6044C26.9526 17.8468 26.5957 17.0865 26.21 16.3247C25.7429 15.402 25.2573 14.5209 24.7653 13.6614ZM13.7766 13.6762C13.2948 14.5201 12.8207 15.3832 12.3628 16.2877C11.9722 17.0593 11.6079 17.8297 11.2594 18.597C10.7332 17.1724 10.2978 15.7915 9.94471 14.4695C11.1343 14.1436 12.4146 13.8736 13.7766 13.6762ZM30.2678 14.9569C30.8576 15.1605 31.4273 15.3729 31.9498 15.6056C33.5391 16.3136 34.7963 17.1519 35.6111 18.0095C36.4259 18.8671 36.7795 19.6849 36.7795 20.4782C36.7795 21.2716 36.4259 22.0894 35.6111 22.947C34.7963 23.8046 33.5391 24.6429 31.9498 25.3509C31.3691 25.6095 30.7312 25.8441 30.0679 26.0663C29.5948 24.3973 28.9909 22.6561 28.2722 20.8786C29.0986 18.8378 29.7661 16.8481 30.2678 14.9569ZM8.33427 14.9662C8.83021 16.8384 9.48923 18.8085 10.3039 20.8285C9.58044 22.6164 8.97357 24.3675 8.4984 26.0459C7.85853 25.8295 7.2422 25.6013 6.67995 25.3509C5.09063 24.6429 3.83347 23.8046 3.01867 22.947C2.20387 22.0894 1.85024 21.2716 1.85024 20.4782C1.85024 19.6849 2.20387 18.8671 3.01867 18.0095C3.83347 17.1519 5.09063 16.3136 6.67995 15.6056C7.19441 15.3764 7.75449 15.1671 8.33427 14.9662ZM19.3149 16.119C17.0271 16.119 15.1547 18.2545 15.1547 20.8638C15.1547 23.473 17.0271 25.6085 19.3149 25.6085C21.6026 25.6085 23.475 23.473 23.475 20.8638C23.475 18.2545 21.6026 16.119 19.3149 16.119ZM19.3149 18.0169C20.7033 18.0169 21.811 19.2802 21.811 20.8638C21.811 22.4473 20.7033 23.7106 19.3149 23.7106C17.9264 23.7106 16.8188 22.4473 16.8188 20.8638C16.8188 19.2802 17.9264 18.0169 19.3149 18.0169ZM27.3183 23.1064C27.7547 24.2842 28.134 25.4368 28.4526 26.5482C27.452 26.8128 26.3866 27.0358 25.2659 27.2117C25.5885 26.6246 25.9071 26.0266 26.2182 25.412C26.6081 24.6417 26.9703 23.8724 27.3183 23.1064ZM11.2789 23.1082C11.6288 23.879 11.9932 24.6517 12.3856 25.4269C12.6927 26.0337 13.0064 26.6261 13.3249 27.2061C12.2075 27.0294 11.1453 26.8057 10.1478 26.5408C10.465 25.4328 10.8445 24.2826 11.2789 23.1082ZM9.66845 28.3831C11.1743 28.7899 12.8064 29.1024 14.5372 29.3061C15.6927 31.2123 16.8959 32.9242 18.1074 34.4215C17.5658 35.0238 17.0289 35.5891 16.5035 36.0766C15.1508 37.3315 13.8686 38.1835 12.8 38.5787C11.7313 38.9739 10.9337 38.9217 10.3396 38.5305C9.74548 38.1393 9.30796 37.3779 9.07368 36.1248C8.83939 34.8717 8.84586 33.1804 9.12243 31.2169C9.24789 30.3262 9.4354 29.3724 9.66845 28.3831ZM28.9336 28.3905C29.1685 29.3853 29.3568 30.3436 29.4829 31.2392C29.7597 33.2044 29.7666 34.8977 29.5317 36.1544C29.2967 37.4112 28.8556 38.1783 28.256 38.5731C27.6564 38.968 26.8528 39.0213 25.781 38.625C24.7093 38.2287 23.4264 37.3734 22.0726 36.1174C21.5434 35.6264 21.0028 35.0584 20.4573 34.4511C21.6767 32.9482 22.8888 31.227 24.0519 29.3098C25.787 29.1075 27.4237 28.7968 28.9336 28.3905ZM16.7083 29.5007C17.5626 29.5538 18.4281 29.5896 19.3149 29.5896C20.1723 29.5896 21.0098 29.5559 21.837 29.5062C20.9914 30.8074 20.1295 31.9903 19.271 33.0555C18.413 31.988 17.5527 30.803 16.7083 29.5007Z" fill="#4F4F4F"/>
</svg>
