<svg width="39" height="41" viewBox="0 0 39 41" fill="none" xmlns="http://www.w3.org/2000/svg">
<path d="M15.3422 0.933594V6.97469H7.68429V13.0158H3.85533V19.0569H0.887884C0.522936 19.0663 0.214824 19.4769 0.146022 20.0386C0.146022 20.0386 0.0263672 21.0722 0.0263672 22.3795C0.0263672 23.2101 0.080212 24.1116 0.169953 25.0225C0.125082 25.0413 0.0652551 25.0838 0.0263672 25.098H0.169953C0.391316 27.2832 0.899849 29.6099 1.7494 31.8187C1.75239 31.8281 1.74641 31.847 1.7494 31.8565C1.75538 31.88 1.76436 31.9084 1.77333 31.932C1.81222 32.2199 1.91393 32.4747 2.0605 32.6493C2.07546 32.6635 2.09341 32.6777 2.10837 32.6871C2.34468 33.2251 2.59297 33.7632 2.87416 34.2729C4.92325 38.0014 8.24966 40.8048 13.0448 40.8048C20.8733 40.8048 27.4932 35.5425 31.2324 25.098H38.1963C37.3647 24.7676 35.5789 24.324 35.875 22.606C34.8849 24.4136 33.0003 24.6402 31.5435 24.2296C31.8217 23.3989 32.0909 22.5541 32.3332 21.6621C34.5469 21.5724 36.1353 20.4492 37.0237 19.0946C37.9959 17.6127 38.2921 15.9608 38.2921 15.9608C38.3669 15.4983 38.2651 15.0122 38.0288 14.7148C38.0288 14.7148 36.0934 12.4872 33.1948 13.2423C32.3691 8.97108 30.2273 6.89918 30.2273 6.89918C30.0688 6.75287 29.8833 6.69623 29.7008 6.74815C29.5782 6.79062 29.4615 6.8803 29.3658 7.01245C29.3658 7.01245 28.8543 7.70151 28.4325 8.93804C28.0107 10.1746 27.6218 12.0577 27.7624 14.4883C27.8282 15.6257 28.0556 16.7065 28.3846 17.7354C28.1992 17.9147 28.0915 18.0658 27.7863 18.264C27.1522 18.6793 26.2278 19.0569 24.9146 19.0569H24.5317V13.0158H20.7028V0.933594H15.3422ZM16.8738 3.35003H19.1712V6.97469H16.8738V3.35003ZM9.21588 9.39113H11.5133V13.0158H9.21588V9.39113ZM13.0448 9.39113H15.3422V13.0158H13.0448V9.39113ZM16.8738 9.39113H19.1712V13.0158H16.8738V9.39113ZM29.9641 9.65543C30.5324 10.3209 31.5615 11.7132 31.9264 14.7526C31.9653 15.0877 32.0909 15.3756 32.2734 15.5549C32.4559 15.7343 32.6772 15.7862 32.8837 15.6965C34.837 14.8517 35.893 15.5455 36.4733 16.0741C36.3626 16.4564 36.3806 16.6924 35.9468 17.3578C35.2498 18.4197 34.0682 19.4911 31.8546 19.3589C31.5316 19.3401 31.2354 19.6421 31.1128 20.1141C30.8076 21.3176 30.4547 22.4314 30.0837 23.5122C29.9701 23.4084 29.8743 23.2856 29.7966 23.1724C28.7705 25.518 22.8177 24.6213 22.4019 22.7948C21.1186 25.1735 17.1311 25.1735 15.8448 22.7948C15.429 24.6213 9.4522 25.518 8.42616 23.1724C7.5078 24.5316 3.88225 25.367 2.37161 22.606C2.51519 23.4367 2.14426 23.9747 1.65368 24.3428C1.59086 23.6538 1.55795 22.9978 1.55795 22.3795C1.55795 21.8603 1.58188 21.8131 1.60581 21.4733H24.9146C26.4223 21.4733 27.553 21.0202 28.3607 20.4916C29.1684 19.963 29.7427 19.3212 29.8205 19.2457C30.006 19.0616 30.1316 18.7643 30.1675 18.4245C30.2034 18.0894 30.1465 17.7401 30.0119 17.4711C29.5872 16.598 29.3658 15.503 29.294 14.2618C29.1833 12.3126 29.4735 10.9486 29.7726 10.0708C29.8743 9.77341 29.8803 9.83477 29.9641 9.65543ZM5.38692 15.4322H7.68429V19.0569H5.38692V15.4322ZM9.21588 15.4322H11.5133V19.0569H9.21588V15.4322ZM13.0448 15.4322H15.3422V19.0569H13.0448V15.4322ZM16.8738 15.4322H19.1712V19.0569H16.8738V15.4322ZM20.7028 15.4322H23.0001V19.0569H20.7028V15.4322ZM1.7494 25.098H29.5094C25.9945 34.0558 20.1583 38.3884 13.0448 38.3884C8.85691 38.3884 6.14074 36.1466 4.35788 33.1779C7.75609 33.4328 10.3885 32.0075 10.3885 32.0075C10.8103 31.9225 11.1124 31.3137 11.0586 30.6482C11.0047 29.9828 10.6188 29.5061 10.1971 29.591C10.1552 29.6005 10.1163 29.6099 10.0774 29.6288C10.0116 29.643 9.94877 29.6666 9.88595 29.7043C9.88595 29.7043 6.75397 31.3892 3.08954 30.5727C2.40152 28.784 1.96777 26.8678 1.7494 25.098ZM12.279 27.5144C11.8573 27.5144 11.5133 28.0572 11.5133 28.7226C11.5133 29.3881 11.8573 29.9309 12.279 29.9309C12.7008 29.9309 13.0448 29.3881 13.0448 28.7226C13.0448 28.5574 13.0359 28.4111 12.997 28.2696C12.9431 28.4206 12.8265 28.5338 12.7098 28.5338C12.5363 28.5338 12.3987 28.279 12.3987 28.0053C12.3987 27.8212 12.4735 27.6749 12.5662 27.5899C12.4795 27.538 12.3778 27.5144 12.279 27.5144Z" fill="#191919"/>
</svg>
