<svg width="40" height="41" viewBox="0 0 40 41" fill="none" xmlns="http://www.w3.org/2000/svg">
<path d="M20.1082 0.933594C19.5259 0.933594 18.9437 1.07089 18.4412 1.34692L2.63039 10.1197C1.60933 10.6871 0.972656 11.7614 0.972656 12.8962V28.8123C0.972656 29.9624 1.60933 31.0214 2.63039 31.5888L6.78095 33.8891C8.79117 34.8398 9.50798 34.8385 10.4174 34.8385C13.4008 34.8385 15.107 33.1059 15.107 30.1002V13.6779C15.107 13.4325 14.9011 13.2316 14.6458 13.2316H12.6516C12.3803 13.2316 12.1873 13.4325 12.1873 13.6779V30.0852C12.1873 31.4347 10.7372 32.7532 8.39194 31.6337L4.0513 29.2256C3.89176 29.149 3.79579 28.981 3.79579 28.8123V12.9111C3.79579 12.7271 3.89176 12.5718 4.0513 12.4798L19.8621 3.71008C20.0057 3.61807 20.198 3.61807 20.3575 3.71008L36.1683 12.4798C36.3279 12.5718 36.4238 12.7275 36.4238 12.8962V28.8123C36.4238 28.981 36.3275 29.149 36.1839 29.2256L20.3575 38.0134C20.2139 38.09 20.0057 38.09 19.8621 38.0134L15.7925 35.6981C15.6809 35.6214 15.5241 35.6068 15.4124 35.6682C14.2796 36.2816 14.0722 36.3578 13.0193 36.7105C12.764 36.7871 12.3649 36.94 13.1626 37.3694L18.4412 40.3765C18.9517 40.6525 19.5277 40.8048 20.102 40.8048C20.6923 40.8048 21.2648 40.6525 21.7753 40.3765L37.6048 31.5888C38.6259 31.0214 39.2625 29.9624 39.2625 28.8123V12.9111C39.2625 11.761 38.6259 10.702 37.6048 10.1346L21.7753 1.34692C21.2728 1.07089 20.6906 0.933594 20.1082 0.933594ZM24.3616 13.2106C19.8466 13.2106 17.1511 15.0497 17.1511 18.1167C17.1511 21.4444 19.8289 22.3631 24.1684 22.7771C29.3535 23.2678 29.7524 24.0061 29.7524 24.9875C29.7524 26.6744 28.3348 27.3956 25.0004 27.3956C20.8045 27.3956 19.8785 26.3821 19.5754 24.3885C19.5435 24.1738 19.3532 24.0201 19.1298 24.0201H17.0701C16.8148 24.0201 16.6245 24.2214 16.6245 24.4514C16.6245 27.0123 18.0763 30.0613 25.0004 30.0613C30.01 30.0613 32.8809 28.1621 32.8809 24.8497C32.8809 21.568 30.5672 20.6923 25.7171 20.0635C20.7873 19.4501 20.2921 19.128 20.2921 18.0238C20.2921 17.1037 20.7241 15.8943 24.3616 15.8943C27.6003 15.8943 28.8122 16.5669 29.3068 18.6678C29.3547 18.8671 29.529 19.0212 29.7524 19.0212H31.8121C31.9397 19.0212 32.0498 18.9605 32.1455 18.8685C32.2253 18.7918 32.2736 18.668 32.2577 18.53C31.9386 14.9109 29.435 13.2106 24.3616 13.2106Z" fill="#191919"/>
</svg>
