<svg width="39" height="42" viewBox="0 0 39 42" fill="none" xmlns="http://www.w3.org/2000/svg">
<path d="M19.7067 0.908601C19.6009 0.905369 19.4955 0.921833 19.3956 0.957187L1.18008 7.42946C0.992204 7.49618 0.832385 7.62659 0.727236 7.79897C0.622088 7.97136 0.577955 8.17531 0.602186 8.37687L3.47975 32.4735C3.49656 32.6141 3.54606 32.7486 3.62411 32.8657C3.70217 32.9828 3.80652 33.0792 3.92847 33.1468L19.2851 41.6683C19.4132 41.7394 19.5568 41.7765 19.7026 41.7762C19.8484 41.7759 19.9918 41.7382 20.1197 41.6666L35.5562 33.0288C35.6773 32.9609 35.7809 32.8647 35.8583 32.7479C35.9357 32.6311 35.9848 32.4972 36.0015 32.3573L38.8791 8.26235C38.9034 8.05986 38.8588 7.85499 38.7526 7.68215C38.6464 7.50931 38.4853 7.37903 38.2961 7.3132L19.9616 0.955452C19.8794 0.926938 19.7934 0.911147 19.7067 0.908601ZM19.6863 2.7375L37.0655 8.76382L34.3273 31.6909L19.6999 39.8758L5.15394 31.8037L2.41405 8.87314L19.6863 2.7375ZM19.7712 4.46228C19.6004 4.45627 19.4315 4.50178 19.2858 4.59312C19.1401 4.68447 19.024 4.8176 18.952 4.97589L7.63888 29.8516C7.57722 29.987 7.54995 30.136 7.5596 30.285C7.56925 30.4339 7.61551 30.578 7.6941 30.7039C7.77269 30.8298 7.88109 30.9334 8.00927 31.0052C8.13746 31.0771 8.28131 31.1148 8.42754 31.1149H12.2892C12.4549 31.1148 12.6172 31.0664 12.7569 30.9754C12.8966 30.8844 13.008 30.7546 13.0779 30.6012L15.2654 25.7913H24.2159L26.4034 30.6012C26.4733 30.7546 26.5847 30.8844 26.7244 30.9754C26.8641 31.0664 27.0264 31.1148 27.1921 31.1149H31.0538C31.2 31.1148 31.3438 31.0771 31.472 31.0052C31.6002 30.9334 31.7086 30.8298 31.7872 30.7039C31.8658 30.578 31.912 30.4339 31.9217 30.285C31.9313 30.136 31.9041 29.987 31.8424 29.8516L20.5293 4.97589C20.4617 4.82722 20.355 4.70056 20.2212 4.60991C20.0875 4.51926 19.9317 4.46817 19.7712 4.46228ZM19.7406 7.45896L29.6906 29.338H27.7479L25.5604 24.5281C25.4904 24.3747 25.3791 24.2449 25.2394 24.1539C25.0997 24.0629 24.9374 24.0145 24.7717 24.0144H14.7096C14.5439 24.0145 14.3816 24.0629 14.2419 24.1539C14.1022 24.2449 13.9908 24.3747 13.9209 24.5281L11.7317 29.338H9.79069L19.7406 7.45896ZM19.7746 12.9023C19.6025 12.8955 19.4323 12.941 19.2856 13.0331C19.1389 13.1251 19.0222 13.2596 18.9503 13.4193L15.5339 20.9813C15.473 21.1167 15.4463 21.2655 15.4564 21.4141C15.4665 21.5627 15.5131 21.7063 15.5918 21.8318C15.6705 21.9572 15.7788 22.0605 15.9068 22.132C16.0348 22.2035 16.1784 22.241 16.3243 22.2411H23.157C23.3029 22.241 23.4465 22.2035 23.5745 22.132C23.7025 22.0605 23.8108 21.9572 23.8895 21.8318C23.9682 21.7063 24.0148 21.5627 24.0249 21.4141C24.035 21.2655 24.0083 21.1167 23.9474 20.9813L20.531 13.4193C20.464 13.2703 20.3578 13.1431 20.2243 13.0518C20.0908 12.9605 19.9352 12.9088 19.7746 12.9023ZM19.7406 15.9111L21.7973 20.4642H17.684L19.7406 15.9111Z" fill="#191919"/>
</svg>
