<svg width="141" height="42" viewBox="0 0 141 42" fill="none" xmlns="http://www.w3.org/2000/svg">
<rect width="112.8" height="32.8" rx="8" transform="matrix(1.25 0 0 -1.25 0 41.1183)" fill="#333333"/>
<path d="M52.0955 11.9133C52.0955 12.6634 51.867 13.2642 51.4168 13.7122C50.8992 14.2434 50.225 14.5106 49.3988 14.5106C48.6092 14.5106 47.9351 14.2389 47.382 13.7032C46.8278 13.1597 46.5513 12.4927 46.5513 11.6943C46.5513 10.8959 46.8278 10.2288 47.382 9.68982C47.9351 9.14968 48.6092 8.87793 49.3988 8.87793C49.7919 8.87793 50.1667 8.95766 50.5244 9.10589C50.8809 9.25524 51.1711 9.45737 51.3814 9.70667L50.9037 10.1806C50.5369 9.75495 50.0376 9.54496 49.3988 9.54496C48.8229 9.54496 48.3236 9.7426 47.8996 10.1412C47.4803 10.541 47.27 11.0587 47.27 11.6943C47.27 12.3299 47.4803 12.852 47.8996 13.2518C48.3236 13.646 48.8229 13.8481 49.3988 13.8481C50.0102 13.8481 50.5244 13.646 50.93 13.2473C51.1974 12.9834 51.3494 12.6196 51.3894 12.1547H49.3988V11.5056H52.0544C52.0864 11.646 52.0955 11.7819 52.0955 11.9133Z" fill="white"/>
<path d="M56.3086 9.66287H53.8141V11.3697H56.0629V12.0188H53.8141V13.7257H56.3086V14.3871H53.1079V9.00145H56.3086V9.66287Z" fill="white"/>
<path d="M59.2818 14.3871H58.5757V9.66287H57.0456V9.00145H60.813V9.66287H59.2818V14.3871Z" fill="white"/>
<path d="M63.5395 14.3871V9.00145H64.2445V14.3871H63.5395Z" fill="white"/>
<path d="M67.3697 14.3871H66.6692V9.66287H65.1335V9.00145H68.9055V9.66287H67.3697V14.3871Z" fill="white"/>
<path d="M76.0381 13.6943C75.4976 14.2389 74.828 14.5106 74.0293 14.5106C73.226 14.5106 72.5563 14.2389 72.0159 13.6943C71.4765 13.1507 71.208 12.4837 71.208 11.6943C71.208 10.9049 71.4765 10.2378 72.0159 9.69431C72.5563 9.14968 73.226 8.87793 74.0293 8.87793C74.8234 8.87793 75.493 9.14968 76.0335 9.6988C76.5774 10.2468 76.846 10.9093 76.846 11.6943C76.846 12.4837 76.5774 13.1507 76.0381 13.6943ZM72.5381 13.2428C72.9449 13.646 73.4396 13.8481 74.0293 13.8481C74.6143 13.8481 75.1137 13.646 75.5159 13.2428C75.9215 12.8397 76.1272 12.322 76.1272 11.6943C76.1272 11.0666 75.9215 10.5489 75.5159 10.1457C75.1137 9.7426 74.6143 9.54047 74.0293 9.54047C73.4396 9.54047 72.9449 9.7426 72.5381 10.1457C72.1324 10.5489 71.9267 11.0666 71.9267 11.6943C71.9267 12.322 72.1324 12.8397 72.5381 13.2428Z" fill="white"/>
<path d="M77.8366 14.3871V9.00145H78.6937L81.3584 13.19H81.3892L81.3584 12.1547V9.00145H82.0634V14.3871H81.3275L78.5371 9.99189H78.5063L78.5371 11.0317V14.3871H77.8366Z" fill="white"/>
<path d="M71.0343 22.2523C68.8872 22.2523 67.1332 23.8581 67.1332 26.0737C67.1332 28.2713 68.8872 29.894 71.0343 29.894C73.186 29.894 74.94 28.2713 74.94 26.0737C74.94 23.8581 73.186 22.2523 71.0343 22.2523ZM71.0343 28.3892C69.8562 28.3892 68.8427 27.4336 68.8427 26.0737C68.8427 24.6958 69.8562 23.7571 71.0343 23.7571C72.2124 23.7571 73.2305 24.6958 73.2305 26.0737C73.2305 27.4336 72.2124 28.3892 71.0343 28.3892ZM62.5225 22.2523C60.3708 22.2523 58.6214 23.8581 58.6214 26.0737C58.6214 28.2713 60.3708 29.894 62.5225 29.894C64.673 29.894 66.4236 28.2713 66.4236 26.0737C66.4236 23.8581 64.673 22.2523 62.5225 22.2523ZM62.5225 28.3892C61.3433 28.3892 60.3263 27.4336 60.3263 26.0737C60.3263 24.6958 61.3433 23.7571 62.5225 23.7571C63.7006 23.7571 64.7142 24.6958 64.7142 26.0737C64.7142 27.4336 63.7006 28.3892 62.5225 28.3892ZM52.3938 23.4235V25.0473H56.3395C56.2241 25.9547 55.9155 26.6217 55.4425 27.0866C54.8666 27.6481 53.9696 28.2713 52.3938 28.2713C49.9656 28.2713 48.0642 26.3455 48.0642 23.9592C48.0642 21.5729 49.9656 19.6471 52.3938 19.6471C53.7067 19.6471 54.662 20.1513 55.3671 20.8048L56.5314 19.6605C55.5453 18.7352 54.2335 18.0244 52.3938 18.0244C49.064 18.0244 46.2656 20.6869 46.2656 23.9592C46.2656 27.2315 49.064 29.894 52.3938 29.894C54.1935 29.894 55.5453 29.3145 56.608 28.2275C57.697 27.1574 58.0363 25.6526 58.0363 24.4376C58.0363 24.0603 58.0044 23.7133 57.9472 23.4235H52.3938ZM93.8113 24.6824C93.4902 23.8278 92.4995 22.2523 90.4815 22.2523C88.4819 22.2523 86.817 23.8009 86.817 26.0737C86.817 28.214 88.4647 29.894 90.6735 29.894C92.4595 29.894 93.4902 28.8238 93.9142 28.2006L92.5887 27.3325C92.1464 27.9681 91.5442 28.3892 90.6735 28.3892C89.8085 28.3892 89.188 27.9996 88.7904 27.2315L93.9907 25.117L93.8113 24.6824ZM88.5093 25.9547C88.4647 24.4814 89.6737 23.7267 90.5398 23.7267C91.2186 23.7267 91.7945 24.0603 91.9865 24.5375L88.5093 25.9547ZM84.2825 29.6615H85.992V18.432H84.2825V29.6615ZM81.483 23.1035H81.4258C81.0419 22.6566 80.3094 22.2523 79.3816 22.2523C77.4345 22.2523 75.6542 23.9322 75.6542 26.0861C75.6542 28.2275 77.4345 29.894 79.3816 29.894C80.3094 29.894 81.0419 29.4863 81.4258 29.0259H81.483V29.5739C81.483 31.0349 80.6888 31.8198 79.4079 31.8198C78.3634 31.8198 77.7156 31.0787 77.4482 30.4555L75.9615 31.0652C76.39 32.0781 77.5247 33.3246 79.4079 33.3246C81.4121 33.3246 83.1033 32.1657 83.1033 29.346V22.4848H81.483V23.1035ZM79.5278 28.3892C78.3497 28.3892 77.3636 27.4201 77.3636 26.0861C77.3636 24.7396 78.3497 23.7571 79.5278 23.7571C80.6888 23.7571 81.6041 24.7396 81.6041 26.0861C81.6041 27.4201 80.6888 28.3892 79.5278 28.3892ZM101.815 18.432H97.7261V29.6615H99.431V25.4067H101.815C103.708 25.4067 105.565 24.0603 105.565 21.9188C105.565 19.7785 103.703 18.432 101.815 18.432ZM101.859 23.8447H99.431V19.9941H101.859C103.132 19.9941 103.859 21.0328 103.859 21.9188C103.859 22.788 103.132 23.8447 101.859 23.8447ZM112.398 22.231C111.166 22.231 109.885 22.7655 109.359 23.9502L110.871 24.5734C111.197 23.9502 111.796 23.7481 112.429 23.7481C113.313 23.7481 114.21 24.2703 114.224 25.1922V25.3101C113.916 25.1349 113.255 24.8755 112.443 24.8755C110.813 24.8755 109.153 25.757 109.153 27.4022C109.153 28.9069 110.488 29.876 111.988 29.876C113.135 29.876 113.768 29.3673 114.166 28.7755H114.224V29.6436H115.871V25.3359C115.871 23.3449 114.358 22.231 112.398 22.231ZM112.192 28.3847C111.635 28.3847 110.858 28.113 110.858 27.4336C110.858 26.5644 111.827 26.2309 112.666 26.2309C113.416 26.2309 113.768 26.3937 114.224 26.6082C114.09 27.6481 113.18 28.3847 112.192 28.3847ZM121.87 22.4769L119.91 27.3449H119.852L117.826 22.4769H115.987L119.031 29.2797L117.294 33.0652H119.076L123.767 22.4769H121.87ZM106.502 29.6615H108.211V18.432H106.502V29.6615Z" fill="white"/>
<path d="M17.6573 9.48326C17.3888 9.7595 17.2334 10.1896 17.2334 10.7466V30.6138C17.2334 31.1708 17.3888 31.6009 17.6573 31.8771L17.7236 31.9377L29.0521 20.8093V20.5466L17.7236 9.41813L17.6573 9.48326Z" fill="url(#paint0_linear_997_9476)"/>
<path d="M32.8237 24.5205L29.0518 20.8092V20.5464L32.8283 16.835L32.9129 16.8833L37.3853 19.3841C38.6617 20.0938 38.6617 21.2617 37.3853 21.9759L32.9129 24.4722L32.8237 24.5205Z" fill="url(#paint1_linear_997_9476)"/>
<path d="M32.9126 24.4723L29.0515 20.6778L17.6567 31.877C18.0807 32.3149 18.772 32.3677 19.5582 31.9298L32.9126 24.4723Z" fill="url(#paint2_linear_997_9476)"/>
<path d="M32.9126 16.8834L19.5582 9.42591C18.772 8.99245 18.0807 9.04523 17.6567 9.48318L29.0515 20.6779L32.9126 16.8834Z" fill="url(#paint3_linear_997_9476)"/>
<defs>
<linearGradient id="paint0_linear_997_9476" x1="28.0463" y1="30.8207" x2="12.9719" y2="15.4815" gradientUnits="userSpaceOnUse">
<stop stop-color="#00A0FF"/>
<stop offset="0.0066" stop-color="#00A1FF"/>
<stop offset="0.2601" stop-color="#00BEFF"/>
<stop offset="0.5122" stop-color="#00D2FF"/>
<stop offset="0.7604" stop-color="#00DFFF"/>
<stop offset="1" stop-color="#00E3FF"/>
</linearGradient>
<linearGradient id="paint1_linear_997_9476" x1="39.0474" y1="20.6765" x2="16.9279" y2="20.6765" gradientUnits="userSpaceOnUse">
<stop stop-color="#FFE000"/>
<stop offset="0.4087" stop-color="#FFBD00"/>
<stop offset="0.7754" stop-color="#FFA500"/>
<stop offset="1" stop-color="#FF9C00"/>
</linearGradient>
<linearGradient id="paint2_linear_997_9476" x1="30.8131" y1="18.6151" x2="10.3711" y2="-2.18607" gradientUnits="userSpaceOnUse">
<stop stop-color="#FF3A44"/>
<stop offset="1" stop-color="#C31162"/>
</linearGradient>
<linearGradient id="paint3_linear_997_9476" x1="14.7884" y1="38.4868" x2="23.9167" y2="29.1982" gradientUnits="userSpaceOnUse">
<stop stop-color="#32A071"/>
<stop offset="0.0685" stop-color="#2DA771"/>
<stop offset="0.4762" stop-color="#15CF74"/>
<stop offset="0.8009" stop-color="#06E775"/>
<stop offset="1" stop-color="#00F076"/>
</linearGradient>
</defs>
</svg>
