<svg width="141" height="42" viewBox="0 0 141 42" fill="none" xmlns="http://www.w3.org/2000/svg">
<rect width="112.8" height="32.8" rx="8" transform="matrix(1.25 0 0 -1.25 0 41.8867)" fill="#08131E"/>
<path d="M52.0955 12.6817C52.0955 13.4318 51.867 14.0326 51.4168 14.4807C50.8992 15.0118 50.225 15.2791 49.3988 15.2791C48.6092 15.2791 47.9351 15.0073 47.382 14.4717C46.8278 13.9282 46.5513 13.2611 46.5513 12.4627C46.5513 11.6643 46.8278 10.9973 47.382 10.4583C47.9351 9.91812 48.6092 9.64636 49.3988 9.64636C49.7919 9.64636 50.1667 9.72609 50.5244 9.87432C50.8809 10.0237 51.1711 10.2258 51.3814 10.4751L50.9037 10.949C50.5369 10.5234 50.0376 10.3134 49.3988 10.3134C48.8229 10.3134 48.3236 10.511 47.8996 10.9097C47.4803 11.3094 47.27 11.8271 47.27 12.4627C47.27 13.0983 47.4803 13.6205 47.8996 14.0202C48.3236 14.4144 48.8229 14.6165 49.3988 14.6165C50.0102 14.6165 50.5244 14.4144 50.93 14.0158C51.1974 13.7519 51.3494 13.388 51.3894 12.9231H49.3988V12.2741H52.0544C52.0864 12.4144 52.0955 12.5503 52.0955 12.6817Z" fill="white"/>
<path d="M56.3086 10.4313H53.8141V12.1382H56.0629V12.7872H53.8141V14.4941H56.3086V15.1555H53.1079V9.76988H56.3086V10.4313Z" fill="white"/>
<path d="M59.2818 15.1555H58.5757V10.4313H57.0456V9.76988H60.813V10.4313H59.2818V15.1555Z" fill="white"/>
<path d="M63.5395 15.1555V9.76988H64.2445V15.1555H63.5395Z" fill="white"/>
<path d="M67.3697 15.1555H66.6692V10.4313H65.1335V9.76988H68.9055V10.4313H67.3697V15.1555Z" fill="white"/>
<path d="M76.0381 14.4627C75.4976 15.0073 74.828 15.2791 74.0293 15.2791C73.226 15.2791 72.5563 15.0073 72.0159 14.4627C71.4765 13.9192 71.208 13.2522 71.208 12.4627C71.208 11.6733 71.4765 11.0063 72.0159 10.4627C72.5563 9.91812 73.226 9.64636 74.0293 9.64636C74.8234 9.64636 75.493 9.91812 76.0335 10.4672C76.5774 11.0152 76.846 11.6778 76.846 12.4627C76.846 13.2522 76.5774 13.9192 76.0381 14.4627ZM72.5381 14.0113C72.9449 14.4144 73.4396 14.6165 74.0293 14.6165C74.6143 14.6165 75.1137 14.4144 75.5159 14.0113C75.9215 13.6081 76.1272 13.0904 76.1272 12.4627C76.1272 11.835 75.9215 11.3173 75.5159 10.9142C75.1137 10.511 74.6143 10.3089 74.0293 10.3089C73.4396 10.3089 72.9449 10.511 72.5381 10.9142C72.1324 11.3173 71.9267 11.835 71.9267 12.4627C71.9267 13.0904 72.1324 13.6081 72.5381 14.0113Z" fill="white"/>
<path d="M77.8366 15.1555V9.76988H78.6937L81.3584 13.9585H81.3892L81.3584 12.9231V9.76988H82.0634V15.1555H81.3275L78.5371 10.7603H78.5063L78.5371 11.8002V15.1555H77.8366Z" fill="white"/>
<path d="M71.0343 23.0207C68.8872 23.0207 67.1332 24.6266 67.1332 26.8421C67.1332 29.0397 68.8872 30.6624 71.0343 30.6624C73.186 30.6624 74.94 29.0397 74.94 26.8421C74.94 24.6266 73.186 23.0207 71.0343 23.0207ZM71.0343 29.1577C69.8562 29.1577 68.8427 28.202 68.8427 26.8421C68.8427 25.4643 69.8562 24.5255 71.0343 24.5255C72.2124 24.5255 73.2305 25.4643 73.2305 26.8421C73.2305 28.202 72.2124 29.1577 71.0343 29.1577ZM62.5225 23.0207C60.3708 23.0207 58.6214 24.6266 58.6214 26.8421C58.6214 29.0397 60.3708 30.6624 62.5225 30.6624C64.673 30.6624 66.4236 29.0397 66.4236 26.8421C66.4236 24.6266 64.673 23.0207 62.5225 23.0207ZM62.5225 29.1577C61.3433 29.1577 60.3263 28.202 60.3263 26.8421C60.3263 25.4643 61.3433 24.5255 62.5225 24.5255C63.7006 24.5255 64.7142 25.4643 64.7142 26.8421C64.7142 28.202 63.7006 29.1577 62.5225 29.1577ZM52.3938 24.192V25.8158H56.3395C56.2241 26.7231 55.9155 27.3901 55.4425 27.855C54.8666 28.4165 53.9696 29.0397 52.3938 29.0397C49.9656 29.0397 48.0642 27.1139 48.0642 24.7276C48.0642 22.3414 49.9656 20.4155 52.3938 20.4155C53.7067 20.4155 54.662 20.9197 55.3671 21.5733L56.5314 20.429C55.5453 19.5037 54.2335 18.7928 52.3938 18.7928C49.064 18.7928 46.2656 21.4554 46.2656 24.7276C46.2656 27.9999 49.064 30.6624 52.3938 30.6624C54.1935 30.6624 55.5453 30.083 56.608 28.996C57.697 27.9258 58.0363 26.421 58.0363 25.206C58.0363 24.8287 58.0044 24.4817 57.9472 24.192H52.3938ZM93.8113 25.4508C93.4902 24.5962 92.4995 23.0207 90.4815 23.0207C88.4819 23.0207 86.817 24.5693 86.817 26.8421C86.817 28.9825 88.4647 30.6624 90.6735 30.6624C92.4595 30.6624 93.4902 29.5922 93.9142 28.969L92.5887 28.101C92.1464 28.7366 91.5442 29.1577 90.6735 29.1577C89.8085 29.1577 89.188 28.768 88.7904 27.9999L93.9907 25.8854L93.8113 25.4508ZM88.5093 26.7231C88.4647 25.2498 89.6737 24.4952 90.5398 24.4952C91.2186 24.4952 91.7945 24.8287 91.9865 25.3059L88.5093 26.7231ZM84.2825 30.43H85.992V19.2005H84.2825V30.43ZM81.483 23.8719H81.4258C81.0419 23.425 80.3094 23.0207 79.3816 23.0207C77.4345 23.0207 75.6542 24.7007 75.6542 26.8545C75.6542 28.996 77.4345 30.6624 79.3816 30.6624C80.3094 30.6624 81.0419 30.2548 81.4258 29.7944H81.483V30.3424C81.483 31.8033 80.6888 32.5883 79.4079 32.5883C78.3634 32.5883 77.7156 31.8471 77.4482 31.2239L75.9615 31.8336C76.39 32.8465 77.5247 34.093 79.4079 34.093C81.4121 34.093 83.1033 32.9341 83.1033 30.1144V23.2532H81.483V23.8719ZM79.5278 29.1577C78.3497 29.1577 77.3636 28.1886 77.3636 26.8545C77.3636 25.5081 78.3497 24.5255 79.5278 24.5255C80.6888 24.5255 81.6041 25.5081 81.6041 26.8545C81.6041 28.1886 80.6888 29.1577 79.5278 29.1577ZM101.815 19.2005H97.7261V30.43H99.431V26.1751H101.815C103.708 26.1751 105.565 24.8287 105.565 22.6872C105.565 20.5469 103.703 19.2005 101.815 19.2005ZM101.859 24.6131H99.431V20.7625H101.859C103.132 20.7625 103.859 21.8012 103.859 22.6872C103.859 23.5564 103.132 24.6131 101.859 24.6131ZM112.398 22.9994C111.166 22.9994 109.885 23.5339 109.359 24.7186L110.871 25.3419C111.197 24.7186 111.796 24.5165 112.429 24.5165C113.313 24.5165 114.21 25.0387 114.224 25.9606V26.0785C113.916 25.9034 113.255 25.644 112.443 25.644C110.813 25.644 109.153 26.5255 109.153 28.1706C109.153 29.6753 110.488 30.6444 111.988 30.6444C113.135 30.6444 113.768 30.1357 114.166 29.544H114.224V30.412H115.871V26.1044C115.871 24.1134 114.358 22.9994 112.398 22.9994ZM112.192 29.1532C111.635 29.1532 110.858 28.8814 110.858 28.202C110.858 27.3329 111.827 26.9994 112.666 26.9994C113.416 26.9994 113.768 27.1622 114.224 27.3767C114.09 28.4165 113.18 29.1532 112.192 29.1532ZM121.87 23.2453L119.91 28.1133H119.852L117.826 23.2453H115.987L119.031 30.0482L117.294 33.8336H119.076L123.767 23.2453H121.87ZM106.502 30.43H108.211V19.2005H106.502V30.43Z" fill="white"/>
<path d="M17.6573 10.2517C17.3888 10.5279 17.2334 10.958 17.2334 11.515V31.3822C17.2334 31.9392 17.3888 32.3693 17.6573 32.6455L17.7236 32.7062L29.0521 21.5778V21.315L17.7236 10.1866L17.6573 10.2517Z" fill="url(#paint0_linear_2231_23434)"/>
<path d="M32.8237 25.2889L29.0518 21.5776V21.3148L32.8283 17.6035L32.9129 17.6518L37.3853 20.1526C38.6617 20.8623 38.6617 22.0301 37.3853 22.7443L32.9129 25.2407L32.8237 25.2889Z" fill="url(#paint1_linear_2231_23434)"/>
<path d="M32.9126 25.2407L29.0515 21.4463L17.6567 32.6454C18.0807 33.0834 18.772 33.1362 19.5582 32.6982L32.9126 25.2407Z" fill="url(#paint2_linear_2231_23434)"/>
<path d="M32.9126 17.6518L19.5582 10.1943C18.772 9.76089 18.0807 9.81366 17.6567 10.2516L29.0515 21.4463L32.9126 17.6518Z" fill="url(#paint3_linear_2231_23434)"/>
<defs>
<linearGradient id="paint0_linear_2231_23434" x1="28.0463" y1="31.5891" x2="12.9719" y2="16.2499" gradientUnits="userSpaceOnUse">
<stop stop-color="#00A0FF"/>
<stop offset="0.0066" stop-color="#00A1FF"/>
<stop offset="0.2601" stop-color="#00BEFF"/>
<stop offset="0.5122" stop-color="#00D2FF"/>
<stop offset="0.7604" stop-color="#00DFFF"/>
<stop offset="1" stop-color="#00E3FF"/>
</linearGradient>
<linearGradient id="paint1_linear_2231_23434" x1="39.0474" y1="21.445" x2="16.9279" y2="21.445" gradientUnits="userSpaceOnUse">
<stop stop-color="#FFE000"/>
<stop offset="0.4087" stop-color="#FFBD00"/>
<stop offset="0.7754" stop-color="#FFA500"/>
<stop offset="1" stop-color="#FF9C00"/>
</linearGradient>
<linearGradient id="paint2_linear_2231_23434" x1="30.8131" y1="19.3835" x2="10.3711" y2="-1.41764" gradientUnits="userSpaceOnUse">
<stop stop-color="#FF3A44"/>
<stop offset="1" stop-color="#C31162"/>
</linearGradient>
<linearGradient id="paint3_linear_2231_23434" x1="14.7884" y1="39.2552" x2="23.9167" y2="29.9666" gradientUnits="userSpaceOnUse">
<stop stop-color="#32A071"/>
<stop offset="0.0685" stop-color="#2DA771"/>
<stop offset="0.4762" stop-color="#15CF74"/>
<stop offset="0.8009" stop-color="#06E775"/>
<stop offset="1" stop-color="#00F076"/>
</linearGradient>
</defs>
</svg>
