<svg width="18" height="15" viewBox="0 0 18 15" fill="none" xmlns="http://www.w3.org/2000/svg">
<path d="M16.875 0.636719H1.125C0.826631 0.636719 0.540483 0.755245 0.329505 0.966224C0.118526 1.1772 0 1.46335 0 1.76172V13.0117C0 13.3101 0.118526 13.5962 0.329505 13.8072C0.540483 14.0182 0.826631 14.1367 1.125 14.1367H16.875C17.1734 14.1367 17.4595 14.0182 17.6705 13.8072C17.8815 13.5962 18 13.3101 18 13.0117V1.76172C18 1.46335 17.8815 1.1772 17.6705 0.966224C17.4595 0.755245 17.1734 0.636719 16.875 0.636719ZM16.0087 13.0117H2.05875L5.99625 8.93922L5.18625 8.15734L1.125 12.3592V2.61672L8.11687 9.57484C8.32766 9.78438 8.61279 9.90199 8.91 9.90199C9.20721 9.90199 9.49234 9.78438 9.70312 9.57484L16.875 2.44234V12.2861L12.735 8.14609L11.9419 8.93922L16.0087 13.0117ZM1.86187 1.76172H15.9637L8.91 8.77609L1.86187 1.76172Z" fill="#E7E7E7"/>
</svg>
