<svg width="36" height="36" viewBox="0 0 36 36" fill="none" xmlns="http://www.w3.org/2000/svg">
<path d="M25.5 6H10.5C6 6 3 8.25 3 13.5V18.84C3 19.395 3.57 19.74 4.065 19.515C5.535 18.84 7.23 18.585 9.015 18.9C12.96 19.605 15.855 23.265 15.75 27.27C15.735 27.9 15.645 28.515 15.48 29.115C15.36 29.58 15.735 30.015 16.215 30.015H25.5C30 30.015 33 27.765 33 22.515V13.5C33 8.25 30 6 25.5 6ZM18 21.75C15.93 21.75 14.25 20.07 14.25 18C14.25 15.93 15.93 14.25 18 14.25C20.07 14.25 21.75 15.93 21.75 18C21.75 20.07 20.07 21.75 18 21.75ZM28.875 21C28.875 21.615 28.365 22.125 27.75 22.125C27.135 22.125 26.625 21.615 26.625 21V15C26.625 14.385 27.135 13.875 27.75 13.875C28.365 13.875 28.875 14.385 28.875 15V21Z" fill="#AB47BC"/>
<path d="M7.5 21C4.185 21 1.5 23.685 1.5 27C1.5 28.125 1.815 29.19 2.37 30.09C3.405 31.83 5.31 33 7.5 33C9.69 33 11.595 31.83 12.63 30.09C13.185 29.19 13.5 28.125 13.5 27C13.5 23.685 10.815 21 7.5 21ZM9.735 28.095H8.625V29.265C8.625 29.88 8.115 30.39 7.5 30.39C6.885 30.39 6.375 29.88 6.375 29.265V28.095H5.265C4.65 28.095 4.14 27.585 4.14 26.97C4.14 26.355 4.65 25.845 5.265 25.845H6.375V24.78C6.375 24.165 6.885 23.655 7.5 23.655C8.115 23.655 8.625 24.165 8.625 24.78V25.845H9.735C10.35 25.845 10.86 26.355 10.86 26.97C10.86 27.585 10.365 28.095 9.735 28.095Z" fill="#AB47BC"/>
</svg>
