<svg width="25" height="28" viewBox="0 0 25 28" fill="none" xmlns="http://www.w3.org/2000/svg">
<path d="M16.0146 21.6611V26.3486" stroke="white" stroke-width="2" stroke-miterlimit="10" stroke-linecap="round" stroke-linejoin="round"/>
<path d="M14.8896 9.66113C13.8584 9.84863 13.0146 9.66113 12.6396 9.00488C12.2646 8.34863 12.5459 7.41113 13.2021 6.66113C12.3584 5.81738 11.4209 5.25488 10.2959 4.97363C10.0146 5.91113 9.3584 6.66113 8.6084 6.66113C7.8584 6.66113 7.20215 6.00488 6.9209 4.97363C5.70215 5.34863 4.6709 5.91113 3.9209 6.66113C4.57715 7.41113 4.8584 8.34863 4.4834 9.00488C4.1084 9.66113 3.1709 9.84863 2.2334 9.66113C2.0459 10.2236 1.95215 10.7861 1.95215 11.3486C1.95215 11.9111 2.0459 12.4736 2.13965 13.0361C3.1709 12.8486 4.01465 13.0361 4.38965 13.6924C4.76465 14.3486 4.4834 15.2861 3.82715 16.0361C4.6709 16.8799 5.6084 17.4424 6.7334 17.7236C7.01465 16.7861 7.6709 16.0361 8.4209 16.0361C9.1709 16.0361 9.82715 16.6924 10.1084 17.7236C11.2334 17.4424 12.2646 16.8799 13.0146 16.0361C12.3584 15.2861 12.0771 14.3486 12.4521 13.6924C12.8271 13.0361 13.7646 12.8486 14.7021 13.0361C14.8896 12.4736 14.8896 11.9111 14.8896 11.3486C14.8896 10.7861 14.9834 10.2236 14.8896 9.66113Z" stroke="white" stroke-width="2" stroke-miterlimit="10" stroke-linecap="round" stroke-linejoin="round"/>
<path d="M6.64014 17.6299V24.4736" stroke="white" stroke-width="2" stroke-miterlimit="10" stroke-linecap="round" stroke-linejoin="round"/>
<path d="M15.0776 21.6611H18.8276C19.8589 21.6611 20.7026 20.8174 20.7026 19.7861V16.0361H23.5151L20.7026 10.4111C20.7026 5.72363 16.9526 1.97363 12.2651 1.97363C9.45264 1.97363 6.92139 3.37988 5.42139 5.53613" stroke="white" stroke-width="2" stroke-miterlimit="10" stroke-linecap="round" stroke-linejoin="round"/>
</svg>
