<svg width="31" height="31" viewBox="0 0 31 31" fill="none" xmlns="http://www.w3.org/2000/svg">
<path d="M27.1343 8.84383C28.2326 7.74549 27.9358 5.66794 26.4713 4.20348C25.0069 2.73903 22.9293 2.44224 21.831 3.54058C20.7327 4.63892 21.0295 6.71647 22.4939 8.18092C23.9584 9.64537 26.0359 9.94217 27.1343 8.84383Z" stroke="white" stroke-width="2" stroke-miterlimit="10" stroke-linecap="round" stroke-linejoin="round"/>
<path d="M8.54574 27.3799C7.51449 28.5049 5.35824 28.2236 3.95199 26.7236C2.54574 25.2236 2.17074 23.1611 3.29574 22.1299" stroke="white" stroke-width="2" stroke-miterlimit="10" stroke-linecap="round" stroke-linejoin="round"/>
<path d="M3.2959 22.1299C9.8584 16.4111 16.1396 10.1299 21.8584 3.56738" stroke="white" stroke-width="2" stroke-miterlimit="10" stroke-linecap="round" stroke-linejoin="round"/>
<path d="M8.5459 27.3799C14.2646 20.8174 20.5459 14.5361 27.1084 8.81738" stroke="white" stroke-width="2" stroke-miterlimit="10" stroke-linecap="round" stroke-linejoin="round"/>
<path d="M12.5771 12.8486C13.8896 15.0049 18.0146 18.2861 18.0146 18.2861" stroke="white" stroke-width="2" stroke-miterlimit="10" stroke-linecap="round" stroke-linejoin="round"/>
<path d="M17.0771 23.9111V17.3486C19.4209 18.4736 19.8896 20.8174 19.8896 23.4424V27.6611" stroke="white" stroke-width="2" stroke-miterlimit="10" stroke-linecap="round" stroke-linejoin="round"/>
</svg>
