<svg width="16" height="16" viewBox="0 0 16 16" fill="none" xmlns="http://www.w3.org/2000/svg">
<path d="M0.423203 2.5902L7.80732 0.0300784C7.93262 -0.0100261 8.06662 -0.0100261 8.19191 0.0300784L15.5683 2.5902H15.5837L15.6606 2.6302H15.6683L15.7453 2.67821C15.7453 2.68621 15.7529 2.68621 15.7606 2.69421L15.8222 2.75021L15.876 2.81421C15.876 2.82221 15.8837 2.82221 15.8837 2.83021L15.9299 2.90222C15.9299 2.91022 15.9299 2.91022 15.9375 2.91822L15.9683 2.99022L15.9914 3.07823V3.10223C15.999 3.13358 16.0016 3.16601 15.9991 3.19823V9.59854C15.9991 9.76829 15.9343 9.93108 15.8189 10.0511C15.7035 10.1711 15.5469 10.2386 15.3837 10.2386C15.2205 10.2386 15.064 10.1711 14.9486 10.0511C14.8332 9.93108 14.7684 9.76829 14.7684 9.59854V4.08627L12.184 4.98232C12.6695 5.79067 12.9255 6.72531 12.9224 7.67845C12.9221 8.54529 12.7102 9.39788 12.3066 10.1563C11.903 10.9147 11.3209 11.5541 10.6148 12.0147C12.0821 12.592 13.3348 13.6399 14.1915 15.0068C14.2788 15.1504 14.3084 15.324 14.2739 15.4901C14.2394 15.6562 14.1435 15.8016 14.0069 15.8948C13.9399 15.941 13.8647 15.9729 13.7858 15.9887C13.7068 16.0044 13.6256 16.0037 13.5469 15.9866C13.4682 15.9695 13.3936 15.9363 13.3273 15.889C13.261 15.8416 13.2044 15.7811 13.1608 15.7108C12.6023 14.816 11.8376 14.0806 10.9362 13.5714C10.0348 13.0623 9.02534 12.7956 7.99962 12.7956C6.9739 12.7956 5.96445 13.0623 5.06306 13.5714C4.16167 14.0806 3.39695 14.816 2.83842 15.7108C2.78225 15.7996 2.70573 15.8723 2.61576 15.9226C2.52579 15.9729 2.42521 15.9991 2.32308 15.9988C2.2052 16.0001 2.08977 15.9638 1.99233 15.8948C1.85575 15.8016 1.75987 15.6562 1.72534 15.4901C1.69081 15.324 1.7204 15.1504 1.80772 15.0068C2.66448 13.6399 3.91712 12.592 5.38441 12.0147C4.67833 11.5541 4.09622 10.9147 3.69262 10.1563C3.28902 9.39788 3.07715 8.54529 3.07687 7.67845C3.07377 6.72531 3.32975 5.79067 3.81528 4.98232L0.423203 3.80626C0.300093 3.76417 0.192899 3.68273 0.116906 3.57355C0.0409136 3.46437 0 3.33302 0 3.19823C0 3.06344 0.0409136 2.93209 0.116906 2.82291C0.192899 2.71373 0.300093 2.63229 0.423203 2.5902ZM4.30756 7.67845C4.30756 8.69693 4.69654 9.67369 5.38894 10.3939C6.08133 11.114 7.02042 11.5186 7.99962 11.5186C8.97881 11.5186 9.9179 11.114 10.6103 10.3939C11.3027 9.67369 11.6917 8.69693 11.6917 7.67845C11.6902 6.85899 11.4398 6.06098 10.9763 5.39834L8.19191 6.36638C8.06701 6.40912 7.93223 6.40912 7.80732 6.36638L5.02289 5.39834C4.5594 6.06098 4.30904 6.85899 4.30756 7.67845ZM5.02289 4.05427H5.03059L7.99962 5.08632L10.9687 4.05427H10.9763L13.4377 3.19823L7.99962 1.31014L2.56152 3.19823L5.02289 4.05427Z" fill="#685F78"/>
</svg>
