<svg width="25" height="24" viewBox="0 0 25 24" fill="none" xmlns="http://www.w3.org/2000/svg">
<path d="M12.667 13.75C12.257 13.75 11.917 13.41 11.917 13V8C11.917 7.59 12.257 7.25 12.667 7.25C13.077 7.25 13.417 7.59 13.417 8V13C13.417 13.41 13.077 13.75 12.667 13.75Z" fill="#392C7D"/>
<path d="M15.5571 3.45H9.77713C9.37713 3.45 9.05713 3.13 9.05713 2.73C9.05713 2.33 9.37713 2 9.77713 2H15.5571C15.9571 2 16.2771 2.32 16.2771 2.72C16.2771 3.12 15.9571 3.45 15.5571 3.45Z" fill="#392C7D"/>
<path opacity="0.4" d="M15.6671 19.9702V17.0302C15.6671 15.7602 16.4271 15.0002 17.6971 15.0002H20.6371C20.8271 15.0002 20.9971 15.0202 21.1671 15.0602C21.2771 14.5002 21.3371 13.9202 21.3371 13.3302C21.3371 8.55016 17.4471 4.66016 12.6671 4.66016C7.88707 4.66016 3.99707 8.55016 3.99707 13.3302C3.99707 18.1102 7.88707 22.0002 12.6671 22.0002C13.8771 22.0002 15.0271 21.7502 16.0771 21.3002C15.8171 20.9602 15.6671 20.5202 15.6671 19.9702Z" fill="#392C7D"/>
<path d="M20.637 15H17.697C16.427 15 15.667 15.76 15.667 17.03V19.97C15.667 21.24 16.427 22 17.697 22H20.637C21.907 22 22.667 21.24 22.667 19.97V17.03C22.667 15.76 21.907 15 20.637 15ZM20.357 19.46L19.177 20.14C18.937 20.28 18.697 20.35 18.477 20.35C18.307 20.35 18.157 20.31 18.017 20.23C17.697 20.04 17.517 19.67 17.517 19.18V17.82C17.517 17.33 17.697 16.96 18.017 16.77C18.337 16.58 18.747 16.62 19.177 16.86L20.357 17.54C20.777 17.79 21.017 18.13 21.017 18.5C21.017 18.87 20.787 19.21 20.357 19.46Z" fill="#392C7D"/>
</svg>
