<svg width="36" height="36" viewBox="0 0 36 36" fill="none" xmlns="http://www.w3.org/2000/svg">
<path d="M29.2649 8.775L20.3549 3.63C18.8999 2.79 17.0999 2.79 15.6299 3.63L6.73488 8.775C5.27988 9.615 4.37988 11.175 4.37988 12.87V23.13C4.37988 24.81 5.27988 26.37 6.73488 27.225L15.6449 32.37C17.0999 33.21 18.8999 33.21 20.3699 32.37L29.2799 27.225C30.7349 26.385 31.6349 24.825 31.6349 23.13V12.87C31.6199 11.175 30.7199 9.63 29.2649 8.775ZM17.9999 11.01C19.9349 11.01 21.4949 12.57 21.4949 14.505C21.4949 16.44 19.9349 18 17.9999 18C16.0649 18 14.5049 16.44 14.5049 14.505C14.5049 12.585 16.0649 11.01 17.9999 11.01ZM22.0199 24.99H13.9799C12.7649 24.99 12.0599 23.64 12.7349 22.635C13.7549 21.12 15.7349 20.1 17.9999 20.1C20.2649 20.1 22.2449 21.12 23.2649 22.635C23.9399 23.625 23.2199 24.99 22.0199 24.99Z" fill="#5625E8"/>
</svg>
