<svg width="41" height="40" viewBox="0 0 41 40" fill="none" xmlns="http://www.w3.org/2000/svg">
<path d="M30.3335 3.33301H10.3335C7.56683 3.33301 5.3335 5.54967 5.3335 8.28301V26.4663C5.3335 29.1997 7.56683 31.4163 10.3335 31.4163H11.6002C12.9335 31.4163 14.2002 31.933 15.1335 32.8663L17.9835 35.683C19.2835 36.9663 21.4002 36.9663 22.7002 35.683L25.5502 32.8663C26.4835 31.933 27.7668 31.4163 29.0835 31.4163H30.3335C33.1002 31.4163 35.3335 29.1997 35.3335 26.4663V8.28301C35.3335 5.54967 33.1002 3.33301 30.3335 3.33301ZM20.3335 9.58301C22.4835 9.58301 24.2168 11.3163 24.2168 13.4663C24.2168 15.6163 22.4835 17.3497 20.3335 17.3497C18.1835 17.3497 16.4502 15.5997 16.4502 13.4663C16.4502 11.3163 18.1835 9.58301 20.3335 9.58301ZM24.8002 25.0997H15.8668C14.5168 25.0997 13.7335 23.5997 14.4835 22.483C15.6168 20.7997 17.8168 19.6663 20.3335 19.6663C22.8502 19.6663 25.0502 20.7997 26.1835 22.483C26.9335 23.5997 26.1335 25.0997 24.8002 25.0997Z" fill="white"/>
</svg>
