<svg width="37" height="37" viewBox="0 0 37 37" fill="none" xmlns="http://www.w3.org/2000/svg">
<path d="M18.6672 21.8555C11.1522 21.8555 5.03223 26.8955 5.03223 33.1055C5.03223 33.5255 5.36223 33.8555 5.78223 33.8555H31.5522C31.9722 33.8555 32.3022 33.5255 32.3022 33.1055C32.3022 26.8955 26.1822 21.8555 18.6672 21.8555Z" fill="#FF4667"/>
<path d="M18.667 3.85547C16.897 3.85547 15.277 4.47047 13.987 5.50547C12.262 6.87047 11.167 8.98547 11.167 11.3555C11.167 12.7655 11.557 14.0855 12.262 15.2105C13.552 17.3855 15.922 18.8555 18.667 18.8555C20.557 18.8555 22.282 18.1655 23.602 16.9805C24.187 16.4855 24.697 15.8855 25.087 15.2105C25.777 14.0855 26.167 12.7655 26.167 11.3555C26.167 7.21547 22.807 3.85547 18.667 3.85547ZM22.552 10.5455L18.547 14.2355C18.277 14.4905 17.932 14.6105 17.587 14.6105C17.227 14.6105 16.867 14.4755 16.597 14.2055L14.752 12.3455C14.197 11.7905 14.197 10.9055 14.752 10.3505C15.307 9.79547 16.192 9.79547 16.747 10.3505L17.632 11.2355L20.647 8.46047C21.217 7.93547 22.102 7.96547 22.627 8.53547C23.152 9.12047 23.122 10.0205 22.552 10.5455Z" fill="#FF4667"/>
</svg>
