<svg width="41" height="40" viewBox="0 0 41 40" fill="none" xmlns="http://www.w3.org/2000/svg">
<path d="M37.3335 21.033V24.4663C37.3335 25.3997 36.5668 26.1663 35.6168 26.1663H32.4001C30.6001 26.1663 28.9501 24.8497 28.8001 23.0497C28.7001 21.9997 29.1001 21.0163 29.8001 20.333C30.4168 19.6997 31.2668 19.333 32.2001 19.333H35.6168C36.5668 19.333 37.3335 20.0997 37.3335 21.033Z" fill="white"/>
<path d="M26.3 23.2667C26.15 21.5167 26.7833 19.8 28.05 18.55C29.1167 17.4667 30.6 16.8333 32.2 16.8333H33.15C33.6167 16.8333 34 16.45 33.9333 15.9833C33.4833 12.75 30.6833 10.25 27.3333 10.25H10.6667C6.98333 10.25 4 13.2333 4 16.9167V28.5833C4 32.2667 6.98333 35.25 10.6667 35.25H27.3333C30.7 35.25 33.4833 32.75 33.9333 29.5167C34 29.05 33.6167 28.6667 33.15 28.6667H32.4C29.2333 28.6667 26.5667 26.3 26.3 23.2667ZM22.3333 19.8333H12.3333C11.65 19.8333 11.0833 19.2833 11.0833 18.5833C11.0833 17.8833 11.65 17.3333 12.3333 17.3333H22.3333C23.0167 17.3333 23.5833 17.9 23.5833 18.5833C23.5833 19.2667 23.0167 19.8333 22.3333 19.8333Z" fill="white"/>
<path d="M24.35 6.63333C24.7833 7.08333 24.4 7.75 23.7667 7.75H10.7167C8.90001 7.75 7.20001 8.28333 5.78334 9.2C5.13334 9.61667 4.25001 9.16667 4.56667 8.45C5.50001 6.26667 7.68334 4.75 10.2 4.75H19.5667C21.5 4.75 23.2167 5.43333 24.35 6.63333Z" fill="white"/>
</svg>
