<svg width="141" height="41" viewBox="0 0 141 41" fill="none" xmlns="http://www.w3.org/2000/svg">
<rect width="141" height="41" rx="8" fill="#483D85"/>
<path d="M34.1294 20.3492C34.1011 17.2665 36.7014 15.7668 36.8203 15.697C35.3477 13.5899 33.0651 13.302 32.263 13.279C30.3459 13.081 28.4864 14.4048 27.5098 14.4048C26.5138 14.4048 25.0099 13.2981 23.3892 13.3307C21.3035 13.3622 19.3523 14.5473 18.2822 16.3875C16.0737 20.1398 17.7208 25.6538 19.8367 28.6868C20.8951 30.1722 22.1319 31.8307 23.7507 31.7723C25.3345 31.7083 25.9261 30.7814 27.8373 30.7814C29.731 30.7814 30.2865 31.7723 31.9375 31.735C33.6372 31.7083 34.7073 30.2429 35.7287 28.7442C36.9519 27.0416 37.4431 25.365 37.4626 25.2789C37.4226 25.2655 34.1616 24.0441 34.1294 20.3492Z" fill="white"/>
<path d="M31.0106 11.2838C31.8624 10.2384 32.4453 8.81612 32.2835 7.3728C31.0506 7.42637 29.5088 8.20971 28.6209 9.23218C27.8353 10.1332 27.1336 11.61 27.3149 12.9988C28.6998 13.1001 30.1218 12.313 31.0106 11.2838Z" fill="white"/>
<path d="M56.995 31.5591H54.7816L53.5692 27.8203H49.355L48.2 31.5591H46.0452L50.2204 18.8304H52.7992L56.995 31.5591ZM53.2037 26.2517L52.1073 22.9279C51.9913 22.5884 51.7739 21.7888 51.4533 20.5301H51.4143C51.2866 21.0714 51.081 21.871 50.7984 22.9279L49.7214 26.2517H53.2037Z" fill="white"/>
<path d="M67.7323 26.8571C67.7323 28.4181 67.3025 29.6519 66.4429 30.5577C65.6729 31.364 64.7168 31.7667 63.5755 31.7667C62.3436 31.7667 61.4587 31.3325 60.9197 30.464H60.8807V35.2989H58.8029V25.4023C58.8029 24.421 58.7765 23.4138 58.7259 22.3809H60.5533L60.6692 23.8356H60.7082C61.4012 22.7395 62.4528 22.1924 63.864 22.1924C64.9673 22.1924 65.8883 22.62 66.6251 23.476C67.3639 24.333 67.7323 25.4597 67.7323 26.8571ZM65.6154 26.9317C65.6154 26.0384 65.4107 25.3019 64.9995 24.7223C64.5502 24.1178 63.9469 23.8156 63.1906 23.8156C62.6779 23.8156 62.2121 23.9839 61.7959 24.3158C61.3788 24.6506 61.1059 25.0877 60.9782 25.629C60.9139 25.8815 60.8817 26.0881 60.8817 26.2507V27.7811C60.8817 28.4487 61.0903 29.0121 61.5074 29.4721C61.9245 29.9322 62.4664 30.1617 63.1331 30.1617C63.9157 30.1617 64.5248 29.8652 64.9605 29.2741C65.3971 28.6821 65.6154 27.9016 65.6154 26.9317Z" fill="white"/>
<path d="M78.4891 26.8571C78.4891 28.4181 78.0593 29.6519 77.1987 30.5577C76.4297 31.364 75.4736 31.7667 74.3324 31.7667C73.1005 31.7667 72.2155 31.3325 71.6775 30.464H71.6385V35.2989H69.5607V25.4023C69.5607 24.421 69.5343 23.4138 69.4837 22.3809H71.3111L71.427 23.8356H71.466C72.158 22.7395 73.2096 22.1924 74.6218 22.1924C75.7241 22.1924 76.6451 22.62 77.3839 23.476C78.1197 24.333 78.4891 25.4597 78.4891 26.8571ZM76.3722 26.9317C76.3722 26.0384 76.1666 25.3019 75.7553 24.7223C75.306 24.1178 74.7047 23.8156 73.9474 23.8156C73.4338 23.8156 72.9689 23.9839 72.5518 24.3158C72.1346 24.6506 71.8627 25.0877 71.735 25.629C71.6717 25.8815 71.6385 26.0881 71.6385 26.2507V27.7811C71.6385 28.4487 71.8471 29.0121 72.2623 29.4721C72.6794 29.9312 73.2213 30.1617 73.8899 30.1617C74.6725 30.1617 75.2816 29.8652 75.7173 29.2741C76.1539 28.6821 76.3722 27.9016 76.3722 26.9317Z" fill="white"/>
<path d="M90.5158 27.9896C90.5158 29.0723 90.1328 29.9532 89.3638 30.6333C88.5189 31.3764 87.3425 31.7476 85.8309 31.7476C84.4352 31.7476 83.3164 31.4836 82.4694 30.9546L82.9509 29.255C83.8631 29.7964 84.864 30.068 85.9546 30.068C86.7373 30.068 87.3464 29.8939 87.784 29.5477C88.2196 29.2014 88.437 28.7366 88.437 28.157C88.437 27.6405 88.2576 27.2053 87.898 26.8523C87.5403 26.4994 86.9429 26.1713 86.1086 25.8681C83.8378 25.037 82.7033 23.8194 82.7033 22.2182C82.7033 21.1719 83.101 20.3139 83.8972 19.6463C84.6906 18.9777 85.749 18.6439 87.0725 18.6439C88.2528 18.6439 89.2332 18.8457 90.0159 19.2484L89.4964 20.9108C88.7654 20.5205 87.9389 20.3254 87.014 20.3254C86.2831 20.3254 85.712 20.5023 85.3026 20.8543C84.9566 21.169 84.7831 21.5525 84.7831 22.0069C84.7831 22.51 84.981 22.926 85.3786 23.2531C85.7246 23.5554 86.3533 23.8825 87.2655 24.2354C88.3814 24.6764 89.2011 25.1919 89.7283 25.783C90.2537 26.3722 90.5158 27.1096 90.5158 27.9896Z" fill="white"/>
<path d="M97.3859 23.9112H95.0955V28.3674C95.0955 29.5008 95.499 30.067 96.308 30.067C96.6793 30.067 96.9873 30.0355 97.2309 29.9723L97.2884 31.5209C96.8791 31.671 96.3401 31.7466 95.6725 31.7466C94.8519 31.7466 94.2106 31.5008 93.7477 31.0101C93.2867 30.5185 93.0547 29.694 93.0547 28.5357V23.9093H91.6902V22.3789H93.0547V20.6984L95.0955 20.0939V22.3789H97.3859V23.9112Z" fill="white"/>
<path d="M107.72 26.8944C107.72 28.3052 107.308 29.4635 106.488 30.3693C105.627 31.3018 104.485 31.7667 103.061 31.7667C101.689 31.7667 100.596 31.32 99.7815 30.4267C98.9667 29.5333 98.5593 28.4056 98.5593 27.0465C98.5593 25.6242 98.9784 24.4593 99.8195 23.5535C100.659 22.6467 101.791 22.1934 103.215 22.1934C104.587 22.1934 105.692 22.64 106.525 23.5343C107.322 24.4019 107.72 25.5219 107.72 26.8944ZM105.564 26.9604C105.564 26.1139 105.38 25.388 105.006 24.7825C104.571 24.0499 103.948 23.6845 103.141 23.6845C102.306 23.6845 101.671 24.0508 101.236 24.7825C100.862 25.3889 100.678 26.1264 100.678 26.9987C100.678 27.8452 100.862 28.5711 101.236 29.1756C101.685 29.9083 102.313 30.2736 103.122 30.2736C103.916 30.2736 104.539 29.9006 104.988 29.1565C105.371 28.5396 105.564 27.8059 105.564 26.9604Z" fill="white"/>
<path d="M114.474 24.1742C114.268 24.1369 114.049 24.1178 113.819 24.1178C113.088 24.1178 112.523 24.3885 112.125 24.9308C111.779 25.409 111.606 26.0135 111.606 26.7433V31.5591H109.529L109.548 25.2713C109.548 24.2135 109.522 23.2503 109.47 22.3818H111.28L111.356 24.1379H111.414C111.633 23.5344 111.979 23.0485 112.452 22.6841C112.915 22.356 113.415 22.1924 113.954 22.1924C114.146 22.1924 114.32 22.2058 114.474 22.2297V24.1742Z" fill="white"/>
<path d="M123.767 26.5357C123.767 26.9011 123.742 27.2091 123.691 27.4607H117.457C117.481 28.3674 117.783 29.0608 118.362 29.5391C118.887 29.9666 119.566 30.1809 120.4 30.1809C121.323 30.1809 122.165 30.0364 122.923 29.7466L123.248 31.1622C122.363 31.541 121.319 31.7294 120.113 31.7294C118.663 31.7294 117.524 31.3104 116.696 30.4735C115.869 29.6366 115.455 28.5128 115.455 27.1029C115.455 25.7189 115.84 24.5664 116.611 23.6472C117.418 22.6659 118.509 22.1752 119.881 22.1752C121.229 22.1752 122.249 22.6659 122.942 23.6472C123.491 24.4267 123.767 25.3909 123.767 26.5357ZM121.785 26.0068C121.799 25.4023 121.664 24.8801 121.382 24.4392C121.022 23.872 120.47 23.5889 119.726 23.5889C119.047 23.5889 118.494 23.8653 118.072 24.42C117.726 24.861 117.52 25.3899 117.457 26.0059H121.785V26.0068Z" fill="white"/>
<path d="M52.5166 10.9999C52.5166 12.1257 52.1726 12.9731 51.4855 13.5422C50.8491 14.0673 49.9446 14.3303 48.7731 14.3303C48.1923 14.3303 47.6952 14.3055 47.2791 14.2557V8.10467C47.8219 8.01858 48.4067 7.97459 49.0382 7.97459C50.1542 7.97459 50.9953 8.21275 51.5625 8.68907C52.1979 9.22756 52.5166 9.99752 52.5166 10.9999ZM51.4397 11.0276C51.4397 10.2979 51.2428 9.73832 50.8491 9.34808C50.4553 8.95879 49.8803 8.76367 49.123 8.76367C48.8014 8.76367 48.5275 8.78472 48.3004 8.82871V13.5049C48.4262 13.524 48.6562 13.5326 48.9905 13.5326C49.7721 13.5326 50.3754 13.3193 50.8003 12.8928C51.2253 12.4662 51.4397 11.8445 51.4397 11.0276Z" fill="white"/>
<path d="M58.2269 11.9831C58.2269 12.6766 58.0252 13.2447 57.6217 13.6904C57.1987 14.1486 56.6383 14.3772 55.9385 14.3772C55.2641 14.3772 54.7271 14.1582 54.3265 13.7182C53.9269 13.2792 53.7271 12.7254 53.7271 12.0578C53.7271 11.3595 53.9327 10.7866 54.346 10.3418C54.7592 9.89709 55.3147 9.67423 56.0145 9.67423C56.689 9.67423 57.2308 9.89326 57.6412 10.3323C58.031 10.7589 58.2269 11.3098 58.2269 11.9831ZM57.1675 12.0157C57.1675 11.5996 57.0759 11.2428 56.8936 10.9454C56.6792 10.5857 56.3742 10.4059 55.9775 10.4059C55.5672 10.4059 55.2553 10.5857 55.0409 10.9454C54.8577 11.2428 54.767 11.6053 54.767 12.0338C54.767 12.4499 54.8586 12.8067 55.0409 13.1041C55.2621 13.4638 55.5701 13.6436 55.9677 13.6436C56.3576 13.6436 56.6636 13.4609 56.8839 13.0946C57.073 12.7914 57.1675 12.4317 57.1675 12.0157Z" fill="white"/>
<path d="M65.8835 9.76605L64.4459 14.2748H63.5103L62.9148 12.317C62.7637 11.8282 62.6409 11.3423 62.5454 10.8603H62.5269C62.4382 11.3557 62.3154 11.8406 62.1575 12.317L61.525 14.2748H60.5786L59.2268 9.76605H60.2765L60.796 11.9095C60.9217 12.4164 61.025 12.8994 61.1079 13.3566H61.1264C61.2024 12.9798 61.3281 12.4996 61.5055 11.9191L62.1575 9.76701H62.9898L63.6146 11.8732C63.7656 12.3868 63.8884 12.8813 63.983 13.3576H64.0112C64.0804 12.8937 64.1847 12.3992 64.3231 11.8732L64.8806 9.76701H65.8835V9.76605Z" fill="white"/>
<path d="M71.1785 14.2749H70.1571V11.6924C70.1571 10.8966 69.8492 10.4987 69.2313 10.4987C68.9282 10.4987 68.6835 10.6078 68.4935 10.8268C68.3054 11.0458 68.2099 11.3041 68.2099 11.5996V14.2739H67.1885V11.0544C67.1885 10.6584 67.1758 10.229 67.1514 9.76414H68.0491L68.0968 10.4691H68.1251C68.244 10.25 68.4214 10.0693 68.6543 9.92483C68.9311 9.75649 69.241 9.67137 69.5802 9.67137C70.009 9.67137 70.3657 9.80719 70.6493 10.0798C71.0021 10.4136 71.1785 10.9119 71.1785 11.5738V14.2749Z" fill="white"/>
<path d="M73.9952 14.2748H72.9748V7.6972H73.9952V14.2748Z" fill="white"/>
<path d="M80.0086 11.9831C80.0086 12.6766 79.8068 13.2447 79.4033 13.6904C78.9803 14.1486 78.419 14.3772 77.7202 14.3772C77.0448 14.3772 76.5077 14.1582 76.1081 13.7182C75.7085 13.2792 75.5088 12.7254 75.5088 12.0578C75.5088 11.3595 75.7144 10.7866 76.1276 10.3418C76.5409 9.89709 77.0964 9.67423 77.7952 9.67423C78.4706 9.67423 79.0115 9.89326 79.4228 10.3323C79.8126 10.7589 80.0086 11.3098 80.0086 11.9831ZM78.9482 12.0157C78.9482 11.5996 78.8566 11.2428 78.6743 10.9454C78.4609 10.5857 78.1548 10.4059 77.7591 10.4059C77.3479 10.4059 77.036 10.5857 76.8225 10.9454C76.6393 11.2428 76.5487 11.6053 76.5487 12.0338C76.5487 12.4499 76.6403 12.8067 76.8225 13.1041C77.0438 13.4638 77.3518 13.6436 77.7494 13.6436C78.1392 13.6436 78.4443 13.4609 78.6646 13.0946C78.8546 12.7914 78.9482 12.4317 78.9482 12.0157Z" fill="white"/>
<path d="M84.9518 14.2748H84.0347L83.9587 13.7555H83.9304C83.6166 14.1696 83.1692 14.3772 82.5884 14.3772C82.1546 14.3772 81.8038 14.2404 81.5397 13.9688C81.2999 13.722 81.18 13.415 81.18 13.0506C81.18 12.4996 81.4139 12.0798 81.8847 11.789C82.3544 11.4982 83.0152 11.3557 83.8661 11.3624V11.2782C83.8661 10.6843 83.5483 10.3878 82.9119 10.3878C82.4587 10.3878 82.0591 10.4997 81.7141 10.7216L81.5065 10.0635C81.9334 9.80431 82.4607 9.67423 83.0825 9.67423C84.2832 9.67423 84.8855 10.2959 84.8855 11.5393V13.1998C84.8855 13.6503 84.9079 14.009 84.9518 14.2748ZM83.8914 12.7254V12.03C82.7648 12.0109 82.2014 12.3141 82.2014 12.9387C82.2014 13.174 82.2658 13.3499 82.3973 13.4676C82.5289 13.5852 82.6965 13.6436 82.8963 13.6436C83.1205 13.6436 83.33 13.5738 83.5211 13.4351C83.7131 13.2954 83.831 13.1185 83.8748 12.9014C83.8856 12.8526 83.8914 12.7933 83.8914 12.7254Z" fill="white"/>
<path d="M90.7556 14.2748H89.8492L89.8015 13.5508H89.7732C89.4837 14.1017 88.9906 14.3772 88.2976 14.3772C87.7441 14.3772 87.2831 14.1639 86.9176 13.7373C86.5521 13.3107 86.3699 12.7569 86.3699 12.0769C86.3699 11.3471 86.5677 10.756 86.9654 10.3045C87.3503 9.88369 87.822 9.67327 88.3834 9.67327C89.0003 9.67327 89.4321 9.877 89.6777 10.2854H89.6972V7.6972H90.7196V13.0601C90.7196 13.4991 90.7313 13.9037 90.7556 14.2748ZM89.6972 12.3734V11.6216C89.6972 11.4915 89.6874 11.3863 89.6689 11.306C89.6114 11.0649 89.4876 10.8622 89.2995 10.6986C89.1095 10.5351 88.8805 10.4528 88.6163 10.4528C88.2353 10.4528 87.937 10.601 87.7177 10.8985C87.5004 11.196 87.3903 11.5757 87.3903 12.0396C87.3903 12.4853 87.4946 12.8468 87.7041 13.1252C87.9253 13.4217 88.2236 13.5699 88.5968 13.5699C88.9321 13.5699 89.2001 13.4465 89.4038 13.1988C89.6007 12.9702 89.6972 12.6948 89.6972 12.3734Z" fill="white"/>
<path d="M99.4911 11.9831C99.4911 12.6766 99.2893 13.2447 98.8858 13.6904C98.4629 14.1486 97.9034 14.3772 97.2027 14.3772C96.5292 14.3772 95.9922 14.1582 95.5907 13.7182C95.1911 13.2792 94.9913 12.7254 94.9913 12.0578C94.9913 11.3595 95.1969 10.7866 95.6102 10.3418C96.0234 9.89709 96.5789 9.67423 97.2797 9.67423C97.9531 9.67423 98.496 9.89326 98.9053 10.3323C99.2952 10.7589 99.4911 11.3098 99.4911 11.9831ZM98.4327 12.0157C98.4327 11.5996 98.341 11.2428 98.1588 10.9454C97.9434 10.5857 97.6393 10.4059 97.2417 10.4059C96.8323 10.4059 96.5205 10.5857 96.3051 10.9454C96.1218 11.2428 96.0312 11.6053 96.0312 12.0338C96.0312 12.4499 96.1228 12.8067 96.3051 13.1041C96.5263 13.4638 96.8343 13.6436 97.2319 13.6436C97.6218 13.6436 97.9288 13.4609 98.149 13.0946C98.3371 12.7914 98.4327 12.4317 98.4327 12.0157Z" fill="white"/>
<path d="M104.983 14.2749H103.963V11.6924C103.963 10.8966 103.655 10.4987 103.036 10.4987C102.733 10.4987 102.488 10.6078 102.299 10.8268C102.11 11.0458 102.015 11.3041 102.015 11.5996V14.2739H100.993V11.0544C100.993 10.6584 100.981 10.229 100.957 9.76414H101.854L101.901 10.4691H101.93C102.049 10.25 102.227 10.0693 102.459 9.92483C102.737 9.75649 103.046 9.67137 103.386 9.67137C103.813 9.67137 104.17 9.80719 104.454 10.0798C104.808 10.4136 104.983 10.9119 104.983 11.5738V14.2749Z" fill="white"/>
<path d="M111.857 10.5169H110.732V12.7072C110.732 13.2639 110.932 13.5422 111.328 13.5422C111.511 13.5422 111.663 13.5269 111.783 13.4953L111.809 14.2557C111.607 14.3303 111.342 14.3676 111.016 14.3676C110.612 14.3676 110.299 14.2471 110.071 14.0061C109.843 13.7651 109.73 13.3595 109.73 12.7904V10.5169H109.059V9.76606H109.73V8.93967L110.731 8.64316V9.7651H111.856V10.5169H111.857Z" fill="white"/>
<path d="M117.264 14.2748H116.242V11.7115C116.242 10.9033 115.934 10.4987 115.317 10.4987C114.843 10.4987 114.52 10.733 114.342 11.2017C114.312 11.3002 114.294 11.4207 114.294 11.5623V14.2739H113.274V7.6972H114.294V10.4145H114.314C114.636 9.92004 115.097 9.67327 115.694 9.67327C116.117 9.67327 116.467 9.80909 116.745 10.0817C117.091 10.4212 117.264 10.9262 117.264 11.5939V14.2748Z" fill="white"/>
<path d="M122.842 11.8072C122.842 11.987 122.828 12.1381 122.804 12.2615H119.741C119.754 12.7072 119.9 13.0467 120.184 13.282C120.443 13.4925 120.778 13.5977 121.187 13.5977C121.64 13.5977 122.053 13.5269 122.426 13.3844L122.586 14.0807C122.15 14.2662 121.637 14.359 121.044 14.359C120.332 14.359 119.772 14.1534 119.366 13.7421C118.959 13.3308 118.757 12.7789 118.757 12.0864C118.757 11.4064 118.945 10.8402 119.324 10.3887C119.72 9.90665 120.255 9.66562 120.931 9.66562C121.591 9.66562 122.093 9.90665 122.433 10.3887C122.706 10.7713 122.842 11.2447 122.842 11.8072ZM121.867 11.5479C121.875 11.2505 121.808 10.9942 121.669 10.778C121.492 10.4997 121.222 10.36 120.857 10.36C120.523 10.36 120.251 10.4958 120.044 10.7684C119.874 10.9855 119.774 11.2447 119.741 11.5479H121.867Z" fill="white"/>
</svg>
