<svg width="136" height="28" viewBox="0 0 136 28" fill="none" xmlns="http://www.w3.org/2000/svg">
<g clip-path="url(#clip0_323_40287)">
<path d="M47.142 14.5355V26.6995C47.1421 26.7936 47.1238 26.8867 47.0878 26.9738C47.052 27.0607 46.9992 27.1396 46.9327 27.2062C46.8661 27.2728 46.7872 27.3256 46.7002 27.3614C46.6132 27.3973 46.52 27.4157 46.4259 27.4155H41.1702C41.0761 27.4155 40.983 27.397 40.8961 27.361C40.8092 27.3251 40.7303 27.2723 40.6639 27.2057C40.5973 27.1393 40.5445 27.0604 40.5086 26.9735C40.4726 26.8866 40.4541 26.7936 40.4541 26.6995V7.48809C40.4541 7.39405 40.4726 7.30093 40.5086 7.21405C40.5445 7.12718 40.5973 7.04824 40.6639 6.98175C40.7303 6.91526 40.8092 6.86251 40.8961 6.82652C40.983 6.79055 41.0761 6.77202 41.1702 6.77202H46.4259C46.52 6.77182 46.6132 6.7902 46.7002 6.82612C46.7872 6.86203 46.8661 6.91478 46.9327 6.9813C46.9992 7.04783 47.052 7.12686 47.0878 7.21382C47.1238 7.30079 47.1421 7.39399 47.142 7.48809V9.00131C48.4639 7.34426 50.3168 6.3176 52.9179 6.3176C55.3522 6.3176 57.4576 7.30754 58.7321 9.16656C60.3004 7.30754 62.5297 6.3176 65.2548 6.3176C69.8786 6.3176 73.058 9.04262 73.058 14.2433V26.6964C73.0582 26.7905 73.0398 26.8837 73.0039 26.9707C72.9681 27.0576 72.9153 27.1366 72.8487 27.2031C72.7822 27.2697 72.7032 27.3225 72.6163 27.3583C72.5293 27.3942 72.4361 27.4126 72.342 27.4125H67.0954C66.9055 27.4125 66.7233 27.337 66.5891 27.2027C66.4548 27.0685 66.3793 26.8863 66.3793 26.6964V15.6479C66.3793 13.3773 65.1002 12.2619 63.3667 12.2619C61.9208 12.2619 60.7656 13.1707 60.1046 14.5325V26.6964C60.1047 26.7905 60.0864 26.8837 60.0504 26.9707C60.0146 27.0576 59.9618 27.1366 59.8953 27.2031C59.8287 27.2697 59.7498 27.3225 59.6629 27.3583C59.5758 27.3942 59.4826 27.4126 59.3885 27.4125H54.1328C53.9429 27.4125 53.7607 27.337 53.6265 27.2027C53.4922 27.0685 53.4167 26.8863 53.4167 26.6964V15.6479C53.4167 13.3773 52.1376 12.2619 50.404 12.2619C48.9168 12.2619 47.803 13.1707 47.142 14.5355ZM81.8559 27.8256C77.9756 27.8256 74.7136 25.2658 74.7136 21.3029C74.7136 17.6706 77.1081 15.9768 81.5667 14.8216L87.2646 13.336C87.0993 11.9727 86.0252 11.3132 84.2917 11.3132C82.7616 11.3132 81.6508 11.9008 81.1413 13.0758C81.0769 13.2362 80.9574 13.3683 80.8042 13.4486C80.6511 13.5287 80.4745 13.5518 80.3059 13.5134L75.7892 12.4424C75.6906 12.4189 75.5982 12.3749 75.5179 12.3132C75.4376 12.2515 75.3712 12.1736 75.3231 12.0844C75.2751 11.9953 75.2463 11.897 75.2388 11.796C75.2313 11.695 75.2452 11.5936 75.2797 11.4984C76.5756 7.99148 80.1758 6.15388 84.535 6.15388C90.3966 6.15388 93.7826 8.92022 93.7826 13.7904V26.6979C93.7826 26.8878 93.7072 27.07 93.5729 27.2042C93.4387 27.3386 93.2564 27.414 93.0666 27.414H88.0878C87.9008 27.414 87.7212 27.3408 87.5873 27.2102C87.4536 27.0795 87.3761 26.9017 87.3717 26.7148L87.3472 25.6437L87.3059 25.685C85.6121 27.1233 83.9612 27.8256 81.8559 27.8256ZM83.5481 22.6647C84.4156 22.6647 85.0781 22.4184 86.0666 21.84L87.2233 21.1377L87.2646 17.7945L84.2917 18.6192C82.269 19.1976 81.3601 19.6903 81.3601 20.8485C81.3601 22.1292 82.4755 22.6647 83.5481 22.6647ZM104.464 17.6706L102.441 19.5281V26.6964C102.441 26.7905 102.423 26.8837 102.387 26.9707C102.351 27.0576 102.298 27.1366 102.232 27.2031C102.165 27.2697 102.086 27.3225 101.999 27.3583C101.912 27.3942 101.819 27.4126 101.725 27.4125H96.5933C96.4035 27.4125 96.2212 27.337 96.087 27.2027C95.9527 27.0685 95.8773 26.8863 95.8773 26.6964V0.716065C95.8777 0.526278 95.9533 0.344379 96.0875 0.210177C96.2217 0.0759764 96.4036 0.000404236 96.5933 0H101.727C101.917 0 102.099 0.0754424 102.233 0.209731C102.367 0.344019 102.443 0.526154 102.443 0.716065V12.4684L108.43 6.96022C108.563 6.8387 108.737 6.77155 108.918 6.77202H115.254C115.398 6.77207 115.539 6.8158 115.659 6.89747C115.778 6.97914 115.869 7.09494 115.921 7.22966C115.974 7.36438 115.984 7.51171 115.951 7.65232C115.917 7.79292 115.843 7.92022 115.736 8.01749L109.583 13.6251L116.594 26.3506C116.654 26.4597 116.685 26.5826 116.683 26.7069C116.681 26.8315 116.647 26.9534 116.584 27.0605C116.52 27.1678 116.43 27.2567 116.322 27.3184C116.214 27.38 116.091 27.4125 115.967 27.4125H109.977C109.846 27.4123 109.717 27.3762 109.606 27.3083C109.494 27.2403 109.402 27.143 109.342 27.0269L104.464 17.6706Z" fill="black"/>
<path d="M126.241 27.8668C120.504 27.8668 115.26 24.2757 115.26 17.0034C115.26 10.1503 120.297 6.1875 125.828 6.1875C131.567 6.1875 135.737 10.1917 135.902 16.5077C135.92 17.1748 135.931 17.6399 135.937 17.9704C135.939 18.0653 135.921 18.1595 135.886 18.2475C135.85 18.3356 135.798 18.4156 135.731 18.4833C135.665 18.5507 135.585 18.6043 135.498 18.6407C135.41 18.6773 135.316 18.6959 135.221 18.6956H121.865C122.072 21.1728 124.053 22.7411 126.572 22.7411C128.363 22.7411 129.832 21.996 130.856 20.6495C130.966 20.5066 131.127 20.4111 131.305 20.3827C131.483 20.3544 131.666 20.3951 131.815 20.4965L135.152 22.7304C135.231 22.7841 135.299 22.8526 135.351 22.9325C135.403 23.0122 135.439 23.1014 135.457 23.1952C135.474 23.2889 135.473 23.3851 135.454 23.4784C135.434 23.5718 135.396 23.6602 135.342 23.7387C133.563 26.3704 130.614 27.8668 126.241 27.8668ZM121.989 14.6564H129.214C129.173 12.3031 127.439 11.2719 125.623 11.2719C123.929 11.2719 122.196 12.2618 121.989 14.6564Z" fill="black"/>
<path d="M29.9505 27.3527H24.7651C24.5753 27.3527 24.393 27.2773 24.2588 27.143C24.1245 27.0086 24.0491 26.8265 24.0491 26.6367V7.49719C24.0503 7.30792 24.1262 7.12681 24.2604 6.99326C24.3944 6.85972 24.5759 6.78458 24.7651 6.78418H29.949C30.1385 6.78377 30.3206 6.8586 30.4553 6.99228C30.5897 7.12595 30.6658 7.30754 30.6666 7.49719V26.6367C30.6667 26.7308 30.6484 26.8239 30.6124 26.9108C30.5766 26.9979 30.5238 27.0769 30.4572 27.1434C30.3907 27.21 30.3117 27.2628 30.2248 27.2986C30.1378 27.3345 30.0446 27.3529 29.9505 27.3527Z" fill="url(#paint0_linear_323_40287)"/>
<path d="M5.91788 27.4248L1.28641 25.093C1.11685 25.0078 0.988081 24.8586 0.928405 24.6784C0.868729 24.4983 0.883026 24.3018 0.968155 24.1321L9.56094 7.03836C9.64622 6.8688 9.79534 6.74003 9.9755 6.68036C10.1557 6.62069 10.3522 6.63498 10.5218 6.72011L15.1548 9.04732C15.3244 9.13261 15.4531 9.28171 15.5128 9.46189C15.5725 9.64205 15.5582 9.83856 15.4731 10.0082L6.87875 27.1066C6.79348 27.2761 6.64436 27.4049 6.46418 27.4646C6.28402 27.5243 6.08751 27.5099 5.91788 27.4248Z" fill="url(#paint1_linear_323_40287)"/>
<path d="M19.598 27.0392L23.2701 8.40163C23.3067 8.21604 23.2683 8.02353 23.1633 7.86615C23.0583 7.70877 22.8954 7.5993 22.7101 7.56163L17.6288 6.53496C17.5364 6.51646 17.4412 6.51634 17.3488 6.53462C17.2562 6.55291 17.1682 6.58923 17.0899 6.64151C17.0114 6.69381 16.9441 6.76104 16.8916 6.83936C16.8391 6.91769 16.8027 7.00559 16.7842 7.09802L13.1121 25.7371C13.0756 25.923 13.1142 26.1156 13.2194 26.2731C13.3246 26.4305 13.4879 26.5399 13.6736 26.5771L18.7534 27.6022C18.8458 27.6212 18.9411 27.6217 19.0337 27.6036C19.1264 27.5854 19.2145 27.5491 19.293 27.4968C19.3715 27.4445 19.439 27.377 19.4913 27.2985C19.5436 27.22 19.5799 27.1319 19.598 27.0392Z" fill="url(#paint2_linear_323_40287)"/>
</g>
<defs>
<linearGradient id="paint0_linear_323_40287" x1="17.7605" y1="20.6082" x2="31.7498" y2="15.4504" gradientUnits="userSpaceOnUse">
<stop offset="0.02" stop-color="#B02DE9"/>
<stop offset="0.8" stop-color="#6D00CC"/>
</linearGradient>
<linearGradient id="paint1_linear_323_40287" x1="5.48181" y1="18.2552" x2="20.5207" y2="11.7525" gradientUnits="userSpaceOnUse">
<stop stop-color="#FF00FF"/>
<stop offset="0.18" stop-color="#E80DF9"/>
<stop offset="0.54" stop-color="#C024ED"/>
<stop offset="0.73" stop-color="#B02DE9"/>
</linearGradient>
<linearGradient id="paint2_linear_323_40287" x1="1.97326" y1="23.0411" x2="32.8008" y2="11.6912" gradientUnits="userSpaceOnUse">
<stop offset="0.02" stop-color="#FF00FF"/>
<stop offset="0.09" stop-color="#E80DF9"/>
<stop offset="0.23" stop-color="#C024ED"/>
<stop offset="0.3" stop-color="#B02DE9"/>
<stop offset="0.42" stop-color="#A42BE3"/>
<stop offset="0.63" stop-color="#8527D5"/>
<stop offset="0.85" stop-color="#6021C3"/>
</linearGradient>
<clipPath id="clip0_323_40287">
<rect width="135.257" height="28" fill="white" transform="translate(0.743164)"/>
</clipPath>
</defs>
</svg>
