<svg width="147" height="28" viewBox="0 0 147 28" fill="none" xmlns="http://www.w3.org/2000/svg">
<g clip-path="url(#clip0_323_40244)">
<path fill-rule="evenodd" clip-rule="evenodd" d="M131.122 21.4991L136.533 14.2185L131.542 7.33936H135.817L138.707 11.6314L141.624 7.33936H145.874L140.808 14.1939L146.145 21.4991H141.945L138.658 16.8794L135.471 21.4991H131.122Z" fill="black"/>
<path fill-rule="evenodd" clip-rule="evenodd" d="M117.515 14.7022C117.515 19.3755 120.067 21.8599 124.589 21.8599C128.82 21.8599 131.688 19.3755 131.688 14.7022V14.3086C131.688 9.58603 128.771 6.97876 124.589 6.97876C120.505 6.97876 117.515 9.53684 117.515 14.3086V14.7022ZM128.003 14.7032C128.003 17.2958 126.711 18.7033 124.589 18.7033C122.492 18.7033 121.199 17.2712 121.199 14.7032V14.3576C121.199 11.5922 122.565 10.1354 124.613 10.1354C126.686 10.1354 128.003 11.691 128.003 14.3576V14.7032Z" fill="black"/>
<path fill-rule="evenodd" clip-rule="evenodd" d="M105.151 18.9094C105.918 20.7288 107.452 21.8598 109.802 21.8598C113.438 21.8598 115.813 19.2044 115.813 14.4838V14.0658C115.813 9.3452 113.29 7.00948 109.901 6.98489C107.65 6.98489 106.067 7.99294 105.275 9.83693V2.55933H101.639V21.491H104.855L105.151 18.9094ZM112.127 14.5176C112.127 17.3243 110.831 18.7032 108.701 18.7032C106.67 18.7032 105.324 17.1766 105.324 14.5176V14.2222C105.324 11.7848 106.719 10.1352 108.75 10.1352C110.708 10.1352 112.127 11.5632 112.127 14.173V14.5176Z" fill="black"/>
<path fill-rule="evenodd" clip-rule="evenodd" d="M85.4805 7.35619V26.3694H89.1104V19.249C89.8759 20.9032 91.3823 21.9153 93.6541 21.9153C97.0124 21.9153 99.6546 19.4712 99.6546 14.7804V14.3854C99.6546 9.59576 97.284 6.97876 93.6541 6.97876C91.3082 6.97876 89.7277 8.18851 88.9623 10.0155L88.5918 7.35619H85.4805ZM95.9694 14.6901C95.9694 17.2999 94.6233 18.7033 92.5186 18.7033C90.4873 18.7033 89.1657 17.1276 89.1657 14.6163V14.3454C89.1657 11.711 90.5363 10.1354 92.592 10.1354C94.5254 10.1354 95.9694 11.5388 95.9694 14.37V14.6901Z" fill="black"/>
<path fill-rule="evenodd" clip-rule="evenodd" d="M69.3218 14.7022C69.3218 19.3755 71.8989 21.8599 76.421 21.8599C80.6514 21.8599 83.4958 19.3755 83.4958 14.7022V14.3086C83.4958 9.58603 80.6026 6.97876 76.421 6.97876C72.3365 6.97876 69.3218 9.53684 69.3218 14.3086V14.7022ZM79.8106 14.7032C79.8106 17.2958 78.4938 18.7033 76.3966 18.7033C74.2995 18.7033 73.007 17.2712 73.007 14.7032V14.3576C73.007 11.5922 74.3726 10.1354 76.421 10.1354C78.4938 10.1354 79.8106 11.691 79.8106 14.3576V14.7032Z" fill="black"/>
<path fill-rule="evenodd" clip-rule="evenodd" d="M59.3999 21.4992H63.1177V14.9944C63.1177 11.9884 63.8613 10.929 66.9347 10.929H68.4713V7.15918H67.5543C64.9023 7.15918 63.44 8.31722 62.8699 10.584L62.3989 7.33873H59.3999V21.4992Z" fill="black"/>
<path fill-rule="evenodd" clip-rule="evenodd" d="M42.958 4.0022V21.4988H49.7084C54.1055 21.4988 57.4158 18.9447 57.4158 13.2963V12.0929C57.4158 6.46898 53.9079 4.0022 49.6096 4.0022H42.958ZM46.6434 7.15881H49.4555C51.9953 7.15881 53.7304 8.76348 53.7304 12.2938V13.2073C53.7304 16.7375 52.0456 18.3422 49.5812 18.3422H46.6434V7.15881Z" fill="black"/>
<path d="M8.70293 0.358643L0.614014 5.50281L8.70293 10.647L16.7932 5.50281L24.8822 10.647L32.971 5.50281L24.8822 0.358643L16.7932 5.50281L8.70293 0.358643Z" fill="#0056FE"/>
<path d="M8.70293 20.9357L0.614014 15.7914L8.70293 10.6472L16.7932 15.7914L8.70293 20.9357Z" fill="#0056FE"/>
<path d="M16.7935 15.7914L24.8824 10.6472L32.9713 15.7914L24.8824 20.9357L16.7935 15.7914Z" fill="#0056FE"/>
<path d="M16.7931 27.7944L8.70288 22.6503L16.7931 17.5061L24.8821 22.6503L16.7931 27.7944Z" fill="#0056FE"/>
</g>
<defs>
<clipPath id="clip0_323_40244">
<rect width="146.72" height="28" fill="white" transform="translate(0.078125)"/>
</clipPath>
</defs>
</svg>
