<svg width="117" height="28" viewBox="0 0 117 28" fill="none" xmlns="http://www.w3.org/2000/svg">
<g clip-path="url(#clip0_323_40272)">
<path d="M69.6965 11.0342C71.4937 11.0342 73.1957 12.1337 73.5549 14.5093H65.5507C65.8857 12.4247 67.444 11.0342 69.6965 11.0342ZM73.2991 18.024C72.6878 18.9768 71.5062 19.7098 69.8885 19.7098C67.6595 19.7098 65.9575 18.4879 65.5507 16.3308H75.5926C75.641 16.0216 75.6659 15.7091 75.6659 15.3962C75.6659 12.0413 73.3203 9.06909 69.6979 9.06909C65.9597 9.06909 63.4192 11.8251 63.4192 15.3728C63.4192 18.9644 65.9846 21.6764 69.8416 21.6764C72.2385 21.6764 74.0599 20.5975 75.114 18.9644L73.2991 18.024Z" fill="#006BFF"/>
<path d="M62.4326 3.86865H60.348V21.3643H62.4326V3.86865Z" fill="#006BFF"/>
<path d="M87.2655 14.0065V21.3634H85.1801V14.1259C85.1801 12.1608 84.0543 11.0584 82.2086 11.0584C80.2911 11.0584 78.7335 12.185 78.7335 15.0129V21.3634H76.6482V9.38207H78.7335V11.1075C79.6204 9.69359 80.9383 9.07056 82.6183 9.07056C85.422 9.07056 87.2677 10.9397 87.2677 14.0079" fill="#006BFF"/>
<path d="M98.7623 15.3721C98.7623 12.9276 96.9166 11.082 94.4963 11.082C92.0995 11.082 90.2545 12.9276 90.2545 15.3721C90.2545 17.8166 92.0995 19.6623 94.4963 19.6623C96.9152 19.6623 98.7623 17.8166 98.7623 15.3721ZM100.847 3.86865V21.3643H98.7623V19.3024C97.8035 20.7683 96.2701 21.6758 94.2324 21.6758C90.901 21.6758 88.1692 18.919 88.1692 15.3721C88.1692 11.8252 90.901 9.06844 94.2324 9.06844C96.2694 9.06844 97.8035 9.97881 98.7623 11.4411V3.86865H100.847Z" fill="#006BFF"/>
<path d="M104.613 3.86865H102.528V21.3643H104.613V3.86865Z" fill="#006BFF"/>
<path d="M56.6318 15.372C56.6318 12.9275 54.7869 11.0819 52.3658 11.0819C49.9697 11.0819 48.124 12.9275 48.124 15.372C48.124 17.8165 49.9697 19.6622 52.3658 19.6622C54.7847 19.6622 56.6318 17.8165 56.6318 15.372ZM58.7171 9.38208V21.3634H56.6318V19.3023C55.673 20.7683 54.1396 21.6757 52.1027 21.6757C48.7713 21.6757 46.0387 18.9189 46.0387 15.372C46.0387 11.8251 48.7713 9.06836 52.1027 9.06836C54.1396 9.06836 55.673 9.97873 56.6318 11.441V9.38208H58.7171Z" fill="#006BFF"/>
<path d="M42.9463 19.0575C41.879 19.4513 40.7269 19.5576 39.6055 19.3658C38.4842 19.1739 37.433 18.6907 36.5573 17.9644C35.6817 17.2382 35.0123 16.2945 34.6163 15.228C34.2204 14.1615 34.1118 13.0096 34.3014 11.8878C34.4911 10.7662 34.9723 9.71404 35.6968 8.83695C36.4214 7.95979 37.3638 7.28862 38.4295 6.8906C39.4953 6.49259 40.6469 6.38175 41.769 6.5692C42.8911 6.75666 43.9442 7.23581 44.8227 7.95861C45.189 8.2609 45.5204 8.60313 45.8108 8.97893L47.6146 7.65955C46.5638 6.28572 45.1286 5.25482 43.4912 4.69751C41.8537 4.1402 40.0876 4.08159 38.4169 4.5291C36.746 4.9766 35.2457 5.91008 34.106 7.21122C32.9663 8.51238 32.2386 10.1226 32.015 11.8378C31.7915 13.553 32.0822 15.2959 32.8503 16.8457C33.6184 18.3955 34.8294 19.6823 36.3297 20.5431C37.83 21.404 39.552 21.7999 41.2776 21.681C43.0032 21.5619 44.6546 20.9333 46.0226 19.8747L44.822 17.9763C44.2611 18.4383 43.6272 18.8037 42.9463 19.0575Z" fill="#006BFF"/>
<path d="M114.677 9.38208V16.1827C114.677 18.3817 113.398 19.7743 111.445 19.7743C109.492 19.7743 108.079 18.3817 108.079 16.1827V9.38208H105.969V15.9789C105.969 19.4357 108.123 21.6801 111.445 21.6801C114.318 21.6801 114.767 19.8623 114.767 19.8168V22.2635C114.767 24.6875 113.712 26.0567 111.513 26.0567C110.727 26.0606 109.967 25.7787 109.373 25.2636C108.78 24.7485 108.394 24.0352 108.287 23.2567L106.401 23.9164C106.671 25.0698 107.324 26.0977 108.253 26.8328C109.182 27.5679 110.332 27.9669 111.516 27.9647C114.928 27.9647 116.794 25.7196 116.794 22.2635V9.38208H114.677Z" fill="#006BFF"/>
<path d="M17.8833 16.3624C17.0822 17.0734 16.0817 17.9581 14.2675 17.9581H13.1827C11.8699 17.9581 10.6759 17.4809 9.82124 16.616C8.98637 15.7709 8.52679 14.6142 8.52679 13.3586V11.8743C8.52679 10.6187 8.98637 9.46208 9.82124 8.61695C10.6759 7.75203 11.8699 7.27559 13.1827 7.27559H14.2675C16.0839 7.27559 17.0822 8.15957 17.8833 8.87057C18.7153 9.60355 19.4329 10.2442 21.3467 10.2442C21.6386 10.2441 21.93 10.2208 22.2182 10.1745L22.2116 10.1577C22.097 9.873 21.9625 9.59673 21.8092 9.33088L20.5301 7.11507C19.9534 6.11618 19.1238 5.28671 18.1248 4.71004C17.1259 4.13336 15.9927 3.82978 14.8392 3.82983H12.2804C11.1269 3.82978 9.99378 4.13336 8.9948 4.71004C7.99586 5.28671 7.1663 6.11618 6.58951 7.11507L5.31045 9.33088C4.73385 10.3299 4.4303 11.4631 4.4303 12.6165C4.4303 13.7699 4.73385 14.9031 5.31045 15.9021L6.58951 18.1179C7.1663 19.1168 7.99586 19.9463 8.9948 20.523C9.99378 21.0996 11.1269 21.4032 12.2804 21.4031H14.8392C15.9927 21.4032 17.1259 21.0996 18.1248 20.523C19.1238 19.9463 19.9534 19.1168 20.5301 18.1179L21.8092 15.9057C21.9625 15.6399 22.097 15.3636 22.2116 15.0789L22.2182 15.0628C21.9301 15.015 21.6387 14.9905 21.3467 14.9895C19.4329 14.9895 18.7153 15.6265 17.8833 16.3631" fill="#006BFF"/>
<path d="M14.2675 8.62061H13.1827C11.1846 8.62061 9.87183 10.0477 9.87183 11.8743V13.3586C9.87183 15.1852 11.1846 16.6123 13.1827 16.6123H14.2675C17.1789 16.6123 16.9503 13.6437 21.3467 13.6437C21.7632 13.6433 22.1789 13.6816 22.5884 13.7581C22.7218 13.0029 22.7218 12.2301 22.5884 11.4748C22.1789 11.551 21.7632 11.5893 21.3467 11.5892C16.9488 11.5892 17.1789 8.62061 14.2675 8.62061Z" fill="#006BFF"/>
<path d="M25.1142 14.8428C24.3656 14.2945 23.5021 13.9233 22.5891 13.7573C22.5891 13.7654 22.5891 13.7719 22.5891 13.7793C22.5105 14.2169 22.3877 14.6454 22.2226 15.0583C22.9768 15.1752 23.6925 15.4698 24.3101 15.9181C24.3101 15.924 24.3065 15.9313 24.3043 15.9379C23.5092 18.5123 21.8172 20.7161 19.5354 22.149C17.2537 23.5819 14.5337 24.1489 11.8695 23.7468C9.20531 23.3448 6.77368 22.0005 5.01636 19.9581C3.25904 17.9157 2.2926 15.3108 2.2926 12.6164C2.2926 9.92202 3.25904 7.31708 5.01636 5.27469C6.77368 3.23229 9.20531 1.88799 11.8695 1.48597C14.5337 1.08395 17.2537 1.65088 19.5354 3.08378C21.8172 4.51669 23.5092 6.7205 24.3043 9.29488C24.3043 9.30148 24.3079 9.30881 24.3101 9.31467C23.6925 9.76296 22.9768 10.0575 22.2226 10.1737C22.3875 10.5871 22.5103 11.0161 22.5891 11.4543C22.5887 11.4611 22.5887 11.468 22.5891 11.4748C23.5021 11.309 24.3655 10.9381 25.1142 10.39C25.834 9.85708 25.6947 9.2553 25.5855 8.89907C24.6956 6.01266 22.7997 3.54129 20.2423 1.93405C17.685 0.326806 14.6358 -0.309648 11.6491 0.14034C8.66232 0.590327 5.93607 2.09689 3.96577 4.38627C1.99546 6.67566 0.911865 9.59592 0.911865 12.6164C0.911865 15.6369 1.99546 18.5572 3.96577 20.8465C5.93607 23.1359 8.66232 24.6425 11.6491 25.0925C14.6358 25.5424 17.685 24.906 20.2423 23.2988C22.7997 21.6915 24.6956 19.2201 25.5855 16.3337C25.6947 15.9775 25.834 15.3757 25.1142 14.8428Z" fill="#006BFF"/>
<path d="M22.2181 10.1736C21.9301 10.2215 21.6386 10.246 21.3466 10.2469C19.4328 10.2469 18.7152 9.60994 17.884 8.87329C17.0821 8.1623 16.0838 7.27759 14.2675 7.27759H13.1826C11.8691 7.27759 10.6758 7.75476 9.82118 8.61968C8.98631 9.46481 8.52673 10.6215 8.52673 11.8771V13.3614C8.52673 14.617 8.98631 15.7736 9.82118 16.6187C10.6758 17.4837 11.8691 17.9601 13.1826 17.9601H14.2675C16.0838 17.9601 17.0821 17.0761 17.884 16.3651C18.7152 15.6321 19.4328 14.9915 21.3466 14.9915C21.6385 14.9916 21.9299 15.0149 22.2181 15.0611C22.3836 14.6484 22.5064 14.2198 22.5846 13.7821C22.5851 13.7748 22.5851 13.7674 22.5846 13.7601C22.1751 13.6842 21.7594 13.6461 21.343 13.6465C16.9451 13.6465 17.1752 16.6158 14.2638 16.6158H13.179C11.1809 16.6158 9.86809 15.188 9.86809 13.3614V11.8741C9.86809 10.0475 11.1809 8.62042 13.179 8.62042H14.2638C17.1752 8.62042 16.9465 11.5883 21.343 11.5883C21.7595 11.589 22.1752 11.551 22.5846 11.4747C22.5846 11.4681 22.5846 11.4615 22.5846 11.4541C22.5058 11.016 22.3831 10.587 22.2181 10.1736Z" fill="#0AE8F0"/>
<path d="M22.2181 10.1736C21.9301 10.2215 21.6386 10.246 21.3466 10.2469C19.4328 10.2469 18.7152 9.60994 17.884 8.87329C17.0821 8.1623 16.0838 7.27759 14.2675 7.27759H13.1826C11.8691 7.27759 10.6758 7.75476 9.82118 8.61968C8.98631 9.46481 8.52673 10.6215 8.52673 11.8771V13.3614C8.52673 14.617 8.98631 15.7736 9.82118 16.6187C10.6758 17.4837 11.8691 17.9601 13.1826 17.9601H14.2675C16.0838 17.9601 17.0821 17.0761 17.884 16.3651C18.7152 15.6321 19.4328 14.9915 21.3466 14.9915C21.6385 14.9916 21.9299 15.0149 22.2181 15.0611C22.3836 14.6484 22.5064 14.2198 22.5846 13.7821C22.5851 13.7748 22.5851 13.7674 22.5846 13.7601C22.1751 13.6842 21.7594 13.6461 21.343 13.6465C16.9451 13.6465 17.1752 16.6158 14.2638 16.6158H13.179C11.1809 16.6158 9.86809 15.188 9.86809 13.3614V11.8741C9.86809 10.0475 11.1809 8.62042 13.179 8.62042H14.2638C17.1752 8.62042 16.9465 11.5883 21.343 11.5883C21.7595 11.589 22.1752 11.551 22.5846 11.4747C22.5846 11.4681 22.5846 11.4615 22.5846 11.4541C22.5058 11.016 22.3831 10.587 22.2181 10.1736Z" fill="#0AE8F0"/>
</g>
<defs>
<clipPath id="clip0_323_40272">
<rect width="115.885" height="28" fill="white" transform="translate(0.908936)"/>
</clipPath>
</defs>
</svg>
