<svg width="126" height="28" viewBox="0 0 126 28" fill="none" xmlns="http://www.w3.org/2000/svg">
<path d="M22.3457 4.80711C17.5731 4.46429 12.2571 4.4643 7.48437 4.80711C6.4853 4.87887 5.72832 5.64387 5.65321 6.57894C5.4123 9.57768 5.38025 14.0704 5.60115 17.0661C5.67411 18.0556 6.54287 18.9049 7.71818 18.9049H11.4026V23.45L7.72569 23.4474C4.35264 23.4474 1.325 20.9473 1.06347 17.4007C0.825368 14.1719 0.858254 9.44552 1.11781 6.21458C1.37794 2.97658 3.98169 0.496979 7.15839 0.268802C12.1481 -0.0895997 17.6821 -0.0896012 22.6717 0.268801C25.8484 0.496977 28.4523 2.97658 28.7124 6.21458C28.9719 9.44552 28.9605 14.1719 28.7225 17.4007C28.4609 20.9473 25.4403 23.4576 22.0672 23.4576L18.4283 23.4549L11.4026 28V23.45L18.4283 18.9049H22.0678C23.243 18.9049 24.1118 18.0556 24.1848 17.0661C24.4057 14.0704 24.4178 9.57768 24.1769 6.57894C24.1018 5.64387 23.3449 4.87887 22.3457 4.80711Z" fill="#FE5000"/>
<path d="M35.8671 19.9773H46.8627V17.2165H39.1991V3.31738H35.8671V19.9773Z" fill="#1B1B20"/>
<path d="M48.4563 19.9776H51.6931V7.60162H48.4563V19.9776ZM48.1945 4.36482C48.1945 5.43582 48.9799 6.24502 50.0747 6.24502C51.1695 6.24502 51.9549 5.43582 51.9549 4.36482C51.9549 3.29382 51.1695 2.48462 50.0747 2.48462C48.9799 2.48462 48.1945 3.29382 48.1945 4.36482Z" fill="#1B1B20"/>
<path d="M64.3845 7.60156H61.1477L58.4821 16.6693L55.8165 7.60156H52.5797L56.7923 19.9775H60.1719L64.3845 7.60156Z" fill="#1B1B20"/>
<path d="M70.1605 20.2631C72.8975 20.2631 75.1109 18.6209 75.5393 16.3599H72.7071C72.3977 17.2167 71.5409 17.9307 70.1605 17.9307C68.2803 17.9307 67.5425 16.6693 67.5425 15.2175V14.9081H75.6345V12.7423C75.6345 9.76734 73.7781 7.31592 70.1129 7.31592C66.4001 7.31592 64.4009 9.69594 64.4009 13.0517V14.7415C64.4009 18.2163 66.6619 20.2631 70.1605 20.2631ZM67.5425 12.5043C67.5425 10.8383 68.2565 9.60074 70.1129 9.60074C71.8503 9.60074 72.6595 10.7669 72.6595 12.3139V12.6233H67.5425V12.5043Z" fill="#1B1B20"/>
<path d="M84.237 20.3108C88.4496 20.3108 91.0438 17.4548 91.2104 14.0514H88.1164C87.9022 15.9316 86.7122 17.5738 84.237 17.5738C81.4524 17.5738 80.2624 15.6698 80.2624 13.0042V10.291C80.2624 7.62537 81.4524 5.72137 84.237 5.72137C86.7122 5.72137 87.9022 7.36357 88.1164 9.24377H91.2104C91.0438 5.84037 88.4496 2.98438 84.237 2.98438C79.2152 2.98438 76.9542 6.19738 76.9542 10.4576V12.8376C76.9542 17.0978 79.2152 20.3108 84.237 20.3108Z" fill="#1B1B20"/>
<path d="M92.9701 19.9776H96.2071V12.6472C96.2071 10.9812 97.1348 10.1244 98.5871 10.1244C100.158 10.1244 100.848 11.1478 100.848 12.5758V19.9776H104.084V12.0522C104.084 9.12472 102.395 7.31592 99.7052 7.31592C98.1111 7.31592 96.8492 8.00612 96.2071 9.07712V2.60352H92.9701V19.9776Z" fill="#1B1B20"/>
<path d="M110.263 20.2631C111.691 20.2631 113.262 19.6681 113.833 18.8351V19.9775H116.95V12.0759C116.95 9.19612 114.833 7.31592 111.739 7.31592C109.073 7.31592 107.145 8.60112 106.431 11.0049H109.43C109.763 10.3385 110.454 9.83874 111.572 9.83874C112.904 9.83874 113.714 10.6955 113.714 11.8379V13.5277C113.142 13.0517 112.048 12.4805 110.572 12.4805C107.598 12.4805 105.574 13.7181 105.574 16.4075C105.574 18.8113 107.478 20.2631 110.263 20.2631ZM111.096 18.1211C109.74 18.1211 108.716 17.4547 108.716 16.3123C108.716 15.1699 109.668 14.5511 111.191 14.5511C112.643 14.5511 113.714 15.1937 113.714 16.2885C113.714 17.3357 112.524 18.1211 111.096 18.1211Z" fill="#1B1B20"/>
<path d="M122.999 19.9775H125.236V17.3595H123.927C123.07 17.3595 122.761 17.0263 122.761 16.2171V10.2195H125.403V7.60152H122.761V4.22192H119.5V7.60152H117.739V10.2195H119.5V16.4551C119.5 18.6447 120.619 19.9775 122.999 19.9775Z" fill="#1B1B20"/>
</svg>
