<svg width="21" height="22" viewBox="0 0 21 22" fill="none" xmlns="http://www.w3.org/2000/svg">
<path d="M10.5298 0.5H10.482C4.69796 0.5 0.0090332 5.19031 0.0090332 10.9761V11.0239C0.0090332 16.8097 4.69796 21.5 10.482 21.5H10.5298C16.3139 21.5 21.0028 16.8097 21.0028 11.0239V10.9761C21.0028 5.19031 16.3139 0.5 10.5298 0.5Z" fill="url(#paint0_linear_233_20043)"/>
<path d="M13.7544 4.77234H7.25832C5.46366 4.77234 4.00366 6.23277 4.00366 8.02795V13.9727C4.00366 15.7679 5.46366 17.2283 7.25832 17.2283H13.7544C15.549 17.2283 17.009 15.7679 17.009 13.9727V8.02795C17.009 6.23277 15.549 4.77234 13.7544 4.77234ZM5.1518 8.02795C5.1518 6.86623 6.09694 5.92082 7.25832 5.92082H13.7544C14.9158 5.92082 15.8609 6.86623 15.8609 8.02795V13.9727C15.8609 15.1344 14.9158 16.0798 13.7544 16.0798H7.25832C6.09694 16.0798 5.1518 15.1344 5.1518 13.9727V8.02795Z" fill="white"/>
<path d="M10.5064 14.0277C12.1753 14.0277 13.5338 12.6696 13.5338 10.9995C13.5338 9.32935 12.176 7.97119 10.5064 7.97119C8.83677 7.97119 7.479 9.32935 7.479 10.9995C7.479 12.6696 8.83677 14.0277 10.5064 14.0277ZM10.5064 9.1204C11.5427 9.1204 12.3856 9.96355 12.3856 11.0002C12.3856 12.0368 11.5427 12.88 10.5064 12.88C9.47005 12.88 8.62714 12.0368 8.62714 11.0002C8.62714 9.96355 9.47005 9.1204 10.5064 9.1204Z" fill="white"/>
<path d="M13.814 8.46071C14.2634 8.46071 14.6297 8.09505 14.6297 7.64478C14.6297 7.19452 14.2641 6.82886 13.814 6.82886C13.3638 6.82886 12.9983 7.19452 12.9983 7.64478C12.9983 8.09505 13.3638 8.46071 13.814 8.46071Z" fill="white"/>
<defs>
<linearGradient id="paint0_linear_233_20043" x1="3.07613" y1="18.432" x2="17.9401" y2="3.57312" gradientUnits="userSpaceOnUse">
<stop stop-color="#FAAD4F"/>
<stop offset="0.35" stop-color="#DD2A7B"/>
<stop offset="0.62" stop-color="#9537B0"/>
<stop offset="1" stop-color="#515BD4"/>
</linearGradient>
</defs>
</svg>
