<svg width="118" height="31" viewBox="0 0 118 31" fill="none" xmlns="http://www.w3.org/2000/svg">
<g clip-path="url(#clip0_41_12852)">
<path d="M15.3411 16.4708C13.3934 16.4708 11.846 17.2381 10.7521 18.7463C10.1118 17.5821 8.83114 16.4708 6.88348 16.4708C4.88247 16.4708 3.70855 17.344 2.88146 18.27V18.0055C2.88146 17.2381 2.24114 16.6031 1.46742 16.6031C0.693691 16.6031 0.0800476 17.2381 0.0800476 18.0055V28.6685C0.0800476 29.4358 0.693691 30.0444 1.46742 30.0444C2.24114 30.0444 2.88146 29.4358 2.88146 28.6685V21.2864C3.52179 20.2545 4.48227 19.0903 6.21648 19.0903C7.87065 19.0903 8.51097 19.8841 8.51097 21.9479V28.6685C8.51097 29.4358 9.12462 30.0444 9.89834 30.0444C10.6721 30.0444 11.3124 29.4358 11.3124 28.6685V21.2864C11.9527 20.2545 12.9132 19.0903 14.6474 19.0903C16.3016 19.0903 16.9419 19.8841 16.9419 21.9479V28.6685C16.9419 29.4358 17.5555 30.0444 18.3293 30.0444C19.103 30.0444 19.7433 29.4358 19.7433 28.6685V21.4981C19.7967 19.0638 18.4093 16.4708 15.3411 16.4708ZM28.7879 16.4708C27.2404 16.4708 25.8264 16.7619 24.359 17.3969C23.8521 17.6086 23.5319 18.0319 23.5319 18.5876C23.5319 19.2755 24.0655 19.8047 24.7325 19.8047C24.8392 19.8047 24.9726 19.7782 25.1327 19.7518C26.1199 19.4342 27.0537 19.1697 28.3877 19.1697C30.5488 19.1697 31.4559 19.9634 31.4826 21.9214H28.7078C24.9193 21.9214 22.6781 23.5354 22.6781 26.2078C22.6781 28.8272 24.8659 30.2031 27.027 30.2031C28.7612 30.2031 30.2553 29.6739 31.4826 28.6685V28.695C31.4826 29.4623 32.0962 30.0708 32.8699 30.0708C33.6437 30.0708 34.284 29.4623 34.284 28.695V21.6568C34.284 19.0638 32.5765 16.4708 28.7879 16.4708ZM27.8808 27.6366C26.3066 27.6366 25.4795 27.0545 25.4795 25.9167C25.4795 25.4934 25.4795 24.2234 29.0013 24.2234H31.4559V25.9432C30.7355 26.737 29.3748 27.6366 27.8808 27.6366ZM39.7801 11.4965C40.6339 11.4965 41.3275 12.1844 41.3275 13.0311V13.137C41.3275 13.9837 40.6339 14.6716 39.7801 14.6716H39.62C38.7663 14.6716 38.0726 13.9837 38.0726 13.137V13.0311C38.0726 12.1844 38.7663 11.4965 39.62 11.4965H39.7801ZM39.7001 16.5767C40.5005 16.5767 41.1141 17.2117 41.1141 17.979V28.642C41.1141 29.4093 40.5005 30.0179 39.7001 30.0179C38.9263 30.0179 38.3127 29.4093 38.3127 28.642V17.979C38.3127 17.1852 38.9263 16.5767 39.7001 16.5767ZM46.8237 11.0996C47.6241 11.0996 48.2377 11.7346 48.2377 12.5019V28.642C48.2377 29.4093 47.6241 30.0179 46.8237 30.0179C46.0499 30.0179 45.4363 29.4093 45.4363 28.642V12.5019C45.4363 11.7082 46.0499 11.0996 46.8237 11.0996ZM57.9493 16.4708C55.9483 16.4708 54.2941 17.2117 53.1735 18.614C52.213 19.8311 51.6794 21.4981 51.6794 23.3237C51.6794 27.6101 54.2141 30.1767 58.4295 30.1767C60.7507 30.1767 61.8979 29.6475 62.9385 29.0389C63.4454 28.7479 63.7122 28.3245 63.7122 27.9012C63.7122 27.2132 63.1519 26.6576 62.4315 26.6576C62.2181 26.6576 62.0313 26.6841 61.8713 26.7899C61.1242 27.1868 60.1904 27.5307 58.6163 27.5307C56.2684 27.5307 54.8811 26.4459 54.5342 24.3821H62.725C63.5521 24.3821 64.1391 23.8 64.1391 23.0062C64.1924 18.5082 60.9641 16.4708 57.9493 16.4708ZM57.9493 18.9051C59.1232 18.9051 61.0975 19.5665 61.3643 22.0008H54.5342C54.801 19.8576 56.4018 18.9051 57.9493 18.9051ZM73.9307 16.4708C74.7044 16.4708 75.2914 17.0529 75.2914 17.8202C75.2914 18.5876 74.7044 19.1432 73.8773 19.1432H73.7439C72.3032 19.1432 71.0226 19.8576 70.1154 21.1541V28.642C70.1154 29.4093 69.4751 30.0179 68.7014 30.0179C67.9277 30.0179 67.314 29.4093 67.314 28.642V17.979C67.314 17.2117 67.9277 16.5767 68.7014 16.5767C69.4751 16.5767 70.1154 17.2117 70.1154 17.979V18.323C71.236 17.1058 72.4633 16.4708 73.7973 16.4708H73.9307Z" fill="white"/>
<path d="M115 4.9231H85V21.6878H115V4.9231Z" fill="white"/>
<path d="M113.508 0.725586H84.7269C82.5088 0.725586 80.6694 2.54701 80.6694 4.74344V18.1363V20.7613V30.2702L86.2688 24.7792H113.535C115.754 24.7792 117.593 22.9577 117.593 20.7613V4.74344C117.566 2.52023 115.754 0.725586 113.508 0.725586ZM89.2984 18.7256C89.2984 19.3149 88.8115 19.7702 88.2164 19.7702C87.6213 19.7702 87.1614 19.2881 87.1614 18.7256V7.34166C87.1614 6.75237 87.6213 6.27023 88.2164 6.27023C88.8115 6.27023 89.2984 6.75237 89.2984 7.34166V18.7256ZM94.3297 18.7256C94.3297 19.3149 93.8428 19.7702 93.2477 19.7702C92.6526 19.7702 92.1928 19.2881 92.1928 18.7256V11.1988C92.1928 10.6095 92.6526 10.1274 93.2477 10.1274C93.8428 10.1274 94.3297 10.6095 94.3297 11.1988V18.7256ZM94.465 7.77023C94.465 8.41309 93.951 8.92202 93.3018 8.92202H93.1936C92.5444 8.92202 92.0305 8.41309 92.0305 7.77023V7.68987C92.0305 7.04701 92.5444 6.53809 93.1936 6.53809H93.3018C93.951 6.53809 94.465 7.04701 94.465 7.68987V7.77023ZM102.093 19.5292C101.579 19.7702 101.065 19.8774 100.497 19.8774C98.6307 19.8774 97.6299 18.9934 97.6299 17.3059V12.1363H96.6561C96.3044 12.1363 96.061 11.8684 96.061 11.547C96.061 11.3595 96.1421 11.172 96.3044 11.0381L98.6848 8.70773C98.7389 8.65416 98.9283 8.46666 99.1717 8.46666C99.5234 8.46666 99.7668 8.73452 99.7668 9.08273V10.2077H101.498C102.039 10.2077 102.472 10.6363 102.472 11.172C102.472 11.7077 102.039 12.1363 101.498 12.1363H99.7939V17.172C99.7939 17.8952 100.173 17.9488 100.687 17.9488C100.984 17.9488 101.146 17.8952 101.309 17.8684C101.444 17.8417 101.579 17.7881 101.742 17.7881C102.174 17.7881 102.661 18.1363 102.661 18.6988C102.634 19.047 102.445 19.3684 102.093 19.5292ZM108.72 17.8684C109.83 17.8684 110.452 17.6274 110.993 17.3595C111.128 17.2792 111.263 17.2524 111.425 17.2524C111.966 17.2524 112.399 17.6809 112.399 18.2167C112.399 18.5649 112.183 18.8863 111.804 19.1006C111.047 19.5292 110.235 19.9042 108.558 19.9042C105.529 19.9042 103.689 18.0559 103.689 14.9756C103.689 11.3595 106.124 10.047 108.207 10.047C111.29 10.047 112.697 12.4845 112.697 14.7345C112.697 15.3506 112.237 15.7792 111.615 15.7792H105.934C106.205 17.1452 107.179 17.8684 108.72 17.8684ZM108.234 11.9488C107.206 11.9488 106.124 12.5649 105.934 13.9845H110.56C110.343 12.5649 109.261 11.9488 108.234 11.9488Z" fill="#09C269"/>
</g>
<defs>
<clipPath id="clip0_41_12852">
<rect width="117.647" height="30" fill="white" transform="translate(0 0.51123)"/>
</clipPath>
</defs>
</svg>
