<svg width="107" height="23" viewBox="0 0 107 23" fill="none" xmlns="http://www.w3.org/2000/svg">
<path d="M32.5443 7.43281C30.9747 7.43281 29.9712 7.94743 29.9712 8.87374C29.9712 9.80006 31.0262 10.2118 32.5958 10.3661C34.8344 10.5463 37.7162 10.9322 37.7162 13.9428C37.7162 16.1042 35.6835 17.6223 32.57 17.6223C30.6145 17.6223 28.7104 17.1849 27.0636 15.4609L28.3759 13.7369C29.4823 14.8433 30.9747 15.4609 32.5443 15.4609C33.8823 15.4609 35.2203 15.0492 35.2203 13.9685C35.2203 12.8878 34.1911 12.5275 32.3899 12.3732C30.1256 12.193 27.4753 11.524 27.4753 8.92521C27.4753 6.35211 30.2542 5.37433 32.4928 5.37433C34.1654 5.3486 35.8121 5.88895 37.1501 6.91819L35.8379 8.46205C34.8858 7.76731 33.7279 7.40708 32.5443 7.43281ZM46.0788 15.358C47.3396 15.358 48.832 14.9205 49.5782 14.0971L51.225 15.641C49.9642 16.979 47.88 17.6223 46.0273 17.6223C42.0648 17.6223 39.5174 15.2293 39.5174 11.4983C39.5174 7.94743 42.1677 5.37433 45.9759 5.37433C49.5268 5.37433 51.9712 7.38134 51.9712 11.3954C51.9712 11.7299 51.9455 12.0901 51.9197 12.4246H42.142C42.3478 14.2773 43.8402 15.358 46.0788 15.358ZM45.9759 7.56146C44.149 7.56146 42.5537 8.53924 42.1677 10.4176H49.501C49.3466 8.56497 48.0858 7.56146 45.9759 7.56146ZM63.6788 10.8036C63.6788 8.79655 62.4952 7.63866 60.411 7.63866C59.4847 7.63866 58.6098 7.99889 57.9665 8.6679C57.3232 9.33691 56.9887 10.2375 57.0145 11.1638V17.3392H54.4671V5.6831H56.7829L56.9373 7.30415C57.9408 6.0948 59.4332 5.37433 61.0028 5.40006C63.9104 5.40006 66.2004 7.14977 66.2004 10.7778V17.3392H63.6531L63.6788 10.8036ZM81.6133 17.3392H79.2461L79.0917 15.4866C78.1396 16.8761 76.57 17.6737 74.8975 17.6223C71.3981 17.6223 68.7221 15.3837 68.7221 11.4983C68.7221 7.53574 71.3466 5.37433 74.8461 5.37433C76.3127 5.37433 78.294 6.06907 79.0917 7.45854V0.819948H81.639L81.6133 17.3392ZM71.2437 11.4983C71.2437 13.8656 72.9162 15.358 75.0519 15.358C77.1361 15.358 78.8344 13.634 78.8344 11.524C78.8344 9.41409 77.1361 7.69012 75.0519 7.69012C72.9162 7.69012 71.2437 9.15679 71.2437 11.4983ZM86.3221 0.536905C86.7338 0.511174 87.1455 0.639829 87.4285 0.92287C87.7373 1.20591 87.8917 1.6176 87.8917 2.0293C87.8402 2.85269 87.1455 3.5217 86.3221 3.5217C85.4987 3.5217 84.8039 2.87842 84.7525 2.0293C84.7525 1.6176 84.9069 1.20591 85.2156 0.92287C85.5244 0.639829 85.9361 0.485443 86.3221 0.536905ZM87.5829 17.3392H85.0355V5.6831H87.5829V17.3392ZM100.191 10.8036C100.191 8.79655 99.0075 7.63866 96.9232 7.63866C95.9969 7.63866 95.1221 7.99889 94.4788 8.6679C93.8355 9.33691 93.501 10.2375 93.5268 11.1895V17.365H90.9794V5.70884H93.2694L93.4238 7.32989C94.4273 6.12053 95.9197 5.40006 97.4893 5.42579C100.397 5.42579 102.687 7.1755 102.687 10.8036V17.365H100.14C100.165 17.3392 100.191 10.8036 100.191 10.8036ZM108.502 7.58719C109.274 6.19772 111.281 5.40006 112.748 5.40006C116.221 5.40006 118.872 7.56146 118.872 11.524C118.872 15.4094 116.016 17.648 112.722 17.648C111.204 17.648 109.454 17.0047 108.502 15.5123L108.348 17.365H105.981V0.845672H108.528L108.502 7.58719ZM108.631 11.4983C108.605 12.5275 109.017 13.5311 109.763 14.2773C110.483 14.9977 111.487 15.3837 112.516 15.358C114.729 15.358 116.324 13.8656 116.324 11.4983C116.324 9.13106 114.703 7.66438 112.516 7.66438C111.487 7.63865 110.509 8.02462 109.789 8.74509C109.043 9.49129 108.631 10.4691 108.631 11.4983ZM124.172 17.3392H121.625V0.819948H124.172V17.3392ZM130.039 12.0387C130.039 14.0199 131.197 15.3837 133.333 15.3837C134.259 15.3837 135.134 15.0234 135.751 14.3544C136.395 13.6854 136.729 12.7849 136.678 11.8585V5.6831H139.199V17.3392H136.935L136.781 15.7182C135.751 16.9533 134.207 17.6737 132.612 17.5965C129.653 17.5965 127.517 15.5381 127.517 12.0129V5.63164H130.039V12.0387ZM148.462 15.358C149.723 15.358 151.216 14.9205 151.962 14.0971L153.609 15.641C152.348 16.979 150.264 17.6223 148.411 17.6223C144.448 17.6223 141.901 15.2293 141.901 11.4983C141.901 7.94743 144.551 5.37433 148.385 5.37433C151.936 5.37433 154.381 7.38134 154.381 11.3954C154.381 11.7299 154.355 12.0901 154.329 12.4246H144.526C144.757 14.2773 146.25 15.358 148.462 15.358ZM148.385 7.56146C146.533 7.56146 144.963 8.53924 144.577 10.4176H151.91C151.73 8.56497 150.469 7.56146 148.385 7.56146Z" fill="white"/>
<path d="M18.4436 16.2586C17.8775 17.2364 16.9512 17.9568 15.8705 18.2656C16.0249 17.7253 16.1021 17.1849 16.1021 16.6188C16.1021 13.8656 14.198 11.5498 11.6506 10.9066C12.1909 10.3919 12.8342 10.006 13.5547 9.82585C14.6611 9.51708 15.8705 9.67146 16.8483 10.2633C18.9325 11.4984 19.6529 14.1744 18.4436 16.2586ZM10.2611 21.0188C9.12896 21.0188 8.04826 20.5557 7.2506 19.7837C7.79095 19.6551 8.30557 19.4492 8.76873 19.1662C11.136 17.7767 12.1909 14.972 11.4447 12.4247C13.2717 12.9393 14.6097 14.6375 14.6097 16.6188C14.6097 19.0633 12.6541 21.0188 10.2611 21.0188ZM2.07867 16.2586C1.51259 15.2808 1.3582 14.0972 1.64124 13.0165C2.02721 13.4025 2.46464 13.7627 2.92779 14.0457C3.80265 14.5604 4.80616 14.8434 5.83539 14.8434C7.43072 14.8434 8.94884 14.2001 10.0553 13.0422C10.5184 14.8949 9.72077 16.9019 8.02253 17.8797C7.35352 18.2656 6.60732 18.4715 5.86113 18.4715C4.29153 18.4457 2.8506 17.6223 2.07867 16.2586ZM2.07867 6.76386C2.64475 5.78608 3.57107 5.06562 4.65177 4.75684C4.49738 5.2972 4.42019 5.83754 4.42019 6.40363C4.42019 9.15684 6.32428 11.4726 8.87165 12.1159C7.50791 13.4282 5.39797 13.7627 3.67399 12.7592C2.67048 12.1674 1.95002 11.2411 1.64124 10.1089C1.33247 8.97672 1.48686 7.76737 2.07867 6.76386ZM10.2611 2.00363C11.3933 2.00363 12.474 2.46679 13.2717 3.23872C12.7313 3.36737 12.2167 3.57322 11.7535 3.85626C10.3898 4.65392 9.43773 5.91474 9.02604 7.43287C8.743 8.46211 8.76873 9.56854 9.05177 10.5978C7.22487 10.0832 5.88686 8.38491 5.88686 6.40363C5.91259 3.98491 7.86814 2.00363 10.2611 2.00363ZM18.4436 6.76386C19.0097 7.76737 19.164 8.92526 18.881 10.006C18.495 9.59427 18.0576 9.25977 17.5945 8.97673C16.2307 8.17907 14.6611 7.97322 13.143 8.38492C12.1138 8.66796 11.1617 9.23404 10.4412 10.006C10.2611 9.2855 10.2611 8.5393 10.467 7.81883C10.7757 6.68667 11.4962 5.73462 12.4997 5.16854C13.5032 4.57673 14.6869 4.42234 15.7933 4.73111C16.9255 5.03988 17.8518 5.76035 18.4436 6.76386ZM19.7559 6.01766C18.9839 4.65392 17.7231 3.67615 16.205 3.26445C15.8447 3.16153 15.4845 3.11006 15.1243 3.08433C14.0436 1.48901 12.2167 0.51123 10.2869 0.51123C8.27984 0.51123 6.5044 1.54047 5.44943 3.08433C3.51961 3.23872 1.7699 4.31942 0.79212 6.01766C0.0201908 7.3814 -0.185656 8.951 0.200309 10.4691C0.303233 10.8294 0.431888 11.1639 0.586274 11.4984C-0.262849 13.2481 -0.185657 15.3066 0.79212 17.0048C1.79563 18.7545 3.57107 19.7837 5.4237 19.9381C6.5044 21.5335 8.3313 22.5112 10.2611 22.5112C12.2681 22.5112 14.0436 21.482 15.0986 19.9381C17.0284 19.7837 18.7781 18.703 19.7559 17.0048C20.7594 15.2551 20.7594 13.1966 19.9617 11.4984C20.7851 9.77439 20.7079 7.69018 19.7559 6.01766Z" fill="#0092FF"/>
</svg>
