<svg width="126" height="28" viewBox="0 0 126 28" fill="none" xmlns="http://www.w3.org/2000/svg">
<g clip-path="url(#clip0_323_40375)">
<path d="M22.3457 4.80711C17.5731 4.46429 12.2571 4.4643 7.48437 4.80711C6.4853 4.87887 5.72832 5.64387 5.65321 6.57894C5.4123 9.57768 5.38025 14.0704 5.60115 17.0661C5.67411 18.0556 6.54287 18.9049 7.71818 18.9049H11.4026V23.45L7.72569 23.4474C4.35264 23.4474 1.325 20.9473 1.06347 17.4007C0.825368 14.1719 0.858254 9.44552 1.11781 6.21458C1.37794 2.97658 3.98169 0.496979 7.15839 0.268802C12.1481 -0.0895997 17.6821 -0.0896012 22.6717 0.268801C25.8484 0.496977 28.4523 2.97658 28.7124 6.21458C28.9719 9.44552 28.9605 14.1719 28.7225 17.4007C28.4609 20.9473 25.4403 23.4576 22.0672 23.4576L18.4283 23.4549L11.4026 28V23.45L18.4283 18.9049H22.0678C23.243 18.9049 24.1118 18.0556 24.1848 17.0661C24.4057 14.0704 24.4178 9.57768 24.1769 6.57894C24.1018 5.64387 23.3449 4.87887 22.3457 4.80711Z" fill="#FE5000"/>
<path d="M35.8669 19.9775H46.8625V17.2167H39.1989V3.3175H35.8669V19.9775Z" fill="#191919"/>
<path d="M48.4564 19.9776H51.6932V7.60162H48.4564V19.9776ZM48.1946 4.36482C48.1946 5.43582 48.98 6.24502 50.0748 6.24502C51.1696 6.24502 51.955 5.43582 51.955 4.36482C51.955 3.29382 51.1696 2.48462 50.0748 2.48462C48.98 2.48462 48.1946 3.29382 48.1946 4.36482Z" fill="#191919"/>
<path d="M64.3846 7.60156H61.1478L58.4822 16.6693L55.8166 7.60156H52.5798L56.7924 19.9775H60.172L64.3846 7.60156Z" fill="#191919"/>
<path d="M70.1605 20.263C72.8975 20.263 75.1109 18.6208 75.5393 16.3598H72.7071C72.3977 17.2166 71.5409 17.9306 70.1605 17.9306C68.2803 17.9306 67.5425 16.6692 67.5425 15.2174V14.908H75.6345V12.7422C75.6345 9.76721 73.7781 7.3158 70.1129 7.3158C66.4001 7.3158 64.4009 9.69581 64.4009 13.0516V14.7414C64.4009 18.2162 66.6619 20.263 70.1605 20.263ZM67.5425 12.5042C67.5425 10.8382 68.2565 9.60061 70.1129 9.60061C71.8503 9.60061 72.6595 10.7668 72.6595 12.3138V12.6232H67.5425V12.5042Z" fill="#191919"/>
<path d="M84.2369 20.3107C88.4495 20.3107 91.0437 17.4547 91.2103 14.0513H88.1163C87.9021 15.9315 86.7121 17.5737 84.2369 17.5737C81.4523 17.5737 80.2623 15.6697 80.2623 13.0041V10.2909C80.2623 7.62531 81.4523 5.72131 84.2369 5.72131C86.7121 5.72131 87.9021 7.36351 88.1163 9.24371H91.2103C91.0437 5.84031 88.4495 2.98431 84.2369 2.98431C79.2151 2.98431 76.9541 6.19731 76.9541 10.4575V12.8375C76.9541 17.0977 79.2151 20.3107 84.2369 20.3107Z" fill="#191919"/>
<path d="M92.9702 19.9776H96.2072V12.6472C96.2072 10.9812 97.1349 10.1244 98.5872 10.1244C100.158 10.1244 100.848 11.1478 100.848 12.5758V19.9776H104.085V12.0522C104.085 9.12478 102.395 7.31598 99.7053 7.31598C98.1112 7.31598 96.8493 8.00618 96.2072 9.07718V2.60358H92.9702V19.9776Z" fill="#191919"/>
<path d="M110.263 20.263C111.691 20.263 113.262 19.668 113.833 18.835V19.9774H116.95V12.0758C116.95 9.196 114.833 7.3158 111.739 7.3158C109.073 7.3158 107.145 8.601 106.431 11.0048H109.43C109.763 10.3384 110.453 9.83861 111.572 9.83861C112.904 9.83861 113.714 10.6954 113.714 11.8378V13.5276C113.142 13.0516 112.048 12.4804 110.572 12.4804C107.597 12.4804 105.574 13.718 105.574 16.4074C105.574 18.8112 107.478 20.263 110.263 20.263ZM111.096 18.121C109.739 18.121 108.716 17.4546 108.716 16.3122C108.716 15.1698 109.668 14.551 111.191 14.551C112.643 14.551 113.714 15.1936 113.714 16.2884C113.714 17.3356 112.524 18.121 111.096 18.121Z" fill="#191919"/>
<path d="M122.999 19.9774H125.236V17.3594H123.927C123.07 17.3594 122.761 17.0262 122.761 16.217V10.2194H125.403V7.60146H122.761V4.22186H119.5V7.60146H117.739V10.2194H119.5V16.455C119.5 18.6446 120.619 19.9774 122.999 19.9774Z" fill="#191919"/>
</g>
<defs>
<clipPath id="clip0_323_40375">
<rect width="125.067" height="28" fill="white" transform="translate(0.902588)"/>
</clipPath>
</defs>
</svg>
