<svg width="205" height="28" viewBox="0 0 205 28" fill="none" xmlns="http://www.w3.org/2000/svg">
<g clip-path="url(#clip0_323_40373)">
<path d="M123.393 2.29715C120.113 2.29715 118.518 4.23019 118.518 7.07751V8.74965H116.036V11.1864H118.528V24.0688H121.101V11.1864H125.053V8.74965H121.101L121.077 7.15419C121.077 5.77571 121.892 4.82487 123.514 4.82487C124.07 4.82265 124.623 4.87497 125.168 4.97867V2.54105C124.591 2.37637 123.993 2.29383 123.393 2.29715ZM46.4347 2.86551C46.0025 2.88127 45.5897 3.05941 45.2819 3.36847C44.9287 3.72029 44.7469 4.20951 44.7815 4.70661C44.7815 5.36397 45.1313 5.97195 45.7009 6.29991C46.2695 6.62929 46.9711 6.62929 47.5397 6.29991C48.1083 5.97195 48.4597 5.36397 48.4585 4.70661C48.4941 4.20951 48.3121 3.72029 47.9591 3.36847C47.6071 3.01525 47.1177 2.83321 46.6205 2.86899C46.5583 2.86455 46.4963 2.86323 46.4347 2.86545V2.86551ZM90.3791 3.63489C85.6886 3.63489 83.3003 5.95351 83.3003 9.08669C83.3003 12.3951 85.3303 13.9576 89.8571 15.0614C93.6865 15.9807 94.7899 16.9273 94.7899 18.7067C94.7899 20.486 93.6441 21.6806 90.6117 21.6806C87.9485 21.6806 85.0689 20.9766 83.1997 19.9955V22.8126C84.7627 23.6096 86.5697 24.3752 90.4623 24.3752C95.4581 24.3752 97.5411 22.0142 97.5615 18.5226C97.5615 14.8946 95.1703 13.5298 90.9121 12.4565C87.3607 11.5696 86.0719 10.7405 86.0719 9.08669C86.0719 7.24881 87.6355 6.32937 90.2705 6.32937C92.4581 6.27613 94.6211 6.80445 96.5378 7.86159V5.10343C95.159 4.33129 93.2902 3.63489 90.3791 3.63489ZM38.8389 3.94419L38.8459 18.1249C38.8459 20.1342 38.0409 21.5268 35.7125 21.5268C34.7377 21.5344 33.7717 21.357 32.8643 21.0048V23.685C33.9285 24.048 35.0475 24.2244 36.1717 24.2084C39.9741 24.2084 41.5967 21.649 41.5967 17.9408V3.94419H38.8389ZM128.964 5.50067V8.76265H126.48V11.2007H128.974V19.285C128.974 22.1366 130.569 24.0654 133.848 24.0654C134.449 24.0688 135.047 23.9862 135.624 23.8216V21.28C135.081 21.4066 134.527 21.4792 133.97 21.4956C132.347 21.4956 131.55 20.577 131.536 19.2287V11.1864H135.61V8.74965H131.536V5.50067H128.964ZM197.393 8.43255C192.735 8.43255 190.162 11.7396 190.162 16.3674C190.162 21.0676 192.672 24.3752 198.404 24.3752C199.966 24.3752 201.9 24.138 203.156 23.4602V21.0222C201.662 21.569 200.086 21.8498 198.498 21.8508C194.883 21.8508 193.197 20.1656 192.829 17.5609H204.008V16.3674C204.008 11.7116 202.112 8.43255 197.393 8.43255ZM67.3607 8.44341C63.0711 8.44341 60.9269 12.0886 60.9269 16.4087C60.9269 20.914 62.9811 24.3752 67.0545 24.3752C69.4121 24.3752 71.2503 23.3346 72.2325 21.3116L72.2355 24.0688H74.8717V8.74969H72.2355V11.4442C71.3129 9.45243 69.5963 8.44341 67.3609 8.44341H67.3607ZM107.161 8.44341C102.565 8.44341 99.87 11.7824 99.87 16.3774C99.87 20.9736 102.596 24.386 107.161 24.386C111.726 24.386 114.392 20.9736 114.392 16.3774C114.392 11.7824 111.756 8.44341 107.161 8.44341ZM169.634 8.44341C165.344 8.44341 163.2 12.0886 163.2 16.4087C163.2 20.914 165.254 24.3752 169.327 24.3752C171.685 24.3752 173.523 23.3346 174.505 21.3116L174.508 24.0688H177.144V8.74969H174.508V11.4442C173.585 9.45243 171.869 8.44341 169.634 8.44341ZM59.3427 8.51575C56.7073 8.51221 55.2939 9.74951 54.4615 11.4442V8.74969H51.8883V24.0792H54.4615V15.0267C54.4615 11.7821 56.5157 10.7586 59.8859 11.1063V8.53309C59.6991 8.52155 59.5183 8.51601 59.3427 8.51579V8.51575ZM188.577 8.51575C185.942 8.51221 184.529 9.74951 183.696 11.4442V8.74969H181.123V24.0792H183.696V15.0267C183.696 11.7821 185.751 10.7586 189.121 11.1063V8.53309C188.934 8.52155 188.753 8.51601 188.577 8.51579V8.51575ZM136.362 8.74969L141.999 24.0688H145.369L148.039 16.6569L149.433 11.938L150.825 16.6569L153.461 24.0688H156.831L162.468 8.74969H159.557L155.142 21.7392L150.668 8.74969H148.154L143.684 21.7392L139.273 8.74969H136.362ZM45.2733 8.75323V24.072H47.9079V8.75323H45.2733ZM197.264 10.8486C199.897 10.8486 201.184 12.4741 201.338 15.3223H192.798V15.3054C193.073 12.6488 194.483 10.8348 197.264 10.8487V10.8486ZM68.0539 10.8803C70.3035 10.8803 72.2325 12.3812 72.2325 15.7828V17.0217C72.2325 20.4218 70.1203 21.9232 67.7619 21.9246C65.0315 21.9246 63.5627 20.0854 63.5487 16.3944C63.5487 12.8401 65.0801 10.8803 68.0539 10.8803ZM170.327 10.8803C172.576 10.8803 174.505 12.3812 174.505 15.7828V17.0217C174.505 20.4214 172.393 21.9228 170.034 21.9246C167.304 21.9246 165.825 20.0856 165.825 16.4087C165.825 12.8544 167.367 10.9083 170.327 10.8803ZM107.161 10.908C110.409 10.908 111.819 13.4676 111.819 16.3775C111.819 19.2886 110.437 21.9246 107.161 21.9246C103.885 21.9246 102.443 19.2886 102.443 16.3775H102.456C102.456 13.4676 103.912 10.908 107.161 10.908Z" fill="#191919"/>
<path d="M25.9979 13.2615L14.6469 1.91051L13.5468 0.811218L1.09651 13.2615C0.68951 13.6697 0.68951 14.3303 1.09651 14.7376L8.90293 22.5438L13.5468 27.1888L25.9979 14.7376C26.4053 14.3303 26.4053 13.6697 25.9979 13.2615ZM13.5468 17.8988L9.64791 14.0001L13.5468 10.1001L17.4466 14.0001L13.5468 17.8988Z" fill="#2684FF"/>
<path d="M13.5469 10.1001C10.9943 7.54635 10.9813 3.41037 13.5198 0.841675L4.98584 9.37229L9.63082 14.0173L13.5469 10.1001Z" fill="url(#paint0_linear_323_40373)"/>
<path d="M17.4575 13.9891L13.5469 17.8988C14.7792 19.1301 15.4724 20.8012 15.4724 22.5438C15.4724 24.2862 14.7792 25.9564 13.5469 27.1888L22.1014 18.6341L17.4575 13.9891Z" fill="url(#paint1_linear_323_40373)"/>
</g>
<defs>
<linearGradient id="paint0_linear_323_40373" x1="11.871" y1="7.13569" x2="7.40554" y2="11.6" gradientUnits="userSpaceOnUse">
<stop stop-color="#0052CC"/>
<stop offset="1" stop-color="#2684FF"/>
</linearGradient>
<linearGradient id="paint1_linear_323_40373" x1="15.2711" y1="20.8208" x2="19.7276" y2="16.3643" gradientUnits="userSpaceOnUse">
<stop stop-color="#0052CC"/>
<stop offset="1" stop-color="#2684FF"/>
</linearGradient>
<clipPath id="clip0_323_40373">
<rect width="204.8" height="28" fill="white"/>
</clipPath>
</defs>
</svg>
