<svg width="84" height="28" viewBox="0 0 84 28" fill="none" xmlns="http://www.w3.org/2000/svg">
<g clip-path="url(#clip0_323_40377)">
<path d="M8.22514 23.9273C8.22514 25.9 6.63426 27.4909 4.66154 27.4909C2.68881 27.4909 1.0979 25.9 1.0979 23.9273C1.0979 21.9546 2.68881 20.3636 4.66154 20.3636C6.63426 20.3636 8.22514 21.9546 8.22514 23.9273Z" fill="#191919"/>
<path d="M20.1251 23.991C20.1251 25.391 18.9796 26.5365 17.5796 26.5365C16.1796 26.5365 15.0342 25.391 15.0342 23.991C15.0342 22.591 16.1796 21.4456 17.5796 21.4456C18.9796 21.4456 20.1251 22.591 20.1251 23.991Z" fill="#191919"/>
<path d="M29.3524 23.9909C29.3524 24.6272 28.8433 25.1363 28.207 25.1363C27.5706 25.1363 27.0615 24.6272 27.0615 23.9909C27.0615 23.3545 27.5706 22.8454 28.207 22.8454C28.8433 22.8454 29.3524 23.3545 29.3524 23.9909Z" fill="#191919"/>
<path d="M16.8798 16.4182C16.2434 16.4182 15.798 15.9091 15.798 15.3364V10.6273C15.798 9.03641 15.0343 7.76368 13.3162 7.76368C11.598 7.76368 10.5162 9.10005 10.5162 10.6273V15.2728C10.5162 15.9091 10.0707 16.3546 9.43434 16.3546C8.79798 16.3546 8.35252 15.8455 8.35252 15.2728V10.5637C8.35252 8.97277 7.52525 7.70005 5.80707 7.70005C4.02525 7.70005 3.13434 9.03641 3.13434 10.5637V15.2091C3.13434 15.8455 2.68889 16.291 2.05252 16.291C1.41616 16.291 0.970703 15.7819 0.970703 15.2091V7.00005C0.970703 6.36368 1.41616 5.85459 2.05252 5.85459C2.81616 5.85459 3.13434 6.36368 3.13434 7.00005V7.76368C3.7707 6.55459 5.04343 5.79095 6.44343 5.79095C8.09798 5.79095 9.3707 6.61823 10.0071 7.89095C10.898 6.49095 12.2343 5.79095 13.8889 5.79095C16.6889 5.79095 18.0889 7.76368 18.0889 10.5V15.3364C18.0252 15.9091 17.5798 16.4182 16.8798 16.4182Z" fill="#191919"/>
<path d="M21.0796 16.4183C20.4432 16.4183 19.9978 15.9092 19.9978 15.3365V7.00014C19.9978 6.36378 20.4432 5.91832 21.0796 5.91832C21.716 5.91832 22.1614 6.42741 22.1614 7.00014V15.3365C22.1614 15.9092 21.716 16.4183 21.0796 16.4183ZM21.0796 1.71832C21.7796 1.71832 22.3523 2.29105 22.3523 2.99105C22.3523 3.69105 21.7796 4.26378 21.0796 4.26378C20.3796 4.26378 19.8069 3.69105 19.8069 2.99105C19.8069 2.29105 20.3796 1.71832 21.0796 1.71832Z" fill="#191919"/>
<path d="M28.3344 9.67257L31.1344 6.23621C31.3253 6.0453 31.5799 5.91803 31.8344 5.91803C32.4708 5.91803 32.8526 6.29985 32.8526 6.87258C32.8526 7.06348 32.789 7.31803 32.5981 7.50894L29.5435 11.1362L32.6617 14.8271C32.8526 15.018 32.9162 15.2089 32.9162 15.4635C32.9162 15.9726 32.4708 16.418 31.9617 16.418C31.6435 16.418 31.389 16.2908 31.1981 16.0362L28.3981 12.5362L25.5981 16.0362C25.4072 16.2908 25.1526 16.418 24.8344 16.418C24.3253 16.418 23.8799 15.9726 23.8799 15.4635C23.8799 15.2089 23.9435 15.018 24.1344 14.8271L27.2526 11.1362L24.1981 7.50894C24.0072 7.31803 23.9435 7.06348 23.9435 6.87258C23.9435 6.29985 24.3253 5.91803 24.9617 5.91803C25.2799 5.91803 25.4708 6.0453 25.6617 6.23621L28.3344 9.67257Z" fill="#191919"/>
<path d="M39.8524 7.63649C37.9433 7.63649 36.7342 9.29104 36.7342 11.2001C36.7342 13.0456 38.0069 14.7638 39.8524 14.7638C41.7615 14.7638 42.9706 13.3638 42.9706 11.2001C42.9706 9.03649 41.7615 7.63649 39.8524 7.63649ZM40.2978 16.5456C38.7069 16.5456 37.4342 15.7183 36.7342 14.5092V19.7274C36.7342 20.3638 36.2887 20.8092 35.6524 20.8092C35.016 20.8092 34.5706 20.3001 34.5706 19.7274V7.00013C34.5706 6.36377 34.9524 5.91831 35.5887 5.91831C36.2251 5.91831 36.6706 6.4274 36.6706 7.06377V7.89104C37.3706 6.68195 38.7706 5.85468 40.2978 5.85468C42.9706 5.85468 45.1342 8.08195 45.1342 11.2001C45.1342 14.3819 42.9706 16.5456 40.2978 16.5456Z" fill="#191919"/>
<path d="M51.3706 7.70013C49.5251 7.70013 48.1888 9.29104 48.1888 11.2001C48.1888 13.2365 49.2706 14.7001 51.3706 14.7001C53.2797 14.7001 54.5524 13.0456 54.5524 11.2001C54.4888 8.97286 53.2161 7.70013 51.3706 7.70013ZM56.7161 15.3365C56.7161 15.9729 56.2706 16.4183 55.6342 16.4183C54.9979 16.4183 54.5524 15.9092 54.5524 15.3365V14.8274C53.9161 15.7819 52.6433 16.5456 51.1797 16.5456C47.9342 16.5456 46.0251 14.1274 46.0251 11.2001C46.0251 8.27286 48.1251 5.85468 51.4342 5.85468C54.807 5.85468 56.7797 8.08195 56.7797 11.2001V15.3365H56.7161Z" fill="#191919"/>
<path d="M63.2708 5.79095C66.0707 5.79095 68.1707 7.95459 68.1707 10.691V15.3364C68.1707 15.9728 67.6616 16.4182 67.0889 16.4182C66.4525 16.4182 66.0071 15.9091 66.0071 15.3364V10.4364C66.0071 8.97277 64.8616 7.82732 63.3344 7.82732C61.8071 7.82732 60.6617 8.97277 60.6617 10.4364V15.3364C60.6617 15.9728 60.1526 16.4182 59.5799 16.4182C58.9435 16.4182 58.498 15.9091 58.498 15.3364V10.691C58.4344 7.95459 60.4708 5.79095 63.2708 5.79095Z" fill="#191919"/>
<path d="M74.725 7.57277C73.1341 7.57277 72.0523 8.71823 71.7977 10.1819H77.525C77.3341 8.71823 76.3159 7.57277 74.725 7.57277ZM79.5614 11.2C79.5614 11.5819 79.3705 11.9637 78.7341 11.9637H71.7977C71.925 13.5546 73.0068 14.7637 74.9159 14.7637C76.125 14.7637 76.825 14.3182 77.5887 13.6182C77.7796 13.4273 78.0341 13.2364 78.2887 13.2364C78.7977 13.2364 79.1796 13.6182 79.1796 14.1273C79.1796 14.3819 79.0523 14.5728 78.925 14.7637C78.0341 15.7819 76.4432 16.4819 74.7887 16.4819C71.2887 16.4819 69.5068 14.0637 69.5068 11.1364C69.5068 8.08186 71.7341 5.79095 74.725 5.79095C77.6523 5.79095 79.5614 8.20914 79.5614 11.2Z" fill="#191919"/>
<path d="M82.1707 16.4181C81.5343 16.4181 81.0889 15.909 81.0889 15.3362V1.59079C81.0889 0.954424 81.5343 0.508972 82.1707 0.508972C82.807 0.508972 83.2525 1.01806 83.2525 1.59079V15.3362C83.2525 15.909 82.807 16.4181 82.1707 16.4181Z" fill="#191919"/>
</g>
<defs>
<clipPath id="clip0_323_40377">
<rect width="82.7273" height="28" fill="white" transform="translate(0.906982)"/>
</clipPath>
</defs>
</svg>
