<svg width="147" height="28" viewBox="0 0 147 28" fill="none" xmlns="http://www.w3.org/2000/svg">
<g clip-path="url(#clip0_323_40376)">
<path fill-rule="evenodd" clip-rule="evenodd" d="M131.122 21.4991L136.533 14.2185L131.542 7.33936H135.817L138.707 11.6314L141.624 7.33936H145.874L140.808 14.1939L146.145 21.4991H141.945L138.658 16.8794L135.471 21.4991H131.122Z" fill="#191919"/>
<path fill-rule="evenodd" clip-rule="evenodd" d="M117.515 14.7022C117.515 19.3755 120.067 21.8598 124.589 21.8598C128.82 21.8598 131.688 19.3755 131.688 14.7022V14.3086C131.688 9.58597 128.771 6.9787 124.589 6.9787C120.505 6.9787 117.515 9.53678 117.515 14.3086V14.7022ZM128.003 14.7032C128.003 17.2957 126.711 18.7032 124.589 18.7032C122.492 18.7032 121.199 17.2711 121.199 14.7032V14.3575C121.199 11.5921 122.565 10.1353 124.613 10.1353C126.686 10.1353 128.003 11.6909 128.003 14.3575V14.7032Z" fill="#191919"/>
<path fill-rule="evenodd" clip-rule="evenodd" d="M105.151 18.9094C105.918 20.7289 107.452 21.8598 109.802 21.8598C113.438 21.8598 115.813 19.2044 115.813 14.4838V14.0659C115.813 9.34527 113.29 7.00954 109.901 6.98495C107.65 6.98495 106.067 7.993 105.275 9.83699V2.55939H101.639V21.491H104.855L105.151 18.9094ZM112.127 14.5177C112.127 17.3244 110.831 18.7032 108.701 18.7032C106.67 18.7032 105.324 17.1767 105.324 14.5177V14.2222C105.324 11.7849 106.719 10.1352 108.75 10.1352C110.708 10.1352 112.127 11.5632 112.127 14.173V14.5177Z" fill="#191919"/>
<path fill-rule="evenodd" clip-rule="evenodd" d="M85.4805 7.35613V26.3693H89.1104V19.2489C89.8759 20.9031 91.3823 21.9153 93.6541 21.9153C97.0124 21.9153 99.6546 19.4711 99.6546 14.7803V14.3853C99.6546 9.5957 97.284 6.9787 93.6541 6.9787C91.3082 6.9787 89.7277 8.18844 88.9623 10.0154L88.5918 7.35613H85.4805ZM95.9694 14.6901C95.9694 17.2999 94.6233 18.7032 92.5186 18.7032C90.4873 18.7032 89.1657 17.1275 89.1657 14.6162V14.3453C89.1657 11.711 90.5363 10.1353 92.592 10.1353C94.5254 10.1353 95.9694 11.5387 95.9694 14.37V14.6901Z" fill="#191919"/>
<path fill-rule="evenodd" clip-rule="evenodd" d="M69.3218 14.7022C69.3218 19.3755 71.8989 21.8598 76.421 21.8598C80.6514 21.8598 83.4958 19.3755 83.4958 14.7022V14.3086C83.4958 9.58597 80.6026 6.9787 76.421 6.9787C72.3365 6.9787 69.3218 9.53678 69.3218 14.3086V14.7022ZM79.8106 14.7032C79.8106 17.2957 78.4938 18.7032 76.3966 18.7032C74.2995 18.7032 73.007 17.2711 73.007 14.7032V14.3575C73.007 11.5921 74.3726 10.1353 76.421 10.1353C78.4938 10.1353 79.8106 11.6909 79.8106 14.3575V14.7032Z" fill="#191919"/>
<path fill-rule="evenodd" clip-rule="evenodd" d="M59.3999 21.4992H63.1177V14.9943C63.1177 11.9883 63.8613 10.9289 66.9347 10.9289H68.4713V7.15912H67.5543C64.9023 7.15912 63.44 8.31715 62.8699 10.584L62.3989 7.33867H59.3999V21.4992Z" fill="#191919"/>
<path fill-rule="evenodd" clip-rule="evenodd" d="M42.958 4.00232V21.499H49.7084C54.1055 21.499 57.4158 18.9448 57.4158 13.2964V12.093C57.4158 6.4691 53.9079 4.00232 49.6096 4.00232H42.958ZM46.6434 7.15893H49.4555C51.9953 7.15893 53.7304 8.76361 53.7304 12.2939V13.2074C53.7304 16.7376 52.0456 18.3424 49.5812 18.3424H46.6434V7.15893Z" fill="#191919"/>
<path d="M8.70293 0.358765L0.614014 5.50293L8.70293 10.6471L16.7932 5.50293L24.8822 10.6471L32.971 5.50293L24.8822 0.358765L16.7932 5.50293L8.70293 0.358765Z" fill="#0056FE"/>
<path d="M8.70293 20.9356L0.614014 15.7913L8.70293 10.6471L16.7932 15.7913L8.70293 20.9356Z" fill="#0056FE"/>
<path d="M16.7935 15.7913L24.8824 10.6471L32.9713 15.7913L24.8824 20.9356L16.7935 15.7913Z" fill="#0056FE"/>
<path d="M16.7931 27.7944L8.70288 22.6502L16.7931 17.506L24.8821 22.6502L16.7931 27.7944Z" fill="#0056FE"/>
</g>
<defs>
<clipPath id="clip0_323_40376">
<rect width="146.72" height="28" fill="white" transform="translate(0.078125)"/>
</clipPath>
</defs>
</svg>
