<svg width="19" height="19" viewBox="0 0 19 19" fill="none" xmlns="http://www.w3.org/2000/svg">
<g clip-path="url(#clip0_687_16891)">
<path d="M3.93461 1.11328H15.0622C16.7509 1.11328 18.1121 2.47796 18.1121 4.16313V14.86C18.1121 16.5486 16.7474 17.9098 15.0622 17.9098H3.93461C2.246 17.9098 0.884766 16.5452 0.884766 14.86V4.16313C0.884766 2.47451 2.24944 1.11328 3.93461 1.11328Z" fill="#470137"/>
<path d="M9.9447 5.52773L7.79086 9.08071L10.0894 12.8508C10.1032 12.8784 10.1101 12.9094 10.1032 12.937C10.0963 12.9645 10.0688 12.9438 10.024 12.9507H8.38015C8.26643 12.9507 8.18716 12.9439 8.13547 12.8715C7.98384 12.5682 7.82532 12.2753 7.67713 11.9755C7.5255 11.6826 7.36009 11.3793 7.18778 11.0691C7.01547 10.759 6.84316 10.4523 6.67086 10.1352H6.65707C6.50544 10.4454 6.34003 10.7521 6.17461 11.0623C6.00919 11.3724 5.84378 11.6791 5.68526 11.9824C5.51984 12.2856 5.35443 12.5923 5.18901 12.8887C5.16144 12.9611 5.10286 12.968 5.02359 12.968H3.4487C3.42113 12.968 3.39701 12.9818 3.39701 12.9473C3.39012 12.9197 3.39701 12.8887 3.41079 12.868L5.6439 9.20133L3.46938 5.52084C3.4487 5.49327 3.44181 5.46225 3.45559 5.44847C3.46938 5.42779 3.50039 5.4209 3.52796 5.4209H5.15799C5.19246 5.4209 5.23036 5.42779 5.25793 5.43468C5.2855 5.44847 5.30963 5.46914 5.3303 5.50016C5.46815 5.81031 5.62323 6.11702 5.78864 6.42717C5.96095 6.73733 6.12636 7.03714 6.30556 7.34041C6.47787 7.64022 6.63639 7.94348 6.78803 8.25364H6.80181C6.95344 7.93659 7.11196 7.62988 7.26704 7.32662C7.42556 7.02681 7.59098 6.72354 7.75639 6.42028C7.92181 6.12047 8.08033 5.81031 8.23886 5.51739C8.24575 5.48982 8.25953 5.45881 8.28366 5.44502C8.31123 5.43124 8.34224 5.42434 8.3767 5.43124H9.89301C9.92747 5.42434 9.96538 5.44502 9.97227 5.48293C9.97572 5.48293 9.95849 5.51394 9.9447 5.52773Z" fill="#FF61F6"/>
<path d="M13.2633 13.1022C12.7326 13.1091 12.2019 13.0023 11.7195 12.7783C11.268 12.5715 10.8924 12.2269 10.6339 11.803C10.3686 11.3654 10.2376 10.8209 10.2376 10.1661C10.2307 9.63539 10.3686 9.11158 10.6339 8.64979C10.9062 8.18456 11.3025 7.79515 11.7746 7.53669C12.2777 7.25755 12.8808 7.1197 13.5907 7.1197C13.6252 7.1197 13.6769 7.1197 13.7424 7.12659C13.8078 7.13349 13.8802 7.13349 13.9664 7.14038V4.87281C13.9664 4.82112 13.987 4.79355 14.0387 4.79355H15.4965C15.5309 4.78666 15.5619 4.81422 15.5688 4.84524C15.5688 4.85213 15.5688 4.85902 15.5688 4.85902V11.6927C15.5688 11.8237 15.5757 11.965 15.5826 12.1235C15.5964 12.2751 15.6033 12.4164 15.6102 12.5405C15.6102 12.5922 15.5895 12.6335 15.5378 12.6542C15.1656 12.8127 14.7693 12.9265 14.3661 12.9988C14.0008 13.0643 13.6355 13.1022 13.2633 13.1022ZM13.9664 11.6652V8.50505C13.9009 8.49127 13.8354 8.47749 13.7734 8.47059C13.6941 8.4637 13.6149 8.45681 13.5356 8.45681C13.2565 8.45681 12.9739 8.51539 12.7257 8.6429C12.4811 8.76352 12.2743 8.94272 12.1158 9.17361C11.9573 9.4045 11.878 9.71121 11.878 10.0868C11.8711 10.3384 11.9125 10.59 11.9986 10.8278C12.071 11.0207 12.1778 11.1931 12.3225 11.3378C12.4604 11.4687 12.6258 11.5687 12.8119 11.6238C13.0049 11.6893 13.2082 11.7169 13.4081 11.7169C13.5149 11.7169 13.6149 11.71 13.7113 11.7031C13.8009 11.71 13.8802 11.6927 13.9664 11.6652Z" fill="#FF61F6"/>
</g>
<defs>
<clipPath id="clip0_687_16891">
<rect width="17.2308" height="17.2308" fill="white" transform="translate(0.884766 0.895996)"/>
</clipPath>
</defs>
</svg>
