<svg width="20" height="19" viewBox="0 0 20 19" fill="none" xmlns="http://www.w3.org/2000/svg">
<mask id="mask0_204_22891" style="mask-type:luminance" maskUnits="userSpaceOnUse" x="0" y="0" width="20" height="19">
<path d="M0.459534 0.0981445H19.3082V18.9468H0.459534V0.0981445Z" fill="white"/>
</mask>
<g mask="url(#mask0_204_22891)">
<path d="M18.9531 8.68311L10.7233 0.453977C10.6106 0.341169 10.4768 0.251681 10.3294 0.190625C10.1821 0.12957 10.0242 0.0981445 9.86468 0.0981445C9.7052 0.0981445 9.54728 0.12957 9.39995 0.190625C9.25261 0.251681 9.11875 0.341169 9.00602 0.453977L7.29771 2.16311L9.46509 4.33049C9.71991 4.24395 9.99385 4.23044 10.2559 4.29149C10.518 4.35253 10.7578 4.4857 10.9482 4.67593C11.1396 4.86753 11.2732 5.10914 11.3337 5.37312C11.3943 5.63709 11.3793 5.91278 11.2905 6.16864L13.3802 8.25767C13.6361 8.16878 13.9119 8.15381 14.176 8.21447C14.44 8.27513 14.6816 8.40897 14.8731 8.60065C15.0072 8.73475 15.1136 8.89396 15.1862 9.06918C15.2588 9.2444 15.2962 9.43221 15.2962 9.62188C15.2962 9.81154 15.2588 9.99935 15.1862 10.1746C15.1136 10.3498 15.0072 10.509 14.8731 10.6431C14.6019 10.914 14.2343 11.0661 13.851 11.0661C13.4678 11.0661 13.1002 10.914 12.829 10.6431C12.6276 10.4413 12.4903 10.1845 12.4345 9.90489C12.3788 9.62529 12.407 9.33544 12.5156 9.07183L10.5668 7.12372V12.2513C10.7725 12.3529 10.951 12.5021 11.0876 12.6864C11.2242 12.8707 11.3149 13.085 11.3522 13.3113C11.3894 13.5377 11.3723 13.7697 11.3021 13.9881C11.2318 14.2065 11.1106 14.405 10.9484 14.5672C10.8143 14.7013 10.6551 14.8077 10.4798 14.8803C10.3046 14.9529 10.1168 14.9903 9.92714 14.9903C9.73748 14.9903 9.54967 14.9529 9.37445 14.8803C9.19922 14.8077 9.04001 14.7013 8.90591 14.5672C8.77176 14.4331 8.66533 14.2739 8.59273 14.0986C8.52012 13.9234 8.48275 13.7356 8.48275 13.5459C8.48275 13.3562 8.52012 13.1684 8.59273 12.9931C8.66533 12.8179 8.77176 12.6586 8.90591 12.5245C9.04105 12.3891 9.20168 12.2818 9.37853 12.2089V7.03408C9.20241 6.96154 9.04236 6.85491 8.90757 6.72033C8.77278 6.58575 8.66591 6.42586 8.59309 6.24985C8.52028 6.07384 8.48296 5.88518 8.48328 5.6947C8.48359 5.50423 8.52154 5.31569 8.59494 5.13993L6.45791 3.00249L0.814426 8.64454C0.587012 8.8724 0.45929 9.18118 0.45929 9.50311C0.45929 9.82504 0.587012 10.1338 0.814426 10.3617L9.04458 18.5918C9.27243 18.8192 9.58116 18.9469 9.90304 18.9469C10.2249 18.9469 10.5337 18.8192 10.7615 18.5918L18.9531 10.4002C19.1805 10.1724 19.3082 9.8636 19.3082 9.54167C19.3082 9.21974 19.1805 8.91097 18.9531 8.68311Z" fill="#F03C2E"/>
</g>
</svg>
