<svg width="20" height="23" viewBox="0 0 20 23" fill="none" xmlns="http://www.w3.org/2000/svg">
<g clip-path="url(#clip0_204_22822)">
<path d="M19.759 11.3082C19.759 9.99635 18.1254 8.75316 15.6207 7.98222C16.1987 5.41511 15.9418 3.37273 14.8099 2.71884C14.5489 2.56546 14.2439 2.49281 13.9107 2.49281V3.39291C14.0954 3.39291 14.2439 3.42924 14.3683 3.49785C14.9142 3.81269 15.151 5.01148 14.9664 6.55336C14.9222 6.93277 14.85 7.33237 14.7617 7.74004C13.975 7.5463 13.116 7.39695 12.2128 7.30008C11.671 6.55336 11.109 5.87525 10.5431 5.28191C11.8516 4.0589 13.0799 3.38887 13.9147 3.38887V2.48877C12.8109 2.48877 11.3659 3.27989 9.90484 4.65224C8.44377 3.28796 6.99876 2.50491 5.89493 2.50491V3.40502C6.72581 3.40502 7.95809 4.07101 9.26662 5.28595C8.70467 5.87929 8.14273 6.55336 7.60887 7.30008C6.70173 7.39695 5.84275 7.5463 5.05602 7.74408C4.9637 7.34044 4.89546 6.94892 4.84729 6.57354C4.65864 5.03166 4.89145 3.83287 5.43333 3.514C5.55374 3.44134 5.71029 3.40905 5.89493 3.40905V2.50895C5.55776 2.50895 5.2527 2.58161 4.98778 2.73499C3.85987 3.38887 3.60699 5.42722 4.18901 7.98626C1.69235 8.76123 0.0667114 10.0004 0.0667114 11.3082C0.0667114 12.62 1.70038 13.8632 4.20507 14.6341C3.62706 17.2012 3.88395 19.2436 5.01588 19.8975C5.27678 20.0509 5.58184 20.1235 5.91901 20.1235C7.02284 20.1235 8.46785 19.3324 9.92892 17.96C11.39 19.3243 12.835 20.1074 13.9388 20.1074C14.276 20.1074 14.5811 20.0347 14.846 19.8813C15.9739 19.2274 16.2268 17.1891 15.6447 14.6301C18.1334 13.8591 19.759 12.6159 19.759 11.3082ZM14.5329 8.61592C14.3844 9.13661 14.1997 9.67344 13.991 10.2103C13.8264 9.88737 13.6538 9.56446 13.4652 9.24156C13.2805 8.91865 13.0839 8.60382 12.8872 8.29705C13.4572 8.38182 14.0071 8.48676 14.5329 8.61592ZM12.6945 12.9146C12.3814 13.4595 12.0603 13.9762 11.7272 14.4565C11.1291 14.509 10.523 14.5372 9.91287 14.5372C9.30676 14.5372 8.70066 14.509 8.1066 14.4605C7.77344 13.9802 7.44832 13.4676 7.13523 12.9267C6.83017 12.398 6.55321 11.8611 6.30033 11.3203C6.5492 10.7794 6.83017 10.2385 7.13122 9.70977C7.4443 9.16487 7.76542 8.64822 8.09857 8.16789C8.69665 8.11542 9.30275 8.08716 9.91287 8.08716C10.519 8.08716 11.1251 8.11542 11.7191 8.16386C12.0523 8.64418 12.3774 9.15679 12.6905 9.69766C12.9956 10.2264 13.2725 10.7633 13.5254 11.3041C13.2725 11.845 12.9956 12.3859 12.6945 12.9146ZM13.991 12.3899C14.2078 12.9308 14.3924 13.4716 14.5449 13.9964C14.0191 14.1255 13.4652 14.2345 12.8912 14.3193C13.0879 14.0085 13.2846 13.6896 13.4692 13.3627C13.6538 13.0397 13.8264 12.7128 13.991 12.3899ZM9.92089 16.6967C9.5476 16.3092 9.1743 15.8773 8.80502 15.405C9.16628 15.4212 9.53556 15.4333 9.90885 15.4333C10.2862 15.4333 10.6595 15.4252 11.0247 15.405C10.6635 15.8773 10.2902 16.3092 9.92089 16.6967ZM6.93453 14.3193C6.36456 14.2345 5.81465 14.1296 5.28883 14.0004C5.43734 13.4797 5.62198 12.9429 5.83071 12.406C5.99528 12.7289 6.16788 13.0519 6.35653 13.3748C6.54518 13.6977 6.73785 14.0125 6.93453 14.3193ZM9.90082 5.91965C10.2741 6.30714 10.6474 6.73903 11.0167 7.21128C10.6554 7.19514 10.2862 7.18303 9.91287 7.18303C9.53556 7.18303 9.16226 7.1911 8.797 7.21128C9.15825 6.73903 9.53154 6.30714 9.90082 5.91965ZM6.93052 8.29705C6.73384 8.60785 6.53716 8.92672 6.35252 9.25367C6.16787 9.57657 5.99528 9.89948 5.83071 10.2224C5.61395 9.68152 5.42931 9.14065 5.27678 8.61592C5.80261 8.4908 6.35653 8.38182 6.93052 8.29705ZM3.29792 13.3505C1.87699 12.7411 0.957802 11.9419 0.957802 11.3082C0.957802 10.6745 1.87699 9.87122 3.29792 9.26577C3.64312 9.11643 4.02043 8.98323 4.40978 8.85811C4.63857 9.64923 4.93961 10.4726 5.31291 11.3162C4.94363 12.1558 4.6466 12.9752 4.42182 13.7622C4.02444 13.6371 3.64713 13.4999 3.29792 13.3505ZM5.45741 19.1185C4.91152 18.8036 4.6747 17.6048 4.85934 16.063C4.90349 15.6835 4.97574 15.2839 5.06405 14.8763C5.85078 15.07 6.70976 15.2194 7.61289 15.3162C8.15477 16.063 8.71672 16.7411 9.28268 17.3344C7.97414 18.5574 6.74588 19.2274 5.91098 19.2274C5.73036 19.2234 5.57783 19.1871 5.45741 19.1185ZM14.9784 16.0428C15.1671 17.5847 14.9343 18.7835 14.3924 19.1023C14.272 19.175 14.1154 19.2073 13.9308 19.2073C13.0999 19.2073 11.8676 18.5413 10.5591 17.3263C11.1211 16.733 11.683 16.0589 12.2169 15.3122C13.124 15.2153 13.983 15.066 14.7697 14.8682C14.862 15.2759 14.9343 15.6674 14.9784 16.0428ZM16.5238 13.3505C16.1786 13.4999 15.8013 13.6331 15.4119 13.7582C15.1831 12.9671 14.8821 12.1437 14.5088 11.3001C14.8781 10.4605 15.1751 9.64115 15.3999 8.85407C15.7973 8.97919 16.1746 9.11643 16.5278 9.26577C17.9487 9.87526 18.8679 10.6745 18.8679 11.3082C18.8639 11.9419 17.9447 12.7451 16.5238 13.3505Z" fill="#00A9D8"/>
<path d="M9.90877 13.1526C10.9219 13.1526 11.7431 12.3267 11.7431 11.308C11.7431 10.2892 10.9219 9.46338 9.90877 9.46338C8.89568 9.46338 8.0744 10.2892 8.0744 11.308C8.0744 12.3267 8.89568 13.1526 9.90877 13.1526Z" fill="#00A9D8"/>
</g>
<defs>
<clipPath id="clip0_204_22822">
<rect width="19.6923" height="22.5641" fill="white" transform="translate(0.0667114 0.0239258)"/>
</clipPath>
</defs>
</svg>
