<svg width="132" height="29" viewBox="0 0 132 29" fill="none" xmlns="http://www.w3.org/2000/svg">
<g clip-path="url(#clip0_373_44593)">
<path d="M52.7878 15.0499L50.5188 9.01063C50.4979 8.95621 50.4609 8.90942 50.4128 8.87642C50.3647 8.84342 50.3077 8.82575 50.2494 8.82575C50.1911 8.82575 50.1341 8.84342 50.0861 8.87642C50.038 8.90942 50.0011 8.95621 49.9801 9.01063L47.7111 15.0509C47.6953 15.0938 47.6903 15.1398 47.6964 15.185C47.7026 15.2303 47.7197 15.2733 47.7462 15.3104C47.7728 15.3476 47.808 15.3776 47.8489 15.3981C47.8897 15.4185 47.9349 15.4285 47.9805 15.4274H52.5377C52.6056 15.4282 52.6711 15.4032 52.7213 15.3575C52.7715 15.3119 52.8024 15.2488 52.808 15.1812C52.8123 15.1368 52.8053 15.092 52.7878 15.0509V15.0499ZM53.845 18.4389H46.6538C46.5952 18.4393 46.538 18.4575 46.4899 18.4911C46.4418 18.5247 46.405 18.5722 46.3845 18.6272L44.9613 22.3946C44.9408 22.4494 44.9042 22.4968 44.8563 22.5304C44.8084 22.5641 44.7515 22.5823 44.6929 22.5829H41.5752C41.5276 22.5836 41.4806 22.5724 41.4384 22.5503C41.3962 22.5282 41.3602 22.4961 41.3335 22.4566C41.3069 22.4171 41.2905 22.3716 41.2859 22.3242C41.2812 22.2768 41.2884 22.229 41.3068 22.1851L48.4787 4.58083C48.5001 4.52756 48.5378 4.48238 48.5862 4.4517C48.6348 4.42103 48.6918 4.40641 48.749 4.40994H51.7286C51.7852 4.41028 51.8405 4.42648 51.8883 4.4567C51.9361 4.48691 51.9744 4.52991 51.9989 4.58083L59.1698 22.1851C59.1883 22.2291 59.1955 22.2771 59.1908 22.3246C59.1861 22.3721 59.1696 22.4177 59.1429 22.4573C59.1162 22.4968 59.0801 22.5291 59.0377 22.5512C58.9954 22.5733 58.9483 22.5845 58.9005 22.5838H55.7876C55.7288 22.5834 55.6716 22.565 55.6235 22.5312C55.5754 22.4974 55.5387 22.4498 55.5183 22.3946L54.0951 18.6272C54.0816 18.5716 54.0493 18.5225 54.0037 18.488C53.9582 18.4536 53.9022 18.4359 53.845 18.4379V18.4389ZM60.6519 10.5815H63.3254C63.4009 10.583 63.473 10.6134 63.5266 10.6664C63.5804 10.7193 63.6117 10.7909 63.6141 10.8663V22.301C63.6117 22.3763 63.5803 22.4476 63.5265 22.5003C63.4728 22.553 63.4007 22.5829 63.3254 22.5838H60.6529C60.5775 22.5832 60.5053 22.5533 60.4513 22.5006C60.3973 22.4479 60.3657 22.3764 60.3632 22.301V10.8663C60.3628 10.8284 60.3701 10.7908 60.3846 10.7558C60.399 10.7207 60.4205 10.689 60.4475 10.6623C60.4745 10.6358 60.5067 10.6149 60.5419 10.601C60.5773 10.5871 60.615 10.5804 60.6529 10.5815H60.6519ZM73.3446 13.3641C73.3424 13.4397 73.3112 13.5116 73.2574 13.5648C73.2037 13.618 73.1316 13.6485 73.0559 13.6499H72.9787C71.6521 13.6499 70.6904 13.9512 70.0754 14.5768C69.4603 15.2025 69.1523 16.224 69.1523 17.6607V22.2807C69.1499 22.356 69.1187 22.4274 69.0652 22.4804C69.0118 22.5334 68.9399 22.5639 68.8646 22.5655H66.2287C66.1535 22.5639 66.0817 22.5334 66.0282 22.4804C65.9747 22.4274 65.9435 22.356 65.941 22.2807V10.8663C65.9435 10.7909 65.9748 10.7193 66.0286 10.6664C66.0823 10.6134 66.1543 10.583 66.2297 10.5815H68.8443C68.92 10.5828 68.9923 10.613 69.0462 10.666C69.1001 10.719 69.1316 10.7907 69.134 10.8663V13.1189H69.191C69.458 12.2632 69.9814 11.5103 70.6904 10.9619C71.4315 10.4392 72.3234 10.1733 73.2297 10.205H73.3639V13.3651H73.3446V13.3641ZM80.6323 13.2521C80.5574 13.2534 80.4858 13.2832 80.4323 13.3357C80.3787 13.3882 80.3473 13.4591 80.3446 13.5341V18.2863C80.3089 18.6581 80.4112 19.0288 80.6323 19.3291C80.8254 19.5357 81.1518 19.6303 81.6326 19.6303H81.902C81.9773 19.6321 82.049 19.6625 82.1026 19.7155C82.1561 19.7685 82.1873 19.8399 82.1897 19.9152V22.3C82.1873 22.3751 82.156 22.4464 82.1024 22.499C82.0489 22.5517 81.9771 22.5817 81.902 22.5829H80.7685C79.5944 22.5829 78.6916 22.2797 78.0573 21.6927C77.422 21.0883 77.115 20.2164 77.115 19.025V13.5341C77.1122 13.4588 77.0807 13.3876 77.0267 13.3351C76.9727 13.2825 76.9006 13.2528 76.8253 13.2521H75.153C75.0776 13.2505 75.0057 13.2199 74.9522 13.1667C74.8986 13.1135 74.8675 13.0417 74.8653 12.9663V10.8663C74.8675 10.791 74.8987 10.7194 74.9522 10.6664C75.0058 10.6134 75.0777 10.583 75.153 10.5815H76.8263C76.9016 10.5805 76.9736 10.5506 77.0274 10.498C77.0812 10.4453 77.1125 10.3739 77.115 10.2986V6.05711C77.1175 5.98187 77.1488 5.91048 77.2026 5.8578C77.2564 5.8051 77.3284 5.77517 77.4036 5.77421H80.0762C80.1515 5.77517 80.2235 5.8051 80.2773 5.8578C80.3311 5.91048 80.3625 5.98187 80.3649 6.05711V10.2986C80.3674 10.3739 80.3988 10.4453 80.4526 10.498C80.5063 10.5506 80.5784 10.5805 80.6536 10.5815H82.5759C82.6514 10.583 82.7235 10.6134 82.7771 10.6664C82.8309 10.7193 82.8622 10.7909 82.8646 10.8663V12.9663C82.8624 13.0419 82.8312 13.1138 82.7774 13.167C82.7237 13.2202 82.6516 13.2507 82.5759 13.2521H80.6323ZM92.8432 19.0066C93.1507 18.6813 93.3892 18.2973 93.5446 17.8775C93.6998 17.4577 93.7687 17.0109 93.747 16.5638C93.7641 16.1173 93.6932 15.6717 93.5381 15.2526C93.3831 14.8334 93.147 14.449 92.8432 14.1211C92.1923 13.5251 91.3416 13.1945 90.4589 13.1945C89.5762 13.1945 88.7256 13.5251 88.0745 14.1211C87.7671 14.4464 87.5285 14.8305 87.3733 15.2502C87.218 15.67 87.1491 16.1168 87.1708 16.5638C87.1537 17.0104 87.2247 17.456 87.3798 17.8751C87.5348 18.2942 87.7709 18.6787 88.0745 19.0066C88.3866 19.3173 88.7596 19.56 89.17 19.7195C89.5805 19.879 90.0195 19.9519 90.4594 19.9335C90.9 19.958 91.3408 19.888 91.7521 19.7282C92.1635 19.5683 92.5358 19.3223 92.8442 19.0066H92.8432ZM86.689 22.2063C85.7861 21.6944 85.0514 20.9309 84.5745 20.0088C84.068 18.9309 83.8053 17.7544 83.8053 16.5634C83.8053 15.3723 84.068 14.1959 84.5745 13.1179C85.0572 12.2003 85.7904 11.4386 86.689 10.9214C87.5921 10.4132 88.6132 10.1521 89.6493 10.1644C90.4965 10.1436 91.3357 10.3327 92.0921 10.7147C92.7607 11.0688 93.3194 11.5994 93.7074 12.249H93.7653V10.8451C93.768 10.7701 93.7994 10.699 93.8529 10.6464C93.9064 10.5938 93.978 10.5636 94.053 10.5622H96.6879C96.7631 10.5634 96.8351 10.5934 96.8888 10.6461C96.9424 10.6987 96.9739 10.77 96.9766 10.8451V22.2787C96.9744 22.3545 96.9431 22.4265 96.8891 22.4798C96.8352 22.533 96.7628 22.5634 96.687 22.5645H94.055C93.9794 22.5631 93.9072 22.5326 93.8535 22.4794C93.7998 22.4262 93.7685 22.3543 93.7663 22.2787V20.8787H93.7083C93.3204 21.5289 92.7614 22.06 92.0921 22.4139C91.3352 22.7945 90.4963 22.9832 89.6493 22.9633C88.6132 22.9757 87.5921 22.7146 86.689 22.2063ZM107.958 19.0066C108.265 18.6813 108.503 18.2972 108.659 17.8774C108.814 17.4577 108.883 17.0109 108.861 16.5638C108.879 16.1173 108.807 15.6717 108.653 15.2526C108.497 14.8334 108.261 14.449 107.958 14.1211C107.307 13.5248 106.455 13.194 105.573 13.194C104.69 13.194 103.839 13.5248 103.188 14.1211C102.881 14.4466 102.642 14.8306 102.487 15.2504C102.332 15.6702 102.263 16.1169 102.285 16.5638C102.268 17.0104 102.339 17.456 102.494 17.8751C102.649 18.2942 102.885 18.6787 103.189 19.0066C103.501 19.3173 103.873 19.56 104.285 19.7195C104.695 19.879 105.133 19.9519 105.574 19.9335C106.014 19.9579 106.455 19.8878 106.867 19.728C107.278 19.5682 107.65 19.3222 107.959 19.0066H107.958ZM103.958 22.413C103.289 22.0588 102.73 21.5278 102.342 20.8778H102.284V22.2797C102.281 22.355 102.25 22.4265 102.197 22.4795C102.143 22.5324 102.072 22.5629 101.996 22.5645H99.3229C99.2476 22.5629 99.1762 22.5324 99.1221 22.4795C99.069 22.4265 99.0371 22.355 99.0352 22.2797V4.67449C99.0371 4.59932 99.069 4.52797 99.1221 4.47515C99.1762 4.42232 99.2476 4.39207 99.3229 4.39062H101.996C102.072 4.39181 102.143 4.42183 102.197 4.47447C102.251 4.52711 102.282 4.59837 102.285 4.67352V12.2663H102.343C102.731 11.6171 103.29 11.0863 103.958 10.7312C104.715 10.3507 105.553 10.1621 106.4 10.1818C107.436 10.1693 108.458 10.4315 109.36 10.9416C110.263 11.4526 110.998 12.2152 111.475 13.1363C112.016 14.2021 112.28 15.3866 112.245 16.5812C112.27 17.7751 112.006 18.9571 111.476 20.0272C110.993 20.9454 110.259 21.7072 109.361 22.2237C108.458 22.732 107.436 22.9931 106.4 22.9807C105.552 22.9876 104.714 22.7924 103.957 22.411L103.958 22.413ZM116.746 22.5665H114.074C113.999 22.5653 113.926 22.5349 113.872 22.4816C113.818 22.4283 113.787 22.3564 113.785 22.2807V4.67545C113.788 4.59996 113.819 4.52833 113.873 4.47546C113.927 4.42258 114 4.39255 114.075 4.39159H116.747C116.822 4.39326 116.893 4.42345 116.947 4.47602C117 4.52859 117.031 4.59957 117.034 4.67449V22.2797C117.035 22.3352 117.02 22.3897 116.99 22.4363C116.96 22.483 116.917 22.5195 116.865 22.5414C116.828 22.5577 116.787 22.5656 116.747 22.5645V22.5665H116.746ZM123.034 13.3467C122.569 13.7182 122.249 14.241 122.13 14.824C122.122 14.8661 122.124 14.9095 122.134 14.951C122.145 14.9926 122.165 15.0312 122.193 15.0639C122.22 15.0966 122.255 15.1227 122.295 15.1402C122.333 15.1577 122.377 15.1661 122.419 15.1648H127.496C127.536 15.165 127.577 15.1564 127.615 15.1398C127.652 15.1232 127.685 15.0989 127.712 15.0684C127.74 15.0379 127.76 15.002 127.773 14.9631C127.785 14.9241 127.789 14.883 127.784 14.8423C127.707 14.2764 127.426 13.7581 126.995 13.3844C126.439 12.9422 125.743 12.7134 125.034 12.7394C124.319 12.7201 123.617 12.9325 123.034 13.3458L123.033 13.3467H123.034ZM129.534 11.8705C130.572 12.9856 131.091 14.5623 131.09 16.6015V16.9443C131.087 17.0195 131.057 17.0907 131.003 17.1434C130.948 17.196 130.877 17.226 130.802 17.2272H122.323C122.281 17.228 122.239 17.2378 122.202 17.2558C122.163 17.2739 122.129 17.2999 122.102 17.3319C122.074 17.3641 122.054 17.4016 122.043 17.4422C122.031 17.4827 122.028 17.5252 122.034 17.567C122.144 18.2761 122.506 18.9216 123.054 19.3851C123.727 19.9116 124.566 20.1798 125.42 20.1411C126.694 20.1233 127.914 19.615 128.823 18.7218C128.853 18.6944 128.889 18.6739 128.928 18.6618C128.967 18.6498 129.008 18.6464 129.048 18.6519C129.089 18.6574 129.127 18.6717 129.161 18.6938C129.196 18.7159 129.225 18.7452 129.246 18.7797L130.534 20.6152C130.571 20.6738 130.587 20.7428 130.58 20.8115C130.573 20.8802 130.543 20.9447 130.496 20.9946C129.856 21.5395 129.153 22.0039 128.4 22.3772C127.463 22.7952 126.445 23.0019 125.419 22.9826C124.217 23.0099 123.026 22.7361 121.958 22.1861C120.994 21.6798 120.198 20.9038 119.669 19.9528C119.109 18.933 118.824 17.785 118.843 16.6218C118.822 15.4566 119.093 14.3047 119.632 13.2714C120.137 12.3236 120.904 11.5416 121.843 11.0198C122.862 10.4638 124.008 10.1829 125.17 10.205C127.054 10.1827 128.496 10.7514 129.534 11.8695V11.8705ZM63.9598 6.34387C63.9653 6.7318 63.8557 7.11266 63.6447 7.43829C63.4338 7.76392 63.1311 8.0197 62.7748 8.17329C62.4185 8.32688 62.0247 8.3714 61.6431 8.30121C61.2615 8.23102 60.9093 8.04927 60.6311 7.77893C60.3528 7.50861 60.1609 7.16183 60.0797 6.78246C59.9984 6.40309 60.0315 6.00815 60.1747 5.64756C60.3178 5.28697 60.5647 4.97694 60.8841 4.75665C61.2035 4.53636 61.581 4.41571 61.9689 4.40994H61.9785C62.4962 4.40754 62.9939 4.60865 63.3645 4.96988C63.7351 5.33112 63.949 5.82354 63.9598 6.34097V6.3429V6.34387Z" fill="#181D26"/>
<path d="M15.795 0.72627L3.66438 5.7457C2.98999 6.02506 2.99678 6.98323 3.67578 7.25229L15.857 12.0829C16.9273 12.5073 18.1192 12.5073 19.1895 12.0829L31.3708 7.25229C32.0495 6.98323 32.0566 6.02506 31.3819 5.74588L19.2516 0.72627C18.1449 0.268327 16.9017 0.268327 15.795 0.72627Z" fill="#FCB400"/>
<path d="M18.604 14.7206V26.7882C18.604 27.3619 19.1827 27.7552 19.7163 27.5437L33.2899 22.275C33.4413 22.2151 33.5712 22.111 33.6626 21.9762C33.7541 21.8415 33.803 21.6824 33.803 21.5196V9.45217C33.803 8.87819 33.2243 8.48518 32.6907 8.69667L19.1171 13.9653C18.9657 14.0254 18.8359 14.1294 18.7444 14.2642C18.653 14.3989 18.604 14.5579 18.604 14.7208" fill="#18BFFF"/>
<path d="M15.4344 15.3431L11.4061 17.2881L10.9971 17.4858L2.49343 21.5603C1.95458 21.8203 1.26639 21.4275 1.26639 20.8287V9.50247C1.26639 9.28583 1.37747 9.09879 1.52644 8.9581C1.58754 8.89725 1.65688 8.84525 1.73241 8.80362C1.93545 8.68169 2.22529 8.64914 2.47173 8.74661L15.3667 13.856C16.0222 14.116 16.0737 15.0345 15.4344 15.3432" fill="#F82B60"/>
<path d="M15.4343 15.3431L11.406 17.2881L1.5264 8.95792C1.58752 8.89713 1.65686 8.84519 1.73238 8.80362C1.93541 8.68169 2.22526 8.64914 2.4717 8.74661L15.3667 13.856C16.0221 14.116 16.0736 15.0345 15.4343 15.3432" fill="black" fill-opacity="0.25"/>
</g>
<defs>
<clipPath id="clip0_373_44593">
<rect width="131.31" height="28" fill="white" transform="translate(0.511841 0.382812)"/>
</clipPath>
</defs>
</svg>
