<svg width="147" height="29" viewBox="0 0 147 29" fill="none" xmlns="http://www.w3.org/2000/svg">
<g clip-path="url(#clip0_373_44594)">
<path fill-rule="evenodd" clip-rule="evenodd" d="M131.185 21.8824L136.597 14.6018L131.605 7.72266H135.88L138.771 12.0147L141.687 7.72266H145.937L140.872 14.5772L146.208 21.8824H142.008L138.721 17.2627L135.534 21.8824H131.185Z" fill="black"/>
<path fill-rule="evenodd" clip-rule="evenodd" d="M117.578 15.0848C117.578 19.7581 120.13 22.2425 124.652 22.2425C128.883 22.2425 131.751 19.7581 131.751 15.0848V14.6912C131.751 9.9686 128.834 7.36133 124.652 7.36133C120.568 7.36133 117.578 9.91941 117.578 14.6912V15.0848ZM128.067 15.0858C128.067 17.6784 126.774 19.0859 124.652 19.0859C122.555 19.0859 121.263 17.6537 121.263 15.0858V14.7402C121.263 11.9748 122.628 10.5179 124.676 10.5179C126.75 10.5179 128.067 12.0735 128.067 14.7402V15.0858Z" fill="black"/>
<path fill-rule="evenodd" clip-rule="evenodd" d="M105.215 19.2914C105.981 21.1109 107.515 22.2419 109.865 22.2419C113.501 22.2419 115.877 19.5864 115.877 14.8659V14.4479C115.877 9.72728 113.353 7.39156 109.964 7.36697C107.713 7.36697 106.13 8.37502 105.338 10.219V2.94141H101.702V21.873H104.918L105.215 19.2914ZM112.191 14.8997C112.191 17.7064 110.894 19.0852 108.765 19.0852C106.733 19.0852 105.387 17.5587 105.387 14.8997V14.6042C105.387 12.1669 106.782 10.5173 108.814 10.5173C110.771 10.5173 112.191 11.9452 112.191 14.5551V14.8997Z" fill="black"/>
<path fill-rule="evenodd" clip-rule="evenodd" d="M85.5436 7.73876V26.7519H89.1736V19.6315C89.9391 21.2858 91.4455 22.2979 93.7173 22.2979C97.0756 22.2979 99.7178 19.8537 99.7178 15.163V14.7679C99.7178 9.97833 97.3472 7.36133 93.7173 7.36133C91.3713 7.36133 89.7909 8.57107 89.0255 10.398L88.655 7.73876H85.5436ZM96.0326 15.0727C96.0326 17.6825 94.6864 19.0859 92.5817 19.0859C90.5505 19.0859 89.2289 17.5101 89.2289 14.9989V14.7279C89.2289 12.0936 90.5994 10.5179 92.6552 10.5179C94.5885 10.5179 96.0326 11.9213 96.0326 14.7526V15.0727Z" fill="black"/>
<path fill-rule="evenodd" clip-rule="evenodd" d="M69.3851 15.0848C69.3851 19.7581 71.9622 22.2425 76.4843 22.2425C80.7147 22.2425 83.5591 19.7581 83.5591 15.0848V14.6912C83.5591 9.9686 80.6659 7.36133 76.4843 7.36133C72.3998 7.36133 69.3851 9.91941 69.3851 14.6912V15.0848ZM79.8739 15.0858C79.8739 17.6784 78.5571 19.0859 76.4599 19.0859C74.3628 19.0859 73.0703 17.6537 73.0703 15.0858V14.7402C73.0703 11.9748 74.4359 10.5179 76.4843 10.5179C78.5571 10.5179 79.8739 12.0735 79.8739 14.7402V15.0858Z" fill="black"/>
<path fill-rule="evenodd" clip-rule="evenodd" d="M59.4631 21.8811H63.181V15.3762C63.181 12.3702 63.9245 11.3108 66.9979 11.3108H68.5346V7.54102H67.6175C64.9656 7.54102 63.5032 8.69905 62.9331 10.9659L62.4622 7.72056H59.4631V21.8811Z" fill="black"/>
<path fill-rule="evenodd" clip-rule="evenodd" d="M43.0213 4.38477V21.8814H49.7717C54.1688 21.8814 57.479 19.3273 57.479 13.6789V12.4754C57.479 6.85154 53.9712 4.38477 49.6729 4.38477H43.0213ZM46.7067 7.54137H49.5188C52.0586 7.54137 53.7937 9.14605 53.7937 12.6764V13.5898C53.7937 17.1201 52.1089 18.7248 49.6445 18.7248H46.7067V7.54137Z" fill="black"/>
<path d="M8.76628 0.742188L0.677368 5.88636L8.76628 11.0305L16.8565 5.88636L24.9455 11.0305L33.0344 5.88636L24.9455 0.742188L16.8565 5.88636L8.76628 0.742188Z" fill="#0056FE"/>
<path d="M8.76628 21.3178L0.677368 16.1735L8.76628 11.0293L16.8565 16.1735L8.76628 21.3178Z" fill="#0056FE"/>
<path d="M16.8566 16.1735L24.9456 11.0293L33.0345 16.1735L24.9456 21.3178L16.8566 16.1735Z" fill="#0056FE"/>
<path d="M16.8564 28.177L8.76617 23.0328L16.8564 17.8887L24.9454 23.0328L16.8564 28.177Z" fill="#0056FE"/>
</g>
<defs>
<clipPath id="clip0_373_44594">
<rect width="146.72" height="28" fill="white" transform="translate(0.141418 0.382812)"/>
</clipPath>
</defs>
</svg>
