<svg width="116" height="29" viewBox="0 0 116 29" fill="none" xmlns="http://www.w3.org/2000/svg">
<g clip-path="url(#clip0_373_44596)">
<path d="M0.443237 20.971L4.55855 17.8184C6.74497 20.6719 9.06793 21.9873 11.6536 21.9873C14.2255 21.9873 16.4827 20.6875 18.5707 17.8564L22.7447 20.9329C19.7321 25.0154 15.9884 27.1724 11.6536 27.1724C7.33262 27.1724 3.55262 25.0292 0.443237 20.971Z" fill="url(#paint0_linear_373_44596)"/>
<path d="M11.6398 7.26843L4.31489 13.5805L0.928955 9.65361L11.6554 0.410156L22.2971 9.66052L18.8956 13.5736L11.6398 7.26843Z" fill="url(#paint1_linear_373_44596)"/>
<path d="M38.5267 23.2794C36.0257 23.2794 33.9413 22.4687 32.2509 20.8475C30.5606 19.2038 29.7275 17.0969 29.7275 14.525C29.7275 11.9324 30.583 9.80131 32.2734 8.13341C33.988 6.44304 36.0724 5.60996 38.5509 5.60996C41.6085 5.60996 44.3169 6.92872 45.8932 8.9907L43.1346 11.8858C41.8141 10.4719 40.3778 9.75465 38.8275 9.75465C37.507 9.75465 36.4181 10.1937 35.5141 11.0976C34.6344 12.0016 34.1954 13.1371 34.1954 14.5025C34.1954 15.823 34.6344 16.9344 35.5141 17.8384C36.4181 18.7181 37.507 19.1571 38.8033 19.1571C40.4936 19.1571 41.9766 18.4157 43.2038 16.9569L46.0764 19.7137C45.2882 20.7559 44.2235 21.6132 42.903 22.2838C41.5825 22.9561 40.1238 23.2794 38.525 23.2794H38.5267ZM50.9366 5.35415V23.0253H46.8611V5.35415H50.9366ZM54.7996 9.10477C53.4341 9.10477 52.4386 8.10922 52.4386 6.74378C52.4386 5.42329 53.4808 4.42773 54.7996 4.42773C56.1201 4.42773 57.1398 5.42329 57.1398 6.74378C57.1398 8.10922 56.1201 9.1065 54.7996 9.1065V9.10477ZM56.8616 10.2403V23.0253H52.7618V10.2403H56.8616ZM64.7085 23.3036C62.6932 23.3036 61.0719 22.6779 59.7998 21.4265C58.5485 20.1769 57.9228 18.5781 57.9228 16.6095C57.9228 14.6408 58.5485 13.0438 59.8223 11.7924C61.0961 10.5411 62.7398 9.91712 64.7776 9.91712C67.4411 9.91712 69.7813 11.2134 70.8685 13.6453L67.6035 15.3598C66.9554 14.2709 66.0514 13.7144 64.8709 13.7144C64.0136 13.7144 63.3188 13.9927 62.7623 14.5492C62.4982 14.8224 62.2908 15.145 62.1516 15.4985C62.0125 15.8521 61.9446 16.2296 61.9517 16.6095C61.9517 18.2998 63.1788 19.5512 64.8243 19.5512C66.0048 19.5512 67.0937 18.9031 67.5569 17.9075L70.8235 19.8519C69.7104 21.9831 67.4186 23.3036 64.7085 23.3036ZM85.0396 23.0253H80.1741L76.3976 17.9524L75.7961 18.509V23.0253H71.7223V5.35415H75.7978V13.946L79.6418 10.2403H84.6213L79.1336 15.3823L85.0396 23.0253ZM85.3127 16.3779V5.90897H89.6665V16.3087C89.6665 18.2307 90.7778 19.1571 92.3766 19.1571C93.9512 19.1571 95.0625 18.184 95.0625 16.3087V5.90897H99.4406V16.3779C99.4406 21.4265 95.9423 23.326 92.3766 23.326C88.8334 23.326 85.3127 21.4265 85.3127 16.3779ZM109.116 9.91712C110.946 9.91712 112.429 10.5653 113.61 11.8616C114.79 13.1354 115.369 14.7342 115.369 16.6095C115.369 18.4865 114.768 20.0836 113.587 21.404C112.405 22.7003 110.924 23.3502 109.14 23.3502C107.726 23.3502 106.499 22.887 105.504 21.9606V28.2831H101.404V10.2403H105.435V11.4225C106.43 10.4253 107.657 9.91712 109.116 9.91712ZM111.201 16.6561C111.201 14.9882 109.998 13.7144 108.33 13.7144C106.662 13.7144 105.435 14.9882 105.435 16.6561C105.435 17.4667 105.711 18.1616 106.245 18.7406C106.8 19.3196 107.495 19.5979 108.33 19.5979C109.163 19.5979 109.858 19.3196 110.39 18.7406C110.921 18.1775 111.212 17.4301 111.202 16.6561H111.201Z" fill="#111111"/>
</g>
<defs>
<linearGradient id="paint0_linear_373_44596" x1="0.443237" y1="24.1801" x2="22.7447" y2="24.1801" gradientUnits="userSpaceOnUse">
<stop stop-color="#8930FD"/>
<stop offset="1" stop-color="#49CCF9"/>
</linearGradient>
<linearGradient id="paint1_linear_373_44596" x1="0.928955" y1="9.36732" x2="22.2971" y2="9.36732" gradientUnits="userSpaceOnUse">
<stop stop-color="#FF02F0"/>
<stop offset="1" stop-color="#FFC800"/>
</linearGradient>
<clipPath id="clip0_373_44596">
<rect width="115.111" height="28" fill="white" transform="translate(0.374146 0.382812)"/>
</clipPath>
</defs>
</svg>
