<svg width="95" height="29" viewBox="0 0 95 29" fill="none" xmlns="http://www.w3.org/2000/svg">
<g clip-path="url(#clip0_373_44597)">
<path d="M28.8138 12.9175H20.2812L27.6704 8.65215L26.2051 6.11348L18.815 10.3788L23.0803 2.99148L20.5416 1.52615L16.2754 8.91161V0.382812H13.3428V8.91255L9.07658 1.52615L6.53698 2.99148L10.8023 10.3769L3.41404 6.11348L1.94778 8.65215L9.33698 12.9175H0.804443V15.8491H9.33604L1.94778 20.1144L3.41311 22.6531L10.8032 18.3877L6.53698 25.7751L9.07564 27.2404L13.3428 19.854V28.3828H16.2754V19.6711L20.62 27.1937L23.001 25.8199L18.6554 18.2953L26.2032 22.6521L27.6695 20.1135L20.2812 15.8481H28.8128V12.9175H28.8138ZM14.8091 18.3681C14.2856 18.3682 13.7672 18.2652 13.2836 18.0649C12.7999 17.8646 12.3604 17.5711 11.9903 17.2009C11.6201 16.8309 11.3264 16.3914 11.126 15.9078C10.9256 15.4241 10.8225 14.9059 10.8224 14.3823C10.8223 13.8588 10.9253 13.3405 11.1256 12.8568C11.3259 12.3732 11.6194 11.9337 11.9896 11.5635C12.3597 11.1933 12.7991 10.8996 13.2827 10.6992C13.7664 10.4988 14.2847 10.3957 14.8082 10.3956C15.8654 10.3955 16.8793 10.8153 17.627 11.5628C18.3747 12.3103 18.7948 13.3242 18.7949 14.3814C18.795 15.4386 18.3752 16.4526 17.6277 17.2003C16.8802 17.948 15.8663 18.3681 14.8091 18.3681Z" fill="#5753F3"/>
<path d="M36.3728 24.6236V4.14062H40.1323V24.6236H36.3728ZM72.4303 10.7038H76.0199V12.4025C76.7833 11.0445 78.5651 10.3081 80.0911 10.3081C81.9857 10.3081 83.5117 11.1294 84.2183 12.6274C85.3196 10.9288 86.7905 10.3081 88.6283 10.3081C91.2005 10.3081 93.6589 11.864 93.6589 15.5982V24.6236H90.0133V16.3626C90.0133 14.8628 89.2779 13.7306 87.5531 13.7306C85.9412 13.7306 84.9799 14.9766 84.9799 16.4765V24.6245H81.2503V16.3626C81.2503 14.8628 80.4868 13.7306 78.79 13.7306C77.1501 13.7306 76.1888 14.9486 76.1888 16.4765V24.6245H72.4303V10.7038ZM48.6284 25.0268C44.3929 25.0268 41.326 21.8842 41.326 17.6637C41.326 13.5104 44.3836 10.2941 48.6284 10.2941C52.8937 10.2941 55.9308 13.5402 55.9308 17.6637C55.9308 21.8544 52.862 25.0268 48.6284 25.0268ZM48.6284 13.7008C47.5778 13.7022 46.5708 14.1204 45.8281 14.8636C45.0856 15.6067 44.6681 16.6141 44.6673 17.6646C44.6681 18.7152 45.0856 19.7225 45.8281 20.4656C46.5708 21.2089 47.5778 21.627 48.6284 21.6285C49.6788 21.6267 50.6857 21.2085 51.428 20.4654C52.1704 19.7222 52.5878 18.715 52.5885 17.6646C52.5878 16.6142 52.1704 15.607 51.428 14.8639C50.6857 14.1208 49.6788 13.7025 48.6284 13.7008ZM63.9603 25.0268C59.7248 25.0268 56.6579 21.8842 56.6579 17.6637C56.6579 13.5104 59.7155 10.2941 63.9603 10.2941C68.2256 10.2941 71.2627 13.5402 71.2627 17.6637C71.2627 21.8544 68.192 25.0268 63.9603 25.0268ZM63.9603 13.6532C62.8977 13.6549 61.879 14.078 61.128 14.8296C60.3768 15.5812 59.9544 16.6002 59.9535 17.6628C59.9544 18.7254 60.3768 19.7443 61.128 20.4959C61.879 21.2475 62.8977 21.6706 63.9603 21.6724C65.0229 21.6706 66.0414 21.2475 66.7926 20.4959C67.5437 19.7443 67.966 18.7254 67.9671 17.6628C67.966 16.6002 67.5437 15.5812 66.7926 14.8296C66.0414 14.078 65.0229 13.6549 63.9603 13.6532Z" fill="#1E1E1E"/>
</g>
<defs>
<clipPath id="clip0_373_44597">
<rect width="93.3333" height="28" fill="white" transform="translate(0.804443 0.382812)"/>
</clipPath>
</defs>
</svg>
