<svg width="152" height="29" viewBox="0 0 152 29" fill="none" xmlns="http://www.w3.org/2000/svg">
<g clip-path="url(#clip0_373_44598)">
<path fill-rule="evenodd" clip-rule="evenodd" d="M12.1175 20.3747L5.42699 13.6535C4.29012 12.5113 2.44691 12.5113 1.30968 13.6535C0.172815 14.7955 0.172815 16.6472 1.30968 17.7896L10.0589 26.579C11.1957 27.7211 13.0394 27.7211 14.1762 26.579L22.4112 18.3059L18.2942 14.1697L12.1175 20.3747Z" fill="#16B8A2"/>
<path fill-rule="evenodd" clip-rule="evenodd" d="M37.336 7.45009L24.4706 20.3745L11.6038 7.44863C10.4665 6.30618 8.6233 6.30618 7.48643 7.44863C6.34957 8.59072 6.34957 10.4424 7.48643 11.5848L22.4119 26.5788C23.5488 27.721 25.392 27.721 26.5292 26.5788L41.4533 11.5863C42.5901 10.4439 42.5901 8.59218 41.4533 7.45009C40.316 6.30801 38.4728 6.30801 37.336 7.45009Z" fill="#FFB41F"/>
<path fill-rule="evenodd" clip-rule="evenodd" d="M47.6294 17.7905L38.8816 26.5784C37.7448 27.7206 35.9016 27.7206 34.7646 26.5784L13.6625 5.3794C12.5256 4.23732 12.5256 2.38564 13.6625 1.24355C14.7997 0.101107 16.6429 0.101107 17.7797 1.24355L36.823 20.3741L43.5121 13.6543C44.6493 12.5123 46.4925 12.5123 47.6294 13.6543C48.7662 14.7969 48.7662 16.6485 47.6294 17.7905Z" fill="#F56358"/>
<path fill-rule="evenodd" clip-rule="evenodd" d="M35.2768 1.24523C34.1399 0.103151 32.2967 0.103151 31.1595 1.24523L18.2942 14.1696L22.4112 18.3058L35.2768 5.38144C36.4137 4.23899 36.4137 2.38731 35.2768 1.24523Z" fill="#16B8A2"/>
<path fill-rule="evenodd" clip-rule="evenodd" d="M63.5539 3.26537H59.9738V24.3922H73.0914V21.2017H63.5539V3.26537ZM80.8397 9.61778C83.0165 9.61778 84.4772 10.5088 85.2792 11.6011L85.451 9.90522H88.5442V24.3922H85.451L85.2792 22.6964C84.4772 23.7886 83.0165 24.6796 80.8397 24.6796C76.9158 24.6796 74.2523 21.4891 74.2523 17.1487C74.2523 12.7796 76.9158 9.61778 80.8397 9.61778ZM81.5844 12.6647C79.3504 12.6647 77.7465 14.4181 77.7465 17.1487C77.7465 19.8794 79.3504 21.6329 81.5844 21.6329C83.3029 21.6329 84.334 20.713 85.1073 19.477V14.8205C84.334 13.5846 83.3029 12.6647 81.5844 12.6647ZM97.2091 5.04749H93.7722V9.90522H91.0512V12.8372H93.7722V19.2759C93.7722 22.7826 95.8629 24.6796 99.1567 24.6796C100.589 24.6796 101.648 24.2773 102.365 23.8173L101.448 21.1155C101.018 21.3742 100.388 21.5753 99.4718 21.5753C98.1256 21.5753 97.2091 20.713 97.2091 19.247V12.8372H101.563V9.90522H97.2091V5.04749ZM109.053 5.04749H105.616V9.90522H102.895V12.8372H105.616V19.2759C105.616 22.7826 107.707 24.6796 111.001 24.6796C112.433 24.6796 113.492 24.2773 114.209 23.8173L113.292 21.1155C112.862 21.3742 112.232 21.5753 111.316 21.5753C109.97 21.5753 109.053 20.713 109.053 19.247V12.8372H113.407V9.90522H109.053V5.04749ZM119.952 9.90522H116.515V24.3922H119.952V9.90522ZM118.233 3.15039C117.031 3.15039 116.114 4.04145 116.114 5.27744C116.114 6.51343 117.031 7.40449 118.233 7.40449C119.465 7.40449 120.382 6.51343 120.382 5.27744C120.382 4.04145 119.465 3.15039 118.233 3.15039ZM130.336 9.61778C125.896 9.61778 122.946 12.7796 122.946 17.1487C122.946 21.4891 125.925 24.6796 130.364 24.6796C132.97 24.6796 134.946 23.5012 136.235 21.4891L133.772 19.5633C133.085 20.713 131.968 21.6616 130.393 21.6616C127.844 21.6616 126.44 19.6782 126.44 17.1487C126.44 14.5905 127.786 12.636 130.364 12.636C131.968 12.636 133.027 13.5557 133.686 14.7055L136.178 12.8085C134.889 10.7963 132.97 9.61778 130.336 9.61778ZM144.642 9.61778C149.082 9.61778 151.259 12.9521 151.259 17.0051V18.2122H141.062C141.149 20.5118 142.523 21.7765 144.929 21.7765C146.618 21.7765 147.85 21.0291 148.509 20.1094L150.886 22.0639C149.454 23.7886 147.564 24.6796 144.901 24.6796C140.433 24.6796 137.568 21.5178 137.568 17.1774C137.568 12.8085 140.49 9.61778 144.642 9.61778ZM144.585 12.3772C142.552 12.3772 141.177 13.7282 141.062 15.7403H147.88C147.793 13.7569 146.648 12.3772 144.585 12.3772Z" fill="#0E0E29"/>
</g>
<defs>
<clipPath id="clip0_373_44598">
<rect width="150.957" height="28" fill="white" transform="translate(0.457031 0.382812)"/>
</clipPath>
</defs>
</svg>
