<svg width="97" height="31" viewBox="0 0 97 31" fill="none" xmlns="http://www.w3.org/2000/svg">
<g clip-path="url(#clip0_77_2982)">
<path d="M25.1613 0.51123H4.83871C2.16636 0.51123 0 2.67759 0 5.34994V25.6725C0 28.3449 2.16636 30.5112 4.83871 30.5112H25.1613C27.8337 30.5112 30 28.3449 30 25.6725V5.34994C30 2.67759 27.8337 0.51123 25.1613 0.51123Z" fill="#FFD02F"/>
<path fill-rule="evenodd" clip-rule="evenodd" d="M20.3226 5.34985H17.4194L19.8387 9.70469L14.5161 5.34985H11.6129L14.2742 10.6724L8.70968 5.34985H5.80646L8.70968 12.124L5.80646 25.6724H8.70968L14.2742 11.1563L11.6129 25.6724H14.5161L19.8387 10.1886L17.4194 25.6724H20.3226L25.6452 8.73695L20.3226 5.34985Z" fill="white"/>
<path fill-rule="evenodd" clip-rule="evenodd" d="M89.0323 7.28547C93.871 7.28547 96.7742 10.8974 96.7742 15.5113C96.7742 20.1081 93.871 23.7371 89.0323 23.7371C84.1936 23.7371 81.2903 20.1251 81.2903 15.5113C81.2903 10.8974 84.1936 7.28547 89.0323 7.28547ZM67.2581 8.25321V23.2532H63.871V15.9951V12.3661V8.73708L67.2581 8.25321ZM79.8387 7.76934V11.1564L77.9032 11.3984C76.2097 11.6403 75 12.6081 75 14.5338V23.2532H71.6129V14.5338C71.6129 10.3919 74.0323 8.49515 77.9032 8.01128L79.8387 7.76934ZM45.9678 7.76934C47.4194 7.76934 48.9203 8.36922 49.8387 9.70483C50.7605 8.48857 52.2581 7.76934 54.1936 7.76934C56.6129 7.76934 59.5161 9.22095 59.5161 14.0597V23.2532H56.129V14.0597C56.129 12.3661 55.0742 11.1564 53.4678 11.1564C51.8613 11.1564 50.8065 12.3661 50.8065 14.0597V23.2532H47.4194V14.0597C47.4194 12.3661 46.3643 11.1564 44.7581 11.1564C43.1231 11.1564 42.0968 12.3661 42.0968 14.0597V23.2532H38.7097V14.0597V8.73708L42.0968 8.25321V9.70483C43.0432 8.54124 44.0323 7.76934 45.9678 7.76934ZM89.0323 10.6726C86.1291 10.6726 84.6774 12.8394 84.6774 15.5113C84.6774 18.1832 86.1291 20.35 89.0323 20.35C91.9355 20.35 93.3871 18.1726 93.3871 15.5113C93.3871 12.8427 91.9355 10.6726 89.0323 10.6726ZM65.5645 1.96289C66.7742 1.96289 67.742 2.6887 67.742 4.14031C67.742 5.59192 66.7742 6.31773 65.5645 6.31773C64.3549 6.31773 63.3871 5.59192 63.3871 4.14031C63.3871 2.68869 64.3549 1.96289 65.5645 1.96289Z" fill="white"/>
</g>
<defs>
<clipPath id="clip0_77_2982">
<rect width="96.7742" height="30" fill="white" transform="translate(0 0.51123)"/>
</clipPath>
</defs>
</svg>
