<svg width="104" height="31" viewBox="0 0 104 31" fill="none" xmlns="http://www.w3.org/2000/svg">
<g clip-path="url(#clip0_41_12841)">
<path fill-rule="evenodd" clip-rule="evenodd" d="M13.2131 1.53368C14.5501 0.170414 16.7369 0.170414 18.0732 1.53368L30.2913 13.9897C31.6269 15.3514 31.6269 17.5826 30.2913 18.9459L21.7459 27.6573C21.1209 28.2945 20.257 28.6882 19.3039 28.6882H11.9839C11.1156 28.6882 10.3232 28.362 9.71527 27.8234L1.00168 18.939C-0.333893 17.5765 -0.333893 15.3469 1.00168 13.9836L13.2131 1.53368ZM17.7332 24.273L16.5144 25.5156C16.4251 25.6067 16.3016 25.6628 16.1655 25.6628H15.1216C14.9973 25.6628 14.885 25.6165 14.7972 25.5391L13.5546 24.2715C13.3649 24.078 13.3649 23.7602 13.5546 23.5652L15.2964 21.7892C15.4876 21.5943 15.8001 21.5943 15.9899 21.7892L17.7332 23.5659C17.9244 23.7601 17.9244 24.078 17.7332 24.273ZM17.7332 16.8209L12.8597 21.79C12.7696 21.881 12.6468 21.9372 12.5115 21.9372H11.4668C11.3433 21.9372 11.2294 21.8909 11.1431 21.8135L9.89982 20.5466C9.70934 20.3516 9.70934 20.033 9.89982 19.8395L15.2964 14.3371C15.4876 14.1429 15.8001 14.1429 15.9906 14.3371L17.7332 16.1139C17.9244 16.3081 17.9244 16.6267 17.7332 16.8209ZM17.7332 9.36886L9.20559 18.0635C9.11483 18.1546 8.99205 18.2107 8.85665 18.2107H7.81273C7.68922 18.2107 7.5754 18.1645 7.48909 18.0871L6.24503 16.8194C6.05454 16.626 6.05454 16.3073 6.24503 16.1124L15.2964 6.88432C15.4876 6.68935 15.7987 6.68935 15.9899 6.88432L17.7332 8.6618C17.9244 8.856 17.9244 9.17465 17.7332 9.36886Z" fill="#26A943"/>
<path d="M89.3921 11.9566V6.72656H85.6941V25.6803H89.3921V12.5111L93.9257 24.8306C94.0305 25.0954 94.0811 25.3874 94.0811 25.6803C94.0811 26.53 93.613 27.2984 92.6498 27.4047C91.9211 27.4319 91.1928 27.3515 90.4898 27.2719V30.3792C91.2441 30.4589 91.9984 30.5112 92.7546 30.5112C95.2782 30.5112 96.5805 29.6085 97.3883 27.4047L103.012 11.9566H99.1847L96.2425 21.3538H96.1912L93.1439 11.9566H89.3921Z" fill="white"/>
<path d="M46.063 6.83276C45.4388 6.80623 44.7618 6.72656 44.1112 6.72656C41.0906 6.72656 39.6069 8.45243 39.6069 10.8937V11.9566H37.3934V14.4775H39.6069V25.6803H43.3034V14.4775H45.8555V11.9566H43.3034V11.1327C43.3034 9.99172 43.6941 9.56612 44.7087 9.56612C45.1522 9.56612 45.6202 9.5942 46.063 9.6473V6.83276Z" fill="white"/>
<path fill-rule="evenodd" clip-rule="evenodd" d="M84.8863 6.72656V25.6803H81.3705V23.9271H81.3192C80.4596 25.4148 78.9756 26.0513 77.2312 26.0513C73.5401 26.0513 71.5692 23.135 71.241 19.7341H61.5578C61.6627 22.1496 62.781 23.2109 64.8651 23.2109C66.3474 23.2109 67.5466 22.2808 67.7805 21.4334H71.0357C69.9925 24.6986 67.7805 26.0513 64.7342 26.0513C60.7988 26.0513 58.2521 23.4946 57.9033 19.7341H48.3828C48.4872 22.1496 49.6063 23.2109 51.6889 23.2109C53.1723 23.2109 54.3705 22.2808 54.604 21.4334H57.8584C56.8182 24.6986 54.604 26.0513 51.5592 26.0513C47.3136 26.0513 44.6841 23.0782 44.6841 18.8306C44.6841 14.7165 47.4701 11.5849 51.5592 11.5849C55.2676 11.5849 57.441 14.1581 57.9828 17.377C58.5586 14.0011 61.1451 11.5849 64.7342 11.5849C68.6263 11.5849 70.8275 14.4183 71.2262 17.858C71.5095 14.5048 73.4993 11.5849 77.1539 11.5849C78.741 11.5849 80.3035 12.2744 81.1363 13.6279H81.1898V6.72656H84.8863ZM51.4551 14.4244C49.0587 14.4244 48.4612 16.2831 48.3828 17.3452H54.3965C54.0578 15.4326 53.2515 14.4244 51.4551 14.4244ZM61.5578 17.3452C61.6366 16.2831 62.2348 14.4244 64.6301 14.4244C66.4262 14.4244 67.2343 15.4326 67.5719 17.3452H61.5578ZM81.3192 18.7782C81.3192 16.5486 80.5381 14.4244 78.1421 14.4244C75.7225 14.4244 74.8883 16.5751 74.8883 18.8048C74.8883 20.9555 75.8512 23.2109 78.1421 23.2109C80.5648 23.2109 81.3192 21.0344 81.3192 18.7782Z" fill="white"/>
</g>
<defs>
<clipPath id="clip0_41_12841">
<rect width="103.012" height="30" fill="white" transform="translate(0 0.51123)"/>
</clipPath>
</defs>
</svg>
