<svg width="103" height="30" viewBox="0 0 103 30" fill="none" xmlns="http://www.w3.org/2000/svg">
<path d="M11.1097 5.32471V13.5263H3.57484V5.32471H0V24.9031H3.57581V16.9676H11.1087V24.9031H14.6855V5.32471H11.1097ZM26.131 18.575C26.131 19.3598 25.8192 20.1124 25.2643 20.6673C24.7094 21.2222 23.9568 21.5339 23.1721 21.5339C22.3874 21.5339 21.6348 21.2222 21.0799 20.6673C20.525 20.1124 20.2132 19.3598 20.2132 18.575V10.1886H16.8213V18.575C16.8213 20.2577 17.4897 21.8715 18.6796 23.0613C19.8694 24.2511 21.4831 24.9195 23.1658 24.9195C24.8485 24.9195 26.4622 24.2511 27.6521 23.0613C28.8419 21.8715 29.5103 20.2577 29.5103 18.575V10.1886H26.131V18.575ZM51.2642 11.0528C51.2642 9.33309 52.4013 8.78826 53.6468 8.78826C54.6513 8.78826 55.9771 9.55277 56.8452 10.4799L59.0661 7.86116C57.9571 6.36116 55.7081 5.32471 53.8665 5.32471C50.1861 5.32471 47.5248 7.47987 47.5248 11.0528C47.5248 17.6818 55.6268 15.5779 55.6268 19.2883C55.6268 20.4321 54.5158 21.4424 53.2442 21.4424C51.2381 21.4424 50.5877 20.4621 49.6665 19.4247L47.2006 21.9883C48.7781 23.9237 50.7232 24.907 53.0526 24.907C56.549 24.907 59.3613 22.7257 59.3613 19.3154C59.3613 11.9566 51.2584 14.2434 51.2584 11.0528M101.387 21.7754C99.3832 21.7754 98.8132 20.9083 98.8132 19.5805V13.7015H101.929V10.7228H98.8132V6.79277L95.3739 8.33632V20.3112C95.3739 23.3741 97.4874 24.9176 100.385 24.9176C100.84 24.9254 101.295 24.8886 101.742 24.8092L102.581 21.7202C102.202 21.7463 101.768 21.7724 101.387 21.7724M39.0426 10.2863C37.3626 10.2863 36.1897 10.7741 35.0555 11.886V5.4418H31.6587V17.3866C31.6587 21.8576 34.891 24.9215 38.5239 24.9215C42.5535 24.9215 46.0984 21.8034 46.0984 17.6054C46.0984 13.4595 42.8361 10.2892 39.0426 10.2892M39.0213 21.5025C38.515 21.5025 38.0138 21.4027 37.546 21.209C37.0783 21.0153 36.6534 20.7313 36.2954 20.3733C35.9374 20.0154 35.6535 19.5904 35.4597 19.1227C35.266 18.655 35.1663 18.1537 35.1663 17.6475C35.1663 17.1412 35.266 16.6399 35.4597 16.1722C35.6535 15.7045 35.9374 15.2795 36.2954 14.9216C36.6534 14.5636 37.0783 14.2796 37.546 14.0859C38.0138 13.8922 38.515 13.7924 39.0213 13.7924C40.0437 13.7924 41.0242 14.1986 41.7472 14.9216C42.4701 15.6445 42.8763 16.625 42.8763 17.6475C42.8763 18.6699 42.4701 19.6504 41.7472 20.3733C41.0242 21.0963 40.0437 21.5025 39.0213 21.5025ZM75.9329 17.4273C75.9329 13.2215 72.3958 10.1112 68.3584 10.1112C64.7265 10.1112 61.4932 13.1741 61.4932 17.646V29.5976H64.89V23.1447C66.0223 24.2547 67.1971 24.7444 68.8752 24.7444C72.6687 24.7444 75.9319 21.5741 75.9319 17.4273M72.7161 17.3847C72.7161 18.4071 72.31 19.3877 71.587 20.1106C70.8641 20.8336 69.8835 21.2397 68.8611 21.2397C67.8387 21.2397 66.8582 20.8336 66.1352 20.1106C65.4123 19.3877 65.0061 18.4071 65.0061 17.3847C65.0061 16.3623 65.4123 15.3818 66.1352 14.6588C66.8582 13.9359 67.8387 13.5297 68.8611 13.5297C69.8835 13.5297 70.8641 13.9359 71.587 14.6588C72.31 15.3818 72.7161 16.3623 72.7161 17.3847Z" fill="white"/>
<path d="M86.909 9.9467V6.53347C87.3601 6.32267 87.742 5.98809 88.0103 5.56869C88.2786 5.14929 88.4222 4.66231 88.4245 4.16444V4.08605C88.4245 2.63444 87.2478 1.45766 85.7961 1.45766H85.7178C85.0207 1.45766 84.3521 1.73458 83.8592 2.2275C83.3663 2.72042 83.0894 3.38896 83.0894 4.08605V4.16444C83.0917 4.66231 83.2353 5.14929 83.5036 5.56869C83.7719 5.98809 84.1538 6.32267 84.6049 6.53347V9.9467C83.3085 10.1452 82.0876 10.6827 81.0658 11.5048L71.7049 4.21379C71.7716 3.97282 71.8065 3.72508 71.8103 3.47637C71.8115 2.8906 71.6389 2.31765 71.3144 1.82999C70.9898 1.34233 70.528 0.961871 69.9872 0.736735C69.4464 0.511598 68.851 0.4519 68.2763 0.565192C67.7016 0.678484 67.1734 0.959676 66.7585 1.3732C66.3436 1.78673 66.0607 2.314 65.9456 2.88834C65.8304 3.46268 65.8881 4.05827 66.1115 4.59978C66.3349 5.14129 66.7138 5.60439 67.2004 5.9305C67.687 6.25662 68.2594 6.43109 68.8452 6.43186C69.3576 6.42944 69.8605 6.29263 70.3036 6.03508L79.5213 13.208C78.6932 14.459 78.2612 15.9304 78.2816 17.4304C78.302 18.9305 78.7738 20.3896 79.6355 21.6177L76.8319 24.4222C76.6053 24.3497 76.3692 24.3112 76.1313 24.308C75.6505 24.3084 75.1806 24.4513 74.7809 24.7186C74.3813 24.986 74.0699 25.3659 73.8861 25.8102C73.7022 26.2545 73.6542 26.7433 73.7481 27.2148C73.842 27.6864 74.0736 28.1196 74.4136 28.4596C74.7536 28.7996 75.1867 29.0311 75.6583 29.125C76.1299 29.2189 76.6187 29.1709 77.063 28.9871C77.5073 28.8033 77.8871 28.4919 78.1545 28.0922C78.4219 27.6926 78.5648 27.2227 78.5652 26.7419C78.562 26.5039 78.5236 26.2678 78.451 26.0412L81.2245 23.2667C82.129 23.963 83.1808 24.443 84.2994 24.67C85.418 24.897 86.5737 24.865 87.678 24.5763C88.7824 24.2877 89.806 23.7501 90.6704 23.0047C91.5349 22.2594 92.2172 21.326 92.6653 20.2762C93.1133 19.2264 93.3151 18.088 93.2551 16.9481C93.1952 15.8083 92.8752 14.6973 92.3196 13.7002C91.764 12.7032 90.9875 11.8465 90.0497 11.1959C89.1118 10.5453 88.0375 10.118 86.909 9.9467ZM85.7594 21.1725C85.2468 21.1866 84.7366 21.0978 84.2589 20.9114C83.7812 20.725 83.3457 20.4447 82.9782 20.0872C82.6106 19.7296 82.3185 19.302 82.119 18.8296C81.9195 18.3572 81.8167 17.8496 81.8167 17.3369C81.8167 16.8241 81.9195 16.3165 82.119 15.8441C82.3185 15.3717 82.6106 14.9441 82.9782 14.5866C83.3457 14.229 83.7812 13.9487 84.2589 13.7623C84.7366 13.5759 85.2468 13.4871 85.7594 13.5012C86.7528 13.536 87.694 13.955 88.3847 14.6699C89.0754 15.3849 89.4617 16.3399 89.4622 17.334C89.4627 18.3281 89.0774 19.2836 88.3874 19.9992C87.6974 20.7148 86.7567 21.1348 85.7632 21.1706" fill="#FF7A59"/>
</svg>
