<svg width="110" height="31" viewBox="0 0 110 31" fill="none" xmlns="http://www.w3.org/2000/svg">
<g clip-path="url(#clip0_41_12862)">
<path d="M9.61632 30.5258C6.84216 30.5258 1.61438 30.5258 1.61438 23.8235V19.2193C1.13143 19.0547 0.714129 18.7393 0.423999 18.3196C0.133869 17.8999 -0.0137442 17.3981 0.00291838 16.8881V14.1227C0.000787982 13.6159 0.154148 13.1207 0.442306 12.7038C0.730464 12.287 1.13955 11.9685 1.61438 11.7915V7.21352C1.61147 0.51123 6.77514 0.51123 9.61632 0.51123C9.93801 0.51123 10.2566 0.574641 10.5537 0.697836C10.8509 0.821031 11.1209 1.00159 11.3482 1.2292C11.5755 1.45681 11.7558 1.727 11.8786 2.02431C12.0015 2.32163 12.0645 2.64024 12.0641 2.96194V4.76864C13.5474 3.73707 15.3541 3.60302 16.3215 3.60302H18.9034C19.2358 3.59854 19.5654 3.66407 19.8708 3.79535C20.1439 3.71661 20.426 3.67351 20.7101 3.66713H24.7693C25.0912 3.66675 25.4101 3.72988 25.7076 3.8529C26.0051 3.97592 26.2754 4.15643 26.5031 4.38407C26.7307 4.61172 26.9112 4.88203 27.0342 5.17954C27.1573 5.47705 27.2204 5.7959 27.22 6.11784V9.47772H30.8975C31.2983 9.49456 31.693 9.58237 32.0631 9.73707C32.8745 9.3748 33.7567 9.19857 34.645 9.22129C35.5573 9.20405 36.4624 9.38537 37.2977 9.75269C38.1329 10.12 38.8784 10.6645 39.4823 11.3485C39.7328 11.623 39.95 11.9263 40.1292 12.2519C40.4592 11.8137 40.8258 11.4043 41.2249 11.028C42.5799 9.86237 44.4507 9.22129 46.7091 9.22129C48.644 9.22129 50.2584 9.60885 51.6134 10.4452L51.6775 10.3811C51.9094 10.0925 52.2044 9.86091 52.5399 9.7043C52.8753 9.54768 53.2423 9.47016 53.6124 9.47772H57.3541C58.0349 9.48804 58.6841 9.76659 59.1608 10.2529C59.6374 9.76659 60.2866 9.48804 60.9675 9.47772H63.5464C63.8772 9.46786 64.2061 9.53238 64.5087 9.66653C64.8113 9.80069 65.0799 10.0011 65.2948 10.2529C65.7557 9.77843 66.3822 9.50067 67.0432 9.47772H70.7207C71.0909 9.47016 71.4578 9.54768 71.7933 9.7043C72.1287 9.86091 72.4238 10.0925 72.6557 10.3811C72.7198 10.4452 72.7839 10.5763 72.8509 10.6404C74.2765 9.67584 75.9674 9.17977 77.6882 9.22129C80.1389 9.22129 82.1408 9.99642 83.6241 11.5525C83.9381 11.867 84.2193 12.2127 84.4633 12.5841C84.5915 12.3918 84.7839 12.1965 84.915 12.0013C85.9466 10.7104 87.8815 9.22711 91.2355 9.22711C92.7888 9.2072 94.3215 9.58435 95.6882 10.3228C96.0248 9.89151 96.5024 9.59237 97.0374 9.47772V6.0479C97.037 5.72596 97.1001 5.40711 97.2232 5.1096C97.3462 4.8121 97.5267 4.54178 97.7543 4.31414C97.982 4.08649 98.2523 3.90599 98.5498 3.78296C98.8473 3.65994 99.1662 3.59681 99.4881 3.5972H103.553C103.875 3.59758 104.193 3.66127 104.49 3.78464C104.787 3.908 105.056 4.08863 105.283 4.3162C105.51 4.54377 105.69 4.81382 105.813 5.11095C105.935 5.40808 105.998 5.72645 105.998 6.0479V9.47772C106.576 9.579 107.099 9.88036 107.477 10.329C107.855 10.7776 108.063 11.3449 108.064 11.9313V14.7696C108.063 15.3557 107.855 15.9226 107.477 16.3707C107.099 16.8189 106.575 17.1197 105.998 17.2203V19.1611H106.581C107.232 19.1611 107.856 19.4196 108.316 19.8797C108.776 20.3399 109.034 20.9639 109.034 21.6147V24.9629C109.034 25.285 108.971 25.6039 108.848 25.9014C108.724 26.199 108.544 26.4692 108.316 26.6969C108.088 26.9245 107.817 27.1049 107.52 27.2279C107.222 27.3509 106.903 27.414 106.581 27.4136H104.002C102.003 27.4136 100.324 26.8308 99.1617 25.738C98.9793 25.5957 98.8259 25.4196 98.71 25.2193C98.5751 25.4226 98.4031 25.5985 98.203 25.738C97.3214 26.3766 96.3353 26.8568 95.289 27.1572C94.0804 27.548 92.8175 27.7447 91.5473 27.74C88.9655 27.74 86.7742 26.8366 85.1598 25.1582C85.0062 25.3679 84.8336 25.563 84.644 25.741C83.762 26.379 82.7761 26.8591 81.73 27.1601C80.5004 27.5553 79.2157 27.7521 77.9242 27.7429C75.3424 27.7429 73.1481 26.8396 71.5367 25.1611C71.1354 24.7162 70.7682 24.2419 70.4381 23.7419L70.0534 25.4904C69.927 26.0273 69.6214 26.5051 69.1871 26.8452C68.7527 27.1853 68.2155 27.3672 67.6639 27.3612H64.2574C63.811 27.3523 63.3746 27.2276 62.991 26.9992C62.6073 26.7709 62.2896 26.4467 62.069 26.0586C61.8591 26.4563 61.5427 26.7877 61.1552 27.0157C60.7676 27.2437 60.3242 27.3593 59.8747 27.3495H56.4507C55.8995 27.3555 55.3627 27.1734 54.9288 26.8333C54.495 26.4932 54.19 26.0154 54.0641 25.4787L53.8048 24.2519C53.3837 24.9335 52.8101 25.5081 52.1292 25.9304C50.71 26.9619 48.8392 27.5418 46.5925 27.5418C44.2613 27.5418 42.3992 26.8978 40.9131 25.671C40.7525 26.1617 40.4402 26.5887 40.0212 26.8904C39.6022 27.1921 39.0981 27.3529 38.5818 27.3495H34.6479C34.317 27.3594 33.9882 27.2949 33.6856 27.1607C33.383 27.0265 33.1143 26.8262 32.8995 26.5744C32.6759 26.8354 32.3989 27.0454 32.0873 27.1902C31.7756 27.335 31.4364 27.4112 31.0928 27.4136H27.1005C26.6896 27.4157 26.286 27.3038 25.9349 27.0902C25.5804 27.2957 25.1791 27.407 24.7693 27.4136H20.6897C20.0877 27.3956 19.5114 27.1656 19.0625 26.7641C18.6136 26.3627 18.3209 25.8156 18.236 25.2193C18.1264 25.7753 17.8299 26.277 17.3958 26.6412C16.9616 27.0053 16.416 27.2101 15.8494 27.2213H12.7081C12.5158 27.2854 12.2594 27.3495 12 27.4136V28.0605C12.0186 28.3822 11.9704 28.7043 11.8582 29.0064C11.7461 29.3085 11.5726 29.5841 11.3486 29.8157C11.1246 30.0474 10.855 30.2301 10.5569 30.3523C10.2587 30.4745 9.93846 30.5336 9.61632 30.5258Z" fill="#240C2E"/>
<path d="M103.611 6.12364V11.9954H105.678V14.8337H103.611V20.1227C103.581 20.333 103.601 20.5475 103.668 20.7491C103.735 20.9507 103.848 21.134 103.998 21.2844C104.148 21.4347 104.331 21.5481 104.533 21.6156C104.734 21.683 104.948 21.7027 105.159 21.6729H106.654V25.027H104.072C103.04 25.027 101.741 24.8347 100.846 23.9954C99.9514 23.1562 99.5551 22.0605 99.5551 20.4986V14.7696H97.6843V11.9313H99.5551V6.12364H103.611ZM91.5474 25.2805C89.6766 25.2805 88.0505 24.6336 86.9665 23.4738C85.8009 22.3082 85.288 20.7638 85.288 18.9571V18.5112C85.288 16.5122 85.8067 14.8978 86.8383 13.6069C87.8699 12.383 89.3531 11.7361 91.288 11.7361C93.0364 11.7361 94.4497 12.2519 95.4172 13.2863C96.4517 14.382 96.9034 15.8012 96.9034 17.6079V19.7439H89.4842V19.808C89.5528 20.4321 89.8572 21.0064 90.3351 21.4136C90.5786 21.6355 90.8636 21.8069 91.1737 21.918C91.4838 22.029 91.8129 22.0775 92.1418 22.0605C92.7501 22.0778 93.3579 22.0121 93.9485 21.8653C94.55 21.7053 95.1354 21.4897 95.6969 21.2213L96.6644 23.7361C95.996 24.2165 95.2553 24.5874 94.4701 24.8347C93.5277 25.1458 92.5397 25.2965 91.5474 25.2805ZM91.2239 14.8279C90.9701 14.8041 90.7147 14.8519 90.4865 14.9657C90.2584 15.0795 90.0667 15.2548 89.933 15.4719C89.6493 15.9907 89.4738 16.5617 89.4172 17.1504L89.4842 17.2145H92.9578V16.8968C92.9578 16.1887 92.8295 15.7312 92.5702 15.4136C92.4102 15.2144 92.2038 15.0573 91.9691 14.9563C91.7345 14.8552 91.4786 14.8131 91.2239 14.8337V14.8279ZM77.9359 25.2805C76.0622 25.2805 74.439 24.6336 73.355 23.4738C72.2341 22.2439 71.6353 20.6263 71.6853 18.9629V18.5112C71.6853 16.5122 72.2011 14.8978 73.2326 13.6069C74.2671 12.383 75.7504 11.7361 77.6853 11.7361C79.4337 11.7361 80.847 12.2519 81.8145 13.2863C82.7819 14.3208 83.2977 15.8012 83.2977 17.6079V19.7439H75.8698V19.808C75.9436 20.4499 76.2572 21.0403 76.7479 21.4607C77.2386 21.8812 77.8701 22.1006 78.5158 22.0751C79.1241 22.0921 79.7319 22.0264 80.3225 21.8798C80.924 21.72 81.5094 21.5044 82.0709 21.2358L83.0413 23.7507C82.3725 24.2305 81.6319 24.6013 80.847 24.8492C79.9098 25.164 78.9241 25.31 77.9359 25.2805ZM77.6765 14.8279C77.4227 14.8041 77.1673 14.8519 76.9392 14.9657C76.7111 15.0795 76.5193 15.2548 76.3856 15.4719C76.1003 15.99 75.9248 16.5614 75.8698 17.1504L75.9339 17.2145H79.4308V16.8968C79.4308 16.1887 79.2997 15.7312 79.0432 15.4136C78.8811 15.2115 78.6714 15.0528 78.4329 14.9516C78.1944 14.8504 77.9345 14.8099 77.6765 14.8337V14.8279ZM65.6124 19.4728L67.0228 11.876H70.7003L67.7397 24.9629H64.3215L62.1914 17.9954H62.1272L60 24.9629H56.5789L53.5483 11.9313H57.2899L58.7091 19.6069H58.7732L60.8392 11.9313H63.4182L65.6124 19.4728ZM48.5158 21.2795C48.502 21.0922 48.4415 20.9114 48.3396 20.7535C48.2378 20.5957 48.098 20.4659 47.933 20.3762C47.3155 20.0171 46.6367 19.776 45.931 19.6652C44.4478 19.3446 43.288 18.893 42.5129 18.3131C42.1314 18.0028 41.8274 17.608 41.6251 17.1598C41.4227 16.7117 41.3276 16.2225 41.3473 15.7312C41.3473 14.5656 41.866 13.6011 42.7693 12.7647C43.7368 11.9255 45.0248 11.5991 46.6391 11.5991C48.3176 11.5991 49.7368 11.9867 50.7188 12.7647C51.2035 13.0981 51.5905 13.5546 51.8399 14.0873C52.0894 14.62 52.1922 15.2096 52.1379 15.7953V15.8594H48.2564C48.2735 15.6493 48.2483 15.4379 48.1822 15.2377C48.1161 15.0374 48.0106 14.8525 47.8718 14.6938C47.527 14.4134 47.0883 14.2748 46.645 14.3063C46.2443 14.2949 45.8537 14.4331 45.5493 14.6938C45.4037 14.7938 45.2859 14.9292 45.2068 15.0872C45.1278 15.2452 45.0903 15.4207 45.0976 15.5972C45.1035 15.7784 45.1536 15.9554 45.2435 16.1128C45.3334 16.2702 45.4604 16.4033 45.6134 16.5005C45.9339 16.757 46.645 16.9522 47.6124 17.1445C49.1598 17.468 50.3866 17.9197 51.1093 18.4996C51.4973 18.8184 51.8049 19.224 52.0074 19.6836C52.2098 20.1432 52.3015 20.644 52.2749 21.1455C52.2749 22.3111 51.7591 23.2825 50.7275 24.0595C49.6931 24.8347 48.3409 25.2252 46.6479 25.2252C44.8995 25.2252 43.4862 24.7735 42.4546 23.873C41.423 22.9726 40.9713 21.9993 41.0355 20.8395V20.7754H44.713C44.713 21.4194 44.9053 21.8711 45.2958 22.0663C45.7484 22.3301 46.2562 22.4847 46.779 22.518C47.2121 22.5454 47.6425 22.4319 48.0058 22.1946C48.1733 22.1129 48.3118 21.9822 48.4029 21.8197C48.4941 21.6572 48.5334 21.4708 48.5158 21.2854V21.2795ZM30.9675 11.876L31.0957 13.6797C31.4908 13.0728 32.0177 12.5628 32.6372 12.1878C33.2553 11.8007 33.9711 11.5985 34.7003 11.6049C35.2534 11.5886 35.8036 11.6895 36.3148 11.901C36.8261 12.1124 37.2869 12.4296 37.6668 12.8318C38.3779 13.604 38.7654 14.959 38.7654 16.7657V24.9629H34.8373V16.8298C34.8373 16.0576 34.7091 15.6059 34.3856 15.2825C34.2022 15.1192 33.9875 14.9949 33.7546 14.9173C33.5216 14.8396 33.2753 14.8102 33.0306 14.8308C32.6775 14.8268 32.327 14.8921 31.999 15.0231C31.6925 15.142 31.4252 15.3438 31.2268 15.6059V25.027H27.2258V11.9313H30.9675V11.876ZM24.7693 9.41359H20.6897V6.12364H24.7693V9.41359ZM24.7693 25.027H20.6897V11.9313H24.7693V25.027ZM11.8018 25.027V14.7055H9.93395V11.876H11.8077V10.5122C11.8077 9.02602 12.2593 7.86624 13.0957 7.01534C13.9874 6.18775 15.3541 5.99543 16.3186 5.99543H18.9004V9.28537H17.4201C17.2098 9.26885 16.9983 9.29463 16.7981 9.3612C16.5979 9.42776 16.413 9.53376 16.2545 9.67294C16.1153 9.8315 16.0093 10.0163 15.9427 10.2165C15.8762 10.4167 15.8504 10.6282 15.8669 10.8386V11.806H18.3876V14.6472H15.8698V24.9046H11.8077V25.0328L11.8018 25.027ZM4.07965 7.21349C4.07965 3.28537 6.11947 2.96191 9.61632 2.96191V6.04788C8.00194 6.04788 7.35794 6.30723 7.35794 7.27469V12.383C7.35794 13.5486 7.42205 14.7696 6.45459 15.5447C7.42205 16.3169 7.35794 17.4796 7.35794 18.7035V23.8002C7.35794 24.8347 8.00194 25.027 9.61632 25.027V28.1246C6.11947 28.1246 4.07965 27.8012 4.07965 23.8672V18.7035C4.07965 17.8672 4.07965 16.9551 2.46527 16.9551V14.2451C4.07965 14.2451 4.07965 13.2776 4.07965 12.4966V7.21349Z" fill="white"/>
</g>
<defs>
<clipPath id="clip0_41_12862">
<rect width="109.032" height="30" fill="white" transform="translate(0 0.51123)"/>
</clipPath>
</defs>
</svg>
