<svg width="108" height="23" viewBox="0 0 108 23" fill="none" xmlns="http://www.w3.org/2000/svg">
<path d="M-14.4557 7.43281C-16.0253 7.43281 -17.0288 7.94743 -17.0288 8.87374C-17.0288 9.80006 -15.9739 10.2118 -14.4043 10.3661C-12.1657 10.5463 -9.2838 10.9322 -9.2838 13.9428C-9.2838 16.1042 -11.3165 17.6223 -14.43 17.6223C-16.3856 17.6223 -18.2896 17.1849 -19.9364 15.4609L-18.6242 13.7369C-17.5177 14.8433 -16.0253 15.4609 -14.4557 15.4609C-13.1177 15.4609 -11.7797 15.0492 -11.7797 13.9685C-11.7797 12.8878 -12.8089 12.5275 -14.6101 12.3732C-16.8744 12.193 -19.5247 11.524 -19.5247 8.92521C-19.5247 6.35211 -16.7458 5.37433 -14.5072 5.37433C-12.8347 5.3486 -11.1879 5.88895 -9.84988 6.91819L-11.1622 8.46205C-12.1142 7.76731 -13.2721 7.40708 -14.4557 7.43281ZM-0.921228 15.358C0.33959 15.358 1.83199 14.9205 2.57819 14.0971L4.22497 15.641C2.96415 16.979 0.879942 17.6223 -0.972691 17.6223C-4.93526 17.6223 -7.48263 15.2293 -7.48263 11.4983C-7.48263 7.94743 -4.83234 5.37433 -1.02415 5.37433C2.52673 5.37433 4.97117 7.38134 4.97117 11.3954C4.97117 11.7299 4.94544 12.0901 4.91971 12.4246H-4.85807C-4.65222 14.2773 -3.15982 15.358 -0.921228 15.358ZM-1.02415 7.56146C-2.85105 7.56146 -4.44637 8.53924 -4.83234 10.4176H2.50099C2.34661 8.56497 1.08579 7.56146 -1.02415 7.56146ZM16.6788 10.8036C16.6788 8.79655 15.4951 7.63866 13.4109 7.63866C12.4846 7.63866 11.6098 7.99889 10.9665 8.6679C10.3232 9.33691 9.98872 10.2375 10.0144 11.1638V17.3392H7.46708V5.6831H9.78287L9.93725 7.30415C10.9408 6.0948 12.4332 5.37433 14.0028 5.40006C16.9104 5.40006 19.2004 7.14977 19.2004 10.7778V17.3392H16.653L16.6788 10.8036ZM34.6133 17.3392H32.246L32.0916 15.4866C31.1396 16.8761 29.57 17.6737 27.8975 17.6223C24.3981 17.6223 21.722 15.3837 21.722 11.4983C21.722 7.53574 24.3466 5.37433 27.846 5.37433C29.3127 5.37433 31.294 6.06907 32.0916 7.45854V0.819948H34.639L34.6133 17.3392ZM24.2437 11.4983C24.2437 13.8656 25.9162 15.358 28.0519 15.358C30.1361 15.358 31.8343 13.634 31.8343 11.524C31.8343 9.41409 30.1361 7.69012 28.0519 7.69012C25.9162 7.69012 24.2437 9.15679 24.2437 11.4983ZM39.322 0.536905C39.7337 0.511174 40.1454 0.639829 40.4285 0.92287C40.7373 1.20591 40.8916 1.6176 40.8916 2.0293C40.8402 2.85269 40.1454 3.5217 39.322 3.5217C38.4987 3.5217 37.8039 2.87842 37.7525 2.0293C37.7525 1.6176 37.9068 1.20591 38.2156 0.92287C38.5244 0.639829 38.9361 0.485443 39.322 0.536905ZM40.5829 17.3392H38.0355V5.6831H40.5829V17.3392ZM53.191 10.8036C53.191 8.79655 52.0074 7.63866 49.9232 7.63866C48.9969 7.63866 48.122 7.99889 47.4788 8.6679C46.8355 9.33691 46.501 10.2375 46.5267 11.1895V17.365H43.9794V5.70884H46.2694L46.4238 7.32989C47.4273 6.12053 48.9197 5.40006 50.4893 5.42579C53.3969 5.42579 55.687 7.1755 55.687 10.8036V17.365H53.1396C53.1653 17.3392 53.191 10.8036 53.191 10.8036ZM61.5022 7.58719C62.2741 6.19772 64.2811 5.40006 65.7478 5.40006C69.2215 5.40006 71.8717 7.56146 71.8717 11.524C71.8717 15.4094 69.0156 17.648 65.722 17.648C64.2039 17.648 62.4542 17.0047 61.5022 15.5123L61.3478 17.365H58.9805V0.845672H61.5279L61.5022 7.58719ZM61.6308 11.4983C61.6051 12.5275 62.0168 13.5311 62.763 14.2773C63.4835 14.9977 64.487 15.3837 65.5162 15.358C67.7291 15.358 69.3244 13.8656 69.3244 11.4983C69.3244 9.13106 67.7033 7.66438 65.5162 7.66438C64.487 7.63865 63.5092 8.02462 62.7887 8.74509C62.0425 9.49129 61.6308 10.4691 61.6308 11.4983ZM77.1723 17.3392H74.625V0.819948H77.1723V17.3392ZM83.039 12.0387C83.039 14.0199 84.1969 15.3837 86.3326 15.3837C87.2589 15.3837 88.1337 15.0234 88.7513 14.3544C89.3946 13.6854 89.7291 12.7849 89.6776 11.8585V5.6831H92.1992V17.3392H89.9349L89.7805 15.7182C88.7513 16.9533 87.2074 17.6737 85.6121 17.5965C82.653 17.5965 80.5174 15.5381 80.5174 12.0129V5.63164H83.039V12.0387ZM101.462 15.358C102.723 15.358 104.216 14.9205 104.962 14.0971L106.609 15.641C105.348 16.979 103.264 17.6223 101.411 17.6223C97.4484 17.6223 94.901 15.2293 94.901 11.4983C94.901 7.94743 97.5513 5.37433 101.385 5.37433C104.936 5.37433 107.381 7.38134 107.381 11.3954C107.381 11.7299 107.355 12.0901 107.329 12.4246H97.5256C97.7571 14.2773 99.2495 15.358 101.462 15.358ZM101.385 7.56146C99.5326 7.56146 97.963 8.53924 97.577 10.4176H104.91C104.73 8.56497 103.469 7.56146 101.385 7.56146Z" fill="white"/>
</svg>
