<svg width="117" height="28" viewBox="0 0 117 28" fill="none" xmlns="http://www.w3.org/2000/svg">
<g clip-path="url(#clip0_323_40374)">
<path d="M69.6965 11.0343C71.4937 11.0343 73.1957 12.1338 73.5549 14.5094H65.5507C65.8857 12.4248 67.444 11.0343 69.6965 11.0343ZM73.2991 18.0241C72.6878 18.977 71.5062 19.7099 69.8885 19.7099C67.6595 19.7099 65.9575 18.4881 65.5507 16.3309H75.5926C75.641 16.0217 75.6659 15.7092 75.6659 15.3963C75.6659 12.0415 73.3203 9.06921 69.6979 9.06921C65.9597 9.06921 63.4192 11.8252 63.4192 15.3729C63.4192 18.9645 65.9846 21.6765 69.8416 21.6765C72.2385 21.6765 74.0599 20.5976 75.114 18.9645L73.2991 18.0241Z" fill="#006BFF"/>
<path d="M62.4328 3.86871H60.3481V21.3643H62.4328V3.86871Z" fill="#006BFF"/>
<path d="M87.2655 14.0066V21.3636H85.1801V14.1261C85.1801 12.1609 84.0543 11.0585 82.2086 11.0585C80.2911 11.0585 78.7335 12.1851 78.7335 15.013V21.3636H76.6482V9.3822H78.7335V11.1076C79.6204 9.69371 80.9383 9.07068 82.6183 9.07068C85.422 9.07068 87.2677 10.9398 87.2677 14.0081" fill="#006BFF"/>
<path d="M98.7623 15.3722C98.7623 12.9277 96.9166 11.082 94.4963 11.082C92.0995 11.082 90.2545 12.9277 90.2545 15.3722C90.2545 17.8167 92.0995 19.6623 94.4963 19.6623C96.9152 19.6623 98.7623 17.8167 98.7623 15.3722ZM100.847 3.86871V21.3643H98.7623V19.3024C97.8035 20.7684 96.2701 21.6758 94.2324 21.6758C90.901 21.6758 88.1692 18.9191 88.1692 15.3722C88.1692 11.8253 90.901 9.0685 94.2324 9.0685C96.2694 9.0685 97.8035 9.97887 98.7623 11.4412V3.86871H100.847Z" fill="#006BFF"/>
<path d="M104.613 3.86871H102.528V21.3643H104.613V3.86871Z" fill="#006BFF"/>
<path d="M56.6319 15.3721C56.6319 12.9276 54.787 11.082 52.3659 11.082C49.9698 11.082 48.1242 12.9276 48.1242 15.3721C48.1242 17.8166 49.9698 19.6623 52.3659 19.6623C54.7848 19.6623 56.6319 17.8166 56.6319 15.3721ZM58.7172 9.3822V21.3636H56.6319V19.3024C55.6732 20.7684 54.1398 21.6758 52.1028 21.6758C48.7714 21.6758 46.0388 18.9191 46.0388 15.3721C46.0388 11.8252 48.7714 9.06848 52.1028 9.06848C54.1398 9.06848 55.6732 9.97885 56.6319 11.4412V9.3822H58.7172Z" fill="#006BFF"/>
<path d="M42.9464 19.0576C41.8791 19.4515 40.727 19.5578 39.6057 19.366C38.4843 19.1741 37.4331 18.6909 36.5574 17.9646C35.6818 17.2384 35.0124 16.2947 34.6165 15.2282C34.2206 14.1617 34.1119 13.0098 34.3016 11.888C34.4913 10.7663 34.9725 9.71422 35.6969 8.83713C36.4215 7.95997 37.3639 7.2888 38.4297 6.89079C39.4954 6.49278 40.647 6.38193 41.7691 6.56939C42.8913 6.75684 43.9443 7.23599 44.8228 7.9588C45.1892 8.26108 45.5206 8.60331 45.8109 8.97911L47.6148 7.65974C46.5639 6.28591 45.1287 5.255 43.4913 4.69769C41.8538 4.14039 40.0877 4.08177 38.417 4.52928C36.7461 4.97679 35.2458 5.91027 34.1062 7.2114C32.9664 8.51257 32.2387 10.1228 32.0152 11.838C31.7916 13.5532 32.0823 15.296 32.8504 16.8459C33.6186 18.3957 34.8295 19.6825 36.3298 20.5433C37.8301 21.4041 39.5522 21.8001 41.2777 21.6811C43.0033 21.5621 44.6547 20.9335 46.0227 19.8749L44.8221 17.9765C44.2612 18.4385 43.6273 18.8039 42.9464 19.0576Z" fill="#006BFF"/>
<path d="M114.677 9.3822V16.1828C114.677 18.3818 113.398 19.7745 111.445 19.7745C109.492 19.7745 108.079 18.3818 108.079 16.1828V9.3822H105.969V15.9791C105.969 19.4358 108.123 21.6802 111.445 21.6802C114.318 21.6802 114.767 19.8624 114.767 19.817V22.2637C114.767 24.6876 113.712 26.0569 111.513 26.0569C110.727 26.0607 109.967 25.7788 109.373 25.2637C108.78 24.7486 108.394 24.0354 108.287 23.2569L106.401 23.9165C106.671 25.0699 107.324 26.0978 108.253 26.8329C109.182 27.5681 110.332 27.967 111.516 27.9648C114.928 27.9648 116.794 25.7197 116.794 22.2637V9.3822H114.677Z" fill="#006BFF"/>
<path d="M17.8835 16.3625C17.0823 17.0735 16.0818 17.9582 14.2676 17.9582H13.1828C11.87 17.9582 10.676 17.481 9.82136 16.6161C8.98649 15.7709 8.52691 14.6143 8.52691 13.3587V11.8744C8.52691 10.6188 8.98649 9.46215 9.82136 8.61701C10.676 7.75209 11.87 7.27565 13.1828 7.27565H14.2676C16.084 7.27565 17.0823 8.15963 17.8835 8.87063C18.7154 9.60361 19.433 10.2442 21.3468 10.2442C21.6387 10.2442 21.9301 10.2209 22.2183 10.1746L22.2117 10.1577C22.0971 9.87306 21.9626 9.5968 21.8093 9.33094L20.5303 7.11513C19.9535 6.11624 19.1239 5.28677 18.125 4.7101C17.126 4.13342 15.9928 3.82984 14.8394 3.8299H12.2805C11.127 3.82984 9.9939 4.13342 8.99492 4.7101C7.99599 5.28677 7.16642 6.11624 6.58963 7.11513L5.31057 9.33094C4.73397 10.3299 4.43042 11.4631 4.43042 12.6165C4.43042 13.77 4.73397 14.9032 5.31057 15.9021L6.58963 18.118C7.16642 19.1169 7.99599 19.9463 8.99492 20.523C9.9939 21.0997 11.127 21.4033 12.2805 21.4032H14.8394C15.9928 21.4033 17.126 21.0997 18.125 20.523C19.1239 19.9463 19.9535 19.1169 20.5303 18.118L21.8093 15.9058C21.9626 15.64 22.0971 15.3637 22.2117 15.079L22.2183 15.0629C21.9303 15.015 21.6388 14.9905 21.3468 14.9896C19.433 14.9896 18.7154 15.6265 17.8835 16.3632" fill="#006BFF"/>
<path d="M14.2675 8.62067H13.1827C11.1846 8.62067 9.87183 10.0478 9.87183 11.8744V13.3587C9.87183 15.1853 11.1846 16.6124 13.1827 16.6124H14.2675C17.1789 16.6124 16.9503 13.6438 21.3467 13.6438C21.7632 13.6434 22.1789 13.6816 22.5884 13.7582C22.7218 13.003 22.7218 12.2302 22.5884 11.4749C22.1789 11.5511 21.7632 11.5893 21.3467 11.5893C16.9488 11.5893 17.1789 8.62067 14.2675 8.62067Z" fill="#006BFF"/>
<path d="M25.1142 14.843C24.3656 14.2946 23.5021 13.9234 22.5891 13.7574C22.5891 13.7655 22.5891 13.7721 22.5891 13.7794C22.5105 14.2171 22.3877 14.6456 22.2226 15.0585C22.9768 15.1753 23.6925 15.47 24.3101 15.9182C24.3101 15.9241 24.3065 15.9314 24.3043 15.938C23.5092 18.5124 21.8172 20.7162 19.5354 22.1491C17.2537 23.582 14.5337 24.149 11.8695 23.747C9.20531 23.3449 6.77368 22.0006 5.01636 19.9582C3.25904 17.9158 2.2926 15.3109 2.2926 12.6165C2.2926 9.92214 3.25904 7.3172 5.01636 5.27481C6.77368 3.23241 9.20531 1.88811 11.8695 1.48609C14.5337 1.08407 17.2537 1.651 19.5354 3.0839C21.8172 4.51682 23.5092 6.72062 24.3043 9.295C24.3043 9.3016 24.3079 9.30893 24.3101 9.31479C23.6925 9.76309 22.9768 10.0576 22.2226 10.1739C22.3875 10.5873 22.5103 11.0163 22.5891 11.4544C22.5887 11.4612 22.5887 11.4681 22.5891 11.4749C23.5021 11.3092 24.3655 10.9382 25.1142 10.3901C25.834 9.8572 25.6947 9.25542 25.5855 8.89919C24.6956 6.01279 22.7997 3.54141 20.2423 1.93418C17.685 0.326928 14.6358 -0.309526 11.6491 0.140462C8.66232 0.590449 5.93607 2.09701 3.96577 4.3864C1.99546 6.67578 0.911865 9.59604 0.911865 12.6165C0.911865 15.637 1.99546 18.5573 3.96577 20.8466C5.93607 23.136 8.66232 24.6426 11.6491 25.0926C14.6358 25.5426 17.685 24.9061 20.2423 23.2989C22.7997 21.6916 24.6956 19.2203 25.5855 16.3338C25.6947 15.9776 25.834 15.3758 25.1142 14.843Z" fill="#006BFF"/>
<path d="M22.2183 10.1739C21.9302 10.2217 21.6388 10.2462 21.3467 10.2472C19.4329 10.2472 18.7153 9.61019 17.8841 8.87354C17.0822 8.16254 16.0839 7.27783 14.2676 7.27783H13.1828C11.8693 7.27783 10.676 7.755 9.82131 8.61993C8.98644 9.46506 8.52686 10.6217 8.52686 11.8773V13.3616C8.52686 14.6172 8.98644 15.7739 9.82131 16.619C10.676 17.4839 11.8693 17.9603 13.1828 17.9603H14.2676C16.0839 17.9603 17.0822 17.0764 17.8841 16.3654C18.7153 15.6324 19.4329 14.9918 21.3467 14.9918C21.6386 14.9918 21.9301 15.0151 22.2183 15.0614C22.3837 14.6486 22.5065 14.2201 22.5848 13.7823C22.5852 13.775 22.5852 13.7677 22.5848 13.7603C22.1752 13.6844 21.7596 13.6464 21.3431 13.6467C16.9452 13.6467 17.1753 16.6161 14.2639 16.6161H13.1791C11.181 16.6161 9.86822 15.1882 9.86822 13.3616V11.8744C9.86822 10.0478 11.181 8.62066 13.1791 8.62066H14.2639C17.1753 8.62066 16.9466 11.5885 21.3431 11.5885C21.7596 11.5892 22.1753 11.5512 22.5848 11.4749C22.5848 11.4683 22.5848 11.4617 22.5848 11.4544C22.506 11.0163 22.3832 10.5873 22.2183 10.1739Z" fill="#0AE8F0"/>
<path d="M22.2183 10.1739C21.9302 10.2217 21.6388 10.2462 21.3467 10.2472C19.4329 10.2472 18.7153 9.61019 17.8841 8.87354C17.0822 8.16254 16.0839 7.27783 14.2676 7.27783H13.1828C11.8693 7.27783 10.676 7.755 9.82131 8.61993C8.98644 9.46506 8.52686 10.6217 8.52686 11.8773V13.3616C8.52686 14.6172 8.98644 15.7739 9.82131 16.619C10.676 17.4839 11.8693 17.9603 13.1828 17.9603H14.2676C16.0839 17.9603 17.0822 17.0764 17.8841 16.3654C18.7153 15.6324 19.4329 14.9918 21.3467 14.9918C21.6386 14.9918 21.9301 15.0151 22.2183 15.0614C22.3837 14.6486 22.5065 14.2201 22.5848 13.7823C22.5852 13.775 22.5852 13.7677 22.5848 13.7603C22.1752 13.6844 21.7596 13.6464 21.3431 13.6467C16.9452 13.6467 17.1753 16.6161 14.2639 16.6161H13.1791C11.181 16.6161 9.86822 15.1882 9.86822 13.3616V11.8744C9.86822 10.0478 11.181 8.62066 13.1791 8.62066H14.2639C17.1753 8.62066 16.9466 11.5885 21.3431 11.5885C21.7596 11.5892 22.1753 11.5512 22.5848 11.4749C22.5848 11.4683 22.5848 11.4617 22.5848 11.4544C22.506 11.0163 22.3832 10.5873 22.2183 10.1739Z" fill="#0AE8F0"/>
</g>
<defs>
<clipPath id="clip0_323_40374">
<rect width="115.885" height="28" fill="white" transform="translate(0.908936)"/>
</clipPath>
</defs>
</svg>
