<svg width="205" height="28" viewBox="0 0 205 28" fill="none" xmlns="http://www.w3.org/2000/svg">
<g clip-path="url(#clip0_323_40256)">
<path d="M123.393 2.29722C120.113 2.29722 118.518 4.23026 118.518 7.07758V8.74971H116.036V11.1865H118.528V24.0689H121.101V11.1865H125.053V8.74971H121.101L121.077 7.15425C121.077 5.77578 121.892 4.82494 123.514 4.82494C124.07 4.82272 124.623 4.87504 125.168 4.97874V2.54112C124.591 2.37644 123.993 2.2939 123.393 2.29722ZM46.4347 2.86558C46.0025 2.88134 45.5897 3.05948 45.2819 3.36854C44.9287 3.72036 44.7469 4.20958 44.7815 4.70668C44.7815 5.36404 45.1313 5.97201 45.7009 6.29997C46.2695 6.62935 46.9711 6.62935 47.5397 6.29997C48.1083 5.97201 48.4597 5.36404 48.4585 4.70668C48.4941 4.20958 48.3121 3.72036 47.9591 3.36854C47.6071 3.01532 47.1177 2.83328 46.6205 2.86906C46.5583 2.86462 46.4963 2.8633 46.4347 2.86552V2.86558ZM90.3791 3.63496C85.6886 3.63496 83.3003 5.95358 83.3003 9.08675C83.3003 12.3951 85.3303 13.9577 89.8571 15.0614C93.6865 15.9808 94.7899 16.9274 94.7899 18.7068C94.7899 20.4861 93.6441 21.6807 90.6117 21.6807C87.9485 21.6807 85.0689 20.9767 83.1997 19.9956V22.8127C84.7627 23.6097 86.5697 24.3753 90.4623 24.3753C95.4581 24.3753 97.5411 22.0143 97.5615 18.5227C97.5615 14.8946 95.1703 13.5298 90.9121 12.4566C87.3607 11.5697 86.0719 10.7405 86.0719 9.08675C86.0719 7.24888 87.6355 6.32943 90.2705 6.32943C92.4581 6.2762 94.6211 6.80451 96.5378 7.86165V5.1035C95.159 4.33136 93.2902 3.63496 90.3791 3.63496ZM38.8389 3.94426L38.8459 18.125C38.8459 20.1343 38.0409 21.5269 35.7125 21.5269C34.7377 21.5345 33.7717 21.3571 32.8643 21.0049V23.6851C33.9285 24.0481 35.0475 24.2245 36.1717 24.2085C39.9741 24.2085 41.5967 21.6491 41.5967 17.9409V3.94426H38.8389ZM128.964 5.50074V8.76272H126.48V11.2008H128.974V19.2851C128.974 22.1367 130.569 24.0655 133.848 24.0655C134.449 24.0689 135.047 23.9863 135.624 23.8217V21.2801C135.081 21.4067 134.527 21.4793 133.97 21.4957C132.347 21.4957 131.55 20.5771 131.536 19.2288V11.1865H135.61V8.74971H131.536V5.50074H128.964ZM197.393 8.43261C192.735 8.43261 190.162 11.7397 190.162 16.3675C190.162 21.0677 192.672 24.3753 198.404 24.3753C199.966 24.3753 201.9 24.1381 203.156 23.4603V21.0223C201.662 21.5691 200.086 21.8499 198.498 21.8509C194.883 21.8509 193.197 20.1657 192.829 17.561H204.008V16.3675C204.008 11.7117 202.112 8.43261 197.393 8.43261ZM67.3607 8.44347C63.0711 8.44347 60.9269 12.0887 60.9269 16.4087C60.9269 20.9141 62.9811 24.3753 67.0545 24.3753C69.4121 24.3753 71.2503 23.3347 72.2325 21.3117L72.2355 24.0689H74.8717V8.74976H72.2355V11.4442C71.3129 9.4525 69.5963 8.44347 67.3609 8.44347H67.3607ZM107.161 8.44347C102.565 8.44347 99.87 11.7824 99.87 16.3775C99.87 20.9737 102.596 24.3861 107.161 24.3861C111.726 24.3861 114.392 20.9737 114.392 16.3775C114.392 11.7824 111.756 8.44347 107.161 8.44347ZM169.634 8.44347C165.344 8.44347 163.2 12.0887 163.2 16.4087C163.2 20.9141 165.254 24.3753 169.327 24.3753C171.685 24.3753 173.523 23.3347 174.505 21.3117L174.508 24.0689H177.144V8.74976H174.508V11.4442C173.585 9.4525 171.869 8.44347 169.634 8.44347ZM59.3427 8.51581C56.7073 8.51228 55.2939 9.74958 54.4615 11.4442V8.74976H51.8883V24.0793H54.4615V15.0268C54.4615 11.7822 56.5157 10.7587 59.8859 11.1064V8.53315C59.6991 8.52162 59.5183 8.51607 59.3427 8.51585V8.51581ZM188.577 8.51581C185.942 8.51228 184.529 9.74958 183.696 11.4442V8.74976H181.123V24.0793H183.696V15.0268C183.696 11.7822 185.751 10.7587 189.121 11.1064V8.53315C188.934 8.52162 188.753 8.51607 188.577 8.51585V8.51581ZM136.362 8.74976L141.999 24.0689H145.369L148.039 16.6569L149.433 11.9381L150.825 16.6569L153.461 24.0689H156.831L162.468 8.74976H159.557L155.142 21.7393L150.668 8.74976H148.154L143.684 21.7393L139.273 8.74976H136.362ZM45.2733 8.7533V24.0721H47.9079V8.7533H45.2733ZM197.264 10.8487C199.897 10.8487 201.184 12.4742 201.338 15.3223H192.798V15.3055C193.073 12.6489 194.483 10.8349 197.264 10.8487V10.8487ZM68.0539 10.8803C70.3035 10.8803 72.2325 12.3813 72.2325 15.7828V17.0218C72.2325 20.4219 70.1203 21.9233 67.7619 21.9247C65.0315 21.9247 63.5627 20.0855 63.5487 16.3945C63.5487 12.8402 65.0801 10.8803 68.0539 10.8803ZM170.327 10.8803C172.576 10.8803 174.505 12.3813 174.505 15.7828V17.0218C174.505 20.4215 172.393 21.9229 170.034 21.9247C167.304 21.9247 165.825 20.0857 165.825 16.4088C165.825 12.8545 167.367 10.9083 170.327 10.8803ZM107.161 10.908C110.409 10.908 111.819 13.4676 111.819 16.3776C111.819 19.2887 110.437 21.9247 107.161 21.9247C103.885 21.9247 102.443 19.2887 102.443 16.3776H102.456C102.456 13.4676 103.912 10.908 107.161 10.908Z" fill="#253858"/>
<path d="M25.9979 13.2616L14.6469 1.91058L13.5468 0.811279L1.09651 13.2616C0.68951 13.6697 0.68951 14.3304 1.09651 14.7377L8.90293 22.5439L13.5468 27.1889L25.9979 14.7377C26.4053 14.3304 26.4053 13.6697 25.9979 13.2616ZM13.5468 17.8989L9.64791 14.0002L13.5468 10.1002L17.4466 14.0002L13.5468 17.8989Z" fill="#2684FF"/>
<path d="M13.5469 10.1002C10.9943 7.54648 10.9813 3.4105 13.5198 0.841797L4.98584 9.37242L9.63082 14.0174L13.5469 10.1002Z" fill="url(#paint0_linear_323_40256)"/>
<path d="M17.4575 13.989L13.5469 17.8988C14.7792 19.13 15.4724 20.8012 15.4724 22.5438C15.4724 24.2862 14.7792 25.9564 13.5469 27.1888L22.1014 18.634L17.4575 13.989Z" fill="url(#paint1_linear_323_40256)"/>
</g>
<defs>
<linearGradient id="paint0_linear_323_40256" x1="11.871" y1="7.13582" x2="7.40554" y2="11.6001" gradientUnits="userSpaceOnUse">
<stop stop-color="#0052CC"/>
<stop offset="1" stop-color="#2684FF"/>
</linearGradient>
<linearGradient id="paint1_linear_323_40256" x1="15.2711" y1="20.8208" x2="19.7276" y2="16.3643" gradientUnits="userSpaceOnUse">
<stop stop-color="#0052CC"/>
<stop offset="1" stop-color="#2684FF"/>
</linearGradient>
<clipPath id="clip0_323_40256">
<rect width="204.8" height="28" fill="white"/>
</clipPath>
</defs>
</svg>
