<svg width="84" height="28" viewBox="0 0 84 28" fill="none" xmlns="http://www.w3.org/2000/svg">
<g clip-path="url(#clip0_323_40293)">
<path d="M8.22514 23.9272C8.22514 25.8999 6.63426 27.4908 4.66154 27.4908C2.68881 27.4908 1.0979 25.8999 1.0979 23.9272C1.0979 21.9544 2.68881 20.3635 4.66154 20.3635C6.63426 20.3635 8.22514 21.9544 8.22514 23.9272Z" fill="black"/>
<path d="M20.1251 23.991C20.1251 25.391 18.9796 26.5365 17.5796 26.5365C16.1796 26.5365 15.0342 25.391 15.0342 23.991C15.0342 22.591 16.1796 21.4456 17.5796 21.4456C18.9796 21.4456 20.1251 22.591 20.1251 23.991Z" fill="black"/>
<path d="M29.3524 23.9909C29.3524 24.6273 28.8433 25.1364 28.207 25.1364C27.5706 25.1364 27.0615 24.6273 27.0615 23.9909C27.0615 23.3546 27.5706 22.8455 28.207 22.8455C28.8433 22.8455 29.3524 23.3546 29.3524 23.9909Z" fill="black"/>
<path d="M16.8798 16.4183C16.2434 16.4183 15.798 15.9092 15.798 15.3365V10.6274C15.798 9.03647 15.0343 7.76374 13.3162 7.76374C11.598 7.76374 10.5162 9.10011 10.5162 10.6274V15.2728C10.5162 15.9092 10.0707 16.3547 9.43434 16.3547C8.79798 16.3547 8.35252 15.8456 8.35252 15.2728V10.5637C8.35252 8.97283 7.52525 7.70011 5.80707 7.70011C4.02525 7.70011 3.13434 9.03647 3.13434 10.5637V15.2092C3.13434 15.8456 2.68889 16.291 2.05252 16.291C1.41616 16.291 0.970703 15.7819 0.970703 15.2092V7.00011C0.970703 6.36374 1.41616 5.85465 2.05252 5.85465C2.81616 5.85465 3.13434 6.36374 3.13434 7.00011V7.76374C3.7707 6.55465 5.04343 5.79102 6.44343 5.79102C8.09798 5.79102 9.3707 6.61829 10.0071 7.89102C10.898 6.49102 12.2343 5.79102 13.8889 5.79102C16.6889 5.79102 18.0889 7.76374 18.0889 10.5001V15.3365C18.0252 15.9092 17.5798 16.4183 16.8798 16.4183Z" fill="black"/>
<path d="M21.0796 16.4183C20.4432 16.4183 19.9978 15.9092 19.9978 15.3364V7.00008C19.9978 6.36372 20.4432 5.91826 21.0796 5.91826C21.716 5.91826 22.1614 6.42735 22.1614 7.00008V15.3364C22.1614 15.9092 21.716 16.4183 21.0796 16.4183ZM21.0796 1.71826C21.7796 1.71826 22.3523 2.29099 22.3523 2.99099C22.3523 3.69099 21.7796 4.26372 21.0796 4.26372C20.3796 4.26372 19.8069 3.69099 19.8069 2.99099C19.8069 2.29099 20.3796 1.71826 21.0796 1.71826Z" fill="black"/>
<path d="M28.3344 9.67251L31.1344 6.23615C31.3253 6.04524 31.5799 5.91797 31.8344 5.91797C32.4708 5.91797 32.8526 6.29979 32.8526 6.87251C32.8526 7.06342 32.789 7.31797 32.5981 7.50888L29.5435 11.1362L32.6617 14.8271C32.8526 15.018 32.9162 15.2089 32.9162 15.4634C32.9162 15.9725 32.4708 16.418 31.9617 16.418C31.6435 16.418 31.389 16.2907 31.1981 16.0362L28.3981 12.5362L25.5981 16.0362C25.4072 16.2907 25.1526 16.418 24.8344 16.418C24.3253 16.418 23.8799 15.9725 23.8799 15.4634C23.8799 15.2089 23.9435 15.018 24.1344 14.8271L27.2526 11.1362L24.1981 7.50888C24.0072 7.31797 23.9435 7.06342 23.9435 6.87251C23.9435 6.29979 24.3253 5.91797 24.9617 5.91797C25.2799 5.91797 25.4708 6.04524 25.6617 6.23615L28.3344 9.67251Z" fill="black"/>
<path d="M39.8524 7.63655C37.9433 7.63655 36.7342 9.2911 36.7342 11.2002C36.7342 13.0456 38.0069 14.7638 39.8524 14.7638C41.7615 14.7638 42.9706 13.3638 42.9706 11.2002C42.9706 9.03655 41.7615 7.63655 39.8524 7.63655ZM40.2978 16.5456C38.7069 16.5456 37.4342 15.7184 36.7342 14.5093V19.7275C36.7342 20.3638 36.2887 20.8093 35.6524 20.8093C35.016 20.8093 34.5706 20.3002 34.5706 19.7275V7.00019C34.5706 6.36383 34.9524 5.91837 35.5887 5.91837C36.2251 5.91837 36.6706 6.42746 36.6706 7.06383V7.8911C37.3706 6.68201 38.7706 5.85474 40.2978 5.85474C42.9706 5.85474 45.1342 8.08201 45.1342 11.2002C45.1342 14.382 42.9706 16.5456 40.2978 16.5456Z" fill="black"/>
<path d="M51.3706 7.70019C49.5251 7.70019 48.1888 9.2911 48.1888 11.2002C48.1888 13.2366 49.2706 14.7002 51.3706 14.7002C53.2797 14.7002 54.5524 13.0456 54.5524 11.2002C54.4888 8.97292 53.2161 7.70019 51.3706 7.70019ZM56.7161 15.3366C56.7161 15.9729 56.2706 16.4184 55.6342 16.4184C54.9979 16.4184 54.5524 15.9093 54.5524 15.3366V14.8275C53.9161 15.782 52.6433 16.5456 51.1797 16.5456C47.9342 16.5456 46.0251 14.1275 46.0251 11.2002C46.0251 8.27292 48.1251 5.85474 51.4342 5.85474C54.807 5.85474 56.7797 8.08201 56.7797 11.2002V15.3366H56.7161Z" fill="black"/>
<path d="M63.2708 5.79102C66.0707 5.79102 68.1707 7.95465 68.1707 10.691V15.3365C68.1707 15.9728 67.6616 16.4183 67.0889 16.4183C66.4525 16.4183 66.0071 15.9092 66.0071 15.3365V10.4365C66.0071 8.97283 64.8616 7.82738 63.3344 7.82738C61.8071 7.82738 60.6617 8.97283 60.6617 10.4365V15.3365C60.6617 15.9728 60.1526 16.4183 59.5799 16.4183C58.9435 16.4183 58.498 15.9092 58.498 15.3365V10.691C58.4344 7.95465 60.4708 5.79102 63.2708 5.79102Z" fill="black"/>
<path d="M74.7253 7.57283C73.1344 7.57283 72.0525 8.71829 71.798 10.1819H77.5253C77.3344 8.71829 76.3162 7.57283 74.7253 7.57283ZM79.5616 11.2001C79.5616 11.5819 79.3707 11.9637 78.7344 11.9637H71.798C71.9253 13.5547 73.0071 14.7637 74.9162 14.7637C76.1253 14.7637 76.8253 14.3183 77.5889 13.6183C77.7798 13.4274 78.0343 13.2365 78.2889 13.2365C78.798 13.2365 79.1798 13.6183 79.1798 14.1274C79.1798 14.3819 79.0525 14.5728 78.9253 14.7637C78.0343 15.7819 76.4434 16.4819 74.7889 16.4819C71.2889 16.4819 69.5071 14.0637 69.5071 11.1365C69.5071 8.08192 71.7344 5.79102 74.7253 5.79102C77.6525 5.79102 79.5616 8.2092 79.5616 11.2001Z" fill="black"/>
<path d="M82.1707 16.4181C81.5343 16.4181 81.0889 15.909 81.0889 15.3363V1.59085C81.0889 0.954485 81.5343 0.509033 82.1707 0.509033C82.807 0.509033 83.2525 1.01812 83.2525 1.59085V15.3363C83.2525 15.909 82.807 16.4181 82.1707 16.4181Z" fill="black"/>
</g>
<defs>
<clipPath id="clip0_323_40293">
<rect width="82.7273" height="28" fill="white" transform="translate(0.906982)"/>
</clipPath>
</defs>
</svg>
