<svg width="126" height="29" viewBox="0 0 126 29" fill="none" xmlns="http://www.w3.org/2000/svg">
<g clip-path="url(#clip0_446_56743)">
<path d="M22.2913 5.42722C17.5187 5.08441 12.2026 5.08442 7.42993 5.42722C6.43086 5.49899 5.67388 6.26398 5.59876 7.19905C5.35785 10.1978 5.3258 14.6905 5.5467 17.6862C5.61967 18.6757 6.48843 19.5251 7.66374 19.5251H11.3481V24.0701L7.67125 24.0675C4.29819 24.0675 1.27055 21.5674 1.00902 18.0208C0.770925 14.792 0.80381 10.0656 1.06337 6.8347C1.32349 3.59669 3.92725 1.1171 7.10395 0.888919C12.0937 0.530517 17.6276 0.530516 22.6173 0.888918C25.794 1.11709 28.3978 3.59669 28.6579 6.8347C28.9175 10.0656 28.9061 14.792 28.668 18.0208C28.4065 21.5674 25.3858 24.0777 22.0128 24.0777L18.3739 24.0751L11.3481 28.6201V24.0701L18.3739 19.5251H22.0133C23.1886 19.5251 24.0573 18.6757 24.1303 17.6862C24.3512 14.6905 24.3634 10.1978 24.1225 7.19905C24.0474 6.26398 23.2904 5.49899 22.2913 5.42722Z" fill="#FE5000"/>
<path d="M35.8125 20.5976H46.8081V17.8368H39.1445V3.93759H35.8125V20.5976Z" fill="#1B1B20"/>
<path d="M48.4019 20.5977H51.6387V8.22175H48.4019V20.5977ZM48.1401 4.98495C48.1401 6.05595 48.9255 6.86515 50.0203 6.86515C51.1151 6.86515 51.9005 6.05595 51.9005 4.98495C51.9005 3.91395 51.1151 3.10475 50.0203 3.10475C48.9255 3.10475 48.1401 3.91395 48.1401 4.98495Z" fill="#1B1B20"/>
<path d="M64.3302 8.22168H61.0934L58.4278 17.2895L55.7622 8.22168H52.5254L56.738 20.5977H60.1176L64.3302 8.22168Z" fill="#1B1B20"/>
<path d="M70.1063 20.8832C72.8433 20.8832 75.0567 19.241 75.4851 16.98H72.6529C72.3435 17.8368 71.4867 18.5508 70.1063 18.5508C68.2261 18.5508 67.4883 17.2894 67.4883 15.8376V15.5282H75.5803V13.3624C75.5803 10.3874 73.7239 7.93594 70.0587 7.93594C66.3459 7.93594 64.3467 10.316 64.3467 13.6718V15.3616C64.3467 18.8364 66.6077 20.8832 70.1063 20.8832ZM67.4883 13.1244C67.4883 11.4584 68.2023 10.2208 70.0587 10.2208C71.7961 10.2208 72.6053 11.387 72.6053 12.934V13.2434H67.4883V13.1244Z" fill="#1B1B20"/>
<path d="M84.1827 20.9309C88.3953 20.9309 90.9895 18.0749 91.1561 14.6715H88.0621C87.8479 16.5517 86.6579 18.1939 84.1827 18.1939C81.3981 18.1939 80.2081 16.2899 80.2081 13.6243V10.9111C80.2081 8.24546 81.3981 6.34146 84.1827 6.34146C86.6579 6.34146 87.8479 7.98366 88.0621 9.86386H91.1561C90.9895 6.46046 88.3953 3.60446 84.1827 3.60446C79.1609 3.60446 76.8999 6.81746 76.8999 11.0777V13.4577C76.8999 17.7179 79.1609 20.9309 84.1827 20.9309Z" fill="#1B1B20"/>
<path d="M92.9155 20.5977H96.1525V13.2673C96.1525 11.6013 97.0803 10.7445 98.5325 10.7445C100.103 10.7445 100.793 11.7679 100.793 13.1959V20.5977H104.03V12.6723C104.03 9.74489 102.341 7.93609 99.6506 7.93609C98.0565 7.93609 96.7946 8.62629 96.1525 9.69729V3.22369H92.9155V20.5977Z" fill="#1B1B20"/>
<path d="M110.209 20.8832C111.637 20.8832 113.207 20.2882 113.779 19.4552V20.5976H116.896V12.696C116.896 9.81614 114.778 7.93594 111.684 7.93594C109.019 7.93594 107.09 9.22114 106.376 11.625H109.375C109.708 10.9586 110.399 10.4588 111.517 10.4588C112.85 10.4588 113.659 11.3156 113.659 12.458V14.1478C113.088 13.6718 111.993 13.1006 110.518 13.1006C107.543 13.1006 105.52 14.3382 105.52 17.0276C105.52 19.4314 107.424 20.8832 110.209 20.8832ZM111.041 18.7412C109.685 18.7412 108.661 18.0748 108.661 16.9324C108.661 15.79 109.613 15.1712 111.136 15.1712C112.589 15.1712 113.659 15.8138 113.659 16.9086C113.659 17.9558 112.469 18.7412 111.041 18.7412Z" fill="#1B1B20"/>
<path d="M122.945 20.5976H125.182V17.9796H123.873C123.016 17.9796 122.707 17.6464 122.707 16.8372V10.8396H125.348V8.2216H122.707V4.842H119.446V8.2216H117.685V10.8396H119.446V17.0752C119.446 19.2648 120.565 20.5976 122.945 20.5976Z" fill="#1B1B20"/>
</g>
<defs>
<clipPath id="clip0_446_56743">
<rect width="125.067" height="28" fill="white" transform="translate(0.848145 0.620117)"/>
</clipPath>
</defs>
</svg>
