<svg width="117" height="29" viewBox="0 0 117 29" fill="none" xmlns="http://www.w3.org/2000/svg">
<g clip-path="url(#clip0_446_56742)">
<path d="M69.1694 11.6545C70.9666 11.6545 72.6686 12.7539 73.0278 15.1295H65.0236C65.3586 13.0449 66.9169 11.6545 69.1694 11.6545ZM72.772 18.6442C72.1607 19.5971 70.9791 20.3301 69.3614 20.3301C67.1324 20.3301 65.4304 19.1082 65.0236 16.951H75.0655C75.1139 16.6418 75.1388 16.3294 75.1388 16.0165C75.1388 12.6616 72.7932 9.68933 69.1708 9.68933C65.4326 9.68933 62.8921 12.4454 62.8921 15.993C62.8921 19.5846 65.4575 22.2967 69.3145 22.2967C71.7114 22.2967 73.5328 21.2177 74.5869 19.5846L72.772 18.6442Z" fill="#006BFF"/>
<path d="M61.9054 4.48881H59.8208V21.9844H61.9054V4.48881Z" fill="#006BFF"/>
<path d="M86.7384 14.6267V21.9837H84.653V14.7462C84.653 12.7811 83.5272 11.6786 81.6815 11.6786C79.764 11.6786 78.2064 12.8052 78.2064 15.6331V21.9837H76.1211V10.0023H78.2064V11.7278C79.0933 10.3138 80.4112 9.6908 82.0912 9.6908C84.8949 9.6908 86.7406 11.5599 86.7406 14.6282" fill="#006BFF"/>
<path d="M98.2352 15.9923C98.2352 13.5478 96.3895 11.7021 93.9692 11.7021C91.5724 11.7021 89.7274 13.5478 89.7274 15.9923C89.7274 18.4368 91.5724 20.2824 93.9692 20.2824C96.3881 20.2824 98.2352 18.4368 98.2352 15.9923ZM100.32 4.48881V21.9844H98.2352V19.9225C97.2764 21.3885 95.743 22.2959 93.7053 22.2959C90.3739 22.2959 87.6421 19.5392 87.6421 15.9923C87.6421 12.4454 90.3739 9.6886 93.7053 9.6886C95.7423 9.6886 97.2764 10.599 98.2352 12.0613V4.48881H100.32Z" fill="#006BFF"/>
<path d="M104.086 4.48881H102.001V21.9844H104.086V4.48881Z" fill="#006BFF"/>
<path d="M56.1048 15.9923C56.1048 13.5478 54.2599 11.7021 51.8388 11.7021C49.4427 11.7021 47.5971 13.5478 47.5971 15.9923C47.5971 18.4368 49.4427 20.2824 51.8388 20.2824C54.2577 20.2824 56.1048 18.4368 56.1048 15.9923ZM58.1901 10.0023V21.9837H56.1048V19.9225C55.1461 21.3885 53.6127 22.2959 51.5757 22.2959C48.2443 22.2959 45.5117 19.5392 45.5117 15.9923C45.5117 12.4454 48.2443 9.6886 51.5757 9.6886C53.6127 9.6886 55.1461 10.599 56.1048 12.0613V10.0023H58.1901Z" fill="#006BFF"/>
<path d="M42.419 19.6777C41.3517 20.0715 40.1996 20.1779 39.0783 19.9861C37.957 19.7942 36.9058 19.3109 36.0301 18.5847C35.1544 17.8584 34.4851 16.9148 34.0891 15.8482C33.6932 14.7817 33.5846 13.6299 33.7742 12.5081C33.9639 11.3864 34.4451 10.3343 35.1696 9.45719C35.8942 8.58003 36.8366 7.90887 37.9023 7.51085C38.9681 7.11284 40.1197 7.002 41.2418 7.18945C42.3639 7.3769 43.417 7.85606 44.2955 8.57886C44.6618 8.88114 44.9932 9.22337 45.2835 9.59917L47.0874 8.2798C46.0365 6.90597 44.6013 5.87506 42.9639 5.31775C41.3264 4.76045 39.5604 4.70183 37.8896 5.14934C36.2188 5.59685 34.7185 6.53033 33.5788 7.83146C32.4391 9.13263 31.7114 10.7428 31.4878 12.458C31.2643 14.1732 31.555 15.9161 32.3231 17.4659C33.0912 19.0157 34.3022 20.3026 35.8025 21.1634C37.3027 22.0242 39.0248 22.4202 40.7504 22.3012C42.476 22.1822 44.1274 21.5536 45.4954 20.495L44.2947 18.5966C43.7339 19.0586 43.1 19.4239 42.419 19.6777Z" fill="#006BFF"/>
<path d="M114.15 10.0023V16.8029C114.15 19.0019 112.871 20.3946 110.918 20.3946C108.965 20.3946 107.551 19.0019 107.551 16.8029V10.0023H105.442V16.5992C105.442 20.0559 107.596 22.3003 110.918 22.3003C113.791 22.3003 114.24 20.4825 114.24 20.4371V22.8838C114.24 25.3078 113.185 26.677 110.985 26.677C110.2 26.6809 109.44 26.399 108.846 25.8838C108.253 25.3687 107.867 24.6555 107.76 23.877L105.874 24.5367C106.144 25.69 106.796 26.718 107.726 27.4531C108.655 28.1882 109.805 28.5871 110.989 28.5849C114.4 28.5849 116.267 26.3398 116.267 22.8838V10.0023H114.15Z" fill="#006BFF"/>
<path d="M17.3564 16.9825C16.5552 17.6935 15.5547 18.5782 13.7405 18.5782H12.6557C11.3429 18.5782 10.1489 18.1011 9.29426 17.2361C8.45939 16.391 7.99981 15.2344 7.99981 13.9788V12.4945C7.99981 11.2389 8.45939 10.0822 9.29426 9.23708C10.1489 8.37216 11.3429 7.89572 12.6557 7.89572H13.7405C15.5569 7.89572 16.5552 8.7797 17.3564 9.49069C18.1883 10.2237 18.9059 10.8643 20.8197 10.8643C21.1116 10.8642 21.403 10.8409 21.6912 10.7947L21.6846 10.7778C21.57 10.4931 21.4355 10.2169 21.2822 9.95101L20.0032 7.73519C19.4264 6.73631 18.5968 5.90684 17.5979 5.33016C16.5989 4.75348 15.4657 4.44991 14.3123 4.44996H11.7534C10.5999 4.44991 9.4668 4.75348 8.46782 5.33016C7.46889 5.90684 6.63932 6.73631 6.06253 7.73519L4.78347 9.95101C4.20687 10.95 3.90332 12.0832 3.90332 13.2366C3.90332 14.39 4.20687 15.5232 4.78347 16.5222L6.06253 18.738C6.63932 19.7369 7.46889 20.5664 8.46782 21.1431C9.4668 21.7197 10.5999 22.0233 11.7534 22.0233H14.3123C15.4657 22.0233 16.5989 21.7197 17.5979 21.1431C18.5968 20.5664 19.4264 19.7369 20.0032 18.738L21.2822 16.5259C21.4355 16.26 21.57 15.9838 21.6846 15.6991L21.6912 15.6829C21.4032 15.6351 21.1117 15.6106 20.8197 15.6096C18.9059 15.6096 18.1883 16.2466 17.3564 16.9833" fill="#006BFF"/>
<path d="M13.7404 9.24075H12.6556C10.6575 9.24075 9.34473 10.6679 9.34473 12.4945V13.9788C9.34473 15.8054 10.6575 17.2325 12.6556 17.2325H13.7404C16.6518 17.2325 16.4232 14.2639 20.8196 14.2639C21.2361 14.2634 21.6518 14.3017 22.0613 14.3782C22.1947 13.623 22.1947 12.8503 22.0613 12.095C21.6518 12.1711 21.2361 12.2094 20.8196 12.2093C16.4217 12.2093 16.6518 9.24075 13.7404 9.24075Z" fill="#006BFF"/>
<path d="M24.5871 15.463C23.8385 14.9147 22.975 14.5435 22.062 14.3775C22.062 14.3856 22.062 14.3922 22.062 14.3995C21.9834 14.8372 21.8606 15.2657 21.6955 15.6785C22.4497 15.7954 23.1654 16.09 23.783 16.5383C23.783 16.5442 23.7794 16.5515 23.7772 16.5581C22.9821 19.1325 21.2901 21.3363 19.0083 22.7692C16.7266 24.2021 14.0066 24.7691 11.3424 24.367C8.67821 23.965 6.24658 22.6207 4.48926 20.5783C2.73194 18.5359 1.7655 15.931 1.7655 13.2366C1.7655 10.5422 2.73194 7.93728 4.48926 5.8949C6.24658 3.8525 8.67821 2.5082 11.3424 2.10617C14.0066 1.70415 16.7266 2.27109 19.0083 3.70399C21.2901 5.1369 22.9821 7.34071 23.7772 9.91509C23.7772 9.92169 23.7808 9.92902 23.783 9.93488C23.1654 10.3832 22.4497 10.6777 21.6955 10.7939C21.8604 11.2073 21.9832 11.6364 22.062 12.0745C22.0616 12.0813 22.0616 12.0882 22.062 12.095C22.975 11.9293 23.8384 11.5583 24.5871 11.0102C25.3069 10.4773 25.1676 9.87551 25.0584 9.51928C24.1685 6.63287 22.2726 4.1615 19.7152 2.55426C17.1579 0.947015 14.1087 0.310561 11.122 0.760549C8.13522 1.21054 5.40897 2.7171 3.43867 5.00648C1.46836 7.29586 0.384766 10.2161 0.384766 13.2366C0.384766 16.2571 1.46836 19.1774 3.43867 21.4667C5.40897 23.7561 8.13522 25.2627 11.122 25.7127C14.1087 26.1626 17.1579 25.5262 19.7152 23.919C22.2726 22.3117 24.1685 19.8404 25.0584 16.9539C25.1676 16.5977 25.3069 15.9959 24.5871 15.463Z" fill="#006BFF"/>
<path d="M21.6909 10.7939C21.4029 10.8418 21.1114 10.8663 20.8194 10.8672C18.9056 10.8672 18.188 10.2303 17.3568 9.49363C16.5549 8.78263 15.5566 7.89792 13.7402 7.89792H12.6554C11.3419 7.89792 10.1486 8.37509 9.29396 9.24001C8.45909 10.0851 7.99951 11.2418 7.99951 12.4974V13.9817C7.99951 15.2373 8.45909 16.3939 9.29396 17.2391C10.1486 18.104 11.3419 18.5804 12.6554 18.5804H13.7402C15.5566 18.5804 16.5549 17.6965 17.3568 16.9855C18.188 16.2525 18.9056 15.6118 20.8194 15.6118C21.1113 15.6119 21.4027 15.6352 21.6909 15.6815C21.8564 15.2687 21.9791 14.8402 22.0574 14.4024C22.0579 14.3951 22.0579 14.3878 22.0574 14.3804C21.6479 14.3045 21.2322 14.2665 20.8157 14.2668C16.4178 14.2668 16.648 17.2361 13.7366 17.2361H12.6518C10.6536 17.2361 9.34087 15.8083 9.34087 13.9817V12.4945C9.34087 10.6679 10.6536 9.24075 12.6518 9.24075H13.7366C16.648 9.24075 16.4193 12.2086 20.8157 12.2086C21.2323 12.2093 21.648 12.1713 22.0574 12.095C22.0574 12.0884 22.0574 12.0818 22.0574 12.0745C21.9786 11.6364 21.8558 11.2073 21.6909 10.7939Z" fill="#0AE8F0"/>
<path d="M21.6909 10.7939C21.4029 10.8418 21.1114 10.8663 20.8194 10.8672C18.9056 10.8672 18.188 10.2303 17.3568 9.49363C16.5549 8.78263 15.5566 7.89792 13.7402 7.89792H12.6554C11.3419 7.89792 10.1486 8.37509 9.29396 9.24001C8.45909 10.0851 7.99951 11.2418 7.99951 12.4974V13.9817C7.99951 15.2373 8.45909 16.3939 9.29396 17.2391C10.1486 18.104 11.3419 18.5804 12.6554 18.5804H13.7402C15.5566 18.5804 16.5549 17.6965 17.3568 16.9855C18.188 16.2525 18.9056 15.6118 20.8194 15.6118C21.1113 15.6119 21.4027 15.6352 21.6909 15.6815C21.8564 15.2687 21.9791 14.8402 22.0574 14.4024C22.0579 14.3951 22.0579 14.3878 22.0574 14.3804C21.6479 14.3045 21.2322 14.2665 20.8157 14.2668C16.4178 14.2668 16.648 17.2361 13.7366 17.2361H12.6518C10.6536 17.2361 9.34087 15.8083 9.34087 13.9817V12.4945C9.34087 10.6679 10.6536 9.24075 12.6518 9.24075H13.7366C16.648 9.24075 16.4193 12.2086 20.8157 12.2086C21.2323 12.2093 21.648 12.1713 22.0574 12.095C22.0574 12.0884 22.0574 12.0818 22.0574 12.0745C21.9786 11.6364 21.8558 11.2073 21.6909 10.7939Z" fill="#0AE8F0"/>
</g>
<defs>
<clipPath id="clip0_446_56742">
<rect width="115.885" height="28" fill="white" transform="translate(0.381836 0.620117)"/>
</clipPath>
</defs>
</svg>
