<svg width="468" height="195" viewBox="0 0 468 195" fill="none" xmlns="http://www.w3.org/2000/svg">
<g clip-path="url(#clip0_375_51724)">
<path d="M139.32 160.557C137.714 172.492 131.811 183.412 125.513 193.931C125.304 194.289 125.09 194.642 124.871 195H59.4117C58.0878 194.674 56.781 194.316 55.4797 193.931C48.0863 191.795 41.1063 188.537 34.8111 184.283C10.7288 167.821 1.46193 136.713 5.64758 108.839C8.25023 91.5214 16.2606 73.8403 31.8592 64.5133C40.0951 59.5799 50.6743 57.9764 60.1552 59.8097C60.4033 59.8525 60.6511 59.9059 60.9045 59.954C69.0615 61.6965 76.3284 66.0259 80.4634 73.0011C87.8992 85.5351 83.4715 101.062 79.8156 115.013C76.1708 128.963 74.1933 145.661 84.7728 155.95C81.2801 146.195 84.7277 134.559 93.0706 127.963C99.3743 122.987 108.151 121.122 116.156 122.667C116.922 122.822 117.677 122.998 118.42 123.212C120.218 123.711 121.95 124.4 123.586 125.264C136.064 131.876 141.117 147.104 139.32 160.557Z" fill="#FFB5C1"/>
<path d="M100.507 193.932C102.32 194.333 104.14 194.685 105.971 195.001H96.0732C94.7774 194.669 93.4874 194.316 92.2089 193.932C89.3977 193.098 86.6299 192.141 83.9053 191.061C72.9767 186.711 62.91 180.179 55.2938 171.488C51.5689 167.277 48.5273 162.563 46.2692 157.5C43.8207 151.778 42.2646 145.748 41.6501 139.6C40.2698 126.986 41.6782 114.024 44.3089 101.635C47.0237 88.7935 51.4061 76.3212 57.3557 64.5032C58.0711 63.0868 58.8109 61.6793 59.5751 60.2807C59.6277 60.1656 59.7073 60.0633 59.8078 59.9818C59.9084 59.9003 60.0272 59.8417 60.1553 59.8103C60.4153 59.7625 60.6847 59.8144 60.9045 59.9546C61.1683 60.0983 61.364 60.3325 61.451 60.609C61.538 60.8855 61.5098 61.1832 61.3721 61.4405C55.2378 72.791 50.5878 84.81 47.5255 97.2305C44.5286 109.348 42.8274 122.026 43.4075 134.485C43.9595 146.126 47.1651 157.575 54.4375 167.095C61.0792 175.785 70.2501 182.638 80.3958 187.304C86.8174 190.219 93.5632 192.442 100.507 193.932Z" fill="white"/>
<path d="M122.229 195.001H119.311C118.984 194.649 118.668 194.291 118.359 193.932C111.712 186.27 107.209 177.141 105.267 167.389C102.908 155.22 104.743 142.654 110.5 131.551C112.106 128.438 113.999 125.465 116.156 122.668C116.922 122.823 117.677 122.999 118.42 123.213C112.747 130.345 108.931 138.649 107.283 147.447C105.814 155.691 106.302 164.143 108.714 172.185C111.125 180.227 115.398 187.657 121.22 193.932C121.547 194.291 121.885 194.649 122.229 195.001Z" fill="white"/>
<path d="M385.1 185.911C385.524 189.061 387.082 191.943 388.744 194.719C388.799 194.813 388.856 194.907 388.914 195.001H406.19C406.539 194.915 406.884 194.82 407.227 194.719C409.179 194.155 411.021 193.295 412.682 192.173C419.038 187.828 421.484 179.618 420.379 172.262C419.692 167.691 417.578 163.025 413.461 160.563C411.226 159.271 408.559 158.828 405.993 159.322C405.928 159.333 405.863 159.347 405.796 159.36C404.728 159.556 403.716 159.964 402.826 160.557C401.937 161.151 401.189 161.916 400.634 162.803C398.671 166.111 399.84 170.209 400.805 173.891C401.767 177.573 402.288 181.979 399.496 184.695C399.906 183.559 399.989 182.341 399.737 181.165C399.486 179.988 398.908 178.897 398.065 178.003C397.222 177.108 396.142 176.443 394.938 176.075C393.734 175.708 392.449 175.651 391.214 175.911C391.012 175.952 390.812 175.998 390.616 176.055C390.142 176.187 389.685 176.368 389.253 176.596C385.96 178.341 384.626 182.36 385.1 185.911Z" fill="#FFB5C1"/>
<path d="M395.344 194.718C394.865 194.824 394.385 194.917 393.902 195H396.514C396.856 194.913 397.196 194.82 397.534 194.718C398.276 194.498 399.006 194.246 399.725 193.961C402.642 192.837 405.232 191.065 407.276 188.795C408.26 187.684 409.062 186.439 409.658 185.103C410.304 183.593 410.715 182.002 410.877 180.379C411.174 177.025 410.937 173.647 410.176 170.359C409.459 166.97 408.302 163.679 406.732 160.56C406.543 160.186 406.348 159.814 406.146 159.445C406.133 159.415 406.112 159.388 406.085 159.366C406.059 159.345 406.027 159.329 405.993 159.321C405.925 159.308 405.854 159.322 405.796 159.359C405.726 159.397 405.674 159.459 405.651 159.532C405.628 159.605 405.636 159.683 405.672 159.751C407.291 162.747 408.518 165.919 409.327 169.197C410.159 172.412 410.525 175.72 410.413 179.029C410.354 182.107 409.342 185.1 407.502 187.635C405.714 189.919 403.361 191.75 400.652 192.969C398.957 193.738 397.176 194.325 395.344 194.718Z" fill="white"/>
<path d="M389.611 195H390.381C390.467 194.907 390.551 194.813 390.632 194.718C392.387 192.696 393.575 190.287 394.088 187.713C394.71 184.501 394.226 181.185 392.706 178.255C392.283 177.433 391.783 176.648 391.214 175.91C391.012 175.951 390.812 175.998 390.616 176.054C392.113 177.936 393.121 180.128 393.555 182.45C393.943 184.626 393.814 186.856 393.178 188.979C392.542 191.101 391.414 193.062 389.877 194.718C389.791 194.813 389.702 194.907 389.611 195Z" fill="white"/>
<path d="M229.385 113.586H175.316L174.743 97.8123C174.718 97.1286 174.85 96.4478 175.129 95.817C175.408 95.1861 175.828 94.6201 176.359 94.1579C176.891 93.6957 177.522 93.3484 178.209 93.1397C178.895 92.931 179.622 92.866 180.337 92.9492L211.802 96.6048H211.806C216.47 96.6167 220.94 98.3825 224.235 101.515C227.53 104.648 229.382 108.893 229.385 113.318V113.586Z" fill="#FF5364"/>
<path d="M205.286 57.6328H167.576C167.075 57.6327 166.578 57.7263 166.115 57.9084C165.651 58.0904 165.23 58.3573 164.875 58.6938C164.521 59.0303 164.24 59.4297 164.048 59.8694C163.856 60.3091 163.757 60.7803 163.757 61.2561V97.0365C163.757 97.5124 163.856 97.9836 164.048 98.4232C164.24 98.8629 164.521 99.2624 164.875 99.5989C165.23 99.9354 165.651 100.202 166.115 100.384C166.578 100.566 167.075 100.66 167.576 100.66H205.286C205.788 100.66 206.285 100.566 206.748 100.384C207.211 100.202 207.632 99.9354 207.987 99.5989C208.342 99.2624 208.623 98.8629 208.815 98.4232C209.007 97.9836 209.105 97.5124 209.105 97.0365V61.2561C209.105 60.7803 209.007 60.3091 208.815 59.8694C208.623 59.4297 208.342 59.0302 207.987 58.6938C207.632 58.3573 207.211 58.0904 206.748 57.9084C206.285 57.7263 205.788 57.6327 205.286 57.6328Z" fill="#CCCCCC"/>
<path d="M196.794 84.3901L178.989 87.6799C177.933 87.8738 176.839 87.6624 175.947 87.0919C175.054 86.5215 174.437 85.6386 174.231 84.6369L172.862 77.9685C172.657 76.9664 172.88 75.9283 173.482 75.0819C174.083 74.2355 175.013 73.65 176.069 73.4538L193.874 70.164C194.93 69.97 196.024 70.1815 196.916 70.7519C197.808 71.3224 198.425 72.2053 198.632 73.2069L200.001 79.8754C200.205 80.8775 199.982 81.9156 199.381 82.762C198.78 83.6083 197.849 84.1939 196.794 84.3901Z" fill="#3F3D56"/>
<path d="M193.231 76.5098L179.643 79.0204C179.395 79.0664 179.137 79.0167 178.927 78.8825C178.717 78.7482 178.572 78.5403 178.524 78.3045C178.475 78.0686 178.528 77.8242 178.669 77.625C178.811 77.4258 179.03 77.2881 179.279 77.2422L192.866 74.7315C193.115 74.6856 193.372 74.7353 193.582 74.8695C193.792 75.0038 193.938 75.2117 193.986 75.4475C194.034 75.6834 193.982 75.9277 193.841 76.127C193.699 76.3262 193.48 76.4639 193.231 76.5098Z" fill="white"/>
<path d="M190.59 80.2286L183.562 81.5272C183.314 81.5731 183.056 81.5234 182.846 81.3892C182.636 81.2549 182.491 81.047 182.442 80.8112C182.394 80.5753 182.446 80.331 182.588 80.1317C182.729 79.9325 182.949 79.7948 183.197 79.7489L190.225 78.4503C190.348 78.4276 190.475 78.428 190.598 78.4517C190.721 78.4754 190.837 78.5218 190.941 78.5883C191.045 78.6548 191.134 78.74 191.204 78.8392C191.273 78.9384 191.321 79.0495 191.345 79.1663C191.369 79.283 191.368 79.4031 191.343 79.5197C191.318 79.6363 191.269 79.7471 191.199 79.8457C191.129 79.9443 191.039 80.0289 190.935 80.0946C190.83 80.1603 190.713 80.2058 190.59 80.2286Z" fill="white"/>
<path d="M209.105 61.2561V66.0118H163.757V61.2561C163.757 60.7803 163.856 60.3091 164.048 59.8694C164.24 59.4297 164.521 59.0303 164.875 58.6938C165.23 58.3573 165.651 58.0904 166.115 57.9084C166.578 57.7263 167.075 57.6327 167.576 57.6328H205.286C205.788 57.6327 206.285 57.7263 206.748 57.9084C207.211 58.0904 207.632 58.3573 207.987 58.6938C208.342 59.0303 208.623 59.4297 208.815 59.8694C209.007 60.3091 209.105 60.7803 209.105 61.2561Z" fill="#B3B3B3"/>
<path d="M299.661 67.5007C299.399 66.6989 298.955 65.9612 298.36 65.3398C297.766 64.7183 297.035 64.2282 296.219 63.9038C295.403 63.5795 294.522 63.4289 293.638 63.4625C292.753 63.4962 291.888 63.7134 291.102 64.0987L239.221 46.4375L236.936 58.7348L288.652 72.2284C289.422 73.4383 290.633 74.3382 292.055 74.7576C293.477 75.1771 295.013 75.0869 296.37 74.5041C297.727 73.9214 298.811 72.8866 299.418 71.5958C300.024 70.305 300.111 68.848 299.661 67.5007Z" fill="#FFB8B8"/>
<path opacity="0.2" d="M299.661 67.5007C299.399 66.6989 298.955 65.9612 298.36 65.3398C297.766 64.7183 297.035 64.2282 296.219 63.9038C295.403 63.5795 294.522 63.4289 293.638 63.4625C292.753 63.4962 291.888 63.7134 291.102 64.0987L239.221 46.4375L236.936 58.7348L288.652 72.2284C289.422 73.4383 290.633 74.3382 292.055 74.7576C293.477 75.1771 295.013 75.0869 296.37 74.5041C297.727 73.9214 298.811 72.8866 299.418 71.5958C300.024 70.305 300.111 68.848 299.661 67.5007Z" fill="black"/>
<path d="M248.43 48.6809L243.531 60.8248C243.391 61.1703 243.175 61.4832 242.897 61.7423C242.618 62.0014 242.284 62.2005 241.918 62.3261C241.551 62.4517 241.16 62.5008 240.771 62.4701C240.383 62.4393 240.006 62.3295 239.666 62.1481L227.759 55.7896C225.9 55.1027 224.404 53.7445 223.599 52.0127C222.794 50.281 222.745 48.3169 223.464 46.5511C224.182 44.7854 225.609 43.362 227.432 42.5931C229.255 41.8242 231.325 41.7725 233.188 42.4493L246.484 45.2472C246.865 45.3274 247.223 45.4845 247.534 45.7078C247.844 45.9312 248.101 46.2154 248.286 46.5413C248.47 46.8671 248.579 47.2269 248.604 47.5961C248.629 47.9654 248.569 48.3353 248.43 48.6809Z" fill="#FF5364"/>
<path d="M303.745 78.7461L285.155 86.7635L287.595 95.4817C292.308 112.317 293.559 129.856 291.279 147.141L304.871 149.834L316.138 122.575L312.194 91.574L303.745 78.7461Z" fill="#FF5364"/>
<path d="M340.22 119.102C328.006 119.102 318.052 127.526 317.569 138.076H362.871C362.388 127.526 352.434 119.102 340.22 119.102Z" fill="#3F3D56"/>
<path d="M330.712 120.918C330.076 73.2949 301.491 77.6761 301.491 77.6761C301.491 77.6761 302.026 92.4995 302.283 92.9605C320.498 125.661 290.436 163.997 252.169 156.945C251.448 156.812 250.754 156.677 250.09 156.54C245.241 155.579 240.96 152.902 238.117 149.054C235.275 145.205 234.084 140.473 234.788 135.821C238.557 107.1 219.808 107.608 219.808 107.608H192.393L178.156 95.4503C177.653 95.0212 177.048 94.7154 176.392 94.5597C175.736 94.404 175.05 94.4031 174.394 94.5572C173.737 94.7112 173.131 95.0155 172.627 95.4433C172.123 95.8712 171.738 96.4096 171.504 97.0116L169.672 101.729C169.672 101.729 142.632 104.401 144.886 129.522H153.245C153.225 130.236 153.255 130.95 153.336 131.66L215.725 131.179C219.382 131.151 222.61 133.963 222.625 137.433C222.629 138.277 222.453 139.114 222.108 139.893C221.763 140.672 221.256 141.377 220.617 141.965C219.979 142.554 219.221 143.014 218.391 143.319C217.56 143.623 216.674 143.766 215.784 143.737L205.725 143.419C202.627 156.514 210.232 165.334 218.611 170.879C226.501 176.024 235.863 178.753 245.436 178.696H272.762C308.251 178.696 314.448 150.368 314.448 150.368C333.038 142.885 330.712 120.918 330.712 120.918Z" fill="#3F3D56"/>
<path d="M338.53 194.197C356.031 194.197 370.217 180.737 370.217 164.132C370.217 147.527 356.031 134.066 338.53 134.066C321.03 134.066 306.843 147.527 306.843 164.132C306.843 180.737 321.03 194.197 338.53 194.197Z" fill="#3F3D56"/>
<path d="M338.53 171.504C342.819 171.504 346.297 168.204 346.297 164.135C346.297 160.065 342.819 156.766 338.53 156.766C334.241 156.766 330.764 160.065 330.764 164.135C330.764 168.204 334.241 171.504 338.53 171.504Z" fill="white"/>
<path d="M178.545 194.198C198.69 194.198 215.02 178.703 215.02 159.589C215.02 140.475 198.69 124.98 178.545 124.98C158.4 124.98 142.069 140.475 142.069 159.589C142.069 178.703 158.4 194.198 178.545 194.198Z" fill="#3F3D56"/>
<path d="M178.545 168.071C183.482 168.071 187.485 164.273 187.485 159.588C187.485 154.903 183.482 151.105 178.545 151.105C173.607 151.105 169.605 154.903 169.605 159.588C169.605 164.273 173.607 168.071 178.545 168.071Z" fill="white"/>
<path d="M285.208 89.1316L278.519 71.8944C278.17 70.996 278.012 70.0413 278.052 69.0848C278.092 68.1282 278.331 67.1885 278.754 66.3194C279.177 65.4503 279.776 64.6688 280.517 64.0195C281.259 63.3701 282.128 62.8657 283.074 62.535L302.25 55.837C303.916 55.255 305.687 54.9899 307.46 55.0571C309.234 55.1242 310.977 55.5222 312.589 56.2283C314.2 56.9345 315.65 57.9349 316.854 59.1725C318.058 60.4101 318.994 61.8607 319.607 63.4414C320.161 64.8601 320.443 66.361 320.442 67.8737C320.435 69.7944 319.976 71.6895 319.101 73.4212C318.225 75.1529 316.953 76.6777 315.379 77.8848C314.241 78.7506 312.962 79.4347 311.593 79.91L285.208 89.1316Z" fill="#3F3D56"/>
<path d="M320.16 67.8754C320.158 69.757 319.712 71.6144 318.854 73.3108C317.996 75.0072 316.749 76.4996 315.203 77.678C312.831 77.0844 310.623 76.0078 308.734 74.523C306.845 73.0383 305.32 71.1809 304.264 69.0802C303.208 66.9795 302.646 64.6857 302.619 62.3583C302.592 60.031 303.099 57.7259 304.105 55.6033C306.037 55.2047 308.039 55.2216 309.964 55.653C311.888 56.0844 313.686 56.9193 315.226 58.0963C316.766 59.2733 318.008 60.7626 318.862 62.4548C319.716 64.147 320.159 65.9992 320.16 67.8754Z" fill="#FF5364"/>
<path d="M149.674 132.997C154.03 132.997 157.561 128.929 157.561 123.911C157.561 118.892 154.03 114.824 149.674 114.824C145.318 114.824 141.787 118.892 141.787 123.911C141.787 128.929 145.318 132.997 149.674 132.997Z" fill="#FF5364"/>
<path d="M253.924 156.077H260.831L264.117 139.082L253.923 139.083L253.924 156.077Z" fill="#FFB8B8"/>
<path d="M252.163 153.938L265.764 153.938H265.764C266.902 153.937 268.03 154.15 269.081 154.563C270.133 154.977 271.088 155.582 271.893 156.346C272.698 157.11 273.336 158.016 273.772 159.014C274.208 160.012 274.432 161.081 274.432 162.161V162.429L252.163 162.429L252.163 153.938Z" fill="#2F2E41"/>
<path d="M261.941 149.099C261.86 149.099 261.78 149.095 261.698 149.088L252.141 148.428C251.754 148.393 251.381 148.276 251.05 148.083C250.719 147.891 250.439 147.629 250.232 147.317C250.025 147.006 249.895 146.654 249.854 146.287C249.813 145.921 249.861 145.551 249.995 145.205L262.786 117.938C262.878 117.695 262.915 117.436 262.896 117.179C262.877 116.921 262.802 116.67 262.676 116.442C262.55 116.21 262.374 116.007 262.159 115.845C261.944 115.683 261.696 115.566 261.43 115.501C255.415 114.009 239.983 110.037 226.624 105.39C220.9 103.398 217.296 100.521 215.91 96.8366C214.083 91.9796 216.786 87.5502 216.902 87.3644L216.992 87.2188L229.563 88.3029L243.19 89.4027L273.055 104.597C275.557 105.881 277.458 108.012 278.378 110.566C279.299 113.12 279.172 115.91 278.022 118.379L264.254 147.673C264.055 148.098 263.73 148.458 263.32 148.711C262.909 148.964 262.43 149.099 261.941 149.099Z" fill="#2F2E41"/>
<path d="M231.749 34.3571C239.39 34.3571 245.585 28.4796 245.585 21.2294C245.585 13.9791 239.39 8.10156 231.749 8.10156C224.107 8.10156 217.913 13.9791 217.913 21.2294C217.913 28.4796 224.107 34.3571 231.749 34.3571Z" fill="#FFB8B8"/>
<path d="M249.981 157.679H256.888L260.173 140.684L249.98 140.684L249.981 157.679Z" fill="#FFB8B8"/>
<path d="M248.219 155.54L261.82 155.539H261.821C262.959 155.539 264.086 155.752 265.138 156.165C266.189 156.578 267.145 157.184 267.95 157.948C268.755 158.711 269.393 159.618 269.829 160.616C270.264 161.614 270.489 162.683 270.488 163.763V164.03L248.22 164.031L248.219 155.54Z" fill="#2F2E41"/>
<path d="M257.997 150.704C257.917 150.704 257.836 150.701 257.755 150.693L248.197 150.033C247.811 149.999 247.438 149.881 247.107 149.689C246.776 149.496 246.496 149.234 246.289 148.923C246.081 148.611 245.952 148.259 245.911 147.893C245.87 147.527 245.918 147.156 246.052 146.81L258.843 119.543C258.934 119.3 258.971 119.042 258.952 118.784C258.933 118.527 258.858 118.276 258.732 118.047C258.606 117.816 258.43 117.613 258.215 117.45C258.001 117.288 257.752 117.171 257.487 117.107C251.472 115.615 236.039 111.643 222.68 106.995C216.957 105.004 213.352 102.126 211.967 98.442C210.14 93.5851 212.842 89.1557 212.958 88.9698L213.049 88.8242L225.62 89.9083L239.247 91.0081L269.111 106.203C271.614 107.487 273.514 109.618 274.435 112.172C275.356 114.726 275.228 117.515 274.079 119.984L260.311 149.279C260.111 149.703 259.787 150.063 259.376 150.316C258.966 150.569 258.487 150.704 257.997 150.704Z" fill="#2F2E41"/>
<path d="M236.016 41.8027L221.369 36.9922C221.369 36.9922 212.174 43.6948 216.592 60.3222C218.898 68.9026 218.226 77.9598 214.676 86.1492C214.249 87.1625 213.756 88.1498 213.201 89.1056C213.201 89.1056 229.537 107.813 244.747 93.9161L238.832 66.924C238.832 66.924 248.127 49.0184 236.016 41.8027Z" fill="#FF5364"/>
<path d="M233.466 34.8046C231.497 32.0079 229.943 28.13 232.111 25.4691C234.251 22.8425 238.472 23.2295 241.75 22.0672C246.315 20.4484 248.963 15.3597 248.137 10.8024C247.312 6.24506 243.456 2.46719 238.863 0.921407C234.269 -0.624374 229.09 -0.121649 224.592 1.65841C219.055 3.84969 214.305 8.08857 212.313 13.4581C210.321 18.8276 211.386 25.2748 215.518 29.4019C219.948 33.8267 226.9 35.0059 233.332 34.9343" fill="#2F2E41"/>
<path d="M220.596 10.9468C218.115 12.8634 214.329 12.0121 211.665 10.33C209.002 8.64796 206.84 6.25276 203.958 4.93394C198.878 2.6089 192.735 4.15452 187.79 6.72991C182.845 9.30529 178.462 12.8633 173.238 14.8843C168.015 16.9053 161.35 17.0052 157.395 13.1891C156.422 15.8647 156.342 18.76 157.167 21.4801C157.992 24.2002 159.681 26.6125 162.005 28.388C164.328 30.1634 167.172 31.2155 170.149 31.4006C173.126 31.5858 176.09 30.895 178.638 29.4225C184.361 26.1148 187.522 19.1796 193.941 17.3539C197.493 16.3437 201.308 17.1573 204.898 18.0386C208.488 18.9199 212.231 19.8722 215.854 19.1219C219.477 18.3717 222.866 15.2826 222.405 11.7914L220.596 10.9468Z" fill="#2F2E41"/>
<path d="M298.972 66.9674C298.608 66.2023 298.072 65.5223 297.401 64.9752C296.73 64.4282 295.941 64.0273 295.089 63.801C294.237 63.5746 293.343 63.5283 292.47 63.6652C291.597 63.8021 290.766 64.1189 290.037 64.5934L236.256 53.1406L235.587 65.6115L288.662 72.9477C289.584 74.0583 290.902 74.8096 292.368 75.0593C293.834 75.309 295.346 75.0398 296.617 74.3026C297.888 73.5655 298.829 72.4116 299.264 71.0597C299.698 69.7077 299.594 68.2517 298.972 66.9674Z" fill="#FFB8B8"/>
<path d="M245.685 54.285L242.403 66.9096C242.309 67.2689 242.135 67.6048 241.893 67.8944C241.65 68.1841 241.345 68.4208 240.997 68.5884C240.65 68.7559 240.268 68.8504 239.878 68.8654C239.489 68.8804 239.1 68.8156 238.739 68.6753L226.097 63.7593C224.162 63.2964 222.499 62.124 221.473 60.4993C220.448 58.8746 220.144 56.9303 220.628 55.093C221.111 53.2558 222.343 51.6756 224.054 50.6993C225.764 49.723 227.812 49.4303 229.75 49.8853L243.308 51.1053C243.696 51.1404 244.072 51.2544 244.409 51.4396C244.747 51.6248 245.038 51.8769 245.264 52.1786C245.489 52.4804 245.644 52.8247 245.717 53.1882C245.789 53.5517 245.779 53.9258 245.685 54.285V54.285Z" fill="#FF5364"/>
<path d="M292.76 76.8775C294.937 76.8775 296.703 75.2024 296.703 73.136C296.703 71.0696 294.937 69.3945 292.76 69.3945C290.582 69.3945 288.816 71.0696 288.816 73.136C288.816 75.2024 290.582 76.8775 292.76 76.8775Z" fill="#FF5364"/>
<path d="M467.386 194.464C467.386 194.606 467.326 194.742 467.221 194.842C467.115 194.942 466.972 194.998 466.823 194.999H0.94956C0.800156 194.999 0.65687 194.942 0.551225 194.842C0.445581 194.742 0.38623 194.606 0.38623 194.464C0.38623 194.322 0.445581 194.186 0.551225 194.086C0.65687 193.986 0.800156 193.93 0.94956 193.93H466.823C466.972 193.93 467.115 193.987 467.221 194.087C467.326 194.187 467.386 194.323 467.386 194.464Z" fill="#3F3D56"/>
</g>
<defs>
<clipPath id="clip0_375_51724">
<rect width="467" height="195" fill="white" transform="translate(0.38623)"/>
</clipPath>
</defs>
</svg>
