<svg width="626" height="552" viewBox="0 0 626 552" fill="none" xmlns="http://www.w3.org/2000/svg">
<g filter="url(#filter0_d_375_48800)">
<circle cx="303.886" cy="286.5" r="228.5" fill="white"/>
</g>
<path d="M501.359 180.334C459.094 143.401 401.882 180.334 346.298 258.055C290.714 335.776 264.284 303.067 217.032 337.322C169.781 371.578 157.143 511.9 323.619 498.258C490.094 484.616 611.846 276.752 501.359 180.334Z" fill="#F0F0F0"/>
<path d="M474.593 410.393C456.762 397.94 452.722 374.822 453.426 354.036C453.542 350.573 453.161 346.903 454.811 343.868C456.462 340.832 460.316 338.743 463.421 340.197C465.995 341.409 467.114 344.41 468.557 346.891C470.482 350.196 473.303 352.889 476.694 354.659C478.898 355.813 481.634 356.506 483.815 355.305C486.816 353.655 487.162 349.534 487.139 346.072C487.139 339.632 487.101 333.199 487.024 326.774C486.816 323.325 487.167 319.864 488.062 316.526C489.136 313.248 491.525 310.212 494.791 309.289C498.057 308.366 502.132 310.27 502.87 313.64C502.997 315.068 503.032 316.502 502.974 317.934C503.066 319.376 503.736 320.958 505.086 321.396C506.437 321.835 507.845 320.831 508.883 319.815C512.438 316.352 514.862 311.84 517.112 307.385C519.363 302.93 521.568 298.348 524.799 294.55C528.031 290.753 532.497 287.741 537.495 287.452C542.492 287.164 547.698 290.234 548.944 295.081C550.191 299.929 547.363 304.88 544.328 308.816C539.747 314.658 534.348 319.808 528.296 324.108C527.115 324.753 526.172 325.761 525.607 326.982C524.857 329.291 527.038 331.599 529.312 332.326C531.886 333.18 534.679 332.915 537.391 333.238C540.103 333.561 542.989 334.738 544.016 337.277C545.424 340.809 542.469 344.502 539.572 346.926C533.755 351.773 527.15 355.587 520.044 358.202C517.505 359.125 514.839 359.945 512.784 361.722C510.73 363.5 509.507 366.604 510.742 369.04C511.976 371.475 515.15 372.248 517.817 371.752C520.483 371.256 522.849 369.825 525.388 368.867C530.131 367.078 536.248 367.401 539.238 371.498C540.164 372.909 540.75 374.516 540.95 376.193C541.15 377.869 540.959 379.569 540.392 381.158C539.237 384.322 537.459 387.223 535.164 389.688C527.604 398.719 517.782 405.582 506.702 409.574C495.703 413.382 485.512 414.421 474.582 410.416" fill="#FF725E"/>
<path d="M543.866 290.305C543.866 290.305 543.762 290.42 543.531 290.628L542.504 291.54C541.604 292.348 540.277 293.525 538.603 295.083C533.858 299.488 529.452 304.246 525.423 309.314C522.849 312.511 520.183 316.135 517.344 320.07C514.504 324.006 511.573 328.253 508.664 332.766C505.563 337.525 502.724 342.449 500.158 347.516C498.819 350.159 497.642 352.918 496.43 355.734L492.852 364.332C488.136 375.163 484.029 386.249 480.549 397.537C477.746 406.774 475.814 416.252 474.778 425.849C474.107 432.325 473.999 438.848 474.455 445.343C474.64 447.651 474.813 449.417 474.974 450.617C475.044 451.194 475.09 451.656 475.136 451.991V452.464C475.086 452.314 475.052 452.159 475.032 452.002C474.974 451.667 474.905 451.217 474.813 450.64C474.605 449.486 474.386 447.662 474.178 445.354C473.621 438.847 473.66 432.303 474.293 425.803C475.265 416.165 477.155 406.643 479.937 397.364C483.388 386.044 487.484 374.93 492.206 364.078L495.876 355.515C497.088 352.71 498.277 349.928 499.627 347.274C502.211 342.191 505.074 337.255 508.203 332.489C511.157 327.872 514.135 323.694 516.94 319.793C519.744 315.892 522.456 312.245 525.019 309.06C529.089 304.005 533.554 299.281 538.372 294.933C540.08 293.398 541.442 292.244 542.366 291.47L543.439 290.605C543.571 290.49 543.714 290.39 543.866 290.305Z" fill="#263238"/>
<path d="M499.778 347.249C499.615 346.774 499.503 346.283 499.443 345.784C499.258 344.826 499.051 343.475 498.808 341.721C498.312 338.258 497.804 333.515 497.262 328.263C496.719 323.012 496.107 318.257 495.6 314.829C495.334 313.121 495.103 311.747 494.942 310.789C494.816 310.299 494.75 309.795 494.746 309.289C494.944 309.751 495.088 310.236 495.173 310.732C495.426 311.678 495.715 313.04 496.038 314.76C496.696 318.222 497.342 322.931 497.885 328.194C498.427 333.457 498.889 338.074 499.247 341.663C499.42 343.279 499.57 344.652 499.685 345.749C499.775 346.244 499.806 346.747 499.778 347.249Z" fill="#263238"/>
<path d="M544.19 338.961C543.628 339.083 543.056 339.153 542.482 339.169C541.327 339.273 539.688 339.411 537.657 339.642C533.595 340.081 528.008 340.888 521.88 342.043C515.751 343.197 510.246 344.501 506.287 345.505C504.314 346.013 502.721 346.475 501.671 346.786C501.11 346.985 500.529 347.125 499.939 347.202C500.473 346.933 501.029 346.713 501.601 346.544C502.686 346.163 504.256 345.632 506.218 345.066C510.154 343.912 515.659 342.539 521.811 341.362C527.022 340.365 532.28 339.633 537.565 339.169C539.608 338.996 541.258 338.926 542.412 338.903C543.005 338.863 543.601 338.882 544.19 338.961Z" fill="#263238"/>
<path d="M480.503 396.556C480.38 396.389 480.279 396.206 480.203 396.013L479.441 394.409C478.783 393.013 477.895 390.947 476.833 388.419C474.686 383.341 471.951 376.231 469.042 368.337C466.134 360.442 463.456 353.333 461.425 348.197C460.432 345.704 459.613 343.661 459.001 342.137L458.355 340.487C458.265 340.297 458.203 340.094 458.17 339.887C458.293 340.054 458.394 340.236 458.47 340.429L459.232 342.033C459.878 343.43 460.779 345.496 461.84 348.024C463.987 353.102 466.722 360.211 469.631 368.106C472.539 376 475.217 383.11 477.248 388.246C478.241 390.739 479.06 392.782 479.661 394.305C479.926 394.963 480.145 395.459 480.318 395.956C480.408 396.146 480.47 396.348 480.503 396.556Z" fill="#263238"/>
<path d="M539.456 377.547C539.271 377.653 539.073 377.734 538.867 377.789L537.159 378.366L530.846 380.409C525.514 382.14 518.15 384.61 510.071 387.334C501.992 390.058 494.594 392.482 489.227 394.097C486.549 394.917 484.368 395.54 482.856 395.956L481.113 396.406C480.911 396.47 480.702 396.513 480.49 396.533C480.675 396.427 480.873 396.345 481.079 396.29L482.787 395.713L489.1 393.67C494.432 391.939 501.796 389.469 509.875 386.746C517.954 384.022 525.341 381.598 530.707 379.982C533.397 379.163 535.566 378.539 537.09 378.124L538.833 377.674C539.035 377.609 539.244 377.567 539.456 377.547Z" fill="#263238"/>
<path d="M515.403 97.5824L509.459 99.706L506.908 91.9385C502.222 77.6155 487.287 70.0096 473.564 74.8455C459.842 79.6814 452.536 95.3895 457.222 109.713L459.772 117.48L453.805 119.615C451.53 120.498 449.682 122.223 448.646 124.433C447.61 126.642 447.466 129.166 448.242 131.48L464.781 182.021C465.125 183.166 465.695 184.23 466.458 185.151C467.22 186.072 468.161 186.83 469.222 187.38C470.284 187.93 471.445 188.261 472.637 188.354C473.829 188.446 475.028 188.298 476.161 187.918L537.759 165.885C540.064 165.004 541.938 163.264 542.986 161.029C544.035 158.795 544.175 156.241 543.379 153.905L526.829 103.365C526.477 102.223 525.898 101.163 525.127 100.25C524.357 99.3361 523.41 98.5871 522.344 98.0474C521.277 97.5078 520.113 97.1885 518.92 97.1086C517.728 97.0287 516.532 97.1898 515.403 97.5824ZM468.452 105.661C467.188 101.937 467.415 97.8686 469.084 94.3079C470.754 90.7471 473.737 87.9707 477.408 86.5602C479.221 85.94 481.14 85.6913 483.051 85.8289C484.962 85.9665 486.825 86.4877 488.53 87.3612C490.235 88.2348 491.747 89.4429 492.975 90.9134C494.203 92.384 495.123 94.0868 495.678 95.9204L498.217 103.688L470.991 113.429L468.452 105.661ZM503.076 150.512L507.3 163.415C507.378 163.674 507.353 163.953 507.231 164.194C507.108 164.434 506.897 164.619 506.643 164.708L500.722 166.82C500.486 166.886 500.234 166.857 500.019 166.741C499.804 166.625 499.642 166.43 499.568 166.197L495.309 153.351C492.96 153.223 490.707 152.381 488.851 150.937C486.994 149.493 485.623 147.517 484.921 145.272C483.918 142.305 484.101 139.064 485.432 136.229C486.764 133.393 489.141 131.183 492.066 130.06C493.51 129.567 495.038 129.369 496.56 129.479C498.082 129.589 499.566 130.004 500.925 130.7C502.283 131.396 503.487 132.358 504.465 133.529C505.444 134.7 506.176 136.056 506.62 137.516C507.362 139.796 507.424 142.243 506.796 144.558C506.169 146.872 504.88 148.954 503.088 150.547L503.076 150.512Z" fill="#FF725E"/>
<path d="M509.193 99.5666C509.193 99.7282 498.171 103.872 484.46 108.8C470.748 113.728 459.565 117.687 459.507 117.571C459.449 117.456 470.529 113.278 484.252 108.338C497.975 103.398 509.136 99.4166 509.193 99.5666Z" fill="#263238"/>
<path d="M522.281 101.691C522.332 101.792 522.374 101.896 522.408 102.003C522.5 102.234 522.604 102.534 522.743 102.903C523.043 103.746 523.458 104.912 523.978 106.366L528.41 119.269C530.256 124.74 532.461 131.226 534.908 138.428C536.062 142.041 537.424 145.803 538.693 149.762C539.373 151.802 539.666 153.951 539.559 156.098C539.461 157.215 539.143 158.302 538.624 159.295C538.069 160.286 537.329 161.16 536.443 161.869C534.659 163.171 532.68 164.18 530.579 164.858L524.636 166.994L513.383 171.022L494.327 177.808L481.459 182.332L477.996 183.487L477.073 183.787C476.974 183.831 476.869 183.858 476.761 183.867C476.761 183.867 476.853 183.867 477.05 183.729L477.95 183.371L481.412 182.067L494.212 177.358L513.232 170.433L524.462 166.37L530.406 164.224C532.447 163.573 534.369 162.594 536.096 161.327C536.921 160.668 537.61 159.857 538.128 158.938C538.616 158.019 538.911 157.009 538.993 155.971C539.1 153.902 538.818 151.831 538.162 149.866C536.916 145.942 535.6 142.145 534.411 138.532C532.011 131.319 529.795 124.809 528.04 119.338C526.286 113.868 524.809 109.47 523.793 106.377C523.308 104.865 522.939 103.688 522.639 102.834L522.362 101.911C522.327 101.841 522.3 101.767 522.281 101.691Z" fill="#263238"/>
<path d="M489.781 85.7735C489.781 85.7735 489.169 85.4734 488.038 85.0117C486.426 84.3923 484.721 84.0489 482.994 83.9961C480.436 83.9083 477.889 84.3893 475.539 85.4042C472.68 86.6679 470.236 88.712 468.487 91.3019C466.726 93.8844 465.781 96.9362 465.774 100.062C465.798 102.624 466.187 105.169 466.929 107.622C467.529 109.722 468.152 111.396 468.567 112.561C468.813 113.154 469.013 113.763 469.168 114.385C468.84 113.831 468.565 113.248 468.348 112.642C467.875 111.488 467.194 109.849 466.525 107.737C465.703 105.259 465.256 102.672 465.197 100.062C465.167 96.8181 466.134 93.6432 467.967 90.9672C469.778 88.2828 472.322 86.1754 475.296 84.8963C477.72 83.8759 480.346 83.4257 482.971 83.5806C484.735 83.6705 486.468 84.0811 488.084 84.7925C488.516 84.9918 488.933 85.2233 489.331 85.485C489.495 85.5571 489.647 85.6544 489.781 85.7735Z" fill="#263238"/>
<path d="M490.312 130.938C490.496 130.826 490.689 130.73 490.889 130.649C491.467 130.389 492.065 130.176 492.678 130.015C493.651 129.728 494.654 129.557 495.667 129.507C497.045 129.433 498.424 129.641 499.718 130.119C502.673 131.157 505.385 134.17 506.724 138.198C507.366 140.359 507.366 142.661 506.724 144.822C506.012 147.169 504.736 149.305 503.008 151.043L503.077 150.732C504.612 154.944 506.285 159.515 508.017 164.282L508.12 164.57L507.832 164.674L505.189 165.551L499.418 167.479L499.13 167.571L499.037 167.282C497.456 162.504 495.725 158.049 494.421 153.675L494.674 153.871C492.418 153.684 490.267 152.837 488.488 151.436C486.879 150.196 485.56 148.621 484.622 146.819C483.776 145.221 483.354 143.433 483.398 141.625C483.452 139.778 483.913 137.966 484.749 136.317C485.585 134.669 486.775 133.226 488.234 132.092C488.835 131.605 489.509 131.215 490.231 130.938C489.579 131.325 488.947 131.745 488.338 132.196C486.735 133.552 485.508 135.297 484.772 137.263C484.14 138.745 483.845 140.35 483.907 141.96C483.969 143.57 484.386 145.147 485.13 146.577C486.052 148.31 487.339 149.822 488.904 151.009C490.6 152.34 492.652 153.143 494.801 153.317H494.998L495.055 153.49C496.325 157.784 498.068 162.273 499.672 167.075L499.291 166.89L505.062 164.963L507.693 164.074L507.509 164.466C505.789 159.7 504.127 155.118 502.604 150.905V150.732L502.742 150.593C504.42 148.927 505.671 146.88 506.389 144.626C507.001 142.559 507.001 140.358 506.389 138.29C505.131 134.412 502.534 131.469 499.718 130.43C498.472 129.949 497.141 129.726 495.806 129.772C494.809 129.795 493.817 129.931 492.851 130.176C491.131 130.603 490.323 130.996 490.312 130.938Z" fill="#263238"/>
<path d="M454.64 464.187L339.351 463.656C332.693 463.619 326.322 460.942 321.637 456.211C316.952 451.48 314.336 445.084 314.364 438.426L315.587 149.413C315.601 146.115 316.264 142.851 317.54 139.809C318.815 136.768 320.678 134.007 323.021 131.685C325.364 129.363 328.142 127.526 331.195 126.279C334.249 125.031 337.518 124.398 340.817 124.414L456.094 124.945C462.752 124.979 469.124 127.654 473.812 132.382C478.499 137.11 481.118 143.506 481.093 150.164L479.87 439.165C479.856 442.464 479.193 445.729 477.917 448.772C476.642 451.815 474.78 454.577 472.437 456.901C470.094 459.225 467.317 461.064 464.263 462.314C461.209 463.564 457.94 464.2 454.64 464.187Z" fill="#455A64"/>
<path d="M455.922 134.881H433.577C432.848 134.895 432.129 135.052 431.461 135.343C430.792 135.635 430.188 136.055 429.682 136.58C429.176 137.105 428.779 137.725 428.512 138.404C428.246 139.083 428.116 139.807 428.13 140.536V144.587C428.144 145.316 428.013 146.04 427.747 146.718C427.48 147.396 427.083 148.015 426.577 148.54C426.071 149.064 425.466 149.483 424.798 149.773C424.13 150.064 423.411 150.219 422.682 150.231L379.124 150.035C377.651 149.996 376.253 149.373 375.238 148.304C374.223 147.235 373.674 145.807 373.711 144.334V140.282C373.748 138.811 373.201 137.384 372.188 136.316C371.176 135.247 369.781 134.623 368.31 134.581H360.45L340.887 134.489C336.234 134.461 331.759 136.278 328.443 139.542C325.127 142.807 323.239 147.252 323.194 151.905L322.04 434.004C322.029 436.312 322.473 438.6 323.347 440.737C324.22 442.874 325.506 444.817 327.131 446.457C328.756 448.097 330.687 449.4 332.816 450.294C334.945 451.187 337.228 451.652 339.537 451.663L454.583 452.193C456.893 452.204 459.182 451.76 461.32 450.886C463.458 450.011 465.403 448.725 467.044 447.099C468.685 445.473 469.99 443.54 470.883 441.41C471.777 439.28 472.243 436.995 472.253 434.685L473.407 152.586C473.435 147.92 471.609 143.434 468.33 140.114C465.051 136.794 460.588 134.912 455.922 134.881Z" fill="white"/>
<path d="M440.444 414.558L354.898 414.188C354.009 414.188 353.293 413.219 353.305 412.041L353.397 389.662C353.397 388.508 354.124 387.516 355.013 387.516L440.559 387.908C441.052 387.993 441.492 388.265 441.789 388.667C442.086 389.069 442.216 389.571 442.152 390.066L442.071 412.422C442.071 413.611 441.332 414.569 440.444 414.558Z" fill="#FF725E"/>
<path d="M380.615 402.213C380.192 402.213 379.786 402.145 379.395 402.01C379.011 401.869 378.712 401.69 378.501 401.473L378.737 401.009C378.937 401.205 379.206 401.37 379.542 401.505C379.883 401.636 380.241 401.701 380.615 401.701C380.973 401.701 381.263 401.657 381.485 401.57C381.713 401.478 381.878 401.356 381.981 401.205C382.09 401.053 382.144 400.885 382.144 400.7C382.144 400.478 382.079 400.299 381.949 400.164C381.824 400.028 381.659 399.923 381.453 399.847C381.247 399.765 381.019 399.695 380.77 399.635C380.52 399.576 380.271 399.513 380.021 399.448C379.772 399.378 379.542 399.286 379.33 399.172C379.124 399.058 378.956 398.909 378.826 398.725C378.702 398.535 378.639 398.288 378.639 397.985C378.639 397.703 378.712 397.445 378.859 397.212C379.011 396.974 379.241 396.784 379.55 396.643C379.859 396.497 380.255 396.423 380.737 396.423C381.057 396.423 381.374 396.469 381.688 396.562C382.003 396.648 382.274 396.77 382.502 396.928L382.298 397.407C382.054 397.245 381.794 397.125 381.518 397.049C381.247 396.974 380.984 396.936 380.729 396.936C380.387 396.936 380.106 396.982 379.883 397.074C379.661 397.166 379.496 397.291 379.387 397.448C379.284 397.6 379.233 397.773 379.233 397.968C379.233 398.191 379.295 398.369 379.42 398.505C379.55 398.641 379.718 398.746 379.924 398.822C380.135 398.898 380.366 398.966 380.615 399.025C380.864 399.085 381.111 399.15 381.355 399.221C381.604 399.291 381.832 399.383 382.038 399.497C382.249 399.605 382.418 399.752 382.542 399.936C382.672 400.12 382.737 400.362 382.737 400.66C382.737 400.936 382.661 401.194 382.51 401.432C382.358 401.665 382.125 401.855 381.81 402.001C381.501 402.142 381.103 402.213 380.615 402.213ZM384.048 402.164V396.472H384.65V402.164H384.048ZM386.502 402.164V396.472H386.998L390.925 401.416H390.665V396.472H391.259V402.164H390.763L386.844 397.22H387.104V402.164H386.502ZM395.613 402.213C395.179 402.213 394.778 402.142 394.41 402.001C394.046 401.855 393.729 401.652 393.458 401.392C393.193 401.131 392.984 400.825 392.832 400.473C392.686 400.12 392.613 399.736 392.613 399.318C392.613 398.901 392.686 398.516 392.832 398.163C392.984 397.811 393.195 397.505 393.466 397.245C393.737 396.984 394.054 396.784 394.418 396.643C394.786 396.497 395.187 396.423 395.621 396.423C396.055 396.423 396.451 396.491 396.808 396.627C397.171 396.762 397.48 396.968 397.735 397.245L397.361 397.627C397.123 397.388 396.86 397.218 396.572 397.115C396.285 397.012 395.976 396.96 395.646 396.96C395.293 396.96 394.968 397.02 394.67 397.139C394.377 397.253 394.12 397.418 393.897 397.635C393.68 397.846 393.51 398.096 393.385 398.383C393.266 398.665 393.206 398.977 393.206 399.318C393.206 399.654 393.266 399.966 393.385 400.253C393.51 400.541 393.68 400.793 393.897 401.009C394.12 401.221 394.377 401.386 394.67 401.505C394.968 401.619 395.29 401.676 395.637 401.676C395.963 401.676 396.269 401.627 396.556 401.53C396.849 401.432 397.117 401.267 397.361 401.034L397.703 401.489C397.432 401.728 397.115 401.909 396.751 402.034C396.388 402.153 396.009 402.213 395.613 402.213ZM397.125 401.416V399.318H397.703V401.489L397.125 401.416ZM403.827 402.213C403.1 402.213 402.529 402.004 402.111 401.587C401.694 401.169 401.485 400.551 401.485 399.733V396.472H402.087V399.708C402.087 400.381 402.239 400.877 402.542 401.196C402.846 401.516 403.274 401.676 403.827 401.676C404.385 401.676 404.816 401.516 405.12 401.196C405.423 400.877 405.575 400.381 405.575 399.708V396.472H406.161V399.733C406.161 400.551 405.952 401.169 405.534 401.587C405.122 402.004 404.553 402.213 403.827 402.213ZM407.974 402.164V396.472H410.104C410.587 396.472 411.001 396.551 411.348 396.708C411.695 396.86 411.961 397.082 412.145 397.375C412.335 397.662 412.43 398.012 412.43 398.424C412.43 398.825 412.335 399.172 412.145 399.464C411.961 399.752 411.695 399.974 411.348 400.131C411.001 400.288 410.587 400.367 410.104 400.367H408.307L408.575 400.082V402.164H407.974ZM408.575 400.131L408.307 399.839H410.088C410.657 399.839 411.088 399.717 411.381 399.473C411.679 399.223 411.828 398.874 411.828 398.424C411.828 397.968 411.679 397.616 411.381 397.367C411.088 397.117 410.657 396.993 410.088 396.993H408.307L408.575 396.708V400.131Z" fill="#E8E8E3"/>
<path d="M371.96 217.81L342.276 217.676L342.251 223.123L371.936 223.258L371.96 217.81Z" fill="#FF725E"/>
<path opacity="0.1" d="M371.96 217.81L342.276 217.676L342.251 223.123L371.936 223.258L371.96 217.81Z" fill="black"/>
<path d="M458.979 251.254C459.212 251.231 459.441 251.176 459.66 251.093C459.98 250.968 460.257 250.755 460.462 250.48C460.666 250.204 460.788 249.877 460.814 249.535C460.814 247.7 460.814 245.022 460.814 241.583C460.814 239.863 460.814 237.935 460.814 235.812C460.814 235.292 460.814 234.75 460.814 234.207C460.89 233.681 460.775 233.145 460.491 232.696C460.332 232.48 460.126 232.304 459.887 232.182C459.649 232.06 459.386 231.995 459.118 231.991H457.317H440.64L344.106 231.634C343.859 231.63 343.615 231.685 343.394 231.796C343.172 231.906 342.981 232.068 342.837 232.268C342.558 232.72 342.451 233.257 342.536 233.78C342.536 234.935 342.536 236.089 342.536 237.243C342.536 239.551 342.536 241.86 342.536 244.168C342.536 245.322 342.536 246.476 342.536 247.63C342.489 248.168 342.489 248.709 342.536 249.246C342.597 249.477 342.71 249.69 342.866 249.87C343.022 250.05 343.217 250.192 343.437 250.285C343.664 250.375 343.908 250.419 344.152 250.412H350.027L375.661 250.55L419.057 250.816L448.315 251.047L456.267 251.139H458.333C458.806 251.139 459.037 251.139 459.037 251.139H458.333H456.267H448.315H419.057L375.661 251L350.027 250.897H344.152C343.829 250.91 343.507 250.855 343.206 250.735C342.902 250.605 342.632 250.408 342.416 250.158C342.2 249.908 342.044 249.612 341.959 249.292C341.893 248.989 341.869 248.678 341.89 248.369V247.515C341.89 246.361 341.89 245.207 341.89 244.052C341.89 241.744 341.89 239.436 341.89 237.127C341.89 235.973 341.89 234.819 341.89 233.665C341.868 233.358 341.868 233.049 341.89 232.742C341.933 232.402 342.065 232.08 342.271 231.807C342.47 231.528 342.734 231.302 343.039 231.147C343.345 230.992 343.683 230.914 344.025 230.918L440.559 231.449L457.237 231.564H459.037C459.354 231.565 459.667 231.641 459.948 231.788C460.229 231.935 460.471 232.147 460.653 232.407C460.978 232.909 461.11 233.512 461.022 234.104C461.022 234.646 461.022 235.189 461.022 235.708C461.022 237.808 461.022 239.736 461.022 241.479C461.022 244.941 460.941 247.596 460.918 249.442C460.89 249.797 460.761 250.137 460.546 250.421C460.332 250.705 460.04 250.922 459.706 251.047C459.488 251.182 459.236 251.254 458.979 251.254Z" fill="#E0E0E0"/>
<path d="M405.483 237.43H351.192V242.52H405.483V237.43Z" fill="#FF725E"/>
<path opacity="0.2" d="M405.483 237.43H351.192V242.52H405.483V237.43Z" fill="white"/>
<path d="M371.758 267.506L342.074 267.371L342.049 272.819L371.734 272.953L371.758 267.506Z" fill="#FF725E"/>
<path opacity="0.1" d="M371.758 267.506L342.074 267.371L342.049 272.819L371.734 272.953L371.758 267.506Z" fill="black"/>
<path d="M458.229 300.955C458.463 300.927 458.694 300.884 458.922 300.828C459.244 300.726 459.541 300.555 459.792 300.328C460.043 300.101 460.242 299.823 460.376 299.513C460.558 299.047 460.629 298.545 460.584 298.047C460.584 297.493 460.584 296.893 460.584 296.223C460.584 294.885 460.584 293.361 460.584 291.607V284.278C460.639 283.747 460.522 283.213 460.249 282.754C459.965 282.284 459.517 281.935 458.991 281.773C458.416 281.671 457.831 281.64 457.248 281.681H440.64L344.441 281.323C343.924 281.324 343.424 281.513 343.036 281.855C342.647 282.197 342.396 282.668 342.329 283.181C342.329 284.278 342.329 285.49 342.329 286.644C342.329 288.952 342.329 291.26 342.329 293.569C342.329 294.723 342.329 295.877 342.329 297.031C342.286 297.571 342.309 298.113 342.398 298.647C342.542 299.115 342.839 299.521 343.241 299.801C343.667 300.072 344.168 300.201 344.672 300.171H346.276H349.612L375.153 300.298L418.399 300.563L447.554 300.794L455.483 300.886H457.549H458.241H457.549H455.483H447.554H418.399L375.13 300.84L349.589 300.748H344.568C343.944 300.785 343.324 300.619 342.802 300.274C342.277 299.911 341.894 299.377 341.717 298.762C341.614 298.176 341.583 297.579 341.625 296.985C341.625 295.831 341.625 294.677 341.625 293.523C341.625 291.214 341.625 288.906 341.625 286.598C341.625 285.444 341.625 284.289 341.625 283.135C341.709 282.475 342.031 281.869 342.53 281.429C343.03 280.989 343.672 280.746 344.337 280.746L440.536 281.277L457.145 281.404C457.763 281.366 458.384 281.409 458.991 281.531C459.591 281.727 460.097 282.138 460.411 282.685C460.709 283.193 460.839 283.784 460.78 284.37C460.78 284.913 460.78 285.444 460.78 285.974C460.78 288.063 460.78 289.979 460.78 291.745C460.78 293.511 460.78 295 460.78 296.362C460.78 297.02 460.78 297.631 460.78 298.197C460.822 298.713 460.739 299.232 460.538 299.709C460.388 300.027 460.171 300.31 459.902 300.537C459.633 300.764 459.319 300.93 458.98 301.025C458.727 301.045 458.474 301.022 458.229 300.955Z" fill="#E0E0E0"/>
<path d="M371.534 319.361L341.85 319.227L341.825 324.674L371.51 324.809L371.534 319.361Z" fill="#FF725E"/>
<path opacity="0.1" d="M371.534 319.361L341.85 319.227L341.825 324.674L371.51 324.809L371.534 319.361Z" fill="black"/>
<path d="M457.999 352.789C458.232 352.761 458.464 352.719 458.691 352.662C459.012 352.56 459.308 352.391 459.559 352.166C459.809 351.941 460.01 351.666 460.146 351.358C460.327 350.892 460.398 350.39 460.353 349.892C460.353 349.327 460.353 348.738 460.353 348.057C460.353 346.73 460.353 345.195 460.353 343.44V336.111C460.409 335.581 460.291 335.047 460.019 334.588C459.727 334.126 459.282 333.783 458.761 333.618C458.186 333.512 457.601 333.477 457.018 333.515H440.41L344.211 333.157C343.693 333.158 343.194 333.347 342.805 333.689C342.417 334.031 342.166 334.502 342.099 335.015C342.099 336.169 342.099 337.323 342.099 338.477C342.099 340.786 342.099 343.094 342.099 345.402C342.099 346.557 342.099 347.711 342.099 348.865C342.056 349.4 342.079 349.939 342.168 350.469C342.306 350.94 342.604 351.348 343.01 351.623C343.434 351.9 343.937 352.03 344.441 351.993H349.462L375.004 352.131L418.25 352.397L447.404 352.627L455.333 352.72H457.399C457.861 352.72 458.091 352.72 458.091 352.72C458.091 352.72 457.861 352.72 457.399 352.72H455.333H447.404H418.25L375.004 352.593L349.462 352.489H344.441C343.817 352.531 343.196 352.365 342.676 352.016C342.15 351.652 341.767 351.118 341.591 350.504C341.487 349.917 341.456 349.32 341.498 348.726C341.498 347.572 341.498 346.418 341.498 345.264C341.498 342.956 341.498 340.647 341.498 338.339C341.498 337.185 341.498 336.031 341.498 334.819C341.58 334.16 341.899 333.553 342.397 333.113C342.894 332.673 343.535 332.43 344.199 332.43L440.398 332.961L457.006 333.088C457.625 333.05 458.246 333.092 458.853 333.215C459.453 333.41 459.958 333.822 460.273 334.369C460.571 334.877 460.701 335.467 460.642 336.054C460.642 336.596 460.642 337.139 460.642 337.658C460.642 339.747 460.642 341.663 460.642 343.429C460.642 345.195 460.642 346.684 460.642 348.045C460.642 348.703 460.642 349.315 460.642 349.881C460.686 350.397 460.603 350.916 460.4 351.392C460.25 351.711 460.033 351.993 459.764 352.22C459.495 352.447 459.181 352.614 458.842 352.708C458.571 352.801 458.282 352.829 457.999 352.789Z" fill="#E0E0E0"/>
<path d="M404.325 288.567L350.034 288.32L350.011 293.41L404.302 293.656L404.325 288.567Z" fill="#FF725E"/>
<path opacity="0.2" d="M404.325 288.567L350.034 288.32L350.011 293.41L404.302 293.656L404.325 288.567Z" fill="white"/>
<path d="M354.943 343.368C354.909 343.832 354.74 344.276 354.456 344.645C354.171 345.014 353.785 345.291 353.345 345.442C352.905 345.594 352.43 345.613 351.979 345.496C351.528 345.38 351.122 345.134 350.809 344.789C350.497 344.444 350.293 344.015 350.222 343.555C350.151 343.095 350.217 342.624 350.412 342.201C350.606 341.778 350.921 341.421 351.316 341.175C351.711 340.929 352.17 340.805 352.635 340.817C353.278 340.853 353.881 341.141 354.313 341.618C354.745 342.096 354.972 342.725 354.943 343.368Z" fill="#FF725E"/>
<path d="M362.297 343.403C362.319 343.728 362.275 344.054 362.166 344.362C362.057 344.669 361.886 344.951 361.664 345.19C361.441 345.428 361.172 345.618 360.873 345.748C360.574 345.878 360.251 345.946 359.925 345.946C359.599 345.946 359.276 345.878 358.977 345.748C358.678 345.618 358.409 345.428 358.186 345.19C357.964 344.951 357.793 344.669 357.684 344.362C357.575 344.054 357.53 343.728 357.553 343.403C357.53 343.077 357.575 342.751 357.684 342.443C357.793 342.136 357.964 341.854 358.186 341.615C358.409 341.377 358.678 341.187 358.977 341.057C359.276 340.926 359.599 340.859 359.925 340.859C360.251 340.859 360.574 340.926 360.873 341.057C361.172 341.187 361.441 341.377 361.664 341.615C361.886 341.854 362.057 342.136 362.166 342.443C362.275 342.751 362.319 343.077 362.297 343.403Z" fill="#FF725E"/>
<path d="M369.659 343.438C369.625 343.903 369.455 344.347 369.171 344.715C368.887 345.084 368.501 345.361 368.061 345.513C367.621 345.664 367.146 345.683 366.695 345.567C366.244 345.451 365.837 345.205 365.525 344.86C365.213 344.515 365.008 344.085 364.938 343.625C364.867 343.165 364.933 342.694 365.128 342.271C365.322 341.848 365.636 341.492 366.031 341.246C366.427 341 366.885 340.875 367.351 340.888C367.993 340.926 368.594 341.215 369.025 341.692C369.457 342.169 369.684 342.796 369.659 343.438Z" fill="#FF725E"/>
<path d="M377.012 343.473C376.978 343.938 376.808 344.382 376.524 344.75C376.24 345.119 375.854 345.396 375.414 345.548C374.973 345.699 374.498 345.718 374.048 345.602C373.597 345.486 373.19 345.24 372.878 344.895C372.565 344.55 372.361 344.12 372.291 343.66C372.22 343.2 372.286 342.729 372.48 342.306C372.675 341.884 372.989 341.527 373.384 341.281C373.779 341.035 374.238 340.91 374.703 340.923C375.345 340.961 375.947 341.25 376.378 341.727C376.81 342.204 377.037 342.831 377.012 343.473Z" fill="#FF725E"/>
<path d="M384.364 343.497C384.332 343.962 384.164 344.407 383.881 344.778C383.598 345.148 383.213 345.427 382.773 345.58C382.332 345.733 381.857 345.754 381.405 345.639C380.954 345.524 380.546 345.279 380.232 344.934C379.919 344.589 379.714 344.16 379.642 343.699C379.571 343.239 379.636 342.767 379.83 342.344C380.025 341.92 380.339 341.563 380.735 341.317C381.13 341.07 381.589 340.945 382.055 340.958C382.695 340.997 383.294 341.284 383.726 341.758C384.157 342.232 384.386 342.856 384.364 343.497Z" fill="#FF725E"/>
<path d="M391.727 343.531C391.695 343.994 391.529 344.437 391.249 344.806C390.969 345.176 390.587 345.455 390.15 345.61C389.713 345.765 389.24 345.789 388.79 345.679C388.339 345.569 387.931 345.33 387.615 344.991C387.299 344.651 387.089 344.227 387.011 343.77C386.933 343.313 386.99 342.843 387.176 342.419C387.361 341.994 387.667 341.632 388.055 341.379C388.443 341.125 388.897 340.991 389.361 340.992C390.011 341.016 390.625 341.297 391.068 341.773C391.512 342.249 391.748 342.881 391.727 343.531Z" fill="#FF725E"/>
<path d="M399.079 343.567C399.102 343.892 399.057 344.219 398.948 344.526C398.839 344.833 398.668 345.115 398.446 345.354C398.223 345.592 397.954 345.782 397.655 345.913C397.356 346.043 397.033 346.11 396.707 346.11C396.381 346.11 396.058 346.043 395.759 345.913C395.46 345.782 395.191 345.592 394.968 345.354C394.746 345.115 394.575 344.833 394.466 344.526C394.357 344.219 394.313 343.892 394.335 343.567C394.313 343.241 394.357 342.915 394.466 342.607C394.575 342.3 394.746 342.018 394.968 341.779C395.191 341.541 395.46 341.351 395.759 341.221C396.058 341.091 396.381 341.023 396.707 341.023C397.033 341.023 397.356 341.091 397.655 341.221C397.954 341.351 398.223 341.541 398.446 341.779C398.668 342.018 398.839 342.3 398.948 342.607C399.057 342.915 399.102 343.241 399.079 343.567Z" fill="#FF725E"/>
<path d="M406.432 343.602C406.4 344.064 406.234 344.507 405.954 344.877C405.674 345.246 405.292 345.526 404.855 345.681C404.418 345.836 403.945 345.86 403.495 345.75C403.045 345.639 402.636 345.4 402.32 345.061C402.004 344.722 401.794 344.298 401.716 343.841C401.638 343.384 401.695 342.914 401.881 342.489C402.066 342.064 402.372 341.703 402.76 341.449C403.148 341.196 403.602 341.061 404.066 341.063C404.716 341.087 405.33 341.367 405.774 341.843C406.217 342.319 406.454 342.951 406.432 343.602Z" fill="#FF725E"/>
<path d="M413.783 343.634C413.751 344.099 413.583 344.544 413.3 344.914C413.018 345.285 412.632 345.564 412.192 345.717C411.752 345.87 411.276 345.89 410.825 345.775C410.373 345.661 409.965 345.415 409.652 345.071C409.338 344.726 409.133 344.296 409.061 343.836C408.99 343.375 409.055 342.904 409.25 342.48C409.444 342.057 409.758 341.7 410.154 341.453C410.549 341.207 411.009 341.082 411.475 341.095C412.114 341.133 412.714 341.42 413.145 341.895C413.576 342.369 413.805 342.993 413.783 343.634Z" fill="#FF725E"/>
<g opacity="0.2">
<path opacity="0.2" d="M354.943 343.368C354.909 343.832 354.74 344.276 354.456 344.645C354.171 345.014 353.785 345.291 353.345 345.442C352.905 345.594 352.43 345.613 351.979 345.496C351.528 345.38 351.122 345.134 350.809 344.789C350.497 344.444 350.293 344.015 350.222 343.555C350.151 343.095 350.217 342.624 350.412 342.201C350.606 341.778 350.921 341.421 351.316 341.175C351.711 340.929 352.17 340.805 352.635 340.817C353.278 340.853 353.881 341.141 354.313 341.618C354.745 342.096 354.972 342.725 354.943 343.368Z" fill="white"/>
<path opacity="0.2" d="M362.295 343.403C362.318 343.728 362.273 344.054 362.164 344.362C362.055 344.669 361.884 344.951 361.662 345.19C361.439 345.428 361.17 345.618 360.871 345.748C360.572 345.878 360.249 345.946 359.923 345.946C359.597 345.946 359.274 345.878 358.975 345.748C358.676 345.618 358.407 345.428 358.184 345.19C357.962 344.951 357.791 344.669 357.682 344.362C357.573 344.054 357.529 343.728 357.551 343.403C357.529 343.077 357.573 342.751 357.682 342.443C357.791 342.136 357.962 341.854 358.184 341.615C358.407 341.377 358.676 341.187 358.975 341.057C359.274 340.926 359.597 340.859 359.923 340.859C360.249 340.859 360.572 340.926 360.871 341.057C361.17 341.187 361.439 341.377 361.662 341.615C361.884 341.854 362.055 342.136 362.164 342.443C362.273 342.751 362.318 343.077 362.295 343.403Z" fill="white"/>
<path opacity="0.2" d="M369.659 343.438C369.625 343.903 369.455 344.347 369.171 344.715C368.887 345.084 368.501 345.361 368.061 345.513C367.621 345.664 367.146 345.683 366.695 345.567C366.244 345.451 365.837 345.205 365.525 344.86C365.213 344.515 365.008 344.085 364.938 343.625C364.867 343.165 364.933 342.694 365.127 342.271C365.322 341.848 365.636 341.492 366.031 341.246C366.427 341 366.885 340.875 367.351 340.888C367.993 340.926 368.594 341.215 369.025 341.692C369.457 342.169 369.684 342.796 369.659 343.438Z" fill="white"/>
<path opacity="0.2" d="M377.01 343.473C376.976 343.938 376.806 344.382 376.522 344.75C376.238 345.119 375.852 345.396 375.412 345.548C374.972 345.699 374.497 345.718 374.046 345.602C373.595 345.486 373.188 345.24 372.876 344.895C372.564 344.55 372.359 344.12 372.289 343.66C372.218 343.2 372.284 342.729 372.478 342.306C372.673 341.884 372.987 341.527 373.382 341.281C373.778 341.035 374.236 340.91 374.702 340.923C375.344 340.961 375.945 341.25 376.376 341.727C376.808 342.204 377.035 342.831 377.01 343.473Z" fill="white"/>
<path opacity="0.2" d="M384.363 343.493C384.332 343.958 384.164 344.403 383.881 344.774C383.598 345.144 383.213 345.423 382.772 345.576C382.332 345.729 381.857 345.75 381.405 345.635C380.954 345.52 380.546 345.275 380.232 344.93C379.919 344.585 379.713 344.156 379.642 343.695C379.571 343.235 379.636 342.763 379.83 342.34C380.024 341.916 380.339 341.559 380.734 341.313C381.13 341.066 381.589 340.941 382.055 340.954C382.695 340.993 383.294 341.28 383.726 341.754C384.157 342.229 384.386 342.852 384.363 343.493Z" fill="white"/>
<path opacity="0.2" d="M391.727 343.531C391.695 343.994 391.529 344.437 391.249 344.806C390.969 345.176 390.587 345.455 390.15 345.61C389.713 345.765 389.24 345.789 388.79 345.679C388.339 345.569 387.931 345.33 387.615 344.991C387.299 344.651 387.089 344.227 387.011 343.77C386.933 343.313 386.99 342.843 387.175 342.419C387.361 341.994 387.667 341.632 388.055 341.379C388.443 341.125 388.897 340.991 389.36 340.992C390.011 341.016 390.625 341.297 391.068 341.773C391.512 342.249 391.748 342.881 391.727 343.531Z" fill="white"/>
<path opacity="0.2" d="M399.079 343.563C399.102 343.888 399.057 344.215 398.948 344.522C398.839 344.83 398.668 345.111 398.446 345.35C398.223 345.588 397.954 345.779 397.655 345.909C397.356 346.039 397.033 346.106 396.707 346.106C396.381 346.106 396.058 346.039 395.759 345.909C395.46 345.779 395.191 345.588 394.968 345.35C394.746 345.111 394.575 344.83 394.466 344.522C394.357 344.215 394.313 343.888 394.335 343.563C394.313 343.237 394.357 342.911 394.466 342.603C394.575 342.296 394.746 342.014 394.968 341.775C395.191 341.537 395.46 341.347 395.759 341.217C396.058 341.087 396.381 341.02 396.707 341.02C397.033 341.02 397.356 341.087 397.655 341.217C397.954 341.347 398.223 341.537 398.446 341.775C398.668 342.014 398.839 342.296 398.948 342.603C399.057 342.911 399.102 343.237 399.079 343.563Z" fill="white"/>
<path opacity="0.2" d="M406.43 343.598C406.399 344.06 406.233 344.504 405.952 344.873C405.672 345.242 405.29 345.522 404.853 345.677C404.416 345.832 403.944 345.856 403.493 345.746C403.043 345.636 402.635 345.396 402.319 345.057C402.003 344.718 401.793 344.294 401.715 343.837C401.636 343.38 401.694 342.91 401.879 342.485C402.065 342.06 402.37 341.699 402.758 341.445C403.147 341.192 403.601 341.057 404.064 341.059C404.714 341.083 405.328 341.363 405.772 341.839C406.215 342.315 406.452 342.948 406.43 343.598Z" fill="white"/>
<path opacity="0.2" d="M413.781 343.634C413.749 344.099 413.582 344.544 413.299 344.914C413.016 345.285 412.63 345.564 412.19 345.717C411.75 345.87 411.275 345.89 410.823 345.775C410.371 345.661 409.963 345.415 409.65 345.071C409.336 344.726 409.131 344.296 409.06 343.836C408.988 343.375 409.054 342.904 409.248 342.48C409.442 342.057 409.757 341.7 410.152 341.453C410.548 341.207 411.007 341.082 411.473 341.095C412.113 341.133 412.712 341.42 413.143 341.895C413.574 342.369 413.803 342.993 413.781 343.634Z" fill="white"/>
</g>
<path d="M403.338 177.022C404.139 176.669 404.82 176.088 405.294 175.351C405.768 174.614 406.015 173.754 406.004 172.878C406.034 172.309 405.947 171.739 405.75 171.204C405.553 170.669 405.248 170.18 404.856 169.766C404.463 169.353 403.991 169.023 403.467 168.798C402.943 168.573 402.379 168.457 401.808 168.457C401.238 168.457 400.674 168.573 400.15 168.798C399.626 169.023 399.153 169.353 398.761 169.766C398.368 170.18 398.064 170.669 397.867 171.204C397.67 171.739 397.583 172.309 397.613 172.878C397.596 173.763 397.84 174.633 398.317 175.379C398.794 176.125 399.48 176.712 400.291 177.068C393.827 178.037 394.116 185.055 394.116 185.055L409.397 185.124C409.397 185.124 409.755 177.98 403.338 177.022Z" fill="#FF725E"/>
<path opacity="0.1" d="M403.338 177.022C404.139 176.669 404.82 176.088 405.294 175.351C405.768 174.614 406.015 173.754 406.004 172.878C406.034 172.309 405.947 171.739 405.75 171.204C405.553 170.669 405.248 170.18 404.856 169.766C404.463 169.353 403.991 169.023 403.467 168.798C402.943 168.573 402.379 168.457 401.808 168.457C401.238 168.457 400.674 168.573 400.15 168.798C399.626 169.023 399.153 169.353 398.761 169.766C398.368 170.18 398.064 170.669 397.867 171.204C397.67 171.739 397.583 172.309 397.613 172.878C397.596 173.763 397.84 174.633 398.317 175.379C398.794 176.125 399.48 176.712 400.291 177.068C393.827 178.037 394.116 185.055 394.116 185.055L409.397 185.124C409.397 185.124 409.755 177.98 403.338 177.022Z" fill="black"/>
<path d="M428.169 189.649L373.705 189.402L373.676 195.912L428.14 196.159L428.169 189.649Z" fill="#FF725E"/>
<path opacity="0.2" d="M428.169 189.649L373.705 189.402L373.676 195.912L428.14 196.159L428.169 189.649Z" fill="white"/>
<path d="M227.938 223.383H227.396L225.826 223.498C224.977 223.549 224.132 223.661 223.299 223.833C222.759 223.909 222.223 224.013 221.694 224.145L219.905 224.641C216.86 225.575 213.988 226.998 211.399 228.854C207.979 231.336 205.124 234.514 203.02 238.179C201.784 240.292 200.8 242.543 200.088 244.885C199.341 247.431 198.911 250.059 198.807 252.71C198.739 254.103 198.762 255.498 198.877 256.888C198.877 257.592 199.073 258.296 199.165 259.012C199.243 259.733 199.378 260.447 199.569 261.147C200.607 265.778 202.713 270.103 205.719 273.776C208.724 277.449 212.547 280.369 216.881 282.303C220.019 283.656 223.381 284.412 226.796 284.53C230.322 284.724 233.853 284.218 237.183 283.041L238.199 282.66H238.337L238.453 282.73L253.007 290.116L252.58 290.486C251.021 285.661 249.521 280.987 248.067 276.497V276.324L248.194 276.197C251.724 272.641 254.345 268.286 255.834 263.501C257.183 259.127 257.576 254.514 256.988 249.975C256.465 245.94 255.168 242.045 253.168 238.502C251.444 235.459 249.22 232.728 246.589 230.423C244.419 228.599 242.017 227.07 239.445 225.876C237.499 225.037 235.473 224.399 233.397 223.972L231.089 223.591L229.416 223.464L228.4 223.394H228.054C228.169 223.382 228.285 223.382 228.4 223.394H229.427L231.101 223.464L233.409 223.798C235.51 224.194 237.564 224.809 239.538 225.634C242.153 226.813 244.599 228.339 246.809 230.169C249.488 232.464 251.759 235.196 253.526 238.248C255.583 241.829 256.92 245.777 257.462 249.871C258.099 254.48 257.732 259.173 256.388 263.628C254.889 268.513 252.228 272.96 248.632 276.59L248.702 276.289C250.156 280.779 251.668 285.453 253.237 290.266L253.457 290.97L252.799 290.636L238.245 283.261H238.499L237.46 283.641C234.066 284.836 230.47 285.353 226.876 285.165C223.388 285.032 219.955 284.249 216.754 282.857C210.649 280.242 205.569 275.697 202.293 269.919C200.785 267.25 199.685 264.371 199.027 261.378C198.846 260.66 198.712 259.931 198.623 259.196C198.53 258.469 198.38 257.754 198.346 257.038C198.033 252.931 198.467 248.802 199.627 244.85C200.356 242.476 201.367 240.197 202.639 238.064C204.793 234.365 207.708 231.167 211.191 228.68C213.822 226.82 216.744 225.408 219.836 224.502L221.648 224.041C222.181 223.917 222.721 223.821 223.264 223.752C224.106 223.596 224.959 223.504 225.815 223.475L227.396 223.418C227.576 223.393 227.757 223.382 227.938 223.383Z" fill="#FF725E"/>
<path d="M234.517 250.297H232.381L227.765 243.811V239.552C227.765 239.552 224.464 239.344 224.856 244.919C225.249 250.493 224.856 249.074 224.856 249.074C224.856 249.074 217.851 249.074 217.273 249.708C216.696 250.343 216.662 257.107 216.581 260.881C216.537 261.79 216.798 262.689 217.323 263.433C217.848 264.178 218.606 264.725 219.478 264.989C219.722 265.057 219.975 265.092 220.228 265.093C221.982 265.093 230.904 263.674 230.904 263.674H234.586L234.517 250.297Z" fill="#FF725E"/>
<path d="M240.622 249.156L239.306 263.745H235.659V249.456L240.622 249.156Z" fill="#FF725E"/>
<path d="M284.124 546.155V536.287L266.431 536.16L266.281 551.083L267.377 551.164C272.259 551.476 292.215 551.937 295.493 550.922C299.14 549.791 284.124 546.155 284.124 546.155Z" fill="#FF725E"/>
<path d="M295.908 549.999C295.908 550.161 289.284 550.299 281.124 550.299C272.964 550.299 266.339 550.161 266.339 549.999C266.339 549.838 272.964 549.699 281.124 549.699C289.284 549.699 295.908 549.838 295.908 549.999Z" fill="#263238"/>
<path d="M284.436 548.177C284.286 548.096 284.436 547.577 284.794 547.023C285.152 546.469 285.637 546.238 285.752 546.353C285.868 546.469 285.625 546.907 285.279 547.38C284.933 547.854 284.586 548.258 284.436 548.177Z" fill="#263238"/>
<path d="M285.567 548.821C285.406 548.821 285.486 548.175 285.833 547.563C286.179 546.951 286.641 546.582 286.767 546.674C286.894 546.767 286.687 547.286 286.364 547.828C286.04 548.371 285.717 548.879 285.567 548.821Z" fill="#263238"/>
<path d="M271.67 549.955C271.601 549.955 271.336 549.748 270.955 549.309C270.49 548.745 269.972 548.227 269.408 547.763C268.854 547.32 268.193 547.029 267.492 546.92C266.95 546.851 266.604 546.92 266.569 546.851C266.534 546.782 266.869 546.539 267.504 546.493C268.342 546.475 269.159 546.753 269.812 547.278C270.424 547.777 270.941 548.383 271.336 549.067C271.601 549.575 271.74 549.909 271.67 549.955Z" fill="#263238"/>
<path d="M284.493 546.317C284.574 546.456 284.274 546.802 283.766 546.986C283.258 547.171 282.808 547.102 282.785 546.986C282.762 546.871 283.12 546.629 283.559 546.467C283.997 546.305 284.401 546.179 284.493 546.317Z" fill="#263238"/>
<path d="M284.217 545.36C284.217 545.533 283.755 545.671 283.155 545.683C282.555 545.694 282.082 545.556 282.093 545.394C282.105 545.233 282.578 545.083 283.155 545.071C283.732 545.059 284.194 545.198 284.217 545.36Z" fill="#263238"/>
<path d="M327.695 546.155V536.287L310.001 536.16L309.851 550.933L310.948 551.014C315.83 551.326 335.797 551.937 339.063 550.922C342.71 549.791 327.695 546.155 327.695 546.155Z" fill="#FF725E"/>
<path d="M339.478 550.023C339.478 550.184 332.864 550.323 324.693 550.323C316.522 550.323 309.92 550.184 309.92 550.023C309.92 549.861 316.533 549.723 324.693 549.723C332.853 549.723 339.478 549.861 339.478 550.023Z" fill="#263238"/>
<path d="M328.005 548.177C327.867 548.096 328.005 547.577 328.363 547.023C328.721 546.469 329.206 546.238 329.321 546.353C329.437 546.469 329.194 546.907 328.848 547.38C328.502 547.854 328.155 548.258 328.005 548.177Z" fill="#263238"/>
<path d="M329.136 548.821C328.985 548.821 329.055 548.175 329.413 547.563C329.77 546.951 330.22 546.582 330.347 546.674C330.474 546.767 330.255 547.286 329.932 547.828C329.609 548.371 329.297 548.879 329.136 548.821Z" fill="#263238"/>
<path d="M315.241 549.955C315.172 549.955 314.918 549.748 314.525 549.309C314.06 548.745 313.542 548.227 312.979 547.763C312.424 547.32 311.764 547.029 311.063 546.92C310.532 546.851 310.174 546.92 310.139 546.851C310.105 546.782 310.44 546.539 311.074 546.493C311.912 546.475 312.729 546.753 313.383 547.278C313.998 547.774 314.515 548.38 314.906 549.067C315.172 549.575 315.31 549.909 315.241 549.955Z" fill="#263238"/>
<path d="M328.064 546.317C328.145 546.456 327.845 546.802 327.337 546.986C326.829 547.171 326.379 547.102 326.356 546.986C326.333 546.871 326.69 546.629 327.129 546.467C327.568 546.305 327.972 546.179 328.064 546.317Z" fill="#263238"/>
<path d="M327.808 545.36C327.808 545.533 327.347 545.671 326.747 545.683C326.146 545.694 325.685 545.556 325.696 545.394C325.708 545.233 326.17 545.083 326.747 545.071C327.324 545.059 327.808 545.198 327.808 545.36Z" fill="#263238"/>
<path d="M392.88 253.117C392.419 252.643 391.276 252.874 391.276 252.874C391.39 252.21 391.39 251.531 391.276 250.866C391.068 250.22 389.614 250.347 389.614 250.347C389.547 249.802 389.547 249.252 389.614 248.708C389.626 248.587 389.6 248.466 389.54 248.36C389.48 248.255 389.389 248.171 389.279 248.119C388.591 247.839 387.852 247.705 387.109 247.727C386.221 247.092 389.822 242.048 391.161 240.432C392.499 238.817 392.257 237.559 391.068 237.559C390.249 237.559 386.048 242.406 384.755 244.033C383.462 245.661 380.034 250.185 379.919 246.573C379.804 242.96 378.349 240.236 377.438 239.775C376.526 239.313 375.556 240.398 376.053 241.402C376.489 242.543 376.761 243.74 376.86 244.957C376.986 245.926 376.943 246.91 376.734 247.865C376.351 249.642 375.83 251.386 375.175 253.082H375.083C375.083 253.082 349.899 277.239 348.076 278.958C346.448 280.505 313.717 277.123 307.149 276.431C304.918 276.104 302.664 275.95 300.409 275.969C297.558 276.096 297.051 276.5 294.211 276.534C287.041 276.614 279.887 277.243 272.813 278.416C269.61 278.96 266.618 280.374 264.163 282.503C261.709 284.632 259.886 287.394 258.894 290.488C252.281 311.148 237.3 360.049 234.657 387.518C232.66 391.14 230.857 394.866 229.255 398.679C227.397 403.734 227.847 403.907 228.47 404.023C230.156 404.334 232.071 395.263 232.787 397.456C233.503 399.648 229.151 408.27 230.917 408.524C233.226 408.847 235.061 399.291 235.28 398.529C235.499 397.767 236.642 398.01 236.434 398.725C236.099 399.741 232.856 410.509 235.118 410.855C236.365 411.04 236.503 408.766 236.503 408.766C236.503 408.766 238.812 398.46 239.862 398.667C240.912 398.875 239.793 404.958 239.262 406.989C238.731 409.02 239.47 410.047 240.555 409.551C241.293 409.205 243.059 403.03 243.544 401.022C244.029 399.014 245.24 393.451 246.868 396.671C248.495 399.891 250.965 401.761 251.981 401.807C252.21 401.78 252.425 401.686 252.6 401.536C252.775 401.386 252.901 401.187 252.962 400.965C253.023 400.743 253.015 400.507 252.941 400.289C252.867 400.071 252.73 399.88 252.546 399.741C251.673 398.888 250.923 397.916 250.319 396.855C249.78 396.029 249.39 395.115 249.165 394.155C248.699 392.24 248.429 390.283 248.357 388.315L248.172 387.16C250.757 374.361 258.202 336.793 268.947 312.798L273.356 321.87L275.272 328.587L263.522 357.591L313.636 356.933L306.157 328.148L315.24 298.14C325.062 298.36 350.28 298.729 354.481 296.825C359.767 294.516 387.109 259.984 387.109 259.984C388.892 258.599 390.598 257.12 392.222 255.552C392.222 255.552 393.884 254.155 392.88 253.117Z" fill="#FFBE9D"/>
<path d="M261.317 336.157C262.771 331.194 270.239 306.656 270.239 306.656C270.239 306.656 273.909 326.658 272.939 329.07C272.048 331.135 270.994 333.127 269.788 335.026C261.317 347.918 262.425 354.369 262.425 354.369L313.612 352.811C313.727 345.655 309.492 329.012 308.614 326.358C307.737 323.703 310.657 315.013 310.657 315.013C310.657 315.013 316.428 309.138 316.22 306.114C316.111 303.398 315.775 300.695 315.216 298.035L346.378 299.189L345.397 278.068L300.639 273.59C299.081 277.987 284.989 275.829 284.989 275.829C269.777 276.337 268.831 279.13 262.506 284.047C256.181 288.963 245.713 331.159 245.713 331.159L261.317 336.157Z" fill="#FF725E"/>
<path d="M291.58 331.159C290.693 331.318 289.789 331.364 288.89 331.298C287.217 331.298 284.92 331.182 282.393 330.928C279.865 330.675 277.58 330.317 275.952 329.994C275.055 329.878 274.175 329.653 273.332 329.324C274.235 329.325 275.135 329.41 276.022 329.578C277.661 329.786 279.934 330.074 282.45 330.328C284.966 330.582 287.252 330.755 288.902 330.871C289.802 330.882 290.698 330.979 291.58 331.159Z" fill="#263238"/>
<path d="M295.088 326.809C294.201 327.243 293.263 327.565 292.295 327.767C287.691 328.976 282.94 329.54 278.18 329.44C277.195 329.472 276.21 329.379 275.248 329.163C276.221 329.04 277.2 328.99 278.18 329.013C279.992 328.955 282.485 328.828 285.232 328.505C287.979 328.182 290.426 327.72 292.157 327.351C293.118 327.094 294.099 326.913 295.088 326.809Z" fill="#263238"/>
<path d="M312.308 307.395C312.285 308.274 312.165 309.149 311.951 310.003C311.65 311.607 311.189 313.8 310.6 316.201C310.012 318.601 309.446 320.817 308.938 322.318C308.734 323.177 308.432 324.009 308.038 324.799C308.102 323.922 308.265 323.055 308.523 322.214C308.961 320.413 309.458 318.336 310.012 316.062C310.566 313.789 311.096 311.711 311.535 309.911C311.691 309.044 311.951 308.199 312.308 307.395Z" fill="#263238"/>
<path d="M261.861 333.216C259.19 332.804 256.555 332.19 253.978 331.381C251.344 330.765 248.759 329.955 246.245 328.957C248.914 329.376 251.548 329.989 254.128 330.792C256.762 331.406 259.347 332.216 261.861 333.216Z" fill="#263238"/>
<path d="M315.771 297.78C315.336 297.855 314.891 297.855 314.456 297.78C313.25 297.657 312.066 297.373 310.935 296.938C309.047 296.228 307.329 295.132 305.89 293.718C304.45 292.305 303.323 290.607 302.579 288.732C301.758 286.669 301.407 284.449 301.552 282.234C301.604 280.406 302.15 278.627 303.133 277.086C303.825 276.048 304.858 275.285 306.053 274.928C306.373 274.84 306.703 274.797 307.034 274.801C307.265 274.801 307.381 274.801 307.381 274.801C307.381 274.801 306.896 274.801 306.123 275.113C305.026 275.518 304.096 276.277 303.48 277.271C301.91 279.741 301.471 284.254 303.145 288.466C303.924 290.453 305.143 292.236 306.711 293.683C307.996 294.867 309.476 295.82 311.086 296.499C312.596 297.096 314.167 297.526 315.771 297.78Z" fill="#263238"/>
<path d="M342.674 298.775C342.385 295.236 342.292 291.683 342.397 288.134C342.306 284.587 342.414 281.038 342.72 277.504C343.009 281.039 343.101 284.588 342.997 288.134C343.094 291.684 342.986 295.237 342.674 298.775Z" fill="#263238"/>
<path d="M300.34 274.883C300.467 272.309 300.732 269.401 300.732 269.401C300.732 269.401 307.103 268.697 307.484 262.118C307.865 255.54 307.484 240.362 307.484 240.362L295.943 234.453L283.131 244.529L285.105 277.422L296.854 278.173C297.752 278.197 298.624 277.865 299.277 277.249C299.931 276.632 300.313 275.781 300.34 274.883Z" fill="#FFBE9D"/>
<path d="M301.483 256.913C301.483 256.913 301.483 257.04 301.379 257.19C301.293 257.299 301.182 257.385 301.055 257.442C300.929 257.498 300.79 257.522 300.652 257.513C299.913 257.513 299.198 256.659 298.944 255.667C298.823 255.185 298.823 254.682 298.944 254.201C298.967 253.991 299.043 253.79 299.164 253.617C299.285 253.443 299.447 253.303 299.636 253.208C299.791 253.144 299.966 253.144 300.121 253.208C300.236 253.265 300.329 253.359 300.386 253.474C300.467 253.67 300.386 253.797 300.386 253.785C300.386 253.774 300.386 253.67 300.271 253.554C300.211 253.472 300.122 253.414 300.022 253.393C299.922 253.372 299.817 253.388 299.728 253.439C299.587 253.525 299.469 253.645 299.386 253.788C299.304 253.931 299.259 254.093 299.255 254.259C299.158 254.688 299.158 255.133 299.255 255.563C299.486 256.463 300.109 257.19 300.663 257.259C300.772 257.274 300.882 257.266 300.987 257.236C301.092 257.207 301.19 257.156 301.275 257.086C301.413 256.994 301.46 256.902 301.483 256.913Z" fill="#EB996E"/>
<path d="M311.444 236.808C310.555 233.784 307.335 232.284 304.403 231.453C299.937 230.183 295.112 229.629 290.75 231.233C286.387 232.838 281.147 235.654 281.147 240.466C278.573 240.259 277.096 242.509 276.08 245.302C275.431 247.004 275.042 248.794 274.926 250.612C274.603 256.913 272.837 265.616 268.751 270.232C266.443 272.806 263.246 274.583 261.93 277.792C260.776 280.573 261.376 283.874 260.303 286.69C259.345 289.172 257.233 290.938 255.686 293.096C254.111 295.544 253.183 298.353 252.992 301.259C252.8 304.164 253.35 307.07 254.59 309.704C255.839 312.271 257.597 314.557 259.758 316.422C261.919 318.287 264.437 319.693 267.159 320.553C272.55 322.194 278.299 322.25 283.721 320.715C287.79 319.742 291.586 317.86 294.824 315.21C298.137 312.504 300.412 308.737 301.264 304.545C302.083 299.836 300.768 295.047 299.787 290.361C296.717 275.553 297.594 274.78 301.472 261.034C301.564 260.791 301.61 260.537 301.679 260.295C301.749 260.053 301.783 259.937 301.829 259.752C301.94 259.209 301.998 258.656 302.003 258.102C301.436 258.313 300.821 258.357 300.231 258.23C299.64 258.104 299.097 257.811 298.667 257.386C298.236 256.934 297.935 256.373 297.797 255.763C297.659 255.154 297.688 254.518 297.882 253.924C298.155 253.274 298.56 252.689 299.073 252.205C299.586 251.722 300.195 251.352 300.86 251.119C302.141 250.588 303.515 250.311 304.773 249.723C307.439 248.453 309.285 245.822 310.543 243.063C311.578 241.152 311.897 238.934 311.444 236.808Z" fill="#263238"/>
<path d="M301.945 257.227C302.189 257.587 302.39 257.974 302.545 258.381C302.892 259.108 303.353 260.135 303.861 261.324L303.953 261.543H303.711L302.557 261.647C301.761 261.647 301.091 261.797 300.306 261.785C300.238 261.77 300.175 261.738 300.122 261.691C300.07 261.645 300.03 261.586 300.006 261.52C299.972 261.415 299.972 261.302 300.006 261.197C300.033 261.041 300.068 260.887 300.11 260.735L300.318 259.916C300.422 259.369 300.585 258.835 300.803 258.323C300.781 258.88 300.7 259.434 300.56 259.973L300.399 260.793C300.341 261.07 300.237 261.497 300.399 261.462C300.976 261.462 301.795 261.335 302.557 261.289L303.711 261.185L303.561 261.439C303.065 260.285 302.649 259.2 302.407 258.45C302.194 258.067 302.039 257.655 301.945 257.227Z" fill="#FF725E"/>
<path d="M262.427 354.371L313.614 352.812L335.889 439.767L331.792 539.509H304.727L308.039 441.89L288.245 381.355L291.292 543.375L263.939 543.779L261.065 391.488C260.938 387.253 259.553 377.708 260.072 373.507L262.427 354.371Z" fill="#263238"/>
<path d="M295.053 382.591C294.215 382.644 293.374 382.593 292.548 382.441C291.002 382.256 288.89 381.933 286.57 381.471C284.25 381.01 282.172 380.479 280.672 380.052C279.87 379.875 279.094 379.596 278.364 379.221C278.364 379.048 282.126 379.948 286.743 380.883C291.36 381.818 295.076 382.418 295.053 382.591Z" fill="#455A64"/>
<path d="M331.514 534.038C331.514 534.2 325.385 534.338 317.825 534.338C310.266 534.338 304.126 534.2 304.126 534.038C304.126 533.877 310.254 533.738 317.825 533.738C325.397 533.738 331.514 533.865 331.514 534.038Z" fill="#455A64"/>
<path d="M291.049 539.163C291.049 539.336 285.094 539.463 277.754 539.463C270.413 539.463 264.469 539.336 264.469 539.163C264.469 538.99 270.425 538.863 277.754 538.863C285.082 538.863 291.049 539.002 291.049 539.163Z" fill="#455A64"/>
<path d="M287.516 538.748C287.355 538.748 286.639 503.35 285.912 459.688C285.185 416.027 284.758 380.605 284.908 380.605C285.058 380.605 285.797 415.992 286.512 459.677C287.228 503.362 287.69 538.748 287.516 538.748Z" fill="#455A64"/>
<path d="M327.879 534.039C327.866 533.881 327.866 533.723 327.879 533.566V532.181C327.879 530.934 327.971 529.145 328.04 526.871C328.202 522.255 328.433 515.549 328.721 507.332C329.344 490.804 330.222 468.021 331.179 442.872C331.179 442.629 331.179 442.399 331.179 442.191V442.272C325.12 418.034 319.638 396.036 315.656 380.12L311.039 361.296C310.509 359.092 310.105 357.372 309.816 356.172C309.678 355.606 309.585 355.167 309.504 354.833C309.459 354.683 309.432 354.528 309.424 354.371C309.484 354.517 309.53 354.667 309.562 354.821C309.654 355.144 309.77 355.583 309.931 356.137C310.243 357.291 310.693 359.045 311.27 361.238C312.424 365.693 314.052 372.11 316.083 380.016C320.1 395.921 325.64 417.861 331.78 442.133V442.214C331.78 442.422 331.78 442.664 331.78 442.895C330.752 468.044 329.818 490.816 329.137 507.343C328.779 515.572 328.479 522.232 328.271 526.871C328.156 529.18 328.063 530.934 328.006 532.181C328.006 532.769 327.936 533.231 327.925 533.566C327.927 533.724 327.911 533.883 327.879 534.039Z" fill="#455A64"/>
<path d="M319.048 440.16C317.104 440.799 315.102 441.244 313.07 441.487C310.577 441.914 308.453 442.215 307.495 442.261V442.03C307.807 442.122 307.969 442.18 307.969 442.226C307.969 442.272 307.772 442.226 307.449 442.226H306.757L307.449 442.018C308.349 441.753 310.473 441.314 312.966 440.864C314.965 440.43 317.003 440.195 319.048 440.16Z" fill="#455A64"/>
<path d="M318.576 443.472C316.775 443.554 314.971 443.473 313.186 443.229C311.383 443.192 309.587 442.995 307.819 442.641C311.426 442.346 315.057 442.627 318.576 443.472Z" fill="#455A64"/>
<path opacity="0.2" d="M262.206 356.206C262.812 356.984 263.576 357.626 264.447 358.089C265.318 358.553 266.277 358.827 267.261 358.895C269.323 359.139 271.408 359.1 273.459 358.779C286.674 357.314 300.674 355.963 313.612 352.812C296.865 353.747 279.172 353.436 262.425 354.371L262.252 355.802" fill="black"/>
<g opacity="0.2">
<path opacity="0.2" d="M279.463 379.809L288.904 416.442L288.246 381.355L279.463 379.809Z" fill="black"/>
</g>
<defs>
<filter id="filter0_d_375_48800" x="0.38623" y="0" width="541" height="541" filterUnits="userSpaceOnUse" color-interpolation-filters="sRGB">
<feFlood flood-opacity="0" result="BackgroundImageFix"/>
<feColorMatrix in="SourceAlpha" type="matrix" values="0 0 0 0 0 0 0 0 0 0 0 0 0 0 0 0 0 0 127 0" result="hardAlpha"/>
<feMorphology radius="34" operator="dilate" in="SourceAlpha" result="effect1_dropShadow_375_48800"/>
<feOffset dx="-33" dy="-16"/>
<feGaussianBlur stdDeviation="4"/>
<feComposite in2="hardAlpha" operator="out"/>
<feColorMatrix type="matrix" values="0 0 0 0 0 0 0 0 0 0 0 0 0 0 0 0 0 0 0.01 0"/>
<feBlend mode="normal" in2="BackgroundImageFix" result="effect1_dropShadow_375_48800"/>
<feBlend mode="normal" in="SourceGraphic" in2="effect1_dropShadow_375_48800" result="shape"/>
</filter>
</defs>
</svg>
