<svg width="155" height="36" viewBox="0 0 155 36" fill="none" xmlns="http://www.w3.org/2000/svg">
<path d="M52.8598 29.1555C52.2791 29.1555 51.8435 29.0546 51.5531 28.8529C51.2627 28.6736 51.0728 28.4271 50.9834 28.1133C50.8941 27.7995 50.8494 27.4634 50.8494 27.1048V7.67381C50.8494 7.31522 50.8829 6.99025 50.9499 6.6989C51.0393 6.38514 51.2292 6.13861 51.5196 5.95931C51.81 5.75761 52.2679 5.65675 52.8934 5.65675L59.1927 5.69037C60.8234 5.69037 62.32 5.97052 63.6827 6.53081C65.0676 7.0911 66.2627 7.88672 67.2679 8.91766C68.2732 9.9486 69.0438 11.1812 69.5799 12.6156C70.1384 14.0275 70.4176 15.5852 70.4176 17.2884C70.4176 19.0366 70.1384 20.639 69.5799 22.0958C69.0215 23.5525 68.2397 24.8076 67.2344 25.8609C66.2292 26.9143 65.0341 27.7323 63.6492 28.315C62.2865 28.8753 60.7675 29.1555 59.0922 29.1555H52.8598ZM54.9038 25.0877H59.1927C60.6223 25.0877 61.8733 24.774 62.9455 24.1464C64.0177 23.4965 64.8443 22.6 65.425 21.457C66.0282 20.314 66.3297 18.9805 66.3297 17.4565C66.3297 15.9101 66.0282 14.5654 65.425 13.4224C64.8443 12.257 64.0066 11.3605 62.912 10.733C61.8398 10.0831 60.5888 9.7581 59.1592 9.7581H54.9038V25.0877Z" fill="white"/>
<path d="M73.8919 29.1891C73.2888 29.1891 72.842 29.0882 72.5516 28.8865C72.2835 28.7072 72.116 28.4607 72.049 28.1469C71.982 27.8332 71.9485 27.4858 71.9485 27.1048V14.6327C71.9485 14.2292 71.982 13.8819 72.049 13.5905C72.116 13.2767 72.2835 13.0414 72.5516 12.8845C72.842 12.7052 73.2999 12.6156 73.9254 12.6156C74.5285 12.6156 74.9641 12.694 75.2322 12.8509C75.5226 13.0078 75.7013 13.2095 75.7683 13.456C75.8577 13.6802 75.9023 13.9043 75.9023 14.1284L75.6343 14.7335C75.746 14.5542 75.9023 14.3413 76.1034 14.0948C76.3044 13.8258 76.5725 13.5681 76.9075 13.3216C77.2426 13.0526 77.6447 12.8397 78.1138 12.6828C78.5829 12.5035 79.1414 12.4139 79.7892 12.4139C80.0572 12.4139 80.3364 12.4475 80.6268 12.5147C80.9396 12.5596 81.2411 12.638 81.5315 12.7501C81.8443 12.8397 82.1235 12.963 82.3692 13.1199C82.6149 13.2767 82.8048 13.4672 82.9388 13.6914C83.0729 13.8931 83.1399 14.1284 83.1399 14.3973C83.1399 15.1145 82.9612 15.7196 82.6038 16.2127C82.2464 16.7057 81.8219 16.9523 81.3305 16.9523C80.9954 16.9523 80.7497 16.9186 80.5933 16.8514C80.437 16.7842 80.3029 16.7057 80.1913 16.6161C80.1019 16.5264 79.9567 16.448 79.7557 16.3808C79.577 16.3135 79.2866 16.2799 78.8845 16.2799C78.5494 16.2799 78.2032 16.3359 77.8457 16.448C77.5107 16.5601 77.1979 16.7282 76.9075 16.9523C76.6171 17.1764 76.3826 17.4677 76.2039 17.8263C76.0252 18.1625 75.9358 18.5547 75.9358 19.0029V27.172C75.9358 27.553 75.9023 27.9004 75.8353 28.2142C75.7683 28.5055 75.5896 28.7408 75.2992 28.9201C75.0088 29.0994 74.5397 29.1891 73.8919 29.1891Z" fill="white"/>
<path d="M91.1067 29.3908C89.6548 29.3908 88.3815 29.1555 87.2869 28.6848C86.2147 28.2142 85.31 27.5754 84.5728 26.7686C83.858 25.9394 83.3107 25.0205 82.931 24.012C82.5736 22.981 82.3949 21.9165 82.3949 20.8183C82.3949 19.2046 82.7635 17.7703 83.5006 16.5152C84.2378 15.2602 85.2542 14.2741 86.5498 13.5569C87.8677 12.8397 89.3755 12.4811 91.0732 12.4811C92.2795 12.4811 93.3406 12.6716 94.2564 13.0526C95.1723 13.4336 95.9318 13.9379 96.5349 14.5654C97.1604 15.1705 97.6295 15.8429 97.9422 16.5825C98.2773 17.3221 98.4448 18.0392 98.4448 18.734C98.4448 19.9218 98.1544 20.7847 97.5736 21.3226C97.0152 21.8604 96.3115 22.1294 95.4627 22.1294H86.6168C86.6391 22.8914 86.8737 23.5525 87.3204 24.1128C87.7895 24.6731 88.3703 25.1101 89.0628 25.4239C89.7776 25.7153 90.5036 25.8609 91.2408 25.8609C91.7992 25.8609 92.2907 25.8273 92.7151 25.7601C93.1619 25.6928 93.5416 25.6144 93.8543 25.5248C94.1671 25.4127 94.4351 25.3006 94.6585 25.1886C94.9042 25.0765 95.1276 24.9757 95.3287 24.886C95.5297 24.7964 95.7196 24.7403 95.8983 24.7179C96.144 24.6955 96.3897 24.7516 96.6354 24.886C96.8811 25.0205 97.0822 25.2558 97.2386 25.592C97.3726 25.8161 97.4619 26.029 97.5066 26.2307C97.5736 26.41 97.6071 26.5893 97.6071 26.7686C97.6071 27.2168 97.3391 27.6427 96.803 28.0461C96.2669 28.4271 95.5074 28.7408 94.5245 28.9874C93.5639 29.2563 92.4247 29.3908 91.1067 29.3908ZM86.6168 19.7425H93.4858C93.8655 19.7425 94.1559 19.6865 94.3569 19.5744C94.558 19.44 94.6585 19.171 94.6585 18.7676C94.6585 18.2521 94.5021 17.7927 94.1894 17.3893C93.8767 16.9635 93.4522 16.6385 92.9161 16.4144C92.38 16.1679 91.7546 16.0446 91.0397 16.0446C90.2132 16.0446 89.4649 16.2127 88.7947 16.5489C88.1246 16.8626 87.5885 17.2997 87.1864 17.8599C86.8067 18.4202 86.6168 19.0478 86.6168 19.7425Z" fill="white"/>
<path d="M113.257 29.1218C112.609 29.1218 112.129 28.9986 111.816 28.752C111.504 28.5055 111.347 28.1693 111.347 27.7435L111.582 26.6341C111.403 26.9255 111.101 27.2729 110.677 27.6763C110.253 28.0573 109.694 28.4047 109.002 28.7184C108.309 29.0098 107.472 29.1555 106.489 29.1555C105.439 29.1555 104.445 28.9425 103.507 28.5167C102.591 28.0685 101.775 27.4634 101.06 26.7014C100.368 25.917 99.8095 25.0317 99.3851 24.0456C98.983 23.0371 98.782 21.9613 98.782 20.8183C98.782 19.7201 98.983 18.6892 99.3851 17.7255C99.8095 16.7394 100.379 15.8653 101.094 15.1033C101.809 14.3413 102.624 13.7474 103.54 13.3216C104.478 12.8733 105.461 12.6492 106.489 12.6492C107.405 12.6492 108.175 12.7725 108.801 13.019C109.448 13.2655 109.996 13.5793 110.442 13.9603C110.889 14.3189 111.258 14.6999 111.548 15.1033L111.347 14.1284C111.347 13.6353 111.504 13.2655 111.816 13.019C112.129 12.7501 112.62 12.6156 113.291 12.6156C113.916 12.6156 114.363 12.7164 114.631 12.9182C114.899 13.0974 115.066 13.3552 115.133 13.6914C115.201 14.0051 115.234 14.3637 115.234 14.7671V27.0712C115.234 27.4522 115.201 27.7995 115.133 28.1133C115.066 28.4271 114.888 28.6736 114.597 28.8529C114.329 29.0322 113.883 29.1218 113.257 29.1218ZM107.092 25.2222C107.851 25.2222 108.533 25.0317 109.136 24.6507C109.739 24.2697 110.219 23.7542 110.577 23.1043C110.956 22.4319 111.146 21.6924 111.146 20.8855C111.146 20.0115 110.956 19.2495 110.577 18.5995C110.197 17.9496 109.694 17.4453 109.069 17.0867C108.466 16.7057 107.784 16.5152 107.025 16.5152C106.198 16.5152 105.461 16.7169 104.813 17.1204C104.165 17.5014 103.652 18.028 103.272 18.7004C102.915 19.3503 102.736 20.0899 102.736 20.9191C102.736 21.726 102.926 22.4543 103.305 23.1043C103.685 23.7542 104.199 24.2697 104.847 24.6507C105.517 25.0317 106.265 25.2222 107.092 25.2222Z" fill="white"/>
<path d="M118.864 29.1555C118.261 29.1555 117.814 29.0658 117.524 28.8865C117.256 28.7072 117.088 28.4607 117.021 28.1469C116.954 27.8332 116.921 27.497 116.921 27.1384V14.5654C116.921 14.2068 116.954 13.8819 117.021 13.5905C117.088 13.2992 117.267 13.0638 117.557 12.8845C117.848 12.7052 118.306 12.6156 118.931 12.6156C119.579 12.6156 120.048 12.7501 120.338 13.019C120.651 13.2879 120.807 13.7138 120.807 14.2965L120.506 15.2378C120.618 14.9912 120.807 14.7223 121.076 14.4309C121.344 14.1396 121.667 13.8482 122.047 13.5569C122.449 13.2655 122.896 13.0302 123.388 12.8509C123.879 12.6716 124.393 12.582 124.929 12.582C125.666 12.582 126.336 12.7052 126.939 12.9518C127.565 13.1983 128.112 13.5569 128.581 14.0275C129.073 14.4982 129.497 15.0697 129.854 15.742C130.234 15.1593 130.659 14.6327 131.128 14.162C131.597 13.6689 132.144 13.2879 132.77 13.019C133.395 12.7277 134.099 12.582 134.88 12.582C136.176 12.582 137.26 12.9069 138.131 13.5569C139.024 14.2068 139.694 15.1369 140.141 16.3472C140.61 17.535 140.845 18.9581 140.845 20.6166V27.1384C140.845 27.5194 140.8 27.8668 140.711 28.1805C140.644 28.4719 140.465 28.7072 140.175 28.8865C139.907 29.0658 139.46 29.1555 138.834 29.1555C138.209 29.1555 137.751 29.0546 137.461 28.8529C137.17 28.6736 136.991 28.4383 136.924 28.1469C136.857 27.8332 136.824 27.4858 136.824 27.1048V20.583C136.824 19.7537 136.723 19.0366 136.522 18.4314C136.321 17.8263 136.02 17.3557 135.618 17.0195C135.238 16.6833 134.735 16.5152 134.11 16.5152C133.44 16.5152 132.859 16.6833 132.367 17.0195C131.898 17.3333 131.53 17.7927 131.262 18.3978C130.994 19.0029 130.86 19.7425 130.86 20.6166V27.172C130.86 27.553 130.804 27.9116 130.692 28.2478C130.58 28.5615 130.357 28.7969 130.022 28.9537C129.709 29.133 129.251 29.2003 128.648 29.1555C128.09 29.133 127.676 29.021 127.408 28.8193C127.163 28.6176 127.006 28.371 126.939 28.0797C126.895 27.7659 126.872 27.441 126.872 27.1048V20.583C126.872 19.7537 126.772 19.0366 126.571 18.4314C126.37 17.8039 126.068 17.3333 125.666 17.0195C125.286 16.6833 124.772 16.5152 124.125 16.5152C123.432 16.5152 122.84 16.6945 122.349 17.0531C121.88 17.4117 121.522 17.8936 121.277 18.4987C121.031 19.1038 120.908 19.7986 120.908 20.583V27.172C120.908 27.5306 120.863 27.8668 120.774 28.1805C120.707 28.4943 120.528 28.7296 120.238 28.8865C119.97 29.0658 119.512 29.1555 118.864 29.1555Z" fill="white"/>
<path d="M148.265 29.3908C147.684 29.3908 147.07 29.3235 146.422 29.1891C145.774 29.077 145.149 28.9089 144.546 28.6848C143.943 28.4383 143.418 28.1581 142.971 27.8444C142.546 27.5082 142.278 27.1384 142.167 26.735C142.077 26.5109 142.044 26.298 142.066 26.0963C142.089 25.8721 142.156 25.648 142.267 25.4239C142.379 25.1774 142.546 24.9308 142.77 24.6843C142.971 24.4378 143.172 24.3033 143.373 24.2809C143.596 24.2361 143.876 24.3033 144.211 24.4826C144.501 24.5947 144.814 24.7403 145.149 24.9196C145.506 25.0989 145.864 25.2782 146.221 25.4575C146.601 25.6368 146.981 25.7825 147.36 25.8945C147.762 26.0066 148.153 26.0626 148.533 26.0626C149.36 26.0626 150.019 25.9282 150.51 25.6592C151.001 25.3679 151.247 24.9645 151.247 24.449C151.247 24.1576 151.169 23.8999 151.013 23.6758C150.856 23.4517 150.644 23.2724 150.376 23.1379C150.13 22.981 149.829 22.8466 149.471 22.7345C149.136 22.6 148.768 22.488 148.366 22.3983C147.986 22.2863 147.584 22.163 147.159 22.0285C146.601 21.8716 146.042 21.6811 145.484 21.457C144.926 21.2329 144.423 20.9416 143.976 20.583C143.552 20.2244 143.205 19.7761 142.937 19.2383C142.669 18.7004 142.535 18.028 142.535 17.2212C142.535 16.2127 142.77 15.361 143.239 14.6663C143.73 13.9491 144.434 13.4 145.35 13.019C146.266 12.638 147.372 12.4475 148.667 12.4475C149.114 12.4475 149.538 12.4811 149.94 12.5484C150.365 12.6156 150.767 12.7165 151.147 12.8509C151.549 12.963 151.928 13.1087 152.286 13.2879C152.666 13.4672 153.023 13.6689 153.358 13.8931C153.917 14.2068 154.207 14.5766 154.229 15.0024C154.252 15.4059 154.095 15.8429 153.76 16.3135C153.515 16.6273 153.269 16.8514 153.023 16.9859C152.777 17.0979 152.52 17.0979 152.252 16.9859C151.895 16.8066 151.504 16.6161 151.08 16.4144C150.678 16.1903 150.253 15.9998 149.806 15.8429C149.382 15.686 148.935 15.6076 148.466 15.6076C148.019 15.6076 147.617 15.6748 147.26 15.8093C146.902 15.9437 146.634 16.1342 146.456 16.3808C146.277 16.6273 146.188 16.9186 146.188 17.2548C146.188 17.5686 146.277 17.8263 146.456 18.028C146.634 18.2297 146.869 18.3978 147.159 18.5323C147.45 18.6668 147.796 18.79 148.198 18.9021C148.6 18.9917 149.025 19.0814 149.471 19.171C150.097 19.3055 150.733 19.4736 151.381 19.6753C152.029 19.877 152.621 20.1571 153.157 20.5157C153.716 20.8743 154.162 21.3562 154.497 21.9613C154.832 22.544 155 23.306 155 24.2473C155 25.8833 154.397 27.1496 153.191 28.0461C152.007 28.9425 150.365 29.3908 148.265 29.3908Z" fill="white"/>
<path d="M133.556 10.1541C133.303 10.1541 133.12 10.1188 133.007 10.0482C132.895 9.97057 132.824 9.86822 132.796 9.74116C132.768 9.6141 132.754 9.48351 132.754 9.3494V3.55764C132.754 3.41647 132.765 3.28588 132.786 3.16588C132.814 3.04588 132.884 2.94705 132.997 2.86941C133.109 2.79176 133.296 2.75294 133.556 2.75294C133.824 2.75294 134.01 2.79176 134.116 2.86941C134.228 2.94705 134.295 3.04588 134.316 3.16588C134.344 3.28588 134.358 3.41647 134.358 3.55764V8.75646H137.25C137.369 8.75646 137.482 8.76705 137.588 8.78822C137.693 8.8094 137.778 8.8694 137.841 8.96822C137.911 9.06705 137.946 9.2294 137.946 9.45528C137.946 9.6741 137.911 9.83646 137.841 9.94234C137.771 10.0412 137.683 10.1012 137.577 10.1223C137.479 10.1435 137.369 10.1541 137.25 10.1541H133.556Z" fill="#FF4667"/>
<path d="M140.431 10.1541C140.178 10.1541 139.995 10.1153 139.882 10.0376C139.777 9.95998 139.71 9.86116 139.682 9.74116C139.654 9.6141 139.64 9.47999 139.64 9.33881V3.54705C139.64 3.41294 139.654 3.28941 139.682 3.17647C139.71 3.05647 139.78 2.95764 139.893 2.88C140.005 2.80235 140.192 2.76353 140.452 2.76353C140.628 2.76353 140.762 2.77411 140.853 2.79529C140.945 2.81647 141.011 2.84823 141.054 2.89058C141.096 2.92588 141.142 2.96823 141.191 3.01764L143.565 6.23646H143.407L145.792 3.01764C145.848 2.94705 145.905 2.89411 145.961 2.85882C146.017 2.82352 146.088 2.79882 146.172 2.7847C146.264 2.77058 146.39 2.76353 146.552 2.76353C146.805 2.76353 146.988 2.80235 147.101 2.88C147.213 2.95764 147.284 3.05999 147.312 3.18705C147.34 3.30705 147.354 3.43411 147.354 3.56823V9.35999C147.354 9.4941 147.34 9.62116 147.312 9.74116C147.284 9.86116 147.213 9.95998 147.101 10.0376C146.988 10.1153 146.802 10.1541 146.541 10.1541C146.288 10.1541 146.105 10.1153 145.993 10.0376C145.88 9.95998 145.81 9.85763 145.782 9.73057C145.753 9.60351 145.739 9.47293 145.739 9.33881V5.55882L144.167 7.79293C144.139 7.82822 144.1 7.87764 144.051 7.94116C144.002 7.99763 143.931 8.04705 143.84 8.0894C143.755 8.13175 143.639 8.15293 143.492 8.15293C143.337 8.15293 143.214 8.13175 143.122 8.0894C143.038 8.04705 142.971 7.99763 142.922 7.94116C142.872 7.88469 142.83 7.83528 142.795 7.79293L141.233 5.5694V9.35999C141.233 9.4941 141.219 9.62116 141.191 9.74116C141.163 9.86116 141.092 9.95998 140.98 10.0376C140.874 10.1153 140.691 10.1541 140.431 10.1541Z" fill="#FF4667"/>
<path d="M151.707 10.26C151.334 10.26 151.007 10.2141 150.725 10.1223C150.451 10.0306 150.215 9.92116 150.018 9.7941C149.828 9.65998 149.677 9.5294 149.565 9.40234C149.452 9.27528 149.375 9.17999 149.332 9.11646C149.213 8.96116 149.139 8.82704 149.111 8.7141C149.083 8.5941 149.097 8.4741 149.153 8.3541C149.216 8.23411 149.322 8.10352 149.47 7.96234C149.617 7.83528 149.754 7.76822 149.881 7.76116C150.015 7.74705 150.145 7.77881 150.272 7.85646C150.398 7.93411 150.521 8.04352 150.641 8.18469C150.81 8.3894 150.975 8.53411 151.137 8.61881C151.306 8.69646 151.482 8.73528 151.665 8.73528C151.897 8.73528 152.094 8.70705 152.256 8.65057C152.417 8.5941 152.541 8.50587 152.625 8.38587C152.709 8.25881 152.752 8.09999 152.752 7.9094C152.752 7.75411 152.692 7.63058 152.572 7.53881C152.46 7.43999 152.305 7.35528 152.108 7.28469C151.918 7.21411 151.703 7.14705 151.464 7.08352C151.232 7.01293 151 6.93175 150.768 6.83999C150.606 6.78352 150.451 6.71293 150.303 6.62823C150.156 6.54352 150.015 6.44823 149.881 6.34234C149.747 6.23646 149.631 6.1094 149.533 5.96117C149.441 5.81293 149.368 5.64352 149.311 5.45293C149.262 5.26234 149.237 5.04352 149.237 4.79646C149.237 4.37999 149.339 4.00941 149.543 3.6847C149.747 3.35999 150.029 3.10588 150.388 2.92235C150.754 2.73176 151.172 2.63647 151.644 2.63647C151.96 2.63647 152.235 2.6647 152.467 2.72117C152.706 2.77764 152.906 2.8447 153.068 2.92235C153.23 2.99999 153.357 3.07764 153.448 3.15529C153.547 3.22588 153.614 3.28235 153.649 3.3247C153.846 3.50823 153.955 3.66705 153.976 3.80117C153.997 3.92823 153.923 4.10823 153.754 4.34117C153.578 4.58823 153.402 4.72588 153.227 4.75411C153.058 4.78235 152.864 4.72235 152.646 4.57411C152.562 4.49646 152.477 4.42588 152.393 4.36235C152.308 4.29882 152.206 4.2494 152.087 4.21411C151.974 4.17176 151.823 4.15058 151.633 4.15058C151.52 4.15058 151.415 4.16823 151.316 4.20352C151.218 4.23176 151.133 4.27411 151.063 4.33058C150.993 4.38705 150.936 4.45764 150.894 4.54235C150.852 4.61999 150.831 4.70823 150.831 4.80705C150.831 4.9694 150.884 5.09999 150.989 5.19882C151.102 5.29764 151.246 5.37882 151.422 5.44234C151.605 5.49882 151.805 5.55528 152.023 5.61176C152.249 5.66117 152.477 5.72117 152.709 5.79176C152.921 5.86234 153.125 5.95058 153.322 6.05646C153.519 6.15528 153.694 6.28234 153.849 6.43764C154.004 6.59293 154.127 6.78705 154.219 7.01999C154.317 7.25293 154.366 7.53881 154.366 7.87764C154.366 8.30116 154.285 8.66469 154.124 8.96822C153.962 9.27175 153.747 9.51881 153.48 9.7094C153.213 9.89999 152.924 10.0376 152.614 10.1223C152.305 10.2141 152.002 10.26 151.707 10.26Z" fill="#FF4667"/>
<path d="M35.2836 14.3749V21.3775C35.2836 22.4003 34.8046 23.3509 34.0159 23.887C33.3529 24.3377 32.4602 24.9119 31.4053 25.5103V14.3749H35.2836Z" fill="#FF4667"/>
<path d="M31.2074 14.3749V25.5594C28.3643 27.1828 24.3495 28.9829 20.5386 28.9829C15.3155 28.9829 9.70946 25.6001 7.25922 23.9295C6.47051 23.3913 5.99155 22.4368 5.99155 21.4099V14.3749H31.2074Z" fill="#FF4667"/>
<path d="M35.0903 14.2289V21.0681C35.0903 22.0703 34.6112 23.0014 33.8227 23.526C31.3727 25.1561 25.7669 28.4567 20.5433 28.4567C15.3198 28.4567 9.71411 25.1561 7.26397 23.526C6.47546 23.0014 5.9964 22.0703 5.9964 21.0681V14.2289H35.0903ZM35.882 13.4339H5.20482V21.0681C5.20482 22.3464 5.81115 23.5131 6.82677 24.1888C8.1176 25.0477 10.1581 26.2901 12.5484 27.3319C15.4711 28.6059 18.1609 29.2518 20.5433 29.2518C22.9258 29.2518 25.6156 28.6059 28.5383 27.3319C30.9286 26.2901 32.9691 25.0476 34.2599 24.1888C35.2755 23.5131 35.882 22.3464 35.882 21.0681V13.4339Z" fill="#FF4667"/>
<path d="M30.8406 27.1815C30.0995 27.2715 29.4168 27.6307 28.9213 28.1915C28.4258 28.7522 28.1517 29.4757 28.151 30.2254V32.9303C28.151 34.027 28.7334 35.0404 29.6793 35.5887C30.6249 36.1371 31.7901 36.1371 32.7357 35.5887C33.6815 35.0404 34.2641 34.027 34.2641 32.9303V30.2254C34.2633 29.4757 33.9892 28.7522 33.4938 28.1915C32.9983 27.6307 32.3156 27.2715 31.5745 27.1815" fill="white"/>
<path d="M33.5302 30.5865H28.8847V30.2586C28.8847 28.9702 29.9247 27.9259 31.2074 27.9259C32.4902 27.9259 33.5301 28.9703 33.5301 30.2586L33.5302 30.5865Z" fill="white"/>
<path d="M39.0253 13.3221L21.4318 21.7341C20.8393 22.0173 20.1512 22.0166 19.5593 21.7321L1.86969 13.2289C0.229737 12.4406 0.221029 10.099 1.85505 9.29834L19.5351 0.63575C20.1405 0.339086 20.8487 0.341173 21.4525 0.641415L39.0556 9.39534C40.6814 10.2038 40.6634 12.539 39.0253 13.3221Z" fill="white"/>
<path d="M20.4881 0.78097C20.7306 0.78097 20.9729 0.835443 21.1959 0.944389L39.2158 9.74651C40.4089 10.3293 40.3958 12.0126 39.1936 12.5772L21.1808 21.0369C20.964 21.1387 20.7296 21.1897 20.4952 21.1897C20.2597 21.1897 20.0244 21.1383 19.8067 21.0355L1.69806 12.4854C0.494518 11.9171 0.488185 10.2292 1.68728 9.65201L19.7887 0.940288C20.0094 0.834076 20.2488 0.78097 20.4881 0.78097ZM20.4881 0C20.1274 0 19.7656 0.08249 19.4416 0.238391L1.34023 8.95012C0.510055 9.34968 -0.00344617 10.1638 1.74116e-05 11.0749C0.00348099 11.986 0.523117 12.7964 1.35626 13.1898L19.4648 21.7399C19.7845 21.8908 20.1408 21.9706 20.4951 21.9706C20.8478 21.9706 21.2026 21.8915 21.521 21.7419L39.5338 13.2823C40.366 12.8914 40.8874 12.0839 40.8945 11.1746C40.9017 10.2655 40.393 9.45004 39.567 9.04657L21.5472 0.244541C21.2197 0.0845401 20.8535 0 20.4881 0Z" fill="white"/>
</svg>
