<svg width="97" height="24" viewBox="0 0 97 24" fill="none" xmlns="http://www.w3.org/2000/svg">
<g clip-path="url(#clip0_323_40205)">
<path d="M31.7284 9.38515C31.7284 7.67339 30.0537 5.85539 27.1558 5.85539C23.9016 5.85539 20.3267 8.22824 19.7803 12.9621C19.2221 17.7432 22.2151 19.8682 25.2318 19.8682C28.2485 19.8682 29.8281 18.6995 31.4433 17.1412C30.0537 15.4058 28.2604 16.2086 27.9159 16.3856C27.5359 16.5745 27.0489 16.8342 26.0513 16.8342C24.8873 16.8342 23.6997 16.3148 23.6997 14.1545C31.1583 13.4225 31.7284 11.0969 31.7284 9.38515ZM28.0347 9.66847C27.9872 10.1997 27.7734 11.1087 23.9966 11.6163C24.7923 8.80669 26.3126 8.5942 27.0133 8.5942C27.6665 8.5942 28.0822 9.10182 28.0347 9.66847ZM15.3978 10.1289C15.3978 10.1289 13.7944 15.1343 13.6638 15.5475C13.6163 15.1225 12.4405 6.13871 12.4405 6.13871C9.70883 6.13871 8.24798 8.07477 7.47599 10.1171C7.47599 10.1171 5.5282 15.1343 5.36192 15.5593C5.35005 15.1697 5.065 10.1761 5.065 10.1761C4.89873 7.67339 2.59463 6.15052 0.72998 6.15052L2.98657 19.7619C5.84887 19.7501 7.39285 17.8259 8.20047 15.7836C8.20047 15.7836 9.92261 11.3566 9.99387 11.1559C10.0057 11.3448 11.2291 19.7619 11.2291 19.7619C14.1032 19.7619 15.6472 17.9557 16.4786 15.9843L20.5048 6.15052C17.6663 6.15052 16.1698 8.07477 15.3978 10.1289ZM42.275 5.83178C40.5053 5.83178 39.1514 6.788 38.0112 8.19282V8.18101L39.0326 0C36.681 0 34.7688 2.0305 34.4007 5.05263L32.6191 19.6557C33.9731 19.6557 35.4102 19.2661 36.1822 18.2745C36.871 19.1599 37.9043 19.8682 39.4364 19.8682C43.4032 19.8682 46.123 15.2878 46.123 10.9907C46.0993 7.07132 44.1871 5.83178 42.275 5.83178ZM41.9068 12.8559C41.4911 15.2523 40.149 16.8815 38.8544 16.8815C37.548 16.8815 36.9898 16.303 36.9898 16.303C37.2392 14.2017 37.3936 12.9149 37.8687 11.8052C38.3437 10.6955 39.472 8.92474 40.6478 8.92474C41.7999 8.92474 42.3225 10.4476 41.9068 12.8559ZM56.0283 6.15052H53.261L53.2729 6.00885C53.4629 4.21446 53.8904 3.27004 55.3038 3.11658C56.2658 3.02213 56.6934 2.52632 56.8003 1.98328C56.8834 1.55829 57.1447 0.0826365 57.1447 0.0826365C51.5863 0.0472209 49.8405 2.43187 49.3891 6.06788L49.3773 6.15052H49.3179C48.4152 6.15052 47.4176 7.16576 47.2513 8.45253L47.1919 8.92474H49.0447L47.4889 21.698L47.0138 23.9882C47.0732 23.9882 47.1444 24 47.2038 24C49.8048 23.9056 51.4676 21.8633 51.8358 18.9001L53.0472 8.92474H53.9142C54.7693 8.92474 55.767 8.07477 55.9451 6.65814L56.0283 6.15052ZM70.4229 5.91441C67.2281 5.91441 64.2114 8.25185 63.285 11.9233C62.3586 15.5947 63.76 19.939 68.4632 19.939C73.1546 19.939 75.8625 15.4176 75.8625 11.6517C75.8625 7.90949 73.309 5.91441 70.4229 5.91441ZM71.7175 12.7378C71.5512 14.4024 70.8148 16.9287 68.7958 16.9287C66.7649 16.9287 67.0499 13.9774 67.2518 12.5726C67.4656 11.0733 68.3089 8.93655 70.126 8.93655C71.7531 8.93655 71.9075 10.8608 71.7175 12.7378ZM91.6467 10.1289C91.6467 10.1289 90.0434 15.1343 89.9127 15.5475C89.8652 15.1225 88.6894 6.13871 88.6894 6.13871C85.9577 6.13871 84.4969 8.07477 83.7249 10.1171C83.7249 10.1171 81.7771 15.1343 81.6108 15.5593C81.599 15.1697 81.3139 10.1761 81.3139 10.1761C81.1476 7.67339 78.8436 6.15052 76.9789 6.15052L79.2236 19.7619C82.0859 19.7501 83.6299 17.8259 84.4375 15.7836C84.4375 15.7836 86.1597 11.3566 86.219 11.1559C86.2428 11.3448 87.4542 19.7619 87.4542 19.7619C90.3284 19.7619 91.8724 17.9557 92.7038 15.9843L96.73 6.15052C93.9033 6.15052 92.4068 8.07477 91.6467 10.1289ZM58.6412 0.0826365L56.3133 18.7467L55.8382 21.0487C55.8976 21.0487 55.9689 21.0605 56.0283 21.0605C58.5343 21.0251 60.3158 18.8411 60.6483 16.0905L61.9904 5.38318C62.3942 2.11313 60.4346 0.0826365 58.6412 0.0826365Z" fill="black"/>
</g>
<defs>
<clipPath id="clip0_323_40205">
<rect width="96" height="24" fill="white" transform="translate(0.72998)"/>
</clipPath>
</defs>
</svg>
