<svg width="48" height="48" viewBox="0 0 48 48" fill="none" xmlns="http://www.w3.org/2000/svg">
<path d="M33.3 40.4V40.98C30.34 42.88 26.8 44 23 44C19.14 44 15.54 42.84 12.54 40.86V40.4C12.54 35.74 17.2 31.9399 22.92 31.9399C28.66 31.9399 33.3 35.74 33.3 40.4Z" fill="#FFC107"/>
<path opacity="0.4" d="M42 25C42 31.7 38.54 37.58 33.3 40.98V40.4C33.3 35.74 28.66 31.9399 22.92 31.9399C17.2 31.9399 12.54 35.74 12.54 40.4V40.86C7.4 37.46 4 31.64 4 25C4 14.5 12.5 6 23 6C25.62 6 28.12 6.51998 30.4 7.47998C30.14 8.27998 30 9.12 30 10C30 11.5 30.42 12.92 31.16 14.12C31.56 14.8 32.08 15.4199 32.68 15.9399C34.08 17.2199 35.94 18 38 18C38.88 18 39.72 17.86 40.5 17.58C41.46 19.86 42 22.38 42 25Z" fill="#FFC107"/>
<path d="M43.94 4.66003C42.5 3.02003 40.36 2 38 2C35.76 2 33.72 2.92004 32.26 4.42004C31.42 5.28004 30.78 6.31998 30.4 7.47998C30.14 8.27998 30 9.12 30 10C30 11.5 30.42 12.92 31.16 14.12C31.56 14.8 32.08 15.4199 32.68 15.9399C34.08 17.2199 35.94 18 38 18C38.88 18 39.72 17.86 40.5 17.58C42.34 17 43.88 15.74 44.84 14.12C45.26 13.44 45.58 12.66 45.76 11.86C45.92 11.26 46 10.64 46 10C46 7.96 45.22 6.08003 43.94 4.66003ZM40.98 11.46H39.5V13.02C39.5 13.84 38.82 14.52 38 14.52C37.18 14.52 36.5 13.84 36.5 13.02V11.46H35.02C34.2 11.46 33.52 10.78 33.52 9.95996C33.52 9.13996 34.2 8.45996 35.02 8.45996H36.5V7.04004C36.5 6.22004 37.18 5.54004 38 5.54004C38.82 5.54004 39.5 6.22004 39.5 7.04004V8.45996H40.98C41.8 8.45996 42.48 9.13996 42.48 9.95996C42.48 10.78 41.82 11.46 40.98 11.46Z" fill="#FFC107"/>
<path d="M22.92 29.46C26.0239 29.46 28.54 26.9438 28.54 23.84C28.54 20.7361 26.0239 18.22 22.92 18.22C19.8162 18.22 17.3 20.7361 17.3 23.84C17.3 26.9438 19.8162 29.46 22.92 29.46Z" fill="#FFC107"/>
</svg>
