<svg width="107" height="24" viewBox="0 0 107 24" fill="none" xmlns="http://www.w3.org/2000/svg">
<g clip-path="url(#clip0_323_40240)">
<path d="M69.1445 16.6108C66.919 16.6108 65.7762 14.7784 65.7762 12.5278C65.7762 10.2772 66.899 8.54439 69.1445 8.54439C71.4302 8.54439 72.5132 10.3568 72.5132 12.5278C72.4931 14.8183 71.3503 16.6108 69.1445 16.6108ZM47.3699 8.54439C48.6729 8.54439 49.2145 9.30127 49.2145 9.95852C49.2145 11.5519 47.5903 12.2489 44.2019 12.3486C44.2019 10.3768 45.3247 8.54439 47.3699 8.54439ZM32.9335 16.6108C30.8282 16.6108 29.9459 14.8979 29.9459 12.5278C29.9459 10.1776 30.8482 8.54439 32.9335 8.54439C35.0588 8.54439 36.0614 10.2374 36.0614 12.5278C36.0614 14.9178 35.0187 16.6108 32.9335 16.6108ZM15.1287 6.21412H11.8404L17.2941 18.722C16.2515 21.0324 15.6901 21.6099 14.9682 21.6099C14.2064 21.6099 13.4845 20.9925 12.9632 20.4548L11.5196 22.3668C12.502 23.4025 13.8454 24 15.2289 24C16.9533 24 18.2766 23.0041 19.0385 21.2116L25.3344 6.19418H22.1062L18.818 15.1568L15.1287 6.21412ZM102.228 8.54439C103.832 8.54439 104.153 9.63984 104.153 12.2091V18.961H107V10.4365C107 7.36931 104.894 6.03487 102.95 6.03487C101.226 6.03487 99.6415 7.11037 98.7592 9.10207C98.2578 7.19005 96.6537 6.03487 94.7891 6.03487C93.165 6.03487 91.5409 7.07053 90.659 9.00249V6.21412H87.8117V18.9411H90.659V13.5038C90.659 10.7552 92.1025 8.54439 94.0674 8.54439C95.6715 8.54439 95.9721 9.63984 95.9721 12.2091V18.961H98.8194L98.7993 13.5038C98.7993 10.7552 100.263 8.54439 102.228 8.54439ZM79.509 6.21412H78.0673V18.9411H80.9141V14.0614C80.9141 10.9743 82.2777 8.88297 84.3029 8.88297C84.8239 8.88297 85.2651 8.90291 85.7464 9.10207L86.1875 6.0946C85.8267 6.05476 85.506 6.01492 85.1848 6.01492C83.1801 6.01492 81.7362 7.38921 80.894 9.16185V6.21412H79.509ZM69.1445 6.01492C65.3752 6.01492 62.8286 8.88297 62.8286 12.5079C62.8286 16.2722 65.4153 19.0805 69.1445 19.0805C72.9343 19.0805 75.5206 16.1925 75.5206 12.5079C75.5006 8.86307 72.8741 6.01492 69.1445 6.01492ZM47.5301 16.6108C46.0465 16.6108 44.9438 15.854 44.4825 14.3203C48.2518 14.161 51.9413 13.2448 51.9413 9.91868C51.9413 8.00662 50.0566 6.03487 47.3499 6.03487C43.7006 6.03487 41.2344 9.00249 41.2344 12.5278C41.2344 16.2124 43.6605 19.1004 47.2897 19.1004C49.8158 19.1004 51.4198 18.0847 52.6831 16.6108L51.2998 14.7386C49.8358 16.2324 48.9339 16.6108 47.5301 16.6108ZM33.4949 6.01492C32.0513 6.01492 30.6076 6.85143 30.0462 8.16598V6.21412H27.199V23.9403H30.0462V17.6066C30.6477 18.5228 32.0312 19.1203 33.2543 19.1203C37.0438 19.1203 39.0489 16.312 39.0489 12.5278C39.0288 8.78339 37.0639 6.01492 33.4949 6.01492ZM13.5246 1.11535H0.0908203V3.88382H5.34403V18.9411H8.33155V3.88382H13.5246V1.11535ZM55.8511 6.21412H54.1467V8.76349H55.8511V18.9411H58.6984V8.76349H61.4654V6.21412H58.6984V4.22241C58.6984 2.94772 59.2198 2.50954 60.4028 2.50954C60.8435 2.50954 61.2446 2.62905 61.7861 2.8083L62.4275 0.418257C61.9065 0.119502 60.8636 0 60.182 0C57.4552 0 55.8511 1.6332 55.8511 4.46143V6.21412Z" fill="#262627"/>
</g>
<defs>
<clipPath id="clip0_323_40240">
<rect width="106.909" height="24" fill="white" transform="translate(0.0908203)"/>
</clipPath>
</defs>
</svg>
