<svg width="68" height="24" viewBox="0 0 68 24" fill="none" xmlns="http://www.w3.org/2000/svg">
<g clip-path="url(#clip0_323_40225)">
<path d="M0.26001 14.6528C0.26001 20.4171 4.09824 24 8.95478 24C10.6616 24 12.3684 23.5714 13.6134 22.6028V18.0986C12.4852 19.1457 11.0238 19.7213 9.51135 19.7143C6.98826 19.7143 4.97638 17.8371 4.97638 14.6657C4.97638 11.4943 6.98001 9.65141 9.51135 9.65141C11.0317 9.6212 12.506 10.1944 13.634 11.2543V6.74141C12.3972 5.75141 10.6822 5.37427 8.9754 5.37427C4.09824 5.37427 0.26001 8.95712 0.26001 14.6528Z" fill="#101010"/>
<path d="M23.5079 5.37427C18.5607 5.37427 15.1058 9.19712 15.1058 14.6528C15.1058 20.1086 18.5524 24 23.5079 24C28.4634 24 31.9388 20.1428 31.9388 14.6528C31.9388 9.16284 28.4964 5.37427 23.5079 5.37427ZM23.5079 19.8043C21.1456 19.8043 19.8304 17.6614 19.8304 14.6614C19.8304 11.6614 21.1456 9.54427 23.5079 9.54427C25.8702 9.54427 27.1812 11.6871 27.1812 14.6614C27.1812 17.6357 25.9032 19.8043 23.5079 19.8043Z" fill="#101010"/>
<path d="M45.4736 7.25143C44.9109 6.65061 44.2368 6.17451 43.4918 5.85189C42.7473 5.52926 41.9475 5.36679 41.1407 5.37429C36.1522 5.37429 33.3323 9.57 33.3323 14.6529C33.3323 19.7957 36.1522 24 41.1407 24C41.9462 23.9997 42.744 23.8338 43.4877 23.5116C44.2315 23.1894 44.9063 22.7175 45.4736 22.1229V23.5929H50.2312V0H45.4736V7.25143ZM45.4736 17.6229C45.1652 18.2411 44.699 18.759 44.1255 19.1196C43.5524 19.4803 42.8949 19.6697 42.2249 19.6671C39.6318 19.6671 38.1022 17.5243 38.1022 14.6529C38.1022 11.7814 39.6441 9.67286 42.2249 9.67286C42.8986 9.6744 43.5586 9.86983 44.1321 10.2375C44.7056 10.6051 45.1698 11.1306 45.4736 11.7557V17.6229Z" fill="#101010"/>
<path d="M59.7506 5.37427C57.4542 5.37427 55.2568 6.0257 54.0076 6.84427V11.13C55.4007 10.1758 57.0312 9.66495 58.6993 9.65998C61.1275 9.65998 62.5416 10.7528 62.5416 12.4928V13.4828C61.849 12.9686 60.1752 12.4243 58.6993 12.4243C54.927 12.4243 52.0741 14.7428 52.0741 18.1543C52.0741 21.84 54.927 23.9186 58.4066 23.9186C60.2741 23.9186 61.9809 23.2371 62.5293 22.6586V23.6143H67.1219V12.1971C67.1343 7.86427 64.4422 5.37427 59.7506 5.37427ZM62.5416 18.7457C62.1294 19.7014 60.8678 20.2843 59.5197 20.2843C58.0108 20.2843 56.4689 19.6328 56.4689 18.0986C56.4689 16.5643 58.0108 15.9171 59.5197 15.9171C60.8678 15.9171 62.1129 16.4957 62.5416 17.4514V18.7457Z" fill="#101010"/>
</g>
<defs>
<clipPath id="clip0_323_40225">
<rect width="67.2" height="24" fill="white" transform="translate(0.26001)"/>
</clipPath>
</defs>
</svg>
