<svg width="118" height="24" viewBox="0 0 118 24" fill="none" xmlns="http://www.w3.org/2000/svg">
<g clip-path="url(#clip0_323_40235)">
<path d="M44.2409 6.46154L41.6655 16.3569L39.0901 6.46154H36.4962L37.0962 8.58462L34.8347 16.6892L32.3609 6.46154H29.8685L33.3762 19.3846H36.1085L38.2132 12.4708L40.1793 19.3846H42.9024L46.5947 6.46154H44.2409ZM70.447 10.2092C69.8837 10.0789 69.3082 10.0077 68.7301 9.99692C65.5916 9.99692 63.8747 12.0923 63.8747 15.1662C63.8747 18.2215 65.5916 19.6154 67.6132 19.6154C68.6879 19.5803 69.7231 19.2018 70.567 18.5354V19.3846H72.7178V6.46154H70.447V10.2092ZM70.447 16.7446C69.7085 17.4185 69.0162 17.7877 68.287 17.7877C67.0316 17.7877 66.2285 16.9569 66.2285 15.0092C66.2285 12.9046 67.2255 11.8062 68.9609 11.8062C69.4685 11.8062 69.9762 11.9077 70.4378 12.0923V16.7446H70.447ZM59.5916 11.7231H59.5085V10.2092H57.3855V19.3846H59.6655V13.92C60.3762 12.5723 61.2439 12.1292 62.6932 12.1292H62.9239V10.1538C62.7185 10.1311 62.5121 10.1189 62.3055 10.1169C61.0685 10.1169 60.2193 10.5969 59.5916 11.7323V11.7231ZM50.9332 9.97846C47.7947 9.97846 46.3178 12.0092 46.3178 14.8062C46.3178 17.5938 47.7947 19.6062 50.9332 19.6062C54.0716 19.6062 55.567 17.5938 55.567 14.8062C55.567 12.0092 54.0532 9.97846 50.9239 9.97846H50.9332ZM50.9332 17.7692C49.4562 17.7692 48.6624 16.8092 48.6624 14.8062C48.6624 12.7938 49.4562 11.8338 50.9424 11.8338C52.4193 11.8338 53.1947 12.7938 53.1947 14.8062C53.1947 16.8092 52.4101 17.7692 50.9239 17.7692H50.9332ZM88.1424 11.7138H88.0686V10.2092H85.9362V19.3846H88.207V13.92C88.9178 12.5723 89.7855 12.1292 91.2347 12.1292H91.4655V10.1538C91.2601 10.1311 91.0537 10.1189 90.847 10.1169C89.6193 10.1169 88.7701 10.5969 88.1332 11.7323H88.1424V11.7138ZM79.7609 6.46154H75.5332V19.3846H77.9701V14.8892H79.7516C82.5116 14.8892 84.5147 13.4031 84.5147 10.6246C84.5147 7.85538 82.5116 6.46154 79.7516 6.46154H79.7609ZM79.7793 12.9969H77.9701V8.37231H79.7701C81.247 8.37231 81.967 9.18462 81.967 10.6246C81.967 12.0738 81.2932 12.9969 79.7701 12.9969H79.7793ZM113.029 12.7846C113.029 12.0923 113.785 11.8246 114.598 11.8246C115.456 11.8338 116.315 11.9723 117.136 12.2215V10.3385C116.251 10.0883 115.333 9.97015 114.413 9.98769C112.216 9.98769 110.675 11.0308 110.675 12.7292C110.675 16.0246 115.216 15.1754 115.216 16.7815C115.216 17.5662 114.505 17.7785 113.462 17.7785C112.724 17.7785 111.552 17.5015 110.702 17.1969V19.0708C111.554 19.4114 112.462 19.5959 113.379 19.6154C115.521 19.6154 117.561 18.9785 117.561 16.6892C117.589 13.5046 113.038 14.3262 113.038 12.7846H113.029ZM96.8747 9.98769C93.9393 9.98769 92.4162 12.2677 92.4162 14.7508C92.4162 18.1662 94.207 19.6154 97.1239 19.6154C98.2676 19.6178 99.4049 19.4403 100.493 19.0892V17.1969C99.5424 17.5477 98.6747 17.76 97.7516 17.76C96.0532 17.76 94.9178 17.2985 94.8624 15.2954H100.733C100.789 14.8431 100.816 14.3908 100.807 13.9477C100.807 12.0092 99.7824 9.98769 96.8655 9.98769H96.8747ZM94.8809 13.7908C95.0193 12.5169 95.7116 11.7046 96.847 11.7046C98.0655 11.7046 98.4347 12.6738 98.4347 13.7908H94.8809ZM104.758 12.7846C104.758 12.0923 105.505 11.8246 106.318 11.8246C107.176 11.8338 108.035 11.9723 108.856 12.2215V10.3385C107.974 10.0892 107.059 9.97108 106.142 9.98769C103.945 9.98769 102.395 11.0308 102.395 12.7292C102.395 16.0246 106.945 15.1754 106.945 16.7815C106.945 17.5662 106.225 17.7785 105.192 17.7785C104.453 17.7785 103.281 17.5015 102.422 17.1969V19.0708C103.274 19.4116 104.182 19.5961 105.099 19.6154C107.241 19.6154 109.29 18.9785 109.29 16.6892C109.309 13.5046 104.758 14.3262 104.758 12.7846ZM1.91777 12C1.91777 16.1262 4.31777 19.68 7.78854 21.3692L2.82239 7.76308C2.22606 9.09599 1.9178 10.5398 1.91777 12ZM12.3301 22.4123C13.5393 22.4123 14.7024 22.2 15.7916 21.8215L15.7178 21.6831L12.5147 12.9138L9.39469 21.9877C10.3178 22.2646 11.3055 22.4123 12.3301 22.4123ZM13.7608 7.11692L17.527 18.3138L18.5701 14.8431C19.0132 13.4031 19.3547 12.3692 19.3547 11.4738C19.3547 10.1815 18.8932 9.29538 18.5055 8.61231C17.9701 7.74462 17.4809 7.01538 17.4809 6.16615C17.4809 5.20615 18.2008 4.32 19.2347 4.32H19.3639C17.4453 2.55869 14.9345 1.58335 12.3301 1.58769C10.6056 1.58737 8.90809 2.01575 7.39024 2.83428C5.87241 3.65282 4.58185 4.83584 3.63469 6.27692L4.29931 6.29538C5.38854 6.29538 7.06854 6.15692 7.06854 6.15692C7.64085 6.12923 7.70546 6.95077 7.14239 7.01538C7.14239 7.01538 6.57931 7.08923 5.94239 7.11692L9.74546 18.3969L12.0255 11.5662L10.4008 7.11692C10.037 7.09685 9.67374 7.06606 9.31162 7.02462C8.74854 6.98769 8.81316 6.12923 9.37623 6.15692C9.37623 6.15692 11.0932 6.29538 12.1178 6.29538C13.207 6.29538 14.887 6.15692 14.887 6.15692C15.4501 6.12923 15.5239 6.95077 14.9608 7.01538C14.9608 7.01538 14.3978 7.08 13.7608 7.11692ZM17.5639 21C19.1391 20.0841 20.4463 18.7709 21.3551 17.1916C22.2638 15.6123 22.7422 13.8221 22.7424 12C22.7424 10.1908 22.2808 8.49231 21.4685 7.00615C21.6335 8.64118 21.3859 10.2915 20.7485 11.8062L17.5639 21ZM12.3301 24C9.14749 24 6.09523 22.7358 3.8448 20.4853C1.59436 18.2348 0.330078 15.1826 0.330078 12C0.330078 8.81741 1.59436 5.76515 3.8448 3.51472C6.09523 1.26428 9.14749 0 12.3301 0C15.5127 0 18.5649 1.26428 20.8154 3.51472C23.0658 5.76515 24.3301 8.81741 24.3301 12C24.3301 15.1826 23.0658 18.2348 20.8154 20.4853C18.5649 22.7358 15.5127 24 12.3301 24Z" fill="#163B54"/>
</g>
<defs>
<clipPath id="clip0_323_40235">
<rect width="117.231" height="24" fill="white" transform="translate(0.330078)"/>
</clipPath>
</defs>
</svg>
