<svg width="104" height="24" viewBox="0 0 104 24" fill="none" xmlns="http://www.w3.org/2000/svg">
<g clip-path="url(#clip0_323_40219)">
<path fill-rule="evenodd" clip-rule="evenodd" d="M80.7893 16.5502C83.4615 16.5502 85.6349 14.4199 85.6349 11.8015C85.6349 9.18298 83.4615 7.05274 80.7893 7.05274C78.1176 7.05274 75.9437 9.18298 75.9437 11.8015C75.9437 14.4199 78.1176 16.5502 80.7893 16.5502ZM85.6349 0H85.7664H87.9308V18.816H85.6349V16.9373C84.3101 18.1407 82.6018 18.7999 80.7893 18.7999C76.8519 18.7999 73.6484 15.6604 73.6484 11.8015C73.6484 7.94237 76.8519 4.80298 80.7893 4.80298C82.6018 4.80298 84.3101 5.46211 85.6349 6.66562V0ZM33.1813 16.4673C35.8532 16.4673 38.0269 14.3371 38.0269 11.7186C38.0269 9.10017 35.8532 6.96994 33.1813 6.96994C30.5094 6.96994 28.3356 9.10017 28.3356 11.7186C28.3356 14.3371 30.5094 16.4673 33.1813 16.4673ZM28.3356 6.58296C29.6605 5.37946 31.3692 4.72022 33.1813 4.72022C37.1189 4.72022 40.3225 7.85971 40.3225 11.7186C40.3225 15.5775 37.1189 18.717 33.1813 18.717C31.3692 18.717 29.6605 18.0579 28.3356 16.8543V23.52H26.04V4.704H28.3356V6.58296ZM44.7026 10.6259C45.2193 8.49931 47.1443 6.97234 49.3402 6.97234C51.5074 6.97234 53.3228 8.46672 53.8066 10.6259H44.7026ZM49.3402 4.704C45.4616 4.704 42.3062 7.86946 42.3062 11.76C42.3062 15.6507 45.4616 18.816 49.3402 18.816C51.5122 18.816 53.5056 18.0003 54.8103 16.578L55.488 15.8387L55.5754 15.7434L55.4804 15.6554L54.0068 14.2957L53.9117 14.2078L53.8239 14.3032L53.1461 15.0426C52.2816 15.9851 50.8589 16.5478 49.3402 16.5478C47.1443 16.5478 45.2194 15.0208 44.7026 12.8941H56.1917V11.76C56.1917 7.80336 53.1821 4.704 49.3402 4.704ZM101.504 11.76C101.504 14.4 99.3308 16.5478 96.6586 16.5478C93.9869 16.5478 91.813 14.4 91.813 11.76C91.813 9.12 93.9869 6.97224 96.6586 6.97224C99.3308 6.97224 101.504 9.12 101.504 11.76ZM96.6586 4.704C92.7212 4.704 89.5176 7.86931 89.5176 11.76C89.5176 15.6507 92.7212 18.816 96.6586 18.816C100.597 18.816 103.8 15.6507 103.8 11.76C103.8 7.86931 100.597 4.704 96.6586 4.704ZM64.7213 4.704C63.1263 4.704 61.6066 5.31144 60.4104 6.42086V4.704H58.1756V18.816H60.4104V11.6144C60.4104 9.04507 62.3444 6.95462 64.7213 6.95462C67.0988 6.95462 69.0332 9.04507 69.0332 11.6144V18.816H71.2676V11.6144C71.2676 7.80403 68.3309 4.704 64.7213 4.704Z" fill="#1A2022"/>
<path fill-rule="evenodd" clip-rule="evenodd" d="M0.120117 13.44H10.9201V24L21.7201 13.44V2.88H10.9201L0.120117 13.44Z" fill="#FF4876"/>
</g>
<defs>
<clipPath id="clip0_323_40219">
<rect width="103.68" height="24" fill="white" transform="translate(0.120117)"/>
</clipPath>
</defs>
</svg>
