<svg width="107" height="24" viewBox="0 0 107 24" fill="none" xmlns="http://www.w3.org/2000/svg">
<path fill-rule="evenodd" clip-rule="evenodd" d="M36.495 15.8683L36.4747 15.5971H36.2028H34.515H34.2097L34.2222 15.9022C34.3615 19.3005 36.6526 21.5514 40.7271 21.5514C44.6132 21.5514 47.2556 19.5323 47.2556 16.4762C47.2556 14.8237 46.6823 13.6543 45.5898 12.8556C44.7495 12.2413 43.7447 11.895 42.0785 11.5337C41.9671 11.5096 41.8511 11.4849 41.712 11.4556C41.6295 11.4382 41.3332 11.3762 41.3489 11.3795C38.323 10.7451 37.3632 10.1941 37.3632 8.55289C37.3632 6.85578 38.751 5.77503 41.0787 5.77503C43.3433 5.77503 44.7746 7.15817 44.8412 9.33543L44.8499 9.61949H45.1341H46.7985H47.0984L47.0914 9.3197C47.0131 5.92587 44.736 3.64183 41.0553 3.64183C37.4478 3.64183 35.0659 5.81252 35.0659 8.62321C35.0659 10.2711 35.6386 11.4186 36.7328 12.1853C37.5663 12.7694 38.532 13.0791 40.2354 13.423C40.3152 13.4391 40.3984 13.4557 40.4975 13.4754C40.5588 13.4875 40.6281 13.5012 40.7581 13.5269C42.3699 13.8458 43.081 14.0427 43.7298 14.4199C44.5352 14.8882 44.9349 15.5572 44.9349 16.5934C44.9349 18.3925 43.4222 19.4182 40.774 19.4182C38.2387 19.4182 36.6654 18.1467 36.495 15.8683ZM52.0026 3.34881V3.05579H51.7095H50.0452H49.7522V3.34881V20.9302V21.2232H50.0452H51.7095H52.0026V20.9302V17.7954L54.3714 15.4883L58.6018 21.1064L58.6897 21.2232H58.8358H60.8987H61.4891L61.1321 20.753L55.9658 13.948L60.7304 9.20597L61.2335 8.70526H60.5237H58.2967H58.1747L58.0888 8.79182L52.0026 14.9213V3.34881ZM73.0299 15.7378H73.3051L73.3223 15.463C73.3253 15.4147 73.3298 15.3349 73.3343 15.2386C73.3378 15.1624 73.3407 15.0882 73.3428 15.018C73.3451 14.942 73.3463 14.8728 73.3463 14.8118C73.3463 11.1339 70.9102 8.42396 67.3101 8.42396C63.7166 8.42396 61.1566 11.3086 61.1566 14.9525C61.1566 18.7021 63.6006 21.5045 67.3335 21.5045C70.1561 21.5045 72.3366 19.8298 73.1223 17.2895L73.2397 16.9099H72.8423H71.1076H70.9007L70.8315 17.1049C70.3381 18.4953 69.0024 19.4182 67.3569 19.4182C65.2058 19.4182 63.7062 17.9408 63.436 15.7378H73.0299ZM63.5042 13.7921C63.8841 11.8196 65.3348 10.5103 67.3101 10.5103C69.3459 10.5103 70.7509 11.7766 71.0582 13.7921H63.5042ZM80.7305 10.6978H81.0235V10.4048V8.99828V8.70526H80.7305H78.2808V5.59922V5.3062H77.9878H76.3234H76.0304V5.59922V8.70526H74.0496H73.7565V8.99828V10.4048V10.6978H74.0496H76.0304V17.7186C76.0304 20.0218 77.225 21.2701 79.4177 21.2701C79.8005 21.2701 80.1304 21.2471 80.4074 21.2087C80.5786 21.1849 80.6968 21.1603 80.762 21.1422L80.9766 21.0825V20.8598V19.3596V18.996L80.6214 19.0732C80.6072 19.0763 80.5784 19.0822 80.5373 19.0899C80.4677 19.1029 80.3901 19.116 80.3069 19.1283C80.0939 19.1596 79.8825 19.1797 79.688 19.1832C79.6679 19.1836 79.6482 19.1837 79.6287 19.1837C78.6682 19.1837 78.2808 18.7326 78.2808 17.6014V10.6978H80.7305ZM87.7279 21.5045C90.8428 21.5045 93.0421 19.5334 93.5944 16.7441L93.6637 16.3942H93.307H91.6192H91.3939L91.336 16.6119C90.8628 18.3919 89.5786 19.4182 87.7279 19.4182C85.4182 19.4182 83.8248 17.5962 83.8248 14.9759C83.8248 12.3354 85.4154 10.5103 87.7279 10.5103C89.5786 10.5103 90.8628 11.5365 91.336 13.3165L91.3939 13.5343H91.6192H93.307H93.6637L93.5944 13.1843C93.0421 10.3951 90.8428 8.42396 87.7279 8.42396C84.1095 8.42396 81.5509 11.329 81.5509 14.9759C81.5509 18.6028 84.113 21.5045 87.7279 21.5045ZM97.8078 3.34881V3.05579H97.5148H95.8504H95.5574V3.34881V20.9302V21.2232H95.8504H97.5148H97.8078V20.9302V13.8742C97.8078 11.7244 99.1164 10.4634 101.101 10.4634C102.997 10.4634 103.95 11.5609 103.95 13.6398V20.9302V21.2232H104.243H105.907H106.2V20.9302V13.3116C106.2 10.3751 104.382 8.42396 101.383 8.42396C99.8398 8.42396 98.5996 8.98922 97.8078 9.80053V3.34881Z" fill="black"/>
<path fill-rule="evenodd" clip-rule="evenodd" d="M6.55488 0.790176L14.0897 0L21.6246 0.790176L27.458 8.55801L14.0897 23.9999L0.721436 8.55801L6.55488 0.790176Z" fill="#FDB300"/>
<path fill-rule="evenodd" clip-rule="evenodd" d="M6.13621 8.55798L14.0897 24L0.721436 8.55798H6.13621Z" fill="#EA6C00"/>
<path fill-rule="evenodd" clip-rule="evenodd" d="M22.0434 8.55798L14.0899 24L27.4581 8.55798H22.0434Z" fill="#EA6C00"/>
<path fill-rule="evenodd" clip-rule="evenodd" d="M6.13623 8.55798H22.0432L14.0897 24L6.13623 8.55798Z" fill="#FDAD00"/>
<path fill-rule="evenodd" clip-rule="evenodd" d="M14.0897 0L6.55483 0.790044L6.13623 8.55793L14.0897 0Z" fill="#FDD231"/>
<path fill-rule="evenodd" clip-rule="evenodd" d="M14.0897 0L21.6246 0.790044L22.0432 8.55793L14.0897 0Z" fill="#FDD231"/>
<path fill-rule="evenodd" clip-rule="evenodd" d="M27.4581 8.55792L21.6248 0.790039L22.0434 8.55792H27.4581Z" fill="#FDAD00"/>
<path fill-rule="evenodd" clip-rule="evenodd" d="M0.721436 8.55792L6.55481 0.790039L6.13621 8.55792H0.721436Z" fill="#FDAD00"/>
<path fill-rule="evenodd" clip-rule="evenodd" d="M14.0897 0L6.13623 8.55793H22.0432L14.0897 0Z" fill="#FEEEB7"/>
</svg>
