<svg width="52" height="52" viewBox="0 0 52 52" fill="none" xmlns="http://www.w3.org/2000/svg">
<path fill-rule="evenodd" clip-rule="evenodd" d="M9.25 2.36312C9.25 1.99292 9.39706 1.63789 9.65883 1.37612C9.9206 1.11435 10.2756 0.967285 10.6458 0.967285H41.3542C41.7244 0.967285 42.0794 1.11435 42.3412 1.37612C42.6029 1.63789 42.75 1.99292 42.75 2.36312V3.75895H49.7292C50.0994 3.75895 50.4544 3.90601 50.7162 4.16778C50.9779 4.42955 51.125 4.78459 51.125 5.15479V13.5298C51.125 15.3808 50.3897 17.156 49.0809 18.4648C47.772 19.7736 45.9968 20.509 44.1458 20.509H41.7966C40.7989 23.3245 39.0675 25.8226 36.7812 27.7449C34.4949 29.6673 31.7367 30.9443 28.7917 31.4439V40.0506H37.1667C37.5369 40.0506 37.8919 40.1977 38.1537 40.4594C38.4154 40.7212 38.5625 41.0763 38.5625 41.4465V49.8215C38.5625 50.1917 38.4154 50.5467 38.1537 50.8085C37.8919 51.0702 37.5369 51.2173 37.1667 51.2173H14.8333C14.4631 51.2173 14.1081 51.0702 13.8463 50.8085C13.5846 50.5467 13.4375 50.1917 13.4375 49.8215V41.4465C13.4375 41.0763 13.5846 40.7212 13.8463 40.4594C14.1081 40.1977 14.4631 40.0506 14.8333 40.0506H23.2083V31.4439C20.2633 30.9443 17.5051 29.6673 15.2188 27.7449C12.9325 25.8226 11.2011 23.3245 10.2034 20.509H7.85417C6.00318 20.509 4.228 19.7736 2.91915 18.4648C1.6103 17.156 0.875 15.3808 0.875 13.5298V5.15479C0.875 4.78459 1.02206 4.42955 1.28383 4.16778C1.5456 3.90601 1.90064 3.75895 2.27083 3.75895H9.25V2.36312ZM42.75 14.9256V6.55062H48.3333V13.5298C48.3333 14.6404 47.8922 15.7055 47.1068 16.4908C46.3215 17.2761 45.2564 17.7173 44.1458 17.7173H42.75V14.9256ZM9.25 6.55062H3.66667V13.5298C3.66667 14.6404 4.10785 15.7055 4.89316 16.4908C5.67847 17.2761 6.74357 17.7173 7.85417 17.7173H9.25V6.55062Z" fill="white"/>
</svg>
