<svg width="51" height="47" viewBox="0 0 51 47" fill="none" xmlns="http://www.w3.org/2000/svg">
<path d="M6.65197 0.189453C5.05132 0.189453 3.51622 0.82531 2.38439 1.95714C1.25256 3.08898 0.616699 4.62407 0.616699 6.22473V30.3658C0.616699 31.9665 1.25256 33.5016 2.38439 34.6334C3.51622 35.7652 5.05132 36.4011 6.65197 36.4011H29.2842V34.3763C29.026 34.0565 28.7823 33.7252 28.554 33.3834H6.65197C5.85164 33.3834 5.0841 33.0655 4.51818 32.4996C3.95226 31.9337 3.63434 31.1661 3.63434 30.3658V6.22473C3.63434 5.4244 3.95226 4.65685 4.51818 4.09093C5.0841 3.52502 5.85164 3.20709 6.65197 3.20709H42.8636C43.6639 3.20709 44.4315 3.52502 44.9974 4.09093C45.5633 4.65685 45.8812 5.4244 45.8812 6.22473V13.6723C46.9797 14.2154 47.9936 14.9095 48.8989 15.7182V6.22473C48.8989 4.62407 48.263 3.08898 47.1312 1.95714C45.9993 0.82531 44.4643 0.189453 42.8636 0.189453H6.65197ZM50.4077 25.8394C50.4077 28.6405 49.2949 31.3269 47.3142 33.3076C45.3335 35.2883 42.6471 36.4011 39.846 36.4011C37.0448 36.4011 34.3584 35.2883 32.3777 33.3076C30.397 31.3269 29.2842 28.6405 29.2842 25.8394C29.2842 23.0382 30.397 20.3518 32.3777 18.3711C34.3584 16.3904 37.0448 15.2776 39.846 15.2776C42.6471 15.2776 45.3335 16.3904 47.3142 18.3711C49.2949 20.3518 50.4077 23.0382 50.4077 25.8394ZM39.846 39.4187C42.6373 39.4187 45.2324 38.5738 47.3901 37.1314V45.454C47.3901 45.7342 47.312 46.0089 47.1647 46.2472C47.0174 46.4856 46.8066 46.6782 46.556 46.8035C46.3054 46.9288 46.0248 46.9819 45.7457 46.9567C45.4667 46.9316 45.2001 46.8292 44.9759 46.661L40.7513 43.4925C40.4901 43.2967 40.1724 43.1908 39.846 43.1908C39.5195 43.1908 39.2018 43.2967 38.9407 43.4925L34.716 46.661C34.4918 46.8292 34.2253 46.9316 33.9462 46.9567C33.6671 46.9819 33.3866 46.9288 33.1359 46.8035C32.8853 46.6782 32.6745 46.4856 32.5272 46.2472C32.3799 46.0089 32.3019 45.7342 32.3019 45.454V37.1314C34.5333 38.6267 37.1598 39.423 39.846 39.4187ZM9.66961 10.7512C9.66961 10.351 9.82857 9.96724 10.1115 9.68428C10.3945 9.40133 10.7783 9.24236 11.1784 9.24236H38.3371C38.7373 9.24236 39.1211 9.40133 39.404 9.68428C39.687 9.96724 39.846 10.351 39.846 10.7512C39.846 11.1513 39.687 11.5351 39.404 11.8181C39.1211 12.101 38.7373 12.26 38.3371 12.26H11.1784C10.7783 12.26 10.3945 12.101 10.1115 11.8181C9.82857 11.5351 9.66961 11.1513 9.66961 10.7512ZM11.1784 24.3305C10.7783 24.3305 10.3945 24.4895 10.1115 24.7725C9.82857 25.0554 9.66961 25.4392 9.66961 25.8394C9.66961 26.2395 9.82857 26.6233 10.1115 26.9063C10.3945 27.1892 10.7783 27.3482 11.1784 27.3482H23.249C23.6491 27.3482 24.0329 27.1892 24.3159 26.9063C24.5988 26.6233 24.7578 26.2395 24.7578 25.8394C24.7578 25.4392 24.5988 25.0554 24.3159 24.7725C24.0329 24.4895 23.6491 24.3305 23.249 24.3305H11.1784Z" fill="white"/>
</svg>
