<svg width="61" height="64" viewBox="0 0 61 64" fill="none" xmlns="http://www.w3.org/2000/svg">
<path fill-rule="evenodd" clip-rule="evenodd" d="M17.5549 17.499C15.4874 19.6443 13.907 22.2539 12.9318 25.1329C11.9565 28.0118 11.6116 31.0857 11.9228 34.1247C11.9518 34.5329 11.8287 34.937 11.5796 35.2513C11.3306 35.5656 10.9751 35.7654 10.5886 35.8084C10.202 35.8514 9.81477 35.7342 9.50885 35.4817C9.20294 35.2291 9.00241 34.8611 8.94975 34.4555C8.59077 30.9454 8.9894 27.3953 10.1159 24.0702C11.2424 20.7452 13.0676 17.7311 15.4552 15.2531C24.2398 6.12752 38.4113 6.27557 47.1061 15.5618C55.801 24.8448 55.7442 39.7695 46.9566 48.8951C42.8891 53.1272 37.4284 55.544 31.7114 55.6424C29.5499 55.6829 27.3942 55.3954 25.3106 54.7887C24.9283 54.6776 24.6035 54.4111 24.4077 54.0478C24.2119 53.6845 24.1612 53.2542 24.2667 52.8515C24.3722 52.4488 24.6253 52.1068 24.9703 51.9006C25.3153 51.6944 25.7239 51.641 26.1062 51.7521C27.9133 52.2785 29.7829 52.5278 31.6575 52.4924C36.6074 52.4091 41.3358 50.3171 44.8569 46.6523C52.4571 38.7584 52.5199 25.8308 44.9765 17.7731C37.4332 9.71537 25.1551 9.60197 17.5549 17.4959V17.499Z" fill="white"/>
<path fill-rule="evenodd" clip-rule="evenodd" d="M11.5431 36.1249C11.4123 36.2792 11.2539 36.4049 11.077 36.4947C10.9001 36.5845 10.7081 36.6368 10.512 36.6485C10.3159 36.6602 10.1196 36.6311 9.93416 36.5629C9.74875 36.4947 9.57791 36.3887 9.43141 36.2509L4.28686 31.4314C4.12871 31.2977 3.99804 31.1315 3.90278 30.943C3.80752 30.7544 3.74968 30.5474 3.73275 30.3346C3.71583 30.1218 3.74019 29.9075 3.80435 29.7049C3.8685 29.5023 3.97112 29.3156 4.10595 29.156C4.24078 28.9965 4.40502 28.8675 4.58867 28.7769C4.77232 28.6863 4.97155 28.636 5.17424 28.629C5.37693 28.622 5.57885 28.6586 5.76772 28.7363C5.95659 28.8141 6.12846 28.9316 6.27289 29.0815L11.4174 33.901C11.5644 34.0383 11.6842 34.2048 11.77 34.3909C11.8559 34.5769 11.906 34.779 11.9177 34.9855C11.9294 35.1921 11.9023 35.399 11.838 35.5945C11.7737 35.79 11.6735 35.9702 11.5431 36.1249Z" fill="white"/>
<path fill-rule="evenodd" clip-rule="evenodd" d="M9.22806 35.9266C9.3459 36.0921 9.49353 36.2315 9.66252 36.3369C9.83151 36.4423 10.0186 36.5116 10.213 36.5408C10.4074 36.5701 10.6054 36.5587 10.7956 36.5074C10.9859 36.456 11.1647 36.3657 11.3218 36.2416L17.3038 31.5166C17.6211 31.266 17.8309 30.8929 17.887 30.4794C17.9431 30.0659 17.8409 29.6458 17.6029 29.3116C17.3649 28.9775 17.0106 28.7565 16.618 28.6975C16.2253 28.6384 15.8265 28.746 15.5092 28.9966L9.52716 33.7216C9.20986 33.9723 9.00008 34.3454 8.94399 34.7589C8.8879 35.1724 8.99008 35.5925 9.22806 35.9266ZM30.7036 20.8066C31.1002 20.8066 31.4806 20.9726 31.761 21.2679C32.0415 21.5633 32.1991 21.9639 32.1991 22.3816V33.4066C32.1991 33.8244 32.0415 34.225 31.761 34.5203C31.4806 34.8157 31.1002 34.9816 30.7036 34.9816C30.3069 34.9816 29.9265 34.8157 29.6461 34.5203C29.3656 34.225 29.208 33.8244 29.208 33.4066V22.3816C29.208 21.9639 29.3656 21.5633 29.6461 21.2679C29.9265 20.9726 30.3069 20.8066 30.7036 20.8066Z" fill="white"/>
<path fill-rule="evenodd" clip-rule="evenodd" d="M41.1721 33.4065C41.1721 33.8243 41.0145 34.2249 40.734 34.5202C40.4536 34.8156 40.0732 34.9815 39.6766 34.9815H30.7035C30.3069 34.9815 29.9265 34.8156 29.646 34.5202C29.3656 34.2249 29.208 33.8243 29.208 33.4065C29.208 32.9888 29.3656 32.5882 29.646 32.2928C29.9265 31.9975 30.3069 31.8315 30.7035 31.8315H39.6766C40.0732 31.8315 40.4536 31.9975 40.734 32.2928C41.0145 32.5882 41.1721 32.9888 41.1721 33.4065Z" fill="white"/>
</svg>
