<svg width="86" height="81" viewBox="0 0 86 81" fill="none" xmlns="http://www.w3.org/2000/svg">
<g opacity="0.8">
<g style="mix-blend-mode:luminosity">
<path d="M46.3977 55.3856L46.7207 55.5824C46.7207 55.5824 48.883 54.3344 49.3837 52.938L48.2759 52.8391L46.9467 54.6471" fill="#1A80FD"/>
<path d="M46.3977 55.3856L46.7207 55.5824C46.7207 55.5824 48.883 54.3344 49.3837 52.938L48.2759 52.8391L46.9467 54.6471" stroke="black" stroke-width="0.5" stroke-linecap="round" stroke-linejoin="round"/>
<path d="M26.2087 53.3783L25.5064 53.7257L25.0865 54.4117L46.7207 55.5824L47.1433 55.061L46.9535 53.8296L26.2087 53.3783Z" fill="#E43334" stroke="black" stroke-width="0.5" stroke-linecap="round" stroke-linejoin="round"/>
<path d="M12.4252 20.5813L11.4805 19.9148L10.9716 20.5427L25.0865 54.4119L25.5064 53.7259L26.5728 52.4102" fill="#E43334"/>
<path d="M12.4252 20.5813L11.4805 19.9148L10.9716 20.5427L25.0865 54.4119L25.5064 53.7259L26.5728 52.4102" stroke="black" stroke-width="0.5" stroke-linecap="round" stroke-linejoin="round"/>
<path d="M11.4805 19.9146C11.4805 19.9146 24.869 17.6861 33.4795 26.2996L47.1433 55.061L25.5064 53.7257L11.4805 19.9146Z" fill="#E43334"/>
<mask id="mask0_25_3598" style="mask-type:luminance" maskUnits="userSpaceOnUse" x="11" y="19" width="37" height="37">
<path fill-rule="evenodd" clip-rule="evenodd" d="M11.4805 19.9146C11.4805 19.9146 24.869 17.6861 33.4795 26.2996L47.1433 55.061L25.5064 53.7257L11.4805 19.9146Z" fill="white"/>
</mask>
<g mask="url(#mask0_25_3598)">
<path d="M15.6819 22.4244C14.142 20.7837 27.2484 52.3224 26.0362 52.628C24.8239 52.9336 32.9991 53.9915 32.0797 50.9273C31.1602 47.863 26.6422 40.7819 26.6422 40.7819" fill="#E43334"/>
<path d="M15.6819 22.4244C14.142 20.7837 27.2484 52.3224 26.0362 52.628C24.8239 52.9336 32.9991 53.9915 32.0797 50.9273C31.1602 47.863 26.6422 40.7819 26.6422 40.7819" stroke="black" stroke-width="0.5" stroke-linecap="round" stroke-linejoin="round"/>
</g>
<path fill-rule="evenodd" clip-rule="evenodd" d="M11.4805 19.9146C11.4805 19.9146 24.869 17.6861 33.4795 26.2996L47.1433 55.061L25.5064 53.7257L11.4805 19.9146Z" stroke="black" stroke-width="0.5" stroke-linecap="round" stroke-linejoin="round"/>
<path d="M43.7773 51.5192L47.1433 55.0611L49.3837 52.9381L45.0419 44.7373L43.7773 51.5192Z" fill="#1A80FD" stroke="black" stroke-width="0.5" stroke-linecap="round" stroke-linejoin="round"/>
<path d="M48.7187 53.1423L49.2797 53.2997C49.2797 53.2997 62.3807 51.2841 73.4006 61.6274L73.7591 61.3606L67.7605 55.2727L55.1097 48.438L49.1333 51.3232L48.7187 53.1423Z" fill="#E43334" stroke="black" stroke-width="0.5" stroke-linecap="round" stroke-linejoin="round"/>
<path d="M48.0309 51.7673L49.3837 52.9381C49.3837 52.9381 62.5048 50.6043 73.7591 61.3606L66.9291 47.6874L48.6287 40.3117L42.8489 41.6718L48.0309 51.7673Z" fill="#E43334" stroke="black" stroke-width="0.5" stroke-linecap="round" stroke-linejoin="round"/>
<path d="M19.4773 18.9642L16.7673 18.1551C16.7673 18.1551 15.5635 20.2511 14.1421 20.7835L26.879 52.2671L29.8972 48.2398L19.4773 18.9642Z" fill="white"/>
<mask id="mask1_25_3598" style="mask-type:luminance" maskUnits="userSpaceOnUse" x="14" y="18" width="16" height="35">
<path fill-rule="evenodd" clip-rule="evenodd" d="M19.4773 18.9642L16.7673 18.1551C16.7673 18.1551 15.5635 20.2511 14.1421 20.7835L26.879 52.2671L29.8972 48.2398L19.4773 18.9642Z" fill="white"/>
</mask>
<g mask="url(#mask1_25_3598)">
<path d="M14.9358 17.4517L20.2361 30.0579L14.4823 17.7364L14.9358 17.4517Z" fill="#D6DCF2"/>
</g>
<path fill-rule="evenodd" clip-rule="evenodd" d="M19.4773 18.9642L16.7673 18.1551C16.7673 18.1551 15.5635 20.2511 14.1421 20.7835L26.879 52.2671L29.8972 48.2398L19.4773 18.9642Z" stroke="black" stroke-width="0.5" stroke-linecap="round" stroke-linejoin="round"/>
<path d="M70.4932 54.2359L72.0727 59.1725C72.0727 59.1725 63.2952 50.323 49.2797 53.2996L46.8283 54.3977L46.3984 49.5065L48.3308 47.4582L57.4178 45.5595L63.0573 48.9835" fill="white"/>
<path d="M70.4932 54.2359L72.0727 59.1725C72.0727 59.1725 63.2952 50.323 49.2797 53.2996L46.8283 54.3977L46.3984 49.5065L48.3308 47.4582L57.4178 45.5595L63.0573 48.9835" stroke="black" stroke-width="0.5" stroke-linecap="round" stroke-linejoin="round"/>
<path d="M34.1634 44.9377L29.6971 48.3018L26.879 52.2674L46.8282 54.398L47.4959 52.1514L38.6291 44.2219L34.1634 44.9377Z" fill="white" stroke="black" stroke-width="0.5" stroke-linecap="round" stroke-linejoin="round"/>
<path d="M37.3066 26.2805C37.3066 26.2805 31.8489 14.3265 16.7673 18.1555L29.8972 48.2403C29.8972 48.2403 39.6681 45.9312 47.4959 52.1516L37.3066 26.2805Z" fill="white" stroke="black" stroke-width="0.5" stroke-linecap="round" stroke-linejoin="round"/>
<path d="M59.7652 26.0521C55.4557 27.2165 46.09 19.2295 37.3066 26.2803L47.4959 52.1514C47.4959 52.1514 64.501 48.7555 70.566 54.4637L59.7652 26.0521Z" fill="white"/>
<mask id="mask2_25_3598" style="mask-type:luminance" maskUnits="userSpaceOnUse" x="37" y="23" width="34" height="32">
<path fill-rule="evenodd" clip-rule="evenodd" d="M59.7652 26.0521C55.4557 27.2165 46.09 19.2295 37.3066 26.2803L47.4959 52.1514C47.4959 52.1514 64.501 48.7555 70.566 54.4637L59.7652 26.0521Z" fill="white"/>
</mask>
<g mask="url(#mask2_25_3598)">
<path d="M41.8646 23.2827C37.3065 26.2806 47.4474 43.9363 45.1083 46.0895C42.7691 48.2428 32.4864 25.374 32.4864 25.374L39.8448 16.2949" fill="#D6DCF2"/>
</g>
<path fill-rule="evenodd" clip-rule="evenodd" d="M59.7652 26.0521C55.4557 27.2165 46.09 19.2295 37.3066 26.2803L47.4959 52.1514C47.4959 52.1514 64.501 48.7555 70.566 54.4637V54.4637L59.7652 26.0521Z" stroke="black" stroke-width="0.5" stroke-linecap="round" stroke-linejoin="round"/>
<path d="M20.2105 13.9068C20.2105 13.9068 31.628 14.8444 37.3066 26.2801L47.4959 52.1512C47.4959 52.1512 40.2787 41.6658 31.6665 43.0091L20.2105 13.9068Z" fill="white"/>
<mask id="mask3_25_3598" style="mask-type:luminance" maskUnits="userSpaceOnUse" x="20" y="13" width="28" height="40">
<path fill-rule="evenodd" clip-rule="evenodd" d="M20.2105 13.9068C20.2105 13.9068 31.628 14.8444 37.3066 26.2801L47.4959 52.1512C47.4959 52.1512 40.2787 41.6658 31.6665 43.0091L20.2105 13.9068Z" fill="white"/>
</mask>
<g mask="url(#mask3_25_3598)">
<path d="M24.1657 17.2528L28.2793 27.5774C28.2793 27.5774 32.8668 27.8787 38.8363 32.6164L36.4196 26.0717C36.4196 26.0717 32.5404 19.3876 24.1657 17.2528Z" fill="#D6DCF2"/>
</g>
<path fill-rule="evenodd" clip-rule="evenodd" d="M20.2105 13.9068C20.2105 13.9068 31.628 14.8444 37.3066 26.2801L47.4959 52.1512C47.4959 52.1512 40.2787 41.6658 31.6665 43.0091L20.2105 13.9068Z" stroke="black" stroke-width="0.5" stroke-linecap="round" stroke-linejoin="round"/>
<path d="M28.5902 30.1208L28.8774 30.8053C28.8774 30.8053 35.2224 31.1215 38.8258 33.9818L38.6238 33.3126C38.6238 33.3126 33.8046 30.272 28.5902 30.1208Z" fill="#D6DCF2"/>
<path d="M29.5768 32.8508L29.864 33.5353C29.864 33.5353 36.209 33.8515 39.8124 36.7118L39.6104 36.0426C39.6104 36.0426 34.7912 33.002 29.5768 32.8508Z" fill="#D6DCF2"/>
<path d="M30.4665 35.4567L30.7537 36.1413C30.7537 36.1413 37.0987 36.4574 40.7022 39.3178L40.5001 38.6485C40.5001 38.6485 35.6809 35.608 30.4665 35.4567Z" fill="#D6DCF2"/>
</g>
</g>
</svg>
