<svg width="21" height="22" viewBox="0 0 21 22" fill="none" xmlns="http://www.w3.org/2000/svg">
<path d="M10.5237 0.5H10.4759C4.69185 0.5 0.00292969 5.19031 0.00292969 10.9761V11.0239C0.00292969 16.8097 4.69185 21.5 10.4759 21.5H10.5237C16.3078 21.5 20.9967 16.8097 20.9967 11.0239V10.9761C20.9967 5.19031 16.3078 0.5 10.5237 0.5Z" fill="#08131E"/>
<path d="M9.68735 11.3955C9.50494 11.1666 9.29605 10.9915 9.06216 10.8731C9.26884 10.7473 9.44683 10.5928 9.59394 10.4088C9.8418 10.0984 9.96758 9.70915 9.96758 9.25153C9.96758 8.86968 9.86681 8.51874 9.66749 8.209C9.4689 7.89925 9.17322 7.65058 8.78855 7.46959C8.41196 7.29227 7.95815 7.20251 7.44108 7.20251H4.49976V14.8004H7.57642C8.08024 14.8004 8.53038 14.7085 8.91358 14.5275C9.30414 14.3435 9.60865 14.086 9.81753 13.763C10.0272 13.4386 10.1338 13.07 10.1338 12.6675C10.1338 12.1959 9.98376 11.7685 9.68735 11.3962V11.3955ZM8.12511 10.0108C7.94344 10.1579 7.67792 10.233 7.33737 10.233H6.06493V8.54964H7.33737C7.67645 8.54964 7.9405 8.62689 8.12217 8.77992C8.29649 8.92634 8.38107 9.12866 8.38107 9.39647C8.38107 9.66427 8.29722 9.87175 8.12511 10.0108ZM6.06493 11.5809H7.43078C7.78824 11.5809 8.06333 11.6677 8.27148 11.8465C8.4708 12.0179 8.56789 12.2452 8.56789 12.5425C8.56789 12.8397 8.47816 13.0494 8.29281 13.2061C8.10084 13.3687 7.82502 13.4511 7.47197 13.4511H6.06493V11.5809Z" fill="white"/>
<path d="M16.143 10.1246C15.9062 9.69645 15.5708 9.35875 15.1457 9.12185C14.7213 8.88494 14.2307 8.76501 13.6894 8.76501C13.148 8.76501 12.6207 8.88862 12.186 9.13215C11.7506 9.37641 11.4078 9.72735 11.168 10.1769C10.9282 10.6257 10.8069 11.1525 10.8069 11.7425C10.8069 12.3326 10.9319 12.8601 11.1791 13.3082C11.4262 13.757 11.7719 14.1101 12.2073 14.3573C12.642 14.6045 13.1407 14.7296 13.6901 14.7296C14.3646 14.7296 14.9375 14.5582 15.3936 14.2205C15.8496 13.8828 16.1688 13.4428 16.3431 12.9138L16.3556 12.8763H15.0214L15.0133 12.8925C14.7566 13.4126 14.3116 13.676 13.6894 13.676C13.2562 13.676 12.8855 13.5384 12.5876 13.2684C12.297 13.0043 12.1301 12.6512 12.0911 12.2178H16.4542L16.4578 12.1935C16.4858 12.0192 16.4998 11.822 16.4998 11.6079C16.4998 11.0517 16.3799 10.5528 16.143 10.1246ZM12.6082 10.2012C12.8921 9.94734 13.2385 9.81932 13.6371 9.81932C14.0777 9.81932 14.4521 9.94954 14.75 10.207C15.0398 10.4572 15.1935 10.7934 15.2067 11.2054H12.1036C12.1624 10.7868 12.3323 10.4491 12.6089 10.2019L12.6082 10.2012Z" fill="white"/>
<path d="M15.106 7.37671H12.2V8.06536H15.106V7.37671Z" fill="white"/>
</svg>
