<svg width="43" height="39" viewBox="0 0 43 39" fill="none" xmlns="http://www.w3.org/2000/svg">
<path d="M33.1486 1.07347C32.4012 1.27503 31.8049 1.63616 31.217 2.21565C28.8234 4.60081 29.9404 8.61526 33.2326 9.4719C34.8871 9.90022 36.7096 9.23675 37.7594 7.81741C39.523 5.41546 38.3221 1.89651 35.4582 1.10706C34.8031 0.922295 33.7533 0.905498 33.1486 1.07347Z" fill="white"/>
<path d="M0.167969 4.89453C0 5.0625 0 5.17168 0 14.6367C0 24.1018 0 24.2109 0.167969 24.3789C0.335938 24.5469 0.445117 24.5469 13.1268 24.5469H25.926L26.1023 24.3537C26.2451 24.2025 26.2871 24.0514 26.2871 23.7238V23.2955L25.884 23.3459C25.0105 23.4467 23.8684 23.0352 23.1965 22.3801C22.6506 21.8342 18.8797 15.9133 18.6445 15.233C18.443 14.6115 18.4178 13.6541 18.6109 13.1082L18.7369 12.7219L18.0314 11.6805C17.3092 10.6223 17.1328 10.2611 17.1328 9.82441C17.1328 9.04336 17.7627 8.18672 18.5102 7.95156C19.0729 7.77519 19.5516 7.83398 20.1143 8.16152C20.4586 8.36308 20.677 8.59824 21.248 9.42129C21.8863 10.3283 21.9955 10.4375 22.2559 10.4795C23.8852 10.7314 24.4395 11.101 25.4557 12.5959C25.7916 13.0998 26.0772 13.5197 26.0855 13.5365C26.1023 13.5533 26.1695 13.5197 26.2451 13.4609C26.3543 13.3686 26.3711 12.8227 26.3711 9.24492V5.13808L26.1611 4.93652L25.9596 4.72656H13.1436C0.445117 4.72656 0.335938 4.72656 0.167969 4.89453ZM13.0428 8.34629C13.2947 8.48066 13.3535 8.58144 13.3535 8.90059C13.3535 9.06855 13.2863 9.24492 13.1855 9.3457C13.0176 9.51367 12.9084 9.51367 8.48242 9.51367H3.93887L3.7373 9.30371C3.61973 9.19453 3.52734 9.04336 3.52734 8.97617C3.52734 8.74941 3.71211 8.43867 3.89688 8.35469C4.15723 8.22031 12.7992 8.22031 13.0428 8.34629ZM16.5281 12.2516C16.8053 12.4447 16.7885 12.9738 16.4945 13.2006C16.2762 13.377 16.2174 13.377 10.1873 13.377C3.61973 13.377 3.70371 13.3854 3.57773 12.9402C3.50215 12.6379 3.51055 12.5791 3.70371 12.3355L3.87168 12.1172H10.1117C15.6127 12.1172 16.3602 12.134 16.5281 12.2516ZM17.8803 16.0141C18.1238 16.2324 18.1238 16.7363 17.8803 16.9547C17.7123 17.1059 17.4604 17.1143 11.0271 17.1395C6.64316 17.1562 4.24961 17.1311 4.03965 17.0723C3.41816 16.9043 3.37617 16.0812 3.98086 15.9049C4.13203 15.8545 7.07988 15.8293 10.9684 15.8377C17.4604 15.8545 17.7123 15.8629 17.8803 16.0141ZM19.182 19.7682C19.4592 19.9865 19.4844 20.4316 19.2324 20.6836C19.0645 20.8516 18.9721 20.8516 11.4555 20.8348L3.83809 20.8096L3.67012 20.5828C3.52734 20.398 3.51895 20.3057 3.57773 20.0789C3.62813 19.9193 3.7457 19.7598 3.86328 19.701C4.02285 19.617 5.73613 19.5918 11.5143 19.5918C18.9217 19.5918 18.9553 19.5918 19.182 19.7682Z" fill="white"/>
<path d="M18.5773 9.28691C18.2666 9.61445 18.3338 9.9252 18.9049 10.765C19.182 11.185 19.4256 11.5293 19.4508 11.5293C19.4676 11.5293 19.6775 11.4033 19.9127 11.2438C20.1394 11.0842 20.3998 10.9246 20.4922 10.8994C20.5846 10.8658 20.6601 10.8238 20.6601 10.7902C20.6601 10.6979 19.6607 9.31211 19.5096 9.19453C19.2744 9.01816 18.7789 9.06855 18.5773 9.28691Z" fill="white"/>
<path d="M30.4443 10.9332C30.31 10.9668 30.1168 11.0424 30.016 11.0928C29.7137 11.2524 28.5883 12.5037 27.2697 14.1498L26.0016 15.7287L25.8336 15.4516C24.8678 13.9147 24.0447 12.6885 23.7844 12.4198C22.701 11.2776 20.6937 11.5799 19.9715 12.9908C19.7195 13.4864 19.6775 14.3094 19.8791 14.8469C20.0807 15.3676 23.5744 20.8602 23.9859 21.3053C24.4311 21.784 24.9434 21.9856 25.6992 21.9856C26.5978 21.9856 26.959 21.7588 28.1096 20.5158L29.0166 19.5248L29.0586 27.9401L29.1006 36.3469L29.2937 36.6996C29.5877 37.2539 29.9488 37.6235 30.4527 37.867C30.8559 38.0686 30.9818 38.0854 31.5697 38.0518C32.3256 38.0098 32.8211 37.7746 33.2494 37.2539C33.7617 36.6324 33.7617 36.666 33.7617 31.375V26.5543L33.9717 26.3528C34.2152 26.1008 34.5092 26.084 34.7779 26.3024L34.9795 26.4619L35.0215 31.3666L35.0635 36.2629L35.2986 36.7416C35.7521 37.6655 36.5752 38.1274 37.6334 38.0518C38.3053 38.0014 38.8008 37.7494 39.2543 37.2203C39.8254 36.5485 39.8086 36.8088 39.8086 29.7289V23.3545L40.0018 23.3965C40.85 23.5981 41.4547 23.5141 42.093 23.111C42.3113 22.9682 42.6053 22.6826 42.748 22.4727L43 22.0864V17.2405V12.3946L42.7396 12.0082C42.5969 11.7983 42.3281 11.5043 42.135 11.3615C41.4463 10.8576 41.4547 10.8576 35.8277 10.866C33.0059 10.8744 30.5871 10.8996 30.4443 10.9332ZM34.6016 14.8049C34.8115 14.9141 34.9375 15.3844 34.9375 16.0227C34.9375 16.7701 34.8199 17.1145 34.5176 17.2405C34.1396 17.4 33.7869 17.2237 33.6777 16.8289C33.493 16.1487 33.6273 14.9813 33.9129 14.8133C34.0977 14.7041 34.4 14.6957 34.6016 14.8049ZM34.6016 18.8362C34.8115 18.9453 34.9375 19.4156 34.9375 20.0539C34.9375 20.8014 34.8199 21.1457 34.5176 21.2717C34.1396 21.4313 33.7869 21.2549 33.6777 20.8602C33.493 20.1799 33.6273 19.0125 33.9129 18.8446C34.0977 18.7354 34.4 18.727 34.6016 18.8362Z" fill="white"/>
<path d="M8.18846 30.1067C6.52557 32.4666 5.11464 34.4991 5.05585 34.6334C4.7955 35.2465 5.45897 35.8596 6.04686 35.5489C6.13085 35.5069 7.66776 33.3653 9.46503 30.787L12.7236 26.109L12.7488 29.376C12.7656 32.5926 12.774 32.643 12.9504 32.8362C13.1939 33.0965 13.681 33.0965 13.9246 32.8362C14.101 32.643 14.1094 32.5926 14.1262 29.376L14.1514 26.1174L17.4099 30.7786C19.1988 33.3485 20.7273 35.4733 20.7945 35.4985C21.3152 35.7 21.9199 35.3725 21.9199 34.8854C21.9199 34.5914 21.9367 34.625 18.4094 29.628L15.7387 25.8487L13.4795 25.8319L11.2119 25.8151L8.18846 30.1067Z" fill="white"/>
</svg>
