<svg width="49" height="49" viewBox="0 0 49 49" fill="none" xmlns="http://www.w3.org/2000/svg">
<path d="M14.1219 1.82383C13.8031 1.95508 13.7188 2.21758 13.7188 3.11758C13.7188 4.13945 13.8594 4.39258 14.4219 4.39258C14.9938 4.39258 15.125 4.13945 15.125 3.08945C15.125 2.3957 15.0875 2.18008 14.9656 2.03008C14.7688 1.7957 14.4031 1.70195 14.1219 1.82383Z" fill="white"/>
<path d="M40.5125 2.02998C40.3625 2.16123 39.6875 3.27686 39.6875 3.40811C39.6875 3.49248 41.15 4.35498 41.2906 4.35498C41.3281 4.35498 41.5437 4.06436 41.7594 3.69873C42.2469 2.88311 42.2187 2.72373 41.525 2.32061C40.8594 1.93623 40.6906 1.88936 40.5125 2.02998Z" fill="white"/>
<path d="M7.15625 3.79266C7.05313 3.89579 6.96875 4.09266 6.96875 4.22391C6.96875 4.53329 7.67188 5.82704 7.90625 5.94891C8.39375 6.21141 8.9375 5.93016 8.9375 5.41454C8.9375 5.07704 8.525 4.22391 8.15938 3.81141C7.91563 3.54891 7.41875 3.53016 7.15625 3.79266Z" fill="white"/>
<path d="M20.6844 3.81141C20.3188 4.22391 19.9062 5.07704 19.9062 5.41454C19.9062 5.93016 20.45 6.21141 20.9375 5.94891C21.1813 5.81766 21.875 4.56141 21.875 4.23329C21.875 3.66141 21.0781 3.38016 20.6844 3.81141Z" fill="white"/>
<path d="M37.1094 6.99854C35.9094 9.07041 35.3844 10.0829 35.2906 10.4673C35.2063 10.8048 35.1875 11.0485 35.2438 11.0954C35.2906 11.1423 35.7031 11.4048 36.1719 11.6673L37.0063 12.1548L37.4375 11.6954C37.7094 11.4142 38.4875 10.1767 39.5281 8.36729C40.4375 6.78291 41.1875 5.45166 41.1875 5.41416C41.1875 5.32041 39.05 4.07354 38.9 4.07354C38.8438 4.07354 38.0375 5.39541 37.1094 6.99854Z" fill="white"/>
<path d="M25.0156 6.19248C24.5 6.25811 23.7031 6.40811 23.2344 6.52061C22.3438 6.73623 20.5719 7.31748 20.4406 7.43936C20.4031 7.47686 20.6 7.69248 20.8906 7.91748C22.2594 8.97686 23.225 10.4769 23.7219 12.3237C23.8531 12.7925 23.8906 13.2894 23.8813 14.48C23.8813 15.8487 23.8531 16.13 23.6281 16.9456C23.3 18.1925 22.6906 19.3925 21.6125 20.9206C20.7594 22.1394 19.9062 23.5269 19.9062 23.6862C19.9062 23.7331 21.8 23.7612 24.1156 23.7612H28.325L28.5219 23.4519C28.6625 23.2269 28.8125 22.5425 29.0563 21.0331C29.2438 19.88 29.4594 18.8019 29.5344 18.6519C29.6188 18.4925 30.6219 16.7394 31.775 14.7519C33.6125 11.5644 33.8844 11.0394 34.0625 10.3456C34.1938 9.81123 34.4281 9.27686 34.775 8.67686C35.0563 8.19873 35.2813 7.76748 35.2813 7.72998C35.2813 7.54248 33.0031 6.75498 31.625 6.46436C29.6281 6.04248 26.9375 5.92998 25.0156 6.19248ZM26.5625 8.85498C26.7688 9.06123 26.7969 9.24873 26.6563 9.51123C26.5438 9.71748 25.2594 10.4487 25.0156 10.4487C24.6219 10.4487 24.3594 9.88623 24.5844 9.52061C24.725 9.30498 25.8406 8.68623 26.1219 8.67686C26.2625 8.66748 26.4594 8.75186 26.5625 8.85498Z" fill="white"/>
<path d="M13.3438 7.07373C10.2032 7.40186 7.69066 9.06123 6.68753 11.4612C6.25628 12.4831 6.09691 13.4956 6.15316 14.7987C6.24691 16.9081 6.73441 18.1269 8.46878 20.6206C9.96878 22.7675 10.5219 24.0331 10.5313 25.28V25.73H11.4688H12.4063V22.4112V19.0831L11.7313 18.7269C10.8032 18.2487 9.99691 17.4237 9.55628 16.5331C8.81566 15.0144 8.75941 13.8987 9.37816 13.1675C10.475 11.8644 12.2563 12.9519 13.0532 15.4175C13.25 16.0362 13.5313 17.4987 13.5313 17.9112C13.5313 18.1362 13.55 18.1362 14.4125 18.1362H15.2938L15.3594 17.5456C15.5375 15.8487 16.1094 14.2737 16.85 13.4769C17.6188 12.6237 18.4344 12.3894 19.0719 12.8206C19.775 13.2894 20.0094 14.03 19.8125 15.1081C19.5313 16.5612 18.4532 18.0331 17.1688 18.6987C16.7938 18.8956 16.5219 19.1019 16.4938 19.2144C16.4657 19.3175 16.4375 20.8269 16.4375 22.5612V25.73H17.3657H18.2844L18.3407 25.0456C18.3969 24.2487 18.8 23.0769 19.3063 22.2331C19.5032 21.9144 20.0469 21.0987 20.5157 20.4237C22.1188 18.1175 22.6063 16.88 22.6907 14.855C22.775 12.98 22.4563 11.705 21.5844 10.4019C20.2344 8.39561 17.8719 7.19561 14.9375 7.04561C14.45 7.01748 13.7282 7.03623 13.3438 7.07373Z" fill="white"/>
<path d="M2.24376 8.72373C2.05626 8.91123 1.96251 9.25811 2.04689 9.50186C2.12189 9.74561 3.45314 10.5425 3.78126 10.5425C4.18439 10.5425 4.43751 10.2987 4.43751 9.90498C4.43751 9.44561 4.40001 9.39873 3.64064 8.95811C2.93751 8.54561 2.48751 8.47061 2.24376 8.72373Z" fill="white"/>
<path d="M39.2281 11.2644C38.9937 11.6862 38.525 12.2956 38.1406 12.6987C37.5406 13.3175 37.2312 13.8144 35.4219 16.9644C34.2969 18.9237 33.2937 20.6394 33.2 20.78C33.0969 20.9206 32.2906 21.6331 31.3906 22.3644C30.0875 23.4237 29.7031 23.7987 29.45 24.2112C29.2812 24.5019 29.0375 24.7925 28.9062 24.8581C28.7281 24.9519 27.5844 24.98 24.1062 24.98H19.55L19.5125 26.5925C19.4844 28.4206 19.4 28.6737 18.7531 29.0956L18.4062 29.3206V29.9956C18.4062 30.5394 18.3687 30.7269 18.1906 30.9894C17.9187 31.3925 17.4219 31.73 17.0844 31.73C16.8219 31.73 16.8125 31.7487 16.8125 32.1706C16.8031 33.1362 16.1844 33.8394 15.2469 33.9519L14.7687 34.0081L15.0031 34.6269C15.3219 35.4706 15.9125 37.8331 16.1281 39.0894C16.3531 40.4675 16.3625 44.1612 16.1281 45.5581C16.0437 46.0737 15.95 46.6737 15.9125 46.8894L15.8469 47.2925H23.1031H30.3594L30.6312 46.5144C31.3531 44.4706 31.9156 43.6456 32.9094 43.1487C33.5187 42.8487 33.575 42.8394 34.625 42.8487C35.4406 42.8581 36.0406 42.9331 37.1094 43.1581C38.8719 43.5237 39.6125 43.5987 40.1562 43.4487C41.2531 43.1581 41.7031 42.3144 41.9281 40.1487C42.05 39.0519 42.0781 38.9769 42.425 38.7987C42.8187 38.5925 43.0625 38.1425 43.0625 37.6175C43.0625 37.0269 42.8375 36.7831 41.9 36.3331L41.15 35.9769L42.0406 35.7612C42.7062 35.5925 42.9875 35.48 43.1937 35.2737C43.4937 34.9737 43.4937 34.9644 43.1469 33.68C42.9312 32.8737 42.9312 32.8644 43.1094 32.6581C43.3906 32.3487 43.7937 32.2175 44.8719 32.0675C45.9969 31.9081 46.2969 31.805 46.6437 31.4769C47.2625 30.8862 47.0656 30.1456 45.7906 28.1394C44.6094 26.2925 44.0656 25.3456 43.8219 24.7175C43.625 24.23 43.625 24.2019 43.775 22.655C43.9531 20.7987 43.9062 18.08 43.6812 17.0769C43.325 15.5112 42.7531 14.2269 41.8344 12.8862C41.2344 12.005 39.9219 10.5425 39.7437 10.5425C39.6781 10.5425 39.4437 10.8706 39.2281 11.2644Z" fill="white"/>
<path d="M32.75 15.4267C31.7469 17.1798 30.9125 18.661 30.8938 18.7267C30.8656 18.8673 32.375 19.7673 32.4688 19.6642C32.5625 19.561 36.1156 13.3923 36.1813 13.2235C36.2188 13.1298 36.0031 12.9517 35.5063 12.661C35.1031 12.4267 34.7281 12.2298 34.6719 12.2298C34.625 12.2392 33.7531 13.6735 32.75 15.4267Z" fill="white"/>
<path d="M10.2313 14.058C10.0063 14.5549 10.4657 15.9893 11.0938 16.758C11.375 17.0955 12.2 17.7236 12.2657 17.6486C12.3407 17.5736 12.0125 16.0361 11.8063 15.4736C11.3 14.1424 10.5125 13.4299 10.2313 14.058Z" fill="white"/>
<path d="M17.8156 14.1519C17.2625 14.7237 16.8594 15.755 16.6437 17.1237C16.5969 17.4237 16.5875 17.6675 16.6156 17.6675C16.7937 17.6675 17.6562 16.88 17.9656 16.4487C18.5187 15.6519 18.8281 14.4519 18.5937 14.0019C18.4437 13.73 18.1719 13.7862 17.8156 14.1519Z" fill="white"/>
<path d="M13.625 22.5519V25.73H14.4219H15.2188V22.5519V19.3737H14.4219H13.625V22.5519Z" fill="white"/>
<path d="M30.3313 20.7332C30.1532 21.8769 30.1438 21.8582 30.875 21.2582C31.2407 20.9582 31.5313 20.6957 31.5313 20.6582C31.5313 20.6019 30.5657 20.0113 30.4719 20.0113C30.4532 20.0113 30.3875 20.3394 30.3313 20.7332Z" fill="white"/>
<path d="M10.5313 27.3798C10.5313 28.2329 10.2313 28.1673 14.4219 28.1673C18.6125 28.1673 18.3125 28.2329 18.3125 27.3798V26.9485H14.4219H10.5313V27.3798Z" fill="white"/>
<path d="M11.675 29.9206L11.7032 30.4644H14.4219H17.1407L17.1688 29.9206L17.1969 29.3862H14.4219H11.6469L11.675 29.9206Z" fill="white"/>
<path d="M13.25 32.1519C13.25 32.6862 13.3813 32.7612 14.4219 32.7612C15.4625 32.7612 15.5938 32.6862 15.5938 32.1519V31.73H14.4219H13.25V32.1519Z" fill="white"/>
</svg>
