<svg width="43" height="43" viewBox="0 0 43 43" fill="none" xmlns="http://www.w3.org/2000/svg">
<g clip-path="url(#clip0_41_3348)">
<path d="M19.7773 0.560732C19.6625 0.577139 19.2195 0.65917 18.793 0.724794C13.1492 1.67636 8.35859 6.13066 6.93945 11.7334C6.33242 14.1451 6.33242 16.9506 6.94766 19.2967C8.34219 24.6205 12.4602 28.7221 17.784 30.0838C19.7363 30.5842 22.2793 30.6662 24.2727 30.2971C30.5891 29.1158 35.4453 24.0463 36.3805 17.6478C36.5445 16.524 36.5445 14.5225 36.3805 13.3986C35.4535 7.0412 30.7121 2.02909 24.4121 0.749405C23.682 0.601748 23.1816 0.568935 21.7461 0.544327C20.7781 0.536123 19.8922 0.544327 19.7773 0.560732ZM24.0758 2.308C26.7992 2.86581 28.9977 4.05526 30.9828 6.04042C33.452 8.50956 34.7891 11.5365 34.9285 14.949C35.027 17.3689 34.5594 19.4689 33.4273 21.6756C31.4012 25.6213 27.6113 28.2709 23.1652 28.8533C19.8922 29.2799 16.3977 28.4021 13.6906 26.458C11.082 24.5877 9.10508 21.6264 8.39141 18.5174C7.75976 15.7857 8.02226 12.8736 9.12969 10.2732C9.74492 8.81308 11.0656 6.81972 11.5414 6.61464C11.8367 6.49159 12.1238 6.56542 12.3125 6.81151C12.5996 7.17245 12.5258 7.41854 11.9023 8.23886C11.1969 9.15761 10.2699 10.9951 9.97461 12.0369C9.44961 13.8908 9.33476 15.9662 9.6793 17.7135C10.6227 22.5697 14.191 26.2283 19.0391 27.2947C19.966 27.4998 22.3285 27.549 23.3539 27.3932C31.3684 26.1217 35.8309 17.574 32.3281 10.2322C31.557 8.6162 30.023 6.79511 28.5383 5.7369C27.1273 4.72792 25.3391 3.97323 23.6082 3.65331C22.5582 3.45644 20.3352 3.46464 19.3262 3.66151C18.3746 3.85019 17.2016 4.22753 16.3402 4.62128C15.4871 5.01503 15.2656 5.02323 14.9785 4.6787C14.8062 4.47362 14.7734 4.36698 14.8062 4.17831C14.8801 3.80917 14.9949 3.71073 15.7988 3.34159C17.0129 2.77558 18.4977 2.33261 19.7855 2.15214C20.6797 2.02909 23.1488 2.11933 24.0758 2.308ZM22.148 6.74589C22.3285 6.83612 22.5418 7.0248 22.632 7.17245C22.7223 7.32011 23.1734 8.32909 23.6328 9.41191C24.0922 10.4947 24.4777 11.3889 24.4859 11.3971C24.4941 11.4053 25.4293 11.5447 26.5777 11.7006C27.7508 11.8728 28.7762 12.0533 28.9402 12.1353C29.2602 12.283 29.5883 12.7342 29.6703 13.1197C29.7934 13.7514 29.7113 13.8744 27.9887 15.6463L26.3645 17.3197L26.6926 19.8381C27.0453 22.5943 27.0371 22.7256 26.6187 23.226C26.348 23.5541 25.782 23.7592 25.3801 23.6935C25.175 23.6525 24.4695 23.2342 23.2883 22.4303L21.5 21.2326L19.7199 22.4303C18.5223 23.2424 17.825 23.6525 17.6199 23.6935C17.218 23.7592 16.652 23.5541 16.3812 23.226C15.9629 22.7338 15.9629 22.5779 16.2828 20.0185C16.4469 18.7307 16.5781 17.5658 16.5781 17.4428C16.5781 17.2541 16.291 16.926 14.9867 15.6053C13.6496 14.26 13.3871 13.9564 13.3379 13.6939C13.2148 13.0623 13.502 12.4225 14.0352 12.1435C14.2238 12.0533 15.077 11.8892 16.4469 11.6924L18.5633 11.3807L19.4 9.37089C19.8676 8.25526 20.3105 7.25448 20.3926 7.12323C20.7289 6.61464 21.5492 6.43417 22.148 6.74589Z" fill="#DCDDE0"/>
<path d="M20.6387 10.0025C20.1875 11.0771 19.7445 12.0615 19.6543 12.2009C19.359 12.6439 18.9734 12.7669 16.898 13.054C15.8398 13.2017 14.9293 13.3329 14.8719 13.3576C14.8062 13.374 15.364 14.0138 16.2664 14.949C17.1687 15.8841 17.825 16.6388 17.9152 16.8357C18.0547 17.1556 18.0547 17.2048 17.7676 19.5427C17.6035 20.8552 17.4805 22.0037 17.4969 22.0857C17.5133 22.2087 17.8496 22.0119 19.2441 21.0767L20.9668 19.9119H21.5H22.0332L23.7558 21.0767C25.1914 22.0365 25.4867 22.2087 25.5031 22.0775C25.5195 21.9872 25.3965 20.8552 25.2324 19.5427L24.9371 17.172L25.093 16.8193C25.1914 16.5896 25.7656 15.9333 26.7418 14.9326C27.6605 13.9892 28.2019 13.374 28.1281 13.3576C28.0707 13.3329 27.1601 13.2017 26.1019 13.054C24.0183 12.7669 23.641 12.6439 23.3457 12.1927C23.2555 12.0533 22.8125 11.0689 22.3613 10.0025C21.9101 8.93607 21.5246 8.05834 21.5 8.05834C21.4754 8.05834 21.0898 8.93607 20.6387 10.0025Z" fill="#DCDDE0"/>
<path d="M12.4766 35.7028V42.1094L12.6816 42.3063C13.1 42.7329 13.2066 42.6918 17.1195 40.5918C19.1703 39.4844 20.8602 38.6313 21.098 38.5739C21.4098 38.5 21.5902 38.5 21.902 38.5739C22.1398 38.6313 23.8297 39.4844 25.8805 40.5918C29.7934 42.6918 29.9 42.7329 30.3184 42.3063L30.5234 42.1094V35.7028C30.5234 32.1836 30.5152 29.3043 30.4988 29.3043C30.4824 29.3043 30.0641 29.5422 29.5555 29.8293C29.0551 30.1165 28.3824 30.4528 28.0707 30.584L27.4883 30.8219V34.4149C27.4883 38.377 27.4801 38.459 27.0043 38.6477C26.7992 38.7379 26.7008 38.7379 26.4957 38.6477C26.0281 38.459 26.0117 38.3524 26.0117 34.6692V31.3387L25.8312 31.3879C25.2078 31.5602 23.5672 31.8555 22.9602 31.8965L22.2465 31.954L22.2219 33.9965L22.1973 36.0473L21.9676 36.2442C21.6723 36.4985 21.3277 36.4985 21.0324 36.2442L20.8027 36.0473L20.7781 33.9965L20.7535 31.954L20.0398 31.8965C19.4328 31.8555 17.7922 31.5602 17.177 31.3879L16.9883 31.3387V34.6692C16.9883 38.3524 16.9719 38.459 16.5043 38.6477C16.2992 38.7379 16.2008 38.7379 15.9957 38.6477C15.5199 38.459 15.5117 38.377 15.5117 34.4067V30.8055L14.9457 30.584C14.6422 30.461 13.9695 30.1247 13.4527 29.8375C12.9441 29.5422 12.5176 29.3043 12.5012 29.3043C12.4848 29.3043 12.4766 32.1836 12.4766 35.7028Z" fill="#DCDDE0"/>
</g>
<defs>
<clipPath id="clip0_41_3348">
<rect width="42" height="42" fill="white" transform="translate(0.5 0.51123)"/>
</clipPath>
</defs>
</svg>
