<svg width="25" height="24" viewBox="0 0 25 24" fill="none" xmlns="http://www.w3.org/2000/svg">
<path opacity="0.4" d="M12.5 5.2997V21.3297C12.33 21.3297 12.15 21.2997 12.01 21.2197L11.97 21.1997C10.05 20.1497 6.7 19.0497 4.53 18.7597L4.24 18.7197C3.28 18.5997 2.5 17.6997 2.5 16.7397V4.6597C2.5 3.4697 3.47 2.5697 4.66 2.6697C6.76 2.8397 9.94 3.8997 11.72 5.0097L11.97 5.1597C12.12 5.2497 12.31 5.2997 12.5 5.2997Z" fill="#FF4667"/>
<path d="M22.5 4.66954V16.7395C22.5 17.6995 21.72 18.5995 20.76 18.7195L20.43 18.7595C18.25 19.0495 14.89 20.1595 12.97 21.2195C12.84 21.2995 12.68 21.3295 12.5 21.3295V5.29954C12.69 5.29954 12.88 5.24954 13.03 5.15954L13.2 5.04954C14.98 3.92954 18.17 2.85954 20.27 2.67954H20.33C21.52 2.57954 22.5 3.46954 22.5 4.66954Z" fill="#FF4667"/>
<path d="M8.25 9.24023H6C5.59 9.24023 5.25 8.90023 5.25 8.49023C5.25 8.08023 5.59 7.74023 6 7.74023H8.25C8.66 7.74023 9 8.08023 9 8.49023C9 8.90023 8.66 9.24023 8.25 9.24023Z" fill="#FF4667"/>
<path d="M9 12.2402H6C5.59 12.2402 5.25 11.9002 5.25 11.4902C5.25 11.0802 5.59 10.7402 6 10.7402H9C9.41 10.7402 9.75 11.0802 9.75 11.4902C9.75 11.9002 9.41 12.2402 9 12.2402Z" fill="#FF4667"/>
</svg>
