<svg width="14" height="14" viewBox="0 0 14 14" fill="none" xmlns="http://www.w3.org/2000/svg">
<path d="M9.77064 2.07797V1.16797C9.77064 0.928802 9.57231 0.730469 9.33314 0.730469C9.09397 0.730469 8.89564 0.928802 8.89564 1.16797V2.04297H5.10397V1.16797C5.10397 0.928802 4.90564 0.730469 4.66647 0.730469C4.42731 0.730469 4.22897 0.928802 4.22897 1.16797V2.07797C2.65397 2.2238 1.88981 3.16297 1.77314 4.55713C1.76147 4.7263 1.90147 4.8663 2.06481 4.8663H11.9348C12.104 4.8663 12.244 4.72047 12.2265 4.55713C12.1098 3.16297 11.3456 2.2238 9.77064 2.07797Z" fill="#5625E8"/>
<path opacity="0.4" d="M11.6667 5.73828C11.9875 5.73828 12.25 6.00078 12.25 6.32161V9.91495C12.25 11.6649 11.375 12.8316 9.33333 12.8316H4.66667C2.625 12.8316 1.75 11.6649 1.75 9.91495V6.32161C1.75 6.00078 2.0125 5.73828 2.33333 5.73828H11.6667Z" fill="#8562EE"/>
<path d="M4.95833 8.74805C4.80667 8.74805 4.655 8.68388 4.54417 8.57888C4.43917 8.46805 4.375 8.31639 4.375 8.16472C4.375 8.01305 4.43917 7.86139 4.54417 7.75056C4.7075 7.58723 4.96417 7.53471 5.18 7.62805C5.25583 7.65721 5.32 7.69806 5.3725 7.75056C5.4775 7.86139 5.54167 8.01305 5.54167 8.16472C5.54167 8.31639 5.4775 8.46805 5.3725 8.57888C5.26167 8.68388 5.11 8.74805 4.95833 8.74805Z" fill="#5625E8"/>
<path d="M6.99984 8.74805C6.84817 8.74805 6.6965 8.68388 6.58567 8.57888C6.48067 8.46805 6.4165 8.31639 6.4165 8.16472C6.4165 8.01305 6.48067 7.86139 6.58567 7.75056C6.63817 7.69806 6.70234 7.65721 6.77817 7.62805C6.994 7.53471 7.25067 7.58723 7.414 7.75056C7.519 7.86139 7.58317 8.01305 7.58317 8.16472C7.58317 8.31639 7.519 8.46805 7.414 8.57888C7.38484 8.60222 7.35567 8.62555 7.3265 8.64888C7.2915 8.67221 7.2565 8.68973 7.2215 8.7014C7.1865 8.7189 7.1515 8.73056 7.1165 8.73639C7.07567 8.74223 7.04067 8.74805 6.99984 8.74805Z" fill="#5625E8"/>
<path d="M9.04183 8.7487C8.89016 8.7487 8.7385 8.68453 8.62766 8.57953C8.52266 8.4687 8.4585 8.31704 8.4585 8.16537C8.4585 8.0137 8.52266 7.86204 8.62766 7.75121C8.686 7.69871 8.74433 7.65786 8.82016 7.6287C8.92516 7.58203 9.04183 7.57036 9.1585 7.5937C9.1935 7.59953 9.2285 7.6112 9.2635 7.6287C9.2985 7.64036 9.3335 7.65788 9.3685 7.68121C9.39766 7.70455 9.42683 7.72788 9.456 7.75121C9.561 7.86204 9.62516 8.0137 9.62516 8.16537C9.62516 8.31704 9.561 8.4687 9.456 8.57953C9.42683 8.60287 9.39766 8.6262 9.3685 8.64953C9.3335 8.67286 9.2985 8.69038 9.2635 8.70205C9.2285 8.71955 9.1935 8.73121 9.1585 8.73704C9.11766 8.74288 9.07683 8.7487 9.04183 8.7487Z" fill="#5625E8"/>
<path d="M4.95833 10.7917C4.8825 10.7917 4.80667 10.7742 4.73667 10.745C4.66083 10.7158 4.6025 10.675 4.54417 10.6225C4.43917 10.5117 4.375 10.36 4.375 10.2083C4.375 10.0567 4.43917 9.90501 4.54417 9.79418C4.6025 9.74168 4.66083 9.70083 4.73667 9.67167C4.84167 9.625 4.95833 9.61333 5.075 9.63667C5.11 9.6425 5.145 9.65417 5.18 9.67167C5.215 9.68333 5.25 9.70085 5.285 9.72418C5.31417 9.74751 5.34333 9.77085 5.3725 9.79418C5.4775 9.90501 5.54167 10.0567 5.54167 10.2083C5.54167 10.36 5.4775 10.5117 5.3725 10.6225C5.34333 10.6458 5.31417 10.675 5.285 10.6925C5.25 10.7158 5.215 10.7333 5.18 10.745C5.145 10.7625 5.11 10.7742 5.075 10.78C5.03417 10.7858 4.99917 10.7917 4.95833 10.7917Z" fill="#5625E8"/>
<path d="M6.99984 10.7922C6.84817 10.7922 6.6965 10.728 6.58567 10.623C6.48067 10.5122 6.4165 10.3605 6.4165 10.2088C6.4165 10.0572 6.48067 9.90552 6.58567 9.79469C6.8015 9.57885 7.19817 9.57885 7.414 9.79469C7.519 9.90552 7.58317 10.0572 7.58317 10.2088C7.58317 10.3605 7.519 10.5122 7.414 10.623C7.30317 10.728 7.1515 10.7922 6.99984 10.7922Z" fill="#5625E8"/>
<path d="M9.04183 10.7922C8.89016 10.7922 8.7385 10.728 8.62766 10.623C8.52266 10.5122 8.4585 10.3605 8.4585 10.2088C8.4585 10.0572 8.52266 9.90552 8.62766 9.79469C8.8435 9.57885 9.24016 9.57885 9.456 9.79469C9.561 9.90552 9.62516 10.0572 9.62516 10.2088C9.62516 10.3605 9.561 10.5122 9.456 10.623C9.34516 10.728 9.1935 10.7922 9.04183 10.7922Z" fill="#5625E8"/>
</svg>
