<svg width="25" height="24" viewBox="0 0 25 24" fill="none" xmlns="http://www.w3.org/2000/svg">
<path d="M17.2624 3.56V2C17.2624 1.59 16.9224 1.25 16.5124 1.25C16.1024 1.25 15.7624 1.59 15.7624 2V3.5H9.26244V2C9.26244 1.59 8.92244 1.25 8.51244 1.25C8.10244 1.25 7.76244 1.59 7.76244 2V3.56C5.06244 3.81 3.75244 5.42 3.55244 7.81C3.53244 8.1 3.77244 8.34 4.05244 8.34H20.9724C21.2624 8.34 21.5024 8.09 21.4724 7.81C21.2724 5.42 19.9624 3.81 17.2624 3.56Z" fill="#5625E8"/>
<path opacity="0.4" d="M20.5125 9.83984C21.0625 9.83984 21.5125 10.2898 21.5125 10.8398V16.9998C21.5125 19.9998 20.0125 21.9998 16.5125 21.9998H8.51245C5.01245 21.9998 3.51245 19.9998 3.51245 16.9998V10.8398C3.51245 10.2898 3.96245 9.83984 4.51245 9.83984H20.5125Z" fill="#8562EE"/>
<path d="M9.01245 14.9989C8.75245 14.9989 8.49245 14.8889 8.30245 14.7089C8.12245 14.5189 8.01245 14.2589 8.01245 13.9989C8.01245 13.7389 8.12245 13.4789 8.30245 13.2889C8.58245 13.0089 9.02245 12.9189 9.39245 13.0789C9.52245 13.1289 9.63245 13.1989 9.72245 13.2889C9.90245 13.4789 10.0125 13.7389 10.0125 13.9989C10.0125 14.2589 9.90245 14.5189 9.72245 14.7089C9.53245 14.8889 9.27245 14.9989 9.01245 14.9989Z" fill="#5625E8"/>
<path d="M12.5125 14.9989C12.2525 14.9989 11.9925 14.8889 11.8025 14.7089C11.6225 14.5189 11.5125 14.2589 11.5125 13.9989C11.5125 13.7389 11.6225 13.4789 11.8025 13.2889C11.8925 13.1989 12.0025 13.1289 12.1325 13.0789C12.5025 12.9189 12.9425 13.0089 13.2225 13.2889C13.4025 13.4789 13.5125 13.7389 13.5125 13.9989C13.5125 14.2589 13.4025 14.5189 13.2225 14.7089C13.1725 14.7489 13.1225 14.7889 13.0725 14.8289C13.0125 14.8689 12.9525 14.8989 12.8925 14.9189C12.8325 14.9489 12.7725 14.9689 12.7125 14.9789C12.6425 14.9889 12.5825 14.9989 12.5125 14.9989Z" fill="#5625E8"/>
<path d="M16.0125 15C15.7525 15 15.4925 14.89 15.3025 14.71C15.1225 14.52 15.0125 14.26 15.0125 14C15.0125 13.74 15.1225 13.48 15.3025 13.29C15.4025 13.2 15.5025 13.13 15.6325 13.08C15.8125 13 16.0125 12.98 16.2125 13.02C16.2725 13.03 16.3325 13.05 16.3925 13.08C16.4525 13.1 16.5125 13.13 16.5725 13.17C16.6225 13.21 16.6725 13.25 16.7225 13.29C16.9025 13.48 17.0125 13.74 17.0125 14C17.0125 14.26 16.9025 14.52 16.7225 14.71C16.6725 14.75 16.6225 14.79 16.5725 14.83C16.5125 14.87 16.4525 14.9 16.3925 14.92C16.3325 14.95 16.2725 14.97 16.2125 14.98C16.1425 14.99 16.0725 15 16.0125 15Z" fill="#5625E8"/>
<path d="M9.01245 18.5C8.88245 18.5 8.75245 18.47 8.63245 18.42C8.50245 18.37 8.40245 18.3 8.30245 18.21C8.12245 18.02 8.01245 17.76 8.01245 17.5C8.01245 17.24 8.12245 16.98 8.30245 16.79C8.40245 16.7 8.50245 16.63 8.63245 16.58C8.81245 16.5 9.01245 16.48 9.21245 16.52C9.27245 16.53 9.33245 16.55 9.39245 16.58C9.45245 16.6 9.51245 16.63 9.57245 16.67C9.62245 16.71 9.67245 16.75 9.72245 16.79C9.90245 16.98 10.0125 17.24 10.0125 17.5C10.0125 17.76 9.90245 18.02 9.72245 18.21C9.67245 18.25 9.62245 18.3 9.57245 18.33C9.51245 18.37 9.45245 18.4 9.39245 18.42C9.33245 18.45 9.27245 18.47 9.21245 18.48C9.14245 18.49 9.08245 18.5 9.01245 18.5Z" fill="#5625E8"/>
<path d="M12.5125 18.4992C12.2525 18.4992 11.9925 18.3892 11.8025 18.2092C11.6225 18.0192 11.5125 17.7592 11.5125 17.4992C11.5125 17.2392 11.6225 16.9792 11.8025 16.7892C12.1725 16.4192 12.8525 16.4192 13.2225 16.7892C13.4025 16.9792 13.5125 17.2392 13.5125 17.4992C13.5125 17.7592 13.4025 18.0192 13.2225 18.2092C13.0325 18.3892 12.7725 18.4992 12.5125 18.4992Z" fill="#5625E8"/>
<path d="M16.0125 18.4992C15.7525 18.4992 15.4925 18.3892 15.3025 18.2092C15.1225 18.0192 15.0125 17.7592 15.0125 17.4992C15.0125 17.2392 15.1225 16.9792 15.3025 16.7892C15.6725 16.4192 16.3525 16.4192 16.7225 16.7892C16.9025 16.9792 17.0125 17.2392 17.0125 17.4992C17.0125 17.7592 16.9025 18.0192 16.7225 18.2092C16.5325 18.3892 16.2725 18.4992 16.0125 18.4992Z" fill="#5625E8"/>
</svg>
