<svg width="37" height="36" viewBox="0 0 37 36" fill="none" xmlns="http://www.w3.org/2000/svg">
<path d="M28.9727 0.154966C28.7337 0.28856 22.954 5.9909 22.8485 6.19481C22.7008 6.48309 22.7219 7.08778 22.8907 7.36903C23.1719 7.83309 23.3337 7.87528 24.8102 7.87528H26.1251V9.80887C26.1251 11.5807 26.1391 11.7706 26.2727 12.1222C26.4485 12.5932 26.8774 13.0573 27.3555 13.2893C27.693 13.4581 27.7633 13.4651 29.4016 13.4862C30.9766 13.5073 31.1172 13.5003 31.4899 13.3597C31.968 13.1768 32.4321 12.755 32.6641 12.2698C32.8399 11.9253 32.8399 11.8831 32.861 9.89325L32.8821 7.87528H34.1969C35.6665 7.87528 35.8282 7.83309 36.1094 7.36903C36.2782 7.08778 36.2993 6.48309 36.1516 6.19481C36.0391 5.97684 30.2524 0.274497 30.0133 0.154966C29.8165 0.0494976 29.1555 0.0494976 28.9727 0.154966Z" fill="#392C7D"/>
<path d="M12.7305 8.39531C11.9641 8.64141 11.4719 9.14062 11.2328 9.91406C10.7617 11.4609 10.6422 11.8125 10.5648 11.8125C10.5156 11.8125 10.1641 11.9531 9.77031 12.1148L9.06016 12.4242L8.11797 11.9109C7.00703 11.3063 6.74688 11.2219 6.10703 11.2641C5.40391 11.3063 5.0875 11.4961 4.16641 12.4383C3.25938 13.3664 3.13281 13.6125 3.13281 14.4492C3.13281 14.9906 3.26641 15.3281 3.99063 16.6359C4.25078 17.1 4.29297 17.2336 4.23672 17.3391C4.19453 17.4164 4.03984 17.775 3.89922 18.1406L3.63203 18.8086L2.55625 19.132C1.27656 19.5117 1.14297 19.582 0.749219 20.0039C0.271094 20.5172 0.25 20.6227 0.25 22.1836C0.25 23.7023 0.278125 23.8219 0.75625 24.3633C1.05156 24.7078 1.35391 24.8484 2.55625 25.2141C3.11875 25.3898 3.59688 25.5375 3.61094 25.5586C3.625 25.5727 3.75156 25.8469 3.88516 26.1703C4.01875 26.4938 4.16641 26.8383 4.20859 26.9438C4.27891 27.1195 4.23672 27.2391 3.70234 28.2867C3.11875 29.4188 3.11172 29.4328 3.11875 29.9461C3.11875 30.7266 3.35781 31.1555 4.32109 32.0836C5.24922 32.9766 5.60078 33.1523 6.40938 33.1031C6.87344 33.075 6.99297 33.0258 7.99844 32.4984L9.08828 31.9289L9.74922 32.2102C10.1148 32.3648 10.4734 32.5125 10.5438 32.5406C10.6422 32.5828 10.7617 32.8641 10.9867 33.6164C11.3734 34.882 11.5 35.1562 11.8938 35.5008C12.393 35.9367 12.6742 36 14.0945 36C15.2477 36 15.3531 35.9859 15.6836 35.8313C16.0352 35.6695 16.4922 35.2758 16.4922 35.1422C16.4922 35.1 16.3375 34.8961 16.1406 34.6922C15.6766 34.1789 15.0086 33.1734 14.6641 32.4633C14.1367 31.3664 13.6797 29.6648 13.6797 28.7648C13.6797 28.1742 13.6516 28.1461 13.0961 28.0547C10.7758 27.668 8.86328 25.9031 8.25859 23.5898C7.95625 22.4367 8.08984 20.9109 8.58906 19.7789C9.06016 18.7172 9.98828 17.6625 10.9797 17.0719C12.0555 16.432 13.5039 16.1016 14.6219 16.2422C16.4359 16.4742 17.7508 17.2336 18.918 18.7313L19.1289 19.0055L19.6211 18.7875C21.0063 18.1828 22.3984 17.8594 23.6359 17.8594H24.0789L23.9383 17.5219L23.8047 17.1914L24.325 16.207C24.9156 15.1102 25.0352 14.7164 24.9719 14.1539C24.9016 13.5703 24.7047 13.2539 23.8539 12.3891C22.8906 11.4117 22.7008 11.3063 21.8992 11.2641L21.2945 11.2359L20.1414 11.8266L18.9883 12.4242L18.5664 12.2273C18.3344 12.1148 17.9828 11.9742 17.7859 11.9109L17.4203 11.7914L17.0828 10.6734C16.9 10.0547 16.6609 9.40781 16.5555 9.23906C16.3234 8.88047 15.7398 8.47266 15.2969 8.37422C14.8469 8.26875 13.075 8.28984 12.7305 8.39531Z" fill="#392C7D"/>
<path d="M13.539 18.4218C12.6672 18.5343 11.8937 18.9421 11.2469 19.6312C9.88279 21.0796 9.93201 23.3929 11.3523 24.8132C11.8586 25.3265 12.4422 25.671 13.082 25.8398C13.7359 26.0085 13.8695 25.9874 13.9187 25.7132C14.0031 25.2632 14.3265 24.3562 14.6359 23.6953C15.1 22.7109 15.789 21.7265 16.5765 20.9249C17.0828 20.4117 17.2586 20.1867 17.2234 20.0953C17.1531 19.8562 16.3164 19.0898 15.8945 18.8648C15.1562 18.4781 14.3195 18.3234 13.539 18.4218Z" fill="#392C7D"/>
<path d="M22.6445 20.1162C19.6773 20.5451 17.132 22.6967 16.2179 25.5584C15.9296 26.4584 15.8312 27.1193 15.8382 28.1248C15.8593 30.3186 16.7312 32.3506 18.3132 33.8412C19.4523 34.91 20.8234 35.6061 22.3773 35.9014C23.3125 36.0772 25.014 36.0068 25.914 35.7608C30.2453 34.5514 32.7273 30.1287 31.4968 25.8115C30.632 22.7881 28.0515 20.5592 24.8945 20.1092C24.3109 20.0318 23.2351 20.0318 22.6445 20.1162ZM24.2968 24.1522C24.4093 24.2084 24.5921 24.3701 24.6976 24.5178L24.8945 24.7709L24.9156 26.1842L24.9437 27.5975L25.5343 28.2092C26.1601 28.8561 26.2656 29.0389 26.2656 29.4326C26.2656 29.9108 25.8578 30.3959 25.3796 30.4873C24.9296 30.5717 24.6062 30.3748 23.7132 29.4748C23.2632 29.0178 22.8625 28.5608 22.8273 28.4483C22.7781 28.3358 22.75 27.5834 22.75 26.5568C22.75 24.6514 22.7781 24.5108 23.2351 24.2084C23.5164 24.0186 23.9875 23.9904 24.2968 24.1522Z" fill="#FF4667"/>
</svg>
