<svg width="60" height="61" viewBox="0 0 60 61" fill="none" xmlns="http://www.w3.org/2000/svg">
<path d="M16.9087 25.9327C16.9087 26.6711 16.9885 27.2697 17.1282 27.7087C17.2878 28.1478 17.4874 28.6267 17.7668 29.1455C17.8665 29.3052 17.9065 29.4648 17.9065 29.6045C17.9065 29.8041 17.7867 30.0036 17.5273 30.2032L16.2701 31.0413C16.0905 31.161 15.9109 31.2209 15.7513 31.2209C15.5517 31.2209 15.3522 31.1211 15.1526 30.9415C14.8732 30.6422 14.6338 30.3229 14.4342 30.0036C14.2347 29.6644 14.0351 29.2852 13.8156 28.8262C12.2591 30.6621 10.3035 31.5801 7.94873 31.5801C6.27248 31.5801 4.93547 31.1012 3.95765 30.1433C2.97984 29.1854 2.48096 27.9083 2.48096 26.3119C2.48096 24.6157 3.07962 23.2387 4.2969 22.2011C5.51417 21.1634 7.13056 20.6445 9.18596 20.6445C9.86444 20.6445 10.5629 20.7044 11.3012 20.8042C12.0396 20.904 12.7979 21.0636 13.5961 21.2432V19.7865C13.5961 18.2699 13.2768 17.2122 12.6582 16.5936C12.0196 15.975 10.942 15.6757 9.40547 15.6757C8.70703 15.6757 7.98864 15.7555 7.25029 15.9351C6.51194 16.1147 5.79355 16.3342 5.09511 16.6136C4.77583 16.7532 4.53636 16.8331 4.39667 16.873C4.25699 16.9129 4.15721 16.9328 4.07739 16.9328C3.79801 16.9328 3.65832 16.7333 3.65832 16.3142V15.3364C3.65832 15.0171 3.69823 14.7777 3.79801 14.638C3.89779 14.4983 4.07739 14.3586 4.35676 14.2189C5.0552 13.8597 5.89333 13.5604 6.87114 13.3209C7.84895 13.0615 8.88663 12.9418 9.98418 12.9418C12.3589 12.9418 14.095 13.4806 15.2125 14.5582C16.31 15.6357 16.8688 17.2721 16.8688 19.4672V25.9327H16.9087ZM8.80681 28.9659C9.46534 28.9659 10.1438 28.8462 10.8622 28.6067C11.5806 28.3673 12.2192 27.9283 12.758 27.3296C13.0773 26.9504 13.3167 26.5314 13.4365 26.0524C13.5562 25.5735 13.636 24.9948 13.636 24.3163V23.4782C13.0573 23.3385 12.4387 23.2188 11.8001 23.139C11.1615 23.0591 10.5429 23.0192 9.92431 23.0192C8.5873 23.0192 7.60949 23.2786 6.95096 23.8174C6.29243 24.3562 5.97315 25.1145 5.97315 26.1123C5.97315 27.0502 6.21261 27.7487 6.7115 28.2276C7.19042 28.7265 7.88886 28.9659 8.80681 28.9659ZM24.831 31.1211C24.4718 31.1211 24.2323 31.0612 24.0727 30.9216C23.913 30.8018 23.7733 30.5224 23.6536 30.1433L18.9641 14.7178C18.8444 14.3187 18.7845 14.0593 18.7845 13.9196C18.7845 13.6003 18.9441 13.4207 19.2634 13.4207H21.2191C21.5982 13.4207 21.8576 13.4806 21.9973 13.6202C22.157 13.74 22.2767 14.0194 22.3964 14.3985L25.7489 27.609L28.862 14.3985C28.9617 13.9994 29.0815 13.74 29.2411 13.6202C29.4008 13.5005 29.6801 13.4207 30.0393 13.4207H31.6358C32.0149 13.4207 32.2743 13.4806 32.434 13.6202C32.5936 13.74 32.7333 14.0194 32.8131 14.3985L35.9661 27.7686L39.4184 14.3985C39.5381 13.9994 39.6778 13.74 39.8175 13.6202C39.9771 13.5005 40.2365 13.4207 40.5957 13.4207H42.4516C42.7709 13.4207 42.9505 13.5803 42.9505 13.9196C42.9505 14.0194 42.9305 14.1191 42.9105 14.2389C42.8906 14.3586 42.8507 14.5182 42.7709 14.7377L37.9616 30.1632C37.8419 30.5624 37.7022 30.8218 37.5425 30.9415C37.3829 31.0612 37.1235 31.1411 36.7842 31.1411H35.0681C34.6889 31.1411 34.4295 31.0812 34.2699 30.9415C34.1102 30.8018 33.9705 30.5424 33.8907 30.1433L30.7976 17.2721L27.7245 30.1233C27.6247 30.5224 27.505 30.7819 27.3454 30.9216C27.1857 31.0612 26.9063 31.1211 26.5471 31.1211H24.831ZM50.4736 31.6599C49.4359 31.6599 48.3983 31.5402 47.4005 31.3007C46.4027 31.0612 45.6245 30.8018 45.1056 30.5025C44.7864 30.3229 44.5668 30.1233 44.487 29.9437C44.4072 29.7641 44.3673 29.5646 44.3673 29.385V28.3673C44.3673 27.9482 44.5269 27.7487 44.8263 27.7487C44.946 27.7487 45.0657 27.7686 45.1855 27.8085C45.3052 27.8484 45.4848 27.9282 45.6843 28.0081C46.3628 28.3074 47.1012 28.5469 47.8794 28.7065C48.6776 28.8662 49.4559 28.946 50.2541 28.946C51.5113 28.946 52.4891 28.7265 53.1676 28.2874C53.8461 27.8484 54.2053 27.2099 54.2053 26.3917C54.2053 25.8329 54.0257 25.374 53.6665 24.9948C53.3073 24.6157 52.6288 24.2764 51.651 23.9571L48.7575 23.0591C47.3007 22.6002 46.2231 21.9217 45.5646 21.0237C44.9061 20.1457 44.5668 19.1678 44.5668 18.1302C44.5668 17.292 44.7464 16.5537 45.1056 15.9151C45.4648 15.2765 45.9438 14.7178 46.5424 14.2788C47.1411 13.8198 47.8196 13.4806 48.6178 13.2411C49.416 13.0016 50.2541 12.9019 51.1322 12.9019C51.5712 12.9019 52.0301 12.9218 52.4692 12.9817C52.9281 13.0415 53.3472 13.1214 53.7663 13.2012C54.1654 13.301 54.5445 13.4007 54.9037 13.5205C55.2629 13.6402 55.5423 13.7599 55.7418 13.8797C56.0212 14.0393 56.2208 14.199 56.3405 14.3786C56.4602 14.5382 56.5201 14.7577 56.5201 15.0371V15.975C56.5201 16.394 56.3605 16.6136 56.0611 16.6136C55.9015 16.6136 55.6421 16.5337 55.3028 16.3741C54.1654 15.8553 52.8882 15.5958 51.4714 15.5958C50.3339 15.5958 49.4359 15.7754 48.8173 16.1546C48.1987 16.5337 47.8794 17.1124 47.8794 17.9306C47.8794 18.4894 48.079 18.9683 48.4781 19.3474C48.8772 19.7266 49.6155 20.1057 50.6732 20.445L53.5068 21.343C54.9436 21.802 55.9813 22.4405 56.5999 23.2587C57.2185 24.0769 57.5179 25.0148 57.5179 26.0524C57.5179 26.9105 57.3383 27.6888 56.999 28.3673C56.6398 29.0458 56.1609 29.6444 55.5423 30.1233C54.9237 30.6222 54.1853 30.9814 53.3272 31.2408C52.4293 31.5202 51.4914 31.6599 50.4736 31.6599Z" fill="#252F3E"/>
<path d="M54.2451 41.3584C47.6798 46.2076 38.1411 48.7818 29.9394 48.7818C18.4452 48.7818 8.08831 44.5313 0.265809 37.4671C-0.352808 36.9084 0.205943 36.1501 0.944291 36.5891C9.40537 41.4981 19.842 44.4715 30.6379 44.4715C37.9216 44.4715 45.9237 42.9549 53.2872 39.8418C54.3848 39.3429 55.3227 40.5602 54.2451 41.3584ZM56.979 38.2454C56.1408 37.1678 51.4314 37.7266 49.2962 37.986C48.6576 38.0658 48.5578 37.5071 49.1365 37.088C52.8881 34.4539 59.0543 35.2122 59.7727 36.0902C60.4911 36.9882 59.5732 43.1544 56.061 46.1078C55.5222 46.5668 55.0034 46.3273 55.2429 45.7287C56.0411 43.7531 57.8171 39.303 56.979 38.2454Z" fill="#FF9900"/>
</svg>
