<svg width="37" height="36" viewBox="0 0 37 36" fill="none" xmlns="http://www.w3.org/2000/svg">
<path d="M15.4664 2.65039C13.4133 4.04961 12.4781 4.73164 12.4219 4.8582C12.3024 5.13945 12.4008 5.41367 12.675 5.52617C12.9492 5.6457 13.0617 5.60352 13.6524 5.20977L14.0742 4.92148L14.1094 7.52305L14.1446 10.1246L14.3766 10.3496C14.5946 10.5746 14.6227 10.5816 15.2696 10.6027L15.9375 10.6309V8.95039C15.9375 7.05898 15.9938 6.69336 16.3875 6.04648C17.0063 5.02695 18.293 4.50664 19.425 4.81602C20.325 5.05508 21.0141 5.67383 21.3656 6.53867C21.5133 6.89727 21.5274 7.05898 21.5485 8.77461L21.5696 10.6309L22.2375 10.6027C22.8774 10.5816 22.9055 10.5746 23.1235 10.3496L23.3555 10.1246L23.3906 7.52305L23.4258 4.92148L23.8477 5.20977C24.4383 5.60352 24.5508 5.6457 24.825 5.52617C25.0992 5.41367 25.1977 5.13945 25.0781 4.8582C25.0219 4.73164 24.1008 4.06367 22.0547 2.67148C19.2985 0.79414 19.0946 0.667578 18.7711 0.646484C18.4336 0.632421 18.4196 0.639453 15.4664 2.65039Z" fill="#392C7D"/>
<path d="M18.0961 5.72344C17.7656 5.84297 17.4 6.12422 17.2031 6.40547C16.8937 6.82734 16.8516 7.15781 16.8516 8.94375V10.6172H18.75H20.6484V8.94375C20.6484 7.07344 20.5992 6.76406 20.2266 6.30703C19.868 5.88516 19.4531 5.67422 18.8625 5.64609C18.5461 5.63203 18.2648 5.66016 18.0961 5.72344Z" fill="#392C7D"/>
<path d="M5.70708 5.74473C3.73833 6.1877 2.25474 7.56582 1.72036 9.47129C1.60786 9.88613 1.56567 10.2166 1.56567 10.8283C1.56567 11.8127 1.67817 12.2979 2.13521 13.2189C2.40239 13.7744 2.56411 13.9924 3.06333 14.4916C3.56255 14.9908 3.78052 15.1525 4.33599 15.4197C5.25708 15.8768 5.74224 15.9893 6.72661 15.9893C7.33833 15.9893 7.6688 15.9471 8.08364 15.8346C9.9188 15.3143 11.2618 13.9361 11.7258 12.0939C11.9438 11.2502 11.8946 9.97754 11.6204 9.17598C11.1774 7.88926 10.3125 6.88379 9.10317 6.25801C8.30864 5.84316 7.65474 5.69551 6.66333 5.70254C6.21333 5.70957 5.78442 5.72363 5.70708 5.74473ZM7.00786 7.45332C7.1063 7.55176 7.14849 7.68535 7.14849 7.90332C7.14849 8.16348 7.17661 8.22676 7.29614 8.26191C7.50005 8.33223 7.97817 8.7752 8.10474 9.00723C8.16099 9.11973 8.20317 9.27441 8.20317 9.35879C8.20317 9.74551 7.68286 9.92129 7.4438 9.61895C7.11333 9.2041 6.94458 9.07051 6.72661 9.07051C6.41724 9.07051 6.24146 9.18301 6.12896 9.44316C5.92505 9.92832 6.2063 10.3361 6.79692 10.3924C7.65474 10.4697 8.31567 11.215 8.25942 12.0307C8.21724 12.5791 7.94302 13.0291 7.50005 13.2752C7.16255 13.458 7.14849 13.4791 7.14849 13.7744C7.14849 14.1471 7.00083 14.3439 6.71958 14.3439C6.45942 14.3439 6.23442 14.0557 6.23442 13.7182C6.22739 13.4932 6.19224 13.4439 5.91802 13.2752C5.62271 13.0924 5.3063 12.7057 5.22192 12.4033C5.15864 12.1994 5.4188 11.883 5.65083 11.883C5.85474 11.883 6.0938 12.0588 6.0938 12.2064C6.0938 12.3752 6.45239 12.5861 6.74067 12.5861C7.12036 12.5861 7.35942 12.34 7.35942 11.9533C7.35942 11.5525 7.14849 11.3557 6.66333 11.2924C5.74927 11.1729 5.17974 10.5611 5.17974 9.71738C5.17974 9.14785 5.39067 8.76113 5.8688 8.4377C6.2063 8.21973 6.23442 8.17754 6.23442 7.93145C6.23442 7.73457 6.28364 7.60801 6.41021 7.48848C6.61411 7.27754 6.81802 7.26348 7.00786 7.45332Z" fill="#392C7D"/>
<path d="M29.4516 5.83588C28.0664 6.2015 26.8711 7.15775 26.2031 8.4515C25.8023 9.21088 25.6406 9.90697 25.6406 10.8281C25.6406 13.2538 27.1523 15.2226 29.5078 15.8624C30.1195 16.0242 31.4133 16.0312 32.0391 15.8695C32.2922 15.8062 32.7984 15.6023 33.1641 15.4195C33.7195 15.1523 33.9375 14.9906 34.4367 14.4913C34.9359 13.9921 35.0977 13.7742 35.3648 13.2187C35.8219 12.2976 35.9344 11.8124 35.9344 10.8281C35.9344 9.87182 35.8148 9.35854 35.4211 8.54291C34.7391 7.16479 33.5719 6.2226 32.0742 5.83588C31.343 5.64604 30.1687 5.64604 29.4516 5.83588ZM33.2625 8.38822C33.4383 8.48666 33.6 8.66244 33.7055 8.85932C33.8602 9.14057 33.8742 9.24604 33.8531 9.83666L33.832 10.4906L33.5367 10.7578L33.2344 11.0249V11.946C33.2344 13.507 33.2414 13.4999 30.8156 13.4999C28.3477 13.4999 28.3687 13.514 28.3125 11.9882L28.2773 10.9828L28.0734 10.821C27.7992 10.6031 27.6797 10.2796 27.6797 9.75229C27.6797 9.0351 27.8625 8.66244 28.3477 8.3601C28.5445 8.24057 28.7344 8.2265 30.7734 8.2265C32.932 8.2265 32.9953 8.23354 33.2625 8.38822Z" fill="#392C7D"/>
<path d="M28.6781 9.225C28.6289 9.27422 28.5938 9.49219 28.5938 9.71719C28.5938 10.0969 28.6078 10.125 28.7555 10.125C28.8469 10.125 28.9875 10.1953 29.0719 10.2867C29.2195 10.4414 29.2266 10.5187 29.2266 11.5172V12.5859H30.7664H32.3133L32.3344 11.5031C32.3555 10.5539 32.3695 10.3992 32.4891 10.2727C32.5664 10.1883 32.7 10.125 32.7914 10.125C32.9531 10.125 32.9602 10.1109 32.9391 9.64688L32.918 9.17578L30.8438 9.15469C29.2828 9.14062 28.7414 9.16172 28.6781 9.225Z" fill="#392C7D"/>
<path d="M18.6094 11.2289C18.2789 11.3484 18.2578 11.4258 18.2578 12.5859C18.2578 13.8305 18.293 13.9219 18.7641 13.9219C19.2 13.9219 19.2422 13.8094 19.2422 12.5719C19.2422 11.6227 19.2281 11.468 19.1227 11.3766C18.968 11.243 18.75 11.1797 18.6094 11.2289Z" fill="#FF4667"/>
<path d="M11.8031 13.6125C11.6484 13.718 11.5921 14.0484 11.6906 14.3016C11.7468 14.4563 14.039 15.75 14.257 15.75C14.6789 15.75 14.8968 15.1453 14.5874 14.857C14.2992 14.6039 12.3164 13.5 12.1335 13.5C12.0421 13.5 11.8874 13.5492 11.8031 13.6125Z" fill="#FF4667"/>
<path d="M24.1289 14.1047C23.0039 14.7445 22.7578 14.9484 22.7578 15.2297C22.7578 15.4477 23.0531 15.75 23.2641 15.75C23.468 15.75 25.7602 14.4352 25.8516 14.2664C25.957 14.0695 25.9359 13.8867 25.7742 13.6828C25.5281 13.3734 25.3031 13.4297 24.1289 14.1047Z" fill="#FF4667"/>
<path d="M17.7375 15.2297C16.3735 15.5602 15.2274 16.657 14.7985 18.0352C14.5805 18.7172 14.5805 19.7437 14.7985 20.4258C15.3329 22.1555 16.929 23.3367 18.729 23.3438C19.4321 23.3438 19.8821 23.2383 20.5782 22.9078C21.5907 22.4227 22.329 21.5578 22.6946 20.4258C22.9196 19.7437 22.9196 18.7242 22.7016 18.0352C22.2797 16.6641 21.1477 15.5883 19.7696 15.2227C19.2563 15.0891 18.293 15.0961 17.7375 15.2297Z" fill="#392C7D"/>
<path d="M4.56094 17.5783C3.68203 17.8104 2.97891 18.2252 2.25469 18.9494C1.2 19.9971 0.75 21.0869 0.75 22.5705C0.75 24.9682 2.21953 26.9158 4.52578 27.5768C4.96875 27.7033 5.24297 27.7314 5.95312 27.7314C6.74062 27.7244 6.89531 27.7033 7.46484 27.5135C7.81641 27.3939 8.30859 27.176 8.55469 27.0283C9.13125 26.6979 10.0031 25.826 10.3336 25.2635C12.0984 22.233 10.5445 18.4361 7.18359 17.5783C6.45234 17.3885 5.27812 17.3885 4.56094 17.5783ZM6.48047 19.6877C6.83906 19.9127 7.00781 20.2924 7.00781 20.9041V21.4244L7.59141 21.4596C7.93594 21.4807 8.25937 21.5369 8.39297 21.6072C8.92031 21.8885 9.14531 22.6619 8.82187 23.126C8.51953 23.5689 8.32969 23.6604 7.64062 23.6814L7.02187 23.7096L6.99375 24.3283C6.97969 24.8205 6.94453 24.9893 6.825 25.1439C6.45234 25.6502 5.85469 25.7979 5.3625 25.5096C4.94766 25.2705 4.80703 24.9752 4.77187 24.2791L4.73672 23.6955H4.21641C3.59766 23.6955 3.28828 23.576 3.02813 23.2314C2.76797 22.8939 2.73281 22.5143 2.92266 22.1205C3.15469 21.6564 3.45 21.4947 4.17422 21.4596L4.75781 21.4244V20.9955C4.75781 20.4049 4.85625 20.1096 5.13047 19.8424C5.52422 19.4557 6.01641 19.4064 6.48047 19.6877Z" fill="#392C7D"/>
<path d="M30.2953 17.5781C26.3367 18.6188 25.0992 23.6109 28.1156 26.4023C28.6781 26.9156 29.5851 27.4078 30.3515 27.6117C31.0406 27.7945 32.271 27.7734 32.9742 27.5766C34.8023 27.0563 36.1453 25.6922 36.6093 23.8711C36.7992 23.1258 36.7992 22.0148 36.6093 21.2766C36.1523 19.4977 34.6898 18.0352 32.9109 17.5781C32.1867 17.3883 31.0124 17.3953 30.2953 17.5781ZM30.7593 20.0039C30.9632 20.0672 31.2304 20.2078 31.357 20.3203L31.589 20.5172L31.7578 20.3836C32.2992 19.9547 32.8335 19.8352 33.4101 20.0039C34.1273 20.2078 34.6195 20.8195 34.6898 21.5859C34.7531 22.275 34.5984 22.507 33.1359 23.9625C31.7718 25.3266 31.7085 25.3688 31.2796 25.1438C30.9421 24.968 28.8187 22.7531 28.664 22.4227C28.3265 21.6703 28.5867 20.7211 29.2546 20.2641C29.8101 19.8914 30.1687 19.8281 30.7593 20.0039Z" fill="#392C7D"/>
<path d="M29.8735 20.932C29.4727 21.1289 29.311 21.7055 29.536 22.1344C29.5922 22.2398 30.0774 22.7602 30.6118 23.2875L31.5821 24.2578L32.6649 23.175C33.7266 22.1133 33.7477 22.0852 33.7758 21.7477C33.811 21.4313 33.7899 21.375 33.593 21.143C33.1922 20.693 32.7563 20.7141 32.1797 21.2063C31.7016 21.6141 31.4766 21.6211 31.0477 21.2484C30.5133 20.7773 30.2954 20.7211 29.8735 20.932Z" fill="#392C7D"/>
<path d="M12.457 20.707C11.5711 20.9531 11.3672 21.0867 11.3672 21.4242C11.3672 21.6281 11.6555 21.9375 11.8523 21.9375C12.1336 21.9375 13.7719 21.4523 13.9055 21.3328C14.1023 21.157 14.0883 20.7141 13.8844 20.5734C13.6594 20.4188 13.4133 20.4398 12.457 20.707Z" fill="#FF4667"/>
<path d="M23.6157 20.5734C23.4118 20.7141 23.3977 21.157 23.5946 21.3328C23.7282 21.4523 25.3665 21.9375 25.6337 21.9375C25.704 21.9375 25.8376 21.8813 25.929 21.8039C26.1259 21.6492 26.154 21.2203 25.9782 21.0516C25.8587 20.925 24.2485 20.4609 23.9532 20.4609C23.8548 20.4609 23.7001 20.5102 23.6157 20.5734Z" fill="#FF4667"/>
<path d="M15.8531 24.5389C13.6101 24.9326 11.789 26.4303 11.0578 28.4623L10.8398 29.074L10.8187 31.7248C10.7976 34.235 10.8047 34.3826 10.9312 34.6428C11.0929 34.9451 11.2336 35.0928 11.557 35.2545C11.7398 35.3459 12.0211 35.367 13.0547 35.367H14.3203V32.7021C14.3203 30.2342 14.3273 30.0303 14.4468 29.8826C14.6156 29.6717 14.939 29.6717 15.1078 29.8826C15.2273 30.0303 15.2343 30.2342 15.2343 32.7021V35.367H18.75H22.2656V32.7021C22.2656 30.2342 22.2726 30.0303 22.3922 29.8826C22.5609 29.6717 22.8843 29.6717 23.0531 29.8826C23.1726 30.0303 23.1797 30.2342 23.1797 32.7092V35.374L24.5367 35.3529L25.9007 35.3318L26.1539 35.135C26.3015 35.0225 26.4773 34.8115 26.5617 34.6568C26.7023 34.3826 26.7023 34.2771 26.6812 31.7248L26.6601 29.074L26.4422 28.4623C25.7812 26.6201 24.3117 25.2842 22.2586 24.6725C21.7593 24.5178 21.6047 24.5107 18.9609 24.4967C17.4351 24.4896 16.0359 24.5037 15.8531 24.5389Z" fill="#392C7D"/>
</svg>
