<svg width="37" height="36" viewBox="0 0 37 36" fill="none" xmlns="http://www.w3.org/2000/svg">
<g clip-path="url(#clip0_450_58629)">
<path d="M16.0281 0.351562C15.6625 0.499218 15.6484 0.597656 15.6484 2.57344V4.41562L15.4234 4.46484C14.5375 4.65469 13.1734 5.19609 12.2102 5.7375L11.6266 6.06094L10.3469 4.78828C8.91953 3.36797 8.78594 3.28359 8.32187 3.57187C8.19531 3.64922 7.46406 4.34531 6.70469 5.11875C4.8625 6.975 4.86953 6.67969 6.62031 8.44453L7.92812 9.75937L7.59766 10.343C7.14062 11.1586 6.69766 12.2273 6.46562 13.0641L6.26875 13.7742L4.37734 13.7953L2.48594 13.8164L2.31719 14.0133L2.14844 14.2102V16.3898V18.5766L2.35234 18.7805C2.54922 18.9703 2.59141 18.9844 3.15391 18.9844C3.71641 18.9844 3.75156 18.9773 3.79375 18.8227C3.85703 18.5625 4.34922 17.8523 4.68672 17.5219C5.83984 16.418 7.45 16.1437 8.92656 16.7906C9.11641 16.875 9.27812 16.9453 9.29219 16.9453C9.30625 16.9453 9.32031 16.6148 9.32031 16.2141C9.32031 14.4633 9.91797 12.6492 10.9867 11.1656C11.4789 10.4766 12.5687 9.41484 13.2227 8.98594C16.3375 6.93281 20.1695 6.92578 23.2703 8.97891C23.9312 9.41484 25.0141 10.4766 25.5133 11.1656C26.582 12.6492 27.1797 14.4633 27.1797 16.2141C27.1797 16.6148 27.1937 16.9453 27.2078 16.9453C27.2219 16.9453 27.3836 16.875 27.5734 16.7906C28.7477 16.2773 30.2172 16.3617 31.1805 17.0086C31.8203 17.4375 32.5938 18.3516 32.7062 18.8227C32.7484 18.9773 32.7836 18.9844 33.3461 18.9844C33.9086 18.9844 33.9508 18.9703 34.1477 18.7805L34.3516 18.5766V16.3898V14.2102L34.1828 14.0133L34.0141 13.8164L32.1227 13.7953L30.2383 13.7742L30.0766 13.1695C29.8445 12.3117 29.4156 11.257 28.9586 10.4484L28.5719 9.75937L29.8797 8.44453C31.0398 7.27734 31.1875 7.10156 31.1875 6.89766C31.1875 6.77812 31.1453 6.58828 31.0891 6.48281C30.9203 6.16641 28.2203 3.52969 28.0023 3.48047C27.6156 3.38203 27.4469 3.50156 26.1602 4.78828L24.8875 6.05391L23.9453 5.56172C23.0242 5.09062 21.9836 4.68281 21.2242 4.5L20.8516 4.41562V2.56641V0.710155L20.6828 0.513281L20.5141 0.316406L18.3414 0.302343C17.1531 0.295311 16.1055 0.316406 16.0281 0.351562Z" fill="#392C7D"/>
<path d="M17.0899 8.71875C16.0422 8.8875 14.6571 9.42891 13.8555 9.98437C12.6321 10.8422 11.6125 12.1078 11.0782 13.4508C10.6422 14.5547 10.5579 15.0258 10.5579 16.3828C10.5579 17.4867 10.579 17.6836 10.7407 18.2953C10.8461 18.668 10.9938 19.118 11.0711 19.2937L11.2118 19.6172H13.0891C14.5586 19.6172 14.9524 19.5961 14.9243 19.5258C14.5516 18.6891 14.4954 18.4922 14.4672 17.9016C14.4321 17.1844 14.5235 16.6781 14.8047 16.0664C15.1985 15.1875 15.993 14.4633 16.9563 14.0836C17.3852 13.9148 17.5399 13.8937 18.25 13.8937C18.9602 13.8937 19.1149 13.9148 19.5438 14.0836C20.5071 14.4633 21.3016 15.1875 21.6954 16.0664C21.9766 16.6781 22.068 17.1844 22.0329 17.9016C22.0047 18.4922 21.9485 18.6891 21.5758 19.5328C21.5477 19.6031 21.9274 19.6172 23.425 19.6031L25.3165 19.582L25.4782 19.1742C25.8649 18.1969 25.9493 17.6977 25.9422 16.3477C25.9422 15.293 25.9141 14.9977 25.7946 14.5547C24.979 11.5945 22.9399 9.5625 20.0711 8.85937C19.3891 8.69062 17.7719 8.61328 17.0899 8.71875Z" fill="#FF4667"/>
<path d="M17.6874 15.1457C16.5273 15.4059 15.7468 16.3129 15.6695 17.5012C15.5921 18.6684 16.253 19.702 17.3359 20.1168C17.814 20.2996 18.6859 20.2996 19.164 20.1168C20.2609 19.702 20.9218 18.6543 20.8304 17.473C20.739 16.2707 19.9093 15.3426 18.707 15.1246C18.2218 15.0332 18.1866 15.0332 17.6874 15.1457Z" fill="#392C7D"/>
<path d="M6.48682 17.7828C5.76963 18.0219 5.15791 18.6125 4.88369 19.3368C4.70088 19.8149 4.70088 20.6868 4.88369 21.1649C5.48838 22.7469 7.39385 23.3446 8.80713 22.3813C10.4384 21.2774 10.2345 18.7461 8.4415 17.8953C7.88603 17.6352 7.07744 17.586 6.48682 17.7828Z" fill="#392C7D"/>
<path d="M28.5438 17.7124C27.8688 17.8741 27.1868 18.4155 26.8704 19.0343C26.2727 20.2296 26.6524 21.7343 27.7282 22.4163C29.1626 23.3304 31.0188 22.7257 31.6165 21.1648C31.7993 20.6866 31.7993 19.8148 31.6165 19.3366C31.1524 18.1202 29.8165 17.4101 28.5438 17.7124Z" fill="#392C7D"/>
<path d="M14.6641 22.2613C13.4195 22.5285 12.2172 23.4637 11.6477 24.6098C11.1625 25.6012 11.1484 25.7207 11.1484 29.8199C11.1484 33.884 11.1414 33.8348 11.6477 34.4043C12.0273 34.8402 12.4563 35.023 13.1734 35.0723L13.75 35.1074V30.5934V26.0863H14.3828H15.0156V30.5863V35.0863H18.25H21.4844V30.5863V26.0863H22.1172H22.75V30.5934V35.1074L23.3336 35.0723C24.0438 35.023 24.4727 34.8402 24.8523 34.4043C25.3586 33.8348 25.3516 33.884 25.3516 29.8199C25.3516 25.7207 25.3375 25.6012 24.8523 24.6098C24.2758 23.4496 23.0805 22.5215 21.8008 22.2543C21.1047 22.1066 15.3461 22.1137 14.6641 22.2613Z" fill="#392C7D"/>
<path d="M3.60391 24.8625C2.45781 25.1367 1.31172 26.0437 0.763281 27.1055C0.285156 28.0266 0.25 28.2656 0.25 30.4664C0.25 32.2031 0.264062 32.4422 0.390625 32.857C0.7 33.8484 1.65625 34.7484 2.66172 34.9734L2.85156 35.0156V31.5V27.9844H3.44922H4.04688V31.5352V35.0859H7.31641C9.11641 35.0859 10.5859 35.0719 10.5859 35.0508C10.5859 35.0297 10.4945 34.868 10.382 34.6852C9.95312 33.982 9.95312 33.9469 9.95312 29.8195C9.95312 25.9805 9.95312 26.0297 10.2133 24.9047L10.2484 24.75L7.13359 24.757C4.70078 24.757 3.92031 24.7852 3.60391 24.8625Z" fill="#392C7D"/>
<path d="M26.3008 24.9398C26.5328 25.8609 26.5469 26.0719 26.5469 29.8195C26.5469 33.9469 26.5469 33.982 26.118 34.6852C26.0055 34.868 25.9141 35.0297 25.9141 35.0508C25.9141 35.0719 27.3836 35.0859 29.1836 35.0859H32.4531V31.5352V27.9844H33.0508H33.6484V31.5V35.0156L33.8453 34.9734C34.8438 34.7414 35.807 33.8414 36.1094 32.857C36.2359 32.4422 36.25 32.2031 36.25 30.4875C36.25 28.3008 36.2008 28.0055 35.7437 27.1125C35.343 26.3391 34.6609 25.657 33.8875 25.2563C32.9312 24.7641 32.8187 24.75 29.3312 24.75H26.2516L26.3008 24.9398Z" fill="#392C7D"/>
</g>
<defs>
<clipPath id="clip0_450_58629">
<rect width="36" height="36" fill="white" transform="translate(0.25)"/>
</clipPath>
</defs>
</svg>
