<svg width="60" height="61" viewBox="0 0 60 61" fill="none" xmlns="http://www.w3.org/2000/svg">
<g clip-path="url(#clip0_323_41711)">
<path fill-rule="evenodd" clip-rule="evenodd" d="M29.6744 49.1738C29.471 49.1738 29.2811 49.1195 29.1048 49.0246L27.301 47.9532C27.0297 47.804 27.1654 47.7497 27.2467 47.7226C27.6129 47.6006 27.6807 47.5734 28.0605 47.3564C28.1012 47.3293 28.1554 47.3429 28.1961 47.37L29.5795 48.1973C29.6337 48.2244 29.7015 48.2244 29.7422 48.1973L35.1536 45.0644C35.2079 45.0373 35.235 44.983 35.235 44.9152V38.6629C35.235 38.5951 35.2079 38.5409 35.1536 38.5138L29.7422 35.3944C29.688 35.3673 29.6202 35.3673 29.5795 35.3944L24.1681 38.5138C24.1138 38.5409 24.0867 38.6087 24.0867 38.6629V44.9152C24.0867 44.9695 24.1138 45.0373 24.1681 45.0644L25.6464 45.9188C26.4466 46.3257 26.9484 45.851 26.9484 45.3763V39.2054C26.9484 39.1241 27.0162 39.0427 27.1111 39.0427H27.8028C27.8842 39.0427 27.9656 39.1105 27.9656 39.2054V45.3763C27.9656 46.4478 27.3824 47.0716 26.3652 47.0716C26.0533 47.0716 25.8091 47.0716 25.1175 46.7326L23.6934 45.9188C23.3408 45.7154 23.1238 45.3356 23.1238 44.9288V38.6765C23.1238 38.2696 23.3408 37.8899 23.6934 37.6864L29.1048 34.5535C29.4439 34.3637 29.905 34.3637 30.244 34.5535L35.6554 37.6864C36.008 37.8899 36.225 38.2696 36.225 38.6765V44.9288C36.225 45.3356 36.008 45.7154 35.6554 45.9188L30.244 49.0517C30.0677 49.1331 29.8643 49.1738 29.6744 49.1738ZM31.3426 44.8745C28.9692 44.8745 28.4809 43.7895 28.4809 42.8673C28.4809 42.7859 28.5487 42.7045 28.6437 42.7045H29.3489C29.4303 42.7045 29.4981 42.7588 29.4981 42.8402C29.6066 43.559 29.9185 43.9116 31.3561 43.9116C32.4954 43.9116 32.9836 43.6539 32.9836 43.0436C32.9836 42.691 32.848 42.4333 31.0713 42.257C29.593 42.1078 28.6708 41.7823 28.6708 40.6024C28.6708 39.5038 29.593 38.8528 31.1392 38.8528C32.8751 38.8528 33.7296 39.4496 33.8381 40.7515C33.8381 40.7922 33.8245 40.8329 33.7974 40.8736C33.7703 40.9007 33.7296 40.9279 33.6889 40.9279H32.9836C32.9158 40.9279 32.848 40.8736 32.8344 40.8058C32.6717 40.0599 32.2513 39.8157 31.1392 39.8157C29.8914 39.8157 29.7422 40.2497 29.7422 40.5752C29.7422 40.9685 29.9185 41.0906 31.6003 41.3076C33.2684 41.5246 34.0551 41.8365 34.0551 43.0029C34.0415 44.1964 33.065 44.8745 31.3426 44.8745Z" fill="#539E43"/>
<path fill-rule="evenodd" clip-rule="evenodd" d="M12.8843 24.7206C12.8843 24.4765 12.7486 24.2459 12.5316 24.1239L6.78119 20.8147C6.68626 20.7604 6.57776 20.7333 6.46926 20.7197H6.41501C6.30651 20.7197 6.19801 20.7604 6.10308 20.8147L0.352622 24.1239C0.135624 24.2459 0 24.4765 0 24.7206L0.0135624 33.6176C0.0135624 33.7396 0.0813743 33.8617 0.189873 33.9159C0.298373 33.9837 0.433996 33.9837 0.528933 33.9159L3.94666 31.9629C4.16365 31.8409 4.29928 31.6103 4.29928 31.3662V27.2025C4.29928 26.9584 4.4349 26.7279 4.6519 26.6058L6.10308 25.7649C6.21157 25.6971 6.33364 25.67 6.4557 25.67C6.57776 25.67 6.69982 25.6971 6.79476 25.7649L8.24593 26.6058C8.46293 26.7279 8.59856 26.9584 8.59856 27.2025V31.3662C8.59856 31.6103 8.73418 31.8409 8.95118 31.9629L12.3689 33.9159C12.4774 33.9837 12.613 33.9837 12.7215 33.9159C12.83 33.8617 12.8978 33.7396 12.8978 33.6176L12.8843 24.7206Z" fill="#333333"/>
<path fill-rule="evenodd" clip-rule="evenodd" d="M40.5243 12.4738C40.4158 12.4195 40.2802 12.4195 40.1853 12.4738C40.0768 12.5416 40.009 12.6501 40.009 12.7722V21.5877C40.009 21.6691 39.9683 21.7505 39.8869 21.8047C39.8055 21.8454 39.7241 21.8454 39.6428 21.8047L38.2052 20.9774C37.9882 20.8553 37.7305 20.8553 37.5135 20.9774L31.763 24.3002C31.546 24.4223 31.4104 24.6528 31.4104 24.8969V31.5289C31.4104 31.7731 31.546 32.0036 31.763 32.1257L37.5135 35.4485C37.7305 35.5705 37.9882 35.5705 38.2052 35.4485L43.9556 32.1257C44.1726 32.0036 44.3082 31.7731 44.3082 31.5289V14.9964C44.3082 14.7387 44.1726 14.5082 43.9556 14.3861L40.5243 12.4738ZM39.9953 29.3454C39.9953 29.4132 39.9682 29.4675 39.914 29.4946L37.9474 30.6338C37.8932 30.661 37.8254 30.661 37.7711 30.6338L35.8046 29.4946C35.7503 29.4675 35.7232 29.3997 35.7232 29.3454V27.0669C35.7232 26.9991 35.7503 26.9449 35.8046 26.9177L37.7711 25.7785C37.8254 25.7514 37.8932 25.7514 37.9474 25.7785L39.914 26.9177C39.9682 26.9449 39.9953 27.0127 39.9953 27.0669V29.3454Z" fill="#333333"/>
<path fill-rule="evenodd" clip-rule="evenodd" d="M59.661 27.0129C59.878 26.8908 60.0001 26.6603 60.0001 26.4161V24.8022C60.0001 24.5581 59.8645 24.3275 59.661 24.2055L53.9513 20.8962C53.7343 20.7742 53.4766 20.7742 53.2596 20.8962L47.5091 24.219C47.2921 24.3411 47.1565 24.5716 47.1565 24.8158V31.4478C47.1565 31.6919 47.2921 31.9225 47.5091 32.0445L53.2189 35.2995C53.4359 35.4216 53.6936 35.4216 53.897 35.2995L57.3554 33.3736C57.4639 33.3194 57.5317 33.1973 57.5317 33.0753C57.5317 32.9532 57.4639 32.8311 57.3554 32.7769L51.5778 29.4541C51.4693 29.3863 51.4015 29.2778 51.4015 29.1557V27.0807C51.4015 26.9586 51.4693 26.8366 51.5778 26.7823L53.3816 25.7516C53.4901 25.6838 53.6258 25.6838 53.7343 25.7516L55.538 26.7823C55.6465 26.8501 55.7144 26.9586 55.7144 27.0807V28.7082C55.7144 28.8302 55.7822 28.9523 55.8907 29.0065C55.9992 29.0744 56.1348 29.0744 56.2433 29.0065L59.661 27.0129Z" fill="#333333"/>
<path fill-rule="evenodd" clip-rule="evenodd" d="M53.5172 26.701C53.5579 26.6739 53.6121 26.6739 53.6528 26.701L54.7514 27.3384C54.7921 27.3656 54.8192 27.4063 54.8192 27.4605V28.7354C54.8192 28.7896 54.7921 28.8303 54.7514 28.8574L53.6528 29.4949C53.6121 29.522 53.5579 29.522 53.5172 29.4949L52.4186 28.8574C52.378 28.8303 52.3508 28.7896 52.3508 28.7354V27.4605C52.3508 27.4063 52.378 27.3656 52.4186 27.3384L53.5172 26.701Z" fill="#539E43"/>
<path fill-rule="evenodd" clip-rule="evenodd" d="M22.5 20.9231C22.283 20.801 22.0253 20.801 21.8083 20.9231L16.0986 24.2187C15.8816 24.3408 15.7595 24.5714 15.7595 24.8155V31.4204C15.7595 31.6645 15.8951 31.8951 16.0986 32.0171L21.8083 35.3128C22.0253 35.4348 22.283 35.4348 22.5 35.3128L28.2098 32.0171C28.4268 31.8951 28.5489 31.6645 28.5489 31.4204V24.8155C28.5489 24.5714 28.4132 24.3408 28.2098 24.2187L22.5 20.9231Z" fill="white"/>
<path fill-rule="evenodd" clip-rule="evenodd" d="M22.5 20.9231C22.283 20.801 22.0253 20.801 21.8083 20.9231L16.0986 24.2187C15.8816 24.3408 15.7595 24.5714 15.7595 24.8155V31.4204C15.7595 31.6645 15.8951 31.8951 16.0986 32.0171L21.8083 35.3128C22.0253 35.4348 22.283 35.4348 22.5 35.3128L28.2098 32.0171C28.4268 31.8951 28.5489 31.6645 28.5489 31.4204V24.8155C28.5489 24.5714 28.4132 24.3408 28.2098 24.2187L22.5 20.9231Z" fill="url(#paint0_linear_323_41711)"/>
<mask id="mask0_323_41711" style="mask-type:luminance" maskUnits="userSpaceOnUse" x="15" y="20" width="14" height="16">
<path fill-rule="evenodd" clip-rule="evenodd" d="M22.5 20.9231C22.283 20.801 22.0253 20.801 21.8083 20.9231L16.0986 24.2187C15.8816 24.3408 15.7595 24.5714 15.7595 24.8155V31.4204C15.7595 31.6645 15.8951 31.8951 16.0986 32.0171L21.8083 35.3128C22.0253 35.4348 22.283 35.4348 22.5 35.3128L28.2098 32.0171C28.4268 31.8951 28.5489 31.6645 28.5489 31.4204V24.8155C28.5489 24.5714 28.4132 24.3408 28.2098 24.2187L22.5 20.9231Z" fill="white"/>
</mask>
<g mask="url(#mask0_323_41711)">
<path fill-rule="evenodd" clip-rule="evenodd" d="M28.2234 24.2189L22.4865 20.9233C22.4322 20.8962 22.3644 20.869 22.3102 20.8555L15.8816 31.8681C15.9358 31.9359 16.0037 31.9902 16.0715 32.0309L21.8084 35.3265C21.9711 35.4215 22.161 35.4486 22.3373 35.3944L28.3726 24.3546C28.3319 24.3003 28.2776 24.2596 28.2234 24.2189Z" fill="url(#paint1_linear_323_41711)"/>
</g>
<mask id="mask1_323_41711" style="mask-type:luminance" maskUnits="userSpaceOnUse" x="15" y="20" width="14" height="16">
<path fill-rule="evenodd" clip-rule="evenodd" d="M22.5 20.9231C22.283 20.801 22.0253 20.801 21.8083 20.9231L16.0986 24.2187C15.8816 24.3408 15.7595 24.5714 15.7595 24.8155V31.4204C15.7595 31.6645 15.8951 31.8951 16.0986 32.0171L21.8083 35.3128C22.0253 35.4348 22.283 35.4348 22.5 35.3128L28.2098 32.0171C28.4268 31.8951 28.5489 31.6645 28.5489 31.4204V24.8155C28.5489 24.5714 28.4132 24.3408 28.2098 24.2187L22.5 20.9231Z" fill="white"/>
</mask>
<g mask="url(#mask1_323_41711)">
<path fill-rule="evenodd" clip-rule="evenodd" d="M28.237 32.0173C28.3997 31.9224 28.5218 31.7597 28.576 31.5833L22.2831 20.8419C22.1203 20.8148 21.944 20.8284 21.7948 20.9233L16.0986 24.2054L22.2424 35.4079C22.3238 35.3944 22.4187 35.3673 22.5001 35.3266L28.237 32.0173Z" fill="url(#paint2_linear_323_41711)"/>
<path fill-rule="evenodd" clip-rule="evenodd" d="M28.2369 32.0169L22.5135 35.3126C22.4322 35.3532 22.3508 35.3804 22.2559 35.3939L22.3644 35.5974L28.7116 31.922V31.8406L28.5488 31.5693C28.5217 31.7592 28.3996 31.922 28.2369 32.0169Z" fill="url(#paint3_linear_323_41711)"/>
<path fill-rule="evenodd" clip-rule="evenodd" d="M28.2369 32.0169L22.5135 35.3126C22.4322 35.3532 22.3508 35.3804 22.2559 35.3939L22.3644 35.5974L28.7116 31.922V31.8406L28.5488 31.5693C28.5217 31.7592 28.3996 31.922 28.2369 32.0169Z" fill="url(#paint4_linear_323_41711)"/>
</g>
</g>
<defs>
<linearGradient id="paint0_linear_323_41711" x1="20.921" y1="21.5274" x2="14.8432" y2="28.8826" gradientUnits="userSpaceOnUse">
<stop stop-color="#41873F"/>
<stop offset="0.3288" stop-color="#418B3D"/>
<stop offset="0.6352" stop-color="#419637"/>
<stop offset="0.9319" stop-color="#3FA92D"/>
<stop offset="1" stop-color="#3FAE2A"/>
</linearGradient>
<linearGradient id="paint1_linear_323_41711" x1="24.6616" y1="37.1387" x2="39.8648" y2="31.065" gradientUnits="userSpaceOnUse">
<stop offset="0.1376" stop-color="#41873F"/>
<stop offset="0.4032" stop-color="#54A044"/>
<stop offset="0.7136" stop-color="#66B848"/>
<stop offset="0.9081" stop-color="#6CC04A"/>
</linearGradient>
<linearGradient id="paint2_linear_323_41711" x1="15.551" y1="35.8367" x2="28.7631" y2="35.8367" gradientUnits="userSpaceOnUse">
<stop offset="0.0919165" stop-color="#6CC04A"/>
<stop offset="0.2864" stop-color="#66B848"/>
<stop offset="0.5968" stop-color="#54A044"/>
<stop offset="0.8624" stop-color="#41873F"/>
</linearGradient>
<linearGradient id="paint3_linear_323_41711" x1="15.5509" y1="37.7163" x2="28.763" y2="37.7163" gradientUnits="userSpaceOnUse">
<stop offset="0.0919165" stop-color="#6CC04A"/>
<stop offset="0.2864" stop-color="#66B848"/>
<stop offset="0.5968" stop-color="#54A044"/>
<stop offset="0.8624" stop-color="#41873F"/>
</linearGradient>
<linearGradient id="paint4_linear_323_41711" x1="14.1892" y1="22.0777" x2="12.9436" y2="38.8435" gradientUnits="userSpaceOnUse">
<stop stop-color="#41873F"/>
<stop offset="0.3288" stop-color="#418B3D"/>
<stop offset="0.6352" stop-color="#419637"/>
<stop offset="0.9319" stop-color="#3FA92D"/>
<stop offset="1" stop-color="#3FAE2A"/>
</linearGradient>
<clipPath id="clip0_323_41711">
<rect width="60" height="60" fill="white" transform="translate(0 0.831543)"/>
</clipPath>
</defs>
</svg>
