<svg width="37" height="36" viewBox="0 0 37 36" fill="none" xmlns="http://www.w3.org/2000/svg">
<g clip-path="url(#clip0_450_58650)">
<path d="M1.76953 5.37188C1.34766 5.56875 1.0875 5.83594 0.897656 6.25781C0.757031 6.56719 0.75 6.67969 0.75 13.8656V21.1641H9.95391H19.1578L19.207 20.9602C19.3266 20.4047 19.868 19.8984 20.5992 19.6453C20.8172 19.575 20.9367 19.4836 20.9719 19.3852C20.993 19.3008 21.1125 19.0125 21.225 18.7453L21.4359 18.2602L21.2391 17.8664C20.993 17.3602 20.9438 16.8609 21.1055 16.3758C21.2602 15.9188 22.1461 14.9625 22.7016 14.6531C23.2219 14.3719 23.8266 14.3719 24.368 14.6531C24.7898 14.8711 24.825 14.8711 25.5773 14.5547C26.0977 14.3367 26.1187 14.3227 26.2031 14.0203C26.4562 13.1273 27.1734 12.5859 28.1086 12.5859H28.5234V9.57656C28.5234 6.82031 28.5094 6.55313 28.3898 6.29297C28.2 5.87109 27.9258 5.58281 27.525 5.38594L27.1594 5.20312H14.6437H2.12109L1.76953 5.37188ZM15.9727 8.75391C16.0711 8.84531 16.1484 8.99297 16.1484 9.08438C16.1484 9.36563 14.1727 17.8875 14.0672 18.0492C13.9055 18.3023 13.7086 18.3797 13.4695 18.2742C13.2375 18.1828 13.125 18.0211 13.125 17.775C13.125 17.557 15.0797 9.01406 15.1711 8.85234C15.3328 8.54297 15.7195 8.49375 15.9727 8.75391ZM11.9578 10.4133C12.1969 10.6031 12.2109 10.9547 11.9859 11.1586C11.8945 11.243 10.9594 11.7844 9.90469 12.375C8.85 12.9656 7.99922 13.4578 8.00625 13.4719C8.02031 13.4789 8.91328 13.9852 9.99609 14.5898C11.0789 15.1945 12.007 15.7359 12.0562 15.7992C12.3023 16.1297 11.9719 16.7203 11.5922 16.643C11.2617 16.5727 6.57187 13.9008 6.41719 13.6969C6.29062 13.5141 6.28359 13.4859 6.38203 13.282C6.47344 13.0922 6.87422 12.8461 8.97656 11.6648C10.3477 10.8984 11.543 10.2656 11.6203 10.2656C11.7047 10.2656 11.8523 10.3289 11.9578 10.4133ZM20.1773 11.6086C21.4992 12.3469 22.6523 13.0148 22.7437 13.0992C22.8422 13.1906 22.8984 13.3242 22.8984 13.4648C22.8984 13.6055 22.8422 13.7391 22.7437 13.8305C22.5117 14.0344 17.7516 16.6641 17.6109 16.6641C17.5477 16.6641 17.407 16.5867 17.3016 16.5023C17.0836 16.3125 17.0414 15.9539 17.2172 15.7781C17.2734 15.7219 18.1875 15.1875 19.2422 14.5969C20.3039 14.0063 21.1758 13.493 21.1898 13.4578C21.1969 13.4227 20.318 12.9023 19.2352 12.3047C17.2172 11.1938 16.9992 11.025 17.1117 10.7086C17.1891 10.4836 17.4352 10.2656 17.6039 10.2656C17.7023 10.2656 18.8555 10.8703 20.1773 11.6086Z" fill="#392C7D"/>
<path d="M27.7781 13.7113C27.4828 13.8027 27.3703 13.9504 27.1945 14.4847C27.1102 14.7379 26.9977 15.0121 26.9414 15.0965C26.8852 15.1738 26.5969 15.3215 26.2945 15.434C25.9922 15.5394 25.5633 15.7152 25.3453 15.8277C25.1203 15.9402 24.9023 16.0316 24.8531 16.0316C24.7969 16.0316 24.5297 15.9191 24.2414 15.7855C23.4609 15.4129 23.3414 15.434 22.6805 16.0738C21.9844 16.7558 21.9633 16.8543 22.2938 17.5504C22.4344 17.8457 22.5469 18.1761 22.5469 18.2886C22.5469 18.4011 22.4555 18.6754 22.343 18.9004C22.2305 19.1254 22.0687 19.5051 21.9914 19.7582C21.907 20.0043 21.7945 20.2644 21.7312 20.3277C21.668 20.398 21.3727 20.5386 21.0703 20.6371C20.2828 20.8972 20.2617 20.9324 20.2617 21.9449C20.2617 22.7394 20.2687 22.7886 20.4375 22.9504C20.5359 23.0418 20.8313 23.1894 21.0984 23.2738C21.675 23.4636 21.7875 23.5691 21.9492 24.0543C22.0195 24.2652 22.1812 24.659 22.3078 24.9402C22.4414 25.2215 22.5469 25.5238 22.5469 25.6152C22.5469 25.7136 22.4344 26.0301 22.2938 26.3254C21.9844 26.9793 22.0055 27.141 22.4906 27.6683C23.1937 28.4418 23.468 28.5121 24.2344 28.1254C24.7898 27.8441 24.9445 27.8441 25.4719 28.1113C25.7039 28.2238 26.1187 28.3996 26.4 28.5051C26.9555 28.723 27.0047 28.7793 27.2297 29.4754C27.4266 30.1222 27.5531 30.1926 28.4391 30.2207C29.4445 30.2488 29.5641 30.1785 29.8172 29.4051C29.9227 29.0957 30.0633 28.7933 30.1336 28.7301C30.2039 28.6668 30.4781 28.5402 30.7453 28.4488C31.0125 28.3574 31.4414 28.1816 31.7086 28.0551L32.1797 27.8301L32.7281 28.0902C33.2766 28.3504 33.6 28.4066 33.8391 28.2801C33.9164 28.2379 34.1836 27.9847 34.4508 27.7176C35.0203 27.1199 35.0414 26.9863 34.6617 26.1918C34.4437 25.7207 34.4156 25.6222 34.4859 25.4605C34.5281 25.3621 34.7109 24.9121 34.8867 24.4691C35.0695 24.0261 35.2734 23.6113 35.3367 23.548C35.4 23.4847 35.6672 23.3582 35.9344 23.2738C36.2086 23.1824 36.4969 23.0418 36.5883 22.9504C36.7359 22.7957 36.75 22.7324 36.75 21.959C36.75 21.3332 36.7219 21.0871 36.6445 20.9746C36.5812 20.8832 36.3211 20.7496 35.9766 20.6371C35.3438 20.4261 35.2031 20.2926 35.0203 19.7371C34.957 19.5332 34.7953 19.1535 34.6617 18.8793C34.5352 18.6121 34.4297 18.3379 34.4297 18.2816C34.4297 18.2183 34.5422 17.9441 34.6758 17.6699C34.8234 17.3676 34.9219 17.0652 34.9219 16.9035C34.9219 16.6644 34.8656 16.5801 34.3734 16.0879C33.8602 15.5746 33.8039 15.5394 33.5297 15.5394C33.3258 15.5394 33.0727 15.6238 32.7422 15.7855C32.475 15.9191 32.2148 16.0316 32.1727 16.0316C32.1234 16.0316 31.8562 15.9191 31.575 15.7855C31.2867 15.6519 30.893 15.4902 30.6891 15.4269C30.1687 15.2652 30.0352 15.1105 29.8172 14.4707C29.5781 13.7535 29.4867 13.6902 28.6359 13.6621C28.2844 13.6551 27.8977 13.6761 27.7781 13.7113ZM29.4445 18.5347C30.0773 18.7176 30.6117 19.048 31.0547 19.5261C31.7367 20.2504 32.0391 21.0097 32.0391 21.973C32.0391 24.0894 30.0633 25.784 27.9891 25.4535C26.0836 25.1511 24.7125 23.309 25.0008 21.4527C25.268 19.709 26.7305 18.4293 28.4602 18.4222C28.8047 18.4222 29.2195 18.4715 29.4445 18.5347Z" fill="#392C7D"/>
<path d="M27.9398 19.5469C27.2297 19.7297 26.5547 20.2852 26.2523 20.9391C26.1328 21.2063 26.0977 21.4031 26.0977 21.9375C26.0977 22.5141 26.1258 22.6617 26.2805 22.9922C26.5125 23.4844 26.9766 23.9484 27.4688 24.1805C27.7992 24.3352 27.9539 24.3633 28.5234 24.3633C29.1211 24.3633 29.2336 24.3422 29.5992 24.1594C30.0984 23.9062 30.5133 23.4633 30.7594 22.9359C30.9141 22.5984 30.9492 22.4367 30.9492 21.9375C30.9492 21.2484 30.7734 20.7914 30.3234 20.2711C29.8102 19.6805 28.7203 19.35 27.9398 19.5469Z" fill="#FF4667"/>
<path d="M0.75 23.5898C0.75 24.6094 0.778125 25.0242 0.848438 25.2C0.996094 25.5516 1.41797 25.9875 1.79063 26.1703L2.12109 26.332L11.5922 26.3531L21.0633 26.3672L21.2461 26.0156L21.4289 25.6641L21.1688 25.0031L20.9086 24.3492L20.5359 24.2297C19.7484 23.9836 19.1719 23.2805 19.1719 22.5633V22.2188H9.96094H0.75V23.5898Z" fill="#392C7D"/>
<path d="M11.4376 28.5117L11.0509 29.6016H9.67976C8.39304 29.6016 8.28757 29.6086 8.14695 29.7422C8.06257 29.8195 7.97117 29.9672 7.95007 30.0586C7.89382 30.2766 8.03445 30.6352 8.21023 30.7266C8.28757 30.7688 10.7415 30.7969 14.6579 30.7969H20.979L21.1407 30.6211C21.2532 30.5016 21.3094 30.3609 21.3094 30.1992C21.3094 30.0375 21.2532 29.8969 21.1407 29.7773L20.979 29.6016H19.5868H18.2016L17.8219 28.5258L17.4352 27.457L14.6298 27.4359L11.8243 27.4219L11.4376 28.5117Z" fill="#392C7D"/>
</g>
<defs>
<clipPath id="clip0_450_58650">
<rect width="36" height="36" fill="white" transform="translate(0.75)"/>
</clipPath>
</defs>
</svg>
