<svg width="37" height="36" viewBox="0 0 37 36" fill="none" xmlns="http://www.w3.org/2000/svg">
<g clip-path="url(#clip0_450_58836)">
<path d="M0.714062 0.13335C0.608594 0.203663 0.453906 0.358349 0.383594 0.463818C0.257031 0.653662 0.25 0.836475 0.25 3.16382C0.25 5.49116 0.257031 5.67397 0.383594 5.86382C0.453906 5.96929 0.608594 6.12397 0.714062 6.19429C0.903906 6.32085 1.08672 6.32788 3.44922 6.32788C5.81172 6.32788 5.99453 6.32085 6.18437 6.19429C6.57109 5.93413 6.64844 5.73022 6.64844 4.93569V4.21851H8.73672C9.88281 4.21851 10.8039 4.23257 10.7898 4.24663C10.7758 4.26069 10.5578 4.42241 10.3047 4.61226C7.90703 6.36304 6.19141 8.69741 5.28437 11.4607C4.95391 12.4732 4.72187 13.5419 4.6375 14.4279C4.59531 14.9412 4.58125 14.9693 4.37734 15.0537C3.94844 15.2365 3.35078 15.6865 3.0625 16.0591C2.06406 17.3599 2.275 19.4341 3.5125 20.4115C4.22266 20.981 4.73594 21.1638 5.59375 21.1638C7.00703 21.1638 8.16016 20.3412 8.62422 19.0052C8.80703 18.4709 8.80703 17.606 8.61719 16.9943C8.37813 16.2279 7.675 15.4263 6.98594 15.131C6.75391 15.0326 6.73984 14.9201 6.89453 14.0201C7.61875 9.72398 10.5297 6.28569 14.5867 4.9146C15.3109 4.66851 15.4094 4.65444 15.4727 4.75288C16.1055 5.77241 17.0898 6.32788 18.25 6.32788C19.4102 6.32788 20.3945 5.77241 21.0273 4.75288C21.0906 4.65444 21.1891 4.66851 21.9133 4.9146C25.9703 6.28569 28.8812 9.72398 29.6055 14.0201C29.7602 14.9201 29.7461 15.0326 29.5211 15.131C28.825 15.4263 28.1219 16.2279 27.8828 16.9943C27.3555 18.7099 28.2273 20.4537 29.9078 21.0302C30.6672 21.2904 31.8484 21.1779 32.5023 20.7701C33.543 20.1232 34.0703 19.188 34.0703 18.0068C34.0703 17.2544 33.8594 16.6076 33.4375 16.0591C33.1492 15.6865 32.5516 15.2365 32.1227 15.0537C31.9187 14.9693 31.9047 14.9412 31.8625 14.4279C31.5109 10.5888 29.3805 6.91148 26.1672 4.61226L25.6187 4.21851H27.7352H29.8516V4.93569C29.8516 5.73022 29.9289 5.93413 30.3156 6.19429C30.5055 6.32085 30.6883 6.32788 33.0508 6.32788C35.4133 6.32788 35.5961 6.32085 35.7859 6.19429C35.8914 6.12397 36.0461 5.96929 36.1164 5.86382C36.243 5.67397 36.25 5.49116 36.25 3.16382C36.25 0.836475 36.243 0.653662 36.1164 0.463818C36.0461 0.358349 35.8914 0.203663 35.7859 0.13335C35.5961 0.00678635 35.4133 -0.000244141 33.0508 -0.000244141C30.6883 -0.000244141 30.5055 0.00678635 30.3156 0.13335C29.9289 0.393505 29.8516 0.597412 29.8516 1.38491V2.10913H25.5625H21.2734L21.1258 1.80679C20.5422 0.639599 19.5227 -0.000244141 18.25 -0.000244141C16.9773 -0.000244141 15.9578 0.639599 15.3742 1.80679L15.2266 2.10913H10.9375H6.64844V1.38491C6.64844 0.597412 6.57109 0.393505 6.18437 0.13335C5.99453 0.00678635 5.81172 -0.000244141 3.44922 -0.000244141C1.08672 -0.000244141 0.903906 0.00678635 0.714062 0.13335Z" fill="#392C7D"/>
<path d="M13.0328 15.4198C10.7687 18.8299 8.87029 21.6987 8.8281 21.7901C8.77889 21.8885 8.75779 22.1135 8.77185 22.3315C8.80701 22.7253 8.75779 22.6549 9.7492 23.801C11.064 25.3198 12.1539 27.5557 12.5758 29.6088C12.6812 30.1221 12.6601 30.1151 13.4336 29.8901C14.2 29.6581 15.1844 29.6018 18.25 29.6018C21.3156 29.6018 22.3 29.6581 23.0664 29.8901C23.8398 30.1151 23.8187 30.1221 23.9242 29.6088C24.3461 27.5557 25.4359 25.3198 26.7508 23.801C27.7422 22.6549 27.6929 22.7253 27.7281 22.3315C27.7492 22.0503 27.7211 21.8956 27.6156 21.6846C27.5312 21.537 25.6328 18.6542 23.3898 15.2932L19.3047 9.17603V14.2385V19.301L19.6562 19.4628C20.1695 19.7018 20.7812 20.3276 21.0695 20.9182C21.2945 21.3893 21.3086 21.4456 21.3086 22.1838C21.3086 22.8307 21.2804 23.0206 21.1469 23.3651C20.8304 24.1315 20.1625 24.8065 19.389 25.1159C18.8125 25.3479 17.6875 25.3479 17.1109 25.1159C16.3375 24.8065 15.6695 24.1315 15.3531 23.3651C15.2195 23.0206 15.1914 22.8307 15.1914 22.1838C15.1914 21.4456 15.2054 21.3893 15.4304 20.9182C15.7187 20.3276 16.3304 19.7018 16.8437 19.4628L17.1953 19.301V14.2596C17.1953 11.4823 17.1883 9.21119 17.1812 9.21119C17.1672 9.21119 15.3039 12.0096 13.0328 15.4198Z" fill="#392C7D"/>
<path d="M17.6594 21.2977C17.3359 21.5156 17.1953 21.7828 17.1953 22.2188C17.1953 22.6547 17.3359 22.9219 17.6594 23.1398C17.8 23.2313 17.9898 23.2734 18.25 23.2734C18.918 23.2734 19.3047 22.8867 19.3047 22.2188C19.3047 21.5508 18.918 21.1641 18.25 21.1641C17.9898 21.1641 17.8 21.2062 17.6594 21.2977Z" fill="#FF4667"/>
<path d="M13.8203 31.8938C13.0891 32.1398 12.5828 32.4703 12.0414 33.0398C11.493 33.6305 11.0078 34.5234 11.0078 34.9734C11.0078 35.325 11.2047 35.6695 11.5141 35.8594C11.7391 36 11.8867 36 18.25 36C24.6133 36 24.7609 36 24.9859 35.8594C25.2953 35.6695 25.4922 35.325 25.4922 34.9734C25.4922 34.5234 25.007 33.6305 24.4586 33.0398C23.9172 32.4703 23.4039 32.1398 22.6656 31.8938L22.1242 31.7109H18.2359L14.3477 31.718L13.8203 31.8938Z" fill="#FF4667"/>
</g>
<defs>
<clipPath id="clip0_450_58836">
<rect width="36" height="36" fill="white" transform="translate(0.25)"/>
</clipPath>
</defs>
</svg>
