<svg width="35" height="34" viewBox="0 0 35 34" fill="none" xmlns="http://www.w3.org/2000/svg">
<path d="M16.1821 0.238062C12.7579 0.856812 10.0157 3.63416 9.41102 7.09353C9.25633 7.99353 9.30555 9.75837 9.51649 10.5881C10.2829 13.6256 12.5821 15.9459 15.6407 16.7685C16.5407 17.0076 18.2352 17.0709 19.2196 16.9021C22.1516 16.3888 24.5774 14.392 25.6602 11.6006C26.3845 9.72322 26.3845 7.40291 25.6602 5.52556C24.5845 2.74822 22.1516 0.737282 19.2688 0.231031C18.4954 0.0974369 16.9345 0.104469 16.1821 0.238062ZM18.3126 2.93806C18.3126 3.57087 18.3266 3.64119 18.4391 3.64119C18.5165 3.64119 18.7626 3.73962 18.9946 3.85212C19.7821 4.24587 20.3868 5.09665 20.4712 5.92634L20.5134 6.32009L19.993 6.299L19.4727 6.27791L19.4235 5.98259C19.3602 5.60291 19.2266 5.34978 18.9313 5.06853C18.6149 4.75916 18.2563 4.62556 17.7501 4.62556C16.7446 4.62556 16.0696 5.30056 16.0626 6.299C16.0626 6.81228 16.1962 7.17087 16.5055 7.49431C16.836 7.84587 17.068 7.93728 17.8274 8.03572C19.0157 8.1904 19.7751 8.68962 20.2321 9.61072C20.443 10.0396 20.4571 10.117 20.4571 10.8131C20.4571 11.4599 20.436 11.6006 20.2743 11.9381C20.0141 12.4865 19.5149 13.0138 19.0016 13.267C18.7626 13.3865 18.5165 13.4849 18.4391 13.4849C18.3266 13.4849 18.3126 13.5552 18.3126 14.1881V14.8912H17.7852H17.2649L17.2438 14.2162L17.2227 13.5482L16.8571 13.4217C15.8868 13.0912 15.1274 12.1701 15.029 11.1998L14.9868 10.8131H15.5282H16.0626V11.0381C16.0696 11.5443 16.5266 12.1701 17.061 12.3881C17.4266 12.5427 18.1368 12.5287 18.4884 12.367C19.086 12.0927 19.4516 11.4951 19.4516 10.8131C19.4516 10.342 19.297 9.94822 18.9946 9.63181C18.6641 9.28025 18.4321 9.18884 17.6516 9.07634C17.2438 9.02009 16.7868 8.90759 16.5759 8.80916C16.0837 8.58416 15.472 7.96541 15.2329 7.45916C15.0641 7.09353 15.043 6.96697 15.043 6.31306C15.043 5.66619 15.0641 5.52556 15.2259 5.18806C15.5704 4.46384 16.2173 3.88728 16.9274 3.67634L17.2227 3.59197L17.2438 2.90994L17.2649 2.23494H17.7852H18.3126V2.93806Z" fill="#FF4667"/>
<path d="M7.90625 3.07812C7.61797 3.15547 7.07656 3.36641 6.71094 3.54219C6.13437 3.83047 5.95156 3.97109 5.33984 4.58281C4.73516 5.1875 4.58047 5.39141 4.29922 5.96094C3.84219 6.875 3.6875 7.53594 3.6875 8.5625C3.6875 9.58906 3.84219 10.25 4.29922 11.1641C4.58047 11.7336 4.73516 11.9305 5.33984 12.5352C5.94453 13.1398 6.14141 13.2945 6.71094 13.5758C7.61094 14.0258 8.29297 14.1875 9.25625 14.1875C9.67109 14.1875 10.0156 14.1664 10.0156 14.1383C10.0156 14.1102 9.88906 13.8992 9.73438 13.6672C9.58672 13.4281 9.31953 12.9289 9.14375 12.5562L8.82734 11.8812L8.41953 11.7617C7.35781 11.4594 6.46484 10.5875 6.14141 9.53984C5.59297 7.78906 6.64062 5.86953 8.41953 5.36328L8.82734 5.24375L9.14375 4.56875C9.31953 4.19609 9.58672 3.69687 9.73438 3.45781C9.88906 3.22578 10.0156 3.01484 10.0156 2.98672C10.0156 2.87422 8.42656 2.94453 7.90625 3.07812Z" fill="#392C7D"/>
<path d="M25.4844 2.97994C25.4844 3.00806 25.625 3.24712 25.7937 3.52837C25.9695 3.80259 26.2367 4.30181 26.3984 4.63931L26.6797 5.25103L27.0875 5.36353C28.8594 5.86978 29.9 7.78931 29.3586 9.54009C29.0352 10.5877 28.1422 11.4596 27.0875 11.762L26.6867 11.8745L26.3633 12.5565C26.1875 12.9292 25.9133 13.4284 25.7586 13.6674C25.6109 13.8995 25.4844 14.1104 25.4844 14.1385C25.4844 14.251 27.0172 14.1877 27.5656 14.0471C29.1336 13.6534 30.5117 12.5565 31.2148 11.1292C31.6578 10.2432 31.8195 9.56119 31.8195 8.56275C31.8195 7.56431 31.6578 6.88228 31.2148 5.99634C30.5047 4.56197 29.1406 3.47213 27.5656 3.07837C27.0312 2.94478 25.4844 2.87447 25.4844 2.97994Z" fill="#392C7D"/>
<path d="M8.03281 6.66379C7.4 7.08566 7.0625 7.73957 7.0625 8.54816C7.0625 8.81535 7.11172 9.17394 7.175 9.35676C7.30859 9.75051 7.82187 10.3482 8.19453 10.538C8.34922 10.6153 8.46875 10.6646 8.46875 10.6575C8.46875 10.6435 8.41953 10.3833 8.36328 10.0739C8.23672 9.34972 8.23672 7.77472 8.36328 7.05051C8.41953 6.74113 8.46875 6.48097 8.46875 6.46691C8.46875 6.41066 8.30703 6.48097 8.03281 6.66379Z" fill="#FF4667"/>
<path d="M27.0664 6.60754C27.2703 7.57082 27.3055 9.18801 27.1367 10.088C27.0805 10.3903 27.0312 10.6435 27.0312 10.6575C27.0312 10.6646 27.1508 10.6153 27.3055 10.538C27.6922 10.3411 28.1984 9.75051 28.332 9.32863C28.6695 8.32316 28.325 7.30363 27.432 6.65676C27.0945 6.41066 27.0172 6.40363 27.0664 6.60754Z" fill="#FF4667"/>
<path d="M23.0937 18.3008C22.6437 18.4273 16.9062 20.9586 16.8851 21.043C16.878 21.0711 17.5108 21.3102 18.2843 21.5773L19.7046 22.0625L23.0866 20.5719C24.9429 19.7492 26.4687 19.0531 26.4687 19.025C26.4687 18.9266 25.9062 18.6031 25.4351 18.4273C24.8163 18.2023 23.6773 18.1391 23.0937 18.3008Z" fill="#392C7D"/>
<path d="M2.02109 19.7002C1.59219 19.8408 1.31797 20.0658 1.08594 20.4666L0.875 20.8322V26.7385C0.875 32.3002 0.882031 32.6588 1.00859 32.926C1.17031 33.2846 1.63438 33.7065 1.97891 33.8049C2.16172 33.8611 2.99141 33.8752 4.54531 33.8611L6.8375 33.84L7.13984 33.6291C7.30859 33.5096 7.54063 33.2565 7.66016 33.0666L7.87109 32.7291L7.89219 26.8861C7.90625 21.5916 7.89922 21.015 7.79375 20.7338C7.64609 20.3471 7.32969 19.9885 6.96406 19.7916C6.68984 19.644 6.59141 19.6369 4.49609 19.6229C2.84375 19.6088 2.24609 19.6299 2.02109 19.7002Z" fill="#392C7D"/>
<path d="M27.8187 19.7074C27.446 19.7918 21.5046 22.3512 21.1952 22.5621C21.1038 22.6184 21.1179 22.6535 21.2656 22.752C21.6312 23.0051 21.8632 23.2371 22.1445 23.6168L22.4398 24.0176L26.8906 22.4074C29.3374 21.5285 31.3554 20.7832 31.3765 20.7621C31.496 20.6426 30.6452 20.0941 29.9281 19.834C29.3304 19.616 28.4445 19.5598 27.8187 19.7074Z" fill="#392C7D"/>
<path d="M8.96094 26.6327V32.0397L9.22813 32.11C9.36875 32.1452 10.5781 32.4686 11.9141 32.8202C13.25 33.1718 14.607 33.4952 14.9305 33.5304C15.282 33.5796 16.5758 33.5936 18.2 33.5725C21.0547 33.5444 21.2867 33.5163 21.9898 33.1647C22.5242 32.8905 33.7391 25.7116 33.9641 25.4936C34.3578 25.121 34.5758 24.6288 34.6109 24.0241C34.6531 23.3069 34.5125 22.878 34.0555 22.3858C33.5914 21.8796 33.1484 21.6827 32.4453 21.6897C31.932 21.6897 31.7562 21.746 26.9961 23.4686C24.2891 24.446 22.0531 25.2686 22.018 25.2897C21.9898 25.3179 21.8914 25.6624 21.793 26.0561C21.6945 26.4499 21.5398 26.921 21.4484 27.1108C21.2023 27.5819 20.7383 28.0249 20.2109 28.278C19.8031 28.4749 19.6836 28.496 19.1211 28.496C18.5234 28.496 18.4039 28.4679 16.8148 27.9475C15.8516 27.6311 15.0852 27.3429 15.0078 27.2655C14.9305 27.1882 14.8672 27.0475 14.8672 26.9561C14.8672 26.7171 15.1273 26.4218 15.3383 26.4218C15.4367 26.4218 16.2453 26.6608 17.1312 26.9491C18.9312 27.5397 19.2898 27.5889 19.8102 27.3288C20.4008 27.0335 20.5484 26.7804 20.8086 25.6835C21.0687 24.5796 21.0266 24.1647 20.5906 23.6796C20.2883 23.3491 20.1336 23.2858 16.5828 22.1046L13.9039 21.2186H11.4359H8.96094V26.6327Z" fill="#392C7D"/>
</svg>
