<svg width="37" height="36" viewBox="0 0 37 36" fill="none" xmlns="http://www.w3.org/2000/svg">
<path d="M16.4508 3.36094L14.25 4.46484V11.2289V18H13.6875H13.125V12.9375C13.125 10.1531 13.1109 7.875 13.0898 7.875C13.0687 7.875 12.0562 8.37422 10.8398 8.97891L8.625 10.0898V14.0414V18H6.18516C3.86484 18 3.72422 18.007 3.50625 18.1406C3.16875 18.3516 3 18.668 3 19.125C3 19.582 3.16875 19.8984 3.50625 20.1094C3.73828 20.25 3.89297 20.25 18.75 20.25C33.607 20.25 33.7617 20.25 33.9937 20.1094C34.3312 19.8984 34.5 19.582 34.5 19.125C34.5 18.668 34.3312 18.3516 33.9937 18.1406C33.7758 18.007 33.6352 18 31.3219 18H28.875V14.0414V10.0898L26.6602 8.97891C25.4437 8.37422 24.4312 7.875 24.4102 7.875C24.3891 7.875 24.375 10.1531 24.375 12.9375V18H23.8125H23.25V11.2289V4.46484L21.0352 3.35391C19.8188 2.74922 18.7781 2.25 18.7289 2.25703C18.6867 2.25703 17.6531 2.75625 16.4508 3.36094ZM17.2312 6.84844C17.5266 6.96797 17.625 7.23516 17.625 7.875C17.625 8.78906 17.4141 9 16.5141 9C15.5859 9 15.375 8.79609 15.375 7.88906C15.375 7.24922 15.4734 6.96797 15.7547 6.84844C16.043 6.72891 16.9359 6.72188 17.2312 6.84844ZM21.7312 6.84844C22.0266 6.96797 22.125 7.23516 22.125 7.875C22.125 8.78906 21.9141 9 21.0141 9C20.0859 9 19.875 8.79609 19.875 7.88906C19.875 7.24922 19.9734 6.96797 20.2547 6.84844C20.543 6.72891 21.4359 6.72188 21.7312 6.84844ZM17.2312 10.2234C17.5266 10.343 17.625 10.6102 17.625 11.25C17.625 12.1641 17.4141 12.375 16.5141 12.375C15.5859 12.375 15.375 12.1711 15.375 11.2641C15.375 10.6242 15.4734 10.343 15.7547 10.2234C16.043 10.1039 16.9359 10.0969 17.2312 10.2234ZM21.7312 10.2234C22.0266 10.343 22.125 10.6102 22.125 11.25C22.125 12.1641 21.9141 12.375 21.0141 12.375C20.0859 12.375 19.875 12.1711 19.875 11.2641C19.875 10.6242 19.9734 10.343 20.2547 10.2234C20.543 10.1039 21.4359 10.0969 21.7312 10.2234ZM11.6062 11.3484C11.9016 11.468 12 11.7352 12 12.375C12 13.2891 11.7891 13.5 10.8891 13.5C9.96094 13.5 9.75 13.2961 9.75 12.3891C9.75 11.7492 9.84844 11.468 10.1297 11.3484C10.418 11.2289 11.3109 11.2219 11.6062 11.3484ZM27.3562 11.3484C27.6516 11.468 27.75 11.7352 27.75 12.375C27.75 13.2891 27.5391 13.5 26.6391 13.5C25.7109 13.5 25.5 13.2961 25.5 12.3891C25.5 11.7492 25.5984 11.468 25.8797 11.3484C26.168 11.2289 27.0609 11.2219 27.3562 11.3484ZM11.6062 14.7234C11.9016 14.843 12 15.1102 12 15.75C12 16.6641 11.7891 16.875 10.8891 16.875C9.96094 16.875 9.75 16.6711 9.75 15.7641C9.75 15.1242 9.84844 14.843 10.1297 14.7234C10.418 14.6039 11.3109 14.5969 11.6062 14.7234ZM19.4812 14.7234C19.8328 14.8711 19.875 15.082 19.875 16.6359V18H18.75H17.625V16.6359C17.625 15.1031 17.6742 14.8711 18.0047 14.7234C18.293 14.6039 19.1859 14.5969 19.4812 14.7234ZM27.3562 14.7234C27.6516 14.843 27.75 15.1102 27.75 15.75C27.75 16.6641 27.5391 16.875 26.6391 16.875C25.7109 16.875 25.5 16.6711 25.5 15.7641C25.5 15.1242 25.5984 14.843 25.8797 14.7234C26.168 14.6039 27.0609 14.5969 27.3562 14.7234Z" fill="#392C7D"/>
<path d="M6.375 22.6898C6.375 23.8852 6.38906 24.0328 6.51562 24.2438C6.78984 24.6867 6.98672 24.75 8.13984 24.75H9.16641L9.36328 25.2492L9.56016 25.7484L8.88516 26.4305C8.51953 26.8031 8.18203 27.1758 8.13984 27.2602C8.02734 27.4781 8.04141 28.0266 8.16094 28.2516C8.2875 28.4766 11.6906 31.8727 11.9086 31.9852C12.1055 32.0836 12.668 32.0836 12.8648 31.9852C12.9492 31.943 13.3219 31.6055 13.6945 31.2398L14.3766 30.5648L14.8758 30.7617L15.375 30.9586V31.9852C15.375 33.1383 15.4383 33.3352 15.8812 33.6094C16.0992 33.743 16.2398 33.75 18.75 33.75C21.2602 33.75 21.4008 33.743 21.6187 33.6094C22.0617 33.3352 22.125 33.1383 22.125 31.9852V30.9586L22.6242 30.7617L23.1234 30.5648L23.8055 31.2398C24.1781 31.6055 24.5508 31.943 24.6352 31.9852C24.832 32.0836 25.3945 32.0836 25.5914 31.9852C25.8094 31.8727 29.2125 28.4766 29.3391 28.2516C29.4586 28.0266 29.4727 27.4781 29.3602 27.2602C29.318 27.1758 28.9805 26.8031 28.6148 26.4305L27.9398 25.7484L28.1367 25.2492L28.3336 24.75H29.3602C30.5133 24.75 30.7102 24.6867 30.9844 24.2438C31.1109 24.0328 31.125 23.8852 31.125 22.6898V21.375H27.7148H24.3047V21.7336C24.3047 23.0133 23.4328 24.7359 22.3148 25.6641C21.7664 26.1141 20.6344 26.6695 19.9453 26.8242C19.2703 26.9719 18.2227 26.9719 17.5547 26.8242C16.4297 26.5711 15.1852 25.8117 14.4609 24.9398C13.7719 24.1031 13.1953 22.6477 13.1953 21.7336V21.375H9.78516H6.375V22.6898Z" fill="#392C7D"/>
<path d="M14.25 21.734C14.25 23.4707 15.818 25.341 17.632 25.7699C18.2086 25.9035 19.2914 25.9035 19.8609 25.7699C20.4023 25.6434 21.1336 25.2777 21.6187 24.898C22.5469 24.1598 23.25 22.7957 23.25 21.734V21.3754H18.75H14.25V21.734Z" fill="#FF4667"/>
</svg>
