<svg width="37" height="36" viewBox="0 0 37 36" fill="none" xmlns="http://www.w3.org/2000/svg">
<path d="M2.57737 1.09727C1.69847 1.33633 0.974249 1.94102 0.545343 2.80586C0.292218 3.32618 0.285187 3.34727 0.285187 4.18399C0.285187 5.02071 0.292218 5.0418 0.545343 5.56211C0.840655 6.15274 1.35394 6.70821 1.86019 6.98946C2.80941 7.50274 4.01878 7.50274 4.97503 6.98242C5.41097 6.74336 6.01566 6.11055 6.25472 5.63946L6.43753 5.27383H8.19534H9.95316L9.93909 6.55352L9.918 7.82617L9.42581 8.03008C9.15862 8.14258 8.17425 8.48711 7.24612 8.80352C6.31097 9.11992 5.48831 9.43633 5.3969 9.52071C5.01019 9.86524 4.99612 9.95664 5.00316 11.8129C5.00316 12.7621 5.04534 13.8379 5.08753 14.2035C5.13675 14.5691 5.193 15.0332 5.21409 15.2371L5.26331 15.6027L3.12581 15.6238C0.75628 15.6449 0.671905 15.659 0.383624 16.123C0.179718 16.4535 0.221905 17.1496 0.460968 17.4098C0.819562 17.7895 0.833624 17.7895 3.35784 17.7895H5.69925L5.868 18.4293C5.95237 18.7809 6.13519 19.3855 6.26878 19.7793C6.39534 20.173 6.50784 20.5176 6.50784 20.5457C6.50784 20.5738 5.80472 20.602 4.94691 20.616C3.46331 20.6371 3.36487 20.6441 3.12581 20.7988C2.46487 21.2066 2.47894 22.2332 3.14691 22.641C3.36487 22.7746 3.5055 22.7816 5.38987 22.7816H7.39378L7.893 23.7801C8.49066 24.9754 9.34847 26.4168 10.0446 27.3801C10.3258 27.7668 10.5789 28.1254 10.6071 28.1746C10.6492 28.252 10.2696 28.266 8.55394 28.266H6.43753L6.25472 27.9004C6.15628 27.6965 5.88206 27.352 5.65706 27.127C4.11722 25.5801 1.49456 26.0371 0.524249 28.0199C0.292218 28.498 0.285187 28.5332 0.285187 29.391C0.285187 30.2348 0.292218 30.284 0.510187 30.734C1.08675 31.9012 2.11331 32.5551 3.38597 32.5551C4.67269 32.5551 5.73441 31.9152 6.26878 30.8254L6.45159 30.4457H9.48206H12.5055L13.4617 31.3809C14.5727 32.4637 15.6696 33.3918 16.9071 34.2988C18.1867 35.248 18.3274 35.248 19.6071 34.2988C20.8516 33.3707 21.9414 32.4496 23.0383 31.3809L23.9946 30.4457H27.018H30.0485L30.2313 30.8254C30.7657 31.9152 31.8274 32.5551 33.1141 32.5551C34.3867 32.5551 35.4133 31.9012 35.9899 30.734C36.2078 30.284 36.2149 30.2348 36.2149 29.391C36.2149 28.5332 36.2078 28.498 35.9758 28.0199C35.2024 26.4309 33.2899 25.7559 31.6938 26.5082C31.1383 26.7684 30.4282 27.4645 30.2313 27.9355L30.0977 28.266H27.9672C26.2375 28.266 25.8508 28.252 25.893 28.1746C25.9211 28.1254 26.1742 27.7668 26.4555 27.3801C27.1375 26.4309 27.9883 25.0105 28.6 23.7941L29.1133 22.7816H31.1172C32.9946 22.7816 33.1352 22.7746 33.3532 22.641C34.0211 22.2332 34.0352 21.2066 33.3742 20.7988C33.1352 20.6441 33.0367 20.6371 31.5602 20.616C30.6953 20.602 29.9922 20.5738 29.9922 20.5457C29.9922 20.5176 30.1047 20.173 30.2313 19.7793C30.3649 19.3855 30.5477 18.7809 30.6321 18.4293L30.8008 17.7895H33.1422C35.6664 17.7895 35.6805 17.7895 36.0391 17.4098C36.2782 17.1496 36.3203 16.4535 36.1164 16.123C35.8282 15.659 35.7438 15.6449 33.3883 15.6238C31.5321 15.6027 31.2578 15.5887 31.2578 15.4973C31.2578 15.434 31.3071 14.984 31.3774 14.4988C31.5461 13.2121 31.5532 10.1746 31.3844 9.8793C31.1664 9.48555 30.9555 9.37305 29.2539 8.80352C28.3258 8.48711 27.3485 8.14258 27.0742 8.03008L26.5821 7.82617L26.561 6.55352L26.5469 5.27383H28.2977H30.0555L30.2805 5.69571C31.286 7.58008 33.8102 7.95977 35.336 6.44805C35.5539 6.23008 35.8 5.87852 35.9547 5.56211C36.2078 5.0418 36.2149 5.02071 36.2149 4.18399C36.2149 3.34727 36.2078 3.32618 35.9547 2.80586C35.5188 1.92696 34.8016 1.3293 33.8946 1.09024C32.4672 0.717583 30.9696 1.37852 30.2735 2.6793L30.0555 3.09414H27.6157C24.8946 3.09414 24.8453 3.10118 24.5289 3.5793C24.3742 3.81133 24.3672 3.87461 24.3672 5.35821V6.90508L23.4391 6.41289C21.5969 5.44961 20.3524 4.61992 19.4102 3.71992C18.7492 3.09414 18.6367 3.02383 18.25 3.02383C17.8633 3.02383 17.7508 3.09414 17.0899 3.71992C16.1477 4.61992 14.8961 5.45664 13.0821 6.40586L12.1328 6.90508V5.35821C12.1328 3.87461 12.1258 3.81133 11.9711 3.5793C11.6547 3.10118 11.6055 3.09414 8.88441 3.09414H6.43753L6.25472 2.72852C6.01566 2.25742 5.41097 1.62461 4.97503 1.38555C4.26487 0.998833 3.34378 0.88633 2.57737 1.09727ZM19.3399 10.3082C20.0852 10.491 20.7602 10.8777 21.3508 11.4613C22.2508 12.3473 22.6586 13.2895 22.7289 14.6395C22.7711 15.3777 22.7711 15.3918 22.968 15.4691C23.2422 15.5816 23.636 15.9824 23.8258 16.334C23.9805 16.6293 23.9805 16.6574 24.0016 20.0324C24.0227 23.8574 24.0227 23.8504 23.5235 24.4199C23.3617 24.5957 23.0875 24.7996 22.8766 24.898L22.5039 25.0668H18.25H13.9961L13.6235 24.898C13.4125 24.7996 13.1383 24.5957 12.9766 24.4199C12.4844 23.8574 12.4844 23.8574 12.4844 20.1871C12.4844 18.2605 12.5125 16.8051 12.5547 16.6645C12.6742 16.2145 13.0188 15.7645 13.3844 15.5605L13.7289 15.3707L13.7711 14.6254C13.8344 13.3809 14.2141 12.4457 14.9805 11.616C16.0985 10.4066 17.7367 9.92149 19.3399 10.3082Z" fill="#392C7D"/>
<path d="M17.5469 12.2977C16.45 12.6562 15.7891 13.6125 15.7891 14.85V15.2578H18.25H20.7109V14.85C20.7109 14.0273 20.3312 13.1273 19.8109 12.7477C19.3187 12.382 19.0094 12.2766 18.3555 12.2555C18.0109 12.2484 17.6453 12.2625 17.5469 12.2977Z" fill="#FF4667"/>
<path d="M14.5234 20.1445V22.9922H18.25H21.9766V20.1445V17.2969H18.25H14.5234V20.1445ZM18.5805 18.8508C19.1078 19.0477 19.368 19.6523 19.2766 20.4539C19.1992 21.1289 18.8125 21.5367 18.25 21.5367C17.7016 21.5367 17.3148 21.15 17.2305 20.5242C17.125 19.7578 17.357 19.132 17.8281 18.9C18.1094 18.7523 18.2992 18.7453 18.5805 18.8508Z" fill="#FF4667"/>
</svg>
