<svg width="60" height="61" viewBox="0 0 60 61" fill="none" xmlns="http://www.w3.org/2000/svg">
<g id="Nodemon/Type4">
<path id="Shape" fill-rule="evenodd" clip-rule="evenodd" d="M28.6975 58.2397C29.5016 58.7093 30.4934 58.7093 31.2974 58.2397L52.8381 45.6814C53.6436 45.2121 54.1394 44.3446 54.1394 43.4046V18.2686C54.1394 17.3294 53.6434 16.4624 52.8393 15.992L31.2991 3.42349C30.4934 2.95389 29.5016 2.95389 28.6961 3.42349L7.16138 15.992C6.3566 16.4622 5.8606 17.3296 5.8606 18.2686V43.4061C5.8606 44.3446 6.3566 45.212 7.16192 45.6812L28.6973 58.2395" fill="#76D04B"/>
<path id="Shape_2" fill-rule="evenodd" clip-rule="evenodd" d="M43.7025 24.989L42.7533 24.4286C44.2129 22.2198 45.0851 18.8989 43.9914 13.9341C43.9914 13.9341 41.5284 21.0163 36.5772 20.7817L30.7798 17.3588C30.5611 17.2257 30.3161 17.1571 30.0683 17.1467H29.9347C29.6875 17.1573 29.4428 17.2259 29.2211 17.3588L23.4232 20.7817C18.4725 21.017 16.0086 13.9341 16.0086 13.9341C14.9143 18.8987 15.788 22.2196 17.2472 24.4286L16.2982 24.9892C15.8161 25.2742 15.5164 25.8036 15.5164 26.381L15.5449 46.9262C15.5449 47.2129 15.6896 47.4784 15.9348 47.6179C16.1743 47.7664 16.4709 47.7664 16.7101 47.6179L24.3902 43.106C24.8762 42.8098 25.1716 42.2874 25.1716 41.7163V32.1182C25.1716 31.5459 25.4671 31.0152 25.951 30.7316L29.2213 28.7995C29.4649 28.654 29.7315 28.5832 30.0037 28.5832C30.2697 28.5832 30.5433 28.654 30.7801 28.7993L34.0494 30.7315C34.5334 31.0149 34.83 31.5457 34.83 32.1178V41.716C34.83 42.287 35.1294 42.8134 35.6123 43.1056L43.2905 47.6175C43.5314 47.7656 43.8323 47.7656 44.0711 47.6175C44.309 47.478 44.4587 47.2123 44.4587 46.9256L44.4836 26.3804C44.4831 25.8027 44.1878 25.2733 43.7027 24.9886L43.7025 24.989Z" fill="#4F4D3F"/>
</g>
</svg>
