<svg width="60" height="61" viewBox="0 0 60 61" fill="none" xmlns="http://www.w3.org/2000/svg">
<path d="M58.5627 0.831543H19.1279V20.6039H38.5317C39.223 20.6039 39.7838 21.1647 39.7838 21.856V40.992H59.8148V2.08591C59.8154 1.75344 59.6838 1.43438 59.4489 1.19908C59.214 0.963772 58.8952 0.831543 58.5627 0.831543Z" fill="#8E75FF"/>
<path opacity="0.405" d="M19.1258 0.831543V20.6039H0.626092C0.371881 20.6034 0.143085 20.4496 0.0467742 20.2143C-0.049537 19.9791 0.00568762 19.7089 0.186605 19.5303L19.1258 0.831543ZM40.8506 59.7114C40.6705 59.8883 40.4019 59.9399 40.169 59.8425C39.9361 59.745 39.7844 59.5175 39.7839 59.265V40.992H59.8149L40.8506 59.7091V59.7114Z" fill="#8E75FF"/>
<path opacity="0.405" d="M19.1257 20.604H39.159C39.5024 20.604 39.7839 20.8833 39.7839 21.2289V40.9921H20.3801C19.6886 40.9921 19.128 40.4315 19.128 39.74V20.604H19.1257Z" fill="#8E75FF"/>
</svg>
