<svg width="60" height="61" viewBox="0 0 60 61" fill="none" xmlns="http://www.w3.org/2000/svg">
<g clip-path="url(#clip0_199_5060)">
<path d="M28.7751 60.0645C21.064 61.3305 18.0717 60.8701 14.9642 59.8343C11.904 58.7967 9.24692 56.8241 7.36827 54.1949L7.023 53.8496C5.29664 51.4327 4.03065 48.6705 2.87975 41.5349L1.0383 29.5655C-0.227693 21.7394 0.117578 18.7471 1.26848 15.6396C2.34208 12.5977 4.25792 9.92354 6.79282 7.92856L7.25318 7.58329C9.67008 5.85694 12.4322 4.59094 19.4528 3.44004L31.192 1.59859C38.903 0.332598 41.8954 0.792959 45.0028 1.82877C48.0631 2.86637 50.7201 4.83902 52.5988 7.4682L52.944 7.92856C54.6704 10.3455 55.9364 13.1076 57.0873 20.2432L58.9287 32.0975C60.1947 39.9237 59.8495 42.916 58.6986 46.0235C57.6625 49.0847 55.7395 51.7688 53.1742 53.7345L52.7139 54.0798C50.297 55.8061 47.5348 57.0721 40.5143 58.223L28.7751 60.0645Z" fill="black"/>
<path d="M41.907 22.8789C37.1334 22.8789 33.2637 26.7486 33.2637 31.5222C33.2637 36.2957 37.1334 40.1655 41.907 40.1655C46.6805 40.1655 50.5502 36.2957 50.5502 31.5222C50.5502 26.7486 46.6805 22.8789 41.907 22.8789ZM41.907 25.6641C45.1423 25.6641 47.7651 28.2869 47.7651 31.5222C47.7651 34.7575 45.1423 37.3803 41.907 37.3803C38.6716 37.3803 36.0489 34.7575 36.0489 31.5222C36.0489 28.2869 38.6716 25.6641 41.907 25.6641Z" fill="url(#paint0_linear_199_5060)"/>
<path d="M25.7254 11.9844L12.7391 14.0831C11.9767 14.2063 11.4585 14.9242 11.5817 15.6866L13.6804 28.6729C13.8036 29.4353 14.5215 29.9535 15.2839 29.8303L28.2703 27.7316C29.0327 27.6084 29.5508 26.8905 29.4276 26.1281L27.3289 13.1417C27.2057 12.3793 26.4878 11.8612 25.7254 11.9844ZM24.791 14.9683L26.4435 25.1937L16.2181 26.8462L14.5656 16.6208L24.791 14.9683Z" fill="url(#paint1_linear_199_5060)"/>
<path d="M23.3184 34.5115L17.7941 50.1638C17.4424 51.1601 18.2849 52.1698 19.3281 52.0023L35.0954 49.4703C36.1417 49.3023 36.6244 48.0736 35.9723 47.2383L25.7293 34.1181C25.0523 33.2509 23.6845 33.4742 23.3184 34.5115ZM25.0989 37.8362L32.3265 47.094L21.2008 48.8802L25.0989 37.8362Z" fill="url(#paint2_linear_199_5060)"/>
</g>
<defs>
<linearGradient id="paint0_linear_199_5060" x1="46.6416" y1="21.9652" x2="35.8159" y2="43.781" gradientUnits="userSpaceOnUse">
<stop stop-color="#CC9300"/>
<stop offset="0.48" stop-color="#EA433A"/>
<stop offset="1" stop-color="#B327BF"/>
</linearGradient>
<linearGradient id="paint1_linear_199_5060" x1="25.889" y1="3.86048" x2="15.6243" y2="23.9933" gradientUnits="userSpaceOnUse">
<stop stop-color="#CC9300"/>
<stop offset="0.26" stop-color="#EA433A"/>
<stop offset="0.48" stop-color="#B327BF"/>
<stop offset="0.76" stop-color="#6666FF"/>
<stop offset="1" stop-color="#00BF9A"/>
</linearGradient>
<linearGradient id="paint2_linear_199_5060" x1="19.0446" y1="52.7886" x2="35.5849" y2="35.6306" gradientUnits="userSpaceOnUse">
<stop stop-color="#B327BF"/>
<stop offset="0.48" stop-color="#6666FF"/>
<stop offset="1" stop-color="#00C09A"/>
</linearGradient>
<clipPath id="clip0_199_5060">
<rect width="60" height="60" fill="white" transform="translate(0 0.831543)"/>
</clipPath>
</defs>
</svg>
