<svg width="37" height="36" viewBox="0 0 37 36" fill="none" xmlns="http://www.w3.org/2000/svg">
<g clip-path="url(#clip0_450_58883)">
<path d="M2.86636 0.210938C2.02964 0.513281 1.41089 1.07578 1.01011 1.89141L0.785107 2.35547L0.764014 5.42813L0.74292 8.50781H18.75H36.757L36.7359 5.42813L36.7148 2.35547L36.4757 1.86328C36.1593 1.21641 35.6039 0.660938 34.957 0.344531L34.4648 0.105469L18.8554 0.0914068C3.59058 0.0773439 3.23901 0.0773439 2.86636 0.210938ZM31.8984 4.47891C32.2218 4.67578 32.3906 4.97813 32.3906 5.34375C32.3906 5.70938 32.2218 6.01172 31.8984 6.20859C31.6523 6.36328 31.6242 6.36328 28.2421 6.36328C24.9585 6.36328 24.825 6.35625 24.6 6.22266C24.2835 6.03281 24.0937 5.70938 24.0937 5.35078C24.0937 4.8375 24.382 4.47891 24.9023 4.35234C25.0148 4.32422 26.5828 4.30312 28.3828 4.31016C31.6101 4.32422 31.6523 4.32422 31.8984 4.47891ZM6.61401 4.49297C6.91636 4.69688 7.07808 4.98516 7.07808 5.34375C7.07808 5.90625 6.6562 6.32812 6.0937 6.32812C5.34839 6.32812 4.86323 5.52656 5.2148 4.85859C5.44683 4.40156 6.17808 4.21172 6.61401 4.49297ZM10.8328 4.49297C11.4585 4.90781 11.4585 5.77969 10.8328 6.19453C10.4039 6.47578 9.76401 6.32109 9.46167 5.86406C9.29995 5.61797 9.28589 5.13281 9.43355 4.85859C9.66558 4.40156 10.3968 4.21172 10.8328 4.49297ZM15.0515 4.49297C15.3539 4.69688 15.5156 4.98516 15.5156 5.34375C15.5156 6.34219 14.2359 6.70078 13.6804 5.86406C13.5187 5.61797 13.5046 5.13281 13.6523 4.85859C13.8843 4.40156 14.6156 4.21172 15.0515 4.49297Z" fill="#FF4667"/>
<path d="M0.764062 22.1276L0.785156 33.6448L1.01016 34.1089C1.41797 34.9456 2.05078 35.5011 2.90156 35.7894C3.30938 35.93 3.51328 35.93 18.8906 35.9159L34.4648 35.8948L34.957 35.6558C35.6039 35.3394 36.1594 34.7839 36.4758 34.137L36.7148 33.6448L36.7359 22.1276L36.75 10.6175H18.75H0.75L0.764062 22.1276ZM22.4062 13.9573C22.6805 14.098 22.8984 14.4776 22.8984 14.8222C22.8984 15.0401 22.1602 16.8261 19.6992 22.5706C17.9414 26.6769 16.4578 30.1011 16.4016 30.1784C16.0008 30.748 15.1289 30.7198 14.7352 30.1222C14.4469 29.6792 14.3906 29.8198 17.843 21.762C20.9086 14.6112 21.1055 14.1894 21.3445 14.0206C21.6398 13.8237 22.0898 13.7956 22.4062 13.9573ZM12.9633 17.1636C13.0898 17.2409 13.2445 17.4026 13.3008 17.5081C13.4414 17.7823 13.4344 18.2464 13.2867 18.4995C13.2234 18.605 12.1898 19.4769 11.0016 20.4331C9.81328 21.3823 8.83594 22.1839 8.83594 22.2191C8.83594 22.2472 9.82734 23.0698 11.0367 24.0401C12.2672 25.0175 13.2797 25.8753 13.3219 25.9808C13.4344 26.2339 13.4273 26.6839 13.3008 26.93C13.0898 27.3378 12.3867 27.5628 11.9859 27.3448C11.6133 27.148 6.31875 22.8378 6.24844 22.6761C6.14297 22.4441 6.14297 21.9941 6.24844 21.762C6.31875 21.6073 11.55 17.3394 11.9648 17.1003C12.1969 16.9667 12.6961 17.0019 12.9633 17.1636ZM25.5141 17.0933C25.8867 17.2901 31.1812 21.6003 31.2516 21.762C31.3008 21.8605 31.3359 22.0714 31.3359 22.2191C31.3359 22.3667 31.3008 22.5776 31.2516 22.6761C31.1812 22.8378 25.8867 27.148 25.5141 27.3448C25.1133 27.5628 24.4102 27.3378 24.1992 26.93C24.0586 26.6558 24.0656 26.1917 24.2133 25.9386C24.2766 25.8331 25.3102 24.9612 26.4984 24.005C27.6867 23.0558 28.6641 22.2472 28.6641 22.2191C28.6641 22.1909 27.6867 21.3823 26.4984 20.4331C25.3102 19.4769 24.2766 18.605 24.2133 18.4995C23.9602 18.0636 24.1148 17.4097 24.5367 17.1566C24.7898 17.0019 25.282 16.9737 25.5141 17.0933Z" fill="#392C7D"/>
</g>
<defs>
<clipPath id="clip0_450_58883">
<rect width="36" height="36" fill="white" transform="translate(0.75)"/>
</clipPath>
</defs>
</svg>
