<svg width="37" height="36" viewBox="0 0 37 36" fill="none" xmlns="http://www.w3.org/2000/svg">
<path d="M24.0086 0.16894C23.6008 0.45019 23.5586 0.633003 23.5586 2.14472C23.5586 3.64941 23.5938 3.79707 24.0508 4.07832C24.2617 4.20488 24.3812 4.233 24.7258 4.20488C25.0984 4.17675 25.1758 4.1416 25.4078 3.9166L25.668 3.65644V2.10957V0.56269L25.4078 0.302534C25.1687 0.0634713 25.1055 0.0423775 24.7047 0.0142527C24.325 -0.00684118 24.2266 0.0142527 24.0086 0.16894Z" fill="#FF4667"/>
<path d="M16.8228 0.379612C16.197 0.604612 15.6697 1.16711 15.5009 1.78586C15.3814 2.21477 15.4587 3.00227 15.6415 3.37492C15.8736 3.83196 30.0837 18.0562 30.5829 18.3234C30.8572 18.471 31.0611 18.5273 31.4689 18.5484C32.1439 18.5835 32.6501 18.4077 33.079 17.9859C33.529 17.5429 33.6697 17.2195 33.7048 16.5585C33.7611 15.4898 34.3447 16.1507 26.1673 7.9593C18.0814 -0.140701 18.5454 0.281174 17.5892 0.281174C17.315 0.288206 16.9704 0.330393 16.8228 0.379612Z" fill="#392C7D"/>
<path d="M30.3791 2.24297C30.2666 2.31328 29.6548 2.88984 29.0291 3.52266C27.8337 4.73906 27.672 4.99219 27.7845 5.46328C27.9322 6.06094 28.2626 6.32812 28.8814 6.32812C29.233 6.32812 29.3103 6.3 29.6197 6.05391C29.8025 5.90625 30.4072 5.32266 30.9556 4.76719C32.0314 3.66328 32.0947 3.55078 32.0103 2.93203C31.9822 2.70703 31.9048 2.57344 31.6869 2.37656C31.4267 2.13047 31.3705 2.10938 30.9978 2.10938C30.7236 2.10938 30.5197 2.15156 30.3791 2.24297Z" fill="#FF4667"/>
<path d="M14.9876 5.83633C14.9736 5.89258 14.8681 6.33555 14.7697 6.8207C14.1158 9.84414 12.4353 13.2965 10.3751 15.8488L9.8689 16.4746L13.722 20.3277L17.5681 24.1738L18.1025 23.7379C20.6619 21.6566 23.7486 20.0816 26.7509 19.3293C27.3486 19.1816 27.9111 19.0551 28.0025 19.0551C28.0939 19.0551 28.1642 19.0129 28.1642 18.9637C28.1642 18.816 15.0228 5.72383 14.9876 5.83633Z" fill="#392C7D"/>
<path d="M30.3369 8.60653C29.7251 9.0284 29.7462 10.0128 30.372 10.4065C30.6111 10.5472 30.6884 10.5542 32.0947 10.5331L33.5783 10.512L33.8384 10.2448C34.0986 9.99168 34.1056 9.96356 34.1056 9.49247C34.1056 9.02137 34.0986 8.99325 33.8384 8.74012L33.5783 8.47293L32.0806 8.45184C30.597 8.43075 30.59 8.43075 30.3369 8.60653Z" fill="#FF4667"/>
<path d="M5.69225 20.8269C4.08912 22.437 2.86568 23.7237 2.76021 23.9066C2.19771 24.905 2.22584 26.3112 2.83756 27.2605C2.95709 27.4503 3.85709 28.3925 4.83443 29.3628C6.71178 31.2261 6.92271 31.3878 7.7524 31.6058C8.51881 31.8026 9.27115 31.7112 10.0235 31.3175C10.4102 31.1136 10.8883 30.6706 13.2579 28.3011L16.0352 25.5237L12.3087 21.7972C10.2626 19.7441 8.54693 18.0706 8.51178 18.0706C8.46959 18.0706 7.20396 19.3151 5.69225 20.8269ZM10.5438 23.1894C10.9446 23.4214 11.1274 24.0472 10.9094 24.455C10.8532 24.5605 10.3962 25.0526 9.89693 25.5448C8.95475 26.48 8.7649 26.5995 8.3149 26.5081C8.00553 26.4519 7.64693 26.1144 7.55553 25.805C7.40084 25.2987 7.52037 25.0948 8.60318 24.0331C9.16568 23.4776 9.64381 23.0628 9.74225 23.0417C9.98834 22.9995 10.3047 23.0558 10.5438 23.1894Z" fill="#392C7D"/>
<path d="M19.9305 24.8695C19.5367 25.1719 19.1641 25.4602 19.1078 25.5023C19.0164 25.5797 19.1078 25.7063 19.7477 26.3531C20.5422 27.1758 20.6406 27.3586 20.5352 27.893C20.5 28.0898 20.3242 28.3148 19.7125 28.9477C19.2836 29.3836 18.9109 29.7422 18.8828 29.7422C18.8547 29.7422 18.3555 29.2852 17.7789 28.7297L16.7242 27.7102L15.2055 29.2359L13.6797 30.7617L16.1477 33.1523C18.9883 35.9156 19.1078 36 20.0008 36C20.4719 36 20.6125 35.9719 20.9781 35.782C21.8289 35.3602 22.2648 34.4953 22.1102 33.5391C22.0188 32.9766 21.85 32.6953 21.1328 31.9781L20.4578 31.2961L21.2523 30.5016C21.6953 30.0656 22.1523 29.5594 22.2648 29.3695C22.9047 28.3922 22.9117 26.9297 22.293 25.9453C22.0609 25.5727 20.8656 24.3281 20.7391 24.3281C20.6898 24.3281 20.3242 24.5742 19.9305 24.8695Z" fill="#392C7D"/>
</svg>
