<svg width="37" height="36" viewBox="0 0 37 36" fill="none" xmlns="http://www.w3.org/2000/svg">
<path d="M17.2383 0.541407C16.8867 2.15859 16.943 2.01797 16.6617 2.07422C16.1062 2.17969 15.0867 2.56641 14.3273 2.96016L13.5258 3.38203L12.675 2.81953L11.8242 2.25703L10.8258 3.25547C10.2703 3.80391 9.82031 4.28203 9.82031 4.32422C9.82031 4.35938 9.96797 4.74609 10.1578 5.18203C10.4812 5.9625 10.4953 5.97656 10.9031 6.22266C11.1281 6.35625 11.4375 6.58125 11.5852 6.71484C11.7398 6.84844 11.8734 6.96094 11.8875 6.96094C11.9086 6.96094 12.0773 6.74297 12.2672 6.48281C14.7844 3.01641 19.5234 2.1375 23.0953 4.46484C23.9461 5.01328 24.7195 5.75156 25.2891 6.55313C25.4156 6.74297 25.5562 6.89062 25.5984 6.89062C25.6336 6.89062 25.7672 6.79922 25.8867 6.68672C25.9992 6.57422 26.3016 6.35625 26.5547 6.20156L27.0117 5.92734L27.3422 5.16094C27.525 4.73906 27.6797 4.35938 27.6797 4.32422C27.6797 4.28203 27.2297 3.80391 26.6812 3.25547L25.6758 2.25703L24.825 2.81953L23.9742 3.38203L23.1727 2.96016C22.4133 2.56641 21.3937 2.17969 20.8383 2.07422C20.557 2.01797 20.6133 2.15859 20.2617 0.541407L20.1422 0H18.75H17.3578L17.2383 0.541407Z" fill="#392C7D"/>
<path d="M18.0117 4.36719C15.9234 4.57109 13.8773 5.89297 12.8437 7.7L12.6328 8.06562L12.7804 8.39609C13.0195 8.95156 13.125 9.60547 13.125 10.6602C13.125 12.3266 12.8156 13.1703 11.8383 14.1687C11.0297 15.0055 11.0226 14.9984 12.5625 15.3852L13.7929 15.6875L15.0234 15.3852C16.1976 15.0898 16.2539 15.0687 16.275 14.893C16.289 14.7523 16.2258 14.6539 15.9797 14.457C15.3398 13.9297 14.7914 13.0367 14.5734 12.1578C14.4258 11.5461 14.4187 9.57734 14.5664 8.94453C15.0375 6.94766 16.95 5.52734 18.9961 5.64687C20.7117 5.74531 22.2797 7.00391 22.8422 8.71953C23.0531 9.37344 23.1094 11.3844 22.9336 12.1227C22.7156 13.0227 22.1742 13.9156 21.5203 14.457C21.2672 14.6539 21.2109 14.7523 21.225 14.893C21.2461 15.0687 21.2953 15.0898 22.4765 15.3852L23.707 15.6875L24.9375 15.3852C26.4773 14.9984 26.4703 14.9984 25.6547 14.1687C25.0148 13.5148 24.6633 12.882 24.4804 12.0594C24.382 11.6305 24.3679 11.2789 24.389 10.3156C24.4172 9.21875 24.4383 9.05703 24.6211 8.53672L24.8179 7.96719L24.5648 7.55234C23.2219 5.35859 20.6414 4.10703 18.0117 4.36719Z" fill="#392C7D"/>
<path d="M7.95702 6.91875C6.78281 7.29141 5.93202 8.24766 5.74218 9.39375C5.63671 10.0406 5.65781 11.4398 5.77734 11.918C5.99531 12.7477 6.52968 13.4648 7.23984 13.8797L7.57031 14.0766V15.0187V15.9539L7.31015 16.0242C7.16249 16.0594 6.86015 16.1367 6.63515 16.2C6.23437 16.2984 6.10781 16.3547 6.17109 16.4109C6.18515 16.418 6.92343 16.8539 7.80234 17.3672L9.41249 18.3023L9.38437 18.9562C9.37734 19.3219 9.37031 19.6172 9.38437 19.6172C9.3914 19.6172 9.82734 19.5258 10.3476 19.4062C10.868 19.2867 11.3109 19.1953 11.332 19.1953C11.3531 19.1953 11.3672 18.9633 11.3672 18.682C11.3672 18 11.6133 17.2828 12.007 16.8398C12.2672 16.5445 12.225 16.5164 11.1562 16.2422L10.1367 15.9891L10.1156 15.0328L10.0945 14.0766L10.4461 13.8586C10.9453 13.5352 11.4164 13.0008 11.6695 12.4594C11.8875 11.9953 11.8945 11.9672 11.9156 10.8C11.9508 9.17578 11.8031 8.64844 11.107 7.875C10.6992 7.41797 10.193 7.08047 9.67968 6.93281C9.22968 6.79922 8.35781 6.79219 7.95702 6.91875Z" fill="#392C7D"/>
<path d="M17.8009 6.94687C16.7954 7.2914 16.1063 7.99453 15.7548 9.01406C15.6493 9.3164 15.6282 9.61171 15.6212 10.5469C15.6212 11.5805 15.6423 11.7562 15.7829 12.1852C16.036 12.9094 16.6407 13.6266 17.2946 13.9641L17.4845 14.0695V15.0117V15.9539L17.2243 16.0242C17.0767 16.0664 16.247 16.2703 15.3751 16.4883C14.4259 16.7273 13.6595 16.9594 13.4485 17.0719C13.0407 17.2969 12.7454 17.6766 12.5977 18.1617C12.5063 18.4711 12.4571 18.9141 12.5134 18.9141C12.5204 18.9141 12.7946 18.8648 13.1251 18.8086C13.8352 18.682 15.0868 18.6609 15.7337 18.7664C16.2681 18.8578 16.936 19.0406 18.4759 19.5398C19.0735 19.7297 19.7837 19.9195 20.0509 19.9617C20.3251 20.0039 21.429 20.2922 22.5118 20.6016C23.5946 20.9109 24.5509 21.1641 24.6352 21.1641C25.0079 21.1641 25.0079 21.1781 25.0079 19.8C25.0079 18.3797 24.9376 18.007 24.6001 17.5359C24.2837 17.107 23.8548 16.9242 22.1251 16.4883C21.2532 16.2703 20.4235 16.0664 20.2829 16.0242L20.0157 15.9539V15.0117V14.0695L20.2126 13.9641C20.8595 13.6266 21.4642 12.9094 21.7173 12.1852C21.8579 11.7633 21.879 11.5805 21.872 10.6172C21.872 9.80156 21.8368 9.4289 21.7524 9.14062C21.422 8.07187 20.6415 7.26328 19.6431 6.94687C19.1157 6.78515 18.272 6.78515 17.8009 6.94687Z" fill="#FF4667"/>
<path d="M27.7782 6.92578C27.0962 7.14375 26.4142 7.65 26.0556 8.21953C25.6337 8.88047 25.5564 9.28828 25.5845 10.7016C25.6056 11.9812 25.6056 11.9883 25.8306 12.4594C26.0837 13.0008 26.5548 13.5352 27.054 13.8586L27.4056 14.0766L27.3845 15.0328L27.3634 15.9891L26.3439 16.2422C25.2751 16.5164 25.2329 16.5445 25.4931 16.8398C25.6829 17.0508 25.8868 17.4375 26.0134 17.8172C26.1048 18.0844 26.1329 18.4219 26.1329 19.2797C26.1329 19.8914 26.1611 20.3906 26.1962 20.3906C26.2454 20.3906 32.9251 16.9031 33.0165 16.8258C33.0939 16.7695 32.8829 16.6992 31.7087 16.4109C31.0196 16.2352 30.3376 16.0664 30.197 16.0242L29.9298 15.9539V15.0188V14.0836L30.3446 13.8234C31.0548 13.3875 31.5821 12.6141 31.765 11.7563C31.8845 11.1867 31.8071 9.49922 31.6454 9.03516C31.1462 7.62891 30.0212 6.80625 28.6009 6.82734C28.3056 6.83438 27.94 6.87656 27.7782 6.92578Z" fill="#392C7D"/>
<path d="M0.764111 19.9828L0.785205 25.6852L2.01567 26.1C2.69067 26.325 3.28833 26.5078 3.35161 26.5078C3.43599 26.5078 3.70317 25.5234 4.56802 22.057C5.17974 19.6172 5.67192 17.5781 5.67192 17.5289C5.67192 17.4586 0.890674 14.2734 0.785205 14.2734C0.764111 14.2734 0.75708 16.8398 0.764111 19.9828Z" fill="#392C7D"/>
<path d="M30.9141 19.2305L25.1203 22.2891H24.6562C24.2906 22.2891 23.7703 22.1625 22.0898 21.6844C20.0086 21.0867 19.9734 21.0797 19.3547 21.1148L18.7289 21.15L16.6828 22.1695C14.4398 23.2875 14.3906 23.3227 14.3906 23.9273C14.3906 24.5672 14.932 24.9961 15.5016 24.7992C15.6492 24.75 16.275 24.3984 16.9078 24.0188C18.4125 23.1188 18.5953 23.0344 19.207 23.0344C19.8047 23.0344 20.1703 23.1328 20.5852 23.407C20.7539 23.5266 22.1039 24.7148 23.5875 26.0438L26.2734 28.4766L31.5117 25.8539L36.75 23.2383V19.7086C36.75 17.7609 36.743 16.1719 36.7359 16.1719C36.7219 16.1789 34.1062 17.55 30.9141 19.2305Z" fill="#392C7D"/>
<path d="M5.67198 22.423C5.08839 24.7715 4.60323 26.7543 4.5962 26.8246C4.58214 26.923 4.71573 26.9933 5.20089 27.1621C5.54542 27.2746 5.84776 27.3379 5.87589 27.3098C5.96026 27.2043 8.20323 19.3152 8.20323 19.1183C8.20323 18.9566 8.11182 18.8793 7.52823 18.5348C7.15557 18.3168 6.8251 18.141 6.79698 18.141C6.76885 18.141 6.2626 20.0676 5.67198 22.423Z" fill="#392C7D"/>
<path d="M13.2305 19.9688C12.8438 20.0461 11.7188 20.2922 10.7344 20.5172L8.94844 20.918L8.11875 23.8008C7.66875 25.3828 7.28906 26.7188 7.28906 26.761C7.28906 26.8031 7.725 27.0985 8.25234 27.4149L9.21562 27.9914L9.98906 27.225C10.882 26.3461 10.9875 26.2758 11.4938 26.1633C12.4641 25.9594 13.4414 26.6063 13.6875 27.6188C13.7648 27.9422 13.7719 27.9563 14.1094 28.0336C14.8266 28.2024 15.368 28.7438 15.5297 29.4469C15.607 29.7563 15.6492 29.8266 15.7969 29.8547C16.7109 30.0446 17.2453 30.586 17.4422 31.5141C17.4703 31.6406 17.5336 31.711 17.6109 31.711C17.9133 31.711 18.3984 31.943 18.6656 32.2242C18.8203 32.386 19.0875 32.6602 19.2562 32.836C19.8328 33.4336 20.7188 34.0875 21.0141 34.1367C21.4711 34.2141 21.7242 34.0524 21.8719 33.5953C21.9703 33.2789 21.7594 33.0469 20.0859 31.6547L18.4195 30.2625L18.5672 30.0867C18.6445 29.9953 18.8133 29.7914 18.9398 29.6438L19.1578 29.3766L20.8594 30.7969C21.7945 31.5774 22.6523 32.2453 22.7719 32.2735C23.4187 32.4633 23.932 31.9149 23.6648 31.3313C23.6016 31.1977 20.7398 28.7297 20.3461 28.4625C20.2758 28.4203 20.9156 27.5625 21.0211 27.5625C21.0492 27.5625 21.8227 28.1883 22.7437 28.9547C23.6648 29.7211 24.4734 30.368 24.5437 30.3961C24.825 30.5016 25.1484 30.4453 25.3664 30.2485C25.5492 30.0867 25.5914 29.9953 25.5914 29.7563C25.5914 29.5664 25.5422 29.4047 25.4578 29.3133C25.0781 28.8844 20.1141 24.4828 19.8609 24.3422C19.5094 24.1524 19.0945 24.1453 18.7148 24.3211C18.5602 24.3914 17.8992 24.7711 17.2453 25.1649C16.5914 25.5516 15.9445 25.9031 15.8039 25.9453C15.143 26.1281 14.4398 25.9594 13.9125 25.4883C13.4133 25.0383 13.2375 24.6305 13.2305 23.9414C13.2305 23.4633 13.2586 23.3156 13.4273 22.9781C13.5398 22.7531 13.7437 22.4789 13.8844 22.3594C14.025 22.2399 14.8828 21.7688 15.7758 21.3188C16.6758 20.8688 17.4141 20.475 17.4141 20.4539C17.4141 20.4188 16.6336 20.1656 15.9023 19.9688C15.3469 19.8211 13.9898 19.8211 13.2305 19.9688Z" fill="#392C7D"/>
<path d="M11.5781 27.3305C11.5218 27.3516 11.1632 27.675 10.7906 28.0406C10.0523 28.7719 9.93978 28.9898 10.1015 29.3906C10.207 29.6508 10.4531 29.8125 10.7484 29.8125C11.0296 29.8125 11.2054 29.707 11.7468 29.1867C12.3445 28.6172 12.5624 28.2938 12.5624 27.9914C12.5554 27.4992 12.0562 27.1617 11.5781 27.3305Z" fill="#392C7D"/>
<path d="M13.5118 29.1868C13.2165 29.2642 11.9297 30.572 11.9227 30.804C11.8946 31.4228 12.2462 31.7673 12.7946 31.6618C13.111 31.5986 14.3485 30.3611 14.4118 30.0446C14.5243 29.4751 14.0672 29.0462 13.5118 29.1868Z" fill="#392C7D"/>
<path d="M14.5172 31.7672C13.8703 32.4141 13.7578 32.5617 13.7578 32.7516C13.7578 33.2297 14.0672 33.5391 14.5453 33.5391C14.7352 33.5391 14.8758 33.4336 15.5297 32.7797C16.1766 32.1328 16.2891 31.9852 16.2891 31.7953C16.2891 31.3172 15.9797 31.0078 15.5016 31.0078C15.3117 31.0078 15.1711 31.1133 14.5172 31.7672Z" fill="#392C7D"/>
<path d="M17.1679 32.9418C16.9007 33.0613 15.7547 34.2145 15.6632 34.4676C15.5648 34.7277 15.6914 35.1285 15.9093 35.2691C16.0007 35.3324 16.2117 35.3887 16.3664 35.3887C16.6336 35.3887 16.6968 35.3465 17.3789 34.6645C17.7937 34.2496 18.1172 33.8699 18.1382 33.7645C18.2507 33.1738 17.6953 32.7027 17.1679 32.9418Z" fill="#392C7D"/>
<path d="M19.0524 34.5378C19.0103 34.6292 18.8274 34.8683 18.6517 35.0652C18.4688 35.2691 18.3423 35.466 18.3634 35.5081C18.3915 35.5503 18.5392 35.6839 18.6938 35.7964C19.1931 36.155 19.8329 36.0425 19.9806 35.5714C20.079 35.262 19.9524 34.9667 19.6009 34.6714C19.411 34.5097 19.2282 34.3831 19.1931 34.3831C19.1509 34.3831 19.0946 34.4535 19.0524 34.5378Z" fill="#392C7D"/>
</svg>
