<svg width="37" height="36" viewBox="0 0 37 36" fill="none" xmlns="http://www.w3.org/2000/svg">
<g clip-path="url(#clip0_450_58888)">
<path d="M3.0976 0.660938C2.04994 0.991407 1.2976 1.72266 0.953065 2.73516C0.81244 3.16406 0.81244 3.22734 0.826502 15.5953L0.847596 28.0195L1.08666 28.5117C1.37494 29.0953 1.95853 29.7141 2.48588 29.9813C3.26635 30.375 3.2101 30.375 9.76322 30.375C13.0749 30.375 15.789 30.3539 15.789 30.3328C15.789 30.3047 15.6906 29.9883 15.5781 29.6227C15.2335 28.5398 15.1351 27.8227 15.1773 26.6133C15.2476 24.6797 15.7117 23.2875 16.9421 21.3047C17.2445 20.8266 17.4554 20.4187 17.4132 20.4047C17.2304 20.3414 17.1249 19.9617 17.1249 19.3711C17.1249 18.3375 17.2585 18.218 18.3835 18.2109C19.164 18.2109 19.1781 18.2109 19.3328 18.0211C19.4101 17.9086 19.8179 17.4375 20.2398 16.9594C20.6546 16.4813 20.9921 16.0594 20.9921 16.0242C20.9921 15.982 20.8867 15.8273 20.7671 15.6797L20.5351 15.3984H19.0726H17.6031L17.357 15.1523L17.1109 14.9062L17.139 14.175C17.1742 13.05 17.2445 13.0078 19.2484 13.0078C20.4859 13.0078 20.5632 13.0008 20.6054 12.8742C20.6265 12.7969 20.8374 12.5578 21.0624 12.3469C21.2945 12.1359 21.4843 11.932 21.4843 11.9039C21.4843 11.8687 21.2593 11.6227 20.9851 11.3555C20.4648 10.8422 20.1273 10.2797 20.0429 9.76641L19.9937 9.49219L12.3999 9.47812L4.80619 9.45703L4.60228 9.225L4.39838 9V7.30547V5.61094L4.60228 5.40703L4.80619 5.20312H13.1382C21.421 5.20312 21.4632 5.20312 21.646 5.34375C21.871 5.51953 21.9765 5.87109 21.9765 6.42656V6.84141L22.2929 6.79922C22.5742 6.75703 22.996 6.80625 23.4249 6.93281C23.5445 6.96094 23.6078 6.91172 23.7554 6.65859C24.0156 6.21563 24.5851 5.73047 25.0421 5.56172C25.2531 5.47734 25.464 5.41406 25.5062 5.41406C25.6257 5.41406 25.5343 3.21328 25.3937 2.76328C25.1054 1.85625 24.2335 0.984375 23.3406 0.703125C22.8835 0.5625 22.7429 0.5625 13.1242 0.569532C5.45306 0.569532 3.3226 0.590626 3.0976 0.660938ZM8.63119 13.0781C9.07416 13.2047 9.17963 13.4156 9.17963 14.175C9.17963 15.3703 9.13744 15.3984 7.15463 15.3984C6.339 15.3984 5.59369 15.3703 5.49525 15.3281C5.17885 15.2086 5.03119 14.8711 5.03119 14.2523C5.03119 13.4719 5.16478 13.2188 5.664 13.057C5.86791 12.9867 8.37103 13.0078 8.63119 13.0781ZM14.671 13.0781C15.114 13.2047 15.1913 13.3523 15.2124 14.175L15.2406 14.9062L14.9874 15.1594L14.7413 15.4055L13.1242 15.3844L11.4999 15.3633L11.3101 15.1664C11.1273 14.9836 11.1132 14.9273 11.0921 14.2875C11.071 13.4859 11.1835 13.2047 11.5843 13.0852C11.8937 13.0008 14.3546 12.9937 14.671 13.0781ZM8.97572 18.4148C9.1726 18.6188 9.17963 18.6398 9.17963 19.3711C9.17963 20.1023 9.1726 20.1234 8.97572 20.3273L8.77181 20.5312H7.1476H5.52338L5.29838 20.3273L5.06635 20.1234V19.3711V18.6188L5.29838 18.4148L5.52338 18.2109H7.1476H8.77181L8.97572 18.4148ZM14.9171 18.3375C15.1703 18.5344 15.2265 18.7383 15.2265 19.3711C15.2265 20.0039 15.1703 20.2078 14.9171 20.4047C14.7906 20.5102 14.5796 20.5312 13.2085 20.5312C12.2312 20.5312 11.5843 20.5031 11.4788 20.4539C11.1765 20.3133 11.0781 20.0461 11.0781 19.3359C11.0781 18.6961 11.0781 18.6891 11.3171 18.45L11.5562 18.2109H13.1663C14.5796 18.2109 14.7906 18.225 14.9171 18.3375ZM8.82806 23.4633C9.11635 23.632 9.17963 23.8359 9.17963 24.5672C9.17963 25.6852 9.04603 25.7555 6.96478 25.7203C5.74838 25.6992 5.53041 25.6852 5.36869 25.5727C5.11556 25.4039 5.03119 25.1156 5.03119 24.4758C5.03119 23.8852 5.17885 23.5336 5.47416 23.4141C5.55853 23.3789 6.30385 23.3508 7.1265 23.3508C8.40619 23.3438 8.65932 23.3578 8.82806 23.4633ZM14.9945 23.5898L15.2406 23.8359L15.2124 24.5672C15.1773 25.6922 15.0999 25.7344 13.1523 25.7344C11.6898 25.7344 11.4085 25.6781 11.2117 25.3617C11.0921 25.1719 11.0781 25.0383 11.0921 24.4617C11.1132 23.7445 11.1976 23.5477 11.5351 23.407C11.6124 23.3789 12.3648 23.3508 13.2156 23.3508L14.7484 23.3438L14.9945 23.5898Z" fill="#392C7D"/>
<path d="M25.5553 6.49688C25.3795 6.53906 25.1404 6.65156 25.0209 6.73594C24.817 6.88359 24.4373 7.50938 24.4373 7.70625C24.4373 7.85391 24.0154 8.15625 23.8115 8.15625C23.699 8.15625 23.46 8.08594 23.2701 8.00859C22.2576 7.55859 21.1608 8.14219 21.0764 9.17578C21.0272 9.80156 21.1889 10.118 21.9975 10.9477L22.7006 11.6719H25.949H29.1975L29.9358 10.9125C30.7584 10.0688 30.8709 9.85781 30.8217 9.20391C30.7865 8.69766 30.5194 8.26875 30.0764 8.02969C29.6826 7.81172 29.0709 7.79766 28.642 8.00859C28.4733 8.08594 28.2342 8.15625 28.1147 8.15625C27.8404 8.15625 27.4959 7.875 27.4256 7.61484C27.2217 6.77109 26.392 6.27188 25.5553 6.49688Z" fill="#FF4667"/>
<path d="M22.1946 12.8037C21.85 12.9443 21.5969 13.1834 21.4352 13.5561C21.1258 14.217 21.3157 14.9482 21.8992 15.3631L22.2016 15.574L25.9071 15.5951L29.6196 15.6162L29.9571 15.3842C30.4 15.0818 30.5899 14.7232 30.5899 14.1678C30.5899 13.6334 30.4 13.2607 29.9992 12.9725L29.6969 12.7615L26.0336 12.7475C23.8258 12.7404 22.3 12.7615 22.1946 12.8037Z" fill="#FF4667"/>
<path d="M21.0695 17.5781C17.4344 21.7898 16.2109 24.1383 16.2109 26.8805C16.2109 29.1797 17.0828 31.1625 18.8195 32.8008C20.1062 34.0102 21.6742 34.8258 23.5234 35.2406C24.1844 35.3883 24.4375 35.4023 25.9492 35.4023C27.7562 35.4023 28.15 35.3531 29.3945 34.9664C30.2242 34.7133 31.5602 34.0312 32.2422 33.518C33.8453 32.3016 34.9211 30.7617 35.4625 28.8984C35.6664 28.1813 35.7508 26.5148 35.6242 25.6922C35.2867 23.4914 33.8945 21.1289 30.9273 17.6977L30.0273 16.657L25.9562 16.643L21.8852 16.6289L21.0695 17.5781ZM26.1602 20.0531C26.4062 20.1656 26.5469 20.4539 26.5469 20.8336V21.1359L26.9336 21.2625C27.3766 21.4031 27.9742 21.7828 28.2555 22.0992C28.5367 22.4227 28.7969 22.957 28.7969 23.2031C28.7969 23.618 28.3187 23.8922 27.9461 23.6953C27.8758 23.6531 27.707 23.4492 27.5734 23.2453C27.1586 22.5984 26.6875 22.3383 25.9211 22.3453C24.8383 22.3523 24.1141 23.0766 24.3602 23.9062C24.5078 24.4125 24.9297 24.6516 26.0758 24.8977C26.9828 25.0875 27.468 25.2633 27.9461 25.5797C29.0852 26.332 29.3523 27.8156 28.5367 28.8844C28.2695 29.2359 27.5945 29.6438 27.0391 29.7914L26.5469 29.9109V30.2203C26.5469 30.6211 26.3922 30.9023 26.125 31.0008C25.6891 31.1484 25.3445 30.8531 25.2953 30.2766L25.2672 29.8969L24.8523 29.7773C23.8328 29.468 22.9891 28.5961 22.8484 27.7102C22.8062 27.457 22.8273 27.4078 23.0172 27.2109C23.3828 26.8453 23.875 26.9859 24.0297 27.4992C24.1352 27.8578 24.5148 28.3008 24.8875 28.4977C25.1336 28.6313 25.2883 28.6523 25.9562 28.6523C26.6805 28.6523 26.7578 28.6383 27.1445 28.4414C27.6648 28.1742 27.8547 27.8578 27.7773 27.3797C27.6789 26.7188 27.1375 26.3602 25.8086 26.0859C24.332 25.7766 23.5656 25.2844 23.2492 24.4336C22.757 23.1188 23.4812 21.7336 24.9086 21.2695L25.2672 21.15L25.2953 20.7703C25.3305 20.3836 25.4711 20.1445 25.7383 20.032C25.9281 19.9547 25.9492 19.9547 26.1602 20.0531Z" fill="#392C7D"/>
</g>
<defs>
<clipPath id="clip0_450_58888">
<rect width="36" height="36" fill="white" transform="translate(0.25)"/>
</clipPath>
</defs>
</svg>
