<svg width="24" height="24" viewBox="0 0 24 24" fill="none" xmlns="http://www.w3.org/2000/svg">
<path opacity="0.4" d="M21.74 11.7396C21.13 9.73956 19.61 8.29956 17.7 7.86956C17.14 5.36956 15.6 3.57956 13.42 2.89956C11.04 2.16956 8.28 2.87956 6.55 4.68956C5.02 6.27956 4.52 8.46956 5.11 10.7996C2.98 11.3196 2 13.1796 2 14.8596C2 16.7396 3.23 18.8496 5.97 19.0396H8.5V16.4096C8.5 15.1396 9.26 14.3796 10.53 14.3796H13.47C14.74 14.3796 15.5 15.1396 15.5 16.4096V19.0396H16.31C16.32 19.0396 16.34 19.0396 16.35 19.0396C17.77 19.0396 19.13 18.5096 20.17 17.5596C21.8 16.1396 22.4 13.9096 21.74 11.7396Z" fill="#F66962"/>
<path d="M13.47 14.3896H10.53C9.26 14.3896 8.5 15.1496 8.5 16.4196V19.3596C8.5 20.6296 9.26 21.3896 10.53 21.3896H13.47C14.74 21.3896 15.5 20.6296 15.5 19.3596V16.4196C15.5 15.1496 14.74 14.3896 13.47 14.3896ZM13.67 18.0496L12 19.9496L11.8 20.1796C11.53 20.4896 11.3 20.4096 11.3 19.9896V18.2096H10.54C10.19 18.2096 10.1 17.9996 10.33 17.7396L12 15.8396L12.2 15.6096C12.47 15.2996 12.7 15.3796 12.7 15.7996V17.5796H13.46C13.81 17.5696 13.9 17.7896 13.67 18.0496Z" fill="#F66962"/>
</svg>
