<svg width="111" height="83" viewBox="0 0 111 83" fill="none" xmlns="http://www.w3.org/2000/svg">
<g filter="url(#filter0_d_373_38187)">
<path d="M24.68 40.9299C25.5968 39.4826 27.1907 38.6055 28.9039 38.6055H77.8521C79.3121 38.6055 80.6991 39.2436 81.6491 40.3523L94.929 55.8523C97.708 59.0959 95.4032 64.1055 91.132 64.1055H19.0858C15.1451 64.1055 12.7532 59.759 14.8619 56.4299L24.68 40.9299Z" fill="#0DD3A3"/>
</g>
<path d="M31.3418 40.4437L31.3363 40.5489H31.4417H49.4266C49.851 40.5489 50.1944 40.8924 50.1944 41.3167C50.1944 41.7411 49.851 42.0846 49.4266 42.0846H30.5513C30.1269 42.0846 29.7835 41.7411 29.7835 41.3167C29.7835 31.3456 37.8963 23.2328 47.8686 23.2328C50.6099 23.2328 53.2431 23.8306 55.6953 25.0095C56.0772 25.1933 56.2384 25.6526 56.0547 26.0343C55.871 26.416 55.4112 26.5764 55.0297 26.3936C52.7864 25.315 50.377 24.7685 47.8686 24.7685C39.0361 24.7685 31.7976 31.723 31.3418 40.4437Z" fill="#002058" stroke="#002058" stroke-width="0.2"/>
<path d="M57.9788 10.8951C57.9788 16.6364 53.3067 21.308 47.5642 21.308C41.8247 21.308 37.1542 16.6365 37.1542 10.8951C37.1542 5.15381 41.8241 0.482813 47.5642 0.482813C53.3067 0.482813 57.9788 5.15385 57.9788 10.8951ZM56.4432 10.8951C56.4432 6.00028 52.4602 2.01847 47.5642 2.01847C42.6705 2.01847 38.6899 6.00033 38.6899 10.8951C38.6899 15.7899 42.6705 19.7724 47.5642 19.7724C52.4602 19.7724 56.4432 15.7906 56.4432 10.8951Z" fill="#002058" stroke="#002058" stroke-width="0.2"/>
<path d="M76.808 30.1926V30.2926H76.908H81.2471C81.6715 30.2926 82.0149 30.6361 82.0149 31.0605V53.0455C82.0149 53.4699 81.6715 53.8133 81.2471 53.8133H54.0551C53.6307 53.8133 53.2873 53.4699 53.2873 53.0455V31.0605C53.2873 30.6361 53.6307 30.2926 54.0551 30.2926H70.5439H70.6439V30.1926V24.1178C70.6439 23.6934 70.9873 23.35 71.4117 23.35H76.0401C76.4645 23.35 76.808 23.6934 76.808 24.1178V30.1926ZM72.2795 24.8857H72.1795V24.9857V35.9782V36.0782H72.2795H75.1723H75.2723V35.9782V24.9857V24.8857H75.1723H72.2795ZM70.6439 31.9283V31.8283H70.5439H54.9229H54.8229V31.9283V45.8136V45.9136H54.9229H80.3793H80.4793V45.8136V31.9283V31.8283H80.3793H76.908H76.808V31.9283V36.846C76.808 37.2704 76.4645 37.6138 76.0401 37.6138H71.4117C70.9873 37.6138 70.6439 37.2704 70.6439 36.846V31.9283ZM54.8229 52.1777V52.2777H54.9229H80.3793H80.4793V52.1777V47.5492V47.4492H80.3793H54.9229H54.8229V47.5492V52.1777Z" fill="#002058" stroke="#002058" stroke-width="0.2"/>
<path d="M66.2047 34.6122H65.6261C65.2017 34.6122 64.8583 34.2688 64.8583 33.8444C64.8583 33.42 65.2017 33.0766 65.6261 33.0766H66.2047C66.6291 33.0766 66.9725 33.42 66.9725 33.8444C66.9725 34.2688 66.6291 34.6122 66.2047 34.6122Z" fill="#002058" stroke="#002058" stroke-width="0.2"/>
<path d="M66.2047 38.663H65.6261C65.2017 38.663 64.8583 38.3196 64.8583 37.8952C64.8583 37.4708 65.2017 37.1273 65.6261 37.1273H66.2047C66.6291 37.1273 66.9725 37.4708 66.9725 37.8952C66.9725 38.3196 66.6291 38.663 66.2047 38.663Z" fill="#002058" stroke="#002058" stroke-width="0.2"/>
<path d="M59.8405 34.6122H59.262C58.8376 34.6122 58.4942 34.2688 58.4942 33.8444C58.4942 33.42 58.8376 33.0766 59.262 33.0766H59.8405C60.2649 33.0766 60.6084 33.42 60.6084 33.8444C60.6084 34.2688 60.2649 34.6122 59.8405 34.6122Z" fill="#002058" stroke="#002058" stroke-width="0.2"/>
<path d="M59.8405 38.663H59.262C58.8376 38.663 58.4942 38.3196 58.4942 37.8952C58.4942 37.4708 58.8376 37.1273 59.262 37.1273H59.8405C60.2649 37.1273 60.6084 37.4708 60.6084 37.8952C60.6084 38.3196 60.2649 38.663 59.8405 38.663Z" fill="#002058" stroke="#002058" stroke-width="0.2"/>
<defs>
<filter id="filter0_d_373_38187" x="0.0777588" y="28.6055" width="110.064" height="53.5" filterUnits="userSpaceOnUse" color-interpolation-filters="sRGB">
<feFlood flood-opacity="0" result="BackgroundImageFix"/>
<feColorMatrix in="SourceAlpha" type="matrix" values="0 0 0 0 0 0 0 0 0 0 0 0 0 0 0 0 0 0 127 0" result="hardAlpha"/>
<feOffset dy="4"/>
<feGaussianBlur stdDeviation="7"/>
<feComposite in2="hardAlpha" operator="out"/>
<feColorMatrix type="matrix" values="0 0 0 0 0.458333 0 0 0 0 0.458333 0 0 0 0 0.458333 0 0 0 0.25 0"/>
<feBlend mode="normal" in2="BackgroundImageFix" result="effect1_dropShadow_373_38187"/>
<feBlend mode="normal" in="SourceGraphic" in2="effect1_dropShadow_373_38187" result="shape"/>
</filter>
</defs>
</svg>
