<svg width="110" height="84" viewBox="0 0 110 84" fill="none" xmlns="http://www.w3.org/2000/svg">
<g filter="url(#filter0_d_373_38156)">
<path d="M24.6569 44.849C25.5954 43.5343 27.1112 42.7539 28.7265 42.7539H78.0298C79.3863 42.7539 80.6846 43.3051 81.6268 44.2809L93.8193 56.9089C96.884 60.0832 94.6346 65.3819 90.2222 65.3819H19.7123C15.6461 65.3819 13.2803 60.7864 15.6427 57.4769L24.6569 44.849Z" fill="#7B1FFE"/>
</g>
<path d="M36.6426 10.0268L36.6426 10.0269L36.6468 10.0285L42.9941 12.5048C41.7505 14.1792 41.1011 16.0922 41.1011 18.102C41.1011 23.7113 46.2328 28.299 52.5796 28.299C58.926 28.299 64.0581 23.761 64.0581 18.102C64.0581 16.1414 63.4091 14.1822 62.218 12.5522L67.6509 10.2835V19.7105L65.9334 22.9552L65.9333 22.9551L65.9307 22.9609C65.8088 23.2313 65.8014 23.5231 66.0012 23.7595C66.1853 23.9772 66.491 24.1414 66.8027 24.1414H70.0935C70.384 24.1414 70.709 24.0397 70.8481 23.7488C71.0388 23.5143 71.0299 23.2272 70.9098 22.9609L70.9094 22.9601L69.4127 19.7134V9.4899C69.4127 9.28921 69.3996 9.08867 69.2693 8.90084C69.1407 8.71529 68.9089 8.55763 68.5115 8.40653L68.5117 8.40626L68.5044 8.40411C68.5056 8.40447 68.5028 8.40357 68.4918 8.39951L68.4523 8.38469C68.4186 8.37192 68.371 8.35364 68.3103 8.33019C68.1889 8.28331 68.0157 8.21595 67.798 8.13104C67.3627 7.96122 66.7499 7.72131 66.0191 7.43479C64.5576 6.86175 62.6246 6.10233 60.6969 5.34444C58.7691 4.58655 56.8465 3.83022 55.4059 3.26335L53.6661 2.57864L53.179 2.38691L53.0507 2.33641L53.0178 2.32346L53.0095 2.32018L53.0086 2.31984C52.761 2.21058 52.5098 2.21057 52.2622 2.31983L36.6481 8.45583C36.3328 8.56859 36.0812 8.90091 36.0812 9.24242C36.0812 9.58539 36.2781 9.86503 36.6426 10.0268ZM62.129 18.102C62.129 22.7874 57.8347 26.6141 52.5238 26.6141C47.2129 26.6141 42.9186 22.7874 42.9186 18.102C42.9186 16.32 43.5611 14.6305 44.6919 13.1741L52.2062 16.1649C52.3366 16.2223 52.4658 16.2222 52.573 16.2222L52.5796 16.2222L52.5862 16.2222C52.6934 16.2222 52.8225 16.2223 52.9529 16.1649L60.3573 13.2229C61.5393 14.6777 62.129 16.3664 62.129 18.102ZM68.6559 22.4565H68.2511L68.4691 22.0421L68.6559 22.4565ZM39.3541 9.24242L52.6354 4.00447L65.9166 9.24242L52.6354 14.4804L39.3541 9.24242Z" fill="#002058" stroke="#002058" stroke-width="0.2" stroke-linecap="round" stroke-linejoin="round"/>
<path d="M52.8585 29.8805C41.9383 29.8805 33.0134 37.784 33.0134 47.5016C33.0134 47.9637 33.4602 48.3441 33.9501 48.3441H71.7668C72.2567 48.3441 72.7035 47.9637 72.7035 47.5016C72.7035 37.784 63.7786 29.8805 52.8585 29.8805ZM70.8244 46.6592H34.9483C35.4507 38.2583 43.292 31.5653 52.9142 31.5653C62.5356 31.5653 70.3221 38.3065 70.8244 46.6592Z" fill="#002058" stroke="#002058" stroke-width="0.2" stroke-linecap="round" stroke-linejoin="round"/>
<defs>
<filter id="filter0_d_373_38156" x="0.703491" y="32.7539" width="108.529" height="50.6289" filterUnits="userSpaceOnUse" color-interpolation-filters="sRGB">
<feFlood flood-opacity="0" result="BackgroundImageFix"/>
<feColorMatrix in="SourceAlpha" type="matrix" values="0 0 0 0 0 0 0 0 0 0 0 0 0 0 0 0 0 0 127 0" result="hardAlpha"/>
<feOffset dy="4"/>
<feGaussianBlur stdDeviation="7"/>
<feComposite in2="hardAlpha" operator="out"/>
<feColorMatrix type="matrix" values="0 0 0 0 0.458333 0 0 0 0 0.458333 0 0 0 0 0.458333 0 0 0 0.25 0"/>
<feBlend mode="normal" in2="BackgroundImageFix" result="effect1_dropShadow_373_38156"/>
<feBlend mode="normal" in="SourceGraphic" in2="effect1_dropShadow_373_38156" result="shape"/>
</filter>
</defs>
</svg>
