<svg width="114" height="84" viewBox="0 0 114 84" fill="none" xmlns="http://www.w3.org/2000/svg">
<g filter="url(#filter0_d_373_38177)">
<path d="M25.3234 42.3814C26.2485 40.9777 27.8171 40.1328 29.4983 40.1328H80.7469C82.1726 40.1328 83.5305 40.7415 84.4792 41.8058L98.2959 57.3058C101.169 60.5287 98.8811 65.6328 94.5635 65.6328H19.2833C15.3018 65.6328 12.9175 61.2059 15.1084 57.8814L25.3234 42.3814Z" fill="#1CBEEF"/>
</g>
<path d="M79.8927 8.68468H71.1719V4.81058C71.1719 4.29911 70.7188 3.85898 70.2014 3.85898H45.422C44.9046 3.85898 44.4515 4.29911 44.4515 4.81058V8.68468H35.4986C35.2348 8.68468 34.9787 8.81281 34.7904 8.99706C34.5904 9.19266 34.5282 9.44998 34.5282 9.69305C34.5282 9.87222 34.7034 13.5161 36.0417 17.7283L36.042 17.7294C37.8985 23.3484 41.0326 27.3427 45.2239 29.1827C46.6238 33.7041 49.8005 37.275 53.7946 38.7177V38.8175C53.7946 43.476 50.1819 47.1767 45.5381 47.1767C45.0207 47.1767 44.5676 47.6168 44.5676 48.1283V52.954C44.5676 53.4655 45.0207 53.9056 45.5381 53.9056H70.2014C70.7188 53.9056 71.1719 53.4655 71.1719 52.954V48.1283C71.1719 47.6168 70.7188 47.1767 70.2014 47.1767C65.496 47.1767 61.6547 43.4156 61.6547 38.8175V38.7754C65.8224 37.3325 69.0583 33.7034 70.4584 29.0674C74.4749 27.1714 77.5507 23.2352 79.3494 17.7291C80.7162 13.6059 80.8575 9.97349 80.863 9.70579C80.9266 9.43315 80.784 9.17613 80.6009 8.99707C80.4126 8.81281 80.1565 8.68468 79.8927 8.68468ZM38.3269 18.3156C37.1349 15.1552 36.6928 12.1011 36.5377 10.5879H44.4515V24.1134C44.4515 25.0059 44.501 25.8525 44.646 26.6967C41.4776 24.7665 39.5255 21.4934 38.3269 18.3156ZM59.7196 39.2758C60.0069 44.4107 64.0974 48.5747 69.2309 49.0153V51.9456H46.5085V49.0152C51.5854 48.5746 55.504 44.4625 55.6744 39.2184C56.3397 39.3257 57.0604 39.4285 57.7827 39.4285C58.444 39.4285 59.1058 39.3777 59.7196 39.2758ZM60.8274 37.0761L60.0785 37.3015C59.3296 37.4704 58.5842 37.5821 57.8407 37.5821C56.9795 37.5821 56.1189 37.4698 55.3163 37.2457C55.2768 37.2328 55.231 37.2169 55.1815 37.1996L55.1724 37.1965C55.119 37.1779 55.0619 37.158 55.0064 37.1399C54.9511 37.1219 54.896 37.1051 54.8464 37.0927C54.8053 37.0825 54.7626 37.0739 54.7248 37.0717C49.9625 35.4924 46.3925 30.3167 46.3925 24.1701V5.81894H69.2309V9.12532V10.204V24.1701C69.2309 30.3219 65.6549 35.5012 60.8284 37.0757C60.8281 37.0758 60.8277 37.0759 60.8274 37.0761ZM77.173 18.1954C76.0097 21.3252 74.1129 24.572 71.0258 26.5814C71.1316 25.7916 71.2299 24.9531 71.2299 24.1134V10.5879H78.9117C78.7572 12.098 78.3297 15.0834 77.173 18.1954Z" fill="#002058" stroke="#002058" stroke-width="0.2" stroke-linecap="round" stroke-linejoin="round"/>
<path d="M59.011 10.8963L59.0107 10.8958C58.7625 10.4101 58.207 10.0465 57.645 10.0465C57.0893 10.0465 56.5289 10.3481 56.2781 10.8981L54.1553 15.1077L49.45 15.7813C48.8864 15.8433 48.3925 16.2697 48.2073 16.8134C48.0225 17.3558 48.1424 17.968 48.5835 18.3397L52.0242 21.5936L51.2215 26.1936C51.0962 26.7503 51.352 27.2978 51.8407 27.6564C52.0884 27.8382 52.399 27.9596 52.7703 27.9596C53.0146 27.9596 53.2647 27.9007 53.458 27.7765L57.8179 25.6439L61.9514 27.7782L61.9514 27.7782L61.9534 27.7791C62.446 28.0201 63.0668 28.0221 63.5653 27.6564C64.062 27.2919 64.2474 26.7439 64.1858 26.2019L64.186 26.2019L64.185 26.196L63.3818 21.5936L66.8246 18.3377L66.8258 18.3365C67.2594 17.9124 67.3854 17.3611 67.1987 16.8134C67.1967 16.8075 67.1941 16.8018 67.191 16.7963C66.8937 16.2727 66.4649 15.8434 65.8394 15.7812L61.1346 15.1077L59.011 10.8963ZM61.3188 21.4065L62.0951 25.6917L58.2707 23.7397L58.2708 23.7397L58.2692 23.7389C58.0068 23.6106 57.6868 23.6142 57.3764 23.7356L57.3763 23.7353L57.3689 23.7389L53.2517 25.7529L54.0292 21.4063C54.0944 21.0851 53.9634 20.7684 53.7688 20.578L53.7681 20.5774L50.6071 17.5392L54.9902 16.8878L54.9902 16.8879L54.9947 16.8871C55.3115 16.8251 55.5713 16.6377 55.7029 16.3802L55.7034 16.3792L57.645 12.4718L59.5865 16.3792L59.587 16.3802C59.7103 16.6215 59.9666 16.885 60.3067 16.8889L64.685 17.5395L61.5841 20.5732C61.315 20.7747 61.2569 21.102 61.3188 21.4065Z" fill="#002058" stroke="#002058" stroke-width="0.2" stroke-linecap="round" stroke-linejoin="round"/>
<defs>
<filter id="filter0_d_373_38177" x="0.274963" y="30.1328" width="113.298" height="53.5" filterUnits="userSpaceOnUse" color-interpolation-filters="sRGB">
<feFlood flood-opacity="0" result="BackgroundImageFix"/>
<feColorMatrix in="SourceAlpha" type="matrix" values="0 0 0 0 0 0 0 0 0 0 0 0 0 0 0 0 0 0 127 0" result="hardAlpha"/>
<feOffset dy="4"/>
<feGaussianBlur stdDeviation="7"/>
<feComposite in2="hardAlpha" operator="out"/>
<feColorMatrix type="matrix" values="0 0 0 0 0.458333 0 0 0 0 0.458333 0 0 0 0 0.458333 0 0 0 0.25 0"/>
<feBlend mode="normal" in2="BackgroundImageFix" result="effect1_dropShadow_373_38177"/>
<feBlend mode="normal" in="SourceGraphic" in2="effect1_dropShadow_373_38177" result="shape"/>
</filter>
</defs>
</svg>
