<svg width="111" height="83" viewBox="0 0 111 83" fill="none" xmlns="http://www.w3.org/2000/svg">
<g filter="url(#filter0_d_373_38167)">
<path d="M24.68 41.7385C25.5968 40.2912 27.1907 39.4141 28.9039 39.4141H77.8521C79.3121 39.4141 80.6991 40.0522 81.6491 41.1609L94.929 56.6609C97.708 59.9045 95.4032 64.9141 91.132 64.9141H19.0858C15.1451 64.9141 12.7532 60.5676 14.8619 57.2385L24.68 41.7385Z" fill="#FED700"/>
</g>
<path d="M51.9946 20.6297C57.6096 20.6297 62.1979 16.0414 62.1979 10.4264C62.1979 4.81055 57.6089 0.282812 51.9946 0.282812C46.3803 0.282812 41.7912 4.81055 41.7912 10.4264C41.7912 16.0414 46.3795 20.6297 51.9946 20.6297ZM51.9946 2.27631C56.4838 2.27631 60.2044 5.93902 60.2044 10.4264C60.2044 14.9151 56.5422 18.6362 51.9946 18.6362C47.447 18.6362 43.7847 14.9151 43.7847 10.4264C43.7847 5.93856 47.446 2.27631 51.9946 2.27631Z" fill="#002058" stroke="#002058" stroke-width="0.2" stroke-linecap="round" stroke-linejoin="round"/>
<path d="M70.8314 15.8501L70.8305 15.8494C70.0953 15.2367 69.1725 14.9269 68.2456 15.0495C67.3228 15.1119 66.4618 15.5431 65.8472 16.2807C64.6171 17.7569 64.8004 20.0317 66.278 21.2636C66.2782 21.2637 66.2783 21.2638 66.2785 21.2639L68.7287 23.3556L68.7303 23.3569C69.4035 23.9077 70.2025 24.2165 71.0056 24.2165C71.6521 24.2165 72.3008 24.0477 72.8431 23.7077L74.6122 25.5909V38.7829H69.7278C69.4366 29.3882 61.7013 21.8643 52.2935 21.8643C42.8267 21.8643 35.0906 29.3877 34.8585 38.7829H32.7444C32.2109 38.7829 31.7477 39.2462 31.7477 39.7797V49.5841C31.7477 50.1176 32.2109 50.5808 32.7444 50.5808H79.2557C79.7892 50.5808 80.2524 50.1176 80.2524 49.5841V39.7797H80.2532L80.2516 39.7673C80.1865 39.2462 79.7315 38.7829 79.1959 38.7829H76.6056V25.1328C76.6056 24.8895 76.547 24.6094 76.3323 24.4588L74.1752 22.1269C74.8717 20.7197 74.4943 18.9726 73.2823 17.9424L70.8314 15.8501ZM67.5433 19.736L67.5424 19.7353C66.8702 19.1751 66.811 18.2224 67.3759 17.5446C67.6554 17.2091 67.9882 17.0405 68.4412 16.9827H68.4416H68.4419H68.4423H68.4426H68.443H68.4433H68.4437H68.444H68.4444H68.4447H68.4451H68.4454H68.4458H68.4461H68.4465H68.4468H68.4472H68.4475H68.4479H68.4482H68.4486H68.4489H68.4493H68.4496H68.45H68.4503H68.4506H68.451H68.4513H68.4517H68.452H68.4524H68.4527H68.4531H68.4534H68.4538H68.4541H68.4545H68.4548H68.4552H68.4555H68.4558H68.4562H68.4565H68.4569H68.4572H68.4576H68.4579H68.4583H68.4586H68.459H68.4593H68.4596H68.46H68.4603H68.4607H68.461H68.4614H68.4617H68.462H68.4624H68.4627H68.4631H68.4634H68.4637H68.4641H68.4644H68.4648H68.4651H68.4654H68.4658H68.4661H68.4665H68.4668H68.4671H68.4675H68.4678H68.4682H68.4685H68.4688H68.4692H68.4695H68.4698H68.4702H68.4705H68.4709H68.4712H68.4715H68.4719H68.4722H68.4725H68.4729H68.4732H68.4735H68.4739H68.4742H68.4745H68.4749H68.4752H68.4755H68.4759H68.4762H68.4765H68.4769H68.4772H68.4775H68.4778H68.4782H68.4785H68.4788H68.4792H68.4795H68.4798H68.4801H68.4805H68.4808H68.4811H68.4814H68.4818H68.4821H68.4824H68.4827H68.4831H68.4834H68.4837H68.484H68.4844H68.4847H68.485H68.4853H68.4856H68.486H68.4863H68.4866H68.4869H68.4872H68.4876H68.4879H68.4882H68.4885H68.4888H68.4891H68.4895H68.4898H68.4901H68.4904H68.4907H68.491H68.4913H68.4917H68.492H68.4923H68.4926H68.4929H68.4932H68.4935H68.4938H68.4941H68.4945H68.4948H68.4951H68.4954H68.4957H68.496H68.4963H68.4966H68.4969H68.4972H68.4975H68.4978H68.4981H68.4984H68.4987H68.499H68.4993H68.4996H68.4999H68.5002H68.5005H68.5008H68.5011H68.5014H68.5017H68.502H68.5023H68.5026H68.5029H68.5032H68.5035H68.5038H68.5041H68.5044H68.5047H68.5049H68.5052H68.5055H68.5058H68.5061H68.5064H68.5067H68.507H68.5072H68.5075H68.5078H68.5081H68.5084H68.5087H68.5089H68.5092H68.5095H68.5098H68.5101H68.5104H68.5106H68.5109H68.5112H68.5115H68.5117H68.512H68.5123H68.5126H68.5128H68.5131H68.5134H68.5137H68.5139H68.5142H68.5145H68.5147H68.515H68.5153H68.5155H68.5158H68.5161H68.5163H68.5166H68.5169H68.5171H68.5174H68.5177H68.5179H68.5182H68.5184H68.5187H68.5189H68.5192H68.5195H68.5197H68.52H68.5202H68.5205H68.5207H68.521H68.5212H68.5215H68.5217H68.522H68.5222H68.5225H68.5227H68.523H68.5232H68.5235H68.5237H68.524H68.5242H68.5244H68.5247H68.5249H68.5252H68.5254H68.5256H68.5259H68.5261H68.5264H68.5266H68.5268H68.5271H68.5273H68.5275H68.5278H68.528H68.5282H68.5284H68.5287H68.5289H68.5291H68.5294H68.5296H68.5298H68.53H68.5302H68.5305H68.5307H68.5309H68.5311H68.5313H68.5316H68.5318H68.532H68.5322H68.5324H68.5326H68.5328H68.5331H68.5333H68.5335H68.5337H68.5339H68.5341H68.5343H68.5345H68.5347H68.5349H68.5351H68.5353H68.5355H68.5357H68.5359H68.5361H68.5363H68.5365H68.5367H68.5369H68.5371H68.5373H68.5375H68.5377H68.5379H68.5381H68.5382H68.5384H68.5386H68.5388H68.539H68.5392H68.5393H68.5395H68.5397H68.5399H68.5401H68.5402H68.5404H68.5406H68.5408H68.5409H68.5411H68.5413H68.5415H68.5416H68.5418H68.542H68.5421H68.5423H68.5425H68.5426H68.5428H68.543H68.5431H68.5433H68.5434H68.5436H68.5438H68.5439H68.5441H68.5442H68.5444H68.5445H68.5447H68.5448H68.545H68.5451H68.5453H68.5454H68.5456H68.5457H68.5458H68.546H68.5461H68.5463H68.5464H68.5465H68.5467H68.5468H68.5469H68.5471H68.5472H68.5473H68.5475H68.5476H68.5477H68.5478H68.548H68.5481H68.5482H68.5483H68.5485H68.5486H68.5487H68.5488H68.5489H68.549H68.5492H68.5493H68.5494H68.5495H68.5496H68.5497H68.5498H68.5499H68.55H68.5501H68.5502H68.5503H68.5504H68.5505H68.5506H68.5507H68.5508H68.5509H68.551H68.5511H68.5512H68.5513H68.5514H68.5515H68.5516H68.5516H68.5517H68.5518H68.5519H68.552H68.552H68.5521H68.5522H68.5523H68.5523H68.5524H68.5525H68.5526H68.5526H68.5527H68.5528H68.5528H68.5529H68.553H68.553H68.5531H68.5531H68.5532H68.5533H68.5533H68.5534H68.5534H68.5535H68.5535H68.5536H68.5536H68.5537H68.5537H68.5538H68.5538H68.5538H68.5539H68.5539H68.554H68.554H68.554H68.5541H68.5541H68.5541H68.5542H68.5542H68.5543H68.5543H68.5544H68.5544H68.5544H68.5545C68.8939 16.9827 69.2843 17.0963 69.5599 17.3719L69.5597 17.3722L69.5657 17.3773L72.0168 19.4697L72.0177 19.4705C72.6893 20.0302 72.749 20.9818 72.1856 21.6595C71.6213 22.2787 70.6668 22.3884 69.994 21.8281C69.9938 21.8279 69.9937 21.8278 69.9935 21.8277L67.5433 19.736ZM52.2337 23.798C60.5749 23.798 67.4427 30.4556 67.6748 38.7231H36.7933C37.084 30.4548 43.8933 23.798 52.2337 23.798ZM78.1991 48.5874H33.6814V40.7764H78.1991V48.5874Z" fill="#002058" stroke="#002058" stroke-width="0.2" stroke-linecap="round" stroke-linejoin="round"/>
<defs>
<filter id="filter0_d_373_38167" x="0.0777283" y="29.4141" width="110.064" height="53.5" filterUnits="userSpaceOnUse" color-interpolation-filters="sRGB">
<feFlood flood-opacity="0" result="BackgroundImageFix"/>
<feColorMatrix in="SourceAlpha" type="matrix" values="0 0 0 0 0 0 0 0 0 0 0 0 0 0 0 0 0 0 127 0" result="hardAlpha"/>
<feOffset dy="4"/>
<feGaussianBlur stdDeviation="7"/>
<feComposite in2="hardAlpha" operator="out"/>
<feColorMatrix type="matrix" values="0 0 0 0 0.458333 0 0 0 0 0.458333 0 0 0 0 0.458333 0 0 0 0.25 0"/>
<feBlend mode="normal" in2="BackgroundImageFix" result="effect1_dropShadow_373_38167"/>
<feBlend mode="normal" in="SourceGraphic" in2="effect1_dropShadow_373_38167" result="shape"/>
</filter>
</defs>
</svg>
