<svg width="21" height="21" viewBox="0 0 21 21" fill="none" xmlns="http://www.w3.org/2000/svg">
<path d="M9.94188 0.27114C9.89781 0.275146 9.7576 0.289167 9.63141 0.299182C6.72104 0.561576 3.99494 2.13194 2.26835 4.54556C1.3069 5.88758 0.69198 7.40987 0.459631 9.02229C0.377508 9.58513 0.367493 9.75138 0.367493 10.5145C0.367493 11.2777 0.377508 11.4439 0.459631 12.0068C1.01647 15.8546 3.75458 19.0874 7.46816 20.2852C8.13316 20.4995 8.83422 20.6458 9.63141 20.7339C9.94188 20.7679 11.2839 20.7679 11.5944 20.7339C12.9704 20.5817 14.1362 20.2411 15.2859 19.6543C15.4622 19.5641 15.4962 19.5401 15.4722 19.5201C15.4562 19.508 14.705 18.5005 13.8037 17.2827L12.1652 15.0694L10.1121 12.0308C8.98244 10.3603 8.05304 8.99425 8.04503 8.99425C8.03702 8.99224 8.02901 10.3423 8.025 11.9908C8.01899 14.8771 8.01699 14.9933 7.98093 15.0614C7.92885 15.1595 7.88879 15.1996 7.80467 15.2436C7.74057 15.2757 7.68449 15.2817 7.38203 15.2817H7.03551L6.94337 15.2236C6.88328 15.1855 6.83922 15.1355 6.80917 15.0774L6.76711 14.9873L6.77112 10.9712L6.77712 6.95318L6.83922 6.87506C6.87127 6.833 6.93937 6.77892 6.98744 6.75288C7.06956 6.71282 7.10161 6.70881 7.44813 6.70881C7.85675 6.70881 7.92485 6.72484 8.03101 6.84101C8.06105 6.87306 9.17272 8.54758 10.5027 10.5646C11.8327 12.5816 13.6515 15.3358 14.5448 16.6878L16.1672 19.1455L16.2494 19.0914C16.9764 18.6187 17.7456 17.9457 18.3545 17.2446C19.6505 15.7564 20.4857 13.9417 20.7661 12.0068C20.8483 11.4439 20.8583 11.2777 20.8583 10.5145C20.8583 9.75138 20.8483 9.58513 20.7661 9.02229C20.2093 5.17451 17.4712 1.94165 13.7576 0.74385C13.1026 0.531531 12.4056 0.385312 11.6244 0.297179C11.4321 0.277149 10.1081 0.255116 9.94188 0.27114ZM14.1362 6.46845C14.2323 6.51652 14.3104 6.60866 14.3385 6.70481C14.3545 6.75688 14.3585 7.87056 14.3545 10.3803L14.3485 13.9817L13.7135 13.0083L13.0766 12.0348V9.41688C13.0766 7.72434 13.0846 6.77291 13.0966 6.72684C13.1287 6.61467 13.1988 6.52654 13.2949 6.47446C13.377 6.4324 13.4071 6.42839 13.7216 6.42839C14.018 6.42839 14.0701 6.4324 14.1362 6.46845Z" fill="#191919"/>
</svg>
