<svg width="20" height="20" viewBox="0 0 20 20" fill="none" xmlns="http://www.w3.org/2000/svg">
<path d="M20.009 10.0004C20.009 15.051 16.2663 19.2264 11.4042 19.904C10.9496 19.9671 10.4844 20 10.0123 20C9.46732 20 8.93214 19.9566 8.41098 19.8725C3.65044 19.1059 0.0148926 14.9774 0.0148926 10.0004C0.0148926 4.47746 4.49103 0 10.0116 0C15.5322 0 20.009 4.47746 20.009 10.0004Z" fill="#1877F2"/>
<path d="M11.4042 8.02949V10.208H14.0983L13.6717 13.1425H11.4042V19.9035C10.9496 19.9666 10.4845 19.9995 10.0124 19.9995C9.46737 19.9995 8.9322 19.9561 8.41103 19.872V13.1425H5.92639V10.208H8.41103V7.54251C8.41103 5.88886 9.75107 4.54773 11.4049 4.54773V4.54913C11.4098 4.54913 11.414 4.54773 11.4189 4.54773H14.099V7.08565H12.3478C11.8273 7.08565 11.4049 7.50818 11.4049 8.02879L11.4042 8.02949Z" fill="white"/>
</svg>
