<svg width="141" height="41" viewBox="0 0 141 41" fill="none" xmlns="http://www.w3.org/2000/svg">
<rect width="112.8" height="32.8" rx="8" transform="matrix(1.25 0 0 -1.25 0 41)" fill="#483D85"/>
<path d="M52.0955 11.7949C52.0955 12.545 51.867 13.1458 51.4168 13.5939C50.8992 14.125 50.225 14.3923 49.3988 14.3923C48.6092 14.3923 47.9351 14.1205 47.382 13.5849C46.8278 13.0414 46.5513 12.3744 46.5513 11.5759C46.5513 10.7775 46.8278 10.1105 47.382 9.57147C47.9351 9.03134 48.6092 8.75958 49.3988 8.75958C49.7919 8.75958 50.1667 8.83931 50.5244 8.98754C50.8809 9.13689 51.1711 9.33902 51.3814 9.58832L50.9037 10.0622C50.5369 9.63661 50.0376 9.42661 49.3988 9.42661C48.8229 9.42661 48.3236 9.62425 47.8996 10.0229C47.4803 10.4227 47.27 10.9403 47.27 11.5759C47.27 12.2115 47.4803 12.7337 47.8996 13.1335C48.3236 13.5276 48.8229 13.7298 49.3988 13.7298C50.0102 13.7298 50.5244 13.5276 50.93 13.129C51.1974 12.8651 51.3494 12.5012 51.3894 12.0363H49.3988V11.3873H52.0544C52.0864 11.5277 52.0955 11.6635 52.0955 11.7949Z" fill="white"/>
<path d="M56.3086 9.54452H53.8141V11.2514H56.0629V11.9005H53.8141V13.6073H56.3086V14.2688H53.1079V8.8831H56.3086V9.54452Z" fill="white"/>
<path d="M59.2818 14.2688H58.5757V9.54452H57.0456V8.8831H60.813V9.54452H59.2818V14.2688Z" fill="white"/>
<path d="M63.5395 14.2688V8.8831H64.2445V14.2688H63.5395Z" fill="white"/>
<path d="M67.3697 14.2688H66.6692V9.54452H65.1335V8.8831H68.9055V9.54452H67.3697V14.2688Z" fill="white"/>
<path d="M76.0381 13.5759C75.4976 14.1205 74.828 14.3923 74.0293 14.3923C73.226 14.3923 72.5563 14.1205 72.0159 13.5759C71.4765 13.0324 71.208 12.3654 71.208 11.5759C71.208 10.7865 71.4765 10.1195 72.0159 9.57597C72.5563 9.03134 73.226 8.75958 74.0293 8.75958C74.8234 8.75958 75.493 9.03134 76.0335 9.58046C76.5774 10.1285 76.846 10.791 76.846 11.5759C76.846 12.3654 76.5774 13.0324 76.0381 13.5759ZM72.5381 13.1245C72.9449 13.5276 73.4396 13.7298 74.0293 13.7298C74.6143 13.7298 75.1137 13.5276 75.5159 13.1245C75.9215 12.7213 76.1272 12.2037 76.1272 11.5759C76.1272 10.9482 75.9215 10.4305 75.5159 10.0274C75.1137 9.62425 74.6143 9.42212 74.0293 9.42212C73.4396 9.42212 72.9449 9.62425 72.5381 10.0274C72.1324 10.4305 71.9267 10.9482 71.9267 11.5759C71.9267 12.2037 72.1324 12.7213 72.5381 13.1245Z" fill="white"/>
<path d="M77.8366 14.2688V8.8831H78.6937L81.3584 13.0717H81.3892L81.3584 12.0363V8.8831H82.0634V14.2688H81.3275L78.5371 9.87354H78.5063L78.5371 10.9134V14.2688H77.8366Z" fill="white"/>
<path d="M71.0343 22.1341C68.8872 22.1341 67.1332 23.7399 67.1332 25.9555C67.1332 28.1531 68.8872 29.7758 71.0343 29.7758C73.186 29.7758 74.94 28.1531 74.94 25.9555C74.94 23.7399 73.186 22.1341 71.0343 22.1341ZM71.0343 28.271C69.8562 28.271 68.8427 27.3154 68.8427 25.9555C68.8427 24.5776 69.8562 23.6388 71.0343 23.6388C72.2124 23.6388 73.2305 24.5776 73.2305 25.9555C73.2305 27.3154 72.2124 28.271 71.0343 28.271ZM62.5225 22.1341C60.3708 22.1341 58.6214 23.7399 58.6214 25.9555C58.6214 28.1531 60.3708 29.7758 62.5225 29.7758C64.673 29.7758 66.4236 28.1531 66.4236 25.9555C66.4236 23.7399 64.673 22.1341 62.5225 22.1341ZM62.5225 28.271C61.3433 28.271 60.3263 27.3154 60.3263 25.9555C60.3263 24.5776 61.3433 23.6388 62.5225 23.6388C63.7006 23.6388 64.7142 24.5776 64.7142 25.9555C64.7142 27.3154 63.7006 28.271 62.5225 28.271ZM52.3938 23.3053V24.9291H56.3395C56.2241 25.8365 55.9155 26.5035 55.4425 26.9684C54.8666 27.5299 53.9696 28.1531 52.3938 28.1531C49.9656 28.1531 48.0642 26.2272 48.0642 23.841C48.0642 21.4547 49.9656 19.5288 52.3938 19.5288C53.7067 19.5288 54.662 20.0331 55.3671 20.6866L56.5314 19.5423C55.5453 18.617 54.2335 17.9062 52.3938 17.9062C49.064 17.9062 46.2656 20.5687 46.2656 23.841C46.2656 27.1132 49.064 29.7758 52.3938 29.7758C54.1935 29.7758 55.5453 29.1963 56.608 28.1093C57.697 27.0391 58.0363 25.5344 58.0363 24.3193C58.0363 23.942 58.0044 23.595 57.9472 23.3053H52.3938ZM93.8113 24.5641C93.4902 23.7096 92.4995 22.1341 90.4815 22.1341C88.4819 22.1341 86.817 23.6826 86.817 25.9555C86.817 28.0958 88.4647 29.7758 90.6735 29.7758C92.4595 29.7758 93.4902 28.7056 93.9142 28.0823L92.5887 27.2143C92.1464 27.8499 91.5442 28.271 90.6735 28.271C89.8085 28.271 89.188 27.8813 88.7904 27.1132L93.9907 24.9987L93.8113 24.5641ZM88.5093 25.8364C88.4647 24.3631 89.6737 23.6085 90.5398 23.6085C91.2186 23.6085 91.7945 23.942 91.9865 24.4193L88.5093 25.8364ZM84.2825 29.5433H85.992V18.3138H84.2825V29.5433ZM81.483 22.9853H81.4258C81.0419 22.5384 80.3094 22.1341 79.3816 22.1341C77.4345 22.1341 75.6542 23.814 75.6542 25.9678C75.6542 28.1093 77.4345 29.7758 79.3816 29.7758C80.3094 29.7758 81.0419 29.3681 81.4258 28.9077H81.483V29.4557C81.483 30.9167 80.6888 31.7016 79.4079 31.7016C78.3634 31.7016 77.7156 30.9605 77.4482 30.3372L75.9615 30.947C76.39 31.9599 77.5247 33.2064 79.4079 33.2064C81.4121 33.2064 83.1033 32.0475 83.1033 29.2278V22.3665H81.483V22.9853ZM79.5278 28.271C78.3497 28.271 77.3636 27.3019 77.3636 25.9678C77.3636 24.6214 78.3497 23.6388 79.5278 23.6388C80.6888 23.6388 81.6041 24.6214 81.6041 25.9678C81.6041 27.3019 80.6888 28.271 79.5278 28.271ZM101.815 18.3138H97.7261V29.5433H99.431V25.2885H101.815C103.708 25.2885 105.565 23.942 105.565 21.8006C105.565 19.6602 103.703 18.3138 101.815 18.3138ZM101.859 23.7264H99.431V19.8758H101.859C103.132 19.8758 103.859 20.9146 103.859 21.8006C103.859 22.6697 103.132 23.7264 101.859 23.7264ZM112.398 22.1128C111.166 22.1128 109.885 22.6473 109.359 23.832L110.871 24.4552C111.197 23.832 111.796 23.6299 112.429 23.6299C113.313 23.6299 114.21 24.152 114.224 25.074V25.1919C113.916 25.0167 113.255 24.7573 112.443 24.7573C110.813 24.7573 109.153 25.6388 109.153 27.2839C109.153 28.7887 110.488 29.7578 111.988 29.7578C113.135 29.7578 113.768 29.2491 114.166 28.6573H114.224V29.5253H115.871V25.2177C115.871 23.2267 114.358 22.1128 112.398 22.1128ZM112.192 28.2665C111.635 28.2665 110.858 27.9948 110.858 27.3154C110.858 26.4462 111.827 26.1127 112.666 26.1127C113.416 26.1127 113.768 26.2755 114.224 26.49C114.09 27.5299 113.18 28.2665 112.192 28.2665ZM121.87 22.3587L119.91 27.2267H119.852L117.826 22.3587H115.987L119.031 29.1615L117.294 32.947H119.076L123.767 22.3587H121.87ZM106.502 29.5433H108.211V18.3138H106.502V29.5433Z" fill="white"/>
<path d="M17.6572 9.36503C17.3887 9.64128 17.2333 10.0714 17.2333 10.6284V30.4956C17.2333 31.0525 17.3887 31.4826 17.6572 31.7589L17.7235 31.8195L29.052 20.6911V20.4283L17.7235 9.2999L17.6572 9.36503Z" fill="url(#paint0_linear_233_19967)"/>
<path d="M32.8237 24.4023L29.0518 20.6909V20.4282L32.8283 16.7168L32.9129 16.7651L37.3853 19.2659C38.6617 19.9756 38.6617 21.1435 37.3853 21.8577L32.9129 24.354L32.8237 24.4023Z" fill="url(#paint1_linear_233_19967)"/>
<path d="M32.9126 24.354L29.0515 20.5596L17.6567 31.7588C18.0807 32.1967 18.772 32.2495 19.5582 31.8115L32.9126 24.354Z" fill="url(#paint2_linear_233_19967)"/>
<path d="M32.9126 16.7652L19.5582 9.30775C18.772 8.87429 18.0807 8.92707 17.6567 9.36502L29.0515 20.5597L32.9126 16.7652Z" fill="url(#paint3_linear_233_19967)"/>
<defs>
<linearGradient id="paint0_linear_233_19967" x1="28.0462" y1="30.7025" x2="12.9718" y2="15.3633" gradientUnits="userSpaceOnUse">
<stop stop-color="#00A0FF"/>
<stop offset="0.0066" stop-color="#00A1FF"/>
<stop offset="0.2601" stop-color="#00BEFF"/>
<stop offset="0.5122" stop-color="#00D2FF"/>
<stop offset="0.7604" stop-color="#00DFFF"/>
<stop offset="1" stop-color="#00E3FF"/>
</linearGradient>
<linearGradient id="paint1_linear_233_19967" x1="39.0474" y1="20.5583" x2="16.9279" y2="20.5583" gradientUnits="userSpaceOnUse">
<stop stop-color="#FFE000"/>
<stop offset="0.4087" stop-color="#FFBD00"/>
<stop offset="0.7754" stop-color="#FFA500"/>
<stop offset="1" stop-color="#FF9C00"/>
</linearGradient>
<linearGradient id="paint2_linear_233_19967" x1="30.8131" y1="18.4969" x2="10.3711" y2="-2.3043" gradientUnits="userSpaceOnUse">
<stop stop-color="#FF3A44"/>
<stop offset="1" stop-color="#C31162"/>
</linearGradient>
<linearGradient id="paint3_linear_233_19967" x1="14.7884" y1="38.3686" x2="23.9167" y2="29.08" gradientUnits="userSpaceOnUse">
<stop stop-color="#32A071"/>
<stop offset="0.0685" stop-color="#2DA771"/>
<stop offset="0.4762" stop-color="#15CF74"/>
<stop offset="0.8009" stop-color="#06E775"/>
<stop offset="1" stop-color="#00F076"/>
</linearGradient>
</defs>
</svg>
