<svg width="120" height="100" viewBox="0 0 120 100" fill="none" xmlns="http://www.w3.org/2000/svg">
<path fill-rule="evenodd" clip-rule="evenodd" d="M55.0988 0.00446186C65.5199 -0.234621 72.9576 9.19314 82.1187 14.1662C93.1796 20.1707 107.858 21.3017 114.275 32.1283C121.071 43.5932 120.842 58.7363 115.867 71.1006C111.04 83.0959 100.061 91.7649 88.2033 96.9202C77.8279 101.431 66.3531 98.676 55.0988 97.5202C45.127 96.4961 35.4289 95.3243 26.5915 90.5928C16.5645 85.2243 4.83112 79.647 1.43907 68.7909C-1.94702 57.9539 4.52364 46.7052 9.72526 36.6131C14.2101 27.9116 21.3463 21.5326 28.965 15.3857C37.0291 8.87929 44.7399 0.242119 55.0988 0.00446186Z" fill="#DDD7FF"/>
<g clip-path="url(#clip0_3022_20349)">
<path d="M39.2461 35.2773L34.9199 39.5449L34.9297 54.9746V70.4043L35.1641 70.9023C35.4277 71.459 35.9844 71.9766 36.4922 72.1133C36.6777 72.1719 37.127 72.2109 37.498 72.2109H38.1523V72.8652C38.1523 73.9687 38.6113 74.7207 39.5195 75.1308C39.9492 75.3262 40.1152 75.3359 48.4844 75.3359H57V76.0976C57 76.9863 57.1953 77.8066 57.5664 78.5C57.918 79.1738 58.8848 80.1308 59.5293 80.4629C60.623 81.0098 60.3789 81 67.9961 81C74.1875 81 75.0957 80.9805 75.5645 80.8437C77.2832 80.3262 78.6016 78.9199 78.9629 77.2109C79.0312 76.8594 79.0703 74.5156 79.0703 70.0137C79.0703 65.5117 79.0312 63.168 78.9629 62.8164C78.5625 60.8828 76.873 59.3008 74.9199 59.0273C74.5488 58.9785 72.8008 58.9297 71.043 58.9297H67.8398V47.25V35.5703L68.4258 35.6094C68.8652 35.6387 69.0703 35.707 69.2363 35.8633L69.4512 36.0879L69.5 46.4394C69.5488 56.5469 69.5488 56.8008 69.7344 56.9375C70.0273 57.1426 70.6035 57.1133 70.8281 56.8691C71.0039 56.6738 71.0137 56.332 71.043 46.4492C71.0723 35.2285 71.0918 35.6191 70.4766 34.8867C70.0664 34.3887 69.4512 34.125 68.5918 34.0566L67.8691 33.998L67.8105 33.2656C67.7422 32.3965 67.4297 31.8008 66.7754 31.3418L66.3555 31.0488L56.6582 31.0195L46.9609 31L46.7559 31.2539C46.4922 31.5859 46.4922 31.8789 46.7559 32.2109L46.9512 32.4648H56.1797C66.2285 32.4648 65.9746 32.4551 66.1797 33.0019C66.2383 33.168 66.2773 37.8262 66.2773 46.0879V58.9101L63.6211 58.9492C61.2676 58.9883 60.8867 59.0176 60.3496 59.1933C58.7773 59.7109 57.5664 61.0098 57.1465 62.6113C57.0293 63.0605 57 63.9101 57 66.9082V70.6484H46.9902H36.9707L36.7363 70.4043L36.4922 70.1699V55.4141V40.668H39.7441C42.6836 40.668 43.0254 40.6484 43.3867 40.4824C43.8652 40.2578 44.4316 39.623 44.5781 39.1152C44.6562 38.8613 44.6953 37.5723 44.6953 35.0625C44.6953 31.5176 44.6855 31.3809 44.5 31.1953C44.373 31.0684 44.1777 31 43.9434 31C43.5918 31.0098 43.3867 31.1855 39.2461 35.2773ZM43.1328 36.166C43.1328 38.6074 43.1328 38.6074 42.8984 38.8809L42.6641 39.1543L40.1348 39.1836L37.6152 39.2129L40.3496 36.4687C41.8535 34.9648 43.0938 33.7344 43.1035 33.7344C43.123 33.7344 43.1328 34.8281 43.1328 36.166ZM75.5742 60.8633C76.2969 61.2148 76.8633 61.791 77.2344 62.5234L77.459 62.9824V69.9648V76.9473L77.1367 77.6016C76.7559 78.3828 76.1504 78.9492 75.3691 79.2617L74.8223 79.4863H68.0352H61.248L60.6914 79.2617C59.9492 78.959 59.2266 78.2949 58.8848 77.6016L58.6113 77.0449V70.0137C58.6113 63.0117 58.6113 62.9824 58.8262 62.5234C59.2559 61.5859 60.252 60.7949 61.2383 60.5898C61.4531 60.5508 64.627 60.5215 68.2793 60.5215L74.9199 60.541L75.5742 60.8633ZM57 72.9922V73.7734H48.6016H40.1934L39.959 73.5293C39.7539 73.334 39.7148 73.1973 39.7148 72.748V72.2109H48.3574H57V72.9922Z" fill="#392C7D"/>
<path d="M67.2343 62.5721C66.9804 62.6502 66.6289 62.8163 66.4433 62.9627C66.0136 63.285 62.0586 68.2459 61.8926 68.6659C61.7265 69.0858 61.7949 70.2088 62.0195 70.6678C62.2441 71.1463 62.7519 71.6444 63.2109 71.869C63.416 71.9666 63.8847 72.0643 64.2461 72.0936L64.9101 72.1424V74.1932C64.9101 76.5272 64.9785 76.8299 65.6621 77.2889C66.0039 77.5233 66.0918 77.5331 67.6836 77.5624C69.7636 77.6014 70.0957 77.5624 70.5449 77.162C71.1211 76.6541 71.1601 76.4588 71.1601 74.1639V72.1131H71.6875C72.6933 72.1131 73.5527 71.5956 74.0117 70.6971C74.2949 70.16 74.3535 69.203 74.1484 68.6756C74.0605 68.4315 73.084 67.1327 71.8633 65.619C69.5195 62.7088 69.373 62.5819 68.2793 62.494C67.9375 62.4647 67.5078 62.5038 67.2343 62.5721ZM68.4746 64.1249C68.6992 64.2225 72.3418 68.6659 72.6152 69.1639C72.8008 69.5057 72.7422 69.8475 72.4394 70.1795C72.1562 70.5018 72.1562 70.5018 71.082 70.5311C69.5586 70.5799 69.6562 70.3749 69.5976 73.4706L69.5488 75.9706H68.0351H66.5215L66.4726 73.451C66.414 70.3944 66.4824 70.5506 65.0957 70.5506C63.8261 70.5506 63.3476 70.2967 63.3476 69.6229C63.3476 69.4862 63.3965 69.2713 63.4551 69.1542C63.6894 68.7245 67.3613 64.2323 67.5761 64.1249C67.8691 63.9881 68.1718 63.9881 68.4746 64.1249Z" fill="#392C7D"/>
<path d="M48.2109 35.4531C46.6875 36.1074 46.2968 38.168 47.4687 39.3398C48.1523 40.0332 48.1621 40.0332 52.5566 40.0332C56.8828 40.0332 56.9316 40.0234 57.6152 39.4082C58.1425 38.9395 58.3671 38.4219 58.3671 37.6602C58.3671 36.6445 57.9277 35.9414 57.0488 35.5312C56.5605 35.2969 56.5605 35.2969 52.5566 35.2969C49.1972 35.3066 48.4941 35.3262 48.2109 35.4531ZM56.5605 37.1035C56.8925 37.4258 56.8925 37.9141 56.5507 38.2363L56.2968 38.4707L52.8203 38.5C48.9921 38.5293 48.6992 38.5 48.455 38.0312C48.25 37.6406 48.2695 37.5039 48.5625 37.1621L48.8164 36.8594H52.5664H56.3261L56.5605 37.1035Z" fill="#392C7D"/>
<path d="M40.75 44.877C40.4082 45.1406 40.3984 45.7168 40.7207 46.0195L40.9453 46.2344H51.3945C61.7754 46.2344 61.8437 46.2344 62.0586 46.0391C62.3808 45.7363 62.3515 45.1406 62.0195 44.877C61.7558 44.6719 61.7363 44.6719 51.3847 44.6719C41.0332 44.6719 41.0136 44.6719 40.75 44.877Z" fill="#392C7D"/>
<path d="M40.6914 49.2617C40.4375 49.5156 40.4375 50.043 40.6817 50.3457L40.8672 50.5801H51.3653C61.5508 50.5801 61.8731 50.5703 62.0684 50.3945C62.3418 50.1406 62.3516 49.5352 62.0781 49.2617C61.8828 49.0664 61.7559 49.0664 51.3848 49.0664C41.0137 49.0664 40.8867 49.0664 40.6914 49.2617Z" fill="#392C7D"/>
<path d="M40.75 53.5684C40.5547 53.7246 40.4961 53.8516 40.4961 54.1445C40.4961 54.4375 40.5547 54.5645 40.75 54.7207C41.0039 54.9258 41.082 54.9258 47.7715 54.9258C54.4609 54.9258 54.5391 54.9258 54.793 54.7207C55.1543 54.4375 55.1543 53.8516 54.793 53.5684C54.5391 53.3633 54.4609 53.3633 47.7715 53.3633C41.082 53.3633 41.0039 53.3633 40.75 53.5684Z" fill="#392C7D"/>
<path d="M57.2539 53.5684C56.8926 53.8516 56.8926 54.4375 57.2539 54.7207C57.498 54.916 57.6348 54.9258 59.6855 54.9258C61.8242 54.9258 61.8535 54.9258 62.0586 54.7012C62.3711 54.3691 62.3516 53.832 62.0195 53.5684C61.7754 53.373 61.6387 53.3633 59.6367 53.3633C57.6348 53.3633 57.498 53.373 57.2539 53.5684Z" fill="#392C7D"/>
<path d="M40.6914 57.9531C40.5742 58.0703 40.4961 58.2754 40.4961 58.4902C40.4961 58.7051 40.5742 58.9102 40.6914 59.0273C40.877 59.2129 41.0137 59.2227 45.6719 59.2227C50.3301 59.2227 50.4668 59.2129 50.6523 59.0273C50.7695 58.9102 50.8477 58.7051 50.8477 58.4902C50.8477 58.2754 50.7695 58.0703 50.6523 57.9531C50.4668 57.7676 50.3301 57.7578 45.6719 57.7578C41.0137 57.7578 40.877 57.7676 40.6914 57.9531Z" fill="#392C7D"/>
<path d="M40.75 62.2598C40.5547 62.416 40.4961 62.543 40.4961 62.8359C40.4961 63.1289 40.5547 63.2559 40.75 63.4121C41.0039 63.6172 41.1016 63.6172 45.6719 63.6172C50.2422 63.6172 50.3398 63.6172 50.5938 63.4121C50.9551 63.1289 50.9551 62.543 50.5938 62.2598C50.3398 62.0547 50.2422 62.0547 45.6719 62.0547C41.1016 62.0547 41.0039 62.0547 40.75 62.2598Z" fill="#392C7D"/>
</g>
<defs>
<clipPath id="clip0_3022_20349">
<rect width="50" height="50" fill="white" transform="translate(32 31)"/>
</clipPath>
</defs>
</svg>
