<svg width="120" height="100" viewBox="0 0 120 100" fill="none" xmlns="http://www.w3.org/2000/svg">
<path fill-rule="evenodd" clip-rule="evenodd" d="M55.0988 0.00446186C65.5199 -0.234621 72.9576 9.19314 82.1187 14.1662C93.1796 20.1707 107.858 21.3017 114.275 32.1283C121.071 43.5932 120.842 58.7363 115.867 71.1006C111.04 83.0959 100.061 91.7649 88.2033 96.9202C77.8279 101.431 66.3531 98.676 55.0988 97.5202C45.127 96.4961 35.4289 95.3243 26.5915 90.5928C16.5645 85.2243 4.83112 79.647 1.43907 68.7909C-1.94702 57.9539 4.52364 46.7052 9.72526 36.6131C14.2101 27.9116 21.3463 21.5326 28.965 15.3857C37.0291 8.87929 44.7399 0.242119 55.0988 0.00446186Z" fill="#FFEAAC"/>
<path d="M48.5546 32.2222C46.7382 32.5347 45.1073 33.4038 43.9257 34.7027C42.7245 36.0113 42.08 37.5054 41.8261 39.5562C41.5233 42.1148 42.6952 44.9663 44.7558 46.6265C49.2772 50.2691 55.9081 48.355 57.7636 42.8667C58.0272 42.0855 58.0858 41.7632 58.1249 40.7671C58.2812 36.48 55.7714 33.1402 51.7577 32.3101C50.8397 32.1245 49.4042 32.0855 48.5546 32.2222ZM52.08 34.107C53.0858 34.4585 53.789 34.9077 54.58 35.689C55.8202 36.9292 56.3866 38.2183 56.455 39.937C56.5136 41.2359 56.328 42.1538 55.8104 43.2085C55.1366 44.566 54.2577 45.4351 52.9198 46.0894C51.0644 46.9976 48.9257 46.9976 47.0605 46.1089C45.0585 45.1421 43.8183 43.3745 43.496 40.9917C43.0858 38.0328 45.078 35.0054 48.0663 34.0288C49.2187 33.6577 50.869 33.687 52.08 34.107Z" fill="#FFC107"/>
<path d="M49.4043 34.8105C49.2188 34.9863 49.1602 35.1523 49.1602 35.4941C49.1602 35.7676 49.1114 35.9531 49.043 35.9727C47.9981 36.2754 47.2266 36.8418 46.9043 37.5449C46.6407 38.1309 46.6602 38.9121 46.9727 39.5273C47.4414 40.4648 48.2911 40.9531 49.7168 41.0996C50.7325 41.207 51.2305 41.3828 51.4551 41.7246C51.9434 42.4668 50.7227 43.248 49.502 42.9746C48.8282 42.8184 48.5059 42.5645 48.3789 42.0762C48.2325 41.5391 47.9688 41.3047 47.5196 41.3047C46.7481 41.3047 46.4942 42.0469 46.9532 43.0137C47.3145 43.8047 48.0469 44.4004 48.8477 44.5762C49.1407 44.6348 49.1602 44.6641 49.1602 45.0547C49.1602 45.6797 49.4434 45.9922 49.9903 45.9922C50.5371 45.9922 50.8203 45.6797 50.8203 45.0645C50.8203 44.6641 50.8203 44.6641 51.3379 44.498C51.9532 44.3027 52.5782 43.7949 52.92 43.209C53.8965 41.5488 52.5977 39.6836 50.3223 39.4883C49.4141 39.4199 49.0332 39.3027 48.6719 38.9902C47.9395 38.3848 48.6914 37.5938 49.9903 37.5938C50.9375 37.5938 51.6016 37.9941 51.6016 38.5605C51.6016 38.668 51.6993 38.873 51.8262 39.0098C52.1485 39.3906 52.7149 39.3906 53.0274 39.0195C53.7598 38.1797 52.5977 36.3535 51.1036 36.002C50.8789 35.9434 50.8399 35.875 50.8008 35.4258C50.7618 35.0547 50.6836 34.8691 50.5274 34.7422C50.2149 34.4883 49.6875 34.5176 49.4043 34.8105Z" fill="#FFC107"/>
<path d="M67.3439 36.5488C67.0607 36.8418 67.0509 37.418 67.3244 37.6914C67.549 37.916 67.7638 37.9746 68.5744 38.0039L69.1798 38.0332L68.2326 39.1074C67.715 39.6934 66.3185 41.1484 65.1369 42.3398C61.0939 46.373 57.2169 49.5469 52.4806 52.6816C49.3068 54.7812 46.504 56.4023 43.2228 58.043C41.7872 58.7656 41.6408 58.9219 41.8458 59.5371C41.963 59.9082 42.1779 60.0547 42.6173 60.0547C43.2033 60.0547 48.3986 57.291 51.6994 55.2305C56.1818 52.4277 60.9767 48.6973 64.6876 45.1426C66.2111 43.6875 68.6427 41.1973 69.5997 40.1328L70.2443 39.4004L70.254 40.0156C70.254 40.5332 70.2931 40.6699 70.4982 40.8652C70.7912 41.168 71.3087 41.1875 71.631 40.9238C71.8654 40.7383 71.8654 40.7188 71.8654 38.7168C71.8654 36.1094 72.0802 36.3242 69.4826 36.3242C67.588 36.3242 67.549 36.3242 67.3439 36.5488Z" fill="#FFC107"/>
<path d="M70.498 46.041L70.2539 46.2754V60.2988V74.3125H69.4727H68.6914V63.4434V52.5645L68.4668 52.3594C68.2422 52.1445 68.2031 52.1445 64.7266 52.1445H61.2012L60.9961 52.3691L60.7812 52.5938V63.4531V74.3125H60H59.2188V66.6172V58.9121L58.9941 58.707C58.7695 58.4922 58.7305 58.4922 55.2344 58.4922C51.8262 58.4922 51.6895 58.502 51.5039 58.6875C51.3086 58.8828 51.3086 59.0098 51.3086 66.5977V74.3125H50.5273H49.7461V69.791C49.7461 65.377 49.7363 65.2598 49.5508 65.0547C49.4434 64.9375 49.248 64.8203 49.1309 64.791C49.0137 64.7617 47.4121 64.7422 45.5762 64.7617C42.2461 64.791 42.2266 64.791 42.0117 65.0156L41.7871 65.2402L41.7578 69.7715L41.7285 74.3125H40.3711C39.0234 74.3125 39.0137 74.3125 38.8184 74.5664C38.7012 74.7129 38.6133 74.9473 38.6133 75.0938C38.6133 75.2402 38.7012 75.4746 38.8184 75.6211L39.0137 75.875H60H80.9863L81.1816 75.6211C81.2988 75.4746 81.3867 75.2402 81.3867 75.0938C81.3867 74.9473 81.2988 74.7129 81.1816 74.5664C80.9863 74.3125 80.9766 74.3125 79.6191 74.3125H78.2617V60.3867C78.2617 49.9961 78.2324 46.4121 78.1445 46.2559C77.9102 45.8066 77.9102 45.8066 74.2285 45.7969H70.7324L70.498 46.041ZM76.6016 60.8848V74.3125H74.2578H71.9141V60.8848V47.457H74.2578H76.6016V60.8848ZM67.1289 64.0586V74.3125H64.7852H62.4414V64.0586V53.8047H64.7852H67.1289V64.0586ZM57.5586 67.1836V74.3125H55.2148H52.8711V67.1836V60.0547H55.2148H57.5586V67.1836ZM48.0859 70.3574V74.3125H45.7422H43.3984V70.3574V66.4023H45.7422H48.0859V70.3574Z" fill="#FFC107"/>
</svg>
