<svg width="120" height="100" viewBox="0 0 120 100" fill="none" xmlns="http://www.w3.org/2000/svg">
<path fill-rule="evenodd" clip-rule="evenodd" d="M55.0988 0.00446186C65.5199 -0.234621 72.9576 9.19314 82.1187 14.1662C93.1796 20.1707 107.858 21.3017 114.275 32.1283C121.071 43.5932 120.842 58.7363 115.867 71.1006C111.04 83.0959 100.061 91.7649 88.2033 96.9202C77.8279 101.431 66.3531 98.676 55.0988 97.5202C45.127 96.4961 35.4289 95.3243 26.5915 90.5928C16.5645 85.2243 4.83112 79.647 1.43907 68.7909C-1.94702 57.9539 4.52364 46.7052 9.72526 36.6131C14.2101 27.9116 21.3463 21.5326 28.965 15.3857C37.0291 8.87929 44.7399 0.242119 55.0988 0.00446186Z" fill="#FFD2D6"/>
<path d="M62.0391 25.9961C58.5469 26.7695 55.7695 29.4766 54.7734 33.0859C54.375 34.5273 54.5039 37.2812 55.0195 38.6172C55.1016 38.8047 54.6445 38.8281 47.6133 38.8516L40.1367 38.8867L39.5039 39.2383C38.7305 39.6719 38.1562 40.3164 37.8516 41.1367C37.6289 41.7344 37.6172 42.0508 37.6172 46.9727C37.6172 51.9648 37.6289 52.2109 37.8633 52.832C38.1914 53.6992 39.0352 54.543 39.9023 54.8711C40.5469 55.1172 40.6406 55.1172 54.9609 55.1172H69.375V56.3828V57.6602L68.707 57.4258C67.3711 56.9805 65.7891 57.4023 64.8047 58.4688L64.3242 58.9961L63.7734 58.7852C63 58.4922 61.8633 58.5156 61.1133 58.8555C60.4453 59.1484 59.6133 59.9102 59.4023 60.4141C59.3086 60.6602 59.2148 60.7305 59.0742 60.6836C58.9688 60.6367 58.5938 60.5781 58.2305 60.543C57.1758 60.4375 56.332 60.7656 55.5469 61.5508C54.457 62.6406 54.4922 62.3945 54.4922 69.9414C54.4922 75.9883 54.5039 76.4688 54.7266 77.3125C54.8555 77.8047 55.1016 78.4844 55.2773 78.8242C55.582 79.4102 55.5938 79.5039 55.6406 81.543C55.6758 83.4883 55.6992 83.6758 55.9336 83.9219L56.168 84.1797H65.3555C71.1328 84.1797 74.625 84.1328 74.7656 84.0625C75.1289 83.8633 75.2344 83.2773 75.2344 81.3086C75.2344 79.6094 75.2578 79.375 75.457 79.1172C75.5859 78.9648 76.4883 78.3672 77.4609 77.793C80.0156 76.3164 81.1172 75.2148 81.668 73.5859C81.9023 72.918 82.3828 68.5469 82.3828 67.1055C82.3828 64.4102 80.5195 62.3125 77.7891 61.8906L76.875 61.75V58.4453V55.1406L77.7305 55.0938C79.1484 55.0234 80.25 54.3086 80.8711 53.0547L81.1523 52.4805L81.1875 47.1602C81.2227 41.207 81.2227 41.1836 80.4023 40.1406C80.1562 39.8359 79.6758 39.4375 79.3242 39.2383L78.6914 38.8867L75.9844 38.8516L73.2773 38.8164L73.5 38.0898C73.875 36.9297 73.9219 34.6094 73.6055 33.2617C73.1133 31.1875 71.8711 29.207 70.2539 27.8945C69.3516 27.168 67.6992 26.3477 66.5156 26.0547C65.4141 25.7734 63.1758 25.75 62.0391 25.9961ZM65.9766 28C67.3242 28.3164 68.3789 28.9258 69.5039 30.0391C70.3008 30.8242 70.6172 31.2344 70.9922 31.9961C72.9141 35.875 71.4141 40.3984 67.5938 42.2852C65.3086 43.4102 63.1641 43.4219 60.8789 42.3438C58.1016 41.0195 56.332 38.0664 56.5195 35.0781C56.7305 31.7266 59.0977 28.8438 62.3438 28C63.1992 27.7773 65.0273 27.7773 65.9766 28ZM56.7188 41.6055C57.9961 43.1523 59.7539 44.2891 61.6992 44.8164C63.1289 45.2148 65.4258 45.1797 66.832 44.7578C68.0508 44.3945 68.8242 44.0195 69.7969 43.3281C70.5 42.8359 72.1875 41.1367 72.1875 40.9258C72.1875 40.8672 73.4531 40.8203 75.1055 40.8203C77.9297 40.8203 78.0234 40.832 78.4102 41.0898C79.2188 41.6289 79.2188 41.6172 79.2188 46.9727C79.2188 51.3203 79.1953 51.8125 79.0078 52.1758C78.7148 52.7617 78.2695 53.043 77.5195 53.1016L76.875 53.1484V51.5312C76.875 48.918 76.6289 47.9805 75.6914 47.0547C74.9297 46.2812 74.2969 46.0352 73.0664 46.0352C72.1523 46.0352 71.9297 46.082 71.4141 46.3516C70.6523 46.75 69.7969 47.6875 69.5625 48.4023C69.4219 48.8242 69.375 49.4336 69.375 51.0391V53.125H55.1133C41.0742 53.125 40.8281 53.125 40.4531 52.8906C40.2422 52.7617 39.9727 52.4922 39.8438 52.2812C39.6211 51.9062 39.6094 51.6719 39.6094 46.9727C39.6094 42.2734 39.6211 42.0391 39.8438 41.6641C39.9727 41.4531 40.2422 41.1836 40.4531 41.0547C40.8281 40.832 41.0625 40.8203 48.457 40.8203L56.0742 40.832L56.7188 41.6055ZM73.8164 48.1797C74.0391 48.2852 74.332 48.5312 74.4609 48.707C74.707 49.0352 74.707 49.1875 74.7656 56.1133L74.8242 63.1914L75.0938 63.4609C75.3164 63.6953 75.5273 63.7422 76.5586 63.8008C77.4141 63.8594 77.9414 63.9531 78.3633 64.1406C79.207 64.4922 79.957 65.3242 80.2266 66.1797C80.4375 66.8359 80.4375 66.9297 80.1797 69.7305C79.957 72.2148 79.8867 72.6953 79.6289 73.2461C79.207 74.1836 78.3164 74.957 76.4648 76.0352C74.3203 77.2656 74.0039 77.5117 73.6172 78.2031L73.3008 78.7891H65.3789H57.457L57.0938 77.9922C56.8828 77.5586 56.6719 76.9141 56.6016 76.5742C56.5312 76.1992 56.4844 73.457 56.4844 69.8359C56.4844 64.1406 56.4961 63.6953 56.6953 63.332C56.9297 62.8984 57.5508 62.5 57.9844 62.5C58.3359 62.5 58.6758 62.6758 59.1211 63.0859C59.5664 63.4961 59.8828 63.5898 60.293 63.4375C60.7617 63.2617 60.9258 62.9922 60.9375 62.4062C60.9375 61.457 61.4297 60.7773 62.25 60.5781C62.7539 60.4609 63.4336 60.8008 63.832 61.375C64.2422 61.9492 64.6523 62.1016 65.2383 61.8555C65.4961 61.75 65.6367 61.5859 65.6953 61.3633C65.918 60.3789 66.0117 60.1328 66.3281 59.8164C66.7617 59.3828 67.3828 59.1719 67.9219 59.2773C68.4727 59.3711 69.1055 59.957 69.2812 60.5312C69.5391 61.4102 70.3477 61.7031 70.9805 61.1641L71.3086 60.8828L71.3672 54.9648C71.4258 49.2344 71.4375 49.0352 71.6602 48.7188C72.1875 48.0273 73.0781 47.793 73.8164 48.1797ZM73.2422 81.4844V82.1875H65.4492H57.6562V81.4844V80.7812H65.4492H73.2422V81.4844Z" fill="#FF4667"/>
<path d="M67.1602 30.7897C67.0079 30.8717 66.0235 31.8092 64.9688 32.8639L63.0587 34.774L62.1915 33.942C61.4649 33.2623 61.2188 33.0865 60.7383 32.9928C58.9454 32.6061 57.5274 34.1061 58.0079 35.899C58.1251 36.3326 58.418 36.6959 59.8477 38.149C61.5938 39.9186 62.0274 40.2233 62.8829 40.3287C63.8438 40.4342 64.254 40.1295 67.254 37.0592C68.7774 35.5006 70.1133 34.0709 70.2188 33.86C70.5001 33.3561 70.4883 32.3717 70.1954 31.7975C70.0665 31.5514 69.7735 31.1998 69.5391 31.0123C69.1758 30.7428 68.9766 30.6842 68.2735 30.649C67.7227 30.6373 67.3477 30.6725 67.1602 30.7897ZM68.4141 32.8287C68.4376 32.9225 67.3126 34.1529 65.754 35.6998L63.0469 38.4186L61.4649 36.8365C60.5977 35.9693 59.8829 35.2193 59.8829 35.1608C59.8829 35.1139 59.9649 35.0436 60.0587 34.9967C60.1876 34.9615 60.6212 35.3014 61.4063 36.0631C63.1055 37.7037 62.8829 37.774 65.7423 34.9029C66.9962 33.6373 68.0977 32.6295 68.1915 32.6412C68.2852 32.6647 68.379 32.7467 68.4141 32.8287Z" fill="#FF4667"/>
<path d="M42.703 43.8672C42.0819 44.1133 41.8944 44.8984 42.3163 45.4375L42.5507 45.7422H48.5741H54.5976L54.8319 45.4375C55.1601 45.0273 55.1366 44.5352 54.7968 44.1367L54.5155 43.8086L48.7265 43.7852C45.5507 43.7734 42.8319 43.8086 42.703 43.8672Z" fill="#FF4667"/>
<path d="M42.8086 48.1672C42.457 48.2375 42.0703 48.7414 42.0703 49.1398C42.0703 49.3156 42.1758 49.5969 42.3164 49.7726L42.5508 50.0773H53.1445C64.9805 50.0773 64.1484 50.1359 64.2891 49.2453C64.3477 48.9055 64.3008 48.7648 64.0664 48.4836L63.7734 48.1437L53.4141 48.132C47.7305 48.1203 42.9492 48.132 42.8086 48.1672Z" fill="#FF4667"/>
</svg>
