<svg width="67" height="24" viewBox="0 0 67 24" fill="none" xmlns="http://www.w3.org/2000/svg">
<path fill-rule="evenodd" clip-rule="evenodd" d="M6.16785 15.6637C4.38678 15.6637 3.08994 14.1485 3.08994 11.9497C3.08994 9.75097 4.38678 8.25954 6.16785 8.25954C7.94893 8.25954 9.26756 9.77473 9.26756 11.9497C9.26756 14.1247 7.97071 15.6637 6.16785 15.6637ZM9.15697 5.91273C9.14771 6.27894 9.16226 6.6454 9.20053 7.00937H9.11341C8.53536 5.93831 7.15641 5.2785 5.64007 5.2785C2.36444 5.2785 -0.00976562 8.04204 -0.00976562 11.9973C-0.00976562 15.9525 2.27564 18.7178 5.5077 18.7178C7.18322 18.7178 8.6074 17.9593 9.3329 16.6159H9.4217C9.3874 16.9974 9.37118 17.3805 9.37311 17.7638V18.3267H12.188V0H9.15697V5.91273Z" fill="#2C2A3E"/>
<path fill-rule="evenodd" clip-rule="evenodd" d="M19.4262 15.6875C17.6468 15.6875 16.4103 14.1485 16.4103 11.9497C16.4103 9.75097 17.6418 8.25954 19.4262 8.25954C21.2106 8.25954 22.4421 9.77473 22.4421 11.9497C22.4421 14.1247 21.2324 15.6875 19.4262 15.6875ZM19.4262 5.2785C15.8875 5.2785 13.3374 8.08773 13.3374 11.9973C13.3374 15.9068 15.8825 18.7178 19.4262 18.7178C22.9699 18.7178 25.5385 15.883 25.5385 11.9973C25.5385 8.11149 22.9616 5.2785 19.4262 5.2785Z" fill="#2C2A3E"/>
<path fill-rule="evenodd" clip-rule="evenodd" d="M36.3255 7.11172C36.329 6.63006 36.3072 6.14858 36.2602 5.66964H33.3129C33.3582 6.32945 33.3582 6.67124 33.3582 7.06237C33.3582 9.2849 32.0396 10.5808 30.2803 10.5808C30.104 10.585 29.9277 10.5765 29.7525 10.5552V0H26.6746V18.3267H29.7525V13.4393C29.972 13.4631 30.1931 13.4631 30.3909 13.4631C30.6321 13.4631 30.8734 13.4631 31.0946 13.4393L33.5341 18.3267H36.9857L33.9078 12.4871C35.667 11.2899 36.3255 9.16427 36.3255 7.11172Z" fill="#2C2A3E"/>
<path fill-rule="evenodd" clip-rule="evenodd" d="M40.0183 10.8988C40.325 9.25383 41.337 8.25954 42.8315 8.25954C44.2607 8.25954 45.2493 9.31049 45.4705 10.8988H40.0183ZM42.8985 5.2785C39.3582 5.2785 36.8298 8.06397 36.8298 11.9973C36.8298 15.883 39.3431 18.7178 42.9421 18.7178C44.8757 18.7178 46.4372 17.9593 47.6017 16.2742L45.8223 14.1979C45.0734 15.247 44.239 15.6875 42.9639 15.6875C41.3805 15.6875 40.3467 14.7352 40.0183 13.0738H48.3959C48.4597 12.7193 48.4894 12.3585 48.4847 11.9973C48.4847 8.08773 46.2429 5.2785 42.9019 5.2785H42.8985Z" fill="#2C2A3E"/>
<path fill-rule="evenodd" clip-rule="evenodd" d="M56.3762 5.66595V13.4448C56.3762 14.6182 55.6072 15.3986 54.6186 15.3986C53.5848 15.3986 52.8376 14.6182 52.8376 13.4448V5.66595H49.7529V13.4448C49.7529 16.329 51.4904 18.429 53.8646 18.429H54.002H54.0221H54.0925H54.1629C56.1567 18.3687 56.7583 17.0491 56.8437 16.8389C56.8538 16.9906 56.8571 17.1405 56.8571 17.2904C56.8571 19.246 55.6926 20.7119 53.6921 20.7119C53.3402 20.7119 53.0319 20.7119 52.4388 20.6625V23.936C52.8693 23.9888 53.3024 24.0133 53.7356 24.0091C55.5787 24.0091 57.4938 23.278 58.5712 21.3223C59.0118 20.5309 59.429 19.6975 59.429 18.1951C59.4508 17.9502 59.4508 17.6815 59.4508 17.4128V5.66595H56.3762Z" fill="#2C2A3E"/>
<path d="M64.8059 18.164C65.7914 18.164 66.5903 17.2925 66.5903 16.2175C66.5903 15.1424 65.7914 14.2709 64.8059 14.2709C63.8204 14.2709 63.0215 15.1424 63.0215 16.2175C63.0215 17.2925 63.8204 18.164 64.8059 18.164Z" fill="#FB5F7F"/>
</svg>
