<svg width="60" height="18" viewBox="0 0 60 18" fill="none" xmlns="http://www.w3.org/2000/svg">
<path d="M28.18 8.84949L35.0332 2.00946L33.0164 -0.000549316L24.1362 8.84949L33.0164 17.6895L35.0332 15.6794L28.18 8.84949Z" fill="#FFC107"/>
<path d="M40.1507 8.84949L47.0039 2.00946L44.9871 -0.000549316L36.1069 8.84949L44.9871 17.6895L47.0039 15.6794L40.1507 8.84949Z" fill="#FFC107"/>
<path d="M52.2617 8.84949L59.125 2.00946L57.0981 -0.000549316L48.228 8.84949L57.0981 17.6895L59.125 15.6794L52.2617 8.84949Z" fill="#FFC107"/>
<path d="M4.09844 8.84949L10.9517 2.00946L8.93483 -0.000549316L0.0546875 8.84949L8.93483 17.6895L10.9517 15.6794L4.09844 8.84949Z" fill="#FFC107"/>
<path d="M16.0691 8.84949L22.9224 2.00946L20.9055 -0.000549316L12.0254 8.84949L20.9055 17.6895L22.9224 15.6794L16.0691 8.84949Z" fill="#FFC107"/>
</svg>
