<svg width="205" height="209" viewBox="0 0 205 209" fill="none" xmlns="http://www.w3.org/2000/svg">
<g filter="url(#filter0_d_199_10301)">
<rect x="70.0479" y="45.4634" width="64.1987" height="68.1136" rx="10" fill="white"/>
</g>
<g clip-path="url(#clip0_199_10301)">
<path d="M88.822 77.1641H86.8753C86.5403 77.1647 86.2527 77.4024 86.189 77.7313L83.122 93.4728C83.0424 93.884 83.151 94.3093 83.4181 94.6319C83.6852 94.9546 84.0826 95.1408 84.5014 95.1394H99.6058C99.6058 95.9097 101.174 96.5399 103.107 96.5399C105.04 96.5399 106.608 95.9097 106.608 95.1394H121.713C122.131 95.1408 122.529 94.9546 122.796 94.6319C123.063 94.3093 123.172 93.884 123.092 93.4728L120.025 77.7313C119.961 77.4024 119.674 77.1647 119.339 77.1641H88.822Z" fill="#E64C3C"/>
<path d="M103.107 79.2015V92.3382C102.083 91.8932 101.015 91.5553 99.9209 91.3298C95.7627 90.4258 91.4386 90.6457 87.3935 91.967C87.161 92.038 86.9084 91.9843 86.7248 91.8249C86.5412 91.6655 86.4526 91.4229 86.4902 91.1828L88.822 77.1638L89.0181 75.9804C89.0683 75.6801 89.3054 75.4458 89.6063 75.3992C90.0825 75.3292 90.5726 75.2591 91.0628 75.2031C91.9185 76.8665 93.6318 77.9123 95.5024 77.9131C95.6284 77.9131 95.7475 77.9061 95.8665 77.8991C96.3328 77.8627 96.7921 77.7638 97.232 77.605C97.2334 77.6199 97.2382 77.6342 97.246 77.647C97.7699 79.1145 99.161 80.0933 100.719 80.0908C101.597 80.0938 102.445 79.7777 103.107 79.2015Z" fill="#F5EFCA"/>
<path d="M118.82 91.9672C114.775 90.6459 110.451 90.4259 106.293 91.33C105.199 91.5554 104.131 91.8934 103.107 92.3383V79.2017C103.254 79.0813 103.39 78.9477 103.513 78.8025C104.213 79.0808 104.959 79.2234 105.712 79.2227H105.754C105.79 79.7234 105.981 80.2005 106.3 80.5882C106.98 81.2601 107.829 81.7345 108.758 81.9607C109.432 82.1758 110.033 82.5733 110.495 83.1091C110.906 83.619 111.604 83.7983 112.21 83.5502C112.744 83.3196 113.091 82.7944 113.092 82.2128C113.093 82.0606 113.07 81.9093 113.022 81.7646C112.952 81.5475 112.875 81.3304 112.784 81.1204C112.609 80.6865 112.378 80.277 112.098 79.9019C113.487 79.1508 114.462 77.8127 114.752 76.2606C114.773 76.2326 114.801 76.2046 114.822 76.1766C115.062 75.8947 115.258 75.5784 115.403 75.2383C115.809 75.2873 116.209 75.3363 116.608 75.3993C116.909 75.4459 117.146 75.6802 117.196 75.9805L117.392 77.164L119.724 91.1829C119.761 91.4231 119.673 91.6657 119.489 91.8251C119.306 91.9844 119.053 92.0381 118.82 91.9672Z" fill="#F9EAB0"/>
<path d="M106.608 95.1389C106.608 95.9092 105.04 96.5394 103.107 96.5394C101.174 96.5394 99.6057 95.9092 99.6057 95.1389L99.9208 91.3296C101.015 91.5551 102.082 91.893 103.107 92.3379C104.131 91.893 105.199 91.5551 106.293 91.3296L106.608 95.1389Z" fill="#C03A2B"/>
<path d="M115.711 73.7742C115.711 74.278 115.606 74.7763 115.403 75.2377C115.258 75.5778 115.062 75.8941 114.822 76.176C114.801 76.204 114.773 76.232 114.752 76.26C114.462 77.8121 113.487 79.1502 112.098 79.9013C112.378 80.2764 112.609 80.6859 112.784 81.1198C112.875 81.3298 112.952 81.5469 113.022 81.764C113.07 81.9087 113.093 82.06 113.092 82.2121C113.091 82.7938 112.744 83.319 112.21 83.5496C111.604 83.7977 110.906 83.6184 110.495 83.1085C110.033 82.5727 109.432 82.1752 108.758 81.9601C107.829 81.7339 106.98 81.2595 106.3 80.5876C105.981 80.1999 105.79 79.7228 105.754 79.2221H105.712C104.959 79.2228 104.213 79.0802 103.513 78.8019C103.39 78.9471 103.254 79.0807 103.107 79.2011C102.445 79.7773 101.597 80.0933 100.719 80.0904C99.1609 80.0928 97.7698 79.114 97.2459 77.6465C97.2381 77.6338 97.2333 77.6194 97.2319 77.6045C96.7919 77.7633 96.3327 77.8622 95.8664 77.8986C95.7473 77.9056 95.6283 77.9126 95.5023 77.9126C93.6097 77.9113 91.8798 76.8422 91.0322 75.15C90.1847 73.4578 90.3645 71.4322 91.4968 69.9158C91.4126 69.6871 91.3699 69.4452 91.3708 69.2015C91.3666 68.1667 92.0935 67.2728 93.1074 67.0658C93.1112 67.062 93.1161 67.0595 93.1214 67.0588C93.1144 66.9748 93.1074 66.8907 93.1074 66.7997C93.1065 66.4113 93.1876 66.0271 93.3455 65.6723C93.7923 64.639 94.8106 63.9702 95.9364 63.9707C96.361 63.9687 96.7803 64.0645 97.1618 64.2508C97.9073 62.9957 99.2593 62.2265 100.719 62.2271C101.721 62.2234 102.688 62.59 103.436 63.2564C103.865 62.564 104.646 62.1703 105.458 62.2367C106.27 62.3031 106.976 62.8186 107.287 63.5716C107.487 63.5492 107.688 63.5375 107.89 63.5365C110.603 63.541 112.861 65.6224 113.085 68.3262H113.106C113.683 68.3262 114.237 68.5559 114.644 68.9645C115.051 69.3731 115.279 69.9271 115.277 70.504C115.276 70.8813 115.18 71.2521 114.997 71.5824C115.462 72.2186 115.712 72.9863 115.711 73.7742Z" fill="#FB7B76"/>
<path d="M114.393 62.8462C114.11 62.8461 113.855 62.6755 113.746 62.4139C113.638 62.1523 113.698 61.8511 113.898 61.6509L114.598 60.9506C114.774 60.7686 115.034 60.6956 115.279 60.7597C115.524 60.8237 115.715 61.0149 115.779 61.2598C115.843 61.5046 115.77 61.7649 115.588 61.9408L114.888 62.641C114.757 62.7723 114.579 62.8461 114.393 62.8462Z" fill="#F0C419"/>
<path d="M91.8212 62.8462C91.6355 62.8461 91.4574 62.7723 91.3262 62.641L90.6259 61.9408C90.4439 61.7649 90.3709 61.5046 90.4349 61.2598C90.499 61.0149 90.6902 60.8237 90.9351 60.7597C91.1799 60.6956 91.4402 60.7686 91.6161 60.9506L92.3163 61.6509C92.5165 61.8511 92.5764 62.1523 92.468 62.4139C92.3597 62.6755 92.1044 62.8461 91.8212 62.8462Z" fill="#F0C419"/>
<path d="M97.2116 59.8989C96.9284 59.899 96.6731 59.7285 96.5646 59.4669L95.7607 57.5258C95.6585 57.2935 95.69 57.0241 95.8429 56.8217C95.9959 56.6192 96.2464 56.5153 96.4977 56.5501C96.7491 56.5849 96.9619 56.753 97.0541 56.9894L97.8587 58.9305C97.9301 59.1021 97.9303 59.2952 97.8592 59.467C97.7881 59.6388 97.6516 59.7753 97.4798 59.8464C97.3947 59.8811 97.3036 59.8989 97.2116 59.8989Z" fill="#F0C419"/>
<path d="M109.002 59.8989C108.91 59.8987 108.819 59.8806 108.734 59.8457C108.563 59.7746 108.426 59.6382 108.355 59.4666C108.284 59.2949 108.284 59.1021 108.355 58.9305L109.16 56.9894C109.252 56.753 109.465 56.5849 109.716 56.5501C109.968 56.5153 110.218 56.6192 110.371 56.8217C110.524 57.0241 110.556 57.2935 110.453 57.5258L109.649 59.4669C109.541 59.7285 109.286 59.899 109.002 59.8989Z" fill="#F0C419"/>
<path d="M117.34 68.2369C117.005 68.2379 116.716 68.0017 116.651 67.6733C116.585 67.3448 116.762 67.0161 117.071 66.8889L119.013 66.085C119.244 65.9893 119.508 66.0242 119.707 66.1765C119.905 66.3289 120.007 66.5755 119.975 66.8236C119.942 67.0716 119.779 67.2834 119.548 67.3791L117.608 68.1829C117.523 68.2184 117.432 68.2367 117.34 68.2369Z" fill="#F0C419"/>
<path d="M88.8744 68.2369C88.7823 68.2367 88.6912 68.2184 88.6062 68.1829L86.6658 67.3791C86.4347 67.2834 86.2721 67.0716 86.2394 66.8236C86.2067 66.5755 86.3088 66.3289 86.5073 66.1765C86.7057 66.0242 86.9704 65.9893 87.2015 66.085L89.1426 66.8889C89.4524 67.0161 89.6287 67.3448 89.5633 67.6733C89.498 68.0017 89.2093 68.2379 88.8744 68.2369Z" fill="#F0C419"/>
<path d="M114.822 76.1763C114.801 76.2043 114.773 76.2324 114.752 76.2604C114.629 76.9347 114.372 77.5776 113.996 78.151C113.629 78.2551 113.25 78.307 112.869 78.3051C112.175 78.3031 111.491 78.1376 110.873 77.8219C110.58 77.6654 110.306 77.4775 110.054 77.2617C109.774 77.3699 109.478 77.4268 109.178 77.4298C108.253 77.4345 107.406 76.9132 106.993 76.0853C106.881 75.8614 106.896 75.5944 107.034 75.385C107.172 75.1755 107.41 75.0554 107.661 75.0699C107.911 75.0843 108.134 75.2312 108.247 75.4551C108.385 75.7206 108.63 75.9145 108.92 75.988C109.211 76.0616 109.518 76.0078 109.766 75.8402C110.047 75.6491 110.214 75.332 110.215 74.9929C110.216 74.8306 110.18 74.6701 110.11 74.5237C109.969 74.1852 110.113 73.7951 110.44 73.6296C110.767 73.4641 111.167 73.5793 111.356 73.8935C111.526 74.235 111.615 74.6113 111.615 74.9929C111.609 75.4822 111.456 75.9583 111.174 76.3584C111.286 76.4354 111.398 76.5125 111.51 76.5755C111.93 76.7918 112.396 76.9046 112.869 76.9046C113.587 76.9086 114.282 76.6495 114.822 76.1763Z" fill="#FF5364"/>
<path d="M106.258 73.4271C107.165 72.802 107.789 71.8443 107.994 70.7619C108.046 70.5141 107.96 70.2575 107.77 70.0907C107.579 69.924 107.314 69.8731 107.075 69.9577C106.836 70.0423 106.662 70.2491 106.619 70.4986C106.481 71.2209 106.065 71.8598 105.459 72.2766C104.294 73.0612 102.732 72.8831 101.773 71.8564C101.512 71.5702 101.069 71.5497 100.783 71.8105C100.496 72.0714 100.476 72.5149 100.737 72.801C101.331 73.4569 102.116 73.9096 102.981 74.0951C102.589 74.6465 101.953 74.9733 101.277 74.9718C100.89 74.9718 100.576 75.2853 100.576 75.6721C100.576 76.0588 100.89 76.3723 101.277 76.3723C102.726 76.3781 104.027 75.4828 104.539 74.1266C105.157 74.0239 105.744 73.785 106.258 73.4271Z" fill="#FF5364"/>
<path d="M112.785 81.1208C112.27 81.3834 111.717 81.5631 111.146 81.653C111.109 81.6588 111.071 81.6611 111.034 81.66C110.665 81.6634 110.357 81.3801 110.329 81.0124C110.301 80.6446 110.564 80.3184 110.929 80.2665C111.335 80.205 111.729 80.0822 112.098 79.9023C112.378 80.2774 112.609 80.6869 112.785 81.1208Z" fill="#FF5364"/>
<path d="M97.183 76.2326C97.1476 76.4291 97.1289 76.6282 97.1269 76.8279C97.1255 77.0906 97.1609 77.3522 97.232 77.6051C96.7921 77.7639 96.3328 77.8628 95.8665 77.8992C95.7769 77.5562 95.7298 77.2034 95.7264 76.8489C94.493 76.7143 93.558 75.6738 93.5557 74.433C93.5533 74.043 93.866 73.7241 94.2559 73.7188C94.4408 73.7176 94.6185 73.7901 94.7498 73.9201C94.8812 74.0502 94.9554 74.2272 94.9562 74.412V74.433C94.9666 74.9864 95.4047 75.4366 95.9575 75.4624C96.0543 75.1465 96.1883 74.8433 96.3567 74.5591C96.4507 74.3985 96.6056 74.2827 96.7862 74.2378C96.9668 74.193 97.1578 74.223 97.316 74.321C97.6453 74.5245 97.7511 74.9541 97.5541 75.2873C97.3763 75.5784 97.2507 75.8983 97.183 76.2326Z" fill="#FF5364"/>
<path d="M107.596 80.329C107.175 80.4636 106.74 80.5505 106.3 80.5881C105.981 80.2004 105.79 79.7233 105.754 79.2226C105.822 79.2239 105.889 79.2215 105.957 79.2156C106.373 79.1892 106.784 79.114 107.182 78.9915C107.424 78.9087 107.691 78.9638 107.88 79.1355C108.069 79.3072 108.15 79.5681 108.091 79.8164C108.031 80.0648 107.842 80.2612 107.596 80.329Z" fill="#FF5364"/>
<path d="M101.567 67.8296C101.567 67.4429 101.253 67.1294 100.866 67.1294C99.0882 67.1313 97.6472 68.5723 97.6453 70.3505C97.6453 70.7373 97.9588 71.0508 98.3455 71.0508C98.7322 71.0508 99.0458 70.7373 99.0458 70.3505C99.0458 69.8677 99.2376 69.4046 99.579 69.0631C99.9205 68.7217 100.384 68.5299 100.866 68.5299C101.253 68.5299 101.567 68.2164 101.567 67.8296Z" fill="#FF5364"/>
<path d="M92.4269 71.7672C92.2997 71.7674 92.175 71.7325 92.0663 71.6664C91.4889 71.318 91.052 70.778 90.8317 70.1405C90.7252 69.8375 90.671 69.5185 90.6714 69.1973C90.6714 67.6103 91.9554 66.3225 93.5424 66.3179C94.4517 66.3144 95.3078 66.7462 95.8455 67.4796C95.9947 67.6805 96.0255 67.9457 95.9261 68.1754C95.8267 68.4051 95.6124 68.5643 95.3638 68.5931C95.1152 68.6219 94.8701 68.5159 94.7209 68.315C94.4465 67.9405 94.0095 67.7198 93.5452 67.7212C92.8824 67.7249 92.303 68.1689 92.127 68.808C91.951 69.447 92.2215 70.1251 92.7889 70.4676C93.0588 70.6298 93.1871 70.9522 93.1027 71.2555C93.0182 71.5588 92.7418 71.7684 92.4269 71.7679V71.7672Z" fill="#FF5364"/>
<path d="M107.453 65.1064C107.067 65.1064 106.753 64.7929 106.753 64.4062C106.753 63.5927 106.094 62.9332 105.28 62.9332C104.467 62.9332 103.807 63.5927 103.807 64.4062C103.807 64.7929 103.494 65.1064 103.107 65.1064C102.72 65.1064 102.407 64.7929 102.407 64.4062C102.407 62.8192 103.693 61.5327 105.28 61.5327C106.867 61.5327 108.154 62.8192 108.154 64.4062C108.154 64.5919 108.08 64.77 107.949 64.9013C107.817 65.0327 107.639 65.1064 107.453 65.1064Z" fill="#FF5364"/>
<path d="M114.022 73.1803C113.697 73.1771 113.417 72.9506 113.345 72.6333C113.274 72.316 113.431 71.9915 113.724 71.8499C114.003 71.7187 114.234 71.5045 114.387 71.2364C114.743 70.6293 114.619 69.8549 114.091 69.3893C113.563 68.9237 112.779 68.8976 112.222 69.3269C111.912 69.5589 111.473 69.4962 111.241 69.1868C111.009 68.8774 111.072 68.4385 111.381 68.2065C111.871 67.8355 112.468 67.633 113.083 67.6295C114.436 67.6203 115.612 68.5544 115.91 69.8741C116.208 71.1938 115.547 72.5429 114.322 73.1159C114.228 73.1595 114.125 73.1816 114.022 73.1803Z" fill="#FF5364"/>
</g>
<defs>
<filter id="filter0_d_199_10301" x="0.0478516" y="0.463379" width="204.199" height="208.114" filterUnits="userSpaceOnUse" color-interpolation-filters="sRGB">
<feFlood flood-opacity="0" result="BackgroundImageFix"/>
<feColorMatrix in="SourceAlpha" type="matrix" values="0 0 0 0 0 0 0 0 0 0 0 0 0 0 0 0 0 0 127 0" result="hardAlpha"/>
<feOffset dy="25"/>
<feGaussianBlur stdDeviation="35"/>
<feColorMatrix type="matrix" values="0 0 0 0 0.0392157 0 0 0 0 0.0117647 0 0 0 0 0.235294 0 0 0 0.15 0"/>
<feBlend mode="normal" in2="BackgroundImageFix" result="effect1_dropShadow_199_10301"/>
<feBlend mode="normal" in="SourceGraphic" in2="effect1_dropShadow_199_10301" result="shape"/>
</filter>
<clipPath id="clip0_199_10301">
<rect width="40.1242" height="42.571" fill="white" transform="translate(82.0845 58.2344)"/>
</clipPath>
</defs>
</svg>
