<svg width="59" height="41" viewBox="0 0 59 41" fill="none" xmlns="http://www.w3.org/2000/svg">
<path d="M8.82312 27.1514C9.74823 25.7477 11.3169 24.9028 12.998 24.9028H42.5054C43.9311 24.9028 45.2891 25.5115 46.2378 26.5758L51.2583 32.208C54.1312 35.4309 51.8435 40.535 47.5259 40.535H9.28624C5.30477 40.535 2.92042 36.1081 5.11134 32.7836L8.82312 27.1514Z" fill="#1CBEEF"/>
<path d="M37.5417 5.58631V3.25008C37.5417 2.91437 37.2458 2.62803 36.9081 2.62803H21.7176C21.3799 2.62803 21.084 2.91437 21.084 3.25008V5.58631H15.6343C15.4603 5.58631 15.294 5.6705 15.1731 5.78884C15.0405 5.91854 15.0007 6.08797 15.0007 6.24316C15.0007 6.35642 15.1086 8.5942 15.9303 11.1807L15.9307 11.1818C17.0686 14.6259 18.99 17.0823 21.5644 18.2191C22.4253 20.9831 24.367 23.1699 26.8115 24.0631V24.0973C26.8115 26.9322 24.6136 29.183 21.7888 29.183C21.451 29.183 21.1551 29.4693 21.1551 29.805V32.7633C21.1551 33.099 21.451 33.3853 21.7888 33.3853H36.9081C37.2458 33.3853 37.5417 33.099 37.5417 32.7633V29.805C37.5417 29.4693 37.2458 29.183 36.9081 29.183C34.0446 29.183 31.7083 26.8948 31.7074 24.0989C34.2582 23.2055 36.2365 20.9824 37.0977 18.1478C39.5646 16.9769 41.4502 14.5567 42.5527 11.1817C43.3852 8.67036 43.4777 6.45549 43.4825 6.25578C43.5237 6.07127 43.4261 5.90215 43.3103 5.78884C43.1893 5.6705 43.0231 5.58631 42.8491 5.58631H37.5417ZM17.4044 11.5154C16.6862 9.61145 16.413 7.77015 16.3142 6.83041H21.084V15.0832C21.084 15.6022 21.1112 16.0968 21.1898 16.5892C19.3004 15.4069 18.1285 13.4353 17.4044 11.5154ZM30.4463 24.4233C30.6431 27.559 33.1394 30.0977 36.2744 30.3842V32.1064H22.4224V30.3841C25.523 30.0976 27.9147 27.5891 28.0397 24.3882C28.4358 24.4514 28.8647 24.5105 29.2951 24.5105C29.6871 24.5105 30.0798 24.4815 30.4463 24.4233ZM31.1495 22.9929L30.6926 23.1304C30.2357 23.2334 29.7821 23.3012 29.3306 23.3012C28.8062 23.3012 28.2825 23.2329 27.7943 23.0966C27.7693 23.0884 27.7399 23.0782 27.7076 23.0669C27.6749 23.0556 27.6396 23.0433 27.6051 23.032C27.5709 23.0209 27.5361 23.0103 27.5044 23.0024C27.4804 22.9964 27.4535 22.9907 27.428 22.9887C24.5293 22.0248 22.3512 18.8702 22.3512 15.118V3.90693H36.2744V5.89513V6.55639V15.118C36.2744 18.8751 34.0907 22.0331 31.1506 22.9925C31.1503 22.9927 31.1499 22.9928 31.1495 22.9929ZM41.1456 11.4419C40.4428 13.3326 39.3041 15.2885 37.463 16.5172C37.5235 16.0573 37.5773 15.5708 37.5773 15.0832V6.83041H42.2048C42.1067 7.76718 41.8424 9.56719 41.1456 11.4419Z" fill="white" stroke="white" stroke-width="0.2" stroke-linecap="round" stroke-linejoin="round"/>
<path d="M30.0826 6.9637L30.0823 6.96322C29.9239 6.6533 29.5705 6.42148 29.2106 6.42148C28.8571 6.42148 28.4988 6.61323 28.3378 6.96547L27.0459 9.52738L24.182 9.9374C23.8205 9.97746 23.5063 10.25 23.3884 10.596C23.271 10.9406 23.3461 11.3332 23.6299 11.573L25.7233 13.5527L25.2349 16.3512C25.1545 16.7101 25.3205 17.06 25.6296 17.2867C25.7875 17.4026 25.9858 17.4801 26.2223 17.4801C26.3769 17.4801 26.537 17.4432 26.6629 17.363L29.3161 16.0651L31.8329 17.3646L31.8329 17.3646L31.8348 17.3655C32.1478 17.5186 32.544 17.5207 32.8628 17.2867C33.1799 17.0541 33.2979 16.7038 33.2588 16.3595L33.259 16.3595L33.2579 16.3536L32.7691 13.5527L34.8646 11.571L34.8646 11.571L34.8658 11.5698C35.1421 11.2995 35.2232 10.946 35.104 10.596C35.102 10.5901 35.0994 10.5844 35.0963 10.5789C34.9112 10.253 34.6396 9.97748 34.2387 9.93732L31.3753 9.52738L30.0826 6.9637ZM31.4248 13.4314L31.8866 15.9811L29.6118 14.82L29.6118 14.82L29.6103 14.8193C29.4378 14.7348 29.23 14.7384 29.0319 14.816L29.0318 14.8156L29.0244 14.8193L26.5689 16.0204L27.0321 13.4313C27.0748 13.22 26.9888 13.0131 26.8615 12.8886L26.8608 12.888L24.9799 11.0801L27.5889 10.6924L27.5889 10.6925L27.5934 10.6916C27.7979 10.6516 27.9679 10.5301 28.0546 10.3606L28.0551 10.3595L29.2106 8.03393L30.3662 10.3595L30.3662 10.3595L30.3667 10.3606C30.4451 10.514 30.6116 10.6894 30.8392 10.6934L33.4436 11.0804L31.6001 12.8839C31.4211 13.0195 31.3853 13.2368 31.4248 13.4314Z" fill="white" stroke="white" stroke-width="0.2" stroke-linecap="round" stroke-linejoin="round"/>
</svg>
