<svg width="36" height="36" viewBox="0 0 36 36" fill="none" xmlns="http://www.w3.org/2000/svg">
<path d="M25.5 33H10.5C9.885 33 9.375 32.49 9.375 31.875C9.375 31.26 9.885 30.75 10.5 30.75H25.5C26.115 30.75 26.625 31.26 26.625 31.875C26.625 32.49 26.115 33 25.5 33Z" fill="#FFB5C1"/>
<path d="M30.525 8.28006L24.525 12.5701C23.73 13.1401 22.59 12.7951 22.245 11.8801L19.41 4.32006C18.93 3.01506 17.085 3.01506 16.605 4.32006L13.755 11.8651C13.41 12.7951 12.285 13.1401 11.49 12.5551L5.48996 8.26506C4.28996 7.42506 2.69996 8.61006 3.19496 10.0051L9.43496 27.4801C9.64496 28.0801 10.215 28.4701 10.845 28.4701H25.14C25.77 28.4701 26.34 28.0651 26.55 27.4801L32.79 10.0051C33.3 8.61006 31.71 7.42506 30.525 8.28006ZM21.75 22.1251H14.25C13.635 22.1251 13.125 21.6151 13.125 21.0001C13.125 20.3851 13.635 19.8751 14.25 19.8751H21.75C22.365 19.8751 22.875 20.3851 22.875 21.0001C22.875 21.6151 22.365 22.1251 21.75 22.1251Z" fill="#FF4667"/>
</svg>
