<svg width="205" height="209" viewBox="0 0 205 209" fill="none" xmlns="http://www.w3.org/2000/svg">
<g filter="url(#filter0_d_199_10278)">
<rect x="70.5601" y="45.1772" width="64.1987" height="68.1136" rx="10" fill="white"/>
</g>
<g clip-path="url(#clip0_199_10278)">
<path d="M108.758 63.7229C108.438 63.7235 108.159 63.5077 108.079 63.1983C107.998 62.889 108.138 62.5646 108.417 62.4099C113.77 59.4409 120.309 57.2281 122.605 59.931C122.857 60.2257 122.821 60.6684 122.527 60.9198C122.232 61.1712 121.789 61.1361 121.538 60.8414C120.359 59.4556 115.707 59.9703 109.097 63.6382C108.993 63.6943 108.876 63.7235 108.758 63.7229Z" fill="#E57E25"/>
<path d="M91.9868 82.3661C91.6997 82.3662 91.4415 82.1911 91.3356 81.9242C90.3769 79.5119 92.5484 75.3622 97.1476 70.8218C97.4268 70.5789 97.8468 70.5953 98.1063 70.8591C98.3659 71.1228 98.3753 71.543 98.128 71.8182C93.514 76.3768 92.0456 79.9187 92.6366 81.4067C92.7225 81.6223 92.696 81.8664 92.5658 82.0585C92.4357 82.2506 92.2189 82.3658 91.9868 82.3661Z" fill="#E57E25"/>
<path d="M105.858 63.8249C105.738 63.8249 105.621 63.7943 105.516 63.736C98.7113 59.921 94.25 59.5114 92.9819 60.7417C92.705 61.0124 92.261 61.0074 91.9903 60.7305C91.7196 60.4536 91.7246 60.0097 92.0015 59.739C94.4909 57.3161 100.965 59.5835 106.195 62.5133C106.473 62.6689 106.612 62.9932 106.531 63.3019C106.45 63.6106 106.171 63.8256 105.852 63.8249H105.858Z" fill="#E57E25"/>
<path d="M122.475 82.2962C122.247 82.2962 122.033 82.1853 121.902 81.9988C121.771 81.8124 121.739 81.5738 121.816 81.3593C122.476 79.5226 120.314 75.7776 116.306 71.8184C116.039 71.5455 116.04 71.1082 116.308 70.8362C116.577 70.5641 117.014 70.5578 117.29 70.822C121.82 75.2973 124.004 79.4133 123.133 81.8327C123.033 82.1105 122.77 82.2959 122.475 82.2962Z" fill="#E57E25"/>
<path d="M101.615 91.63H99.5145C99.1277 91.63 98.8142 91.3165 98.8142 90.9297C98.8142 90.543 99.1277 90.2295 99.5145 90.2295H101.615C102.002 90.2295 102.315 90.543 102.315 90.9297C102.315 91.3165 102.002 91.63 101.615 91.63Z" fill="#7F8284"/>
<path d="M114.92 91.63H112.819C112.432 91.63 112.119 91.3165 112.119 90.9297C112.119 90.543 112.432 90.2295 112.819 90.2295H114.92C115.307 90.2295 115.62 90.543 115.62 90.9297C115.62 91.3165 115.307 91.63 114.92 91.63Z" fill="#7F8284"/>
<path d="M119.766 73.242C119.488 76.1137 118.229 78.8019 116.201 80.8537C114.07 82.9646 112.855 85.8298 112.819 88.8296H101.615C101.61 87.3453 101.303 85.8776 100.712 84.516C100.119 83.1524 99.2789 81.9106 98.233 80.8537C95.0072 77.5813 93.8205 72.8113 95.1369 68.4089C96.4532 64.0064 100.064 60.6708 104.556 59.7063C104.88 59.6402 105.113 59.3572 105.116 59.027V58.7189C105.116 57.5587 106.057 56.6182 107.217 56.6182C108.377 56.6182 109.318 57.5587 109.318 58.7189V59.027C109.321 59.3572 109.555 59.6402 109.878 59.7063C116.131 61.0554 120.382 66.8748 119.766 73.242Z" fill="#F0C419"/>
<path d="M117.526 73.242C117.337 76.0158 116.316 78.6682 114.598 80.8537C112.792 83.1192 111.812 85.9324 111.819 88.8296H102.615C102.614 87.3601 102.363 85.9015 101.873 84.516C101.406 83.1888 100.718 81.9505 99.8365 80.8537C98.118 78.6682 97.0976 76.0158 96.908 73.242C96.4017 66.6667 100.049 61.0017 105.031 59.7063C105.318 59.6077 105.506 59.3307 105.491 59.027V58.7189C105.396 57.6649 106.165 56.7298 107.217 56.6182C107.696 56.6289 108.144 56.8553 108.437 57.2344C108.771 57.6565 108.95 58.1806 108.943 58.7189V59.027C108.928 59.3307 109.116 59.6077 109.403 59.7063C114.385 61.0017 118.032 66.6667 117.526 73.242Z" fill="#F3D55B"/>
<path d="M112.819 88.8291V93.0306C112.817 93.8031 112.191 94.4288 111.419 94.4311H103.016C102.243 94.4288 101.618 93.8031 101.615 93.0306V88.8291H112.819Z" fill="#95A5A5"/>
<path d="M110.718 94.7818C110.718 96.1332 109.15 97.2326 107.217 97.2326C105.284 97.2326 103.716 96.1332 103.716 94.7818C103.716 94.6638 103.73 94.5462 103.758 94.4316H110.676C110.704 94.5462 110.719 94.6638 110.718 94.7818Z" fill="#342777"/>
<path d="M95.1357 83.9281C94.1093 83.9847 93.093 83.699 92.2465 83.1158C92.0357 82.9668 91.924 82.714 91.9558 82.4579C91.9875 82.2017 92.1575 81.9838 92.3983 81.8908C92.639 81.7978 92.9114 81.8447 93.1071 82.0129C94.1112 82.7951 96.3667 82.6886 99.2952 81.7223C101.942 80.813 104.478 79.6067 106.854 78.1265C107.775 77.5663 108.674 76.9788 109.536 76.385C112.981 74.0546 116.096 71.27 118.796 68.1067C121.081 65.3232 122.218 62.8387 121.841 61.4599C121.742 61.088 121.962 60.7057 122.333 60.6041C122.704 60.5025 123.088 60.7196 123.192 61.0902C123.848 63.4871 121.753 66.7118 119.88 68.9946C117.096 72.2588 113.885 75.1324 110.332 77.5376C109.452 78.1468 108.527 78.7476 107.582 79.3239C105.114 80.86 102.48 82.1113 99.73 83.0541C98.2519 83.5771 96.7027 83.8718 95.1357 83.9281Z" fill="#F29C1F"/>
<path d="M119.296 83.9334C117.728 83.88 116.178 83.5828 114.701 83.0525C111.953 82.1097 109.32 80.8588 106.854 79.3237C105.907 78.7467 104.982 78.1458 104.102 77.5359C100.549 75.1308 97.3376 72.2572 94.5539 68.9929C92.6583 66.6821 90.5485 63.4252 91.2627 61.0248C91.3751 60.6568 91.7632 60.4484 92.132 60.558C92.5008 60.6677 92.7121 61.0544 92.6051 61.4239C92.1982 62.7957 93.3319 65.2935 95.6393 68.105C98.3394 71.2685 101.454 74.0533 104.899 76.384C105.757 76.9785 106.659 77.5653 107.582 78.1269C109.956 79.6063 112.49 80.8119 115.136 81.7206C118.202 82.7325 120.569 82.7941 121.47 81.8859C121.743 81.6115 122.186 81.6101 122.461 81.8827C122.735 82.1554 122.736 82.5988 122.464 82.8732C121.594 83.6383 120.452 84.0205 119.296 83.9334Z" fill="#F29C1F"/>
<path d="M92.1618 84.6278C93.5154 84.6278 94.6127 83.5305 94.6127 82.1769C94.6127 80.8234 93.5154 79.7261 92.1618 79.7261C90.8082 79.7261 89.7109 80.8234 89.7109 82.1769C89.7109 83.5305 90.8082 84.6278 92.1618 84.6278Z" fill="#3B97D3"/>
<path d="M92.1618 62.9203C93.5154 62.9203 94.6127 61.823 94.6127 60.4694C94.6127 59.1158 93.5154 58.0186 92.1618 58.0186C90.8082 58.0186 89.7109 59.1158 89.7109 60.4694C89.7109 61.823 90.8082 62.9203 92.1618 62.9203Z" fill="#3B97D3"/>
<path d="M122.272 84.6278C123.626 84.6278 124.723 83.5305 124.723 82.1769C124.723 80.8234 123.626 79.7261 122.272 79.7261C120.919 79.7261 119.822 80.8234 119.822 82.1769C119.822 83.5305 120.919 84.6278 122.272 84.6278Z" fill="#3B97D3"/>
<path d="M122.272 62.9203C123.626 62.9203 124.723 61.823 124.723 60.4694C124.723 59.1158 123.626 58.0186 122.272 58.0186C120.919 58.0186 119.822 59.1158 119.822 60.4694C119.822 61.823 120.919 62.9203 122.272 62.9203Z" fill="#3B97D3"/>
<path d="M98.4534 68.3424C98.2106 68.3423 97.9851 68.2166 97.8576 68.01C97.73 67.8034 97.7186 67.5455 97.8274 67.3284C99.1423 64.695 101.502 62.7345 104.332 61.9246C104.575 61.8471 104.842 61.9083 105.027 62.0843C105.212 62.2603 105.287 62.5231 105.221 62.7701C105.156 63.0172 104.962 63.2092 104.714 63.2712C102.263 63.9739 100.219 65.6732 99.0801 67.9551C98.9615 68.1925 98.7188 68.3425 98.4534 68.3424Z" fill="white"/>
</g>
<defs>
<filter id="filter0_d_199_10278" x="0.560059" y="0.177246" width="204.199" height="208.114" filterUnits="userSpaceOnUse" color-interpolation-filters="sRGB">
<feFlood flood-opacity="0" result="BackgroundImageFix"/>
<feColorMatrix in="SourceAlpha" type="matrix" values="0 0 0 0 0 0 0 0 0 0 0 0 0 0 0 0 0 0 127 0" result="hardAlpha"/>
<feOffset dy="25"/>
<feGaussianBlur stdDeviation="35"/>
<feColorMatrix type="matrix" values="0 0 0 0 0.0392157 0 0 0 0 0.0117647 0 0 0 0 0.235294 0 0 0 0.15 0"/>
<feBlend mode="normal" in2="BackgroundImageFix" result="effect1_dropShadow_199_10278"/>
<feBlend mode="normal" in="SourceGraphic" in2="effect1_dropShadow_199_10278" result="shape"/>
</filter>
<clipPath id="clip0_199_10278">
<rect width="40.1242" height="42.571" fill="white" transform="translate(82.5964 57.9487)"/>
</clipPath>
</defs>
</svg>
