<svg width="106" height="24" viewBox="0 0 106 24" fill="none" xmlns="http://www.w3.org/2000/svg">
<g clip-path="url(#clip0_323_40222)">
<path fill-rule="evenodd" clip-rule="evenodd" d="M0.204189 16.4879C0.11687 16.7156 0.235336 16.7631 0.263422 16.8034C0.524358 16.9924 0.789379 17.1292 1.05491 17.2829C2.47449 18.0336 3.81236 18.2531 5.21152 18.2531C8.06088 18.2531 9.83279 16.7366 9.83279 14.2957V14.2477C9.83279 11.9907 7.83109 11.1686 5.96215 10.5813L5.71756 10.5022C4.30308 10.0436 3.08266 9.6443 3.08266 8.71493V8.66744C3.08266 7.87085 3.79755 7.28361 4.90053 7.28361C6.12607 7.28361 7.5865 7.69161 8.52096 8.20787C8.52096 8.20787 8.79773 8.38659 8.89832 8.11953C8.95296 7.97502 9.42939 6.69996 9.48045 6.55698C9.53458 6.40736 9.4396 6.29451 9.34207 6.2363C8.26973 5.58268 6.78888 5.13842 5.25696 5.13842L4.97253 5.13944C2.36317 5.13944 0.540188 6.71732 0.540188 8.97434V9.02285C0.540188 11.4024 2.5521 12.1786 4.43125 12.7148L4.73355 12.8087C6.10207 13.2295 7.28675 13.5951 7.28675 14.5551V14.6031C7.28675 15.4865 6.51569 16.1452 5.27994 16.1452C4.79942 16.1452 3.26802 16.1371 1.60844 15.0882C1.40776 14.9713 1.29338 14.887 1.13866 14.7926C1.05695 14.743 0.852699 14.6537 0.763848 14.9212L0.202146 16.4838L0.204189 16.4879ZM41.9213 16.4838C41.834 16.7115 41.9524 16.759 41.9816 16.7994C42.2415 16.9883 42.5075 17.1251 42.773 17.2788C44.1926 18.0295 45.5305 18.2491 46.9296 18.2491C49.779 18.2491 51.5509 16.7325 51.5509 14.2916V14.2436C51.5509 11.9866 49.5543 11.1645 47.6803 10.5772L47.4357 10.4981C46.0212 10.0395 44.8008 9.64021 44.8008 8.71085V8.66336C44.8008 7.86676 45.5157 7.27953 46.6187 7.27953C47.8442 7.27953 49.2995 7.68753 50.2391 8.20379C50.2391 8.20379 50.5159 8.38251 50.617 8.11544C50.6711 7.97093 51.148 6.69587 51.194 6.55289C51.2486 6.40327 51.1531 6.29042 51.0561 6.23221C49.9838 5.57859 48.5029 5.13434 46.971 5.13434L46.6861 5.13536C44.0767 5.13536 42.2537 6.71323 42.2537 8.97025V9.01876C42.2537 11.3983 44.2656 12.1745 46.1448 12.7107L46.4466 12.8046C47.8202 13.2254 48.9998 13.591 48.9998 14.551V14.599C48.9998 15.4824 48.2287 16.1411 46.993 16.1411C46.5114 16.1411 44.9759 16.133 43.3215 15.0841C43.1208 14.9672 43.0033 14.8865 42.8512 14.7885C42.7996 14.7558 42.5591 14.6618 42.4769 14.9171L41.9152 16.4797L41.9213 16.4838ZM70.4088 11.7001C70.4088 13.0788 70.1514 14.1665 69.6479 14.9376C69.1455 15.6984 68.3867 16.0712 67.3296 16.0712C66.2726 16.0712 65.5169 15.7015 65.0216 14.9427C64.5227 14.1767 64.2709 13.084 64.2709 11.7052C64.2709 10.3265 64.5242 9.24396 65.0216 8.4831C65.5158 7.72736 66.2675 7.36481 67.3296 7.36481C68.3918 7.36481 69.1475 7.73093 69.6479 8.4831C70.1545 9.24396 70.4088 10.3265 70.4088 11.7052V11.7001ZM72.7884 9.14693C72.554 8.35545 72.1909 7.66098 71.7058 7.07885C71.2202 6.49672 70.6079 6.02693 69.8777 5.68991C69.1526 5.35034 68.2947 5.17927 67.3245 5.17927C66.3543 5.17927 65.5016 5.35136 64.7713 5.68991C64.0462 6.02898 63.4284 6.49672 62.9433 7.07885C62.4592 7.66098 62.0956 8.35545 61.8607 9.14693C61.6284 9.93332 61.5104 10.7912 61.5104 11.7052C61.5104 12.6193 61.6284 13.4771 61.8607 14.2635C62.0941 15.055 62.4581 15.7495 62.9433 16.3316C63.4289 16.9137 64.0462 17.3784 64.7713 17.7103C65.5016 18.0412 66.3594 18.2097 67.3245 18.2097C68.2896 18.2097 69.1475 18.0412 69.8726 17.7103C70.5977 17.3794 71.2156 16.9137 71.7007 16.3316C72.1853 15.7495 72.5484 15.055 72.7832 14.2635C73.0151 13.4771 73.133 12.6193 73.133 11.7052C73.133 10.7963 73.0151 9.93332 72.7832 9.14693H72.7884ZM92.3407 15.6831C92.2626 15.4518 92.0369 15.5391 92.0369 15.5391C91.6912 15.6714 91.322 15.7939 90.9288 15.8552C90.5325 15.9175 90.0913 15.9486 89.6267 15.9486C88.4777 15.9486 87.5586 15.606 86.905 14.9274C86.2462 14.2482 85.8786 13.1554 85.8837 11.6746C85.8873 10.3265 86.213 9.31544 86.7977 8.53927C87.3747 7.77332 88.2633 7.37502 89.4377 7.37502C90.4181 7.37502 91.1688 7.48889 91.9552 7.73502C91.9552 7.73502 92.1415 7.81621 92.2309 7.57059C92.4398 6.99357 92.594 6.57996 92.8181 5.94676C92.8815 5.76549 92.7262 5.68889 92.6695 5.66693C92.3611 5.54642 91.6329 5.34881 91.0815 5.26557C90.5657 5.18693 89.9683 5.14608 89.2942 5.14608C88.2934 5.14608 87.4049 5.31715 86.644 5.65621C85.8832 5.99476 85.2398 6.46302 84.7291 7.04515C84.2185 7.62727 83.8304 8.32174 83.57 9.11323C83.3121 9.89962 83.1819 10.7626 83.1819 11.6766C83.1819 13.6477 83.713 15.246 84.7649 16.4154C85.8168 17.5898 87.3998 18.1822 89.4627 18.1822C90.6832 18.1822 91.9342 17.9355 92.833 17.5796C92.833 17.5796 93.0045 17.4969 92.93 17.2967L92.3427 15.6831H92.3407ZM96.5044 10.3725C96.6183 9.60651 96.8282 8.96821 97.1581 8.47289C97.6518 7.71715 98.404 7.30353 99.461 7.30353C100.518 7.30353 101.218 7.71919 101.718 8.47289C102.05 8.97076 102.195 9.63204 102.249 10.3725L96.4789 10.3714L96.5044 10.3725ZM104.521 8.68736C104.319 7.92651 103.817 7.15544 103.49 6.8031C102.969 6.24651 102.464 5.85332 101.958 5.63885C101.228 5.32848 100.443 5.16922 99.65 5.17059C98.644 5.17059 97.73 5.34064 96.9895 5.68634C96.2491 6.03459 95.6261 6.50847 95.1359 7.10081C94.6462 7.69315 94.2781 8.39272 94.0432 9.19442C93.8083 9.98591 93.6898 10.854 93.6898 11.7629C93.6898 12.6923 93.8129 13.5553 94.0549 14.3366C94.2995 15.1229 94.6932 15.8123 95.2243 16.3842C95.7553 16.9612 96.4345 17.4106 97.2515 17.7272C98.0634 18.0412 99.049 18.2041 100.177 18.2006C102.506 18.1929 103.732 17.6746 104.232 17.3937C104.321 17.3437 104.406 17.2574 104.3 17.0087L103.774 15.533C103.694 15.3129 103.471 15.3926 103.471 15.3926C102.894 15.608 102.077 15.9951 100.162 15.99C98.9111 15.988 97.9868 15.6188 97.4047 15.0402C96.8124 14.4479 96.5162 13.5849 96.4702 12.3594L104.538 12.3655C104.538 12.3655 104.751 12.3634 104.773 12.1561C104.781 12.0703 105.049 10.5017 104.532 8.68889L104.521 8.68736ZM32.0108 10.3725C32.1247 9.60651 32.3351 8.96821 32.6644 8.47289C33.1587 7.71715 33.9104 7.30353 34.9674 7.30353C36.0244 7.30353 36.724 7.71919 37.2244 8.47289C37.5559 8.97076 37.7009 9.63204 37.7555 10.3725L31.9853 10.3714L32.0108 10.3725ZM40.0279 8.68736C39.8256 7.92651 39.3232 7.15544 38.9964 6.8031C38.4755 6.24651 37.97 5.85332 37.4644 5.63885C36.7346 5.32848 35.9494 5.16922 35.1564 5.17059C34.1504 5.17059 33.2364 5.34064 32.4959 5.68634C31.7555 6.03459 31.1325 6.50847 30.6423 7.10081C30.1536 7.69315 29.7845 8.39272 29.5496 9.19442C29.3152 9.98591 29.1972 10.854 29.1972 11.7629C29.1972 12.6923 29.3193 13.5553 29.5628 14.3366C29.8069 15.1229 30.2011 15.8123 30.7271 16.3842C31.2582 16.9612 31.9373 17.4106 32.7543 17.7272C33.5662 18.0412 34.5467 18.2041 35.6803 18.2006C38.0088 18.1929 39.2343 17.6746 39.7347 17.3937C39.8236 17.3437 39.9084 17.2574 39.8027 17.0087L39.2767 15.533C39.1955 15.3129 38.9729 15.3926 38.9729 15.3926C38.3959 15.608 37.5788 15.9951 35.6639 15.99C34.418 15.988 33.4886 15.6188 32.9065 15.0402C32.3142 14.4479 32.018 13.5849 31.972 12.3594L40.0401 12.3655C40.0401 12.3655 40.2525 12.3634 40.2745 12.1561C40.2832 12.0703 40.5507 10.5017 40.0335 8.68889L40.0279 8.68736ZM14.5981 15.632C14.282 15.3798 14.2381 15.318 14.1334 15.1541C13.9736 14.9074 13.8919 14.5566 13.8919 14.1073C13.8919 13.4026 14.1267 12.892 14.6119 12.5498C14.6067 12.5508 15.3063 11.9473 16.9506 11.9677C17.6824 11.9808 18.4126 12.0431 19.1361 12.1541V15.8154H19.1371C19.1371 15.8154 18.1159 16.0354 16.9618 16.1049C15.3227 16.2034 14.5976 15.6331 14.6027 15.6346L14.5981 15.632ZM17.8049 9.96395C17.4781 9.93995 17.0542 9.92821 16.5487 9.92821C15.8593 9.92821 15.1904 10.014 14.5674 10.1825C13.9393 10.352 13.3725 10.6145 12.8874 10.9638C12.401 11.3108 12.0009 11.7651 11.7181 12.2914C11.4326 12.8225 11.2871 13.4455 11.2871 14.1502C11.2871 14.8651 11.4112 15.4829 11.6563 15.9885C11.8964 16.4899 12.258 16.9234 12.7082 17.2497C13.156 17.5755 13.709 17.8166 14.3473 17.9595C14.9805 18.104 15.6954 18.1771 16.4818 18.1771C17.309 18.1771 18.1312 18.1076 18.9278 17.9733C19.6062 17.8563 20.2821 17.7248 20.955 17.5791C21.2236 17.5173 21.5218 17.4361 21.5218 17.4361C21.721 17.3856 21.7056 17.1726 21.7056 17.1726L21.701 9.81944C21.701 8.20583 21.2701 7.00583 20.4193 6.2654C19.5717 5.52498 18.3308 5.15221 16.7223 5.15221C16.1198 5.15221 15.1445 5.23391 14.5623 5.35085C14.5623 5.35085 12.8057 5.69196 12.0806 6.25979C12.0806 6.25979 11.9213 6.35783 12.0081 6.57996L12.58 8.11187C12.651 8.31051 12.8445 8.24259 12.8445 8.24259C12.8445 8.24259 12.9053 8.21859 12.9768 8.17621C14.524 7.33366 16.4849 7.35919 16.4849 7.35919C17.353 7.35919 18.027 7.53536 18.4764 7.88004C18.916 8.21757 19.1402 8.7277 19.1402 9.80004V10.1406C18.4508 10.0406 17.8125 9.98285 17.8125 9.98285L17.8049 9.96395ZM82.6559 5.81247C82.6677 5.7855 82.6738 5.75655 82.6738 5.72724C82.6738 5.69788 82.6682 5.66882 82.657 5.64176C82.6457 5.6147 82.6289 5.59019 82.6079 5.56971C82.587 5.54918 82.562 5.5331 82.5349 5.52242C82.3975 5.47034 81.7128 5.32583 81.1868 5.29315C80.1758 5.22983 79.6141 5.40038 79.1085 5.6271C78.6091 5.8523 78.0566 6.21434 77.7502 6.63306L77.7492 5.65264C77.7492 5.51783 77.6537 5.40906 77.5179 5.40906H75.4549C75.3211 5.40906 75.2241 5.51783 75.2241 5.65264V17.6526C75.2241 17.7174 75.2501 17.7796 75.2961 17.8254C75.3416 17.8713 75.4038 17.8971 75.4687 17.8972H77.5827C77.6476 17.8971 77.7094 17.8712 77.7553 17.8254C77.8013 17.7795 77.8268 17.7174 77.8268 17.6526V11.6271C77.8268 10.8203 77.9157 10.0186 78.0929 9.51306C78.2675 9.01315 78.505 8.61434 78.7975 8.32838C79.0769 8.05218 79.418 7.84726 79.7933 7.73093C80.1451 7.62993 80.5097 7.57871 80.8758 7.57876C81.2971 7.57876 81.7593 7.68702 81.7593 7.68702C81.9145 7.70438 82.0008 7.6094 82.0534 7.46949C82.1918 7.10132 82.5844 5.99885 82.661 5.77927" fill="#00A1E0"/>
<path fill-rule="evenodd" clip-rule="evenodd" d="M62.9112 0.274067C62.6497 0.195096 62.3842 0.132005 62.1151 0.0851336C61.7535 0.0247529 61.3869 -0.00361245 61.0203 0.000367334C59.5634 0.000367334 58.415 0.411943 57.6087 1.22488C56.808 2.03169 56.2632 3.26079 55.99 4.87798L55.8914 5.42385H54.0628C54.0628 5.42385 53.8397 5.41466 53.7927 5.65823L53.4924 7.33312C53.4715 7.49346 53.5404 7.59355 53.7549 7.59253H55.535L53.7289 17.6741C53.5874 18.486 53.4255 19.1539 53.2463 19.6599C53.0696 20.1593 52.897 20.5336 52.6846 20.8053C52.4788 21.0683 52.2838 21.2618 51.9472 21.3747C51.6695 21.4681 51.3498 21.511 50.9996 21.511C50.8045 21.511 50.5451 21.4783 50.3536 21.44C50.1622 21.4022 50.0626 21.3593 49.9191 21.2991C49.9191 21.2991 49.7102 21.2194 49.628 21.4288C49.5611 21.5998 49.0868 22.9045 49.0306 23.0659C48.9734 23.2252 49.0536 23.3508 49.1547 23.3871C49.3916 23.4718 49.5678 23.526 49.8905 23.6021C50.3388 23.7078 50.7167 23.7144 51.0705 23.7144C51.8119 23.7144 52.4875 23.6102 53.0477 23.408C53.6114 23.2043 54.1021 22.8494 54.5362 22.3689C55.0055 21.8506 55.3006 21.3078 55.583 20.5673C55.8623 19.8335 56.1003 18.9226 56.2907 17.861L58.1055 7.59253H60.7588C60.7588 7.59253 60.9825 7.6007 61.0289 7.35814L61.3292 5.68325C61.3501 5.52291 61.2817 5.42283 61.0662 5.42385H58.4911C58.5038 5.36563 58.6208 4.45977 58.9164 3.60701C59.0426 3.24292 59.28 2.9493 59.4812 2.7476C59.6691 2.5555 59.9004 2.41151 60.1558 2.32786C60.4356 2.24133 60.7277 2.19928 61.0203 2.20326C61.2628 2.20326 61.5008 2.23237 61.6821 2.27015C61.9318 2.32326 62.0288 2.35135 62.0941 2.37075C62.3566 2.45092 62.3918 2.3733 62.4434 2.24615L63.0592 0.554921C63.1226 0.373133 62.9683 0.296535 62.9112 0.274067ZM26.9245 17.6955C26.9245 17.8303 26.8285 17.9401 26.6937 17.9401H24.5577C24.4224 17.9401 24.3264 17.8303 24.3264 17.6955V0.503346C24.3264 0.369049 24.4224 0.260284 24.5577 0.260284H26.6937C26.8285 0.260284 26.9245 0.369049 26.9245 0.503346V17.6955Z" fill="#00A1E0"/>
</g>
<defs>
<clipPath id="clip0_323_40222">
<rect width="105.191" height="24" fill="white"/>
</clipPath>
</defs>
</svg>
