<svg width="58" height="41" viewBox="0 0 58 41" fill="none" xmlns="http://www.w3.org/2000/svg">
<path d="M8.66836 26.8528C9.58512 25.4055 11.1791 24.5283 12.8923 24.5283H41.7376C43.1976 24.5283 44.5846 25.1665 45.5345 26.2752L50.6811 32.2822C53.4601 35.5258 51.1554 40.5353 46.8842 40.5353H9.08727C5.14653 40.5353 2.75464 36.1888 4.86337 32.8598L8.66836 26.8528Z" fill="#0DD3A3"/>
<path d="M13.3611 25.6805L13.3556 25.7857H13.461H24.7506C24.9964 25.7857 25.1953 25.9846 25.1953 26.2304C25.1953 26.4763 24.9964 26.6752 24.7506 26.6752H12.9021C12.6562 26.6752 12.4573 26.4763 12.4573 26.2304C12.4573 19.9919 17.5333 14.9159 23.7725 14.9159C25.4878 14.9159 27.1352 15.2899 28.6694 16.0275C28.8907 16.134 28.984 16.4 28.8776 16.6211C28.7713 16.8421 28.505 16.9351 28.284 16.8293C26.8707 16.1498 25.3527 15.8054 23.7725 15.8054C18.2083 15.8054 13.6482 20.1866 13.3611 25.6805Z" fill="white" stroke="white" stroke-width="0.2"/>
<path d="M30.0817 7.134C30.0817 10.7174 27.1655 13.6332 23.5814 13.6332C19.9991 13.6332 17.084 10.7174 17.084 7.134C17.084 3.55058 19.9988 0.635156 23.5814 0.635156C27.1655 0.635156 30.0817 3.55063 30.0817 7.134ZM29.1922 7.134C29.1922 4.04081 26.6753 1.52467 23.5814 1.52467C20.4889 1.52467 17.9735 4.04086 17.9735 7.134C17.9735 10.2271 20.4889 12.7437 23.5814 12.7437C26.6753 12.7437 29.1922 10.2276 29.1922 7.134Z" fill="white" stroke="white" stroke-width="0.2"/>
<path d="M41.9013 19.2472V19.3472H42.0013H44.7251C44.9709 19.3472 45.1698 19.5461 45.1698 19.792V33.5925C45.1698 33.8384 44.9709 34.0373 44.7251 34.0373H27.656C27.4101 34.0373 27.2112 33.8384 27.2112 33.5925V19.792C27.2112 19.5461 27.4101 19.3472 27.656 19.3472H38.0064H38.1064V19.2472V15.4339C38.1064 15.1881 38.3053 14.9892 38.5511 14.9892H41.4565C41.7024 14.9892 41.9013 15.1881 41.9013 15.4339V19.2472ZM39.0959 15.8787H38.9959V15.9787V22.879V22.979H39.0959H40.9118H41.0118V22.879V15.9787V15.8787H40.9118H39.0959ZM38.1064 20.3367V20.2367H38.0064H28.2007H28.1007V20.3367V29.0529V29.1529H28.2007H44.1803H44.2803V29.0529V20.3367V20.2367H44.1803H42.0013H41.9013V20.3367V23.4237C41.9013 23.6696 41.7024 23.8685 41.4565 23.8685H38.5511C38.3053 23.8685 38.1064 23.6696 38.1064 23.4237V20.3367ZM28.1007 33.0478V33.1478H28.2007H44.1803H44.2803V33.0478V30.1424V30.0424H44.1803H28.2007H28.1007V30.1424V33.0478Z" fill="white" stroke="white" stroke-width="0.2"/>
<path d="M35.2826 21.9851H34.9194C34.6736 21.9851 34.4746 21.7862 34.4746 21.5404C34.4746 21.2945 34.6736 21.0956 34.9194 21.0956H35.2826C35.5284 21.0956 35.7273 21.2945 35.7273 21.5404C35.7273 21.7862 35.5284 21.9851 35.2826 21.9851Z" fill="white" stroke="white" stroke-width="0.2"/>
<path d="M35.2826 24.5276H34.9194C34.6736 24.5276 34.4746 24.3287 34.4746 24.0828C34.4746 23.837 34.6736 23.6381 34.9194 23.6381H35.2826C35.5284 23.6381 35.7273 23.837 35.7273 24.0828C35.7273 24.3287 35.5284 24.5276 35.2826 24.5276Z" fill="white" stroke="white" stroke-width="0.2"/>
<path d="M31.2876 21.9851H30.9244C30.6786 21.9851 30.4796 21.7862 30.4796 21.5404C30.4796 21.2945 30.6786 21.0956 30.9244 21.0956H31.2876C31.5334 21.0956 31.7323 21.2945 31.7323 21.5404C31.7323 21.7862 31.5334 21.9851 31.2876 21.9851Z" fill="white" stroke="white" stroke-width="0.2"/>
<path d="M31.2876 24.5276H30.9244C30.6786 24.5276 30.4796 24.3287 30.4796 24.0828C30.4796 23.837 30.6786 23.6381 30.9244 23.6381H31.2876C31.5334 23.6381 31.7323 23.837 31.7323 24.0828C31.7323 24.3287 31.5334 24.5276 31.2876 24.5276Z" fill="white" stroke="white" stroke-width="0.2"/>
</svg>
