<svg width="205" height="209" viewBox="0 0 205 209" fill="none" xmlns="http://www.w3.org/2000/svg">
<g filter="url(#filter0_d_199_10328)">
<rect x="70.0789" y="45.1104" width="64.1987" height="68.1136" rx="10" fill="white"/>
</g>
<g clip-path="url(#clip0_199_10328)">
<path d="M123.829 81.0811H111.795C109.984 81.0811 108.516 79.6129 108.516 77.802V65.7674C108.516 63.9564 109.984 62.4883 111.795 62.4883H123.829C125.64 62.4883 127.108 63.9564 127.108 65.7674V77.802C127.109 79.6129 125.64 81.0811 123.829 81.0811Z" fill="#BDF4E3"/>
<path d="M122.763 78.1845H112.861C112.062 78.1845 111.413 77.536 111.413 76.7361V66.8351C111.413 66.0352 112.062 65.3867 112.861 65.3867H122.763C123.562 65.3867 124.211 66.0352 124.211 66.8351V76.7362C124.211 77.536 123.562 78.1845 122.763 78.1845Z" fill="#FFDCB6"/>
<path d="M123.829 62.4883H120.281C121.673 62.4883 122.801 63.6163 122.801 65.0076V74.2539C122.801 75.6454 121.673 76.7733 120.281 76.7733H111.035C109.644 76.7733 108.516 75.6453 108.516 74.2539V77.802C108.516 79.6129 109.984 81.0811 111.795 81.0811H123.829C125.64 81.0811 127.108 79.6129 127.108 77.802V65.7674C127.108 63.9563 125.64 62.4883 123.829 62.4883Z" fill="#B1B7E3"/>
<path d="M122.801 65.3882V74.2544C122.801 75.6458 121.673 76.7738 120.281 76.7738H111.415C111.435 77.5559 112.074 78.1841 112.862 78.1841H122.763C123.563 78.1841 124.211 77.5356 124.211 76.7357V66.8347C124.211 66.0475 123.583 65.4086 122.801 65.3882Z" fill="#EFA5B6"/>
<path d="M121.444 62.4707H109.41C107.599 62.4707 106.13 61.0026 106.13 59.1916V47.1571C106.13 45.3461 107.599 43.8779 109.41 43.8779H121.444C123.255 43.8779 124.723 45.3461 124.723 47.1571V59.1917C124.723 61.0027 123.255 62.4707 121.444 62.4707Z" fill="#EF8BBD"/>
<path d="M120.377 59.5728H110.476C109.676 59.5728 109.028 58.9243 109.028 58.1244V48.2233C109.028 47.4234 109.676 46.7749 110.476 46.7749H120.377C121.177 46.7749 121.826 47.4234 121.826 48.2233V58.1244C121.826 58.9243 121.177 59.5728 120.377 59.5728Z" fill="#FFDCB6"/>
<path d="M121.444 43.8779H117.896C119.287 43.8779 120.415 45.0059 120.415 46.3973V55.6436C120.415 57.0349 119.287 58.1629 117.896 58.1629H108.65C107.258 58.1629 106.13 57.0349 106.13 55.6436V59.1916C106.13 61.0026 107.599 62.4707 109.41 62.4707H121.444C123.255 62.4707 124.723 61.0026 124.723 59.1916V47.1571C124.723 45.3461 123.255 43.8779 121.444 43.8779Z" fill="#E068BD"/>
<path d="M120.415 46.7773V55.6436C120.415 57.0349 119.287 58.1629 117.896 58.1629H109.028C109.049 58.9451 109.689 59.5732 110.476 59.5732H120.377C121.177 59.5732 121.826 58.9248 121.826 58.1249V48.2238C121.826 47.4368 121.197 46.7977 120.415 46.7773Z" fill="#EFA5B6"/>
<path d="M102.62 81.0811H90.5855C88.7745 81.0811 87.3064 79.6129 87.3064 77.802V65.7674C87.3064 63.9564 88.7745 62.4883 90.5855 62.4883H102.62C104.431 62.4883 105.899 63.9564 105.899 65.7674V77.802C105.899 79.6129 104.431 81.0811 102.62 81.0811Z" fill="#CAB4EF"/>
<path d="M101.553 78.1831H91.6523C90.8523 78.1831 90.2039 77.5346 90.2039 76.7347V66.8336C90.2039 66.0337 90.8523 65.3853 91.6523 65.3853H101.553C102.353 65.3853 103.002 66.0337 103.002 66.8336V76.7347C103.002 77.5346 102.353 78.1831 101.553 78.1831Z" fill="#FFDCB6"/>
<path d="M102.621 62.4883H99.0729C100.464 62.4883 101.592 63.6163 101.592 65.0076V74.2539C101.592 75.6454 100.464 76.7733 99.0729 76.7733H89.8267C88.4353 76.7733 87.3074 75.6454 87.3074 74.2539V77.802C87.3073 79.6129 88.7754 81.0811 90.5864 81.0811H102.621C104.432 81.0811 105.9 79.613 105.9 77.802V65.7674C105.9 63.9564 104.432 62.4883 102.621 62.4883Z" fill="#BE87EF"/>
<path d="M101.591 65.3877V74.2538C101.591 75.6453 100.463 76.7732 99.072 76.7732H90.2058C90.2262 77.5553 90.8652 78.1835 91.6523 78.1835H101.553C102.353 78.1835 103.002 77.535 103.002 76.7351V66.8342C103.002 66.047 102.374 65.408 101.591 65.3877Z" fill="#EFA5B6"/>
<path d="M92.3772 72.0479C91.9391 72.0479 91.584 71.6927 91.584 71.2547V70.2742C91.584 69.8362 91.9391 69.481 92.3772 69.481C92.8153 69.481 93.1705 69.8362 93.1705 70.2742V71.2547C93.1705 71.6928 92.8153 72.0479 92.3772 72.0479Z" fill="white"/>
<path d="M92.3772 68.7475C91.9391 68.7475 91.584 68.3923 91.584 67.9543V67.5945C91.584 67.1565 91.9391 66.8013 92.3772 66.8013C92.8153 66.8013 93.1705 67.1565 93.1705 67.5945V67.9543C93.1705 68.3924 92.8153 68.7475 92.3772 68.7475Z" fill="white"/>
<path d="M118.647 76.7281C118.225 76.7008 117.906 76.3319 117.906 75.9094V68.4273H116.952C116.53 68.4273 116.161 68.1085 116.133 67.687C116.103 67.225 116.469 66.8408 116.925 66.8408H118.773C119.17 66.8408 119.493 67.163 119.493 67.5605V75.9366C119.493 76.3922 119.109 76.7581 118.647 76.7281Z" fill="#D58A9C"/>
<path d="M115.041 58.2022C113.449 58.2022 113.332 58.1631 113.225 58.1274C112.961 58.0394 112.764 57.8396 112.683 57.5793C112.545 57.1303 112.739 56.8768 113.256 56.1992C113.679 55.6463 114.465 54.6172 115.782 52.7353C116.174 52.1757 116.426 51.6745 116.533 51.2447L116.561 51.022C116.538 50.3085 115.95 49.7353 115.231 49.7353C114.596 49.7353 114.047 50.1864 113.925 50.8077C113.84 51.2376 113.423 51.5176 112.994 51.4332C112.564 51.3488 112.284 50.9319 112.368 50.502C112.636 49.1386 113.84 48.1489 115.231 48.1489C116.84 48.1489 118.149 49.4578 118.149 51.0667V51.1171L118.096 51.528L118.087 51.567C117.94 52.2035 117.601 52.9026 117.082 53.6451C116.096 55.0538 115.402 55.9927 114.934 56.6139C115.718 56.6111 116.74 56.6069 117.697 56.5949C117.701 56.5948 117.704 56.5948 117.708 56.5948C118.141 56.5948 118.495 56.9434 118.501 57.3781C118.506 57.8161 118.155 58.1758 117.717 58.1812C116.534 58.196 115.672 58.2022 115.041 58.2022Z" fill="#D58A9C"/>
<path d="M96.603 72.5785C96.1649 72.5785 95.8098 72.2232 95.8098 71.7852C95.8098 71.3472 96.1649 70.992 96.603 70.992C97.3371 70.992 97.9343 70.3948 97.9343 69.6607C97.9343 68.9267 97.3371 68.3296 96.603 68.3296C95.9682 68.3296 95.4189 68.7806 95.2969 69.4019C95.2125 69.8318 94.7959 70.1122 94.3656 70.0275C93.9357 69.943 93.6557 69.5261 93.7401 69.0963C94.0079 67.7328 95.2119 66.7432 96.603 66.7432C98.2119 66.7432 99.5208 68.052 99.5208 69.6608C99.5208 71.2696 98.2119 72.5785 96.603 72.5785Z" fill="#D58A9C"/>
<path d="M96.603 76.827C95.1554 76.827 93.9131 75.7472 93.7134 74.3153C93.6947 74.1818 93.6853 74.0452 93.6853 73.9093C93.6853 73.4712 94.0404 73.116 94.4786 73.116C94.9167 73.116 95.2718 73.4712 95.2718 73.9093C95.2718 73.9719 95.2762 74.0347 95.2847 74.0958C95.3757 74.7485 95.9425 75.2406 96.603 75.2406C97.3371 75.2406 97.9343 74.6434 97.9343 73.9093C97.9343 73.1754 97.3371 72.5782 96.603 72.5782C96.1649 72.5782 95.8098 72.223 95.8098 71.7849C95.8098 71.3469 96.1649 70.9917 96.603 70.9917C98.2119 70.9917 99.5208 72.3006 99.5208 73.9093C99.5208 75.5181 98.2118 76.827 96.603 76.827Z" fill="#D58A9C"/>
<path d="M92.2421 57.5421C92.561 56.7727 92.1958 55.8904 91.4263 55.5715C90.6569 55.2525 89.7746 55.6177 89.4556 56.3871C89.1367 57.1565 89.5019 58.0388 90.2714 58.3578C91.0408 58.6767 91.9231 58.3115 92.2421 57.5421Z" fill="#EF8BBD"/>
</g>
<defs>
<filter id="filter0_d_199_10328" x="0.0788574" y="0.110352" width="204.199" height="208.114" filterUnits="userSpaceOnUse" color-interpolation-filters="sRGB">
<feFlood flood-opacity="0" result="BackgroundImageFix"/>
<feColorMatrix in="SourceAlpha" type="matrix" values="0 0 0 0 0 0 0 0 0 0 0 0 0 0 0 0 0 0 127 0" result="hardAlpha"/>
<feOffset dy="25"/>
<feGaussianBlur stdDeviation="35"/>
<feColorMatrix type="matrix" values="0 0 0 0 0.0392157 0 0 0 0 0.0117647 0 0 0 0 0.235294 0 0 0 0.15 0"/>
<feBlend mode="normal" in2="BackgroundImageFix" result="effect1_dropShadow_199_10328"/>
<feBlend mode="normal" in="SourceGraphic" in2="effect1_dropShadow_199_10328" result="shape"/>
</filter>
<clipPath id="clip0_199_10328">
<rect width="40.1242" height="42.571" fill="white" transform="translate(82.1165 57.8818)"/>
</clipPath>
</defs>
</svg>
