<svg width="30" height="31" viewBox="0 0 30 31" fill="none" xmlns="http://www.w3.org/2000/svg">
<path d="M15.498 1.70703C12.8086 2.20508 10.6348 4.05078 9.76758 6.56445C9.65625 6.88672 9.52148 7.40234 9.46289 7.70703C9.38086 8.17578 9.33398 8.29297 9.16992 8.47461C8.86523 8.80859 8.81836 9.03125 8.81836 10.0508C8.81836 11.0352 8.85352 11.1699 9.19336 11.5332C9.51563 11.8848 9.7207 11.9434 10.7812 11.9727L11.7539 11.9961L11.9824 12.5C12.3047 13.1973 12.9141 14.0996 13.4238 14.6328L13.8574 15.0781L12.5098 15.1016C11.2148 15.125 11.1445 15.1309 10.7461 15.2832C10.1602 15.5059 9.83203 15.6992 9.45117 16.0508C9.06445 16.4023 8.67188 16.8828 8.67188 17C8.67188 17.0703 9.84375 17.082 16.8164 17.082C22.5586 17.082 24.9609 17.0645 24.9609 17.0176C24.9609 16.748 24.0469 15.8574 23.4551 15.541C22.7402 15.166 22.3125 15.0898 20.9297 15.0898H19.7344L20.1445 14.6621C20.373 14.4336 20.6602 14.1113 20.7773 13.9531C21.0703 13.5664 21.5801 12.6934 21.7383 12.3125L21.8613 11.9961L22.8105 11.9727C23.8418 11.9434 24.0762 11.8848 24.3984 11.5859C24.7324 11.2754 24.7852 11.0586 24.7852 10.0039C24.7852 8.95508 24.7559 8.81445 24.4336 8.44531C24.2695 8.26367 24.2285 8.14648 24.1582 7.72461C23.9297 6.27734 23.0801 4.68359 21.9844 3.6582C21.0176 2.74414 19.9277 2.14648 18.6035 1.80664C17.8535 1.61914 16.2539 1.56055 15.498 1.70703ZM18.3691 2.98438C19.4766 3.27148 20.6836 3.98633 21.4219 4.79492C22.2129 5.65625 22.7168 6.65234 22.9922 7.89453L23.0273 8.05859H22.6816H22.3359L22.2422 7.66016C21.9902 6.68164 21.5215 5.81445 20.8359 5.08789C20.2793 4.49609 19.8105 4.15039 19.1367 3.83398C18.3105 3.44727 17.8594 3.35351 16.8457 3.34766C15.832 3.3418 15.3223 3.44727 14.4844 3.83984C12.9727 4.54883 11.7949 6.00195 11.3965 7.64258L11.291 8.05859H10.9453H10.5996L10.6406 7.83594C10.7109 7.43164 11.0215 6.56445 11.2559 6.125C12.1699 4.42578 13.7988 3.24219 15.7441 2.87305C16.4414 2.74414 17.625 2.79102 18.3691 2.98438ZM20.6543 6.86328C20.9766 7.35547 21.2168 8.3457 21.2168 9.16602C21.2168 10.4551 20.7949 11.7734 20.0156 12.9512C19.0137 14.4453 17.6367 15.2363 16.3945 15.0312C15.6445 14.9023 14.7363 14.3457 14.1445 13.6484L13.8926 13.3555L14.3145 13.4316C14.5488 13.4727 14.8301 13.502 14.9473 13.5078C15.1289 13.5078 15.1758 13.5371 15.2285 13.6719C15.334 13.9238 15.6973 14.2695 15.9961 14.4102C16.377 14.5859 17.1035 14.5801 17.4434 14.3984C18.0527 14.0762 18.3633 13.5898 18.3574 12.9453C18.3516 12.4883 18.1992 12.1426 17.8594 11.832C17.4844 11.4863 17.1562 11.375 16.5879 11.4102C15.9609 11.4453 15.5977 11.6621 15.2344 12.2129L15.1465 12.3418L14.5781 12.2539C14.0566 12.166 13.1777 11.9258 13.0312 11.8262C12.9316 11.75 12.6797 11.0645 12.5391 10.4609C12.3809 9.79883 12.3516 8.81445 12.4746 8.22266C12.5508 7.83008 12.5566 7.82422 12.7969 7.75391C12.9258 7.71289 13.3418 7.68359 13.7109 7.68945C14.4141 7.68945 14.7656 7.77148 15.6738 8.12305C16.1719 8.31641 17.168 8.31641 17.8418 8.12891C18.4395 7.95898 19.4707 7.44336 20.0391 7.03906C20.2793 6.86328 20.4961 6.7168 20.5137 6.7168C20.5371 6.71094 20.5957 6.78125 20.6543 6.86328Z" fill="#FF4667"/>
<path d="M4.45318 10.5246C3.49224 10.6359 2.58989 11.1926 2.15044 11.9426C1.752 12.6164 1.70513 13.5773 2.03325 14.2687C2.36724 14.9777 2.99419 15.5285 3.79693 15.8039C4.35943 15.9972 5.42583 15.9972 5.98833 15.8039L6.38091 15.6691L6.77935 15.7922C7.24224 15.9386 8.10943 16.0207 8.16802 15.9211C8.19146 15.8859 8.1563 15.7511 8.09185 15.6222C8.02154 15.4933 7.90435 15.1945 7.82818 14.9601L7.68169 14.5265L7.82232 14.1164C8.02154 13.5597 8.02154 12.8976 7.82818 12.3703C7.37114 11.0988 5.98833 10.3429 4.45318 10.5246Z" fill="#392C7D"/>
<path d="M6.59183 18.2773C6.26956 18.4238 5.9473 18.752 5.82425 19.0508C5.70706 19.332 5.71878 19.6777 5.97659 23.9961C6.1055 26.1406 6.21097 27.9629 6.21097 28.0508V28.209L3.94925 28.2266L1.68753 28.2441L1.54691 28.4082C1.34183 28.6484 1.35355 29.0176 1.57034 29.2285L1.73441 29.3867H15.0059H28.2774L28.4356 29.2227C28.6465 29 28.6524 28.6426 28.4532 28.4082C28.3301 28.2617 28.2715 28.2441 27.8672 28.2266C27.4571 28.2031 27.4219 28.1914 27.4219 28.0742C27.416 28.0098 27.5274 26.0234 27.668 23.6738C27.9141 19.4434 27.9141 19.3906 27.8086 19.1094C27.6621 18.7285 27.3985 18.4414 27.041 18.2773L26.7481 18.1367H16.8164H6.8848L6.59183 18.2773ZM17.625 21.8809C18.4219 22.291 18.8262 23.2695 18.5391 24.125C18.4043 24.541 17.8477 25.1035 17.4375 25.2441C16.0196 25.7246 14.6602 24.4355 15.0586 22.9883C15.1992 22.4902 15.75 21.9277 16.2539 21.7695C16.5703 21.6699 17.3438 21.7344 17.625 21.8809Z" fill="#FF4667"/>
</svg>
