<svg width="30" height="31" viewBox="0 0 30 31" fill="none" xmlns="http://www.w3.org/2000/svg">
<path d="M11.1093 1.47266C9.49213 1.68945 7.78705 2.30469 6.3808 3.17188C3.27533 5.09375 1.24799 8.28125 0.755802 12.0078C0.667912 12.7109 0.720646 14.8379 0.843693 15.5C1.22455 17.5273 1.98627 19.25 3.18158 20.8145C3.65619 21.4297 4.78705 22.5723 5.36127 23.0117C6.2519 23.6914 7.40619 24.3359 8.46088 24.7402C9.02338 24.957 10.33 25.3086 10.8281 25.373L11.1328 25.4141V24.418V23.4277L10.8749 23.041C10.7343 22.8301 10.6113 22.6367 10.5996 22.6074C10.5878 22.5781 10.2714 22.4609 9.90229 22.3379C8.53119 21.8867 7.33588 21.1719 6.31635 20.1934C3.66205 17.6504 2.74213 13.9414 3.90229 10.4668C4.81635 7.71875 7.05463 5.48633 9.80854 4.57227C12.1874 3.78125 14.6367 3.95703 16.9042 5.07617C17.8476 5.54492 18.5859 6.07812 19.3652 6.85742C20.1093 7.60742 20.5605 8.2168 21.0058 9.06641C21.6738 10.3496 22.0195 11.5742 22.0781 12.875L22.1074 13.625H22.4999C23.3378 13.625 23.9413 13.8418 24.4394 14.3223C24.6093 14.4863 24.7558 14.6094 24.7734 14.5977C24.8378 14.5273 24.8496 13.0918 24.791 12.4238C24.2871 6.73438 19.9628 2.19922 14.3378 1.4668C13.4999 1.36133 11.9179 1.36133 11.1093 1.47266Z" fill="#FF4667"/>
<path d="M12.4921 5.52149C12.4511 5.53907 12.3807 5.62696 12.3339 5.71485C12.2225 5.92579 12.2167 6.79297 12.3222 7.00391C12.4335 7.22071 12.6796 7.32032 12.9022 7.24414C13.1952 7.13868 13.2362 7.03321 13.2421 6.3711C13.2421 5.8086 13.2304 5.75586 13.0956 5.62696C12.9608 5.48633 12.6913 5.43946 12.4921 5.52149Z" fill="#392C7D"/>
<path d="M7.23047 7.71944C7.08398 7.78976 6.97266 8.00069 6.97266 8.21749C6.97266 8.33468 7.08398 8.48702 7.40039 8.80343C7.9043 9.30733 8.0918 9.35421 8.38477 9.06124C8.66602 8.77999 8.5957 8.52218 8.10352 8.05343C7.6875 7.64913 7.51172 7.57882 7.23047 7.71944Z" fill="#392C7D"/>
<path d="M17.4316 8.07031C17.0449 8.45703 16.9922 8.5332 16.9922 8.72656C16.9922 9.00781 17.2031 9.23047 17.4668 9.23047C17.6133 9.23047 17.7305 9.14844 18.082 8.80859C18.4688 8.43359 18.5156 8.36914 18.5156 8.16992C18.5156 7.88867 18.3633 7.71289 18.0879 7.66602C17.877 7.63086 17.8535 7.64844 17.4316 8.07031Z" fill="#392C7D"/>
<path d="M12.4922 9.44648C12.4511 9.46405 12.3808 9.55195 12.334 9.63984C12.2168 9.86835 12.2051 13.4543 12.3222 13.6769C12.3691 13.7648 12.8613 14.0871 13.7109 14.5734C14.8183 15.2062 15.0586 15.3234 15.1992 15.3C15.539 15.2297 15.709 14.925 15.5801 14.6144C15.5273 14.4855 15.2636 14.3039 14.3789 13.7941L13.2422 13.1437V11.4152V9.69257L13.0957 9.55195C12.9609 9.41132 12.6914 9.36445 12.4922 9.44648Z" fill="#392C7D"/>
<path d="M5.06247 13.0039C4.76364 13.1328 4.69918 13.5605 4.93942 13.7891C5.06247 13.9063 5.13864 13.918 5.68942 13.918C6.41012 13.918 6.56247 13.8418 6.56247 13.4727C6.56247 13.1914 6.48043 13.0625 6.26364 12.9863C6.00582 12.8984 5.28512 12.9102 5.06247 13.0039Z" fill="#392C7D"/>
<path d="M19.2421 12.9746C18.9316 13.1094 18.8378 13.4961 19.0488 13.7656C19.166 13.9121 19.1894 13.918 19.8046 13.918C20.5312 13.918 20.666 13.8594 20.7187 13.502C20.748 13.332 20.7246 13.2617 20.6074 13.1211C20.4667 12.957 20.4374 12.9512 19.9101 12.9395C19.6113 12.9277 19.3066 12.9453 19.2421 12.9746Z" fill="#392C7D"/>
<path d="M18.2109 14.5859C17.8535 14.6855 17.5605 14.9141 17.3613 15.2539C17.209 15.5059 17.1973 15.5879 17.1738 16.2441L17.1562 16.9648H17.8066H18.457V16.4785C18.457 16.2148 18.4805 15.9629 18.5039 15.9219C18.5449 15.8691 19.0312 15.8516 20.748 15.8633L22.9395 15.8809L22.957 16.4199L22.9746 16.9648H23.6133H24.2578V16.2734C24.2578 15.4941 24.1816 15.2539 23.8418 14.9316C23.4199 14.5332 23.4258 14.5332 20.8301 14.5215C19.0664 14.5098 18.416 14.5273 18.2109 14.5859Z" fill="#392C7D"/>
<path d="M7.40039 18.0957C7.05469 18.4473 6.97266 18.5586 6.97266 18.7109C6.97266 18.9863 7.18945 19.2031 7.46484 19.2031C7.66406 19.2031 7.73438 19.1562 8.09766 18.7988C8.53711 18.3594 8.60742 18.2246 8.49609 17.9551C8.4082 17.7441 8.2793 17.668 8.02148 17.668C7.86328 17.668 7.75781 17.7383 7.40039 18.0957Z" fill="#392C7D"/>
<path d="M12.1641 17.9367C12.1465 17.9894 12.1289 18.8215 12.1289 19.7941C12.1289 21.5285 12.1348 21.5695 12.2695 21.8566C12.791 22.9699 14.6953 23.591 18.5566 23.8957C18.7207 23.9133 18.7559 23.8898 18.8496 23.6789C19.002 23.3391 19.459 22.8996 19.8457 22.718C20.1387 22.5832 20.2559 22.5598 20.7422 22.5598C21.2051 22.5598 21.3457 22.5832 21.5801 22.7004C21.9609 22.8879 22.3887 23.2863 22.5645 23.6086L22.7051 23.8781H23.0273C23.4609 23.8781 24.7734 23.7258 25.6055 23.5852C26.959 23.3508 27.8379 23.0578 28.4883 22.6125C28.8633 22.3547 29.2031 21.9504 29.2734 21.6809C29.2852 21.6164 29.291 20.7316 29.2852 19.718L29.2676 17.8723L27.5859 17.8547L25.9102 17.843L25.8867 18.8801C25.8691 19.8117 25.8574 19.9465 25.7402 20.1574C25.5996 20.4269 25.4238 20.5969 25.1367 20.7492C24.9434 20.8547 24.7207 20.8605 20.7129 20.8605C16.0723 20.8605 16.3535 20.884 15.9727 20.5031C15.6211 20.1457 15.5859 19.9992 15.5859 18.8684V17.843H13.8926C12.4043 17.843 12.1934 17.8547 12.1641 17.9367Z" fill="#FF4667"/>
<path d="M16.4648 18.8105C16.4648 19.7012 16.4766 19.7891 16.582 19.8945C16.6992 20.0117 16.7754 20.0117 20.7129 20.0117H24.7324L24.873 19.8652C25.0137 19.7246 25.0195 19.7012 25.0195 18.7812V17.8438H20.7422H16.4648V18.8105Z" fill="#392C7D"/>
<path d="M20.1856 23.5213C19.3946 23.8846 19.2715 25.0037 19.9512 25.5662C20.5137 26.0233 21.4102 25.8768 21.7618 25.2674C22.1426 24.5994 21.9141 23.8494 21.2286 23.5037C20.9766 23.3807 20.4786 23.3865 20.1856 23.5213Z" fill="#392C7D"/>
<path d="M12.9609 26.3983L12.9785 29.1522L13.2012 29.369L13.418 29.5916L20.6543 29.6092C28.6406 29.6268 28.0898 29.6502 28.3711 29.2577L28.5059 29.0643L28.5234 26.3514C28.5293 24.8631 28.5293 23.6444 28.5176 23.6444C28.5059 23.6444 28.2715 23.7381 27.9844 23.8495C27.0234 24.2362 25.4297 24.5584 23.6484 24.7166L22.834 24.787L22.752 25.1092C22.4238 26.3924 21 27.078 19.834 26.5155C19.2656 26.2401 18.75 25.5721 18.6563 24.9862L18.6211 24.7752L18.041 24.7342C16.2598 24.617 14.0449 24.1659 13.2305 23.7557C13.1074 23.6913 12.9961 23.6444 12.9785 23.6444C12.9609 23.6444 12.9551 24.8807 12.9609 26.3983Z" fill="#FF4667"/>
</svg>
