<svg width="30" height="31" viewBox="0 0 30 31" fill="none" xmlns="http://www.w3.org/2000/svg">
<path d="M13.3009 1.0621C12.0294 1.23788 10.2482 1.72421 9.97863 1.98202C9.82042 2.12265 9.79699 2.45663 9.93175 2.64999C10.0724 2.84921 10.295 2.86093 10.7814 2.69687C12.2579 2.19296 13.2189 2.01718 14.7716 1.98202C16.4591 1.94101 17.5724 2.08749 19.0724 2.55038C19.7052 2.74374 19.922 2.74374 20.0685 2.5328C20.2032 2.33945 20.1798 2.00546 20.0275 1.85898C19.7814 1.63632 18.1935 1.22616 16.9161 1.05624C16.0489 0.944914 14.1505 0.950773 13.3009 1.0621Z" fill="#392C7D"/>
<path d="M4.37113 1.99414C3.47465 2.24023 2.59574 2.9668 2.21488 3.78125C2.09769 4.02148 1.97465 4.34961 1.93363 4.51367C1.83988 4.91797 1.8516 5.79102 1.96293 6.21289C2.0684 6.61133 2.42582 7.30273 2.61918 7.48438L2.75394 7.60742V7.46094C2.75394 7.23242 2.96488 6.68164 3.15824 6.39453C3.25785 6.25391 3.48636 6.00195 3.668 5.84375L3.99613 5.55078L3.82035 5.31055C3.18754 4.4375 3.64457 3.05469 4.66996 2.70312C5.27347 2.49805 5.95316 2.62695 6.41605 3.03125C7.08988 3.62891 7.22465 4.66602 6.71488 5.35742L6.57425 5.54492L6.99613 5.9668C7.45902 6.42383 7.71097 6.86328 7.77543 7.32617L7.81058 7.5957L7.94535 7.4668C8.12699 7.29688 8.46097 6.64062 8.58402 6.22461C8.71293 5.76758 8.71879 4.91797 8.58988 4.43164C8.29691 3.28906 7.30668 2.29883 6.15238 1.99414C5.75394 1.88867 4.76371 1.88867 4.37113 1.99414Z" fill="#FF4667"/>
<path d="M23.8243 1.99414C22.9336 2.24023 22.0606 2.95508 21.6563 3.78125C21.2813 4.54883 21.1993 5.41602 21.4278 6.24219C21.5333 6.63477 21.8731 7.29688 22.0547 7.4668L22.1895 7.5957L22.2247 7.32617C22.2891 6.86328 22.5411 6.42383 23.004 5.9668L23.4258 5.54492L23.2852 5.35742C22.6348 4.47266 23.0801 3.06055 24.1231 2.70312C24.7266 2.49805 25.4063 2.62695 25.8692 3.03125C26.5372 3.61719 26.6719 4.63086 26.1797 5.31055L26.004 5.55078L26.3321 5.84375C26.5137 6.00195 26.7422 6.25391 26.8418 6.39453C27.0352 6.68164 27.2461 7.22656 27.2461 7.4668L27.252 7.61914L27.4219 7.41992C27.6622 7.13867 27.9317 6.61133 28.0372 6.20703C28.1485 5.79102 28.1602 4.91797 28.0665 4.51367C27.7793 3.32422 26.7891 2.31055 25.6055 1.99414C25.2071 1.88867 24.2168 1.88867 23.8243 1.99414Z" fill="#392C7D"/>
<path d="M4.88677 3.5411C4.72271 3.61141 4.4649 3.92782 4.41802 4.10946C4.35943 4.33797 4.42974 4.6954 4.56451 4.88876C4.72271 5.10555 5.13872 5.27547 5.4024 5.22274C5.86529 5.13485 6.1524 4.79501 6.1524 4.33797C6.1524 4.09188 6.04693 3.86336 5.83599 3.67001C5.7188 3.55868 5.60747 3.52352 5.3438 3.50594C5.16216 3.50008 4.95708 3.5118 4.88677 3.5411Z" fill="#392C7D"/>
<path d="M24.3751 3.52881C24.3282 3.54639 24.2228 3.6167 24.1525 3.68701C23.6954 4.09717 23.7657 4.81787 24.2872 5.11084C24.586 5.28076 24.8087 5.28076 25.1368 5.11084C25.6935 4.82373 25.7696 4.12061 25.2892 3.66943C25.172 3.55811 25.0607 3.52295 24.797 3.50537C24.6153 3.49951 24.422 3.50537 24.3751 3.52881Z" fill="#FF4667"/>
<path d="M4.74023 6.20166C4.37695 6.33643 4.10742 6.53564 3.93164 6.7876C3.71484 7.11572 3.63867 7.36182 3.5918 7.86572L3.55664 8.28174L3.78516 8.39893C4.64648 8.83838 5.90039 8.83838 6.76172 8.39893L6.99023 8.28174L6.95508 7.82471C6.89648 7.07471 6.63867 6.63525 6.08789 6.33057C5.71875 6.13135 5.08594 6.07275 4.74023 6.20166Z" fill="#392C7D"/>
<path d="M24.1816 6.20678C23.4316 6.47631 23.0273 7.12671 23.0273 8.07006C23.0273 8.26342 23.0508 8.30444 23.25 8.40405C24.0996 8.83764 25.3594 8.83764 26.2148 8.39819L26.4434 8.281L26.4082 7.86499C26.3496 7.16772 26.1387 6.73413 25.7227 6.44702C25.2656 6.13061 24.6621 6.03686 24.1816 6.20678Z" fill="#FF4667"/>
<path d="M11.4962 11.1582C9.59192 11.9844 7.98645 12.6875 7.93957 12.7168C7.86926 12.7637 8.70715 13.1445 11.4259 14.3164L15.006 15.8574L16.3068 15.2949C17.0216 14.9844 17.6251 14.7148 17.6486 14.6914C17.672 14.668 17.0392 14.4102 16.2423 14.123C15.4454 13.8301 14.7482 13.5488 14.6954 13.4902C14.4493 13.25 14.6427 12.7812 14.9884 12.7871C15.0763 12.7871 15.9493 13.0859 16.9337 13.4492C17.9181 13.8125 18.7677 14.123 18.8204 14.1348C18.9435 14.1699 22.1603 12.793 22.1017 12.7344C22.0665 12.6992 15.1818 9.7168 15.0294 9.66992C15.0001 9.6582 13.4064 10.3262 11.4962 11.1582Z" fill="#392C7D"/>
<path d="M1.35942 10.4785C1.23052 10.6133 0.902391 11.6562 0.738329 12.4531C0.35161 14.334 0.375048 16.584 0.796923 18.4766C0.990282 19.3555 1.33013 20.3633 1.48247 20.5215C1.55864 20.6094 1.66997 20.6562 1.79888 20.6562C2.06841 20.6562 2.19731 20.5801 2.2852 20.3691C2.34966 20.2109 2.33208 20.123 2.15044 19.5605C1.64653 18.0254 1.51763 17.293 1.48247 15.7285C1.44145 14.041 1.58794 12.9277 2.05083 11.4277C2.24419 10.7949 2.24419 10.5781 2.03325 10.4316C1.83989 10.2969 1.50591 10.3203 1.35942 10.4785Z" fill="#392C7D"/>
<path d="M27.8497 10.4315C27.6387 10.578 27.6387 10.7948 27.8321 11.369C28.3009 12.7518 28.4825 13.7597 28.5176 15.2421C28.5645 16.9003 28.418 18.0136 27.9727 19.4901C27.7501 20.2225 27.7501 20.4159 27.9669 20.5682C28.1602 20.703 28.4942 20.6796 28.6407 20.5214C28.8634 20.2811 29.2735 18.6932 29.4434 17.4159C29.5606 16.5136 29.5606 14.7792 29.4434 13.8768C29.2676 12.5409 28.7872 10.7597 28.5176 10.4725C28.377 10.3202 28.043 10.2968 27.8497 10.4315Z" fill="#392C7D"/>
<path d="M10.7812 17.0938C10.7812 18.2305 10.8105 19.2676 10.8398 19.3906C10.9043 19.6719 11.0508 19.8828 11.3086 20.0527L11.502 20.1875H15H18.498L18.6914 20.0527C18.9492 19.8828 19.0957 19.6719 19.1602 19.3906C19.1895 19.2676 19.2188 18.2773 19.2188 17.1934V15.2246L19.0781 15.1602C18.9609 15.1074 18.6738 15.2188 16.9688 15.9453L15 16.7949L12.9492 15.9102C11.8242 15.4297 10.875 15.0312 10.8398 15.0312C10.7988 15.0312 10.7812 15.7285 10.7812 17.0938Z" fill="#FF4667"/>
<path d="M4.86323 21.3652C4.06636 21.4531 3.36909 21.8047 2.78315 22.4258C2.38472 22.8418 2.06245 23.4336 1.93354 23.9668C1.77534 24.6348 1.88667 25.666 2.17378 26.2402C2.3437 26.5684 2.63081 26.9844 2.6894 26.9844C2.7187 26.9844 2.75386 26.873 2.77729 26.7441C2.84761 26.2988 3.09956 25.8652 3.55659 25.4141L3.98433 24.9922L3.8144 24.7578C3.18745 23.8906 3.64448 22.502 4.66987 22.1562C5.27339 21.9512 5.95308 22.0801 6.41597 22.4844C7.08393 23.0762 7.22456 24.0781 6.72651 24.7637L6.55659 24.998L6.96675 25.3789C7.41206 25.7891 7.69331 26.2695 7.76948 26.7383C7.79292 26.873 7.82808 26.9844 7.85737 26.9844C7.998 26.9844 8.42573 26.2109 8.58393 25.6719C8.71284 25.2266 8.7187 24.3711 8.58979 23.8848C8.16206 22.2383 6.59761 21.1836 4.86323 21.3652Z" fill="#392C7D"/>
<path d="M24.3165 21.3652C22.465 21.5586 21.1114 23.2754 21.3282 25.1445C21.381 25.6309 21.4689 25.9238 21.6798 26.3457C21.8321 26.6504 22.0782 26.9844 22.1427 26.9844C22.172 26.9844 22.2071 26.873 22.2306 26.7383C22.3067 26.2695 22.588 25.7891 23.0333 25.3789L23.4493 24.998L23.297 24.7988C22.9689 24.3711 22.8868 23.7969 23.0685 23.2285C23.2032 22.8066 23.6954 22.3027 24.1056 22.1621C24.7267 21.9512 25.4005 22.0742 25.8692 22.4844C26.5314 23.0703 26.672 24.084 26.1857 24.7578L26.0157 24.9922L26.4435 25.4141C26.8946 25.8594 27.0821 26.1758 27.1993 26.6797C27.2403 26.8496 27.2931 26.9844 27.3165 26.9844C27.3692 26.9844 27.6681 26.5508 27.8263 26.2402C28.0255 25.8418 28.131 25.3555 28.131 24.7871C28.1368 23.7852 27.8321 23.0469 27.1349 22.3555C26.338 21.5586 25.4415 21.248 24.3165 21.3652Z" fill="#FF4667"/>
<path d="M4.74618 23.0938C4.38876 23.3984 4.29501 23.8379 4.50009 24.2305C4.61727 24.4531 5.02157 24.6992 5.27352 24.6992C5.52548 24.6992 5.92977 24.4531 6.04696 24.2305C6.25204 23.8379 6.15829 23.3984 5.80087 23.0938C5.64852 22.9648 5.55477 22.9414 5.27352 22.9414C4.99227 22.9414 4.89852 22.9648 4.74618 23.0938Z" fill="#FF4667"/>
<path d="M24.1993 23.0938C23.8419 23.3984 23.7481 23.8379 23.9532 24.2305C24.0704 24.4531 24.4747 24.6992 24.7266 24.6992C24.9786 24.6992 25.3829 24.4531 25.5001 24.2305C25.7052 23.8379 25.6114 23.3984 25.254 23.0938C25.1016 22.9648 25.0079 22.9414 24.7266 22.9414C24.4454 22.9414 24.3516 22.9648 24.1993 23.0938Z" fill="#392C7D"/>
<path d="M4.72852 25.6604C3.97852 25.9299 3.57422 26.5803 3.57422 27.5236C3.57422 27.7229 3.59766 27.758 3.80859 27.8635C4.62305 28.2795 5.93555 28.2736 6.76172 27.8518L6.99023 27.7346L6.95508 27.2776C6.89648 26.4983 6.62109 26.0588 6.02344 25.76C5.61914 25.5549 5.13281 25.5197 4.72852 25.6604Z" fill="#FF4667"/>
<path d="M23.9824 25.7549C23.373 26.0596 23.1152 26.4814 23.0508 27.2666L23.0098 27.7353L23.2383 27.8525C24.0703 28.2744 25.377 28.2803 26.2031 27.8584L26.4434 27.7353L26.4082 27.3193C26.3613 26.8096 26.2793 26.5459 26.0391 26.2119C25.7754 25.8369 25.3418 25.6201 24.7852 25.5908C24.3809 25.5732 24.3164 25.5849 23.9824 25.7549Z" fill="#392C7D"/>
<path d="M19.2775 28.2793C17.9357 28.7715 16.7814 28.9824 15.2286 29.0176C13.5411 29.0586 12.4278 28.9121 10.9278 28.4492C10.295 28.2559 10.0782 28.2559 9.93175 28.4668C9.79699 28.6602 9.82042 28.9941 9.97863 29.1406C10.2189 29.3633 11.8068 29.7734 13.0841 29.9434C13.9864 30.0605 15.7208 30.0605 16.6232 29.9434C17.9474 29.7676 19.7403 29.2812 20.0275 29.0176C20.1857 28.8711 20.2032 28.5195 20.0568 28.3379C19.9044 28.1621 19.6466 28.1445 19.2775 28.2793Z" fill="#392C7D"/>
</svg>
