<svg width="30" height="31" viewBox="0 0 30 31" fill="none" xmlns="http://www.w3.org/2000/svg">
<g clip-path="url(#clip0_414_51916)">
<path d="M22.5644 1.02275C21.6562 1.12822 21.5624 1.17509 21.5624 1.49736C21.5624 1.76689 21.7441 1.87236 22.1542 1.83134C22.3476 1.81376 22.4999 1.8079 22.4882 1.81962C22.4062 1.89579 21.0409 2.71025 20.4198 3.05009C16.6991 5.11259 11.9179 6.86454 8.02726 7.59697C7.25968 7.73759 7.13663 7.81376 7.16007 8.11259C7.18937 8.47001 7.34171 8.49345 8.26749 8.32353C12.9023 7.46806 18.9901 5.04228 22.8105 2.52861L22.9687 2.41728L22.8515 2.69853C22.787 2.84501 22.7343 3.03251 22.7343 3.10283C22.7343 3.40165 23.0859 3.57743 23.3085 3.38993C23.455 3.26689 24.3163 1.42704 24.3163 1.23368C24.3163 0.887981 24.0292 0.852825 22.5644 1.02275Z" fill="#FF4667"/>
<path d="M20.5078 7.38477V9.75781H22.1191H23.7305V7.38477V5.01172H22.1191H20.5078V7.38477Z" fill="#392C7D"/>
<path d="M15.9961 11.8379V16.7305H16.875H17.7539V16.3203C17.7539 15.8809 17.8535 15.5586 18.0586 15.3418C18.1758 15.2188 18.1758 15.2012 18.0879 15.1016C17.8594 14.8496 17.7539 14.4863 17.7539 13.918C17.7539 13.3496 17.8594 12.9863 18.0879 12.7344C18.1758 12.6348 18.1758 12.6172 18.0586 12.4941C17.8359 12.2598 17.7539 11.9609 17.7539 11.416C17.7539 10.7832 17.8242 10.5195 18.0586 10.25C18.2812 9.99805 18.5801 9.83984 18.9434 9.78711L19.2188 9.74609V8.3457V6.94531H17.6074H15.9961V11.8379Z" fill="#392C7D"/>
<path d="M11.543 12.8047V16.7305H13.125H14.707V12.8047V8.87891H13.125H11.543V12.8047Z" fill="#392C7D"/>
<path d="M18.8262 10.4688C18.4863 10.5684 18.3984 10.7559 18.3984 11.377C18.3984 11.8984 18.4043 11.9336 18.5684 12.1152L18.7383 12.3086L20.7422 12.3262L22.7402 12.3438L23.2148 11.8984C23.5312 11.5996 23.8184 11.3945 24.1055 11.2539C24.3398 11.1426 24.5625 11.0488 24.6035 11.0488C24.709 11.0488 24.6797 10.8438 24.5508 10.6797C24.4805 10.5918 24.3281 10.498 24.2109 10.4629C23.9355 10.3867 19.0898 10.3926 18.8262 10.4688Z" fill="#FF4667"/>
<path d="M7.03125 13.7422V16.7305H8.64258H10.2539V13.7422V10.7539H8.64258H7.03125V13.7422Z" fill="#392C7D"/>
<path d="M25.4004 11.5233C24.1699 11.6464 23.0859 12.5839 22.7637 13.8085C22.6523 14.2128 22.6523 15.0331 22.7637 15.4374C22.8867 15.912 23.1387 16.3691 23.4844 16.7382C24.1055 17.412 24.8379 17.7343 25.752 17.7343C26.6777 17.7401 27.3809 17.4589 27.9961 16.8378C28.6113 16.2284 28.9102 15.5019 28.9102 14.623C28.9102 13.7441 28.6113 13.0175 27.9961 12.4081C27.3105 11.7167 26.4258 11.4179 25.4004 11.5233ZM25.9629 12.3964C26.0273 12.4374 26.0859 12.5487 26.1094 12.6894C26.1328 12.83 26.1797 12.9237 26.2266 12.9237C26.3555 12.9237 26.7305 13.287 26.8125 13.4921C26.9238 13.7558 26.9121 13.9433 26.7773 14.0663C26.6074 14.2245 26.3555 14.1249 26.2734 13.873C26.1797 13.58 26.0508 13.4804 25.7695 13.4862C25.5937 13.4921 25.4941 13.5331 25.418 13.6269C25.1777 13.9257 25.3301 14.0898 25.9863 14.2421C26.6895 14.4003 27.0117 14.7226 27.0117 15.2616C27.0117 15.6952 26.7715 16.0585 26.3437 16.2812C26.2207 16.3398 26.1504 16.4394 26.1035 16.5917C25.9863 17.0194 25.4883 16.9784 25.4883 16.5507C25.4883 16.4101 25.4473 16.3632 25.2715 16.2929C24.9668 16.164 24.7441 15.9413 24.6328 15.6425C24.5156 15.3378 24.5625 15.1093 24.7559 15.0214C24.9375 14.9394 25.1953 15.0917 25.1953 15.2851C25.1953 15.4901 25.3535 15.6659 25.5879 15.7304C25.998 15.8476 26.3672 15.6366 26.3672 15.2851C26.3672 15.039 26.25 14.9628 25.6055 14.7929C24.9902 14.6288 24.7559 14.4355 24.6973 14.0253C24.627 13.5741 24.9434 13.0585 25.3887 12.9062C25.4473 12.8827 25.4883 12.8066 25.4883 12.7128C25.4883 12.537 25.6348 12.3378 25.7637 12.3378C25.8105 12.3378 25.8984 12.3671 25.9629 12.3964Z" fill="#392C7D"/>
<path d="M18.6973 13.0625C18.4688 13.1855 18.4043 13.3789 18.3984 13.9004C18.3984 14.8496 18.4043 14.8555 20.4375 14.8555H22.0137L22.043 14.3398C22.0664 14.0117 22.125 13.6777 22.2246 13.4023L22.3711 12.9805H20.6016C19.248 12.9863 18.8027 13.0039 18.6973 13.0625Z" fill="#FF4667"/>
<path d="M18.7734 15.5592C18.7031 15.5827 18.5918 15.6823 18.5215 15.7702C18.416 15.9049 18.3984 16.0045 18.3984 16.4674C18.3984 17.0944 18.4863 17.2702 18.8555 17.3756C19.084 17.4342 23.2031 17.4635 23.2031 17.3991C23.2031 17.3815 23.0742 17.2174 22.9102 17.0417C22.6113 16.7018 22.2363 16.0163 22.1719 15.6881L22.1367 15.5006L20.5137 15.5065C19.623 15.5065 18.8379 15.5299 18.7734 15.5592Z" fill="#FF4667"/>
<path d="M9.23438 18.0793C7.99219 18.22 7.06055 18.4895 6.15234 18.9641C5.47852 19.3157 5.10938 19.6262 4.39453 20.4231L3.85547 21.0266L6.78516 23.9563C9.53906 26.7102 9.72656 26.886 9.82617 26.7981C9.98438 26.6575 10.4824 26.4231 10.8691 26.3C11.3496 26.1594 12.5625 26.1653 14.0918 26.3293C16.9512 26.6282 18.1934 26.5403 19.8164 25.9016C20.6074 25.5911 23.1387 24.3313 24.2168 23.7102C27.6445 21.7415 29.4141 20.1829 29.4141 19.1399C29.4141 18.5188 29.127 18.2786 28.4648 18.3313C27.9785 18.3723 27.4336 18.5833 25.6934 19.4094C24.1406 20.1477 23.4961 20.4231 22.7871 20.6633C22.1836 20.8625 21.1055 21.1028 20.5195 21.1614L20.127 21.1965L19.9512 21.4895C19.5762 22.1165 18.7734 22.6848 17.9238 22.9192C17.2969 23.095 15.6914 23.0657 14.5137 22.8606C13.6113 22.7083 13.3008 22.6204 13.3008 22.5266C13.3008 22.5032 13.2832 22.4446 13.2656 22.3918C13.248 22.3391 13.2891 22.2454 13.3711 22.1633L13.5176 22.0227L14.209 22.1575C15.6563 22.4387 17.1504 22.4797 17.8711 22.2629C18.627 22.0403 19.2188 21.5891 19.4883 21.0325C19.623 20.7629 19.6406 20.6575 19.6172 20.3C19.5938 19.9016 19.5879 19.8723 19.3594 19.6614C19.0723 19.3918 18.7383 19.3098 17.9766 19.3098C17.1797 19.3098 16.3652 19.1692 14.6191 18.7239C12.4219 18.1614 11.8945 18.0735 10.6934 18.05C10.1484 18.0383 9.49219 18.05 9.23438 18.0793Z" fill="#FF4667"/>
<path d="M2.25586 21.2783C2.05078 21.3838 1.00195 22.3975 0.755859 22.7314C0.615234 22.9189 0.585938 23.0186 0.585938 23.2764C0.585938 23.4521 0.621094 23.6631 0.667969 23.751C0.773437 23.9443 6.77344 29.9326 6.95508 30.0264C7.11914 30.1084 7.55859 30.1084 7.76953 30.0264C7.98633 29.9502 9.28711 28.6611 9.4043 28.415C9.50391 28.1982 9.52148 27.8291 9.42773 27.5889C9.35156 27.3779 3.375 21.3896 3.12891 21.2725C2.88867 21.1611 2.47852 21.1611 2.25586 21.2783Z" fill="#392C7D"/>
</g>
<defs>
<clipPath id="clip0_414_51916">
<rect width="30" height="30" fill="white" transform="translate(0 0.5)"/>
</clipPath>
</defs>
</svg>
