<svg width="21" height="22" viewBox="0 0 21 22" fill="none" xmlns="http://www.w3.org/2000/svg">
<path d="M10.5174 0.5H10.4696C4.68552 0.5 -0.00341797 5.19031 -0.00341797 10.9761V11.0239C-0.00341797 16.8097 4.68552 21.5 10.4696 21.5H10.5174C16.3015 21.5 20.9904 16.8097 20.9904 11.0239V10.9761C20.9904 5.19031 16.3015 0.5 10.5174 0.5Z" fill="#007EBB"/>
<path d="M5.0032 7.48034C4.72664 7.22357 4.58911 6.90574 4.58911 6.52757C4.58911 6.1494 4.72738 5.81759 5.0032 5.56008C5.27975 5.30331 5.63574 5.17456 6.0719 5.17456C6.50806 5.17456 6.85009 5.30331 7.1259 5.56008C7.40246 5.81685 7.53999 6.13984 7.53999 6.52757C7.53999 6.9153 7.40172 7.22357 7.1259 7.48034C6.84935 7.73711 6.4985 7.86587 6.0719 7.86587C5.64531 7.86587 5.27975 7.73711 5.0032 7.48034ZM7.30757 8.95328V16.8256H4.82079V8.95328H7.30757Z" fill="#FEFFFC"/>
<path d="M15.5859 9.73115C16.128 10.3197 16.3986 11.1276 16.3986 12.1561V16.6868H14.0369V12.4754C14.0369 11.9567 13.9023 11.5536 13.6338 11.2666C13.3654 10.9797 13.0035 10.8355 12.5504 10.8355C12.0973 10.8355 11.7355 10.9789 11.467 11.2666C11.1985 11.5536 11.0639 11.9567 11.0639 12.4754V16.6868H8.68823V8.9314H11.0639V9.95996C11.3044 9.61711 11.6288 9.34636 12.0363 9.14697C12.4438 8.94759 12.902 8.84827 13.4117 8.84827C14.3193 8.84827 15.0445 9.14256 15.5859 9.73115Z" fill="#FEFFFC"/>
</svg>
