<svg width="23" height="14" viewBox="0 0 23 14" fill="none" xmlns="http://www.w3.org/2000/svg">
<path fill-rule="evenodd" clip-rule="evenodd" d="M11.5 12.2546C10.3084 13.2829 8.76276 13.9036 7.07377 13.9036C3.30511 13.9036 0.25 10.8131 0.25 7.00064C0.25 3.18823 3.30511 0.0976562 7.07377 0.0976562C8.76276 0.0976562 10.3084 0.718409 11.5 1.74669C12.6916 0.718409 14.2372 0.0976562 15.9262 0.0976562C19.6949 0.0976562 22.75 3.18823 22.75 7.00064C22.75 10.8131 19.6949 13.9036 15.9262 13.9036C14.2372 13.9036 12.6916 13.2829 11.5 12.2546Z" fill="#ED0006"/>
<path fill-rule="evenodd" clip-rule="evenodd" d="M11.5 12.2546C12.9672 10.9885 13.8975 9.10446 13.8975 7.00064C13.8975 4.89683 12.9672 3.01282 11.5 1.74669C12.6916 0.718409 14.2372 0.0976562 15.9262 0.0976562C19.6949 0.0976562 22.75 3.18823 22.75 7.00064C22.75 10.8131 19.6949 13.9036 15.9262 13.9036C14.2372 13.9036 12.6916 13.2829 11.5 12.2546Z" fill="#F9A000"/>
<path fill-rule="evenodd" clip-rule="evenodd" d="M11.5 12.2539C12.9672 10.9878 13.8976 9.10382 13.8976 7.00002C13.8976 4.89622 12.9672 3.01223 11.5 1.74609C10.0329 3.01223 9.10254 4.89622 9.10254 7.00002C9.10254 9.10382 10.0329 10.9878 11.5 12.2539Z" fill="#FF5E00"/>
</svg>
