<svg width="30" height="30" viewBox="0 0 30 30" fill="none" xmlns="http://www.w3.org/2000/svg">
<path d="M0.427734 6.94336C0.322266 6.99023 0.181641 7.11328 0.117188 7.21875C0 7.41211 0 7.5 0 13.3652C0 19.1602 0.00585938 19.3242 0.117188 19.7695C0.521484 21.2988 1.61719 22.4473 3.1875 22.9922C3.54492 23.1152 3.60352 23.1152 12.1816 23.1328L20.8184 23.1445L21.0176 22.9922C21.4102 22.6934 21.3926 23.0508 21.375 16.5352C21.3574 10.6875 21.3574 10.6289 21.2285 10.1895C21.0938 9.70898 20.7891 9.06445 20.543 8.73047C19.8867 7.85742 18.9316 7.21875 17.9121 6.97266C17.4434 6.86133 17.1973 6.85547 9.02344 6.85547C1.93359 6.86133 0.585938 6.87305 0.427734 6.94336Z" fill="#4A8CFF"/>
<path d="M29.2969 6.89713C29.25 6.91471 28.8457 7.19596 28.4004 7.52409C27.9551 7.84635 27.4629 8.20963 27.3047 8.32096C27.1523 8.43229 26.6719 8.78385 26.2383 9.0944C24.5449 10.3366 23.9414 10.776 23.1504 11.3561L22.3242 11.9596L22.3301 15.0182V18.0768L22.957 18.528C23.8594 19.1784 26.4609 21.071 26.8066 21.3288C27.8145 22.0788 29.0625 22.9694 29.2207 23.0514C29.4785 23.1803 29.7246 23.1686 29.8594 23.0221C29.9648 22.9049 29.9707 22.6764 29.9883 15.0299L30 7.16666L29.877 7.00846C29.7598 6.85612 29.5254 6.8151 29.2969 6.89713Z" fill="#4A8CFF"/>
</svg>
