<svg width="30" height="30" viewBox="0 0 30 30" fill="none" xmlns="http://www.w3.org/2000/svg">
<g clip-path="url(#clip0_1505_72220)">
<path d="M3.75 6.35742L0.0292969 10.0781H3.76758H7.5V6.35742C7.5 4.3125 7.49414 2.63672 7.48242 2.63672C7.47656 2.63672 5.79492 4.3125 3.75 6.35742Z" fill="#EC1515"/>
<path d="M20.3027 11.9539C18.3692 13.5945 16.7813 14.9597 16.7695 14.989C16.7578 15.0359 23.4375 20.3621 23.707 20.5261C23.7774 20.5671 23.7891 19.5886 23.8008 14.7664C23.8125 11.5789 23.8184 8.96558 23.8184 8.96558C23.8184 8.97144 22.2363 10.3132 20.3027 11.9539Z" fill="#159615"/>
<path d="M7.5 6.35547V10.1348H12.0703H16.6406L16.6523 12.5605L16.6699 14.9922L20.2441 11.9629L23.8184 8.93359V6.73633C23.8184 4.57422 23.8184 4.5332 23.6836 4.19922C23.4258 3.56055 22.8633 2.99805 22.2188 2.74023L21.8848 2.60547L14.6953 2.58789L7.5 2.57031V6.35547Z" fill="#ECC115"/>
<path d="M3.7207 6.3418L-0.0292969 10.1094L3.73828 6.35938C7.23633 2.87305 7.52344 2.58008 7.48242 2.58008C7.47656 2.58008 5.7832 4.27344 3.7207 6.3418Z" fill="#EC4040"/>
<path d="M28.7344 5.09961C28.6641 5.12891 28.4766 5.25195 28.3184 5.375C28.1602 5.49805 27.9258 5.67383 27.7969 5.76758C27.6738 5.86719 27.5449 5.97266 27.5098 6.00781C27.457 6.06641 27.0586 6.37695 26.6016 6.71094C26.4551 6.82227 25.957 7.22656 25.8164 7.35547C25.7812 7.38477 25.5293 7.58398 25.2539 7.79492C24.9785 8 24.5508 8.33984 24.3047 8.55078L23.8477 8.92578V14.7793C23.8477 17.9961 23.8301 20.627 23.8066 20.627C23.7773 20.627 22.166 19.3672 20.2148 17.8262L16.6699 15.0254L16.6523 17.4453L16.6406 19.8652L12.082 19.877L7.5293 19.8945L7.51172 23.6621L7.5 27.4297L14.6602 27.4062C22.3066 27.3887 21.9844 27.4004 22.5117 27.125C22.8047 26.9727 23.1973 26.5859 23.4316 26.2344C23.8184 25.6426 23.8477 25.4023 23.8477 22.8945C23.8477 21.7109 23.8711 20.7441 23.8945 20.7441C23.9238 20.7441 23.9941 20.791 24.0586 20.8438C24.1172 20.9023 24.4043 21.1309 24.6855 21.3594C24.9727 21.582 25.4707 21.9922 25.7988 22.2559C26.127 22.5254 26.4375 22.7773 26.4844 22.8125C26.5371 22.8535 26.9004 23.1465 27.2988 23.4688C28.5645 24.4941 28.6875 24.5762 29.0039 24.5762C29.3496 24.5762 29.6602 24.4297 29.8359 24.1836L29.9707 23.9961V14.7852V5.57422L29.7949 5.38672C29.502 5.08203 29.0742 4.95898 28.7344 5.09961Z" fill="#15C140"/>
<path d="M0.0117188 22.7168L0.0292969 25.5762L0.181641 25.8984C0.375 26.3145 0.861328 26.8418 1.25977 27.0703C1.82227 27.3926 2.10352 27.4219 4.93945 27.4219H7.5V23.6426V19.8633H3.75H-0.00585938L0.0117188 22.7168Z" fill="#156BEC"/>
<path d="M0 15V19.8633H3.75H7.5V15V10.1367H3.75H0V15Z" fill="#1596EC"/>
</g>
<defs>
<clipPath id="clip0_1505_72220">
<rect width="30" height="30" fill="white"/>
</clipPath>
</defs>
</svg>
