<svg width="24" height="24" viewBox="0 0 24 24" fill="none" xmlns="http://www.w3.org/2000/svg">
<path opacity="0.4" d="M21.6602 10.4395L20.6802 14.6195C19.8402 18.2295 18.1802 19.6895 15.0602 19.3895C14.5602 19.3495 14.0202 19.2595 13.4402 19.1195L11.7602 18.7195C7.59018 17.7295 6.30018 15.6695 7.28018 11.4895L8.26018 7.29952C8.46018 6.44952 8.70018 5.70952 9.00018 5.09952C10.1702 2.67952 12.1602 2.02952 15.5002 2.81952L17.1702 3.20952C21.3602 4.18952 22.6402 6.25952 21.6602 10.4395Z" fill="#392C7D"/>
<path d="M15.0599 19.3896C14.4399 19.8096 13.6599 20.1596 12.7099 20.4696L11.1299 20.9896C7.15985 22.2696 5.06985 21.1996 3.77985 17.2296L2.49985 13.2796C1.21985 9.30961 2.27985 7.20961 6.24985 5.92961L7.82985 5.40961C8.23985 5.27961 8.62985 5.16961 8.99985 5.09961C8.69985 5.70961 8.45985 6.44961 8.25985 7.29961L7.27985 11.4896C6.29985 15.6696 7.58985 17.7296 11.7599 18.7196L13.4399 19.1196C14.0199 19.2596 14.5599 19.3496 15.0599 19.3896Z" fill="#392C7D"/>
<path d="M17.4899 10.5098C17.4299 10.5098 17.3699 10.4998 17.2999 10.4898L12.4499 9.25978C12.0499 9.15978 11.8099 8.74978 11.9099 8.34978C12.0099 7.94978 12.4199 7.70978 12.8199 7.80978L17.6699 9.03978C18.0699 9.13978 18.3099 9.54978 18.2099 9.94978C18.1299 10.2798 17.8199 10.5098 17.4899 10.5098Z" fill="#392C7D"/>
<path d="M14.5601 13.8899C14.5001 13.8899 14.4401 13.8799 14.3701 13.8699L11.4601 13.1299C11.0601 13.0299 10.8201 12.6199 10.9201 12.2199C11.0201 11.8199 11.4301 11.5799 11.8301 11.6799L14.7401 12.4199C15.1401 12.5199 15.3801 12.9299 15.2801 13.3299C15.2001 13.6699 14.9001 13.8899 14.5601 13.8899Z" fill="#392C7D"/>
</svg>
