<svg width="25" height="24" viewBox="0 0 25 24" fill="none" xmlns="http://www.w3.org/2000/svg">
<path opacity="0.4" d="M18.03 7.77C17.96 7.76 17.89 7.76 17.82 7.77C16.27 7.72 15.04 6.45 15.04 4.89C15.04 3.3 16.33 2 17.93 2C19.52 2 20.82 3.29 20.82 4.89C20.81 6.45 19.58 7.72 18.03 7.77Z" fill="#FD3995"/>
<path opacity="0.4" d="M21.2896 14.7004C20.1696 15.4504 18.5996 15.7304 17.1496 15.5404C17.5296 14.7204 17.7296 13.8104 17.7396 12.8504C17.7396 11.8504 17.5196 10.9004 17.0996 10.0704C18.5796 9.8704 20.1496 10.1504 21.2796 10.9004C22.8596 11.9404 22.8596 13.6504 21.2896 14.7004Z" fill="#FD3995"/>
<path opacity="0.4" d="M6.94039 7.77C7.01039 7.76 7.08039 7.76 7.15039 7.77C8.70039 7.72 9.93039 6.45 9.93039 4.89C9.93039 3.3 8.64039 2 7.04039 2C5.45039 2 4.15039 3.29 4.15039 4.89C4.16039 6.45 5.39039 7.72 6.94039 7.77Z" fill="#FD3995"/>
<path opacity="0.4" d="M7.05012 12.8496C7.05012 13.8196 7.26012 14.7396 7.64012 15.5696C6.23012 15.7196 4.76012 15.4196 3.68012 14.7096C2.10012 13.6596 2.10012 11.9496 3.68012 10.8996C4.75012 10.1796 6.26012 9.88962 7.68012 10.0496C7.27012 10.8896 7.05012 11.8396 7.05012 12.8496Z" fill="#FD3995"/>
<path d="M12.6198 15.87C12.5398 15.86 12.4498 15.86 12.3598 15.87C10.5198 15.81 9.0498 14.3 9.0498 12.44C9.0498 10.54 10.5798 9 12.4898 9C14.3898 9 15.9298 10.54 15.9298 12.44C15.9298 14.3 14.4698 15.81 12.6198 15.87Z" fill="#FD3995"/>
<path d="M9.3698 17.9396C7.8598 18.9496 7.8598 20.6096 9.3698 21.6096C11.0898 22.7596 13.9098 22.7596 15.6298 21.6096C17.1398 20.5996 17.1398 18.9396 15.6298 17.9396C13.9198 16.7896 11.0998 16.7896 9.3698 17.9396Z" fill="#FD3995"/>
</svg>
