<svg width="25" height="24" viewBox="0 0 25 24" fill="none" xmlns="http://www.w3.org/2000/svg">
<path opacity="0.4" d="M4.68247 15.2998L9.21247 19.8298C11.0725 21.6898 14.0925 21.6898 15.9625 19.8298L20.3525 15.4398C22.2125 13.5798 22.2125 10.5598 20.3525 8.6898L15.8125 4.1698C14.8625 3.2198 13.5525 2.7098 12.2125 2.7798L7.21247 3.0198C5.21247 3.1098 3.62247 4.6998 3.52247 6.6898L3.28247 11.6898C3.22247 13.0398 3.73247 14.3498 4.68247 15.2998Z" fill="#FF6B84"/>
<path d="M10.0124 12.3811C11.603 12.3811 12.8924 11.0917 12.8924 9.50109C12.8924 7.91051 11.603 6.62109 10.0124 6.62109C8.42187 6.62109 7.13245 7.91051 7.13245 9.50109C7.13245 11.0917 8.42187 12.3811 10.0124 12.3811Z" fill="#FF4667"/>
</svg>
