<svg width="24" height="25" viewBox="0 0 24 25" fill="none" xmlns="http://www.w3.org/2000/svg">
<path d="M21.5508 11.2513L20.1909 9.67129C19.9309 9.37129 19.7208 8.81129 19.7208 8.41129V6.71129C19.7208 5.65129 18.8508 4.78129 17.7908 4.78129H16.0908C15.7008 4.78129 15.1308 4.57129 14.8308 4.31129L13.2508 2.95129C12.5609 2.36129 11.4308 2.36129 10.7308 2.95129L9.16085 4.32129C8.86085 4.57129 8.29085 4.78129 7.90085 4.78129H6.17085C5.11085 4.78129 4.24085 5.65129 4.24085 6.71129V8.42129C4.24085 8.81129 4.03085 9.37129 3.78085 9.67129L2.43085 11.2613C1.85085 11.9513 1.85085 13.0713 2.43085 13.7613L3.78085 15.3513C4.03085 15.6513 4.24085 16.2113 4.24085 16.6013V18.3113C4.24085 19.3713 5.11085 20.2413 6.17085 20.2413H7.90085C8.29085 20.2413 8.86085 20.4513 9.16085 20.7113L10.7408 22.0713C11.4308 22.6613 12.5609 22.6613 13.2608 22.0713L14.8408 20.7113C15.1409 20.4513 15.7009 20.2413 16.1009 20.2413H17.8008C18.8608 20.2413 19.7309 19.3713 19.7309 18.3113V16.6113C19.7309 16.2213 19.9408 15.6513 20.2008 15.3513L21.5609 13.7713C22.1409 13.0813 22.1409 11.9413 21.5508 11.2513ZM16.1508 10.6213L11.3208 15.4513C11.1808 15.5913 10.9908 15.6713 10.7908 15.6713C10.5908 15.6713 10.4009 15.5913 10.2608 15.4513L7.84085 13.0313C7.55085 12.7413 7.55085 12.2613 7.84085 11.9713C8.13085 11.6813 8.61085 11.6813 8.90085 11.9713L10.7908 13.8613L15.0908 9.56129C15.3808 9.27129 15.8608 9.27129 16.1508 9.56129C16.4408 9.85129 16.4408 10.3313 16.1508 10.6213Z" fill="#03C95A"/>
</svg>
