<svg width="21" height="29" viewBox="0 0 21 29" fill="none" xmlns="http://www.w3.org/2000/svg">
<path d="M18.9805 28.4805H2.98047C2.4502 28.4799 1.9418 28.2691 1.56684 27.8941C1.19188 27.5191 0.980998 27.0107 0.980469 26.4805V2.48047C0.980998 1.9502 1.19188 1.4418 1.56684 1.06684C1.9418 0.691882 2.4502 0.480998 2.98047 0.480469H18.9805C19.5107 0.480998 20.0191 0.691882 20.3941 1.06684C20.7691 1.4418 20.9799 1.9502 20.9805 2.48047V19.0985L15.9805 16.5985L10.9805 19.0985V2.48047H2.98047V26.4805H18.9805V22.4805H20.9805V26.4805C20.9797 27.0107 20.7687 27.5189 20.3938 27.8938C20.0189 28.2687 19.5107 28.4797 18.9805 28.4805ZM15.9805 14.3625L18.9805 15.8625V2.48047H12.9805V15.8625L15.9805 14.3625Z" fill="#392C7D"/>
</svg>
