<svg width="35" height="27" viewBox="0 0 35 27" fill="none" xmlns="http://www.w3.org/2000/svg">
<path d="M24.818 11.1543H10.1431C9.97498 11.1543 9.8374 11.2859 9.8374 11.4469V26.1481C9.8374 26.309 9.97498 26.4406 10.1431 26.4406H24.818C24.9861 26.4406 25.1237 26.309 25.1237 26.1481V11.4469C25.1237 11.2859 24.9861 11.1543 24.818 11.1543ZM12.2832 13.4948H22.6779V17.7735H12.2832V13.4948ZM22.6779 24.1001H12.2832V19.8214H22.6779V24.1001Z" fill="#392C7D"/>
<path d="M14.4897 22.5519C14.4897 22.8782 14.5948 23.1911 14.7817 23.4219C14.9687 23.6526 15.2223 23.7823 15.4867 23.7823C15.7511 23.7823 16.0047 23.6526 16.1916 23.4219C16.3786 23.1911 16.4836 22.8782 16.4836 22.5519C16.4836 22.2256 16.3786 21.9126 16.1916 21.6819C16.0047 21.4511 15.7511 21.3215 15.4867 21.3215C15.2223 21.3215 14.9687 21.4511 14.7817 21.6819C14.5948 21.9126 14.4897 22.2256 14.4897 22.5519ZM14.4897 15.7079C14.4897 16.0342 14.5948 16.3472 14.7817 16.5779C14.9687 16.8087 15.2223 16.9383 15.4867 16.9383C15.7511 16.9383 16.0047 16.8087 16.1916 16.5779C16.3786 16.3472 16.4836 16.0342 16.4836 15.7079C16.4836 15.3816 16.3786 15.0686 16.1916 14.8379C16.0047 14.6072 15.7511 14.4775 15.4867 14.4775C15.2223 14.4775 14.9687 14.6072 14.7817 14.8379C14.5948 15.0686 14.4897 15.3816 14.4897 15.7079Z" fill="#392C7D"/>
<path d="M28.8068 8.0832C27.0742 3.66402 22.6595 0.520508 17.4881 0.520508C12.3168 0.520508 7.90207 3.66036 6.16946 8.07955C2.91232 8.90929 0.513911 11.786 0.532826 15.2C0.555524 19.016 3.61974 22.1193 7.47837 22.452C7.65617 22.4666 7.80749 22.3313 7.80749 22.1595V19.9518C7.80749 19.8056 7.694 19.6813 7.54268 19.663C6.52128 19.5387 5.55662 19.1074 4.81516 18.402C3.90724 17.543 3.40789 16.3879 3.40789 15.1634C3.40789 14.1399 3.75214 13.175 4.39903 12.3708C5.03079 11.5886 5.91979 11.022 6.89958 10.7735L8.33332 10.4079L8.85916 9.06646C9.18449 8.23307 9.63845 7.45085 10.2097 6.74539C10.7733 6.04358 11.4429 5.4295 12.192 4.91776C13.7468 3.8614 15.5777 3.30215 17.4881 3.30215C19.3985 3.30215 21.2295 3.8614 22.7843 4.92142C23.5371 5.43315 24.2029 6.04723 24.7666 6.74904C25.3378 7.4545 25.7918 8.23672 26.1171 9.07012L26.6392 10.4079L28.0691 10.7735C30.1195 11.2998 31.5532 13.1019 31.5532 15.1598C31.5532 16.3879 31.0539 17.5393 30.146 18.3983C29.4083 19.1001 28.4474 19.5351 27.426 19.6594C27.2747 19.6776 27.165 19.8019 27.165 19.9481V22.1595C27.165 22.3313 27.3201 22.4666 27.4979 22.452C31.3452 22.1157 34.4018 19.016 34.4283 15.2073C34.451 11.7933 32.0564 8.9166 28.8068 8.0832Z" fill="#392C7D"/>
</svg>
