<svg width="33" height="27" viewBox="0 0 33 27" fill="none" xmlns="http://www.w3.org/2000/svg">
<path d="M27.3401 14.7867L27.3403 14.7869L31.936 19.3775C31.936 19.3775 31.9361 19.3776 31.9361 19.3776C32.3767 19.8183 32.3766 20.5286 31.9323 20.9694L31.9309 20.9708L27.223 25.6787C26.7821 26.1196 26.0655 26.1196 25.6246 25.6787L25.6244 25.6785L21.0287 21.0879C20.512 20.5711 20.2234 19.8739 20.2234 19.141V15.11C20.2234 14.4853 20.7274 13.9814 21.3521 13.9814H25.3881C26.1219 13.9814 26.8239 14.2705 27.3401 14.7867ZM21.2643 16.7336C21.2643 17.6867 22.0328 18.4551 22.9858 18.4551C23.9402 18.4551 24.7073 17.6802 24.7073 16.7336C24.7073 15.7806 23.9389 15.0121 22.9858 15.0121C22.0328 15.0121 21.2643 15.7806 21.2643 16.7336ZM17.61 6.96168C17.61 10.2838 14.9176 12.9763 11.5954 12.9763C8.27299 12.9763 5.58079 10.2836 5.58079 6.96677C5.58079 3.6446 8.27324 0.952148 11.5954 0.952148C14.9178 0.952148 17.61 3.64486 17.61 6.96168ZM17.5999 15.7965V19.1359C17.5999 20.5765 18.1615 21.9302 19.1765 22.9452L21.7843 25.5531C21.4476 25.8361 21.0204 26.0055 20.553 26.0055H2.6378C1.56522 26.0055 0.694821 25.1352 0.694821 24.0626V21.9453C0.694821 18.4451 3.53489 15.6046 7.03585 15.5999H7.77771C8.94788 16.1192 10.2357 16.4142 11.5954 16.4142C12.9544 16.4142 14.2471 16.1195 15.4135 15.5999H16.1556C16.6449 15.5999 17.1237 15.6763 17.5999 15.7965Z" fill="#392C7D" stroke="#392C7D"/>
<circle cx="11.3911" cy="6.9765" r="6.00433" fill="#392C7D" stroke="#392C7D"/>
</svg>
