<svg width="21" height="22" viewBox="0 0 21 22" fill="none" xmlns="http://www.w3.org/2000/svg">
<path d="M20.9836 11.0004C20.9836 16.3035 17.0537 20.6878 11.9485 21.3992C11.4711 21.4654 10.9828 21.5 10.487 21.5C9.91478 21.5 9.35285 21.4544 8.80563 21.3661C3.8078 20.5612 -0.00952148 16.2263 -0.00952148 11.0004C-0.00952148 5.20133 4.69042 0.5 10.4878 0.5C16.2851 0.5 20.985 5.20133 20.985 11.0004H20.9836Z" fill="#191919"/>
<path d="M4.24769 5.13086L9.08885 11.6053L4.21753 16.8695H5.31419L9.57944 12.2608L13.0253 16.8695H16.7566L11.6433 10.0308L16.1777 5.13086H15.0811L11.1534 9.3753L7.97969 5.13086H4.24842H4.24769ZM5.85993 5.93869H7.57369L15.1429 16.0616H13.4291L5.85993 5.93869Z" fill="white"/>
</svg>
