<svg width="116" height="116" viewBox="0 0 116 116" fill="none" xmlns="http://www.w3.org/2000/svg">
<path d="M111.761 26.8909C112.081 27.4454 112.393 28.0054 112.696 28.5706C112.146 28.2103 111.778 27.5941 111.761 26.8909Z" fill="#E9ECEF"/>
<path d="M100.458 12.6384C101.42 13.5412 102.353 14.4743 103.255 15.4363C102.906 16.0815 102.224 16.5197 101.439 16.5197C100.298 16.5197 99.3742 15.5954 99.3742 14.4553C99.3742 13.6702 99.8124 12.9875 100.458 12.6384Z" fill="#E9ECEF"/>
<path d="M87.3233 3.19757C87.8885 3.5008 88.4485 3.81255 89.003 4.13265C88.2998 4.11624 87.6836 3.74821 87.3233 3.19757Z" fill="#E9ECEF"/>
<path d="M27.1687 4.13265C27.7233 3.81255 28.2832 3.5008 28.8484 3.19756C28.4882 3.74821 27.8719 4.11624 27.1687 4.13265Z" fill="#E9ECEF"/>
<path d="M12.9163 15.4363C13.819 14.4743 14.7522 13.5412 15.7142 12.6384C16.3593 12.9875 16.7976 13.6702 16.7976 14.4553C16.7976 15.5954 15.8733 16.5197 14.7331 16.5197C13.9481 16.5197 13.2654 16.0815 12.9163 15.4363Z" fill="#E9ECEF"/>
<path d="M3.4754 28.5706C3.77863 28.0054 4.09038 27.4454 4.41048 26.8909C4.39407 27.5941 4.02604 28.2103 3.4754 28.5706Z" fill="#E9ECEF"/>
<path d="M112.696 87.0455C112.393 87.6107 112.081 88.1706 111.761 88.7252C111.778 88.022 112.146 87.4057 112.696 87.0455Z" fill="#E9ECEF"/>
<path d="M103.255 100.18C102.906 99.5346 102.224 99.0963 101.439 99.0963C100.298 99.0963 99.3742 100.021 99.3742 101.161C99.3742 101.946 99.8124 102.629 100.458 102.978C101.42 102.075 102.353 101.142 103.255 100.18Z" fill="#E9ECEF"/>
<path d="M89.003 111.483C88.2998 111.5 87.6836 111.868 87.3233 112.418C87.8885 112.115 88.4485 111.804 89.003 111.483Z" fill="#E9ECEF"/>
<path d="M28.8484 112.418C28.4882 111.868 27.8719 111.5 27.1687 111.483C27.7233 111.804 28.2832 112.115 28.8484 112.418Z" fill="#E9ECEF"/>
<path d="M15.7142 102.978C16.3593 102.629 16.7976 101.946 16.7976 101.161C16.7976 100.021 15.8733 99.0963 14.7331 99.0963C13.9481 99.0963 13.2654 99.5346 12.9163 100.18C13.819 101.142 14.7522 102.075 15.7142 102.978Z" fill="#E9ECEF"/>
<path d="M4.41048 88.7252C4.39407 88.022 4.02604 87.4057 3.4754 87.0455C3.77863 87.6107 4.09038 88.1706 4.41048 88.7252Z" fill="#E9ECEF"/>
<path d="M41.5705 2.06881C41.5705 3.20896 40.6463 4.13323 39.5061 4.13323C38.366 4.13323 37.4417 3.20896 37.4417 2.06881C37.4417 0.928665 38.366 0.00439453 39.5061 0.00439453C40.6463 0.00439453 41.5705 0.928665 41.5705 2.06881Z" fill="#E9ECEF"/>
<path d="M53.957 2.06881C53.957 3.20896 53.0328 4.13323 51.8926 4.13323C50.7525 4.13323 49.8282 3.20896 49.8282 2.06881C49.8282 0.928665 50.7525 0.00439453 51.8926 0.00439453C53.0328 0.00439453 53.957 0.928665 53.957 2.06881Z" fill="#E9ECEF"/>
<path d="M66.3435 2.06881C66.3435 3.20896 65.4193 4.13323 64.2791 4.13323C63.139 4.13323 62.2147 3.20896 62.2147 2.06881C62.2147 0.928665 63.139 0.00439453 64.2791 0.00439453C65.4193 0.00439453 66.3435 0.928665 66.3435 2.06881Z" fill="#E9ECEF"/>
<path d="M78.73 2.06881C78.73 3.20896 77.8057 4.13323 76.6656 4.13323C75.5255 4.13323 74.6012 3.20896 74.6012 2.06881C74.6012 0.928665 75.5255 0.00439453 76.6656 0.00439453C77.8057 0.00439453 78.73 0.928665 78.73 2.06881Z" fill="#E9ECEF"/>
<path d="M29.184 14.4553C29.184 15.5954 28.2598 16.5197 27.1196 16.5197C25.9795 16.5197 25.0552 15.5954 25.0552 14.4553C25.0552 13.3152 25.9795 12.3909 27.1196 12.3909C28.2598 12.3909 29.184 13.3152 29.184 14.4553Z" fill="#E9ECEF"/>
<path d="M41.5705 14.4553C41.5705 15.5954 40.6463 16.5197 39.5061 16.5197C38.366 16.5197 37.4417 15.5954 37.4417 14.4553C37.4417 13.3152 38.366 12.3909 39.5061 12.3909C40.6463 12.3909 41.5705 13.3152 41.5705 14.4553Z" fill="#E9ECEF"/>
<path d="M53.957 14.4553C53.957 15.5954 53.0328 16.5197 51.8926 16.5197C50.7525 16.5197 49.8282 15.5954 49.8282 14.4553C49.8282 13.3152 50.7525 12.3909 51.8926 12.3909C53.0328 12.3909 53.957 13.3152 53.957 14.4553Z" fill="#E9ECEF"/>
<path d="M66.3435 14.4553C66.3435 15.5954 65.4193 16.5197 64.2791 16.5197C63.139 16.5197 62.2147 15.5954 62.2147 14.4553C62.2147 13.3152 63.139 12.3909 64.2791 12.3909C65.4193 12.3909 66.3435 13.3152 66.3435 14.4553Z" fill="#E9ECEF"/>
<path d="M78.73 14.4553C78.73 15.5954 77.8057 16.5197 76.6656 16.5197C75.5255 16.5197 74.6012 15.5954 74.6012 14.4553C74.6012 13.3152 75.5255 12.3909 76.6656 12.3909C77.8057 12.3909 78.73 13.3152 78.73 14.4553Z" fill="#E9ECEF"/>
<path d="M91.1165 14.4553C91.1165 15.5954 90.1922 16.5197 89.0521 16.5197C87.9119 16.5197 86.9877 15.5954 86.9877 14.4553C86.9877 13.3152 87.9119 12.3909 89.0521 12.3909C90.1922 12.3909 91.1165 13.3152 91.1165 14.4553Z" fill="#E9ECEF"/>
<path d="M16.7976 26.8418C16.7976 27.9819 15.8733 28.9062 14.7331 28.9062C13.593 28.9062 12.6687 27.9819 12.6687 26.8418C12.6687 25.7016 13.593 24.7774 14.7331 24.7774C15.8733 24.7774 16.7976 25.7016 16.7976 26.8418Z" fill="#E9ECEF"/>
<path d="M29.184 26.8418C29.184 27.9819 28.2598 28.9062 27.1196 28.9062C25.9795 28.9062 25.0552 27.9819 25.0552 26.8418C25.0552 25.7016 25.9795 24.7774 27.1196 24.7774C28.2598 24.7774 29.184 25.7016 29.184 26.8418Z" fill="#E9ECEF"/>
<path d="M41.5705 26.8418C41.5705 27.9819 40.6463 28.9062 39.5061 28.9062C38.366 28.9062 37.4417 27.9819 37.4417 26.8418C37.4417 25.7016 38.366 24.7774 39.5061 24.7774C40.6463 24.7774 41.5705 25.7016 41.5705 26.8418Z" fill="#E9ECEF"/>
<path d="M53.957 26.8418C53.957 27.9819 53.0328 28.9062 51.8926 28.9062C50.7525 28.9062 49.8282 27.9819 49.8282 26.8418C49.8282 25.7016 50.7525 24.7774 51.8926 24.7774C53.0328 24.7774 53.957 25.7016 53.957 26.8418Z" fill="#E9ECEF"/>
<path d="M66.3435 26.8418C66.3435 27.9819 65.4193 28.9062 64.2791 28.9062C63.139 28.9062 62.2147 27.9819 62.2147 26.8418C62.2147 25.7016 63.139 24.7774 64.2791 24.7774C65.4193 24.7774 66.3435 25.7016 66.3435 26.8418Z" fill="#E9ECEF"/>
<path d="M78.73 26.8418C78.73 27.9819 77.8057 28.9062 76.6656 28.9062C75.5255 28.9062 74.6012 27.9819 74.6012 26.8418C74.6012 25.7016 75.5255 24.7774 76.6656 24.7774C77.8057 24.7774 78.73 25.7016 78.73 26.8418Z" fill="#E9ECEF"/>
<path d="M91.1165 26.8418C91.1165 27.9819 90.1922 28.9062 89.0521 28.9062C87.9119 28.9062 86.9877 27.9819 86.9877 26.8418C86.9877 25.7016 87.9119 24.7774 89.0521 24.7774C90.1922 24.7774 91.1165 25.7016 91.1165 26.8418Z" fill="#E9ECEF"/>
<path d="M103.503 26.8418C103.503 27.9819 102.579 28.9062 101.439 28.9062C100.298 28.9062 99.3742 27.9819 99.3742 26.8418C99.3742 25.7016 100.298 24.7774 101.439 24.7774C102.579 24.7774 103.503 25.7016 103.503 26.8418Z" fill="#E9ECEF"/>
<path d="M4.41106 39.2283C4.41106 40.3684 3.48679 41.2927 2.34664 41.2927C1.2065 41.2927 0.282227 40.3684 0.282227 39.2283C0.282227 38.0881 1.2065 37.1639 2.34664 37.1639C3.48679 37.1639 4.41106 38.0881 4.41106 39.2283Z" fill="#E9ECEF"/>
<path d="M16.7976 39.2283C16.7976 40.3684 15.8733 41.2927 14.7331 41.2927C13.593 41.2927 12.6687 40.3684 12.6687 39.2283C12.6687 38.0881 13.593 37.1639 14.7331 37.1639C15.8733 37.1639 16.7976 38.0881 16.7976 39.2283Z" fill="#E9ECEF"/>
<path d="M29.184 39.2283C29.184 40.3684 28.2598 41.2927 27.1196 41.2927C25.9795 41.2927 25.0552 40.3684 25.0552 39.2283C25.0552 38.0881 25.9795 37.1639 27.1196 37.1639C28.2598 37.1639 29.184 38.0881 29.184 39.2283Z" fill="#E9ECEF"/>
<path d="M41.5705 39.2283C41.5705 40.3684 40.6463 41.2927 39.5061 41.2927C38.366 41.2927 37.4417 40.3684 37.4417 39.2283C37.4417 38.0881 38.366 37.1639 39.5061 37.1639C40.6463 37.1639 41.5705 38.0881 41.5705 39.2283Z" fill="#E9ECEF"/>
<path d="M53.957 39.2283C53.957 40.3684 53.0328 41.2927 51.8926 41.2927C50.7525 41.2927 49.8282 40.3684 49.8282 39.2283C49.8282 38.0881 50.7525 37.1639 51.8926 37.1639C53.0328 37.1639 53.957 38.0881 53.957 39.2283Z" fill="#E9ECEF"/>
<path d="M66.3435 39.2283C66.3435 40.3684 65.4193 41.2927 64.2791 41.2927C63.139 41.2927 62.2147 40.3684 62.2147 39.2283C62.2147 38.0881 63.139 37.1639 64.2791 37.1639C65.4193 37.1639 66.3435 38.0881 66.3435 39.2283Z" fill="#E9ECEF"/>
<path d="M78.73 39.2283C78.73 40.3684 77.8057 41.2927 76.6656 41.2927C75.5255 41.2927 74.6012 40.3684 74.6012 39.2283C74.6012 38.0881 75.5255 37.1639 76.6656 37.1639C77.8057 37.1639 78.73 38.0881 78.73 39.2283Z" fill="#E9ECEF"/>
<path d="M91.1165 39.2283C91.1165 40.3684 90.1922 41.2927 89.0521 41.2927C87.9119 41.2927 86.9877 40.3684 86.9877 39.2283C86.9877 38.0881 87.9119 37.1639 89.0521 37.1639C90.1922 37.1639 91.1165 38.0881 91.1165 39.2283Z" fill="#E9ECEF"/>
<path d="M103.503 39.2283C103.503 40.3684 102.579 41.2927 101.439 41.2927C100.298 41.2927 99.3742 40.3684 99.3742 39.2283C99.3742 38.0881 100.298 37.1639 101.439 37.1639C102.579 37.1639 103.503 38.0881 103.503 39.2283Z" fill="#E9ECEF"/>
<path d="M115.889 39.2283C115.889 40.3684 114.965 41.2927 113.825 41.2927C112.685 41.2927 111.761 40.3684 111.761 39.2283C111.761 38.0881 112.685 37.1639 113.825 37.1639C114.965 37.1639 115.889 38.0881 115.889 39.2283Z" fill="#E9ECEF"/>
<path d="M4.41106 51.6148C4.41106 52.7549 3.48679 53.6792 2.34664 53.6792C1.2065 53.6792 0.282227 52.7549 0.282227 51.6148C0.282227 50.4746 1.2065 49.5504 2.34664 49.5504C3.48679 49.5504 4.41106 50.4746 4.41106 51.6148Z" fill="#E9ECEF"/>
<path d="M16.7976 51.6148C16.7976 52.7549 15.8733 53.6792 14.7331 53.6792C13.593 53.6792 12.6687 52.7549 12.6687 51.6148C12.6687 50.4746 13.593 49.5504 14.7331 49.5504C15.8733 49.5504 16.7976 50.4746 16.7976 51.6148Z" fill="#E9ECEF"/>
<path d="M29.184 51.6148C29.184 52.7549 28.2598 53.6792 27.1196 53.6792C25.9795 53.6792 25.0552 52.7549 25.0552 51.6148C25.0552 50.4746 25.9795 49.5504 27.1196 49.5504C28.2598 49.5504 29.184 50.4746 29.184 51.6148Z" fill="#E9ECEF"/>
<path d="M41.5705 51.6148C41.5705 52.7549 40.6463 53.6792 39.5061 53.6792C38.366 53.6792 37.4417 52.7549 37.4417 51.6148C37.4417 50.4746 38.366 49.5504 39.5061 49.5504C40.6463 49.5504 41.5705 50.4746 41.5705 51.6148Z" fill="#E9ECEF"/>
<path d="M53.957 51.6148C53.957 52.7549 53.0328 53.6792 51.8926 53.6792C50.7525 53.6792 49.8282 52.7549 49.8282 51.6148C49.8282 50.4746 50.7525 49.5504 51.8926 49.5504C53.0328 49.5504 53.957 50.4746 53.957 51.6148Z" fill="#E9ECEF"/>
<path d="M66.3435 51.6148C66.3435 52.7549 65.4193 53.6792 64.2791 53.6792C63.139 53.6792 62.2147 52.7549 62.2147 51.6148C62.2147 50.4746 63.139 49.5504 64.2791 49.5504C65.4193 49.5504 66.3435 50.4746 66.3435 51.6148Z" fill="#E9ECEF"/>
<path d="M78.73 51.6148C78.73 52.7549 77.8057 53.6792 76.6656 53.6792C75.5255 53.6792 74.6012 52.7549 74.6012 51.6148C74.6012 50.4746 75.5255 49.5504 76.6656 49.5504C77.8057 49.5504 78.73 50.4746 78.73 51.6148Z" fill="#E9ECEF"/>
<path d="M91.1165 51.6148C91.1165 52.7549 90.1922 53.6792 89.0521 53.6792C87.9119 53.6792 86.9877 52.7549 86.9877 51.6148C86.9877 50.4746 87.9119 49.5504 89.0521 49.5504C90.1922 49.5504 91.1165 50.4746 91.1165 51.6148Z" fill="#E9ECEF"/>
<path d="M103.503 51.6148C103.503 52.7549 102.579 53.6792 101.439 53.6792C100.298 53.6792 99.3742 52.7549 99.3742 51.6148C99.3742 50.4746 100.298 49.5504 101.439 49.5504C102.579 49.5504 103.503 50.4746 103.503 51.6148Z" fill="#E9ECEF"/>
<path d="M115.889 51.6148C115.889 52.7549 114.965 53.6792 113.825 53.6792C112.685 53.6792 111.761 52.7549 111.761 51.6148C111.761 50.4746 112.685 49.5504 113.825 49.5504C114.965 49.5504 115.889 50.4746 115.889 51.6148Z" fill="#E9ECEF"/>
<path d="M4.41106 64.0013C4.41106 65.1414 3.48679 66.0657 2.34664 66.0657C1.2065 66.0657 0.282227 65.1414 0.282227 64.0013C0.282227 62.8611 1.2065 61.9369 2.34664 61.9369C3.48679 61.9369 4.41106 62.8611 4.41106 64.0013Z" fill="#E9ECEF"/>
<path d="M16.7976 64.0013C16.7976 65.1414 15.8733 66.0657 14.7331 66.0657C13.593 66.0657 12.6687 65.1414 12.6687 64.0013C12.6687 62.8611 13.593 61.9369 14.7331 61.9369C15.8733 61.9369 16.7976 62.8611 16.7976 64.0013Z" fill="#E9ECEF"/>
<path d="M29.184 64.0013C29.184 65.1414 28.2598 66.0657 27.1196 66.0657C25.9795 66.0657 25.0552 65.1414 25.0552 64.0013C25.0552 62.8611 25.9795 61.9369 27.1196 61.9369C28.2598 61.9369 29.184 62.8611 29.184 64.0013Z" fill="#E9ECEF"/>
<path d="M41.5705 64.0013C41.5705 65.1414 40.6463 66.0657 39.5061 66.0657C38.366 66.0657 37.4417 65.1414 37.4417 64.0013C37.4417 62.8611 38.366 61.9369 39.5061 61.9369C40.6463 61.9369 41.5705 62.8611 41.5705 64.0013Z" fill="#E9ECEF"/>
<path d="M53.957 64.0013C53.957 65.1414 53.0328 66.0657 51.8926 66.0657C50.7525 66.0657 49.8282 65.1414 49.8282 64.0013C49.8282 62.8611 50.7525 61.9369 51.8926 61.9369C53.0328 61.9369 53.957 62.8611 53.957 64.0013Z" fill="#E9ECEF"/>
<path d="M66.3435 64.0013C66.3435 65.1414 65.4193 66.0657 64.2791 66.0657C63.139 66.0657 62.2147 65.1414 62.2147 64.0013C62.2147 62.8611 63.139 61.9369 64.2791 61.9369C65.4193 61.9369 66.3435 62.8611 66.3435 64.0013Z" fill="#E9ECEF"/>
<path d="M78.73 64.0013C78.73 65.1414 77.8057 66.0657 76.6656 66.0657C75.5255 66.0657 74.6012 65.1414 74.6012 64.0013C74.6012 62.8611 75.5255 61.9369 76.6656 61.9369C77.8057 61.9369 78.73 62.8611 78.73 64.0013Z" fill="#E9ECEF"/>
<path d="M91.1165 64.0013C91.1165 65.1414 90.1922 66.0657 89.0521 66.0657C87.9119 66.0657 86.9877 65.1414 86.9877 64.0013C86.9877 62.8611 87.9119 61.9369 89.0521 61.9369C90.1922 61.9369 91.1165 62.8611 91.1165 64.0013Z" fill="#E9ECEF"/>
<path d="M103.503 64.0013C103.503 65.1414 102.579 66.0657 101.439 66.0657C100.298 66.0657 99.3742 65.1414 99.3742 64.0013C99.3742 62.8611 100.298 61.9369 101.439 61.9369C102.579 61.9369 103.503 62.8611 103.503 64.0013Z" fill="#E9ECEF"/>
<path d="M115.889 64.0013C115.889 65.1414 114.965 66.0657 113.825 66.0657C112.685 66.0657 111.761 65.1414 111.761 64.0013C111.761 62.8611 112.685 61.9369 113.825 61.9369C114.965 61.9369 115.889 62.8611 115.889 64.0013Z" fill="#E9ECEF"/>
<path d="M4.41106 76.3878C4.41106 77.5279 3.48679 78.4522 2.34664 78.4522C1.2065 78.4522 0.282227 77.5279 0.282227 76.3878C0.282227 75.2476 1.2065 74.3233 2.34664 74.3233C3.48679 74.3233 4.41106 75.2476 4.41106 76.3878Z" fill="#E9ECEF"/>
<path d="M16.7976 76.3878C16.7976 77.5279 15.8733 78.4522 14.7331 78.4522C13.593 78.4522 12.6687 77.5279 12.6687 76.3878C12.6687 75.2476 13.593 74.3233 14.7331 74.3233C15.8733 74.3233 16.7976 75.2476 16.7976 76.3878Z" fill="#E9ECEF"/>
<path d="M29.184 76.3878C29.184 77.5279 28.2598 78.4522 27.1196 78.4522C25.9795 78.4522 25.0552 77.5279 25.0552 76.3878C25.0552 75.2476 25.9795 74.3233 27.1196 74.3233C28.2598 74.3233 29.184 75.2476 29.184 76.3878Z" fill="#E9ECEF"/>
<path d="M41.5705 76.3878C41.5705 77.5279 40.6463 78.4522 39.5061 78.4522C38.366 78.4522 37.4417 77.5279 37.4417 76.3878C37.4417 75.2476 38.366 74.3233 39.5061 74.3233C40.6463 74.3233 41.5705 75.2476 41.5705 76.3878Z" fill="#E9ECEF"/>
<path d="M53.957 76.3878C53.957 77.5279 53.0328 78.4522 51.8926 78.4522C50.7525 78.4522 49.8282 77.5279 49.8282 76.3878C49.8282 75.2476 50.7525 74.3233 51.8926 74.3233C53.0328 74.3233 53.957 75.2476 53.957 76.3878Z" fill="#E9ECEF"/>
<path d="M66.3435 76.3878C66.3435 77.5279 65.4193 78.4522 64.2791 78.4522C63.139 78.4522 62.2147 77.5279 62.2147 76.3878C62.2147 75.2476 63.139 74.3233 64.2791 74.3233C65.4193 74.3233 66.3435 75.2476 66.3435 76.3878Z" fill="#E9ECEF"/>
<path d="M78.73 76.3878C78.73 77.5279 77.8057 78.4522 76.6656 78.4522C75.5255 78.4522 74.6012 77.5279 74.6012 76.3878C74.6012 75.2476 75.5255 74.3233 76.6656 74.3233C77.8057 74.3233 78.73 75.2476 78.73 76.3878Z" fill="#E9ECEF"/>
<path d="M91.1165 76.3878C91.1165 77.5279 90.1922 78.4522 89.0521 78.4522C87.9119 78.4522 86.9877 77.5279 86.9877 76.3878C86.9877 75.2476 87.9119 74.3233 89.0521 74.3233C90.1922 74.3233 91.1165 75.2476 91.1165 76.3878Z" fill="#E9ECEF"/>
<path d="M103.503 76.3878C103.503 77.5279 102.579 78.4522 101.439 78.4522C100.298 78.4522 99.3742 77.5279 99.3742 76.3878C99.3742 75.2476 100.298 74.3233 101.439 74.3233C102.579 74.3233 103.503 75.2476 103.503 76.3878Z" fill="#E9ECEF"/>
<path d="M115.889 76.3878C115.889 77.5279 114.965 78.4522 113.825 78.4522C112.685 78.4522 111.761 77.5279 111.761 76.3878C111.761 75.2476 112.685 74.3233 113.825 74.3233C114.965 74.3233 115.889 75.2476 115.889 76.3878Z" fill="#E9ECEF"/>
<path d="M16.7976 88.7743C16.7976 89.9144 15.8733 90.8387 14.7331 90.8387C13.593 90.8387 12.6687 89.9144 12.6687 88.7743C12.6687 87.6341 13.593 86.7098 14.7331 86.7098C15.8733 86.7098 16.7976 87.6341 16.7976 88.7743Z" fill="#E9ECEF"/>
<path d="M29.184 88.7743C29.184 89.9144 28.2598 90.8387 27.1196 90.8387C25.9795 90.8387 25.0552 89.9144 25.0552 88.7743C25.0552 87.6341 25.9795 86.7098 27.1196 86.7098C28.2598 86.7098 29.184 87.6341 29.184 88.7743Z" fill="#E9ECEF"/>
<path d="M41.5705 88.7743C41.5705 89.9144 40.6463 90.8387 39.5061 90.8387C38.366 90.8387 37.4417 89.9144 37.4417 88.7743C37.4417 87.6341 38.366 86.7098 39.5061 86.7098C40.6463 86.7098 41.5705 87.6341 41.5705 88.7743Z" fill="#E9ECEF"/>
<path d="M53.957 88.7743C53.957 89.9144 53.0328 90.8387 51.8926 90.8387C50.7525 90.8387 49.8282 89.9144 49.8282 88.7743C49.8282 87.6341 50.7525 86.7098 51.8926 86.7098C53.0328 86.7098 53.957 87.6341 53.957 88.7743Z" fill="#E9ECEF"/>
<path d="M66.3435 88.7743C66.3435 89.9144 65.4193 90.8387 64.2791 90.8387C63.139 90.8387 62.2147 89.9144 62.2147 88.7743C62.2147 87.6341 63.139 86.7098 64.2791 86.7098C65.4193 86.7098 66.3435 87.6341 66.3435 88.7743Z" fill="#E9ECEF"/>
<path d="M78.73 88.7743C78.73 89.9144 77.8057 90.8387 76.6656 90.8387C75.5255 90.8387 74.6012 89.9144 74.6012 88.7743C74.6012 87.6341 75.5255 86.7098 76.6656 86.7098C77.8057 86.7098 78.73 87.6341 78.73 88.7743Z" fill="#E9ECEF"/>
<path d="M91.1165 88.7743C91.1165 89.9144 90.1922 90.8387 89.0521 90.8387C87.9119 90.8387 86.9877 89.9144 86.9877 88.7743C86.9877 87.6341 87.9119 86.7098 89.0521 86.7098C90.1922 86.7098 91.1165 87.6341 91.1165 88.7743Z" fill="#E9ECEF"/>
<path d="M103.503 88.7743C103.503 89.9144 102.579 90.8387 101.439 90.8387C100.298 90.8387 99.3742 89.9144 99.3742 88.7743C99.3742 87.6341 100.298 86.7098 101.439 86.7098C102.579 86.7098 103.503 87.6341 103.503 88.7743Z" fill="#E9ECEF"/>
<path d="M29.184 101.161C29.184 102.301 28.2598 103.225 27.1196 103.225C25.9795 103.225 25.0552 102.301 25.0552 101.161C25.0552 100.021 25.9795 99.0963 27.1196 99.0963C28.2598 99.0963 29.184 100.021 29.184 101.161Z" fill="#E9ECEF"/>
<path d="M41.5705 101.161C41.5705 102.301 40.6463 103.225 39.5061 103.225C38.366 103.225 37.4417 102.301 37.4417 101.161C37.4417 100.021 38.366 99.0963 39.5061 99.0963C40.6463 99.0963 41.5705 100.021 41.5705 101.161Z" fill="#E9ECEF"/>
<path d="M53.957 101.161C53.957 102.301 53.0328 103.225 51.8926 103.225C50.7525 103.225 49.8282 102.301 49.8282 101.161C49.8282 100.021 50.7525 99.0963 51.8926 99.0963C53.0328 99.0963 53.957 100.021 53.957 101.161Z" fill="#E9ECEF"/>
<path d="M66.3435 101.161C66.3435 102.301 65.4193 103.225 64.2791 103.225C63.139 103.225 62.2147 102.301 62.2147 101.161C62.2147 100.021 63.139 99.0963 64.2791 99.0963C65.4193 99.0963 66.3435 100.021 66.3435 101.161Z" fill="#E9ECEF"/>
<path d="M78.73 101.161C78.73 102.301 77.8057 103.225 76.6656 103.225C75.5255 103.225 74.6012 102.301 74.6012 101.161C74.6012 100.021 75.5255 99.0963 76.6656 99.0963C77.8057 99.0963 78.73 100.021 78.73 101.161Z" fill="#E9ECEF"/>
<path d="M91.1165 101.161C91.1165 102.301 90.1922 103.225 89.0521 103.225C87.9119 103.225 86.9877 102.301 86.9877 101.161C86.9877 100.021 87.9119 99.0963 89.0521 99.0963C90.1922 99.0963 91.1165 100.021 91.1165 101.161Z" fill="#E9ECEF"/>
<path d="M41.5705 113.547C41.5705 114.687 40.6463 115.612 39.5061 115.612C38.366 115.612 37.4417 114.687 37.4417 113.547C37.4417 112.407 38.366 111.483 39.5061 111.483C40.6463 111.483 41.5705 112.407 41.5705 113.547Z" fill="#E9ECEF"/>
<path d="M53.957 113.547C53.957 114.687 53.0328 115.612 51.8926 115.612C50.7525 115.612 49.8282 114.687 49.8282 113.547C49.8282 112.407 50.7525 111.483 51.8926 111.483C53.0328 111.483 53.957 112.407 53.957 113.547Z" fill="#E9ECEF"/>
<path d="M66.3435 113.547C66.3435 114.687 65.4193 115.612 64.2791 115.612C63.139 115.612 62.2147 114.687 62.2147 113.547C62.2147 112.407 63.139 111.483 64.2791 111.483C65.4193 111.483 66.3435 112.407 66.3435 113.547Z" fill="#E9ECEF"/>
<path d="M78.73 113.547C78.73 114.687 77.8057 115.612 76.6656 115.612C75.5255 115.612 74.6012 114.687 74.6012 113.547C74.6012 112.407 75.5255 111.483 76.6656 111.483C77.8057 111.483 78.73 112.407 78.73 113.547Z" fill="#E9ECEF"/>
</svg>
