<svg width="36" height="36" viewBox="0 0 36 36" fill="none" xmlns="http://www.w3.org/2000/svg">
<path d="M10.5 12H6C4.35 12 3 10.65 3 9V6C3 4.35 4.35 3 6 3H10.5C12.15 3 13.5 4.35 13.5 6V9C13.5 10.65 12.15 12 10.5 12Z" fill="#FF4667"/>
<path d="M31.2 10.5H25.8C24.81 10.5 24 9.69 24 8.7V6.3C24 5.31 24.81 4.5 25.8 4.5H31.2C32.19 4.5 33 5.31 33 6.3V8.7C33 9.69 32.19 10.5 31.2 10.5Z" fill="#FF4667"/>
<path d="M31.2 21.75H25.8C24.81 21.75 24 20.94 24 19.95V17.55C24 16.56 24.81 15.75 25.8 15.75H31.2C32.19 15.75 33 16.56 33 17.55V19.95C33 20.94 32.19 21.75 31.2 21.75Z" fill="#FF7E93"/>
<path opacity="0.96" d="M24 19.875C24.615 19.875 25.125 19.365 25.125 18.75C25.125 18.135 24.615 17.625 24 17.625H19.875V8.625H24C24.615 8.625 25.125 8.115 25.125 7.5C25.125 6.885 24.615 6.375 24 6.375H13.5C12.885 6.375 12.375 6.885 12.375 7.5C12.375 8.115 12.885 8.625 13.5 8.625H17.625V27C17.625 29.28 19.47 31.125 21.75 31.125H24C24.615 31.125 25.125 30.615 25.125 30C25.125 29.385 24.615 28.875 24 28.875H21.75C20.715 28.875 19.875 28.035 19.875 27V19.875H24Z" fill="#FF7E93"/>
<path d="M31.2 33H25.8C24.81 33 24 32.19 24 31.2V28.8C24 27.81 24.81 27 25.8 27H31.2C32.19 27 33 27.81 33 28.8V31.2C33 32.19 32.19 33 31.2 33Z" fill="#FF7E93"/>
</svg>
