<svg width="205" height="210" viewBox="0 0 205 210" fill="none" xmlns="http://www.w3.org/2000/svg">
<g filter="url(#filter0_d_199_10261)">
<rect x="70.5044" y="45.9517" width="64.1987" height="68.1136" rx="10" fill="white"/>
</g>
<g clip-path="url(#clip0_199_10261)">
<path d="M104.27 85.1171C103.402 85.1171 102.884 84.2569 103.152 83.5203L108.249 69.5009C108.474 68.8833 109.157 68.5648 109.775 68.7891C110.392 69.0138 110.711 69.6967 110.486 70.3143L105.388 84.3334C105.212 84.8168 104.756 85.1171 104.27 85.1171Z" fill="#3AB4FB"/>
<path d="M117.015 85.117C116.53 85.117 116.075 84.8186 115.898 84.3371L110.749 70.3177C110.522 69.7007 110.839 69.0172 111.456 68.7907C112.072 68.5638 112.756 68.8805 112.983 69.4972L118.132 83.5166C118.422 84.3061 117.827 85.117 117.015 85.117Z" fill="#1D9CFD"/>
<path d="M119.564 49.6006H101.721C99.6561 49.6006 97.9822 51.2745 97.9822 53.3391V67.3591C97.9822 69.4238 99.6561 71.0976 101.721 71.0976H119.564C121.629 71.0976 123.303 69.4238 123.303 67.3591V53.3391C123.303 51.2745 121.629 49.6006 119.564 49.6006Z" fill="#EFF6FE"/>
<path d="M119.564 49.6006H110.486V71.0976H119.564C121.629 71.0976 123.303 69.4238 123.303 67.3591V53.3391C123.303 51.2745 121.629 49.6006 119.564 49.6006Z" fill="#D9E4EF"/>
<path d="M95.4333 57.1632C95.4333 60.0254 93.113 62.3457 90.2508 62.3457C87.3886 62.3457 85.0684 60.0254 85.0684 57.1632C85.0684 54.3007 87.3886 51.9805 90.2508 51.9805C93.113 51.9805 95.4333 54.3007 95.4333 57.1632Z" fill="#FFCFBE"/>
<path d="M101.826 69.6977C101.238 69.4037 101 68.6891 101.294 68.1013L104.48 61.7287C104.774 61.1409 105.489 60.9029 106.077 61.1966C106.665 61.4907 106.903 62.2053 106.609 62.7931L103.423 69.1654C103.128 69.7541 102.413 69.9912 101.826 69.6977Z" fill="#FFB826"/>
<path d="M95.4336 57.1631C95.4336 60.0253 93.1134 62.3455 90.2502 62.3455V51.98C93.1134 51.98 95.4336 54.3002 95.4336 57.1631Z" fill="#F9BCAA"/>
<path d="M117.015 61.5389H111.676C111.019 61.5389 110.486 61.0063 110.486 60.3491C110.486 59.6918 111.019 59.1592 111.676 59.1592H117.015C117.672 59.1592 118.205 59.6918 118.205 60.3491C118.205 61.0063 117.672 61.5389 117.015 61.5389Z" fill="#1D9CFD"/>
<path d="M117.015 66.6366H111.676C111.019 66.6366 110.486 66.1036 110.486 65.4467C110.486 64.7895 111.019 64.2568 111.676 64.2568H117.015C117.672 64.2568 118.205 64.7895 118.205 65.4467C118.205 66.1036 117.672 66.6366 117.015 66.6366Z" fill="#1D9CFD"/>
<path d="M94.0741 85.1167H86.4273C85.7701 85.1167 85.2374 84.5841 85.2374 83.9269V77.2756C83.7572 76.7777 82.6885 75.3768 82.6885 73.7308V69.9074C82.6885 67.8843 83.4758 65.9849 84.9052 64.5592C86.3077 63.153 88.2567 62.3452 90.251 62.3452H91.3024C93.3896 62.3452 94.6129 63.1096 96.3274 63.9621C98.2154 64.901 100.571 66.0722 102.073 66.8206C103.459 67.5094 104.123 69.1247 103.624 70.5869C103.623 70.5916 103.621 70.5962 103.619 70.6009C103.319 71.489 102.646 72.2044 101.773 72.5639C100.896 72.9205 99.9144 72.8827 99.0734 72.4622C97.8742 71.8623 96.3922 71.1215 95.2643 70.5578V83.9269C95.264 84.5841 94.7313 85.1167 94.0741 85.1167Z" fill="#FF7579"/>
<path d="M102.073 66.8206C100.571 66.0722 98.2153 64.901 96.327 63.9621C94.6128 63.1096 93.3895 62.3452 91.3022 62.3452H90.2506C90.2506 62.3452 90.2506 62.3452 90.2502 62.3452V85.1167H94.074C94.7312 85.1167 95.2638 84.5841 95.2638 83.9269V70.5578C96.392 71.1215 97.8741 71.8623 99.0733 72.4622C99.9139 72.8827 100.896 72.9202 101.772 72.5639C102.646 72.2044 103.319 71.489 103.619 70.6006C103.621 70.5959 103.622 70.5913 103.624 70.5866C104.123 69.1247 103.459 67.5094 102.073 66.8206Z" fill="#FE4A60"/>
</g>
<defs>
<filter id="filter0_d_199_10261" x="0.504395" y="0.95166" width="204.199" height="208.114" filterUnits="userSpaceOnUse" color-interpolation-filters="sRGB">
<feFlood flood-opacity="0" result="BackgroundImageFix"/>
<feColorMatrix in="SourceAlpha" type="matrix" values="0 0 0 0 0 0 0 0 0 0 0 0 0 0 0 0 0 0 127 0" result="hardAlpha"/>
<feOffset dy="25"/>
<feGaussianBlur stdDeviation="35"/>
<feColorMatrix type="matrix" values="0 0 0 0 0.0392157 0 0 0 0 0.0117647 0 0 0 0 0.235294 0 0 0 0.15 0"/>
<feBlend mode="normal" in2="BackgroundImageFix" result="effect1_dropShadow_199_10261"/>
<feBlend mode="normal" in="SourceGraphic" in2="effect1_dropShadow_199_10261" result="shape"/>
</filter>
<clipPath id="clip0_199_10261">
<rect width="40.1242" height="42.571" fill="white" transform="translate(82.5413 58.7236)"/>
</clipPath>
</defs>
</svg>
