<svg width="36" height="36" viewBox="0 0 36 36" fill="none" xmlns="http://www.w3.org/2000/svg">
<path d="M18 21C10.485 21 4.36499 26.04 4.36499 32.25C4.36499 32.67 4.69499 33 5.11499 33H30.885C31.305 33 31.635 32.67 31.635 32.25C31.635 26.04 25.515 21 18 21Z" fill="#FF4667"/>
<path d="M23.565 5.49C22.215 3.96 20.205 3 18 3C15.9 3 13.98 3.855 12.615 5.265C11.31 6.615 10.5 8.475 10.5 10.5C10.5 11.91 10.89 13.23 11.595 14.355C11.97 15 12.45 15.585 13.02 16.065C14.325 17.265 16.065 18 18 18C20.745 18 23.115 16.53 24.42 14.355C24.81 13.71 25.11 12.99 25.275 12.24C25.425 11.685 25.5 11.1 25.5 10.5C25.5 8.58 24.765 6.825 23.565 5.49ZM20.805 11.88H15.195C14.415 11.88 13.785 11.25 13.785 10.47C13.785 9.69 14.415 9.06 15.195 9.06H20.805C21.585 9.06 22.215 9.69 22.215 10.47C22.215 11.25 21.585 11.88 20.805 11.88Z" fill="#FFB5C1"/>
</svg>
