<svg width="36" height="36" viewBox="0 0 36 36" fill="none" xmlns="http://www.w3.org/2000/svg">
<path d="M16.875 11.79H3V24.285C3 24.375 3 24.465 3.015 24.54H16.875V11.79Z" fill="#FFB5C1"/>
<path d="M11.535 9.54H16.875V3H11.58V9.36C11.58 9.42 11.55 9.48 11.535 9.54Z" fill="#FF4667"/>
<path d="M9.32995 9.36023V3.24023C5.99995 3.93023 3.82495 6.15023 3.19495 9.54023H9.35995C9.34495 9.48023 9.32995 9.42023 9.32995 9.36023Z" fill="#FFB5C1"/>
<path d="M24.33 3H19.125V9.54H24.33V3Z" fill="#FFB5C1"/>
<path d="M26.5649 9.5401H32.8049C32.1749 6.1201 29.9699 3.8851 26.5799 3.2251V9.4951C26.5799 9.5101 26.5649 9.5251 26.5649 9.5401Z" fill="#FFB5C1"/>
<path d="M26.58 32.775C29.865 32.13 32.025 30.03 32.73 26.79H26.58V32.775Z" fill="#FFB5C1"/>
<path d="M24.33 26.79H19.125V33H24.33V26.79Z" fill="#FFB5C1"/>
<path d="M19.125 24.54H32.985C33 24.465 33 24.375 33 24.285V11.79H19.125V24.54Z" fill="#FFB5C1"/>
<path d="M16.875 26.79H11.58V33H16.875V26.79Z" fill="#FFB5C1"/>
<path d="M3.27002 26.79C3.97502 30 6.10502 32.1 9.33002 32.76V26.79H3.27002Z" fill="#FFB5C1"/>
</svg>
