<svg width="99" height="87" viewBox="0 0 99 87" fill="none" xmlns="http://www.w3.org/2000/svg">
<path d="M85.4165 34.6854V51.5819C85.4165 54.0498 84.2569 56.3435 82.3476 57.637C80.7425 58.7246 78.5816 60.1102 76.0278 61.554V34.6854H85.4165Z" fill="#FF4667"/>
<path d="M75.5474 34.6855V61.6726C68.6647 65.5896 58.9454 69.9332 49.7197 69.9332C37.0754 69.9332 23.5039 61.7707 17.5723 57.7397C15.6629 56.4412 14.5034 54.1381 14.5034 51.6602V34.6855H75.5474Z" fill="#FF4667"/>
<path d="M84.9481 34.3332V50.8354C84.9481 53.2537 83.7883 55.5002 81.8794 56.7661C75.9482 60.6994 62.3775 68.6634 49.732 68.6634C37.0864 68.6634 23.5159 60.6994 17.5845 56.7661C15.6756 55.5002 14.5159 53.2537 14.5159 50.8354V34.3332H84.9481ZM86.8646 32.4147H84.9481H14.5161H12.5996V34.3332V50.8354C12.5996 53.9198 14.0674 56.7349 16.5261 58.3654C19.651 60.4378 24.5909 63.4356 30.3774 65.9495C37.4527 69.0233 43.9644 70.5818 49.732 70.5818C55.4995 70.5818 62.0112 69.0233 69.0866 65.9495C74.8731 63.4356 79.8129 60.4375 82.9378 58.3654C85.3965 56.7349 86.8646 53.9198 86.8646 50.8354V34.3332V32.4147Z" fill="#FF4667"/>
<path d="M74.6606 65.5865C72.8665 65.8036 71.214 66.6705 70.0142 68.0235C68.8147 69.3765 68.1513 71.1222 68.1494 72.9311V79.4579C68.1494 82.1039 69.5595 84.5492 71.8493 85.8723C74.1386 87.1955 76.9592 87.1955 79.2485 85.8723C81.5381 84.5492 82.9484 82.1039 82.9484 79.4579V72.9311C82.9465 71.1222 82.2829 69.3765 81.0836 68.0235C79.8841 66.6705 78.2313 65.8036 76.4372 65.5865" fill="#392C7D"/>
<path d="M81.1732 73.8026H69.9272V73.0112C69.9272 69.9026 72.4449 67.3827 75.5501 67.3827C78.6556 67.3827 81.173 69.9028 81.173 73.0112V73.8026H81.1732Z" fill="white"/>
<path d="M75.5493 36.752V75.0505" stroke="#392C7D" stroke-miterlimit="10" stroke-linecap="round"/>
<path d="M94.475 32.145L51.8836 52.4422C50.4494 53.1257 48.7834 53.124 47.3506 52.4375L4.52657 31.9201C0.556471 30.0179 0.53539 24.3679 4.49112 22.436L47.2919 1.53396C48.7575 0.818141 50.4721 0.823177 51.9337 1.54763L94.5483 22.67C98.4842 24.6209 98.4406 30.2554 94.475 32.145Z" fill="#392C7D"/>
<path d="M49.5988 1.88441C50.1857 1.88441 50.7724 2.01585 51.3121 2.27872L94.9358 23.5174C97.8243 24.9237 97.7924 28.9853 94.8822 30.3477L51.2757 50.7601C50.7508 51.0058 50.1833 51.1287 49.616 51.1287C49.0458 51.1287 48.4761 51.0048 47.9491 50.7568L4.11077 30.126C1.19716 28.7549 1.18183 24.682 4.08466 23.2894L47.9055 2.26883C48.44 2.01255 49.0195 1.88441 49.5988 1.88441ZM49.5988 0C48.7255 0 47.8497 0.199041 47.0653 0.575216L3.2445 21.5958C1.23477 22.5599 -0.00834269 24.5244 4.21511e-05 26.7228C0.00842699 28.9212 1.26639 30.8765 3.28331 31.8258L47.1214 52.4563C47.8954 52.8205 48.7579 53.0129 49.6158 53.0129C50.4696 53.0129 51.3284 52.8221 52.0994 52.4612L95.7058 32.0489C97.7203 31.1057 98.9826 29.1572 98.9998 26.9633C99.0171 24.7696 97.7857 22.8021 95.786 21.8285L52.1626 0.590056C51.3699 0.203987 50.4832 0 49.5988 0Z" fill="#392C7D"/>
</svg>
