<svg width="50" height="41" viewBox="0 0 50 41" fill="none" xmlns="http://www.w3.org/2000/svg">
<path d="M7.30787 28.9443C8.22356 27.4918 9.82047 26.6108 11.5375 26.6108H35.8212C37.2852 26.6108 38.6757 27.2525 39.6257 28.3665L42.9726 32.2915C45.7406 35.5373 43.4339 40.5358 39.1681 40.5358H9.06299C5.12703 40.5358 2.7343 36.1987 4.8334 32.8692L7.30787 28.9443Z" fill="#7B1FFE"/>
<path d="M14.4577 6.50349L14.4576 6.5036L14.4622 6.5056L17.8705 8.01117C17.205 9.03954 16.8581 10.2108 16.8581 11.4398C16.8581 14.9056 19.6608 17.7533 23.1424 17.7533C26.6237 17.7533 29.4268 14.9363 29.4268 11.4398C29.4268 10.2409 29.0801 9.04208 28.4422 8.03945L31.2882 6.69386V12.4227L30.3578 14.4128L30.3577 14.4127L30.3555 14.4181C30.2868 14.5908 30.2802 14.7827 30.3986 14.9414C30.5043 15.083 30.6834 15.1948 30.8728 15.1948H32.6614C32.8319 15.1948 33.0284 15.1265 33.1131 14.9308C33.2235 14.7742 33.2156 14.5869 33.1485 14.4181L33.1482 14.4174L32.337 12.4253V6.14C32.337 6.01638 32.3304 5.8849 32.2541 5.76034C32.178 5.63604 32.0426 5.53403 31.8218 5.43899L31.822 5.43867L31.8141 5.43601C31.8163 5.43676 31.8107 5.4346 31.7896 5.42553L31.7127 5.39212C31.6468 5.36331 31.5528 5.32189 31.4345 5.26964C31.1979 5.16516 30.8648 5.01754 30.4677 4.84122C29.6734 4.48859 28.6228 4.02126 27.575 3.55487C26.5273 3.08848 25.4824 2.62304 24.6994 2.2742L23.7537 1.85284L23.489 1.73486L23.4193 1.70378L23.4014 1.69581L23.3974 1.69402C23.2493 1.62036 23.0963 1.62035 22.9482 1.694L14.4635 5.46924C14.272 5.54723 14.1297 5.76811 14.1297 5.98771C14.1297 6.2096 14.2432 6.39575 14.4577 6.50349ZM28.287 11.4398C28.287 14.309 25.9667 16.6395 23.1121 16.6395C20.2575 16.6395 17.9373 14.309 17.9373 11.4398C17.9373 10.3628 18.276 9.34141 18.8728 8.45853L22.9177 10.2813C22.999 10.3215 23.0795 10.3215 23.1368 10.3214C23.1387 10.3214 23.1406 10.3214 23.1424 10.3214C23.1443 10.3214 23.1462 10.3214 23.1481 10.3214C23.2054 10.3215 23.2858 10.3215 23.3672 10.2814L27.353 8.4882C27.9757 9.3696 28.287 10.3901 28.287 11.4398ZM31.8167 14.081H31.7268L31.7752 13.9767L31.8167 14.081ZM16.0514 5.98771L23.1728 2.80773L30.2941 5.98771L23.1728 9.1677L16.0514 5.98771Z" fill="white" stroke="white" stroke-width="0.2" stroke-linecap="round" stroke-linejoin="round"/>
<path d="M23.294 18.65C17.3268 18.65 12.4624 23.5381 12.4624 29.5323C12.4624 29.8307 12.7189 30.0891 13.0171 30.0891H33.5709C33.8691 30.0891 34.1256 29.8307 34.1256 29.5323C34.1256 23.5381 29.2612 18.65 23.294 18.65ZM33.0108 28.9754H13.6074C13.8996 23.8385 18.1387 19.7638 23.3243 19.7638C28.5091 19.7638 32.7188 23.8676 33.0108 28.9754Z" fill="white" stroke="white" stroke-width="0.2" stroke-linecap="round" stroke-linejoin="round"/>
</svg>
