<svg width="150" height="150" viewBox="0 0 150 150" fill="none" xmlns="http://www.w3.org/2000/svg">
<mask id="mask0_3001_17344" style="mask-type:alpha" maskUnits="userSpaceOnUse" x="37" y="46" width="64" height="64">
<circle cx="68.9359" cy="77.9359" r="31.9359" fill="#D9D9D9"/>
</mask>
<g mask="url(#mask0_3001_17344)">
<path d="M106.891 89.0915C106.311 89.0915 105.875 88.9906 105.585 88.7889C105.294 88.6096 105.104 88.3631 105.015 88.0493C104.926 87.7356 104.881 87.3994 104.881 87.0408V67.6098C104.881 67.2513 104.915 66.9263 104.982 66.6349C105.071 66.3212 105.261 66.0746 105.551 65.8953C105.842 65.6936 106.3 65.5928 106.925 65.5928L113.224 65.6264C114.855 65.6264 116.352 65.9066 117.714 66.4668C119.099 67.0271 120.294 67.8228 121.3 68.8537C122.305 69.8846 123.075 71.1173 123.612 72.5516C124.17 73.9636 124.449 75.5212 124.449 77.2245C124.449 78.9726 124.17 80.575 123.612 82.0318C123.053 83.4886 122.271 84.7436 121.266 85.797C120.261 86.8503 119.066 87.6684 117.681 88.2511C116.318 88.8113 114.799 89.0915 113.124 89.0915H106.891ZM108.935 85.0238H113.224C114.654 85.0238 115.905 84.71 116.977 84.0825C118.049 83.4325 118.876 82.5361 119.457 81.3931C120.06 80.2501 120.361 78.9166 120.361 77.3926C120.361 75.8462 120.06 74.5015 119.457 73.3585C118.876 72.193 118.038 71.2966 116.944 70.669C115.871 70.0191 114.62 69.6941 113.191 69.6941H108.935V85.0238Z" fill="white"/>
<path d="M127.924 89.1251C127.32 89.1251 126.874 89.0243 126.583 88.8226C126.315 88.6433 126.148 88.3967 126.081 88.083C126.014 87.7692 125.98 87.4218 125.98 87.0408V74.5687C125.98 74.1653 126.014 73.8179 126.081 73.5265C126.148 73.2128 126.315 72.9775 126.583 72.8206C126.874 72.6413 127.332 72.5516 127.957 72.5516C128.56 72.5516 128.996 72.6301 129.264 72.787C129.554 72.9438 129.733 73.1455 129.8 73.3921C129.889 73.6162 129.934 73.8403 129.934 74.0644L129.666 74.6695C129.778 74.4902 129.934 74.2773 130.135 74.0308C130.336 73.7619 130.604 73.5041 130.939 73.2576C131.274 72.9887 131.676 72.7758 132.145 72.6189C132.615 72.4396 133.173 72.3499 133.821 72.3499C134.089 72.3499 134.368 72.3835 134.658 72.4508C134.971 72.4956 135.273 72.574 135.563 72.6861C135.876 72.7758 136.155 72.899 136.401 73.0559C136.647 73.2128 136.836 73.4033 136.97 73.6274C137.104 73.8291 137.172 74.0644 137.172 74.3334C137.172 75.0505 136.993 75.6557 136.635 76.1487C136.278 76.6418 135.854 76.8883 135.362 76.8883C135.027 76.8883 134.781 76.8547 134.625 76.7875C134.469 76.7202 134.335 76.6418 134.223 76.5521C134.134 76.4625 133.988 76.384 133.787 76.3168C133.609 76.2496 133.318 76.216 132.916 76.216C132.581 76.216 132.235 76.272 131.877 76.384C131.542 76.4961 131.23 76.6642 130.939 76.8883C130.649 77.1124 130.414 77.4038 130.236 77.7624C130.057 78.0985 129.967 78.4907 129.967 78.939V87.1081C129.967 87.4891 129.934 87.8364 129.867 88.1502C129.8 88.4416 129.621 88.6769 129.331 88.8562C129.04 89.0355 128.571 89.1251 127.924 89.1251Z" fill="white"/>
<path d="M145.138 89.3268C143.686 89.3268 142.413 89.0915 141.319 88.6208C140.246 88.1502 139.342 87.5115 138.604 86.7046C137.89 85.8754 137.342 84.9565 136.963 83.948C136.605 82.9171 136.426 81.8525 136.426 80.7543C136.426 79.1407 136.795 77.7063 137.532 76.4513C138.269 75.1962 139.286 74.2101 140.581 73.4929C141.899 72.7758 143.407 72.4172 145.105 72.4172C146.311 72.4172 147.372 72.6077 148.288 72.9887C149.204 73.3697 149.963 73.8739 150.567 74.5015C151.192 75.1066 151.661 75.7789 151.974 76.5185C152.309 77.2581 152.476 77.9753 152.476 78.67C152.476 79.8579 152.186 80.7207 151.605 81.2586C151.047 81.7965 150.343 82.0654 149.494 82.0654H140.648C140.671 82.8274 140.905 83.4886 141.352 84.0489C141.821 84.6091 142.402 85.0462 143.094 85.3599C143.809 85.6513 144.535 85.797 145.272 85.797C145.831 85.797 146.322 85.7634 146.747 85.6961C147.193 85.6289 147.573 85.5504 147.886 85.4608C148.199 85.3487 148.467 85.2367 148.69 85.1246C148.936 85.0126 149.159 84.9117 149.36 84.8221C149.561 84.7324 149.751 84.6764 149.93 84.654C150.176 84.6316 150.421 84.6876 150.667 84.8221C150.913 84.9565 151.114 85.1919 151.27 85.528C151.404 85.7521 151.494 85.9651 151.538 86.1668C151.605 86.3461 151.639 86.5254 151.639 86.7046C151.639 87.1529 151.371 87.5787 150.835 87.9821C150.298 88.3631 149.539 88.6769 148.556 88.9234C147.596 89.1923 146.456 89.3268 145.138 89.3268ZM140.648 79.6786H147.517C147.897 79.6786 148.188 79.6225 148.389 79.5105C148.59 79.376 148.69 79.1071 148.69 78.7037C148.69 78.1882 148.534 77.7287 148.221 77.3253C147.908 76.8995 147.484 76.5745 146.948 76.3504C146.412 76.1039 145.786 75.9806 145.071 75.9806C144.245 75.9806 143.497 76.1487 142.826 76.4849C142.156 76.7987 141.62 77.2357 141.218 77.796C140.838 78.3563 140.648 78.9838 140.648 79.6786Z" fill="white"/>
<path d="M167.289 89.0579C166.641 89.0579 166.161 88.9346 165.848 88.6881C165.535 88.4416 165.379 88.1054 165.379 87.6796L165.613 86.5702C165.435 86.8615 165.133 87.2089 164.709 87.6123C164.284 87.9933 163.726 88.3407 163.033 88.6545C162.341 88.9458 161.503 89.0915 160.52 89.0915C159.47 89.0915 158.476 88.8786 157.538 88.4528C156.622 88.0045 155.807 87.3994 155.092 86.6374C154.4 85.853 153.841 84.9677 153.417 83.9816C153.015 82.9731 152.814 81.8973 152.814 80.7543C152.814 79.6562 153.015 78.6252 153.417 77.6615C153.841 76.6754 154.411 75.8013 155.126 75.0393C155.84 74.2773 156.656 73.6834 157.572 73.2576C158.51 72.8094 159.493 72.5853 160.52 72.5853C161.436 72.5853 162.207 72.7085 162.832 72.955C163.48 73.2016 164.027 73.5153 164.474 73.8963C164.921 74.2549 165.289 74.6359 165.58 75.0393L165.379 74.0644C165.379 73.5714 165.535 73.2016 165.848 72.955C166.161 72.6861 166.652 72.5516 167.322 72.5516C167.948 72.5516 168.394 72.6525 168.663 72.8542C168.931 73.0335 169.098 73.2912 169.165 73.6274C169.232 73.9412 169.266 74.2997 169.266 74.7032V87.0072C169.266 87.3882 169.232 87.7356 169.165 88.0493C169.098 88.3631 168.919 88.6096 168.629 88.7889C168.361 88.9682 167.914 89.0579 167.289 89.0579ZM161.123 85.1582C161.883 85.1582 162.564 84.9677 163.167 84.5867C163.77 84.2057 164.251 83.6903 164.608 83.0403C164.988 82.368 165.178 81.6284 165.178 80.8216C165.178 79.9475 164.988 79.1855 164.608 78.5356C164.228 77.8856 163.726 77.3814 163.1 77.0228C162.497 76.6418 161.816 76.4513 161.056 76.4513C160.23 76.4513 159.493 76.653 158.845 77.0564C158.197 77.4374 157.683 77.9641 157.304 78.6364C156.946 79.2864 156.767 80.0259 156.767 80.8552C156.767 81.662 156.957 82.3904 157.337 83.0403C157.717 83.6903 158.231 84.2057 158.878 84.5867C159.549 84.9677 160.297 85.1582 161.123 85.1582Z" fill="white"/>
<path d="M172.896 89.0915C172.293 89.0915 171.846 89.0018 171.555 88.8226C171.287 88.6433 171.12 88.3967 171.053 88.083C170.986 87.7692 170.952 87.433 170.952 87.0744V74.5015C170.952 74.1429 170.986 73.8179 171.053 73.5265C171.12 73.2352 171.298 72.9999 171.589 72.8206C171.879 72.6413 172.337 72.5516 172.963 72.5516C173.61 72.5516 174.08 72.6861 174.37 72.955C174.683 73.224 174.839 73.6498 174.839 74.2325L174.538 75.1738C174.649 74.9273 174.839 74.6583 175.107 74.367C175.375 74.0756 175.699 73.7843 176.079 73.4929C176.481 73.2016 176.928 72.9663 177.419 72.787C177.911 72.6077 178.424 72.518 178.96 72.518C179.698 72.518 180.368 72.6413 180.971 72.8878C181.596 73.1343 182.144 73.4929 182.613 73.9636C183.104 74.4342 183.529 75.0057 183.886 75.6781C184.266 75.0954 184.69 74.5687 185.159 74.098C185.628 73.605 186.176 73.224 186.801 72.955C187.427 72.6637 188.13 72.518 188.912 72.518C190.208 72.518 191.291 72.843 192.162 73.4929C193.056 74.1429 193.726 75.073 194.173 76.2832C194.642 77.471 194.876 78.8942 194.876 80.5526V87.0744C194.876 87.4554 194.832 87.8028 194.742 88.1166C194.675 88.4079 194.497 88.6433 194.206 88.8226C193.938 89.0018 193.491 89.0915 192.866 89.0915C192.24 89.0915 191.783 88.9906 191.492 88.7889C191.202 88.6096 191.023 88.3743 190.956 88.083C190.889 87.7692 190.856 87.4218 190.856 87.0408V80.519C190.856 79.6898 190.755 78.9726 190.554 78.3675C190.353 77.7624 190.051 77.2917 189.649 76.9555C189.27 76.6194 188.767 76.4513 188.141 76.4513C187.471 76.4513 186.891 76.6194 186.399 76.9555C185.93 77.2693 185.561 77.7287 185.293 78.3339C185.025 78.939 184.891 79.6786 184.891 80.5526V87.1081C184.891 87.4891 184.835 87.8476 184.724 88.1838C184.612 88.4976 184.389 88.7329 184.054 88.8898C183.741 89.0691 183.283 89.1363 182.68 89.0915C182.121 89.0691 181.708 88.957 181.44 88.7553C181.194 88.5536 181.038 88.3071 180.971 88.0157C180.926 87.702 180.904 87.377 180.904 87.0408V80.519C180.904 79.6898 180.803 78.9726 180.602 78.3675C180.401 77.74 180.1 77.2693 179.698 76.9555C179.318 76.6194 178.804 76.4513 178.156 76.4513C177.464 76.4513 176.872 76.6306 176.38 76.9892C175.911 77.3477 175.554 77.8296 175.308 78.4347C175.062 79.0398 174.94 79.7346 174.94 80.519V87.1081C174.94 87.4666 174.895 87.8028 174.806 88.1166C174.739 88.4303 174.56 88.6657 174.269 88.8226C174.001 89.0018 173.543 89.0915 172.896 89.0915Z" fill="white"/>
<path d="M202.297 89.3268C201.716 89.3268 201.102 89.2596 200.454 89.1251C199.806 89.0131 199.18 88.845 198.577 88.6208C197.974 88.3743 197.449 88.0942 197.003 87.7804C196.578 87.4442 196.31 87.0744 196.198 86.671C196.109 86.4469 196.076 86.234 196.098 86.0323C196.12 85.8082 196.187 85.5841 196.299 85.3599C196.411 85.1134 196.578 84.8669 196.801 84.6204C197.003 84.3738 197.204 84.2394 197.405 84.2169C197.628 84.1721 197.907 84.2394 198.242 84.4186C198.533 84.5307 198.845 84.6764 199.18 84.8557C199.538 85.035 199.895 85.2143 200.253 85.3936C200.632 85.5729 201.012 85.7185 201.392 85.8306C201.794 85.9426 202.185 85.9987 202.565 85.9987C203.391 85.9987 204.05 85.8642 204.542 85.5953C205.033 85.3039 205.279 84.9005 205.279 84.385C205.279 84.0937 205.201 83.8359 205.044 83.6118C204.888 83.3877 204.676 83.2084 204.408 83.0739C204.162 82.9171 203.86 82.7826 203.503 82.6705C203.168 82.5361 202.799 82.424 202.397 82.3344C202.017 82.2223 201.615 82.099 201.191 81.9646C200.632 81.8077 200.074 81.6172 199.516 81.3931C198.957 81.1689 198.455 80.8776 198.008 80.519C197.583 80.1604 197.237 79.7122 196.969 79.1743C196.701 78.6364 196.567 77.9641 196.567 77.1572C196.567 76.1487 196.801 75.2971 197.271 74.6023C197.762 73.8851 198.466 73.336 199.382 72.955C200.297 72.574 201.403 72.3835 202.699 72.3835C203.146 72.3835 203.57 72.4172 203.972 72.4844C204.396 72.5516 204.799 72.6525 205.178 72.787C205.58 72.899 205.96 73.0447 206.318 73.224C206.697 73.4033 207.055 73.605 207.39 73.8291C207.948 74.1429 208.239 74.5127 208.261 74.9385C208.283 75.3419 208.127 75.7789 207.792 76.2496C207.546 76.5633 207.3 76.7875 207.055 76.9219C206.809 77.034 206.552 77.034 206.284 76.9219C205.927 76.7426 205.536 76.5521 205.111 76.3504C204.709 76.1263 204.285 75.9358 203.838 75.7789C203.414 75.622 202.967 75.5436 202.498 75.5436C202.051 75.5436 201.649 75.6108 201.291 75.7453C200.934 75.8798 200.666 76.0703 200.487 76.3168C200.309 76.5633 200.219 76.8547 200.219 77.1909C200.219 77.5046 200.309 77.7624 200.487 77.9641C200.666 78.1658 200.901 78.3339 201.191 78.4683C201.481 78.6028 201.828 78.7261 202.23 78.8381C202.632 78.9278 203.056 79.0174 203.503 79.1071C204.128 79.2415 204.765 79.4096 205.413 79.6113C206.061 79.813 206.653 80.0932 207.189 80.4518C207.747 80.8104 208.194 81.2922 208.529 81.8973C208.864 82.48 209.032 83.242 209.032 84.1833C209.032 85.8194 208.428 87.0856 207.222 87.9821C206.038 88.8786 204.396 89.3268 202.297 89.3268Z" fill="white"/>
<path d="M187.588 70.0901C187.335 70.0901 187.152 70.0548 187.039 69.9843C186.926 69.9066 186.856 69.8043 186.828 69.6772C186.8 69.5501 186.786 69.4196 186.786 69.2854V63.4937C186.786 63.3525 186.796 63.2219 186.817 63.1019C186.846 62.9819 186.916 62.8831 187.028 62.8054C187.141 62.7278 187.327 62.689 187.588 62.689C187.855 62.689 188.042 62.7278 188.147 62.8054C188.26 62.8831 188.327 62.9819 188.348 63.1019C188.376 63.2219 188.39 63.3525 188.39 63.4937V68.6925H191.282C191.401 68.6925 191.514 68.7031 191.619 68.7243C191.725 68.7454 191.809 68.8054 191.873 68.9043C191.943 69.0031 191.978 69.1654 191.978 69.3913C191.978 69.6101 191.943 69.7725 191.873 69.8784C191.802 69.9772 191.714 70.0372 191.609 70.0584C191.51 70.0796 191.401 70.0901 191.282 70.0901H187.588Z" fill="#FF4667"/>
<path d="M194.463 70.0901C194.209 70.0901 194.026 70.0513 193.914 69.9737C193.808 69.896 193.742 69.7972 193.713 69.6772C193.685 69.5501 193.671 69.416 193.671 69.2748V63.4831C193.671 63.349 193.685 63.2254 193.713 63.1125C193.742 62.9925 193.812 62.8937 193.924 62.816C194.037 62.7384 194.223 62.6996 194.484 62.6996C194.66 62.6996 194.793 62.7101 194.885 62.7313C194.976 62.7525 195.043 62.7843 195.085 62.8266C195.128 62.8619 195.173 62.9043 195.222 62.9537L197.597 66.1725H197.439L199.824 62.9537C199.88 62.8831 199.936 62.8301 199.993 62.7949C200.049 62.7596 200.119 62.7349 200.204 62.7207C200.295 62.7066 200.422 62.6996 200.584 62.6996C200.837 62.6996 201.02 62.7384 201.132 62.816C201.245 62.8937 201.315 62.996 201.343 63.1231C201.372 63.2431 201.386 63.3701 201.386 63.5043V69.296C201.386 69.4301 201.372 69.5572 201.343 69.6772C201.315 69.7972 201.245 69.896 201.132 69.9737C201.02 70.0513 200.833 70.0901 200.573 70.0901C200.32 70.0901 200.137 70.0513 200.024 69.9737C199.912 69.896 199.841 69.7937 199.813 69.6666C199.785 69.5396 199.771 69.409 199.771 69.2748V65.4949L198.199 67.729C198.17 67.7643 198.132 67.8137 198.082 67.8772C198.033 67.9337 197.963 67.9831 197.871 68.0254C197.787 68.0678 197.671 68.089 197.523 68.089C197.368 68.089 197.245 68.0678 197.154 68.0254C197.069 67.9831 197.003 67.9337 196.953 67.8772C196.904 67.8207 196.862 67.7713 196.827 67.729L195.265 65.5054V69.296C195.265 69.4301 195.251 69.5572 195.222 69.6772C195.194 69.7972 195.124 69.896 195.011 69.9737C194.906 70.0513 194.723 70.0901 194.463 70.0901Z" fill="#FF4667"/>
<path d="M205.739 70.196C205.366 70.196 205.038 70.1501 204.757 70.0584C204.483 69.9666 204.247 69.8572 204.05 69.7301C203.86 69.596 203.709 69.4654 203.596 69.3384C203.484 69.2113 203.406 69.116 203.364 69.0525C203.244 68.8972 203.171 68.7631 203.142 68.6501C203.114 68.5301 203.128 68.4101 203.185 68.2901C203.248 68.1701 203.353 68.0396 203.501 67.8984C203.649 67.7713 203.786 67.7043 203.913 67.6972C204.046 67.6831 204.177 67.7148 204.303 67.7925C204.43 67.8701 204.553 67.9796 204.673 68.1207C204.841 68.3254 205.007 68.4701 205.169 68.5548C205.337 68.6325 205.513 68.6713 205.696 68.6713C205.928 68.6713 206.125 68.6431 206.287 68.5866C206.449 68.5301 206.572 68.4419 206.657 68.3219C206.741 68.1948 206.783 68.036 206.783 67.8454C206.783 67.6901 206.723 67.5666 206.604 67.4748C206.491 67.376 206.337 67.2913 206.14 67.2207C205.95 67.1501 205.735 67.0831 205.496 67.0196C205.264 66.949 205.031 66.8678 204.799 66.776C204.637 66.7196 204.483 66.649 204.335 66.5643C204.187 66.4796 204.046 66.3843 203.913 66.2784C203.779 66.1725 203.663 66.0454 203.564 65.8972C203.473 65.749 203.399 65.5796 203.343 65.389C203.294 65.1984 203.269 64.9796 203.269 64.7325C203.269 64.316 203.371 63.9454 203.575 63.6207C203.779 63.296 204.061 63.0419 204.419 62.8584C204.785 62.6678 205.204 62.5725 205.675 62.5725C205.992 62.5725 206.266 62.6007 206.498 62.6572C206.738 62.7137 206.938 62.7807 207.1 62.8584C207.262 62.936 207.388 63.0137 207.48 63.0913C207.578 63.1619 207.645 63.2184 207.68 63.2607C207.877 63.4443 207.986 63.6031 208.007 63.7372C208.029 63.8643 207.955 64.0443 207.786 64.2772C207.61 64.5243 207.434 64.6619 207.258 64.6901C207.089 64.7184 206.896 64.6584 206.678 64.5101C206.593 64.4325 206.509 64.3619 206.424 64.2984C206.34 64.2349 206.238 64.1854 206.118 64.1501C206.006 64.1078 205.855 64.0866 205.665 64.0866C205.552 64.0866 205.447 64.1043 205.348 64.1396C205.25 64.1678 205.165 64.2101 205.095 64.2666C205.024 64.3231 204.968 64.3937 204.926 64.4784C204.884 64.556 204.863 64.6443 204.863 64.7431C204.863 64.9054 204.915 65.036 205.021 65.1349C205.133 65.2337 205.278 65.3149 205.454 65.3784C205.636 65.4349 205.837 65.4913 206.055 65.5478C206.28 65.5972 206.509 65.6572 206.741 65.7278C206.952 65.7984 207.156 65.8866 207.353 65.9925C207.55 66.0913 207.726 66.2184 207.881 66.3737C208.036 66.529 208.159 66.7231 208.25 66.956C208.349 67.189 208.398 67.4748 208.398 67.8137C208.398 68.2372 208.317 68.6007 208.155 68.9043C207.993 69.2078 207.779 69.4548 207.511 69.6454C207.244 69.836 206.956 69.9737 206.646 70.0584C206.337 70.1501 206.034 70.196 205.739 70.196Z" fill="#FF4667"/>
<path d="M89.3152 74.311V81.3135C89.3152 82.3363 88.8362 83.2869 88.0475 83.823C87.3845 84.2737 86.4919 84.848 85.4369 85.4464V74.311H89.3152Z" fill="#FF4667"/>
<path d="M85.239 74.311V85.4955C82.3959 87.1188 78.3811 88.919 74.5702 88.919C69.3471 88.919 63.7411 85.5361 61.2908 83.8655C60.5021 83.3274 60.0232 82.3729 60.0232 81.3459V74.311H85.239Z" fill="#FF4667"/>
<path d="M89.1219 74.165V81.0042C89.1219 82.0064 88.6428 82.9374 87.8543 83.462C85.4043 85.0922 79.7985 88.3927 74.575 88.3927C69.3514 88.3927 63.7457 85.0922 61.2956 83.462C60.5071 82.9374 60.028 82.0064 60.028 81.0042V74.165H89.1219ZM89.9136 73.3699H59.2364V81.0042C59.2364 82.2824 59.8428 83.4491 60.8584 84.1248C62.1492 84.9837 64.1898 86.2261 66.58 87.268C69.5027 88.5419 72.1925 89.1878 74.575 89.1878C76.9574 89.1878 79.6472 88.5419 82.5699 87.268C84.9602 86.2261 87.0007 84.9836 88.2915 84.1248C89.3072 83.4491 89.9136 82.2824 89.9136 81.0042V73.3699Z" fill="#FF4667"/>
<path d="M84.8722 87.1176C84.1311 87.2075 83.4485 87.5668 82.9529 88.1275C82.4574 88.6882 82.1834 89.4118 82.1826 90.1614V92.8664C82.1826 93.963 82.765 94.9764 83.7109 95.5247C84.6566 96.0731 85.8217 96.0731 86.7674 95.5247C87.7131 94.9764 88.2957 93.963 88.2957 92.8664V90.1614C88.2949 89.4118 88.0208 88.6882 87.5254 88.1275C87.0299 87.5668 86.3472 87.2075 85.6061 87.1176" fill="white"/>
<path d="M87.5618 90.5226H82.9164V90.1946C82.9164 88.9063 83.9563 87.8619 85.239 87.8619C86.5218 87.8619 87.5617 88.9064 87.5617 90.1946L87.5618 90.5226Z" fill="white"/>
<path d="M93.0569 73.2582L75.4634 81.6701C74.871 81.9534 74.1828 81.9527 73.5909 81.6681L55.9013 73.1649C54.2614 72.3766 54.2526 70.035 55.8867 69.2344L73.5667 60.5718C74.1721 60.2751 74.8804 60.2772 75.4841 60.5775L93.0872 69.3314C94.713 70.1399 94.695 72.475 93.0569 73.2582Z" fill="white"/>
<path d="M74.5197 60.717C74.7622 60.717 75.0045 60.7715 75.2275 60.8804L93.2474 69.6825C94.4406 70.2653 94.4274 71.9486 93.2252 72.5133L75.2124 80.9729C74.9956 81.0748 74.7612 81.1257 74.5268 81.1257C74.2913 81.1257 74.056 81.0744 73.8383 80.9716L55.7297 72.4214C54.5261 71.8532 54.5198 70.1652 55.7189 69.5881L73.8203 60.8763C74.041 60.7701 74.2804 60.717 74.5197 60.717ZM74.5197 59.936C74.159 59.936 73.7972 60.0185 73.4732 60.1744L55.3718 68.8862C54.5417 69.2857 54.0282 70.0999 54.0316 71.011C54.0351 71.9221 54.5547 72.7324 55.3879 73.1258L73.4964 81.6759C73.8161 81.8268 74.1724 81.9066 74.5267 81.9066C74.8794 81.9066 75.2342 81.8275 75.5527 81.678L93.5655 73.2183C94.3976 72.8274 94.919 72.0199 94.9262 71.1107C94.9333 70.2015 94.4246 69.3861 93.5986 68.9826L75.5788 60.1806C75.2513 60.0206 74.8851 59.936 74.5197 59.936Z" fill="white"/>
</g>
<circle cx="74.5261" cy="75.3713" r="74.0159" stroke="#5D5292"/>
<path d="M76.4238 18.595L76.8197 8.42085L80.3766 8.55925C81.0854 8.58683 81.6651 8.73212 82.116 8.99511C82.5669 9.25479 82.897 9.59435 83.1062 10.0138C83.3156 10.4299 83.4106 10.8864 83.3913 11.3831C83.3743 11.8203 83.2824 12.1783 83.1156 12.457C82.9522 12.7359 82.7414 12.9533 82.4833 13.1091C82.2284 13.265 81.9537 13.3771 81.6592 13.4452L81.6553 13.5446C81.9659 13.5765 82.2746 13.698 82.5815 13.909C82.8884 14.1199 83.1406 14.415 83.3381 14.7942C83.5357 15.1734 83.624 15.6312 83.6031 16.1677C83.5833 16.6778 83.4495 17.1319 83.2018 17.5303C82.9541 17.9286 82.5756 18.2373 82.0662 18.4563C81.5569 18.6753 80.9014 18.7692 80.1 18.738L76.4238 18.595ZM77.6983 17.55L80.1425 17.6451C80.9473 17.6764 81.5246 17.543 81.8746 17.2448C82.2279 16.9434 82.4133 16.5692 82.4307 16.1221C82.4441 15.7777 82.3687 15.4563 82.2045 15.158C82.0405 14.8565 81.7996 14.6116 81.4818 14.4234C81.1642 14.232 80.7835 14.1276 80.3397 14.1103L77.836 14.0129L77.6983 17.55ZM77.8777 12.9398L80.1629 13.0288C80.5338 13.0432 80.8712 12.9833 81.1749 12.8492C81.482 12.7152 81.7284 12.5192 81.9143 12.261C82.1034 12.003 82.2049 11.6952 82.2189 11.3375C82.2363 10.8904 82.0953 10.5052 81.7961 10.1817C81.4971 9.85498 81.0097 9.67847 80.3341 9.65218L78.0091 9.56171L77.8777 12.9398Z" fill="white"/>
<path d="M91.7379 20.9553C91.026 20.7693 90.4529 20.4518 90.0188 20.0026C89.5886 19.5511 89.3082 19.0051 89.1775 18.3646C89.0509 17.7218 89.0864 17.0219 89.2841 16.2651C89.4818 15.5083 89.794 14.8774 90.2206 14.3722C90.6512 13.8647 91.1574 13.5139 91.739 13.3199C92.3247 13.1235 92.9511 13.1124 93.6181 13.2867C94.0029 13.3872 94.3662 13.5506 94.7078 13.7769C95.0495 14.0032 95.3366 14.3009 95.569 14.6699C95.8023 15.0358 95.9488 15.4782 96.0084 15.9974C96.068 16.5165 96.0078 17.1208 95.8276 17.8103L95.702 18.2913L90.0068 16.8034L90.2631 15.8221L94.8039 17.0084C94.9128 16.5915 94.9266 16.1978 94.8453 15.8271C94.7672 15.4573 94.6006 15.138 94.3454 14.8692C94.0934 14.6013 93.7621 14.4137 93.3517 14.3064C92.8995 14.1883 92.479 14.1983 92.09 14.3365C91.7051 14.4723 91.378 14.6951 91.1086 15.005C90.8393 15.3149 90.6514 15.6734 90.545 16.0807L90.3741 16.7349C90.2283 17.2929 90.2009 17.791 90.2919 18.2293C90.387 18.6652 90.5813 19.0294 90.8749 19.3219C91.1693 19.6112 91.5457 19.8158 92.0043 19.9356C92.3025 20.0135 92.5828 20.0422 92.8451 20.0216C93.1114 19.9987 93.355 19.9253 93.5757 19.8015C93.7974 19.6744 93.9898 19.4951 94.153 19.2637L95.1693 19.8581C94.9567 20.1999 94.6772 20.4763 94.3309 20.6873C93.9854 20.8951 93.5917 21.0252 93.1498 21.0776C92.7088 21.1268 92.2381 21.086 91.7379 20.9553Z" fill="white"/>
<path d="M107.992 21.2797L106.917 21.066C106.938 20.8794 106.929 20.6829 106.889 20.4765C106.854 20.2687 106.763 20.0663 106.618 19.8694C106.473 19.6725 106.249 19.4964 105.945 19.3412C105.529 19.1286 105.133 19.0474 104.757 19.0975C104.386 19.1462 104.126 19.3167 103.977 19.6089C103.844 19.8686 103.834 20.122 103.946 20.3691C104.058 20.6161 104.289 20.8923 104.639 21.1977L105.522 21.9612C106.055 22.4193 106.393 22.8766 106.535 23.3328C106.68 23.7862 106.631 24.2505 106.388 24.7257C106.189 25.1153 105.899 25.4063 105.518 25.5987C105.139 25.7926 104.706 25.8764 104.217 25.8499C103.728 25.8235 103.219 25.6754 102.691 25.4055C101.997 25.0512 101.5 24.6075 101.199 24.0742C100.899 23.541 100.835 22.9542 101.01 22.3139L102.128 22.5725C102.036 22.9867 102.074 23.3524 102.243 23.6696C102.416 23.9883 102.716 24.257 103.144 24.4756C103.631 24.7243 104.07 24.8185 104.462 24.7581C104.858 24.6963 105.131 24.5193 105.28 24.227C105.401 23.9909 105.419 23.7509 105.335 23.5071C105.253 23.2603 105.061 23.0097 104.759 22.7551L103.762 21.9105C103.214 21.4449 102.873 20.9824 102.74 20.5233C102.61 20.0626 102.665 19.5977 102.905 19.1283C103.101 18.7446 103.382 18.4602 103.748 18.2751C104.117 18.0915 104.532 18.0113 104.993 18.0345C105.457 18.0592 105.928 18.1937 106.406 18.4379C107.079 18.7817 107.532 19.1991 107.765 19.6903C108.001 20.1829 108.076 20.7128 107.992 21.2797Z" fill="white"/>
<path d="M118.749 27.1232L118.116 27.8907L115.062 25.3752L115.694 24.6076L118.749 27.1232ZM117.747 23.9284L118.653 24.6743L114.026 30.2929C113.815 30.5488 113.694 30.7712 113.663 30.9602C113.637 31.1488 113.664 31.3133 113.746 31.4537C113.833 31.5937 113.943 31.7184 114.076 31.828C114.176 31.9102 114.262 31.9725 114.334 32.0149C114.409 32.0548 114.468 32.0867 114.513 32.1106L114.027 33.0759C113.947 33.0484 113.842 33.0008 113.713 32.9333C113.582 32.8683 113.432 32.7662 113.263 32.6272C113.007 32.4165 112.802 32.155 112.647 31.8427C112.494 31.5326 112.43 31.1985 112.454 30.8406C112.481 30.4849 112.636 30.1356 112.918 29.7927L117.747 23.9284Z" fill="white"/>
<path d="M130.795 52.6651C129.846 53.1681 128.936 53.4315 128.063 53.4553C127.19 53.479 126.408 53.2916 125.716 52.8929C125.025 52.4943 124.476 51.9114 124.069 51.1441C123.662 50.3769 123.488 49.5953 123.546 48.7992C123.604 48.0031 123.888 47.2505 124.397 46.5415C124.907 45.8325 125.636 45.2265 126.585 44.7235C127.534 44.2205 128.444 43.9571 129.317 43.9334C130.19 43.9096 130.972 44.097 131.663 44.4957C132.355 44.8943 132.904 45.4773 133.311 46.2445C133.718 47.0117 133.892 47.7934 133.834 48.5894C133.776 49.3855 133.492 50.1381 132.982 50.8471C132.473 51.5561 131.744 52.1621 130.795 52.6651ZM130.236 51.6109C131.015 51.1979 131.603 50.7191 132.001 50.1744C132.4 49.6326 132.62 49.0676 132.661 48.4795C132.704 47.8943 132.581 47.3294 132.292 46.7847C132.003 46.2401 131.604 45.8196 131.094 45.5234C130.586 45.2301 129.995 45.0952 129.321 45.1187C128.648 45.1451 127.923 45.3648 127.144 45.7777C126.365 46.1907 125.776 46.6681 125.376 47.2099C124.979 47.7546 124.759 48.3195 124.716 48.9047C124.675 49.4928 124.799 50.0592 125.088 50.6039C125.377 51.1485 125.775 51.5675 126.283 51.8608C126.793 52.1571 127.384 52.292 128.057 52.2656C128.731 52.2421 129.457 52.0239 130.236 51.6109Z" fill="white"/>
<path d="M132.115 58.9463L127.688 60.1753L127.374 59.0448L134.732 57.0018L135.036 58.094L133.886 58.4132L133.913 58.5091C134.334 58.5778 134.707 58.7563 135.031 59.0446C135.359 59.3321 135.6 59.7536 135.754 60.3093C135.892 60.8075 135.911 61.2718 135.81 61.7022C135.713 62.1317 135.487 62.5075 135.133 62.8294C134.782 63.1505 134.293 63.398 133.667 63.5718L128.992 64.8699L128.678 63.7393L133.277 62.4625C133.855 62.302 134.263 62.0269 134.502 61.6371C134.745 61.2465 134.793 60.7893 134.648 60.2656C134.548 59.9047 134.38 59.6039 134.145 59.3631C133.91 59.1255 133.62 58.9669 133.275 58.8874C132.929 58.8079 132.543 58.8275 132.115 58.9463Z" fill="white"/>
<path d="M140.053 73.2221L129.886 73.7733L129.823 72.6017L139.99 72.0505L140.053 73.2221Z" fill="white"/>
<path d="M129.212 84.7518L136.748 85.9872L136.558 87.1451L129.022 85.9096L129.212 84.7518ZM137.907 86.7819C137.944 86.5562 138.053 86.3742 138.234 86.2358C138.414 86.1008 138.612 86.0509 138.827 86.0863C139.043 86.1217 139.215 86.2321 139.342 86.4176C139.469 86.6064 139.514 86.8136 139.477 87.0392C139.44 87.2649 139.332 87.4453 139.152 87.5804C138.971 87.7187 138.773 87.7702 138.557 87.7348C138.341 87.6994 138.17 87.5873 138.043 87.3986C137.916 87.2131 137.87 87.0075 137.907 86.7819Z" fill="white"/>
<path d="M130.436 97.7729L126.169 96.0726L126.603 94.9826L133.697 97.8092L133.277 98.8622L132.169 98.4205L132.132 98.5129C132.426 98.8227 132.615 99.1905 132.699 99.6163C132.785 100.043 132.722 100.525 132.508 101.06C132.317 101.541 132.051 101.922 131.71 102.204C131.373 102.486 130.966 102.649 130.489 102.691C130.015 102.734 129.476 102.635 128.873 102.395L124.365 100.599L124.799 99.5088L129.233 101.275C129.791 101.497 130.282 101.526 130.709 101.36C131.138 101.196 131.453 100.861 131.654 100.356C131.793 100.008 131.842 99.6673 131.8 99.3332C131.757 99.0021 131.622 98.7004 131.395 98.428C131.168 98.1557 130.849 97.9373 130.436 97.7729Z" fill="white"/>
<path d="M119.328 108.478C119.74 107.869 120.231 107.435 120.799 107.175C121.369 106.92 121.977 106.838 122.624 106.929C123.273 107.024 123.92 107.291 124.568 107.73C125.215 108.169 125.706 108.674 126.04 109.244C126.374 109.82 126.536 110.414 126.525 111.027C126.515 111.645 126.316 112.239 125.929 112.809C125.706 113.139 125.431 113.427 125.103 113.673C124.776 113.92 124.399 114.091 123.974 114.187C123.551 114.285 123.085 114.275 122.576 114.158C122.067 114.041 121.517 113.783 120.927 113.383L120.516 113.104L123.819 108.232L124.659 108.801L122.025 112.685C122.382 112.927 122.748 113.071 123.125 113.118C123.499 113.168 123.856 113.118 124.195 112.967C124.531 112.819 124.819 112.569 125.057 112.218C125.319 111.831 125.45 111.431 125.449 111.019C125.45 110.61 125.349 110.228 125.147 109.87C124.945 109.513 124.669 109.216 124.321 108.98L123.761 108.601C123.284 108.277 122.823 108.085 122.38 108.024C121.937 107.969 121.529 108.03 121.155 108.209C120.784 108.39 120.466 108.677 120.2 109.069C120.027 109.324 119.906 109.579 119.838 109.833C119.771 110.092 119.759 110.346 119.802 110.595C119.848 110.847 119.952 111.088 120.116 111.319L119.217 112.079C118.965 111.764 118.798 111.408 118.715 111.012C118.634 110.617 118.643 110.202 118.741 109.768C118.842 109.336 119.037 108.906 119.328 108.478Z" fill="white"/>
<path d="M103.826 123.374L109.076 132.098L108.019 132.734L103.334 124.947L99.2782 127.387L98.7143 126.45L103.826 123.374Z" fill="white"/>
<path d="M90.2815 129.465C90.9788 129.23 91.6321 129.182 92.2415 129.319C92.8488 129.461 93.3827 129.763 93.8433 130.227C94.3018 130.695 94.6559 131.3 94.9057 132.041C95.1555 132.783 95.2405 133.481 95.1609 134.138C95.0792 134.798 94.8484 135.369 94.4684 135.85C94.0864 136.336 93.5687 136.689 92.9154 136.909C92.5385 137.036 92.1451 137.098 91.7353 137.097C91.3255 137.095 90.9222 137.003 90.5254 136.822C90.1297 136.644 89.7646 136.355 89.43 135.953C89.0954 135.552 88.8143 135.014 88.5868 134.338L88.428 133.867L94.0062 131.988L94.3301 132.949L89.8826 134.447C90.0201 134.856 90.2246 135.192 90.4958 135.458C90.764 135.724 91.0785 135.9 91.4393 135.985C91.797 136.07 92.1768 136.046 92.5789 135.91C93.0217 135.761 93.3679 135.522 93.6173 135.193C93.8647 134.868 94.016 134.503 94.0712 134.096C94.1265 133.689 94.087 133.286 93.9526 132.887L93.7367 132.246C93.5525 131.7 93.3022 131.268 92.9857 130.952C92.6671 130.639 92.3049 130.441 91.899 130.358C91.4941 130.277 91.0672 130.313 90.618 130.464C90.3259 130.563 90.0758 130.692 89.8678 130.853C89.6576 131.019 89.4942 131.214 89.3776 131.438C89.262 131.666 89.1994 131.921 89.1898 132.204L88.0141 132.265C88.0044 131.862 88.0864 131.478 88.2603 131.112C88.4352 130.748 88.693 130.424 89.0338 130.138C89.3756 129.855 89.7915 129.63 90.2815 129.465Z" fill="white"/>
<path d="M78.9959 131.698C79.4769 131.645 79.9234 131.689 80.3352 131.827C80.7474 131.969 81.0876 132.2 81.3559 132.521C81.6245 132.845 81.7857 133.255 81.8394 133.749C81.8867 134.184 81.8394 134.546 81.6975 134.835C81.5559 135.127 81.3501 135.366 81.0803 135.552C80.8105 135.738 80.5067 135.888 80.169 136.001C79.8283 136.118 79.4842 136.219 79.1367 136.303C78.6818 136.413 78.3127 136.498 78.0293 136.559C77.7429 136.623 77.5379 136.701 77.4144 136.791C77.2875 136.881 77.2343 137.02 77.2547 137.208L77.259 137.248C77.3121 137.735 77.4867 138.1 77.783 138.341C78.076 138.582 78.491 138.674 79.0281 138.616C79.5849 138.555 80.0083 138.386 80.2981 138.107C80.5879 137.829 80.782 137.545 80.8804 137.254L82.0305 137.529C81.8829 138.012 81.6584 138.399 81.3569 138.692C81.0524 138.989 80.7096 139.209 80.3287 139.354C79.9447 139.503 79.5617 139.598 79.1794 139.639C78.9356 139.666 78.6523 139.667 78.3295 139.642C78.0038 139.62 77.683 139.537 77.3671 139.391C77.048 139.246 76.77 139.004 76.5332 138.667C76.2965 138.329 76.1453 137.859 76.0797 137.256L75.5357 132.254L76.7022 132.127L76.814 133.155L76.8733 133.149C76.9344 132.975 77.0471 132.785 77.2112 132.577C77.3752 132.369 77.6033 132.183 77.8954 132.017C78.1875 131.852 78.5543 131.746 78.9959 131.698ZM78.9319 132.765C78.4706 132.815 78.0917 132.948 77.795 133.164C77.4951 133.38 77.2801 133.64 77.1498 133.944C77.0162 134.249 76.9666 134.559 77.001 134.875L77.1171 135.943C77.1601 135.878 77.2629 135.812 77.4256 135.744C77.5853 135.68 77.772 135.618 77.9855 135.558C78.1961 135.502 78.4021 135.45 78.6035 135.401C78.802 135.356 78.9629 135.319 79.0863 135.289C79.3852 135.216 79.6616 135.121 79.9155 135.003C80.1665 134.889 80.3632 134.736 80.5057 134.544C80.6452 134.356 80.6988 134.113 80.6666 133.816C80.6225 133.411 80.4392 133.121 80.1168 132.946C79.7915 132.775 79.3965 132.714 78.9319 132.765Z" fill="white"/>
<path d="M68.4404 131.891L67.6147 139.482L66.4878 139.36L66.6126 138.213L66.5335 138.205C66.3542 138.565 66.0707 138.843 65.6828 139.037C65.2949 139.232 64.8736 139.304 64.4189 139.255C64.3332 139.246 64.2263 139.232 64.0982 139.215C63.97 139.198 63.8734 139.182 63.8082 139.168L63.9372 137.982C63.9756 137.996 64.0646 138.021 64.2042 138.056C64.3401 138.094 64.4854 138.122 64.6403 138.139C65.0093 138.179 65.3472 138.137 65.654 138.014C65.9572 137.894 66.2075 137.707 66.4049 137.455C66.5987 137.206 66.7142 136.911 66.7515 136.568L67.2739 131.764L68.4404 131.891Z" fill="white"/>
<path d="M54.8611 133.748L56.3279 129.394L57.4398 129.769L55.0015 137.005L53.9273 136.644L54.3082 135.513L54.214 135.481C53.9206 135.791 53.5636 136 53.1429 136.106C52.7212 136.216 52.2371 136.179 51.6906 135.995C51.2006 135.83 50.8058 135.585 50.506 135.26C50.2052 134.938 50.021 134.54 49.9533 134.066C49.8846 133.596 49.954 133.052 50.1614 132.437L51.7108 127.839L52.8226 128.213L51.2987 132.736C51.1071 133.305 51.1055 133.797 51.2939 134.214C51.4812 134.634 51.8324 134.93 52.3475 135.104C52.7024 135.224 53.0456 135.254 53.377 135.194C53.7052 135.133 53.9992 134.982 54.2589 134.741C54.5185 134.499 54.7193 134.168 54.8611 133.748Z" fill="white"/>
<path d="M44.8447 124.188L40.9078 130.731L39.9024 130.126L43.8394 123.583L44.8447 124.188ZM39.7404 131.514C39.9364 131.632 40.0652 131.8 40.1269 132.019C40.1857 132.236 40.1588 132.439 40.046 132.626C39.9332 132.814 39.7671 132.932 39.5476 132.982C39.3253 133.03 39.1162 132.995 38.9202 132.877C38.7243 132.759 38.5969 132.592 38.538 132.374C38.4763 132.156 38.5019 131.952 38.6146 131.765C38.7274 131.577 38.895 131.46 39.1173 131.412C39.3367 131.362 39.5445 131.396 39.7404 131.514Z" fill="white"/>
<path d="M32.2955 120.505L35.4546 117.17L36.3064 117.977L31.0549 123.521L30.232 122.741L31.0525 121.875L30.9803 121.807C30.5837 121.965 30.1721 122.005 29.7456 121.925C29.3168 121.847 28.8931 121.61 28.4744 121.214C28.099 120.858 27.8435 120.47 27.7079 120.049C27.5699 119.631 27.5698 119.192 27.7074 118.734C27.8427 118.278 28.1338 117.814 28.5805 117.342L31.9174 113.82L32.7692 114.626L29.487 118.091C29.0745 118.527 28.8662 118.973 28.8622 119.431C28.8559 119.89 29.05 120.307 29.4447 120.681C29.7166 120.938 30.0154 121.11 30.3413 121.195C30.6647 121.277 30.9949 121.264 31.3319 121.154C31.6689 121.044 31.9901 120.828 32.2955 120.505Z" fill="white"/>
<path d="M28.8998 104.715C29.2179 105.184 29.4309 105.628 29.539 106.048C29.6498 106.465 29.6841 106.852 29.6418 107.209C29.6005 107.562 29.5147 107.878 29.3845 108.158L28.3168 107.753C28.3725 107.587 28.4289 107.387 28.4859 107.152C28.5456 106.915 28.5513 106.643 28.5029 106.336C28.4554 106.023 28.3024 105.677 28.0439 105.295C27.6979 104.785 27.289 104.448 26.817 104.283C26.3451 104.119 25.8457 104.215 25.319 104.572L24.0352 105.442L24.091 105.525C24.2545 105.518 24.466 105.523 24.7254 105.539C24.9801 105.555 25.2561 105.64 25.5533 105.795C25.846 105.949 26.1318 106.231 26.4108 106.643C26.7567 107.153 26.9466 107.693 26.9805 108.263C27.0125 108.83 26.8781 109.387 26.5771 109.936C26.2744 110.481 25.7938 110.977 25.1354 111.424C24.488 111.863 23.8471 112.131 23.2126 112.229C22.5754 112.329 21.9875 112.265 21.4488 112.037C20.9075 111.812 20.4564 111.433 20.0955 110.901C19.8165 110.489 19.6638 110.116 19.6373 109.782C19.6061 109.447 19.6333 109.156 19.7187 108.91C19.7995 108.663 19.8706 108.466 19.9319 108.321L19.865 108.222L18.8609 108.903L18.2248 107.964L24.7264 103.556C25.2696 103.188 25.795 103.012 26.3025 103.028C26.811 103.04 27.2852 103.199 27.7252 103.505C28.166 103.807 28.5576 104.21 28.8998 104.715ZM25.4491 107.103C25.185 106.713 24.8726 106.444 24.512 106.296C24.1515 106.148 23.7564 106.118 23.3268 106.205C22.8973 106.292 22.4494 106.494 21.983 106.81C21.5276 107.119 21.1722 107.46 20.9168 107.833C20.6614 108.206 20.5261 108.595 20.5109 108.997C20.4956 109.4 20.6219 109.799 20.8898 110.194C21.1688 110.605 21.5055 110.878 21.9 111.011C22.2926 111.141 22.711 111.156 23.1552 111.055C23.5974 110.951 24.0326 110.754 24.4605 110.464C24.8994 110.166 25.2411 109.835 25.4855 109.469C25.7254 109.102 25.8492 108.717 25.8571 108.316C25.8604 107.913 25.7244 107.509 25.4491 107.103Z" fill="white"/>
<path d="M21.0627 91.6411L11.2868 94.4876L10.325 91.1844C10.1017 90.4175 10.0576 89.7503 10.1927 89.1828C10.3237 88.613 10.5888 88.1423 10.988 87.7706C11.3872 87.3989 11.8748 87.1292 12.4508 86.9615C13.0268 86.7938 13.5846 86.7591 14.1241 86.8575C14.6627 86.9526 15.1429 87.2029 15.5647 87.6082C15.9834 88.0145 16.3034 88.5979 16.5249 89.3585L17.2142 91.7261L16.1641 92.0318L15.4858 89.7024C15.3329 89.1774 15.1195 88.7821 14.8454 88.5167C14.5714 88.2513 14.2592 88.0919 13.9088 88.0386C13.5543 87.983 13.1814 88.0122 12.79 88.1262C12.3985 88.2402 12.0698 88.4153 11.8038 88.6515C11.5368 88.8846 11.3626 89.1873 11.2811 89.5597C11.1965 89.933 11.2316 90.3854 11.3863 90.9168L11.9923 92.998L20.718 90.4573L21.0627 91.6411Z" fill="white"/>
<path d="M8.25202 77.7764L18.4112 77.098L18.4894 78.2687L8.33019 78.9471L8.25202 77.7764Z" fill="white"/>
<path d="M19.2674 65.1973C19.1951 65.6757 19.0393 66.0963 18.8001 66.4591C18.5577 66.8213 18.2471 67.0912 17.8683 67.2686C17.4863 67.4455 17.0494 67.4968 16.5579 67.4225C16.1253 67.3571 15.7875 67.2189 15.5445 67.0079C15.2983 66.7964 15.1197 66.5364 15.0087 66.228C14.8978 65.9196 14.8306 65.5877 14.8073 65.2322C14.7811 64.8729 14.7716 64.5145 14.7787 64.1569C14.789 63.6892 14.801 63.3105 14.8146 63.021C14.8254 62.7276 14.803 62.5097 14.7475 62.3672C14.6924 62.2215 14.5715 62.1345 14.3847 62.1063L14.3453 62.1003C13.8603 62.027 13.4634 62.1028 13.1545 62.3276C12.8462 62.5492 12.6516 62.9271 12.5709 63.4612C12.4872 64.0151 12.5429 64.4676 12.7378 64.8189C12.9328 65.1702 13.1583 65.4305 13.4142 65.5999L12.8546 66.6416C12.4255 66.3756 12.1079 66.0595 11.9018 65.6931C11.6929 65.323 11.5671 64.9353 11.5245 64.5299C11.479 64.1208 11.485 63.7262 11.5425 63.3461C11.5791 63.1035 11.6507 62.8294 11.7573 62.5237C11.861 62.2143 12.0237 61.9254 12.2452 61.6572C12.4672 61.3858 12.7717 61.1787 13.1587 61.036C13.5456 60.8934 14.0389 60.8674 14.6386 60.958L19.6134 61.7098L19.4381 62.8699L18.4156 62.7154L18.4067 62.7744C18.5587 62.8778 18.7142 63.0354 18.8732 63.2472C19.0323 63.4589 19.1544 63.7271 19.2394 64.0517C19.3244 64.3763 19.3337 64.7581 19.2674 65.1973ZM18.252 64.8628C18.3213 64.404 18.2896 64.0037 18.1569 63.6618C18.0247 63.3167 17.8282 63.0423 17.5673 62.8386C17.307 62.6317 17.0195 62.5044 16.7049 62.4569L15.6431 62.2964C15.6947 62.3545 15.7324 62.4708 15.7563 62.6454C15.7774 62.8162 15.7896 63.0124 15.793 63.2342C15.7936 63.4522 15.7916 63.6647 15.7871 63.8719C15.7799 64.0752 15.775 64.2404 15.7726 64.3674C15.7664 64.6749 15.7877 64.9664 15.8365 65.2419C15.8826 65.5137 15.9804 65.743 16.1298 65.9298C16.2764 66.1129 16.4972 66.2267 16.7922 66.2713C17.1953 66.3322 17.5226 66.2291 17.7741 65.9621C18.0229 65.6913 18.1821 65.3249 18.252 64.8628Z" fill="white"/>
<path d="M15.8392 49.1053L16.7674 49.4617L15.3487 53.1561L14.4205 52.7996L15.8392 49.1053ZM13.126 51.067L13.5467 49.9717L20.3413 52.5809C20.6507 52.6997 20.9 52.744 21.0892 52.7137C21.2764 52.6791 21.4237 52.6007 21.5309 52.4786C21.6363 52.3521 21.7198 52.2085 21.7816 52.0476C21.828 51.9269 21.8598 51.8255 21.8771 51.7434C21.8914 51.6601 21.9028 51.5935 21.9113 51.5435L22.9808 51.6986C22.9801 51.7835 22.9681 51.8979 22.9449 52.0416C22.9247 52.1866 22.8755 52.3611 22.797 52.5653C22.6782 52.8747 22.4953 53.1524 22.2482 53.3984C22.0022 53.6412 21.7057 53.8078 21.3586 53.8982C21.0126 53.9855 20.6323 53.9495 20.2177 53.7903L13.126 51.067Z" fill="white"/>
<path d="M22.6728 36.9941L23.5027 37.5417L21.2354 40.9775L20.4055 40.4299L22.6728 36.9941ZM27.4583 43.6068L20.2049 38.8203C19.8397 38.5793 19.592 38.2928 19.4618 37.9606C19.3315 37.6284 19.2959 37.2853 19.3549 36.9311C19.4139 36.5769 19.5438 36.2476 19.7446 35.9433C19.9035 35.7027 20.0524 35.519 20.1916 35.3924C20.3307 35.2658 20.4415 35.1762 20.524 35.1234L21.1843 35.9642C21.1348 36.003 21.0685 36.0585 20.9851 36.1306C20.9037 36.1999 20.8164 36.3051 20.7233 36.4462C20.5097 36.7698 20.437 37.0574 20.5053 37.309C20.5754 37.5578 20.7682 37.7862 21.0835 37.9943L28.1045 42.6275L27.4583 43.6068Z" fill="white"/>
<path d="M36.4274 33.1783C35.9328 33.6587 35.3846 33.9624 34.7828 34.0896C34.1832 34.2144 33.5734 34.1669 32.9531 33.9469C32.3352 33.7246 31.7515 33.3305 31.2019 32.7647C30.6476 32.1941 30.2673 31.5955 30.0608 30.969C29.8567 30.3402 29.8257 29.728 29.968 29.1324C30.1127 28.5345 30.4323 27.9954 30.9268 27.5151C31.4213 27.0347 31.9683 26.7321 32.5678 26.6073C33.1697 26.4801 33.7808 26.5289 34.401 26.7535C35.0235 26.9759 35.6119 27.3724 36.1662 27.943C36.7157 28.5088 37.0915 29.105 37.2933 29.7314C37.4975 30.3555 37.5272 30.9665 37.3826 31.5644C37.2403 32.1601 36.9219 32.698 36.4274 33.1783ZM35.693 32.4223C36.0687 32.0574 36.2842 31.6609 36.3397 31.2328C36.3952 30.8047 36.3287 30.3771 36.1404 29.9502C35.9521 29.5232 35.6801 29.1266 35.3245 28.7605C34.9689 28.3943 34.5793 28.1097 34.1556 27.9067C33.732 27.7036 33.3043 27.6224 32.8724 27.663C32.4405 27.7035 32.0368 27.9063 31.6611 28.2711C31.2855 28.636 31.0711 29.0337 31.0179 29.4642C30.9648 29.8946 31.0335 30.3246 31.2241 30.7539C31.4148 31.1833 31.6879 31.5811 32.0435 31.9472C32.3991 32.3133 32.7876 32.5968 33.2089 32.7974C33.6302 32.9981 34.0557 33.077 34.4852 33.034C34.9148 32.9911 35.3174 32.7871 35.693 32.4223Z" fill="white"/>
<path d="M44.264 26.9183L40.2455 20.4248L41.2094 19.8283L41.8164 20.8091L41.884 20.7672C41.8036 20.3727 41.8564 19.9794 42.0426 19.5874C42.2288 19.1955 42.5164 18.8792 42.9053 18.6385C42.9786 18.5931 43.071 18.5378 43.1827 18.4726C43.2944 18.4074 43.3801 18.3602 43.44 18.331L44.0679 19.3456C44.0288 19.3581 43.9435 19.3933 43.8118 19.4514C43.6812 19.5049 43.5497 19.5727 43.4172 19.6547C43.1016 19.85 42.8607 20.0907 42.6947 20.3766C42.5297 20.658 42.4469 20.9587 42.4462 21.2788C42.4465 21.5943 42.5374 21.8986 42.7188 22.1917L45.2617 26.3009L44.264 26.9183Z" fill="white"/>
<path d="M53.0205 22.2535L50.4918 15.048L51.5614 14.6726L51.9565 15.7985L52.0503 15.7656C52.0654 15.3282 52.203 14.9445 52.463 14.6144C52.7219 14.2812 53.0859 14.0322 53.555 13.8676C54.0304 13.7008 54.4639 13.6699 54.8555 13.7748C55.2491 13.8755 55.6025 14.0869 55.9158 14.409L55.9909 14.3827C56.0448 13.9458 56.2178 13.5531 56.51 13.2047C56.8012 12.8532 57.2047 12.5868 57.7207 12.4057C58.365 12.1797 58.9627 12.1964 59.514 12.4561C60.0642 12.7126 60.488 13.2647 60.7854 14.1122L62.4778 18.9347L61.3707 19.3232L59.6783 14.5007C59.4917 13.9691 59.213 13.6401 58.842 13.5139C58.471 13.3876 58.0885 13.3937 57.6945 13.532C57.1878 13.7098 56.8491 14.0007 56.6783 14.4049C56.5064 14.8059 56.5023 15.2394 56.6658 15.7054L58.312 20.3965L57.1862 20.7916L55.4543 15.8566C55.3105 15.4469 55.0618 15.1636 54.7082 15.0067C54.3535 14.8467 53.9666 14.8402 53.5475 14.9872C53.2598 15.0882 53.0177 15.2592 52.8213 15.5003C52.628 15.7402 52.5025 16.0231 52.4447 16.349C52.389 16.6706 52.4231 17.0081 52.5472 17.3615L54.1276 21.865L53.0205 22.2535Z" fill="white"/>
<circle cx="74.5261" cy="75.3715" r="41.6913" stroke="#7168A0"/>
</svg>
