<svg width="156" height="36" viewBox="0 0 156 36" fill="none" xmlns="http://www.w3.org/2000/svg">
<path d="M53.2009 29.1555C52.6163 29.1555 52.1779 29.0546 51.8857 28.8529C51.5934 28.6736 51.4023 28.4271 51.3124 28.1133C51.2224 27.7995 51.1775 27.4634 51.1775 27.1048V7.67381C51.1775 7.31522 51.2112 6.99025 51.2786 6.6989C51.3686 6.38514 51.5597 6.13861 51.8519 5.95931C52.1442 5.75761 52.6051 5.65675 53.2346 5.65675L59.5746 5.69037C61.2158 5.69037 62.7221 5.97052 64.0935 6.53081C65.4874 7.09111 66.6902 7.88672 67.7019 8.91766C68.7136 9.9486 69.4893 11.1812 70.0288 12.6156C70.5909 14.0275 70.8719 15.5852 70.8719 17.2884C70.8719 19.0366 70.5909 20.639 70.0288 22.0958C69.4668 23.5525 68.6799 24.8076 67.6682 25.8609C66.6565 26.9143 65.4537 27.7323 64.0598 28.315C62.6884 28.8753 61.1596 29.1555 59.4734 29.1555H53.2009ZM55.258 25.0877H59.5746C61.0135 25.0877 62.2725 24.774 63.3516 24.1464C64.4308 23.4965 65.2626 22.6 65.8471 21.457C66.4542 20.314 66.7577 18.9805 66.7577 17.4565C66.7577 15.9101 66.4542 14.5654 65.8471 13.4224C65.2626 12.257 64.4195 11.3605 63.3179 10.733C62.2387 10.0831 60.9797 9.7581 59.5409 9.7581H55.258V25.0877Z" fill="white"/>
<path d="M74.3686 29.1891C73.7616 29.1891 73.3119 29.0882 73.0197 28.8865C72.7499 28.7072 72.5813 28.4607 72.5138 28.1469C72.4464 27.8332 72.4127 27.4858 72.4127 27.1048V14.6327C72.4127 14.2292 72.4464 13.8819 72.5138 13.5905C72.5813 13.2767 72.7499 13.0414 73.0197 12.8845C73.3119 12.7052 73.7728 12.6156 74.4023 12.6156C75.0094 12.6156 75.4478 12.694 75.7175 12.8509C76.0098 13.0078 76.1897 13.2095 76.2571 13.456C76.3471 13.6802 76.392 13.9043 76.392 14.1284L76.1222 14.7335C76.2346 14.5542 76.392 14.3413 76.5944 14.0948C76.7967 13.8258 77.0665 13.5681 77.4037 13.3216C77.741 13.0526 78.1456 12.8397 78.6178 12.6828C79.0899 12.5035 79.6519 12.4139 80.3039 12.4139C80.5737 12.4139 80.8547 12.4475 81.147 12.5147C81.4618 12.5596 81.7653 12.638 82.0575 12.7501C82.3723 12.8397 82.6533 12.963 82.9006 13.1199C83.1479 13.2767 83.339 13.4672 83.4739 13.6914C83.6088 13.8931 83.6763 14.1284 83.6763 14.3973C83.6763 15.1145 83.4964 15.7196 83.1367 16.2127C82.777 16.7057 82.3498 16.9523 81.8552 16.9523C81.518 16.9523 81.2707 16.9187 81.1133 16.8514C80.9559 16.7842 80.821 16.7057 80.7086 16.6161C80.6187 16.5264 80.4725 16.448 80.2702 16.3808C80.0903 16.3135 79.7981 16.2799 79.3934 16.2799C79.0562 16.2799 78.7077 16.3359 78.348 16.448C78.0107 16.5601 77.696 16.7282 77.4037 16.9523C77.1114 17.1764 76.8754 17.4677 76.6955 17.8263C76.5157 18.1625 76.4257 18.5547 76.4257 19.0029V27.172C76.4257 27.553 76.392 27.9004 76.3246 28.2142C76.2571 28.5055 76.0773 28.7408 75.785 28.9201C75.4927 29.0994 75.0206 29.1891 74.3686 29.1891Z" fill="white"/>
<path d="M91.6945 29.3908C90.2332 29.3908 88.9517 29.1555 87.8501 28.6848C86.7709 28.2142 85.8604 27.5754 85.1185 26.7686C84.399 25.9394 83.8482 25.0205 83.466 24.012C83.1063 22.981 82.9265 21.9165 82.9265 20.8183C82.9265 19.2046 83.2974 17.7703 84.0393 16.5152C84.7812 15.2602 85.8042 14.2741 87.1082 13.5569C88.4346 12.8397 89.9521 12.4811 91.6608 12.4811C92.8748 12.4811 93.9428 12.6716 94.8645 13.0526C95.7863 13.4336 96.5507 13.9379 97.1577 14.5654C97.7872 15.1705 98.2593 15.8429 98.5741 16.5825C98.9113 17.3221 99.0799 18.0392 99.0799 18.734C99.0799 19.9218 98.7877 20.7847 98.2031 21.3226C97.6411 21.8604 96.9329 22.1294 96.0786 22.1294H87.1756C87.1981 22.8914 87.4341 23.5525 87.8838 24.1128C88.3559 24.6731 88.9404 25.1101 89.6374 25.4239C90.3568 25.7153 91.0875 25.8609 91.8294 25.8609C92.3915 25.8609 92.8861 25.8273 93.3133 25.7601C93.7629 25.6928 94.1451 25.6144 94.4598 25.5248C94.7746 25.4127 95.0444 25.3006 95.2692 25.1886C95.5165 25.0765 95.7413 24.9757 95.9437 24.886C96.146 24.7964 96.3371 24.7403 96.517 24.7179C96.7643 24.6955 97.0116 24.7516 97.2589 24.886C97.5062 25.0205 97.7085 25.2558 97.8659 25.592C98.0008 25.8161 98.0907 26.029 98.1357 26.2307C98.2031 26.41 98.2369 26.5893 98.2369 26.7686C98.2369 27.2168 97.9671 27.6427 97.4275 28.0461C96.8879 28.4271 96.1235 28.7408 95.1343 28.9874C94.1676 29.2563 93.021 29.3908 91.6945 29.3908ZM87.1756 19.7425H94.0889C94.4711 19.7425 94.7634 19.6865 94.9657 19.5744C95.168 19.44 95.2692 19.171 95.2692 18.7676C95.2692 18.2522 95.1118 17.7927 94.7971 17.3893C94.4823 16.9635 94.0552 16.6385 93.5156 16.4144C92.976 16.1679 92.3465 16.0446 91.6271 16.0446C90.7952 16.0446 90.0421 16.2127 89.3676 16.5489C88.6931 16.8626 88.1536 17.2997 87.7489 17.8599C87.3667 18.4202 87.1756 19.0478 87.1756 19.7425Z" fill="white"/>
<path d="M113.988 29.1218C113.336 29.1218 112.852 28.9986 112.538 28.752C112.223 28.5055 112.066 28.1693 112.066 27.7435L112.302 26.6341C112.122 26.9255 111.818 27.2729 111.391 27.6763C110.964 28.0573 110.402 28.4047 109.705 28.7184C109.008 29.0098 108.165 29.1555 107.176 29.1555C106.119 29.1555 105.119 28.9425 104.174 28.5167C103.253 28.0685 102.432 27.4634 101.712 26.7014C101.016 25.917 100.453 25.0317 100.026 24.0456C99.6216 23.0371 99.4193 21.9613 99.4193 20.8183C99.4193 19.7201 99.6216 18.6892 100.026 17.7255C100.453 16.7394 101.027 15.8653 101.746 15.1033C102.466 14.3413 103.286 13.7474 104.208 13.3216C105.152 12.8733 106.141 12.6492 107.176 12.6492C108.097 12.6492 108.873 12.7725 109.503 13.019C110.155 13.2655 110.705 13.5793 111.155 13.9603C111.605 14.3189 111.976 14.6999 112.268 15.1033L112.066 14.1284C112.066 13.6353 112.223 13.2655 112.538 13.019C112.852 12.7501 113.347 12.6156 114.022 12.6156C114.651 12.6156 115.101 12.7165 115.37 12.9182C115.64 13.0975 115.809 13.3552 115.876 13.6914C115.944 14.0051 115.977 14.3637 115.977 14.7671V27.0712C115.977 27.4522 115.944 27.7995 115.876 28.1133C115.809 28.4271 115.629 28.6736 115.337 28.8529C115.067 29.0322 114.617 29.1218 113.988 29.1218ZM107.783 25.2222C108.547 25.2222 109.233 25.0317 109.84 24.6507C110.447 24.2697 110.93 23.7542 111.29 23.1043C111.672 22.4319 111.863 21.6924 111.863 20.8855C111.863 20.0115 111.672 19.2495 111.29 18.5995C110.908 17.9496 110.402 17.4453 109.772 17.0867C109.165 16.7057 108.48 16.5152 107.715 16.5152C106.883 16.5152 106.141 16.7169 105.489 17.1204C104.838 17.5014 104.32 18.028 103.938 18.7004C103.579 19.3503 103.399 20.0899 103.399 20.9191C103.399 21.726 103.59 22.4543 103.972 23.1043C104.354 23.7542 104.871 24.2697 105.523 24.6507C106.198 25.0317 106.951 25.2222 107.783 25.2222Z" fill="white"/>
<path d="M119.631 29.1555C119.024 29.1555 118.574 29.0658 118.282 28.8865C118.012 28.7072 117.844 28.4607 117.776 28.1469C117.709 27.8332 117.675 27.497 117.675 27.1384V14.5654C117.675 14.2068 117.709 13.8819 117.776 13.5905C117.844 13.2992 118.023 13.0638 118.316 12.8845C118.608 12.7052 119.069 12.6156 119.698 12.6156C120.35 12.6156 120.822 12.7501 121.115 13.019C121.43 13.288 121.587 13.7138 121.587 14.2965L121.283 15.2378C121.396 14.9912 121.587 14.7223 121.857 14.4309C122.126 14.1396 122.452 13.8482 122.835 13.5569C123.239 13.2655 123.689 13.0302 124.184 12.8509C124.678 12.6716 125.195 12.582 125.735 12.582C126.477 12.582 127.151 12.7052 127.758 12.9518C128.388 13.1983 128.939 13.5569 129.411 14.0275C129.905 14.4982 130.332 15.0697 130.692 15.742C131.074 15.1593 131.502 14.6327 131.974 14.162C132.446 13.669 132.997 13.288 133.626 13.019C134.256 12.7277 134.964 12.582 135.751 12.582C137.055 12.582 138.145 12.907 139.022 13.5569C139.921 14.2068 140.596 15.1369 141.045 16.3472C141.517 17.535 141.753 18.9581 141.753 20.6166V27.1384C141.753 27.5194 141.708 27.8668 141.619 28.1805C141.551 28.4719 141.371 28.7072 141.079 28.8865C140.809 29.0658 140.36 29.1555 139.73 29.1555C139.101 29.1555 138.64 29.0546 138.347 28.8529C138.055 28.6736 137.875 28.4383 137.808 28.1469C137.74 27.8332 137.707 27.4858 137.707 27.1048V20.583C137.707 19.7537 137.605 19.0366 137.403 18.4314C137.201 17.8263 136.897 17.3557 136.493 17.0195C136.11 16.6833 135.605 16.5152 134.975 16.5152C134.301 16.5152 133.716 16.6833 133.221 17.0195C132.749 17.3333 132.378 17.7927 132.109 18.3978C131.839 19.0029 131.704 19.7425 131.704 20.6166V27.172C131.704 27.553 131.648 27.9116 131.535 28.2478C131.423 28.5615 131.198 28.7969 130.861 28.9538C130.546 29.133 130.085 29.2003 129.478 29.1555C128.916 29.133 128.5 29.021 128.23 28.8193C127.983 28.6176 127.826 28.371 127.758 28.0797C127.713 27.7659 127.691 27.441 127.691 27.1048V20.583C127.691 19.7537 127.59 19.0366 127.387 18.4314C127.185 17.8039 126.881 17.3333 126.477 17.0195C126.095 16.6833 125.577 16.5152 124.925 16.5152C124.229 16.5152 123.633 16.6945 123.138 17.0531C122.666 17.4117 122.306 17.8936 122.059 18.4987C121.812 19.1038 121.688 19.7986 121.688 20.583V27.172C121.688 27.5306 121.643 27.8668 121.553 28.1805C121.486 28.4943 121.306 28.7296 121.014 28.8865C120.744 29.0658 120.283 29.1555 119.631 29.1555Z" fill="white"/>
<path d="M149.222 29.3908C148.637 29.3908 148.019 29.3235 147.367 29.1891C146.715 29.077 146.085 28.9089 145.478 28.6848C144.871 28.4383 144.343 28.1581 143.893 27.8444C143.466 27.5082 143.196 27.1384 143.084 26.735C142.994 26.5109 142.96 26.298 142.983 26.0963C143.005 25.8721 143.073 25.648 143.185 25.4239C143.298 25.1774 143.466 24.9308 143.691 24.6843C143.893 24.4378 144.096 24.3033 144.298 24.2809C144.523 24.2361 144.804 24.3033 145.141 24.4826C145.433 24.5947 145.748 24.7403 146.085 24.9196C146.445 25.0989 146.805 25.2782 147.164 25.4575C147.547 25.6368 147.929 25.7825 148.311 25.8945C148.716 26.0066 149.109 26.0626 149.491 26.0626C150.323 26.0626 150.986 25.9282 151.481 25.6592C151.976 25.3679 152.223 24.9645 152.223 24.449C152.223 24.1576 152.144 23.8999 151.987 23.6758C151.83 23.4517 151.616 23.2724 151.346 23.1379C151.099 22.981 150.795 22.8466 150.436 22.7345C150.098 22.6 149.727 22.488 149.323 22.3983C148.941 22.2863 148.536 22.163 148.109 22.0285C147.547 21.8716 146.985 21.6811 146.423 21.457C145.861 21.2329 145.355 20.9416 144.905 20.583C144.478 20.2244 144.129 19.7761 143.86 19.2383C143.59 18.7004 143.455 18.028 143.455 17.2212C143.455 16.2127 143.691 15.361 144.163 14.6663C144.658 13.9491 145.366 13.4 146.288 13.019C147.209 12.638 148.322 12.4475 149.626 12.4475C150.076 12.4475 150.503 12.4811 150.908 12.5484C151.335 12.6156 151.74 12.7165 152.122 12.8509C152.526 12.963 152.909 13.1087 153.268 13.288C153.651 13.4672 154.01 13.669 154.348 13.8931C154.91 14.2068 155.202 14.5766 155.224 15.0024C155.247 15.4059 155.089 15.8429 154.752 16.3135C154.505 16.6273 154.258 16.8514 154.01 16.9859C153.763 17.0979 153.504 17.0979 153.235 16.9859C152.875 16.8066 152.482 16.6161 152.054 16.4144C151.65 16.1903 151.223 15.9998 150.773 15.8429C150.346 15.686 149.896 15.6076 149.424 15.6076C148.974 15.6076 148.57 15.6748 148.21 15.8093C147.85 15.9437 147.58 16.1342 147.401 16.3808C147.221 16.6273 147.131 16.9187 147.131 17.2548C147.131 17.5686 147.221 17.8263 147.401 18.028C147.58 18.2297 147.816 18.3978 148.109 18.5323C148.401 18.6668 148.749 18.79 149.154 18.9021C149.559 18.9917 149.986 19.0814 150.436 19.171C151.065 19.3055 151.706 19.4736 152.358 19.6753C153.01 19.877 153.606 20.1571 154.145 20.5157C154.707 20.8743 155.157 21.3562 155.494 21.9613C155.831 22.544 156 23.306 156 24.2473C156 25.8833 155.393 27.1496 154.179 28.0461C152.987 28.9425 151.335 29.3908 149.222 29.3908Z" fill="white"/>
<path d="M134.418 10.1541C134.163 10.1541 133.979 10.1188 133.866 10.0482C133.752 9.97057 133.681 9.86822 133.653 9.74116C133.625 9.6141 133.611 9.48352 133.611 9.3494V3.55764C133.611 3.41647 133.621 3.28588 133.642 3.16588C133.671 3.04588 133.742 2.94705 133.855 2.86941C133.968 2.79176 134.156 2.75294 134.418 2.75294C134.687 2.75294 134.875 2.79176 134.981 2.86941C135.094 2.94705 135.161 3.04588 135.183 3.16588C135.211 3.28588 135.225 3.41647 135.225 3.55764V8.75646H138.135C138.256 8.75646 138.369 8.76705 138.475 8.78822C138.581 8.8094 138.666 8.8694 138.73 8.96822C138.801 9.06705 138.836 9.2294 138.836 9.45528C138.836 9.6741 138.801 9.83646 138.73 9.94234C138.659 10.0412 138.571 10.1012 138.465 10.1223C138.366 10.1435 138.256 10.1541 138.135 10.1541H134.418Z" fill="#FF4667"/>
<path d="M141.337 10.1541C141.082 10.1541 140.898 10.1153 140.785 10.0376C140.678 9.95998 140.611 9.86116 140.583 9.74116C140.555 9.6141 140.54 9.47999 140.54 9.33881V3.54705C140.54 3.41294 140.555 3.28941 140.583 3.17647C140.611 3.05647 140.682 2.95764 140.795 2.88C140.909 2.80235 141.096 2.76353 141.358 2.76353C141.535 2.76353 141.67 2.77411 141.762 2.79529C141.854 2.81647 141.921 2.84823 141.964 2.89058C142.006 2.92588 142.052 2.96823 142.102 3.01764L144.492 6.23646H144.332L146.733 3.01764C146.789 2.94705 146.846 2.89411 146.903 2.85882C146.959 2.82352 147.03 2.79882 147.115 2.7847C147.207 2.77058 147.335 2.76353 147.498 2.76353C147.752 2.76353 147.937 2.80235 148.05 2.88C148.163 2.95764 148.234 3.06 148.262 3.18705C148.291 3.30705 148.305 3.43411 148.305 3.56823V9.35999C148.305 9.4941 148.291 9.62116 148.262 9.74116C148.234 9.86116 148.163 9.95998 148.05 10.0376C147.937 10.1153 147.749 10.1541 147.487 10.1541C147.232 10.1541 147.048 10.1153 146.935 10.0376C146.821 9.95998 146.75 9.85763 146.722 9.73057C146.694 9.60352 146.68 9.47293 146.68 9.33881V5.55882L145.097 7.79293C145.069 7.82822 145.03 7.87764 144.98 7.94116C144.931 7.99764 144.86 8.04705 144.768 8.0894C144.683 8.13175 144.566 8.15293 144.417 8.15293C144.261 8.15293 144.138 8.13175 144.046 8.0894C143.961 8.04705 143.893 7.99764 143.844 7.94116C143.794 7.88469 143.752 7.83528 143.716 7.79293L142.144 5.5694V9.35999C142.144 9.4941 142.13 9.62116 142.102 9.74116C142.073 9.86116 142.003 9.95998 141.889 10.0376C141.783 10.1153 141.599 10.1541 141.337 10.1541Z" fill="#FF4667"/>
<path d="M152.686 10.26C152.31 10.26 151.981 10.2141 151.698 10.1223C151.422 10.0306 151.184 9.92116 150.986 9.7941C150.795 9.65999 150.643 9.5294 150.529 9.40234C150.416 9.27528 150.338 9.17999 150.296 9.11646C150.175 8.96116 150.101 8.82705 150.073 8.7141C150.044 8.5941 150.059 8.47411 150.115 8.35411C150.179 8.23411 150.285 8.10352 150.434 7.96234C150.583 7.83528 150.721 7.76822 150.848 7.76117C150.983 7.74705 151.114 7.77881 151.241 7.85646C151.369 7.93411 151.492 8.04352 151.613 8.18469C151.783 8.3894 151.949 8.53411 152.112 8.61881C152.282 8.69646 152.459 8.73528 152.643 8.73528C152.877 8.73528 153.075 8.70705 153.238 8.65058C153.401 8.59411 153.525 8.50587 153.61 8.38587C153.695 8.25881 153.737 8.09999 153.737 7.9094C153.737 7.75411 153.677 7.63058 153.557 7.53881C153.443 7.43999 153.288 7.35528 153.089 7.2847C152.898 7.21411 152.682 7.14705 152.441 7.08352C152.208 7.01293 151.974 6.93175 151.74 6.83999C151.577 6.78352 151.422 6.71293 151.273 6.62823C151.124 6.54352 150.983 6.44823 150.848 6.34234C150.714 6.23646 150.597 6.1094 150.498 5.96117C150.406 5.81293 150.331 5.64352 150.275 5.45293C150.225 5.26235 150.2 5.04352 150.2 4.79646C150.2 4.37999 150.303 4.00941 150.508 3.6847C150.714 3.36 150.997 3.10588 151.358 2.92235C151.726 2.73176 152.147 2.63647 152.622 2.63647C152.941 2.63647 153.217 2.6647 153.45 2.72117C153.691 2.77764 153.893 2.8447 154.056 2.92235C154.219 3 154.346 3.07764 154.438 3.15529C154.537 3.22588 154.605 3.28235 154.64 3.3247C154.838 3.50823 154.948 3.66705 154.969 3.80117C154.991 3.92823 154.916 4.10823 154.746 4.34117C154.569 4.58823 154.392 4.72588 154.215 4.75411C154.045 4.78235 153.85 4.72235 153.631 4.57411C153.546 4.49646 153.461 4.42588 153.376 4.36235C153.291 4.29882 153.188 4.24941 153.068 4.21411C152.955 4.17176 152.802 4.15058 152.611 4.15058C152.498 4.15058 152.392 4.16823 152.293 4.20352C152.194 4.23176 152.109 4.27411 152.038 4.33058C151.967 4.38705 151.91 4.45764 151.868 4.54235C151.825 4.61999 151.804 4.70823 151.804 4.80705C151.804 4.9694 151.857 5.09999 151.963 5.19882C152.077 5.29764 152.222 5.37882 152.399 5.44235C152.583 5.49882 152.785 5.55529 153.004 5.61176C153.231 5.66117 153.461 5.72117 153.695 5.79176C153.907 5.86234 154.112 5.95058 154.311 6.05646C154.509 6.15528 154.686 6.28234 154.842 6.43764C154.998 6.59293 155.122 6.78705 155.214 7.01999C155.313 7.25293 155.362 7.53881 155.362 7.87764C155.362 8.30116 155.281 8.66469 155.118 8.96822C154.955 9.27175 154.739 9.51881 154.47 9.7094C154.201 9.89999 153.911 10.0376 153.599 10.1223C153.288 10.2141 152.983 10.26 152.686 10.26Z" fill="#FF4667"/>
<path d="M35.5112 14.3749V21.3775C35.5112 22.4003 35.0291 23.3509 34.2353 23.887C33.568 24.3377 32.6697 24.9119 31.6079 25.5103V14.3749H35.5112Z" fill="#FF4667"/>
<path d="M31.4088 14.3749V25.5594C28.5473 27.1828 24.5066 28.9829 20.6711 28.9829C15.4143 28.9829 9.7721 25.6001 7.30605 23.9295C6.51226 23.3913 6.0302 22.4368 6.0302 21.4099V14.3749H31.4088Z" fill="#FF4667"/>
<path d="M35.3167 14.2289V21.0681C35.3167 22.0703 34.8345 23.0014 34.0409 23.526C31.5751 25.1561 25.9332 28.4567 20.6759 28.4567C15.4186 28.4567 9.77678 25.1561 7.31084 23.526C6.51724 23.0014 6.03509 22.0703 6.03509 21.0681V14.2289H35.3167ZM36.1135 13.4339H5.2384V21.0681C5.2384 22.3464 5.84864 23.5131 6.87081 24.1888C8.16997 25.0477 10.2237 26.2901 12.6294 27.332C15.5709 28.6059 18.2781 29.2518 20.6759 29.2518C23.0737 29.2518 25.7809 28.6059 28.7224 27.332C31.1281 26.2901 33.1818 25.0476 34.481 24.1888C35.5031 23.5131 36.1135 22.3464 36.1135 21.0681V13.4339Z" fill="#FF4667"/>
<path d="M31.0395 27.1815C30.2937 27.2715 29.6066 27.6307 29.1078 28.1915C28.6092 28.7522 28.3334 29.4757 28.3326 30.2254V32.9303C28.3326 34.027 28.9188 35.0404 29.8708 35.5887C30.8225 36.1371 31.9952 36.1371 32.9469 35.5887C33.8988 35.0404 34.4851 34.027 34.4851 32.9303V30.2254C34.4843 29.4757 34.2085 28.7522 33.7099 28.1915C33.2112 27.6307 32.5241 27.2715 31.7782 27.1815" fill="white"/>
<path d="M33.7465 30.5865H29.0711V30.2586C29.0711 28.9702 30.1178 27.9259 31.4088 27.9259C32.6998 27.9259 33.7464 28.9703 33.7464 30.2586L33.7465 30.5865Z" fill="white"/>
<path d="M39.2771 13.3221L21.5701 21.7341C20.9738 22.0173 20.2812 22.0166 19.6855 21.7321L1.88176 13.2289C0.231219 12.4406 0.222455 10.099 1.86702 9.29834L19.6611 0.63575C20.2704 0.339086 20.9832 0.341173 21.5909 0.641415L39.3076 9.39534C40.9439 10.2038 40.9257 12.539 39.2771 13.3221Z" fill="white"/>
<path d="M20.6203 0.780971C20.8643 0.780971 21.1082 0.835443 21.3326 0.944389L39.4688 9.74651C40.6696 10.3293 40.6564 12.0126 39.4465 12.5772L21.3175 21.0369C21.0992 21.1387 20.8633 21.1897 20.6275 21.1897C20.3904 21.1897 20.1536 21.1383 19.9344 21.0355L1.70902 12.4854C0.497709 11.9171 0.491334 10.2292 1.69816 9.65202L19.9163 0.940289C20.1385 0.834077 20.3795 0.780971 20.6203 0.780971ZM20.6203 0C20.2572 0 19.8931 0.08249 19.567 0.238391L1.34887 8.95012C0.513345 9.34968 -0.0034684 10.1638 1.7524e-05 11.0749C0.00350345 11.986 0.526492 12.7964 1.36501 13.1898L19.5903 21.7399C19.9121 21.8908 20.2707 21.9706 20.6274 21.9706C20.9823 21.9706 21.3394 21.8915 21.6599 21.7419L39.7889 13.2823C40.6264 12.8914 41.1512 12.0839 41.1584 11.1746C41.1655 10.2655 40.6536 9.45004 39.8223 9.04657L21.6862 0.244541C21.3566 0.08454 20.988 0 20.6203 0Z" fill="white"/>
</svg>
