<svg width="93" height="102" viewBox="0 0 93 102" fill="none" xmlns="http://www.w3.org/2000/svg">
<rect x="0.764648" y="0.473633" width="1.5" height="1.5" fill="#685F78"/>
<rect x="10.7646" y="0.473633" width="1.5" height="1.5" fill="#685F78"/>
<rect x="20.7642" y="0.473633" width="1.5" height="1.5" fill="#685F78"/>
<rect x="30.7646" y="0.473633" width="1.5" height="1.5" fill="#685F78"/>
<rect x="40.7646" y="0.473633" width="1.5" height="1.5" fill="#685F78"/>
<rect x="50.7646" y="0.473633" width="1.5" height="1.5" fill="#685F78"/>
<rect x="60.7646" y="0.473633" width="1.5" height="1.5" fill="#685F78"/>
<rect x="70.7651" y="0.473633" width="1.5" height="1.5" fill="#685F78"/>
<rect x="80.7646" y="0.473633" width="1.5" height="1.5" fill="#685F78"/>
<rect x="90.7646" y="0.473633" width="1.5" height="1.5" fill="#685F78"/>
<rect x="0.764648" y="10.4736" width="1.5" height="1.5" fill="#685F78"/>
<rect x="10.7646" y="10.4736" width="1.5" height="1.5" fill="#685F78"/>
<rect x="20.7642" y="10.4736" width="1.5" height="1.5" fill="#685F78"/>
<rect x="30.7646" y="10.4736" width="1.5" height="1.5" fill="#685F78"/>
<rect x="40.7646" y="10.4736" width="1.5" height="1.5" fill="#685F78"/>
<rect x="50.7646" y="10.4736" width="1.5" height="1.5" fill="#685F78"/>
<rect x="60.7646" y="10.4736" width="1.5" height="1.5" fill="#685F78"/>
<rect x="70.7651" y="10.4736" width="1.5" height="1.5" fill="#685F78"/>
<rect x="80.7646" y="10.4736" width="1.5" height="1.5" fill="#685F78"/>
<rect x="90.7646" y="10.4736" width="1.5" height="1.5" fill="#685F78"/>
<rect x="0.764648" y="20.4736" width="1.5" height="1.5" fill="#685F78"/>
<rect x="10.7646" y="20.4736" width="1.5" height="1.5" fill="#685F78"/>
<rect x="20.7642" y="20.4736" width="1.5" height="1.5" fill="#685F78"/>
<rect x="30.7646" y="20.4736" width="1.5" height="1.5" fill="#685F78"/>
<rect x="40.7646" y="20.4736" width="1.5" height="1.5" fill="#685F78"/>
<rect x="50.7646" y="20.4736" width="1.5" height="1.5" fill="#685F78"/>
<rect x="60.7646" y="20.4736" width="1.5" height="1.5" fill="#685F78"/>
<rect x="70.7651" y="20.4736" width="1.5" height="1.5" fill="#685F78"/>
<rect x="80.7646" y="20.4736" width="1.5" height="1.5" fill="#685F78"/>
<rect x="90.7646" y="20.4736" width="1.5" height="1.5" fill="#685F78"/>
<rect x="0.764648" y="30.4736" width="1.5" height="1.5" fill="#685F78"/>
<rect x="10.7646" y="30.4736" width="1.5" height="1.5" fill="#685F78"/>
<rect x="20.7642" y="30.4736" width="1.5" height="1.5" fill="#685F78"/>
<rect x="30.7646" y="30.4736" width="1.5" height="1.5" fill="#685F78"/>
<rect x="40.7646" y="30.4736" width="1.5" height="1.5" fill="#685F78"/>
<rect x="50.7646" y="30.4736" width="1.5" height="1.5" fill="#685F78"/>
<rect x="60.7646" y="30.4736" width="1.5" height="1.5" fill="#685F78"/>
<rect x="70.7651" y="30.4736" width="1.5" height="1.5" fill="#685F78"/>
<rect x="80.7646" y="30.4736" width="1.5" height="1.5" fill="#685F78"/>
<rect x="90.7646" y="30.4736" width="1.5" height="1.5" fill="#685F78"/>
<rect x="0.764648" y="40.4736" width="1.5" height="1.5" fill="#685F78"/>
<rect x="10.7646" y="40.4736" width="1.5" height="1.5" fill="#685F78"/>
<rect x="20.7642" y="40.4736" width="1.5" height="1.5" fill="#685F78"/>
<rect x="30.7646" y="40.4736" width="1.5" height="1.5" fill="#685F78"/>
<rect x="40.7646" y="40.4736" width="1.5" height="1.5" fill="#685F78"/>
<rect x="50.7646" y="40.4736" width="1.5" height="1.5" fill="#685F78"/>
<rect x="60.7646" y="40.4736" width="1.5" height="1.5" fill="#685F78"/>
<rect x="70.7651" y="40.4736" width="1.5" height="1.5" fill="#685F78"/>
<rect x="80.7646" y="40.4736" width="1.5" height="1.5" fill="#685F78"/>
<rect x="90.7646" y="40.4736" width="1.5" height="1.5" fill="#685F78"/>
<rect x="0.764648" y="50.4736" width="1.5" height="1.5" fill="#685F78"/>
<rect x="10.7646" y="50.4736" width="1.5" height="1.5" fill="#685F78"/>
<rect x="20.7642" y="50.4736" width="1.5" height="1.5" fill="#685F78"/>
<rect x="30.7646" y="50.4736" width="1.5" height="1.5" fill="#685F78"/>
<rect x="40.7646" y="50.4736" width="1.5" height="1.5" fill="#685F78"/>
<rect x="50.7646" y="50.4736" width="1.5" height="1.5" fill="#685F78"/>
<rect x="60.7646" y="50.4736" width="1.5" height="1.5" fill="#685F78"/>
<rect x="70.7651" y="50.4736" width="1.5" height="1.5" fill="#685F78"/>
<rect x="80.7646" y="50.4736" width="1.5" height="1.5" fill="#685F78"/>
<rect x="90.7646" y="50.4736" width="1.5" height="1.5" fill="#685F78"/>
<rect x="0.764648" y="60.4736" width="1.5" height="1.5" fill="#685F78"/>
<rect x="10.7646" y="60.4736" width="1.5" height="1.5" fill="#685F78"/>
<rect x="20.7642" y="60.4736" width="1.5" height="1.5" fill="#685F78"/>
<rect x="30.7646" y="60.4736" width="1.5" height="1.5" fill="#685F78"/>
<rect x="40.7646" y="60.4736" width="1.5" height="1.5" fill="#685F78"/>
<rect x="50.7646" y="60.4736" width="1.5" height="1.5" fill="#685F78"/>
<rect x="60.7646" y="60.4736" width="1.5" height="1.5" fill="#685F78"/>
<rect x="70.7651" y="60.4736" width="1.5" height="1.5" fill="#685F78"/>
<rect x="80.7646" y="60.4736" width="1.5" height="1.5" fill="#685F78"/>
<rect x="90.7646" y="60.4736" width="1.5" height="1.5" fill="#685F78"/>
<rect x="0.764648" y="70.4736" width="1.5" height="1.5" fill="#685F78"/>
<rect x="10.7646" y="70.4736" width="1.5" height="1.5" fill="#685F78"/>
<rect x="20.7642" y="70.4736" width="1.5" height="1.5" fill="#685F78"/>
<rect x="30.7646" y="70.4736" width="1.5" height="1.5" fill="#685F78"/>
<rect x="40.7646" y="70.4736" width="1.5" height="1.5" fill="#685F78"/>
<rect x="50.7646" y="70.4736" width="1.5" height="1.5" fill="#685F78"/>
<rect x="60.7646" y="70.4736" width="1.5" height="1.5" fill="#685F78"/>
<rect x="70.7651" y="70.4736" width="1.5" height="1.5" fill="#685F78"/>
<rect x="80.7646" y="70.4736" width="1.5" height="1.5" fill="#685F78"/>
<rect x="90.7646" y="70.4736" width="1.5" height="1.5" fill="#685F78"/>
<rect x="0.764648" y="80.4736" width="1.5" height="1.5" fill="#685F78"/>
<rect x="10.7646" y="80.4736" width="1.5" height="1.5" fill="#685F78"/>
<rect x="20.7642" y="80.4736" width="1.5" height="1.5" fill="#685F78"/>
<rect x="30.7646" y="80.4736" width="1.5" height="1.5" fill="#685F78"/>
<rect x="40.7646" y="80.4736" width="1.5" height="1.5" fill="#685F78"/>
<rect x="50.7646" y="80.4736" width="1.5" height="1.5" fill="#685F78"/>
<rect x="60.7646" y="80.4736" width="1.5" height="1.5" fill="#685F78"/>
<rect x="70.7651" y="80.4736" width="1.5" height="1.5" fill="#685F78"/>
<rect x="80.7646" y="80.4736" width="1.5" height="1.5" fill="#685F78"/>
<rect x="90.7646" y="80.4736" width="1.5" height="1.5" fill="#685F78"/>
<rect x="0.764648" y="90.4736" width="1.5" height="1.5" fill="#685F78"/>
<rect x="10.7646" y="90.4736" width="1.5" height="1.5" fill="#685F78"/>
<rect x="20.7642" y="90.4736" width="1.5" height="1.5" fill="#685F78"/>
<rect x="30.7646" y="90.4736" width="1.5" height="1.5" fill="#685F78"/>
<rect x="40.7646" y="90.4736" width="1.5" height="1.5" fill="#685F78"/>
<rect x="50.7646" y="90.4736" width="1.5" height="1.5" fill="#685F78"/>
<rect x="60.7646" y="90.4736" width="1.5" height="1.5" fill="#685F78"/>
<rect x="70.7651" y="90.4736" width="1.5" height="1.5" fill="#685F78"/>
<rect x="80.7646" y="90.4736" width="1.5" height="1.5" fill="#685F78"/>
<rect x="90.7646" y="90.4736" width="1.5" height="1.5" fill="#685F78"/>
<rect x="0.764648" y="100.474" width="1.5" height="1.5" fill="#685F78"/>
<rect x="10.7646" y="100.474" width="1.5" height="1.5" fill="#685F78"/>
<rect x="20.7642" y="100.474" width="1.5" height="1.5" fill="#685F78"/>
<rect x="30.7646" y="100.474" width="1.5" height="1.5" fill="#685F78"/>
<rect x="40.7646" y="100.474" width="1.5" height="1.5" fill="#685F78"/>
<rect x="50.7646" y="100.474" width="1.5" height="1.5" fill="#685F78"/>
<rect x="60.7646" y="100.474" width="1.5" height="1.5" fill="#685F78"/>
<rect x="70.7651" y="100.474" width="1.5" height="1.5" fill="#685F78"/>
<rect x="80.7646" y="100.474" width="1.5" height="1.5" fill="#685F78"/>
<rect x="90.7646" y="100.474" width="1.5" height="1.5" fill="#685F78"/>
</svg>
