<svg width="128" height="127" viewBox="0 0 128 127" fill="none" xmlns="http://www.w3.org/2000/svg">
<path d="M123.344 29.5594C123.695 30.1682 124.037 30.7829 124.37 31.4033C123.766 31.0078 123.362 30.3314 123.344 29.5594Z" fill="#E7E7E7"/>
<path d="M110.935 13.9139C111.991 14.9049 113.016 15.9292 114.007 16.9852C113.623 17.6935 112.874 18.1745 112.012 18.1745C110.761 18.1745 109.746 17.1599 109.746 15.9083C109.746 15.0465 110.227 14.2971 110.935 13.9139Z" fill="#E7E7E7"/>
<path d="M96.5172 3.55021C97.1376 3.88308 97.7523 4.22531 98.361 4.57669C97.5891 4.55868 96.9126 4.15467 96.5172 3.55021Z" fill="#E7E7E7"/>
<path d="M30.4828 4.57669C31.0915 4.22531 31.7062 3.88308 32.3267 3.55021C31.9312 4.15467 31.2547 4.55868 30.4828 4.57669Z" fill="#E7E7E7"/>
<path d="M14.8372 16.9852C15.8282 15.9292 16.8526 14.9049 17.9086 13.9139C18.6168 14.2971 19.0979 15.0465 19.0979 15.9083C19.0979 17.1599 18.0833 18.1745 16.8317 18.1745C15.9699 18.1745 15.2204 17.6935 14.8372 16.9852Z" fill="#E7E7E7"/>
<path d="M4.47355 31.4033C4.80642 30.7829 5.14865 30.1682 5.50003 29.5594C5.48202 30.3314 5.07801 31.0078 4.47355 31.4033Z" fill="#E7E7E7"/>
<path d="M124.37 95.5938C124.037 96.2143 123.695 96.829 123.344 97.4377C123.362 96.6658 123.766 95.9893 124.37 95.5938Z" fill="#E7E7E7"/>
<path d="M114.007 110.012C113.623 109.304 112.874 108.823 112.012 108.823C110.761 108.823 109.746 109.837 109.746 111.089C109.746 111.951 110.227 112.7 110.935 113.083C111.991 112.092 113.016 111.068 114.007 110.012Z" fill="#E7E7E7"/>
<path d="M98.361 122.42C97.5891 122.438 96.9126 122.842 96.5172 123.447C97.1376 123.114 97.7523 122.772 98.361 122.42Z" fill="#E7E7E7"/>
<path d="M32.3267 123.447C31.9312 122.842 31.2547 122.438 30.4828 122.42C31.0915 122.772 31.7062 123.114 32.3267 123.447Z" fill="#E7E7E7"/>
<path d="M17.9086 113.083C18.6168 112.7 19.0979 111.951 19.0979 111.089C19.0979 109.837 18.0833 108.823 16.8317 108.823C15.9699 108.823 15.2204 109.304 14.8372 110.012C15.8282 111.068 16.8526 112.092 17.9086 113.083Z" fill="#E7E7E7"/>
<path d="M5.50003 97.4377C5.48202 96.6658 5.07801 95.9893 4.47355 95.5938C4.80642 96.2143 5.14865 96.829 5.50003 97.4377Z" fill="#E7E7E7"/>
<path d="M46.2923 2.31112C46.2923 3.56271 45.2777 4.57733 44.0261 4.57733C42.7745 4.57733 41.7599 3.56271 41.7599 2.31112C41.7599 1.05954 42.7745 0.0449219 44.0261 0.0449219C45.2777 0.0449219 46.2923 1.05954 46.2923 2.31112Z" fill="#E7E7E7"/>
<path d="M59.8895 2.31112C59.8895 3.56271 58.8749 4.57733 57.6233 4.57733C56.3717 4.57733 55.3571 3.56271 55.3571 2.31112C55.3571 1.05954 56.3717 0.0449219 57.6233 0.0449219C58.8749 0.0449219 59.8895 1.05954 59.8895 2.31112Z" fill="#E7E7E7"/>
<path d="M73.4867 2.31112C73.4867 3.56271 72.4721 4.57733 71.2205 4.57733C69.9689 4.57733 68.9543 3.56271 68.9543 2.31112C68.9543 1.05954 69.9689 0.0449219 71.2205 0.0449219C72.4721 0.0449219 73.4867 1.05954 73.4867 2.31112Z" fill="#E7E7E7"/>
<path d="M87.0839 2.31112C87.0839 3.56271 86.0693 4.57733 84.8177 4.57733C83.5661 4.57733 82.5515 3.56271 82.5515 2.31112C82.5515 1.05954 83.5661 0.0449219 84.8177 0.0449219C86.0693 0.0449219 87.0839 1.05954 87.0839 2.31112Z" fill="#E7E7E7"/>
<path d="M32.6951 15.9083C32.6951 17.1599 31.6805 18.1745 30.4289 18.1745C29.1773 18.1745 28.1627 17.1599 28.1627 15.9083C28.1627 14.6567 29.1773 13.6421 30.4289 13.6421C31.6805 13.6421 32.6951 14.6567 32.6951 15.9083Z" fill="#E7E7E7"/>
<path d="M46.2923 15.9083C46.2923 17.1599 45.2777 18.1745 44.0261 18.1745C42.7745 18.1745 41.7599 17.1599 41.7599 15.9083C41.7599 14.6567 42.7745 13.6421 44.0261 13.6421C45.2777 13.6421 46.2923 14.6567 46.2923 15.9083Z" fill="#E7E7E7"/>
<path d="M59.8895 15.9083C59.8895 17.1599 58.8749 18.1745 57.6233 18.1745C56.3717 18.1745 55.3571 17.1599 55.3571 15.9083C55.3571 14.6567 56.3717 13.6421 57.6233 13.6421C58.8749 13.6421 59.8895 14.6567 59.8895 15.9083Z" fill="#E7E7E7"/>
<path d="M73.4867 15.9083C73.4867 17.1599 72.4721 18.1745 71.2205 18.1745C69.9689 18.1745 68.9543 17.1599 68.9543 15.9083C68.9543 14.6567 69.9689 13.6421 71.2205 13.6421C72.4721 13.6421 73.4867 14.6567 73.4867 15.9083Z" fill="#E7E7E7"/>
<path d="M87.0839 15.9083C87.0839 17.1599 86.0693 18.1745 84.8177 18.1745C83.5661 18.1745 82.5515 17.1599 82.5515 15.9083C82.5515 14.6567 83.5661 13.6421 84.8177 13.6421C86.0693 13.6421 87.0839 14.6567 87.0839 15.9083Z" fill="#E7E7E7"/>
<path d="M100.681 15.9083C100.681 17.1599 99.6665 18.1745 98.4149 18.1745C97.1633 18.1745 96.1487 17.1599 96.1487 15.9083C96.1487 14.6567 97.1633 13.6421 98.4149 13.6421C99.6665 13.6421 100.681 14.6567 100.681 15.9083Z" fill="#E7E7E7"/>
<path d="M19.0979 29.5055C19.0979 30.7571 18.0833 31.7717 16.8317 31.7717C15.5801 31.7717 14.5655 30.7571 14.5655 29.5055C14.5655 28.254 15.5801 27.2393 16.8317 27.2393C18.0833 27.2393 19.0979 28.254 19.0979 29.5055Z" fill="#E7E7E7"/>
<path d="M32.6951 29.5055C32.6951 30.7571 31.6805 31.7717 30.4289 31.7717C29.1773 31.7717 28.1627 30.7571 28.1627 29.5055C28.1627 28.254 29.1773 27.2393 30.4289 27.2393C31.6805 27.2393 32.6951 28.254 32.6951 29.5055Z" fill="#E7E7E7"/>
<path d="M46.2923 29.5055C46.2923 30.7571 45.2777 31.7717 44.0261 31.7717C42.7745 31.7717 41.7599 30.7571 41.7599 29.5055C41.7599 28.254 42.7745 27.2393 44.0261 27.2393C45.2777 27.2393 46.2923 28.254 46.2923 29.5055Z" fill="#E7E7E7"/>
<path d="M59.8895 29.5055C59.8895 30.7571 58.8749 31.7717 57.6233 31.7717C56.3717 31.7717 55.3571 30.7571 55.3571 29.5055C55.3571 28.254 56.3717 27.2393 57.6233 27.2393C58.8749 27.2393 59.8895 28.254 59.8895 29.5055Z" fill="#E7E7E7"/>
<path d="M73.4867 29.5055C73.4867 30.7571 72.4721 31.7717 71.2205 31.7717C69.9689 31.7717 68.9543 30.7571 68.9543 29.5055C68.9543 28.254 69.9689 27.2393 71.2205 27.2393C72.4721 27.2393 73.4867 28.254 73.4867 29.5055Z" fill="#E7E7E7"/>
<path d="M87.0839 29.5055C87.0839 30.7571 86.0693 31.7717 84.8177 31.7717C83.5661 31.7717 82.5515 30.7571 82.5515 29.5055C82.5515 28.254 83.5661 27.2393 84.8177 27.2393C86.0693 27.2393 87.0839 28.254 87.0839 29.5055Z" fill="#E7E7E7"/>
<path d="M100.681 29.5055C100.681 30.7571 99.6665 31.7717 98.4149 31.7717C97.1633 31.7717 96.1487 30.7571 96.1487 29.5055C96.1487 28.254 97.1633 27.2393 98.4149 27.2393C99.6665 27.2393 100.681 28.254 100.681 29.5055Z" fill="#E7E7E7"/>
<path d="M114.278 29.5055C114.278 30.7571 113.264 31.7717 112.012 31.7717C110.761 31.7717 109.746 30.7571 109.746 29.5055C109.746 28.254 110.761 27.2393 112.012 27.2393C113.264 27.2393 114.278 28.254 114.278 29.5055Z" fill="#E7E7E7"/>
<path d="M5.50067 43.1028C5.50067 44.3543 4.48605 45.369 3.23446 45.369C1.98287 45.369 0.968262 44.3543 0.968262 43.1028C0.968262 41.8512 1.98287 40.8366 3.23446 40.8366C4.48605 40.8366 5.50067 41.8512 5.50067 43.1028Z" fill="#E7E7E7"/>
<path d="M19.0979 43.1028C19.0979 44.3543 18.0833 45.369 16.8317 45.369C15.5801 45.369 14.5655 44.3543 14.5655 43.1028C14.5655 41.8512 15.5801 40.8366 16.8317 40.8366C18.0833 40.8366 19.0979 41.8512 19.0979 43.1028Z" fill="#E7E7E7"/>
<path d="M32.6951 43.1028C32.6951 44.3543 31.6805 45.369 30.4289 45.369C29.1773 45.369 28.1627 44.3543 28.1627 43.1028C28.1627 41.8512 29.1773 40.8366 30.4289 40.8366C31.6805 40.8366 32.6951 41.8512 32.6951 43.1028Z" fill="#E7E7E7"/>
<path d="M46.2923 43.1028C46.2923 44.3543 45.2777 45.369 44.0261 45.369C42.7745 45.369 41.7599 44.3543 41.7599 43.1028C41.7599 41.8512 42.7745 40.8366 44.0261 40.8366C45.2777 40.8366 46.2923 41.8512 46.2923 43.1028Z" fill="#E7E7E7"/>
<path d="M59.8895 43.1028C59.8895 44.3543 58.8749 45.369 57.6233 45.369C56.3717 45.369 55.3571 44.3543 55.3571 43.1028C55.3571 41.8512 56.3717 40.8366 57.6233 40.8366C58.8749 40.8366 59.8895 41.8512 59.8895 43.1028Z" fill="#E7E7E7"/>
<path d="M73.4867 43.1028C73.4867 44.3543 72.4721 45.369 71.2205 45.369C69.9689 45.369 68.9543 44.3543 68.9543 43.1028C68.9543 41.8512 69.9689 40.8366 71.2205 40.8366C72.4721 40.8366 73.4867 41.8512 73.4867 43.1028Z" fill="#E7E7E7"/>
<path d="M87.0839 43.1028C87.0839 44.3543 86.0693 45.369 84.8177 45.369C83.5661 45.369 82.5515 44.3543 82.5515 43.1028C82.5515 41.8512 83.5661 40.8366 84.8177 40.8366C86.0693 40.8366 87.0839 41.8512 87.0839 43.1028Z" fill="#E7E7E7"/>
<path d="M100.681 43.1028C100.681 44.3543 99.6665 45.369 98.4149 45.369C97.1633 45.369 96.1487 44.3543 96.1487 43.1028C96.1487 41.8512 97.1633 40.8366 98.4149 40.8366C99.6665 40.8366 100.681 41.8512 100.681 43.1028Z" fill="#E7E7E7"/>
<path d="M114.278 43.1028C114.278 44.3543 113.264 45.369 112.012 45.369C110.761 45.369 109.746 44.3543 109.746 43.1028C109.746 41.8512 110.761 40.8366 112.012 40.8366C113.264 40.8366 114.278 41.8512 114.278 43.1028Z" fill="#E7E7E7"/>
<path d="M127.876 43.1028C127.876 44.3543 126.861 45.369 125.609 45.369C124.358 45.369 123.343 44.3543 123.343 43.1028C123.343 41.8512 124.358 40.8366 125.609 40.8366C126.861 40.8366 127.876 41.8512 127.876 43.1028Z" fill="#E7E7E7"/>
<path d="M5.50067 56.7C5.50067 57.9516 4.48605 58.9662 3.23446 58.9662C1.98287 58.9662 0.968262 57.9516 0.968262 56.7C0.968262 55.4484 1.98287 54.4338 3.23446 54.4338C4.48605 54.4338 5.50067 55.4484 5.50067 56.7Z" fill="#E7E7E7"/>
<path d="M19.0979 56.7C19.0979 57.9516 18.0833 58.9662 16.8317 58.9662C15.5801 58.9662 14.5655 57.9516 14.5655 56.7C14.5655 55.4484 15.5801 54.4338 16.8317 54.4338C18.0833 54.4338 19.0979 55.4484 19.0979 56.7Z" fill="#E7E7E7"/>
<path d="M32.6951 56.7C32.6951 57.9516 31.6805 58.9662 30.4289 58.9662C29.1773 58.9662 28.1627 57.9516 28.1627 56.7C28.1627 55.4484 29.1773 54.4338 30.4289 54.4338C31.6805 54.4338 32.6951 55.4484 32.6951 56.7Z" fill="#E7E7E7"/>
<path d="M46.2923 56.7C46.2923 57.9516 45.2777 58.9662 44.0261 58.9662C42.7745 58.9662 41.7599 57.9516 41.7599 56.7C41.7599 55.4484 42.7745 54.4338 44.0261 54.4338C45.2777 54.4338 46.2923 55.4484 46.2923 56.7Z" fill="#E7E7E7"/>
<path d="M59.8895 56.7C59.8895 57.9516 58.8749 58.9662 57.6233 58.9662C56.3717 58.9662 55.3571 57.9516 55.3571 56.7C55.3571 55.4484 56.3717 54.4338 57.6233 54.4338C58.8749 54.4338 59.8895 55.4484 59.8895 56.7Z" fill="#E7E7E7"/>
<path d="M73.4867 56.7C73.4867 57.9516 72.4721 58.9662 71.2205 58.9662C69.9689 58.9662 68.9543 57.9516 68.9543 56.7C68.9543 55.4484 69.9689 54.4338 71.2205 54.4338C72.4721 54.4338 73.4867 55.4484 73.4867 56.7Z" fill="#E7E7E7"/>
<path d="M87.0839 56.7C87.0839 57.9516 86.0693 58.9662 84.8177 58.9662C83.5661 58.9662 82.5515 57.9516 82.5515 56.7C82.5515 55.4484 83.5661 54.4338 84.8177 54.4338C86.0693 54.4338 87.0839 55.4484 87.0839 56.7Z" fill="#E7E7E7"/>
<path d="M100.681 56.7C100.681 57.9516 99.6665 58.9662 98.4149 58.9662C97.1633 58.9662 96.1487 57.9516 96.1487 56.7C96.1487 55.4484 97.1633 54.4338 98.4149 54.4338C99.6665 54.4338 100.681 55.4484 100.681 56.7Z" fill="#E7E7E7"/>
<path d="M114.278 56.7C114.278 57.9516 113.264 58.9662 112.012 58.9662C110.761 58.9662 109.746 57.9516 109.746 56.7C109.746 55.4484 110.761 54.4338 112.012 54.4338C113.264 54.4338 114.278 55.4484 114.278 56.7Z" fill="#E7E7E7"/>
<path d="M127.876 56.7C127.876 57.9516 126.861 58.9662 125.609 58.9662C124.358 58.9662 123.343 57.9516 123.343 56.7C123.343 55.4484 124.358 54.4338 125.609 54.4338C126.861 54.4338 127.876 55.4484 127.876 56.7Z" fill="#E7E7E7"/>
<path d="M5.50067 70.2972C5.50067 71.5488 4.48605 72.5634 3.23446 72.5634C1.98287 72.5634 0.968262 71.5488 0.968262 70.2972C0.968262 69.0456 1.98287 68.031 3.23446 68.031C4.48605 68.031 5.50067 69.0456 5.50067 70.2972Z" fill="#E7E7E7"/>
<path d="M19.0979 70.2972C19.0979 71.5488 18.0833 72.5634 16.8317 72.5634C15.5801 72.5634 14.5655 71.5488 14.5655 70.2972C14.5655 69.0456 15.5801 68.031 16.8317 68.031C18.0833 68.031 19.0979 69.0456 19.0979 70.2972Z" fill="#E7E7E7"/>
<path d="M32.6951 70.2972C32.6951 71.5488 31.6805 72.5634 30.4289 72.5634C29.1773 72.5634 28.1627 71.5488 28.1627 70.2972C28.1627 69.0456 29.1773 68.031 30.4289 68.031C31.6805 68.031 32.6951 69.0456 32.6951 70.2972Z" fill="#E7E7E7"/>
<path d="M46.2923 70.2972C46.2923 71.5488 45.2777 72.5634 44.0261 72.5634C42.7745 72.5634 41.7599 71.5488 41.7599 70.2972C41.7599 69.0456 42.7745 68.031 44.0261 68.031C45.2777 68.031 46.2923 69.0456 46.2923 70.2972Z" fill="#E7E7E7"/>
<path d="M59.8895 70.2972C59.8895 71.5488 58.8749 72.5634 57.6233 72.5634C56.3717 72.5634 55.3571 71.5488 55.3571 70.2972C55.3571 69.0456 56.3717 68.031 57.6233 68.031C58.8749 68.031 59.8895 69.0456 59.8895 70.2972Z" fill="#E7E7E7"/>
<path d="M73.4867 70.2972C73.4867 71.5488 72.4721 72.5634 71.2205 72.5634C69.9689 72.5634 68.9543 71.5488 68.9543 70.2972C68.9543 69.0456 69.9689 68.031 71.2205 68.031C72.4721 68.031 73.4867 69.0456 73.4867 70.2972Z" fill="#E7E7E7"/>
<path d="M87.0839 70.2972C87.0839 71.5488 86.0693 72.5634 84.8177 72.5634C83.5661 72.5634 82.5515 71.5488 82.5515 70.2972C82.5515 69.0456 83.5661 68.031 84.8177 68.031C86.0693 68.031 87.0839 69.0456 87.0839 70.2972Z" fill="#E7E7E7"/>
<path d="M100.681 70.2972C100.681 71.5488 99.6665 72.5634 98.4149 72.5634C97.1633 72.5634 96.1487 71.5488 96.1487 70.2972C96.1487 69.0456 97.1633 68.031 98.4149 68.031C99.6665 68.031 100.681 69.0456 100.681 70.2972Z" fill="#E7E7E7"/>
<path d="M114.278 70.2972C114.278 71.5488 113.264 72.5634 112.012 72.5634C110.761 72.5634 109.746 71.5488 109.746 70.2972C109.746 69.0456 110.761 68.031 112.012 68.031C113.264 68.031 114.278 69.0456 114.278 70.2972Z" fill="#E7E7E7"/>
<path d="M127.876 70.2972C127.876 71.5488 126.861 72.5634 125.609 72.5634C124.358 72.5634 123.343 71.5488 123.343 70.2972C123.343 69.0456 124.358 68.031 125.609 68.031C126.861 68.031 127.876 69.0456 127.876 70.2972Z" fill="#E7E7E7"/>
<path d="M5.50067 83.8944C5.50067 85.146 4.48605 86.1606 3.23446 86.1606C1.98287 86.1606 0.968262 85.146 0.968262 83.8944C0.968262 82.6428 1.98287 81.6282 3.23446 81.6282C4.48605 81.6282 5.50067 82.6428 5.50067 83.8944Z" fill="#E7E7E7"/>
<path d="M19.0979 83.8944C19.0979 85.146 18.0833 86.1606 16.8317 86.1606C15.5801 86.1606 14.5655 85.146 14.5655 83.8944C14.5655 82.6428 15.5801 81.6282 16.8317 81.6282C18.0833 81.6282 19.0979 82.6428 19.0979 83.8944Z" fill="#E7E7E7"/>
<path d="M32.6951 83.8944C32.6951 85.146 31.6805 86.1606 30.4289 86.1606C29.1773 86.1606 28.1627 85.146 28.1627 83.8944C28.1627 82.6428 29.1773 81.6282 30.4289 81.6282C31.6805 81.6282 32.6951 82.6428 32.6951 83.8944Z" fill="#E7E7E7"/>
<path d="M46.2923 83.8944C46.2923 85.146 45.2777 86.1606 44.0261 86.1606C42.7745 86.1606 41.7599 85.146 41.7599 83.8944C41.7599 82.6428 42.7745 81.6282 44.0261 81.6282C45.2777 81.6282 46.2923 82.6428 46.2923 83.8944Z" fill="#E7E7E7"/>
<path d="M59.8895 83.8944C59.8895 85.146 58.8749 86.1606 57.6233 86.1606C56.3717 86.1606 55.3571 85.146 55.3571 83.8944C55.3571 82.6428 56.3717 81.6282 57.6233 81.6282C58.8749 81.6282 59.8895 82.6428 59.8895 83.8944Z" fill="#E7E7E7"/>
<path d="M73.4867 83.8944C73.4867 85.146 72.4721 86.1606 71.2205 86.1606C69.9689 86.1606 68.9543 85.146 68.9543 83.8944C68.9543 82.6428 69.9689 81.6282 71.2205 81.6282C72.4721 81.6282 73.4867 82.6428 73.4867 83.8944Z" fill="#E7E7E7"/>
<path d="M87.0839 83.8944C87.0839 85.146 86.0693 86.1606 84.8177 86.1606C83.5661 86.1606 82.5515 85.146 82.5515 83.8944C82.5515 82.6428 83.5661 81.6282 84.8177 81.6282C86.0693 81.6282 87.0839 82.6428 87.0839 83.8944Z" fill="#E7E7E7"/>
<path d="M100.681 83.8944C100.681 85.146 99.6665 86.1606 98.4149 86.1606C97.1633 86.1606 96.1487 85.146 96.1487 83.8944C96.1487 82.6428 97.1633 81.6282 98.4149 81.6282C99.6665 81.6282 100.681 82.6428 100.681 83.8944Z" fill="#E7E7E7"/>
<path d="M114.278 83.8944C114.278 85.146 113.264 86.1606 112.012 86.1606C110.761 86.1606 109.746 85.146 109.746 83.8944C109.746 82.6428 110.761 81.6282 112.012 81.6282C113.264 81.6282 114.278 82.6428 114.278 83.8944Z" fill="#E7E7E7"/>
<path d="M127.876 83.8944C127.876 85.146 126.861 86.1606 125.609 86.1606C124.358 86.1606 123.343 85.146 123.343 83.8944C123.343 82.6428 124.358 81.6282 125.609 81.6282C126.861 81.6282 127.876 82.6428 127.876 83.8944Z" fill="#E7E7E7"/>
<path d="M19.0979 97.4916C19.0979 98.7432 18.0833 99.7578 16.8317 99.7578C15.5801 99.7578 14.5655 98.7432 14.5655 97.4916C14.5655 96.24 15.5801 95.2254 16.8317 95.2254C18.0833 95.2254 19.0979 96.24 19.0979 97.4916Z" fill="#E7E7E7"/>
<path d="M32.6951 97.4916C32.6951 98.7432 31.6805 99.7578 30.4289 99.7578C29.1773 99.7578 28.1627 98.7432 28.1627 97.4916C28.1627 96.24 29.1773 95.2254 30.4289 95.2254C31.6805 95.2254 32.6951 96.24 32.6951 97.4916Z" fill="#E7E7E7"/>
<path d="M46.2923 97.4916C46.2923 98.7432 45.2777 99.7578 44.0261 99.7578C42.7745 99.7578 41.7599 98.7432 41.7599 97.4916C41.7599 96.24 42.7745 95.2254 44.0261 95.2254C45.2777 95.2254 46.2923 96.24 46.2923 97.4916Z" fill="#E7E7E7"/>
<path d="M59.8895 97.4916C59.8895 98.7432 58.8749 99.7578 57.6233 99.7578C56.3717 99.7578 55.3571 98.7432 55.3571 97.4916C55.3571 96.24 56.3717 95.2254 57.6233 95.2254C58.8749 95.2254 59.8895 96.24 59.8895 97.4916Z" fill="#E7E7E7"/>
<path d="M73.4867 97.4916C73.4867 98.7432 72.4721 99.7578 71.2205 99.7578C69.9689 99.7578 68.9543 98.7432 68.9543 97.4916C68.9543 96.24 69.9689 95.2254 71.2205 95.2254C72.4721 95.2254 73.4867 96.24 73.4867 97.4916Z" fill="#E7E7E7"/>
<path d="M87.0839 97.4916C87.0839 98.7432 86.0693 99.7578 84.8177 99.7578C83.5661 99.7578 82.5515 98.7432 82.5515 97.4916C82.5515 96.24 83.5661 95.2254 84.8177 95.2254C86.0693 95.2254 87.0839 96.24 87.0839 97.4916Z" fill="#E7E7E7"/>
<path d="M100.681 97.4916C100.681 98.7432 99.6665 99.7578 98.4149 99.7578C97.1633 99.7578 96.1487 98.7432 96.1487 97.4916C96.1487 96.24 97.1633 95.2254 98.4149 95.2254C99.6665 95.2254 100.681 96.24 100.681 97.4916Z" fill="#E7E7E7"/>
<path d="M114.278 97.4916C114.278 98.7432 113.264 99.7578 112.012 99.7578C110.761 99.7578 109.746 98.7432 109.746 97.4916C109.746 96.24 110.761 95.2254 112.012 95.2254C113.264 95.2254 114.278 96.24 114.278 97.4916Z" fill="#E7E7E7"/>
<path d="M32.6951 111.089C32.6951 112.34 31.6805 113.355 30.4289 113.355C29.1773 113.355 28.1627 112.34 28.1627 111.089C28.1627 109.837 29.1773 108.823 30.4289 108.823C31.6805 108.823 32.6951 109.837 32.6951 111.089Z" fill="#E7E7E7"/>
<path d="M46.2923 111.089C46.2923 112.34 45.2777 113.355 44.0261 113.355C42.7745 113.355 41.7599 112.34 41.7599 111.089C41.7599 109.837 42.7745 108.823 44.0261 108.823C45.2777 108.823 46.2923 109.837 46.2923 111.089Z" fill="#E7E7E7"/>
<path d="M59.8895 111.089C59.8895 112.34 58.8749 113.355 57.6233 113.355C56.3717 113.355 55.3571 112.34 55.3571 111.089C55.3571 109.837 56.3717 108.823 57.6233 108.823C58.8749 108.823 59.8895 109.837 59.8895 111.089Z" fill="#E7E7E7"/>
<path d="M73.4867 111.089C73.4867 112.34 72.4721 113.355 71.2205 113.355C69.9689 113.355 68.9543 112.34 68.9543 111.089C68.9543 109.837 69.9689 108.823 71.2205 108.823C72.4721 108.823 73.4867 109.837 73.4867 111.089Z" fill="#E7E7E7"/>
<path d="M87.0839 111.089C87.0839 112.34 86.0693 113.355 84.8177 113.355C83.5661 113.355 82.5515 112.34 82.5515 111.089C82.5515 109.837 83.5661 108.823 84.8177 108.823C86.0693 108.823 87.0839 109.837 87.0839 111.089Z" fill="#E7E7E7"/>
<path d="M100.681 111.089C100.681 112.34 99.6665 113.355 98.4149 113.355C97.1633 113.355 96.1487 112.34 96.1487 111.089C96.1487 109.837 97.1633 108.823 98.4149 108.823C99.6665 108.823 100.681 109.837 100.681 111.089Z" fill="#E7E7E7"/>
<path d="M46.2923 124.686C46.2923 125.938 45.2777 126.952 44.0261 126.952C42.7745 126.952 41.7599 125.938 41.7599 124.686C41.7599 123.434 42.7745 122.42 44.0261 122.42C45.2777 122.42 46.2923 123.434 46.2923 124.686Z" fill="#E7E7E7"/>
<path d="M59.8895 124.686C59.8895 125.938 58.8749 126.952 57.6233 126.952C56.3717 126.952 55.3571 125.938 55.3571 124.686C55.3571 123.434 56.3717 122.42 57.6233 122.42C58.8749 122.42 59.8895 123.434 59.8895 124.686Z" fill="#E7E7E7"/>
<path d="M73.4867 124.686C73.4867 125.938 72.4721 126.952 71.2205 126.952C69.9689 126.952 68.9543 125.938 68.9543 124.686C68.9543 123.434 69.9689 122.42 71.2205 122.42C72.4721 122.42 73.4867 123.434 73.4867 124.686Z" fill="#E7E7E7"/>
<path d="M87.0839 124.686C87.0839 125.938 86.0693 126.952 84.8177 126.952C83.5661 126.952 82.5515 125.938 82.5515 124.686C82.5515 123.434 83.5661 122.42 84.8177 122.42C86.0693 122.42 87.0839 123.434 87.0839 124.686Z" fill="#E7E7E7"/>
</svg>
