<svg width="156" height="36" viewBox="0 0 156 36" fill="none" xmlns="http://www.w3.org/2000/svg">
<path d="M53.3598 29.1555C52.7791 29.1555 52.3435 29.0546 52.0531 28.8529C51.7627 28.6736 51.5728 28.4271 51.4834 28.1133C51.3941 27.7995 51.3494 27.4634 51.3494 27.1048V7.67381C51.3494 7.31522 51.3829 6.99025 51.4499 6.6989C51.5393 6.38514 51.7292 6.13861 52.0196 5.95931C52.31 5.75761 52.7679 5.65675 53.3934 5.65675L59.6927 5.69037C61.3234 5.69037 62.82 5.97052 64.1827 6.53081C65.5676 7.09111 66.7627 7.88672 67.7679 8.91766C68.7732 9.9486 69.5438 11.1812 70.0799 12.6156C70.6384 14.0275 70.9176 15.5852 70.9176 17.2884C70.9176 19.0366 70.6384 20.639 70.0799 22.0958C69.5215 23.5525 68.7396 24.8076 67.7344 25.8609C66.7292 26.9143 65.5341 27.7323 64.1492 28.315C62.7865 28.8753 61.2675 29.1555 59.5922 29.1555H53.3598ZM55.4038 25.0877H59.6927C61.1223 25.0877 62.3733 24.774 63.4455 24.1464C64.5177 23.4965 65.3443 22.6 65.925 21.457C66.5282 20.314 66.8297 18.9805 66.8297 17.4565C66.8297 15.9101 66.5282 14.5654 65.925 13.4224C65.3443 12.257 64.5066 11.3605 63.412 10.733C62.3398 10.0831 61.0888 9.7581 59.6592 9.7581H55.4038V25.0877Z" fill="#392C7D"/>
<path d="M74.3919 29.1891C73.7888 29.1891 73.342 29.0882 73.0516 28.8865C72.7835 28.7072 72.616 28.4607 72.549 28.1469C72.482 27.8332 72.4485 27.4858 72.4485 27.1048V14.6327C72.4485 14.2292 72.482 13.8819 72.549 13.5905C72.616 13.2767 72.7835 13.0414 73.0516 12.8845C73.342 12.7052 73.7999 12.6156 74.4254 12.6156C75.0285 12.6156 75.4641 12.694 75.7322 12.8509C76.0226 13.0078 76.2013 13.2095 76.2683 13.456C76.3577 13.6802 76.4023 13.9043 76.4023 14.1284L76.1343 14.7335C76.246 14.5542 76.4023 14.3413 76.6034 14.0948C76.8044 13.8258 77.0725 13.5681 77.4075 13.3216C77.7426 13.0526 78.1447 12.8397 78.6138 12.6828C79.0829 12.5035 79.6414 12.4139 80.2892 12.4139C80.5572 12.4139 80.8365 12.4475 81.1268 12.5147C81.4396 12.5596 81.7411 12.638 82.0315 12.7501C82.3443 12.8397 82.6235 12.963 82.8692 13.1199C83.1149 13.2767 83.3048 13.4672 83.4388 13.6914C83.5729 13.8931 83.6399 14.1284 83.6399 14.3973C83.6399 15.1145 83.4612 15.7196 83.1038 16.2127C82.7464 16.7057 82.3219 16.9523 81.8305 16.9523C81.4954 16.9523 81.2497 16.9187 81.0933 16.8514C80.937 16.7842 80.8029 16.7057 80.6913 16.6161C80.6019 16.5264 80.4567 16.448 80.2557 16.3808C80.077 16.3135 79.7866 16.2799 79.3845 16.2799C79.0494 16.2799 78.7032 16.3359 78.3457 16.448C78.0107 16.5601 77.6979 16.7282 77.4075 16.9523C77.1171 17.1764 76.8826 17.4677 76.7039 17.8263C76.5252 18.1625 76.4358 18.5547 76.4358 19.0029V27.172C76.4358 27.553 76.4023 27.9004 76.3353 28.2142C76.2683 28.5055 76.0896 28.7408 75.7992 28.9201C75.5088 29.0994 75.0397 29.1891 74.3919 29.1891Z" fill="#392C7D"/>
<path d="M91.6067 29.3908C90.1548 29.3908 88.8815 29.1555 87.7869 28.6848C86.7147 28.2142 85.81 27.5754 85.0728 26.7686C84.358 25.9394 83.8107 25.0205 83.431 24.012C83.0736 22.981 82.8949 21.9165 82.8949 20.8183C82.8949 19.2046 83.2635 17.7703 84.0006 16.5152C84.7378 15.2602 85.7542 14.2741 87.0498 13.5569C88.3677 12.8397 89.8755 12.4811 91.5732 12.4811C92.7795 12.4811 93.8406 12.6716 94.7564 13.0526C95.6723 13.4336 96.4318 13.9379 97.0349 14.5654C97.6604 15.1705 98.1295 15.8429 98.4422 16.5825C98.7773 17.3221 98.9448 18.0392 98.9448 18.734C98.9448 19.9218 98.6544 20.7847 98.0736 21.3226C97.5152 21.8604 96.8115 22.1294 95.9627 22.1294H87.1168C87.1391 22.8914 87.3737 23.5525 87.8204 24.1128C88.2895 24.6731 88.8703 25.1101 89.5628 25.4239C90.2776 25.7153 91.0036 25.8609 91.7408 25.8609C92.2992 25.8609 92.7907 25.8273 93.2151 25.7601C93.6619 25.6928 94.0416 25.6144 94.3543 25.5248C94.6671 25.4127 94.9351 25.3006 95.1585 25.1886C95.4042 25.0765 95.6276 24.9757 95.8287 24.886C96.0297 24.7964 96.2196 24.7403 96.3983 24.7179C96.644 24.6955 96.8897 24.7516 97.1354 24.886C97.3811 25.0205 97.5822 25.2558 97.7386 25.592C97.8726 25.8161 97.9619 26.029 98.0066 26.2307C98.0736 26.41 98.1071 26.5893 98.1071 26.7686C98.1071 27.2168 97.8391 27.6427 97.303 28.0461C96.7669 28.4271 96.0074 28.7408 95.0245 28.9874C94.0639 29.2563 92.9247 29.3908 91.6067 29.3908ZM87.1168 19.7425H93.9858C94.3655 19.7425 94.6559 19.6865 94.8569 19.5744C95.058 19.44 95.1585 19.171 95.1585 18.7676C95.1585 18.2522 95.0021 17.7927 94.6894 17.3893C94.3767 16.9635 93.9522 16.6385 93.4161 16.4144C92.88 16.1679 92.2546 16.0446 91.5397 16.0446C90.7132 16.0446 89.9649 16.2127 89.2947 16.5489C88.6246 16.8626 88.0885 17.2997 87.6864 17.8599C87.3066 18.4202 87.1168 19.0478 87.1168 19.7425Z" fill="#392C7D"/>
<path d="M113.757 29.1218C113.109 29.1218 112.629 28.9986 112.316 28.752C112.004 28.5055 111.847 28.1693 111.847 27.7435L112.082 26.6341C111.903 26.9255 111.601 27.2729 111.177 27.6763C110.753 28.0573 110.194 28.4047 109.502 28.7184C108.809 29.0098 107.972 29.1555 106.989 29.1555C105.939 29.1555 104.945 28.9425 104.007 28.5167C103.091 28.0685 102.275 27.4634 101.56 26.7014C100.868 25.917 100.31 25.0317 99.8851 24.0456C99.483 23.0371 99.282 21.9613 99.282 20.8183C99.282 19.7201 99.483 18.6892 99.8851 17.7255C100.31 16.7394 100.879 15.8653 101.594 15.1033C102.309 14.3413 103.124 13.7474 104.04 13.3216C104.978 12.8733 105.961 12.6492 106.989 12.6492C107.905 12.6492 108.675 12.7725 109.301 13.019C109.948 13.2655 110.496 13.5793 110.942 13.9603C111.389 14.3189 111.758 14.6999 112.048 15.1033L111.847 14.1284C111.847 13.6353 112.004 13.2655 112.316 13.019C112.629 12.7501 113.12 12.6156 113.791 12.6156C114.416 12.6156 114.863 12.7165 115.131 12.9182C115.399 13.0975 115.566 13.3552 115.633 13.6914C115.701 14.0051 115.734 14.3637 115.734 14.7671V27.0712C115.734 27.4522 115.701 27.7995 115.633 28.1133C115.566 28.4271 115.388 28.6736 115.097 28.8529C114.829 29.0322 114.383 29.1218 113.757 29.1218ZM107.592 25.2222C108.351 25.2222 109.033 25.0317 109.636 24.6507C110.239 24.2697 110.719 23.7542 111.077 23.1043C111.456 22.4319 111.646 21.6924 111.646 20.8855C111.646 20.0115 111.456 19.2495 111.077 18.5995C110.697 17.9496 110.194 17.4453 109.569 17.0867C108.966 16.7057 108.284 16.5152 107.525 16.5152C106.698 16.5152 105.961 16.7169 105.313 17.1204C104.665 17.5014 104.152 18.028 103.772 18.7004C103.415 19.3503 103.236 20.0899 103.236 20.9191C103.236 21.726 103.426 22.4543 103.805 23.1043C104.185 23.7542 104.699 24.2697 105.347 24.6507C106.017 25.0317 106.765 25.2222 107.592 25.2222Z" fill="#392C7D"/>
<path d="M119.364 29.1555C118.761 29.1555 118.314 29.0658 118.024 28.8865C117.756 28.7072 117.588 28.4607 117.521 28.1469C117.454 27.8332 117.421 27.497 117.421 27.1384V14.5654C117.421 14.2068 117.454 13.8819 117.521 13.5905C117.588 13.2992 117.767 13.0638 118.057 12.8845C118.348 12.7052 118.806 12.6156 119.431 12.6156C120.079 12.6156 120.548 12.7501 120.838 13.019C121.151 13.288 121.307 13.7138 121.307 14.2965L121.006 15.2378C121.118 14.9912 121.307 14.7223 121.576 14.431C121.844 14.1396 122.167 13.8482 122.547 13.5569C122.949 13.2655 123.396 13.0302 123.888 12.8509C124.379 12.6716 124.893 12.582 125.429 12.582C126.166 12.582 126.836 12.7052 127.439 12.9518C128.065 13.1983 128.612 13.5569 129.081 14.0275C129.573 14.4982 129.997 15.0697 130.354 15.742C130.734 15.1593 131.159 14.6327 131.628 14.162C132.097 13.669 132.644 13.288 133.27 13.019C133.895 12.7277 134.599 12.582 135.38 12.582C136.676 12.582 137.76 12.907 138.631 13.5569C139.524 14.2068 140.194 15.1369 140.641 16.3472C141.11 17.535 141.345 18.9581 141.345 20.6166V27.1384C141.345 27.5194 141.3 27.8668 141.211 28.1805C141.144 28.4719 140.965 28.7072 140.675 28.8865C140.407 29.0658 139.96 29.1555 139.334 29.1555C138.709 29.1555 138.251 29.0546 137.961 28.8529C137.67 28.6736 137.491 28.4383 137.424 28.1469C137.357 27.8332 137.324 27.4858 137.324 27.1048V20.583C137.324 19.7537 137.223 19.0366 137.022 18.4314C136.821 17.8263 136.52 17.3557 136.118 17.0195C135.738 16.6833 135.235 16.5152 134.61 16.5152C133.94 16.5152 133.359 16.6833 132.867 17.0195C132.398 17.3333 132.03 17.7927 131.762 18.3978C131.494 19.0029 131.36 19.7425 131.36 20.6166V27.172C131.36 27.553 131.304 27.9116 131.192 28.2478C131.08 28.5615 130.857 28.7969 130.522 28.9538C130.209 29.133 129.751 29.2003 129.148 29.1555C128.59 29.133 128.176 29.021 127.908 28.8193C127.663 28.6176 127.506 28.371 127.439 28.0797C127.395 27.7659 127.372 27.441 127.372 27.1048V20.583C127.372 19.7537 127.272 19.0366 127.071 18.4314C126.87 17.8039 126.568 17.3333 126.166 17.0195C125.786 16.6833 125.272 16.5152 124.625 16.5152C123.932 16.5152 123.34 16.6945 122.849 17.0531C122.38 17.4117 122.022 17.8936 121.777 18.4987C121.531 19.1038 121.408 19.7986 121.408 20.583V27.172C121.408 27.5306 121.363 27.8668 121.274 28.1805C121.207 28.4943 121.028 28.7296 120.738 28.8865C120.47 29.0658 120.012 29.1555 119.364 29.1555Z" fill="#392C7D"/>
<path d="M148.765 29.3908C148.184 29.3908 147.57 29.3235 146.922 29.1891C146.274 29.077 145.649 28.9089 145.046 28.6848C144.443 28.4383 143.918 28.1581 143.471 27.8444C143.046 27.5082 142.778 27.1384 142.667 26.735C142.577 26.5109 142.544 26.298 142.566 26.0963C142.589 25.8721 142.656 25.648 142.767 25.4239C142.879 25.1774 143.046 24.9308 143.27 24.6843C143.471 24.4378 143.672 24.3033 143.873 24.2809C144.096 24.2361 144.376 24.3033 144.711 24.4826C145.001 24.5947 145.314 24.7403 145.649 24.9196C146.006 25.0989 146.364 25.2782 146.721 25.4575C147.101 25.6368 147.481 25.7825 147.86 25.8946C148.262 26.0066 148.653 26.0626 149.033 26.0626C149.86 26.0626 150.519 25.9282 151.01 25.6592C151.501 25.3679 151.747 24.9645 151.747 24.449C151.747 24.1576 151.669 23.8999 151.513 23.6758C151.356 23.4517 151.144 23.2724 150.876 23.1379C150.63 22.981 150.329 22.8466 149.971 22.7345C149.636 22.6 149.268 22.488 148.866 22.3983C148.486 22.2863 148.084 22.163 147.659 22.0285C147.101 21.8716 146.542 21.6811 145.984 21.457C145.426 21.2329 144.923 20.9416 144.476 20.583C144.052 20.2244 143.705 19.7761 143.437 19.2383C143.169 18.7004 143.035 18.028 143.035 17.2212C143.035 16.2127 143.27 15.361 143.739 14.6663C144.23 13.9491 144.934 13.4 145.85 13.019C146.766 12.638 147.872 12.4475 149.167 12.4475C149.614 12.4475 150.038 12.4811 150.44 12.5484C150.865 12.6156 151.267 12.7165 151.647 12.8509C152.049 12.963 152.428 13.1087 152.786 13.288C153.166 13.4672 153.523 13.669 153.858 13.8931C154.417 14.2068 154.707 14.5766 154.729 15.0024C154.752 15.4059 154.595 15.8429 154.26 16.3135C154.015 16.6273 153.769 16.8514 153.523 16.9859C153.277 17.0979 153.02 17.0979 152.752 16.9859C152.395 16.8066 152.004 16.6161 151.58 16.4144C151.178 16.1903 150.753 15.9998 150.306 15.8429C149.882 15.686 149.435 15.6076 148.966 15.6076C148.519 15.6076 148.117 15.6748 147.76 15.8093C147.402 15.9437 147.134 16.1342 146.956 16.3808C146.777 16.6273 146.688 16.9187 146.688 17.2548C146.688 17.5686 146.777 17.8263 146.956 18.028C147.134 18.2297 147.369 18.3978 147.659 18.5323C147.95 18.6668 148.296 18.79 148.698 18.9021C149.1 18.9917 149.525 19.0814 149.971 19.171C150.597 19.3055 151.233 19.4736 151.881 19.6753C152.529 19.877 153.121 20.1571 153.657 20.5157C154.216 20.8743 154.662 21.3562 154.997 21.9613C155.332 22.544 155.5 23.306 155.5 24.2473C155.5 25.8833 154.897 27.1496 153.691 28.0461C152.507 28.9425 150.865 29.3908 148.765 29.3908Z" fill="#392C7D"/>
<path d="M134.056 10.1541C133.803 10.1541 133.62 10.1188 133.507 10.0482C133.395 9.97057 133.324 9.86822 133.296 9.74116C133.268 9.6141 133.254 9.48352 133.254 9.3494V3.55764C133.254 3.41647 133.265 3.28588 133.286 3.16588C133.314 3.04588 133.384 2.94705 133.497 2.86941C133.609 2.79176 133.796 2.75294 134.056 2.75294C134.324 2.75294 134.51 2.79176 134.616 2.86941C134.728 2.94705 134.795 3.04588 134.816 3.16588C134.844 3.28588 134.858 3.41647 134.858 3.55764V8.75646H137.75C137.87 8.75646 137.982 8.76705 138.088 8.78822C138.193 8.8094 138.278 8.8694 138.341 8.96822C138.411 9.06705 138.446 9.2294 138.446 9.45528C138.446 9.6741 138.411 9.83646 138.341 9.94234C138.271 10.0412 138.183 10.1012 138.077 10.1223C137.979 10.1435 137.87 10.1541 137.75 10.1541H134.056Z" fill="#FF4667"/>
<path d="M140.931 10.1541C140.678 10.1541 140.495 10.1153 140.382 10.0376C140.277 9.95999 140.21 9.86116 140.182 9.74116C140.154 9.6141 140.14 9.47999 140.14 9.33881V3.54705C140.14 3.41294 140.154 3.28941 140.182 3.17647C140.21 3.05647 140.28 2.95764 140.393 2.88C140.505 2.80235 140.692 2.76353 140.952 2.76353C141.128 2.76353 141.262 2.77411 141.353 2.79529C141.445 2.81647 141.511 2.84823 141.554 2.89058C141.596 2.92588 141.642 2.96823 141.691 3.01764L144.065 6.23646H143.907L146.292 3.01764C146.348 2.94705 146.405 2.89411 146.461 2.85882C146.517 2.82352 146.588 2.79882 146.672 2.7847C146.764 2.77058 146.89 2.76353 147.052 2.76353C147.305 2.76353 147.488 2.80235 147.601 2.88C147.713 2.95764 147.784 3.06 147.812 3.18705C147.84 3.30705 147.854 3.43411 147.854 3.56823V9.35999C147.854 9.4941 147.84 9.62116 147.812 9.74116C147.784 9.86116 147.713 9.95999 147.601 10.0376C147.488 10.1153 147.302 10.1541 147.041 10.1541C146.788 10.1541 146.605 10.1153 146.493 10.0376C146.38 9.95999 146.31 9.85763 146.282 9.73057C146.253 9.60352 146.239 9.47293 146.239 9.33881V5.55882L144.667 7.79293C144.639 7.82822 144.6 7.87764 144.551 7.94117C144.502 7.99764 144.431 8.04705 144.34 8.0894C144.255 8.13175 144.139 8.15293 143.992 8.15293C143.837 8.15293 143.714 8.13175 143.622 8.0894C143.538 8.04705 143.471 7.99764 143.422 7.94117C143.372 7.88469 143.33 7.83528 143.295 7.79293L141.733 5.5694V9.35999C141.733 9.4941 141.719 9.62116 141.691 9.74116C141.663 9.86116 141.592 9.95999 141.48 10.0376C141.374 10.1153 141.191 10.1541 140.931 10.1541Z" fill="#FF4667"/>
<path d="M152.207 10.26C151.834 10.26 151.507 10.2141 151.225 10.1223C150.951 10.0306 150.715 9.92116 150.518 9.7941C150.328 9.65999 150.177 9.5294 150.065 9.40234C149.952 9.27528 149.875 9.17999 149.832 9.11646C149.713 8.96116 149.639 8.82705 149.611 8.7141C149.583 8.5941 149.597 8.47411 149.653 8.35411C149.716 8.23411 149.822 8.10352 149.97 7.96234C150.117 7.83528 150.255 7.76822 150.381 7.76117C150.515 7.74705 150.645 7.77881 150.772 7.85646C150.898 7.93411 151.021 8.04352 151.141 8.18469C151.31 8.3894 151.475 8.53411 151.637 8.61881C151.806 8.69646 151.982 8.73528 152.165 8.73528C152.397 8.73528 152.594 8.70705 152.756 8.65058C152.917 8.59411 153.041 8.50587 153.125 8.38587C153.209 8.25881 153.252 8.09999 153.252 7.9094C153.252 7.75411 153.192 7.63058 153.072 7.53881C152.96 7.43999 152.805 7.35528 152.608 7.2847C152.418 7.21411 152.203 7.14705 151.964 7.08352C151.732 7.01293 151.5 6.93176 151.268 6.83999C151.106 6.78352 150.951 6.71293 150.803 6.62823C150.656 6.54352 150.515 6.44823 150.381 6.34234C150.247 6.23646 150.131 6.1094 150.033 5.96117C149.941 5.81293 149.868 5.64352 149.811 5.45293C149.762 5.26235 149.737 5.04352 149.737 4.79646C149.737 4.37999 149.839 4.00941 150.043 3.6847C150.247 3.36 150.529 3.10588 150.888 2.92235C151.254 2.73176 151.672 2.63647 152.144 2.63647C152.46 2.63647 152.735 2.6647 152.967 2.72117C153.206 2.77764 153.406 2.8447 153.568 2.92235C153.73 3 153.857 3.07764 153.948 3.15529C154.047 3.22588 154.114 3.28235 154.149 3.3247C154.346 3.50823 154.455 3.66705 154.476 3.80117C154.497 3.92823 154.423 4.10823 154.254 4.34117C154.078 4.58823 153.902 4.72588 153.727 4.75411C153.558 4.78235 153.364 4.72235 153.146 4.57411C153.062 4.49646 152.977 4.42588 152.893 4.36235C152.808 4.29882 152.706 4.24941 152.587 4.21411C152.474 4.17176 152.323 4.15058 152.133 4.15058C152.02 4.15058 151.915 4.16823 151.816 4.20352C151.718 4.23176 151.633 4.27411 151.563 4.33058C151.493 4.38705 151.436 4.45764 151.394 4.54235C151.352 4.61999 151.331 4.70823 151.331 4.80705C151.331 4.9694 151.384 5.09999 151.489 5.19882C151.602 5.29764 151.746 5.37882 151.922 5.44235C152.105 5.49882 152.305 5.55529 152.523 5.61176C152.749 5.66117 152.977 5.72117 153.209 5.79176C153.421 5.86234 153.625 5.95058 153.822 6.05646C154.019 6.15529 154.194 6.28234 154.349 6.43764C154.504 6.59293 154.627 6.78705 154.719 7.01999C154.817 7.25293 154.866 7.53881 154.866 7.87764C154.866 8.30116 154.785 8.66469 154.624 8.96822C154.462 9.27175 154.247 9.51881 153.98 9.7094C153.713 9.89999 153.424 10.0376 153.114 10.1223C152.805 10.2141 152.502 10.26 152.207 10.26Z" fill="#FF4667"/>
<path d="M35.7836 14.3749V21.3775C35.7836 22.4003 35.3046 23.3509 34.5159 23.887C33.8529 24.3377 32.9602 24.9119 31.9053 25.5103V14.3749H35.7836Z" fill="#FF4667"/>
<path d="M31.7074 14.3749V25.5594C28.8643 27.1828 24.8495 28.9829 21.0386 28.9829C15.8155 28.9829 10.2095 25.6001 7.75922 23.9295C6.97051 23.3913 6.49155 22.4368 6.49155 21.4099V14.3749H31.7074Z" fill="#FF4667"/>
<path d="M35.5903 14.2289V21.0681C35.5903 22.0703 35.1112 23.0014 34.3227 23.526C31.8727 25.1561 26.2669 28.4567 21.0433 28.4567C15.8198 28.4567 10.2141 25.1561 7.76397 23.526C6.97546 23.0014 6.4964 22.0703 6.4964 21.0681V14.2289H35.5903ZM36.382 13.4339H5.70482V21.0681C5.70482 22.3464 6.31115 23.5131 7.32677 24.1888C8.6176 25.0477 10.6581 26.2901 13.0484 27.332C15.9711 28.6059 18.6609 29.2518 21.0433 29.2518C23.4258 29.2518 26.1156 28.6059 29.0383 27.332C31.4285 26.2901 33.4691 25.0476 34.7599 24.1888C35.7755 23.5131 36.382 22.3464 36.382 21.0681V13.4339Z" fill="#FF4667"/>
<path d="M31.3406 27.1815C30.5995 27.2715 29.9168 27.6307 29.4213 28.1915C28.9258 28.7522 28.6517 29.4757 28.651 30.2254V32.9303C28.651 34.027 29.2334 35.0404 30.1793 35.5887C31.1249 36.1371 32.2901 36.1371 33.2357 35.5887C34.1815 35.0404 34.7641 34.027 34.7641 32.9303V30.2254C34.7633 29.4757 34.4892 28.7522 33.9938 28.1915C33.4983 27.6307 32.8156 27.2715 32.0745 27.1815" fill="#392C7D"/>
<path d="M34.0302 30.5865H29.3847V30.2586C29.3847 28.9702 30.4247 27.9259 31.7074 27.9259C32.9902 27.9259 34.0301 28.9703 34.0301 30.2586L34.0302 30.5865Z" fill="white"/>
<path d="M39.5253 13.3221L21.9318 21.7341C21.3393 22.0173 20.6512 22.0166 20.0593 21.7321L2.36969 13.2289C0.729737 12.4406 0.721029 10.099 2.35505 9.29834L20.0351 0.63575C20.6405 0.339086 21.3487 0.341173 21.9525 0.641415L39.5556 9.39534C41.1814 10.2038 41.1634 12.539 39.5253 13.3221Z" fill="#392C7D"/>
<path d="M20.9881 0.780971C21.2306 0.780971 21.4729 0.835443 21.6959 0.944389L39.7158 9.74651C40.9089 10.3293 40.8958 12.0126 39.6936 12.5772L21.6808 21.0369C21.464 21.1387 21.2296 21.1897 20.9952 21.1897C20.7597 21.1897 20.5244 21.1383 20.3067 21.0355L2.19806 12.4854C0.994518 11.9171 0.988185 10.2292 2.18728 9.65202L20.2887 0.940289C20.5094 0.834077 20.7488 0.780971 20.9881 0.780971ZM20.9881 0C20.6274 0 20.2656 0.08249 19.9416 0.238391L1.84023 8.95012C1.01005 9.34968 0.496554 10.1638 0.500017 11.0749C0.503481 11.986 1.02312 12.7964 1.85626 13.1898L19.9648 21.7399C20.2845 21.8908 20.6408 21.9706 20.9951 21.9706C21.3478 21.9706 21.7026 21.8915 22.021 21.7419L40.0338 13.2823C40.866 12.8914 41.3874 12.0839 41.3945 11.1746C41.4017 10.2655 40.893 9.45004 40.067 9.04657L22.0472 0.244541C21.7197 0.0845401 21.3535 0 20.9881 0Z" fill="#392C7D"/>
</svg>
