<svg width="629" height="381" viewBox="0 0 629 381" fill="none" xmlns="http://www.w3.org/2000/svg">
<path d="M606.793 166.274C606.693 182.094 604.549 198.146 610.253 213.189C612.918 220.215 617.228 226.484 620.543 233.228C631.965 256.462 630.561 285.525 616.951 307.55C595.649 342.025 556.982 346.759 520.011 340.75C458.776 330.797 402.161 306.414 339.532 304.722C275.159 302.982 211.094 312.789 148.594 327.549C115.418 335.385 77.634 342.949 44.358 331.876C22.5316 324.612 11.0559 304.015 19.874 282.003C24.0204 271.652 31.2447 262.888 38.2272 254.195C54.6407 233.758 60.3214 209.984 57.8674 184.176C56.7376 172.295 53.6048 160.858 52.0686 149.051C49.6249 130.266 48.1417 108.277 60.1716 92.2161C65.8886 84.5836 74.2325 79.2172 83.1213 75.7645C103.688 67.7768 126.833 67.0701 147.901 73.4305C175.333 81.7111 195.897 102.246 214.036 123.508C218.39 128.613 222.709 133.75 227.201 138.735C246.567 160.227 269.136 180.231 296.74 188.892C316.016 194.94 336.227 197.624 355.559 191.709C372.748 186.451 389.121 178.869 405.431 171.311C423.587 162.898 441.743 154.485 459.899 146.071C471.419 140.733 482.958 135.387 494.919 131.125C512.64 124.811 531.259 120.911 550.05 119.841C565.979 118.935 584.775 117.835 596.737 130.368C605.966 140.037 606.874 153.579 606.793 166.274Z" fill="#E8ECF9"/>
<path d="M478.497 50.7283H504.437" stroke="#A0B3EA" stroke-width="1.5" stroke-miterlimit="10" stroke-linejoin="round"/>
<path d="M509.871 50.7283H521.438" stroke="#A0B3EA" stroke-width="1.5" stroke-miterlimit="10" stroke-linejoin="round"/>
<path d="M295.604 215.281H306.241" stroke="#A0B3EA" stroke-width="1.5" stroke-miterlimit="10" stroke-linejoin="round"/>
<path d="M312.368 215.281H332.916" stroke="#A0B3EA" stroke-width="1.5" stroke-miterlimit="10" stroke-linejoin="round"/>
<path d="M224.475 182.115C224.475 184.156 222.819 185.811 220.778 185.811C218.737 185.811 217.082 184.156 217.082 182.115C217.082 180.074 218.737 178.418 220.778 178.418C222.819 178.418 224.475 180.074 224.475 182.115Z" stroke="#A0B3EA" stroke-width="1.5" stroke-miterlimit="10" stroke-linejoin="round"/>
<path d="M308.695 269.638C308.695 271.679 307.04 273.334 304.999 273.334C302.958 273.334 301.303 271.679 301.303 269.638C301.303 267.597 302.958 265.942 304.999 265.942C307.04 265.942 308.695 267.597 308.695 269.638Z" stroke="#A0B3EA" stroke-width="1.5" stroke-miterlimit="10" stroke-linejoin="round"/>
<path d="M620.236 270.116C620.236 272.157 618.581 273.812 616.54 273.812C614.498 273.812 612.843 272.157 612.843 270.116C612.843 268.075 614.498 266.419 616.54 266.419C618.581 266.419 620.236 268.075 620.236 270.116Z" stroke="#A0B3EA" stroke-width="1.5" stroke-miterlimit="10" stroke-linejoin="round"/>
<path d="M511.323 8.75476C511.638 4.95708 508.815 1.6233 505.017 1.30854C501.219 0.993785 497.885 3.81724 497.571 7.61492C497.256 11.4126 500.079 14.7464 503.877 15.0611C507.675 15.3759 511.009 12.5524 511.323 8.75476Z" stroke="#A0B3EA" stroke-width="1.5" stroke-miterlimit="10" stroke-linejoin="round"/>
<path d="M128.399 46.8406C132.21 46.8406 135.299 43.7514 135.299 39.9408C135.299 36.1301 132.21 33.041 128.399 33.041C124.589 33.041 121.5 36.1301 121.5 39.9408C121.5 43.7514 124.589 46.8406 128.399 46.8406Z" stroke="#A0B3EA" stroke-width="1.5" stroke-miterlimit="10" stroke-linejoin="round"/>
<path d="M418.698 28.1196V38.5L427.453 32.8955L418.698 28.1196Z" stroke="#A0B3EA" stroke-width="1.5" stroke-miterlimit="10" stroke-linejoin="round"/>
<path d="M578.782 134.34V144.719L570.026 139.116L578.782 134.34Z" stroke="#A0B3EA" stroke-width="1.5" stroke-miterlimit="10" stroke-linejoin="round"/>
<path d="M13.2113 208.127L17.2499 217.689L7.00342 215.933L13.2113 208.127Z" stroke="#A0B3EA" stroke-width="1.5" stroke-miterlimit="10" stroke-linejoin="round"/>
<path d="M126.254 340.156L116.875 344.602L125.691 350.113L126.254 340.156Z" stroke="#A0B3EA" stroke-width="1.5" stroke-miterlimit="10" stroke-linejoin="round"/>
<path d="M38.8213 61.9719H93.3824C94.5151 61.9719 95.0051 60.5371 94.1096 59.8434L85.3445 53.0664V45.0498C85.3445 35.7035 77.7678 28.1277 68.4224 28.1277H38.8213C29.4759 28.1277 21.8992 35.7035 21.8992 45.0498C21.8992 54.3952 29.4759 61.9719 38.8213 61.9719Z" fill="#FFD18D"/>
<path d="M71.651 45.0499C71.651 46.282 72.6497 47.2798 73.8809 47.2798C75.113 47.2798 76.1117 46.2811 76.1117 45.0499C76.1117 43.8178 75.113 42.8191 73.8809 42.8191C72.6497 42.8191 71.651 43.8178 71.651 45.0499Z" fill="white"/>
<path d="M53.7758 45.0499C53.7758 46.282 54.7745 47.2798 56.0056 47.2798C57.2368 47.2798 58.2355 46.2811 58.2355 45.0499C58.2355 43.8178 57.2368 42.8191 56.0056 42.8191C54.7745 42.8191 53.7758 43.8178 53.7758 45.0499Z" fill="white"/>
<path d="M35.8995 45.0499C35.8995 46.282 36.8982 47.2798 38.1294 47.2798C39.3606 47.2798 40.3593 46.2811 40.3593 45.0499C40.3593 43.8178 39.3606 42.8191 38.1294 42.8191C36.8982 42.8191 35.8995 43.8178 35.8995 45.0499Z" fill="white"/>
<path d="M212.728 63.4038H146.555C144.856 63.4038 144.121 61.2511 145.466 60.2115L158.614 50.045V38.0188C158.614 23.9989 169.979 12.6338 183.999 12.6338H212.729C226.749 12.6338 238.113 23.9989 238.113 38.0188C238.113 52.0378 226.748 63.4038 212.728 63.4038Z" fill="#EFF2F9"/>
<path d="M179.793 41.6212C179.793 42.5567 179.564 43.3629 179.107 44.0399C178.65 44.7168 177.994 45.2357 177.141 45.5956C176.289 45.9554 175.271 46.1358 174.091 46.1358C173.514 46.1358 172.963 46.1033 172.438 46.0391C171.912 45.974 171.418 45.8792 170.953 45.7527C170.49 45.6272 170.063 45.4738 169.674 45.2934V42.8533C170.321 43.1332 171.041 43.3871 171.833 43.614C172.625 43.8409 173.431 43.9543 174.253 43.9543C174.922 43.9543 175.476 43.866 175.916 43.6893C176.355 43.5126 176.684 43.2606 176.904 42.9333C177.124 42.6051 177.233 42.2219 177.233 41.783C177.233 41.3144 177.107 40.921 176.855 40.6002C176.603 40.2803 176.223 39.9828 175.716 39.7094C175.208 39.436 174.57 39.144 173.799 38.8344C173.281 38.6335 172.787 38.3992 172.321 38.1323C171.852 37.8654 171.434 37.553 171.067 37.1931C170.7 36.8332 170.409 36.4046 170.192 35.9071C169.975 35.4105 169.868 34.8312 169.868 34.1682C169.868 33.2755 170.084 32.5102 170.516 31.8732C170.947 31.2362 171.553 30.7481 172.335 30.4096C173.116 30.072 174.029 29.9019 175.073 29.9019C175.901 29.9019 176.68 29.9902 177.412 30.1669C178.143 30.3435 178.86 30.5863 179.566 30.8959L178.744 32.9909C178.09 32.7241 177.459 32.5102 176.854 32.3484C176.25 32.1866 175.63 32.1057 174.997 32.1057C174.45 32.1057 173.985 32.1885 173.604 32.354C173.222 32.5195 172.932 32.7538 172.734 33.056C172.535 33.3582 172.437 33.7107 172.437 34.1142C172.437 34.5829 172.551 34.9716 172.777 35.2813C173.004 35.5909 173.357 35.8745 173.835 36.1349C174.314 36.3934 174.932 36.6817 175.688 36.9988C176.559 37.3586 177.298 37.7371 177.906 38.1332C178.516 38.5294 178.981 39.0027 179.305 39.5532C179.631 40.1037 179.793 40.7927 179.793 41.6212Z" fill="#A0B3EA"/>
<path d="M185.117 29.1152V37.2359C185.117 37.6033 185.102 38.004 185.074 38.4402C185.045 38.8753 185.015 39.2845 184.987 39.6667H185.042C185.229 39.4147 185.454 39.119 185.717 38.7814C185.98 38.4429 186.229 38.1482 186.467 37.8962L190.118 33.9646H193.033L188.249 39.105L193.345 45.9192H190.365L186.542 40.671L185.117 41.9021V45.9192H182.569V29.1152H185.117Z" fill="#A0B3EA"/>
<path d="M196.532 29.385C196.921 29.385 197.257 29.4892 197.543 29.6984C197.827 29.9076 197.97 30.2675 197.97 30.778C197.97 31.282 197.827 31.6418 197.543 31.8576C197.258 32.0733 196.921 32.1821 196.532 32.1821C196.129 32.1821 195.788 32.0733 195.506 31.8576C195.226 31.6418 195.085 31.282 195.085 30.778C195.085 30.2675 195.226 29.9067 195.506 29.6984C195.787 29.4892 196.129 29.385 196.532 29.385ZM197.785 33.9638V45.9193H195.237V33.9638H197.785Z" fill="#A0B3EA"/>
<path d="M203.962 45.9192H201.404V29.1152H203.962V45.9192Z" fill="#A0B3EA"/>
<path d="M210.128 45.9192H207.57V29.1152H210.128V45.9192Z" fill="#A0B3EA"/>
<path d="M221.781 42.5066C221.781 43.2914 221.59 43.9535 221.209 44.4938C220.827 45.034 220.271 45.4422 219.541 45.7193C218.81 45.9965 217.916 46.135 216.858 46.135C216.022 46.135 215.305 46.0755 214.703 45.9574C214.101 45.8384 213.532 45.6571 212.991 45.4116V43.2198C213.567 43.4867 214.209 43.7164 214.919 43.9107C215.627 44.1051 216.299 44.2018 216.933 44.2018C217.76 44.2018 218.359 44.0707 218.73 43.8084C219.101 43.5453 219.286 43.1947 219.286 42.7549C219.286 42.4964 219.213 42.2639 219.065 42.0584C218.918 41.8529 218.645 41.6409 218.245 41.4205C217.846 41.201 217.257 40.9397 216.479 40.6375C215.723 40.3353 215.087 40.0312 214.567 39.7244C214.049 39.4184 213.657 39.053 213.391 38.629C213.124 38.204 212.991 37.6563 212.991 36.9868C212.991 35.9211 213.412 35.1131 214.255 34.5626C215.096 34.0121 216.209 33.7368 217.592 33.7368C218.327 33.7368 219.019 33.8112 219.67 33.9581C220.322 34.106 220.962 34.3198 221.587 34.6007L220.788 36.5125C220.249 36.2819 219.707 36.0894 219.163 35.9351C218.62 35.7798 218.066 35.7026 217.506 35.7026C216.85 35.7026 216.351 35.803 216.01 36.0048C215.668 36.2057 215.497 36.4911 215.497 36.8575C215.497 37.1383 215.58 37.3764 215.745 37.5707C215.911 37.7651 216.197 37.9594 216.604 38.1538C217.011 38.3481 217.578 38.589 218.305 38.8772C219.018 39.1506 219.636 39.437 220.158 39.7355C220.679 40.0349 221.08 40.4004 221.362 40.8319C221.641 41.2643 221.781 41.8222 221.781 42.5066Z" fill="#A0B3EA"/>
<path d="M560.251 103.051H485.84C484.471 103.051 483.879 101.317 484.962 100.48L495.553 92.291V82.6053C495.553 71.3137 504.706 62.1589 515.998 62.1589H560.252C571.544 62.1589 580.698 71.3128 580.698 82.6053C580.698 93.8969 571.544 103.051 560.251 103.051Z" fill="#FFF8DC"/>
<path d="M514.327 81.5079H520.751V90.1595C519.847 90.458 518.914 90.6896 517.952 90.8551C516.988 91.0206 515.902 91.1025 514.692 91.1025C512.941 91.1025 511.459 90.7547 510.249 90.0601C509.038 89.3636 508.119 88.3565 507.49 87.0361C506.862 85.7165 506.548 84.1171 506.548 82.2388C506.548 80.4385 506.897 78.8782 507.597 77.5531C508.296 76.2289 509.312 75.2032 510.649 74.477C511.986 73.7508 513.605 73.3862 515.506 73.3862C516.441 73.3862 517.346 73.4811 518.223 73.6698C519.099 73.8577 519.903 74.1097 520.634 74.424L519.631 76.758C519.049 76.4911 518.4 76.2633 517.68 76.0745C516.961 75.8858 516.213 75.7918 515.435 75.7918C514.201 75.7918 513.139 76.0587 512.247 76.5925C511.355 77.1272 510.67 77.8776 510.19 78.8437C509.71 79.8099 509.47 80.9537 509.47 82.2741C509.47 83.5555 509.663 84.6788 510.048 85.6449C510.433 86.6111 511.036 87.3634 511.857 87.9027C512.678 88.4402 513.741 88.7099 515.045 88.7099C515.689 88.7099 516.242 88.6745 516.702 88.6029C517.161 88.5322 517.584 88.4541 517.968 88.3676V83.9367H514.326L514.327 81.5079Z" fill="#FFD18D"/>
<path d="M536.156 84.3133C536.156 85.3975 536.015 86.3609 535.732 87.2015C535.449 88.0421 535.037 88.7535 534.494 89.3347C533.952 89.9158 533.3 90.3566 532.538 90.6542C531.776 90.9527 530.915 91.1024 529.957 91.1024C529.061 91.1024 528.24 90.9527 527.493 90.6542C526.747 90.3557 526.1 89.9158 525.554 89.3347C525.008 88.7526 524.585 88.0421 524.288 87.2015C523.988 86.3609 523.84 85.3975 523.84 84.3133C523.84 82.8757 524.089 81.6556 524.588 80.6542C525.087 79.6517 525.8 78.8883 526.727 78.362C527.654 77.8347 528.759 77.5725 530.039 77.5725C531.241 77.5725 532.302 77.8357 533.222 78.362C534.141 78.8883 534.86 79.6545 535.379 80.6597C535.897 81.6659 536.156 82.884 536.156 84.3133ZM526.691 84.3133C526.691 85.2645 526.807 86.0782 527.039 86.7533C527.27 87.4293 527.63 87.9454 528.117 88.3034C528.604 88.6605 529.233 88.84 530.002 88.84C530.765 88.84 531.389 88.6605 531.877 88.3034C532.364 87.9454 532.724 87.4293 532.955 86.7533C533.187 86.0773 533.303 85.2645 533.303 84.3133C533.303 83.3704 533.187 82.5669 532.955 81.9039C532.724 81.24 532.363 80.7323 531.877 80.3826C531.389 80.0339 530.761 79.8591 529.991 79.8591C528.843 79.8591 528.007 80.2432 527.481 81.014C526.954 81.784 526.691 82.884 526.691 84.3133Z" fill="#FFD18D"/>
<path d="M544.454 77.5715C546.105 77.5715 547.352 77.937 548.196 78.6679C549.041 79.3988 549.464 80.5379 549.464 82.0861V90.8671H547.495L546.953 89.0166H546.858C546.489 89.489 546.108 89.8795 545.715 90.1892C545.322 90.4998 544.87 90.7304 544.359 90.8792C543.848 91.0289 543.223 91.1033 542.485 91.1033C541.699 91.1033 541 90.9601 540.386 90.6737C539.773 90.3863 539.292 89.9484 538.942 89.3588C538.592 88.7693 538.417 88.0235 538.417 87.1187C538.417 85.775 538.919 84.7661 539.92 84.0901C540.923 83.414 542.437 83.0411 544.465 82.9705L546.716 82.8886V82.2052C546.716 81.3088 546.507 80.6681 546.091 80.284C545.674 79.899 545.085 79.7066 544.323 79.7066C543.67 79.7066 543.038 79.8005 542.425 79.9892C541.812 80.178 541.215 80.4058 540.633 80.6727L539.726 78.7162C540.37 78.3787 541.099 78.1034 541.913 77.8905C542.727 77.6775 543.574 77.5715 544.454 77.5715ZM546.706 84.6322L545.032 84.7029C543.648 84.7493 542.678 84.9837 542.12 85.404C541.562 85.8243 541.283 86.4036 541.283 87.1429C541.283 87.7873 541.476 88.2559 541.861 88.5516C542.246 88.8455 542.753 88.9934 543.381 88.9934C544.34 88.9934 545.133 88.7209 545.762 88.1741C546.39 87.6273 546.705 86.8286 546.705 85.775L546.706 84.6322Z" fill="#FFD18D"/>
<path d="M556.123 90.867H553.329V72.5269H556.123V90.867Z" fill="#FFD18D"/>
<path d="M568.842 87.1429C568.842 87.9993 568.633 88.7218 568.217 89.3114C567.8 89.9 567.193 90.3463 566.396 90.6486C565.599 90.9517 564.623 91.1023 563.467 91.1023C562.556 91.1023 561.772 91.0373 561.116 90.908C560.46 90.7778 559.837 90.5797 559.247 90.3119V87.9193C559.876 88.2104 560.577 88.4615 561.351 88.6744C562.125 88.8864 562.858 88.9924 563.55 88.9924C564.454 88.9924 565.107 88.8492 565.512 88.5628C565.916 88.2755 566.119 87.8924 566.119 87.4135C566.119 87.1308 566.038 86.8769 565.877 86.6528C565.716 86.4287 565.418 86.1972 564.982 85.9573C564.546 85.7174 563.903 85.4328 563.054 85.1027C562.229 84.7735 561.534 84.4415 560.967 84.1068C560.402 83.772 559.974 83.374 559.682 82.911C559.392 82.4469 559.246 81.85 559.246 81.1191C559.246 79.9567 559.707 79.0742 560.626 78.4735C561.545 77.8728 562.759 77.5715 564.269 77.5715C565.07 77.5715 565.826 77.6524 566.537 77.8124C567.248 77.9732 567.946 78.2076 568.63 78.5135L567.757 80.6002C567.168 80.3491 566.577 80.139 565.983 79.9697C565.39 79.8005 564.786 79.7159 564.174 79.7159C563.459 79.7159 562.915 79.8265 562.542 80.045C562.168 80.2654 561.982 80.576 561.982 80.9768C561.982 81.2827 562.072 81.5422 562.253 81.7542C562.434 81.9662 562.746 82.1782 563.19 82.3902C563.633 82.6022 564.253 82.8663 565.047 83.1806C565.824 83.48 566.498 83.7916 567.068 84.118C567.638 84.4443 568.076 84.8433 568.382 85.3138C568.689 85.7871 568.842 86.3962 568.842 87.1429Z" fill="#FFD18D"/>
<path d="M267.344 132.602H180.68C178.881 132.602 178.103 130.323 179.526 129.222L193.449 118.457V105.723C193.449 90.8782 205.482 78.8445 220.327 78.8445H267.345C282.19 78.8445 294.223 90.8782 294.223 105.723C294.222 120.569 282.188 132.602 267.344 132.602Z" fill="#F4AA78"/>
<path d="M229.822 98.2365V87.938H232.005V96.4325H236.182V98.2356H229.822V98.2365Z" fill="white"/>
<path d="M238.549 98.2365V87.938H240.733V98.2365H238.549Z" fill="white"/>
<path d="M246.05 98.2365H243.901V87.938H249.804V89.7271H246.05V92.3829H249.543V94.1654H246.05V98.2365Z" fill="white"/>
<path d="M258.328 98.2365H252.397V87.938H258.328V89.7271H254.58V91.9886H258.067V93.7777H254.58V96.4334H258.328V98.2365Z" fill="white"/>
<path d="M208.98 108.557C208.563 108.557 208.192 108.637 207.871 108.799C207.549 108.961 207.279 109.194 207.061 109.5C206.843 109.805 206.677 110.175 206.565 110.606C206.452 111.037 206.395 111.524 206.395 112.064C206.395 112.792 206.486 113.413 206.667 113.928C206.847 114.442 207.127 114.834 207.508 115.104C207.889 115.374 208.38 115.509 208.98 115.509C209.398 115.509 209.817 115.463 210.238 115.369C210.658 115.275 211.115 115.141 211.608 114.967V116.799C211.153 116.987 210.704 117.122 210.262 117.204C209.82 117.286 209.325 117.328 208.776 117.328C207.714 117.328 206.842 117.109 206.159 116.67C205.475 116.23 204.97 115.615 204.642 114.824C204.311 114.033 204.148 113.109 204.148 112.052C204.148 111.273 204.255 110.559 204.465 109.91C204.677 109.262 204.987 108.702 205.395 108.227C205.803 107.753 206.309 107.387 206.909 107.128C207.51 106.87 208.2 106.74 208.98 106.74C209.492 106.74 210.005 106.805 210.519 106.934C211.034 107.063 211.526 107.24 211.994 107.466L211.29 109.241C210.905 109.058 210.518 108.899 210.128 108.762C209.738 108.624 209.355 108.557 208.98 108.557Z" fill="white"/>
<path d="M223.723 112.022C223.723 112.816 223.624 113.538 223.427 114.188C223.23 114.839 222.931 115.398 222.529 115.868C222.127 116.338 221.619 116.697 221.004 116.949C220.388 117.2 219.66 117.326 218.82 117.326C217.979 117.326 217.25 117.2 216.635 116.949C216.02 116.698 215.512 116.338 215.109 115.868C214.709 115.398 214.409 114.837 214.212 114.184C214.015 113.531 213.915 112.806 213.915 112.007C213.915 110.941 214.091 110.012 214.441 109.221C214.79 108.43 215.329 107.816 216.058 107.379C216.786 106.942 217.71 106.724 218.834 106.724C219.95 106.724 220.87 106.942 221.592 107.379C222.312 107.815 222.847 108.431 223.198 109.225C223.548 110.019 223.723 110.951 223.723 112.022ZM216.207 112.022C216.207 112.74 216.297 113.359 216.477 113.878C216.658 114.397 216.941 114.796 217.326 115.076C217.711 115.355 218.209 115.495 218.82 115.495C219.439 115.495 219.941 115.356 220.327 115.076C220.712 114.797 220.992 114.397 221.169 113.878C221.344 113.359 221.433 112.74 221.433 112.022C221.433 110.942 221.231 110.091 220.826 109.472C220.423 108.852 219.758 108.542 218.834 108.542C218.218 108.542 217.717 108.682 217.329 108.962C216.941 109.242 216.658 109.64 216.477 110.159C216.297 110.677 216.207 111.298 216.207 112.022Z" fill="white"/>
<path d="M232.738 117.185L231.991 114.733H228.238L227.491 117.185H225.138L228.772 106.844H231.443L235.092 117.185H232.738ZM231.471 112.902L230.724 110.507C230.677 110.347 230.615 110.142 230.537 109.891C230.46 109.639 230.382 109.383 230.305 109.123C230.227 108.863 230.165 108.636 230.119 108.444C230.071 108.636 230.007 108.875 229.925 109.159C229.842 109.443 229.764 109.712 229.69 109.965C229.614 110.219 229.56 110.399 229.527 110.507L228.787 112.902H231.471Z" fill="white"/>
<path d="M241.339 108.557C240.921 108.557 240.55 108.637 240.229 108.799C239.908 108.961 239.638 109.194 239.419 109.5C239.201 109.805 239.035 110.175 238.923 110.606C238.809 111.037 238.754 111.524 238.754 112.064C238.754 112.792 238.844 113.413 239.025 113.928C239.205 114.442 239.485 114.834 239.867 115.104C240.247 115.374 240.738 115.509 241.339 115.509C241.756 115.509 242.176 115.463 242.596 115.369C243.016 115.275 243.474 115.141 243.966 114.967V116.799C243.511 116.987 243.062 117.122 242.62 117.204C242.178 117.286 241.684 117.328 241.134 117.328C240.072 117.328 239.2 117.109 238.517 116.67C237.833 116.23 237.328 115.615 237 114.824C236.671 114.033 236.506 113.109 236.506 112.052C236.506 111.273 236.612 110.559 236.823 109.91C237.035 109.262 237.345 108.702 237.753 108.227C238.161 107.753 238.667 107.387 239.267 107.128C239.868 106.87 240.558 106.74 241.339 106.74C241.85 106.74 242.363 106.805 242.878 106.934C243.392 107.063 243.884 107.24 244.352 107.466L243.648 109.241C243.263 109.058 242.876 108.899 242.486 108.762C242.096 108.624 241.713 108.557 241.339 108.557Z" fill="white"/>
<path d="M255.172 117.185H252.996V112.74H248.917V117.185H246.733V106.887H248.917V110.923H252.996V106.887H255.172V117.185Z" fill="white"/>
<path d="M258.348 117.185V106.887H260.532V117.186L258.348 117.185Z" fill="white"/>
<path d="M272.839 117.185H270.063L265.582 109.394H265.519C265.537 109.718 265.555 110.044 265.569 110.373C265.582 110.702 265.597 111.03 265.611 111.356C265.625 111.683 265.639 112.01 265.653 112.339V117.186H263.702V106.887H266.456L270.929 114.601H270.978C270.969 114.282 270.957 113.964 270.943 113.649C270.929 113.334 270.915 113.02 270.904 112.706C270.892 112.391 270.88 112.076 270.872 111.762V106.887H272.838V117.185H272.839Z" fill="white"/>
<path d="M279.917 111.401H284.003V116.741C283.464 116.919 282.902 117.061 282.32 117.167C281.738 117.272 281.078 117.326 280.34 117.326C279.316 117.326 278.448 117.124 277.734 116.719C277.02 116.316 276.478 115.719 276.106 114.93C275.736 114.142 275.549 113.172 275.549 112.022C275.549 110.942 275.758 110.007 276.173 109.218C276.588 108.429 277.196 107.819 277.997 107.386C278.797 106.954 279.776 106.738 280.931 106.738C281.475 106.738 282.013 106.797 282.544 106.914C283.075 107.031 283.557 107.184 283.988 107.371L283.264 109.118C282.948 108.958 282.589 108.824 282.186 108.717C281.782 108.608 281.359 108.555 280.918 108.555C280.284 108.555 279.733 108.7 279.266 108.991C278.799 109.282 278.438 109.69 278.181 110.213C277.925 110.737 277.797 111.353 277.797 112.063C277.797 112.734 277.888 113.329 278.071 113.848C278.254 114.367 278.544 114.773 278.938 115.067C279.333 115.361 279.847 115.507 280.481 115.507C280.791 115.507 281.052 115.492 281.266 115.461C281.48 115.431 281.681 115.399 281.869 115.366V113.217H279.918V111.401H279.917Z" fill="white"/>
<path d="M340.998 133.423H380.42C381.433 133.423 381.871 132.14 381.069 131.521L373.236 125.465V118.3C373.236 109.948 366.465 103.177 358.113 103.177H340.998C332.645 103.177 325.875 109.948 325.875 118.3C325.875 126.652 332.646 133.423 340.998 133.423Z" fill="#EFF2F9"/>
<path d="M338.173 118.3C338.173 119.251 337.402 120.022 336.45 120.022C335.499 120.022 334.728 119.251 334.728 118.3C334.728 117.349 335.499 116.578 336.45 116.578C337.402 116.578 338.173 117.349 338.173 118.3Z" fill="#A0B3EA"/>
<path d="M350.402 118.3C350.402 119.251 349.631 120.022 348.679 120.022C347.728 120.022 346.957 119.251 346.957 118.3C346.957 117.349 347.728 116.578 348.679 116.578C349.631 116.578 350.402 117.349 350.402 118.3Z" fill="#A0B3EA"/>
<path d="M362.631 118.3C362.631 119.251 361.86 120.022 360.908 120.022C359.957 120.022 359.186 119.251 359.186 118.3C359.186 117.349 359.957 116.578 360.908 116.578C361.86 116.578 362.631 117.349 362.631 118.3Z" fill="#A0B3EA"/>
<path d="M358.258 72.6237H409.5C410.815 72.6237 411.385 70.9564 410.344 70.152L400.163 62.2796V52.9677C400.163 42.1113 391.362 33.3108 380.506 33.3108H358.258C347.402 33.3108 338.601 42.1113 338.601 52.9677C338.601 63.8232 347.402 72.6237 358.258 72.6237Z" fill="#C6D4F4"/>
<path d="M354.586 52.9668C354.586 54.2026 353.584 55.205 352.348 55.205C351.111 55.205 350.109 54.2026 350.109 52.9668C350.109 51.73 351.112 50.7285 352.348 50.7285C353.584 50.7285 354.586 51.7309 354.586 52.9668Z" fill="white"/>
<path d="M370.481 52.9668C370.481 54.2026 369.478 55.205 368.242 55.205C367.006 55.205 366.004 54.2026 366.004 52.9668C366.004 51.73 367.006 50.7285 368.242 50.7285C369.479 50.7285 370.481 51.7309 370.481 52.9668Z" fill="white"/>
<path d="M386.376 52.9668C386.376 54.2026 385.374 55.205 384.138 55.205C382.902 55.205 381.9 54.2026 381.9 52.9668C381.9 51.73 382.902 50.7285 384.138 50.7285C385.374 50.7285 386.376 51.7309 386.376 52.9668Z" fill="white"/>
<path d="M206.716 264.312L203.467 247.213C202.339 241.276 197.149 236.98 191.106 236.98H139.659C133.589 236.98 128.435 241.425 127.542 247.428L125.864 258.719C124.074 270.758 133.4 281.574 145.573 281.574H192.425C201.547 281.574 208.418 273.274 206.716 264.312Z" fill="#F4AA78"/>
<path d="M168.433 281.574H89.1944C73.9777 281.574 60.91 270.756 58.0692 255.806L44.4175 183.96C40.4999 163.342 56.308 144.246 77.2955 144.246H101.205C125.069 144.246 145.562 161.212 150.016 184.657L168.433 281.574Z" fill="#F4AA78"/>
<path d="M180.544 268.568H72.6052C74.0391 276.114 80.6348 281.574 88.3157 281.574H188.808L187.418 274.258C186.79 270.957 183.904 268.568 180.544 268.568Z" fill="#F4AA78"/>
<path d="M57.1934 162.742C64.4056 165.988 70.1253 172.481 73.9927 179.83C77.8592 187.18 80.0342 195.384 81.7508 203.586C84.0578 214.608 85.6005 225.783 86.8112 236.979" stroke="#D3834C" stroke-miterlimit="10"/>
<path d="M189.969 281.574H83.707V291.879H189.969V281.574Z" fill="#693937"/>
<path d="M93.8884 291.879H86.0699L58.9767 379.261H62.7548L93.8884 291.879Z" fill="#693937"/>
<path d="M114.59 291.879H106.772L87.1338 379.261H90.9129L114.59 291.879Z" fill="#693937"/>
<path d="M179.955 291.879H187.774L214.867 379.261H211.089L179.955 291.879Z" fill="#693937"/>
<path d="M159.254 291.879H167.072L186.71 379.261H182.931L159.254 291.879Z" fill="#693937"/>
<path d="M86.0699 291.879H93.8884" stroke="#3F1E1E" stroke-miterlimit="10"/>
<path d="M106.772 291.879H114.59" stroke="#3F1E1E" stroke-miterlimit="10"/>
<path d="M159.254 291.879H167.072" stroke="#3F1E1E" stroke-miterlimit="10"/>
<path d="M179.955 291.879H187.774" stroke="#3F1E1E" stroke-miterlimit="10"/>
<path d="M93.0813 118.436L90.87 137.767L111.807 162.132L118.252 140.7L115.893 139.38L115.095 131.267" fill="#FFAB86"/>
<path d="M132.84 154.21L121.814 140.695L118.252 140.7L112.965 158.281L90.8691 137.767L73.5332 140.695L106.628 230.38L155.426 222.536C155.426 222.536 140.058 185.498 138.801 180.608C137.544 175.717 132.84 154.21 132.84 154.21Z" fill="#FFD18D"/>
<path d="M117.446 139.924C120.359 156.019 124.529 171.816 129.146 187.439C134.688 206.193 145.179 223.93 145.179 223.93L162.629 227.557C162.629 227.557 147.838 196.475 144.272 188.85C140.705 181.225 140.237 171.564 136.381 162.132C132.526 152.7 127.301 140.699 127.301 140.699L117.446 139.924Z" fill="#E06743"/>
<path d="M233.341 329.281C233.341 329.281 230.488 318.441 230.624 311.397C230.655 306.795 224.275 295.987 220.999 288.563L247.711 278.833C247.711 278.833 257.402 291.508 259.4 293.891C263.256 298.491 268.064 301.616 273.879 303.035C278.09 304.062 282.467 304.407 286.676 305.429C288.835 305.954 292.619 306.972 291.716 310.136C282.746 312.908 268.684 317.917 256.11 321.813C255.065 322.137 250.82 319.365 250.82 319.365L245.09 317.98L246.912 324.831L233.341 329.281Z" fill="#432B3F"/>
<path d="M244.623 317.303L231.539 320.824" stroke="black" stroke-miterlimit="10" stroke-linejoin="round"/>
<path d="M200.841 379.191C200.841 379.191 201.381 367.728 203.583 360.915C204.968 356.445 202.215 343.887 201.353 335.614L229.079 334.67C229.079 334.67 234.363 350.102 235.521 353.06C237.755 358.768 241.308 363.346 246.303 366.583C249.918 368.928 253.891 370.661 257.506 373C259.36 374.199 262.583 376.398 260.81 379.191C251.646 379.025 237.083 379.412 224.233 379.191C223.165 379.172 220.031 375.118 220.031 375.118L215.107 371.941L214.783 379.19H200.841V379.191Z" fill="#432B3F"/>
<path d="M201.547 371.227L215.106 371.941" stroke="black" stroke-miterlimit="10" stroke-linejoin="round"/>
<path d="M170.632 215.342C170.632 215.342 185.23 211.277 193.854 211.183C202.478 211.089 211.699 213.875 218.389 225.905C224.384 236.685 254.101 286.898 254.101 286.898L205.439 316.66L178.383 240.332" fill="#B24B42"/>
<path d="M201.406 237.722C202.984 237.121 204.659 236.855 206.292 236.945" stroke="black" stroke-miterlimit="10" stroke-linejoin="round"/>
<path d="M246.475 273.989L200.19 301.854" stroke="#D16F5E" stroke-miterlimit="10"/>
<path d="M105.749 227.299C105.749 227.299 107.311 249.098 112.054 255.948C115.453 260.857 119.695 267.418 128.661 267.418H163.466C165.848 267.418 167.811 269.109 168.23 271.519L187.326 359.062L234.531 344.781C234.531 344.781 213.853 268.598 211.038 261.712C206.813 251.38 200.936 244.241 191.942 239.732C183.874 235.687 134.371 225.117 134.371 225.117" fill="#B24B42"/>
<path d="M198.684 258.253C198.708 268.054 197.942 277.855 196.397 287.533" stroke="black" stroke-miterlimit="10" stroke-linejoin="round"/>
<path d="M203.984 270.116C205.093 275.103 205.848 280.169 206.245 285.263" stroke="black" stroke-miterlimit="10" stroke-linejoin="round"/>
<path d="M183.973 342.879L230.562 330.239" stroke="#D16F5E" stroke-miterlimit="10"/>
<path d="M223.578 305.565C218.242 285.979 212.467 265.21 211.036 261.711C206.811 251.38 200.934 244.24 191.94 239.731" stroke="black" stroke-miterlimit="10" stroke-linejoin="round"/>
<path d="M89.5543 226.504C89.5543 226.504 84.7625 267.418 108.259 267.418C118.223 267.418 123.292 267.418 130.504 267.418C146.545 267.418 191.941 239.732 191.941 239.732L177.882 213.547L139.433 222.746" fill="#B24B42"/>
<path d="M130.504 267.417C146.545 267.417 191.94 239.731 191.94 239.731C194.347 238.634 195.853 238.148 198.458 238.148" stroke="black" stroke-miterlimit="10" stroke-linejoin="round"/>
<path d="M128.925 225.116L152.728 219.747" stroke="black" stroke-miterlimit="10" stroke-linejoin="round"/>
<path d="M125.355 140.7C125.355 140.7 131.95 140.416 138.304 144.311C145.843 148.932 164.131 185.633 164.131 185.633L176.533 188.851L165.351 207.387C165.351 207.387 147.054 208.459 143.801 201.491C140.548 194.523 125.491 168.353 125.491 168.353" fill="#E06743"/>
<path d="M136.953 159.835C139.866 165.879 142.793 171.963 144.605 178.422C147.237 187.802 147.638 198.211 153.405 206.063" stroke="#7A372A" stroke-miterlimit="10" stroke-linejoin="round"/>
<path d="M89.1516 137.44C98.205 152.94 103.702 167.105 109.67 184.772C113.396 195.801 120.314 215.374 127.441 247.739C114.055 248.192 100.669 248.644 87.2825 249.097C83.536 218.408 68.8475 190.004 63.7592 159.509L73.6959 140.379L89.1516 137.44Z" fill="#E06743"/>
<path d="M78.9508 139.38C82.7689 147.244 85.5837 154.936 89.8761 162.536C90.1727 163.062 90.4926 163.608 91.0012 163.917C91.349 164.128 91.7554 164.209 92.1524 164.284C94.0103 164.633 95.8785 164.921 97.7541 165.146C96.3769 167.246 94.9997 169.347 93.6226 171.446C93.4998 171.633 93.3724 171.839 93.3864 172.065C93.405 172.355 93.6486 172.567 93.8727 172.744C100.055 177.656 105.731 183.244 110.773 189.382" stroke="#7A372A" stroke-miterlimit="10" stroke-linejoin="round"/>
<path d="M136.44 175.39L149.279 195.404" stroke="#6B3022" stroke-width="3" stroke-miterlimit="10"/>
<path d="M105.949 222.746C115.279 219.365 124.531 215.773 133.7 211.978L128.731 192.337L98.723 197.932" fill="#FFAB86"/>
<path d="M76.943 139.762C76.943 139.762 73.6977 140.38 72.0313 140.838C68.5582 141.793 67.1597 142.51 64.1812 144.536C54.6378 151.027 53.1035 157.172 54.7252 167.534C56.3823 178.127 61.5543 192.459 66.412 202.004C69.7215 208.506 73.3499 217.035 78.3639 222.409C85.5473 230.108 92.7976 230.309 102.048 226.508C106.95 224.494 118.252 219.747 118.252 219.747L108.143 195.59L99.8945 196.886L90.5212 175.101" fill="#E06743"/>
<path d="M108.143 195.59L99.8936 196.886L90.5212 175.101" stroke="#7A372A" stroke-miterlimit="10" stroke-linejoin="round"/>
<path d="M83.7936 226.831C89.2967 229.958 95.1094 229.359 102.047 226.508C106.949 224.494 118.252 219.747 118.252 219.747" stroke="#7A372A" stroke-miterlimit="10" stroke-linejoin="round"/>
<path d="M121.098 194.553C124.518 193.237 127.939 191.923 131.359 190.607C132.943 189.998 134.623 189.103 136.286 188.783C138.018 188.45 139.777 188.227 141.535 188.087C143.12 187.96 144.71 187.909 146.298 187.932C146.881 187.941 147.467 187.96 148.04 188.07C149.075 188.269 150.028 188.757 150.965 189.239C153.07 190.322 155.194 191.417 157.021 192.922C157.193 193.064 157.372 193.224 157.422 193.441C157.495 193.754 157.257 194.073 156.963 194.204C156.669 194.335 156.334 194.324 156.012 194.311C156.337 194.608 156.684 194.953 156.707 195.393C156.738 195.985 156.166 196.431 155.612 196.643C155.031 196.864 154.401 196.955 153.782 196.906C154.076 196.829 154.335 197.195 154.269 197.492C154.203 197.789 153.938 197.998 153.676 198.153C153.199 198.435 152.67 198.627 152.124 198.718C152.278 198.693 152.165 199.407 152.144 199.47C152.045 199.759 151.374 200.334 151.147 200.52C149.342 201.998 147.59 202.349 145.517 203.346C142.565 204.765 141.204 207.997 138.623 209.947C135.132 212.584 130.348 212.643 126.384 214.495" fill="#FFAB86"/>
<path d="M141.148 200.272C141.148 200.272 144.808 199.309 146.556 198.909C148.306 198.508 150.412 198.32 152.463 198.517" stroke="black" stroke-miterlimit="10" stroke-linejoin="round"/>
<path d="M140.31 196.332C141.535 196.058 142.769 195.824 144.01 195.629C145.753 195.357 147.531 195.163 149.279 195.403C150.98 195.637 152.596 196.271 154.194 196.9" stroke="black" stroke-miterlimit="10" stroke-linejoin="round"/>
<path d="M140.659 191.678C142.437 191.55 144.985 191.63 146.767 191.633C147.669 191.634 148.575 191.653 149.467 191.793C151.773 192.154 153.869 193.304 155.911 194.434" stroke="black" stroke-miterlimit="10" stroke-linejoin="round"/>
<path d="M92.7662 198.648C95.1421 198.06 97.518 197.473 99.8938 196.885" stroke="#7A372A" stroke-miterlimit="10" stroke-linejoin="round"/>
<path d="M58.0599 155.872C66.5024 156.294 77.9447 157.374 90.5214 175.101" stroke="#7A372A" stroke-miterlimit="10" stroke-linejoin="round"/>
<path d="M171.571 215.303L135.028 218.784L155.844 163.461L192.388 159.98L171.571 215.303Z" fill="#432B3F"/>
<path d="M129.581 185.33C130.695 177.899 130.965 167.757 130.965 166.426C130.965 165.095 125.492 160.929 125.492 160.929C125.492 160.929 130.266 159.692 130.703 157.782C131.14 155.872 126.341 140.625 126.341 140.625" stroke="#7A372A" stroke-miterlimit="10" stroke-linejoin="round"/>
<path d="M182.193 187.076L181.18 189.768C179.732 190.346 178.093 190.568 176.645 191.146C175.545 191.586 174.41 192.397 173.784 193.457C173.393 194.117 173.079 195.528 173.586 196.29C172.911 196.76 172.307 197.349 171.9 198.038C171.387 198.906 170.997 200.95 172.137 201.538C171.97 201.733 171.809 201.933 171.681 202.149C171.199 202.966 170.829 204.948 172.045 205.365C171.637 206.098 171.337 207.798 172.451 208.077C172.779 208.158 173.119 208.028 173.432 207.901C174.698 207.384 177.457 206.715 178.723 206.198C179.414 205.916 180.113 205.629 180.712 205.184C181.311 204.738 181.808 204.109 181.938 203.374C182.009 202.97 181.923 202.442 181.76 201.905C182.407 201.386 182.937 200.69 183.082 199.876C183.175 199.341 183.038 198.624 182.799 197.913C182.803 197.91 182.806 197.908 182.809 197.905C183.598 197.319 184.251 196.491 184.422 195.523C184.536 194.882 184.355 194.007 184.049 193.156C184.676 192.636 185.187 191.949 185.327 191.151C185.536 189.963 183.56 188.007 182.193 187.076Z" fill="#FFAB86"/>
<path d="M173.681 196.327C175.29 196.524 176.88 195.933 178.394 195.353C180.254 194.641 182.113 193.927 183.973 193.215" stroke="black" stroke-miterlimit="10" stroke-linejoin="round"/>
<path d="M172.169 201.635C173.938 201.761 176.533 200.411 182.706 197.9" stroke="black" stroke-miterlimit="10" stroke-linejoin="round"/>
<path d="M172.126 205.268C172.962 205.502 173.844 205.223 174.666 204.948C177.09 204.135 179.538 203.311 181.724 201.986" stroke="black" stroke-miterlimit="10" stroke-linejoin="round"/>
<path d="M187.692 158.013L183.958 158.369L184.336 157.366C184.542 156.817 184.103 156.241 183.518 156.297L169.892 157.595C169.102 157.67 168.425 158.188 168.145 158.931L167.776 159.91L163.691 160.3C162.299 160.433 161.105 161.346 160.613 162.653L158.817 167.426L187.322 164.71L189.132 159.897C189.497 158.93 188.721 157.916 187.692 158.013Z" fill="#845D7F"/>
<path d="M122.006 86.04C129.595 90.6421 130.441 96.0419 131.243 100.994C132.097 106.265 130.52 111.974 132.739 116.83C133.427 118.338 134.45 119.67 135.171 121.162C137.3 125.57 136.571 130.76 135.796 135.593L109.581 125.724L100.832 86.5543" fill="#643021"/>
<path d="M129.356 107.198C128.844 109.391 128.531 111.632 128.423 113.883C128.384 114.686 128.372 115.502 128.561 116.284C128.801 117.273 129.348 118.154 129.805 119.063C131.127 121.692 131.725 124.68 131.515 127.613" stroke="#3F1C14" stroke-miterlimit="10"/>
<path d="M123.026 128.398C124.418 128.398 125.546 126.548 125.546 124.266C125.546 121.983 124.418 120.133 123.026 120.133C121.635 120.133 120.506 121.983 120.506 124.266C120.506 126.548 121.635 128.398 123.026 128.398Z" stroke="#FFD18D" stroke-miterlimit="10"/>
<path d="M124.76 121.439C124.342 124.79 122.291 127.795 119.68 129.588C113.46 133.859 104.637 129.863 99.863 125.175C97.1896 122.55 95.2099 119.243 93.9833 115.714C92.6006 111.735 92.3635 107.439 92.6276 103.263C93.0004 97.3799 95.7436 91.49 101.794 89.766C104.74 88.9263 107.881 89.156 110.855 89.7149C113.957 90.2979 117.036 91.3217 119.644 93.1406C122.773 95.323 125.142 97.7472 125.45 101.461C126.005 108.165 125.488 115.598 124.76 121.439Z" fill="#FFAB86"/>
<path d="M127.885 92.1606C127.292 90.8467 126.447 89.6425 125.291 88.6242C121.223 85.0386 116.222 82.275 111.152 80.4105C106.195 78.588 99.7439 79.1673 94.7643 80.7211C91.1713 81.8426 88.085 84.8591 85.7277 87.7027C83.1975 90.7555 81.7413 94.7029 81.758 98.6735C81.7701 101.605 81.7617 104.435 80.3167 107.076C78.8921 109.682 76.4232 111.739 76.0029 114.821C75.6589 117.348 76.2893 120.618 76.7227 123.131C77.5577 127.979 76.7952 131.404 76.7952 131.404L101.911 137.372C101.911 137.372 103.162 135.871 103.051 133.228C102.924 130.224 102.352 128.582 100.213 126.469C99.1813 125.45 97.7716 124.553 97.6079 123.113C97.4833 122.014 98.151 121.005 98.5323 119.966C99.1497 118.284 99.0167 116.401 98.5016 114.684C98.0496 113.178 97.1318 111.913 96.599 110.465C96.1471 109.236 96.6269 107.707 97.1318 106.512C98.1556 104.088 100.041 102.306 101.42 100.129C102.91 97.779 104.145 95.1176 105.314 92.1857C107.324 92.7799 110.2 93.0672 114.579 94.5597C120.445 96.559 125.682 101.996 125.682 106.979C127.151 105.127 128.463 103.423 128.812 101.085C129.259 98.1045 129.12 94.8963 127.885 92.1606Z" fill="#643021"/>
<path d="M100.35 91.0122C99.6668 94.7522 98.0069 98.309 95.5799 101.236C93.7787 103.409 91.4187 105.596 91.508 108.416C91.5982 111.265 94.2623 113.728 93.7918 116.539C93.4579 118.535 91.5712 120.189 91.8223 122.197C91.9868 123.514 93.0302 124.513 93.8782 125.534C94.7263 126.555 95.4507 127.964 94.876 129.161" stroke="#3F1C14" stroke-miterlimit="10"/>
<path d="M89.0316 98.1758C85.339 102.055 84.6528 107.944 85.2786 113.262C85.3902 114.213 85.5371 115.182 85.34 116.118C85.1438 117.051 84.623 117.875 84.2036 118.73C82.6265 121.946 82.4815 125.832 83.8159 129.155" stroke="#3F1C14" stroke-miterlimit="10"/>
<path d="M111.751 87.8123C117.537 89.0871 122.656 93.1052 125.27 98.4223" stroke="#3F1C14" stroke-miterlimit="10"/>
<path d="M104.241 82.604C109.774 82.6282 115.275 84.7149 119.431 88.3665" stroke="#3F1C14" stroke-miterlimit="10"/>
<path d="M117.857 108.423C117.802 110.416 117.411 113.073 119.073 114.573C119.314 114.792 119.594 114.969 119.813 115.209C121.238 116.779 119.201 118.38 117.916 119.136" stroke="black" stroke-miterlimit="10"/>
<path d="M119.607 120.893L110.965 118.95C110.965 118.95 111 123.794 114.603 124.858C117.519 125.718 119.607 120.893 119.607 120.893Z" fill="white"/>
<path d="M105.315 104.168C106.084 103.231 107.219 102.59 108.439 102.404C109.659 102.218 110.953 102.489 112 103.148" stroke="black" stroke-miterlimit="10"/>
<path d="M121.344 105.27C122.913 104.5 124.253 105.242 124.831 106.018" stroke="black" stroke-miterlimit="10"/>
<path d="M111.806 110.331C111.746 111.25 111.168 111.961 110.515 111.917C109.862 111.874 109.382 111.094 109.444 110.175C109.504 109.257 110.082 108.546 110.735 108.59C111.388 108.632 111.868 109.412 111.806 110.331Z" fill="black"/>
<path d="M124.375 111.287C124.314 112.206 123.736 112.916 123.083 112.874C122.43 112.831 121.951 112.051 122.012 111.132C122.072 110.213 122.651 109.503 123.304 109.546C123.956 109.588 124.435 110.368 124.375 111.287Z" fill="black"/>
<path d="M100.063 108.74C98.6216 107.239 96.7265 107.595 95.5585 107.827C92.8981 108.355 92.3002 111.672 92.6061 113.985C92.9465 116.557 94.6565 119.061 97.1579 119.953C98.8587 120.559 101.676 119.704 102.04 116.497" fill="#FFAB86"/>
<path d="M95.2769 111.896C97.3431 112.812 98.4524 113.867 100.364 115.074" stroke="black" stroke-miterlimit="10"/>
<path d="M96.016 119.425C97.62 120.357 99.7486 120.263 100.979 118.778C101.364 118.313 101.632 117.781 101.911 117.25" stroke="black" stroke-miterlimit="10"/>
<path d="M96.8716 107.631C98.2171 107.698 99.7979 108.198 100.833 109.072" stroke="black" stroke-miterlimit="10"/>
<path d="M99.3916 123.131C99.3916 125.413 98.2636 127.263 96.8716 127.263C95.4795 127.263 94.3516 125.413 94.3516 123.131C94.3516 120.849 95.4795 119 96.8716 119C98.2636 118.999 99.3916 120.849 99.3916 123.131Z" stroke="#FFD18D" stroke-miterlimit="10"/>
<path d="M104.349 128.706C107.597 130.829 111.497 131.941 115.376 131.85" stroke="black" stroke-miterlimit="10"/>
<path d="M140.547 108.553L162.198 97.3994" stroke="black" stroke-miterlimit="10" stroke-linejoin="round"/>
<path d="M143.979 117.801L165.992 111.846" stroke="black" stroke-miterlimit="10" stroke-linejoin="round"/>
<path d="M147.495 126.639L167.13 126.448" stroke="black" stroke-miterlimit="10" stroke-linejoin="round"/>
<path d="M156.145 264.312L152.895 247.213C151.768 241.276 146.578 236.979 140.534 236.979H80.1606C74.0912 236.979 68.9368 241.424 68.0441 247.428L66.3657 258.718C64.5757 270.758 73.9034 281.574 86.0747 281.574H141.854C150.975 281.574 157.847 273.274 156.145 264.312Z" fill="#F4AA78"/>
<path d="M145.15 281.201C152.557 279.492 157.634 272.156 156.144 264.312L152.895 247.213C151.767 241.276 146.578 236.979 140.534 236.979H80.1605C74.0912 236.979 68.9368 241.424 68.0441 247.428L66.3657 258.718C65.3279 265.696 68.0255 272.263 72.846 276.552" stroke="#D3834C" stroke-miterlimit="10"/>
<path d="M381.435 264.312L384.684 247.213C385.812 241.276 391.002 236.979 397.045 236.979H448.492C454.561 236.979 459.716 241.424 460.608 247.428L462.287 258.718C464.077 270.758 454.75 281.574 442.578 281.574H395.725C386.603 281.574 379.732 273.274 381.435 264.312Z" fill="#F4AA78"/>
<path d="M419.718 281.574H498.956C514.173 281.574 527.24 270.756 530.08 255.806L543.732 183.96C547.65 163.341 531.842 144.246 510.854 144.246H486.945C463.081 144.246 442.587 161.212 438.133 184.657L419.718 281.574Z" fill="#F4AA78"/>
<path d="M407.607 268.568H515.545C514.111 276.114 507.516 281.574 499.835 281.574H399.343L400.733 274.258C401.361 270.956 404.246 268.568 407.607 268.568Z" fill="#F4AA78"/>
<path d="M530.957 162.741C523.745 165.988 518.025 172.481 514.159 179.83C510.292 187.18 508.117 195.384 506.401 203.586C504.094 214.608 502.551 225.783 501.34 236.979" stroke="#D3834C" stroke-miterlimit="10"/>
<path d="M398.181 291.879H504.443V281.574H398.181V291.879Z" fill="#693937"/>
<path d="M494.262 291.879H502.08L529.174 379.261H525.396L494.262 291.879Z" fill="#693937"/>
<path d="M473.561 291.879H481.378L501.017 379.261H497.238L473.561 291.879Z" fill="#693937"/>
<path d="M408.195 291.879H400.378L373.284 379.261H377.062L408.195 291.879Z" fill="#693937"/>
<path d="M428.897 291.879H421.079L401.441 379.261H405.22L428.897 291.879Z" fill="#693937"/>
<path d="M502.08 291.879H494.262" stroke="#3F1E1E" stroke-miterlimit="10"/>
<path d="M481.378 291.879H473.561" stroke="#3F1E1E" stroke-miterlimit="10"/>
<path d="M428.897 291.879H421.079" stroke="#3F1E1E" stroke-miterlimit="10"/>
<path d="M408.195 291.879H400.378" stroke="#3F1E1E" stroke-miterlimit="10"/>
<path d="M376.544 157.735L366.435 165.465L343.111 146.612L325.036 165.465C325.036 165.465 354.773 197.535 362.742 201.228C370.711 204.92 380.305 199.949 386.824 194.329C394.994 187.283 411.207 170.131 411.207 170.131" fill="#F4C3B3"/>
<path d="M427.42 128.887C427.42 128.887 414.881 129.524 408.527 132.051C397.822 136.308 376.729 155.768 368.697 163.422L397.181 194.701L421.233 171.49" fill="#252549"/>
<path d="M411.431 154.57C414.121 178.698 415.782 203.102 418.539 226.665L504.413 230.517C502.321 200.953 499.508 177.597 492.127 152.384L481.326 135.522L455.158 127.256L436.623 142.814L427.421 128.888L411.431 154.57Z" fill="#252549"/>
<path d="M413.913 179.141L411.431 154.57" stroke="#494975" stroke-miterlimit="10"/>
<path d="M418.74 129.807L423.562 149.673L436.562 144.613L451.04 150.109L466.882 130.96" stroke="#494975" stroke-miterlimit="10"/>
<path d="M374.742 157.583L403.029 189.059" stroke="#494975" stroke-miterlimit="10"/>
<path d="M440.502 146.114L443.191 176.345H436.008L433.32 146.114" stroke="#494975" stroke-miterlimit="10"/>
<path d="M435.805 153.692H439.638" stroke="#494975" stroke-miterlimit="10"/>
<path d="M437.089 167.842H440.922" stroke="#494975" stroke-miterlimit="10"/>
<path d="M356.369 157.329C356.369 157.329 350.815 153.443 349.178 151.689C346.102 148.396 343.056 144.991 339.243 142.553C335.55 140.192 331.495 138.48 327.346 137.146C322.624 135.628 317.473 134.605 312.701 133.262C310.912 132.758 310.469 134.818 311.699 136.352C312.269 137.063 312.984 137.634 313.722 138.164C314.465 138.698 316.433 140.433 316.433 140.433C316.433 140.433 309.283 142.616 305.911 142.344C302.887 142.099 299.889 141.757 296.85 141.875C296.055 141.906 293.737 142.786 294.347 144.101C294.419 144.255 294.545 144.369 294.673 144.47C295.441 145.078 296.708 145.178 297.617 145.425C299.078 145.823 303.156 146.24 303.156 146.24C303.156 146.24 296.457 146.912 292.102 147.507C291.316 147.615 288.866 148.954 289.023 150.4C289.106 151.179 291.759 151.357 291.759 151.357C291.759 151.357 291.186 151.432 290.443 151.922C289.404 152.607 289.293 153.149 289.208 153.517C288.749 155.486 292.923 155.73 294.058 155.951C298.754 156.868 308.002 155.831 308.002 155.831C308.002 155.831 305.869 156.565 303.757 156.757C301.371 156.975 296.643 156.113 294.917 158.192C294.421 158.789 294.182 159.212 294.897 159.976C295.278 160.385 296.001 160.439 296.486 160.564C297.154 160.736 297.826 160.892 298.5 161.031C302.277 161.809 324.369 165.375 324.761 165.54C325.227 165.735 335.752 175.241 335.752 175.241" fill="#F4C3B3"/>
<path d="M302.418 146.182C304.585 146.152 310.488 145.791 310.488 145.791" stroke="black" stroke-miterlimit="10" stroke-linejoin="round"/>
<path d="M291.462 151.387C293.664 151.376 296.65 151.712 299.647 151.492C304.287 151.151 308.597 150.103 308.597 150.103" stroke="black" stroke-miterlimit="10" stroke-linejoin="round"/>
<path d="M307.789 155.786C310.839 155.41 313.663 154.434 316.607 153.621C318.864 152.997 321.172 152.56 323.499 152.316C325.168 152.141 327.964 151.529 329.532 152.39" stroke="black" stroke-miterlimit="10" stroke-linejoin="round"/>
<path d="M366.692 164.938C371.445 169.042 376.276 173.539 378.291 179.486" stroke="black" stroke-miterlimit="10" stroke-linejoin="round"/>
<path d="M314.512 342.589L309.314 357.432C309.314 357.432 296.917 364.802 292.502 367.193C294.597 367.712 352.588 367.976 352.574 367.595C352.458 364.499 351.82 362.678 351.962 358.612C352.03 356.677 356.278 344.6 356.278 344.6" fill="#F4C3B3"/>
<path d="M352.25 356.975L308.399 356.764C308.399 356.764 288.745 367.726 285.725 370.075C282.707 372.424 280.536 375.507 280.418 378.49C283.977 378.49 353.68 378.49 353.68 378.49C353.68 378.49 352.971 364.51 352.25 356.975Z" fill="#1B1B35"/>
<path d="M305.105 358.612L313.522 362.839" stroke="#494975" stroke-miterlimit="10"/>
<path d="M299.448 361.558L307.866 365.785" stroke="#494975" stroke-miterlimit="10"/>
<path d="M353.377 372.981H282.753" stroke="#494975" stroke-miterlimit="10"/>
<path d="M417.81 222.978C417.81 222.978 383.058 223.008 375.15 222.978C360.451 222.923 341.631 225.821 333.433 248.713C323.562 276.277 311.039 350.508 311.039 350.508H354.599L371.703 268.505C371.703 268.505 430.102 268.505 444.263 268.505C458.422 268.505 465.392 244.101 461.503 227.816" fill="#6458B9"/>
<path d="M366.897 342.589L363.484 357.432C363.484 357.432 350.316 365.237 345.901 367.628C347.995 368.148 407.651 367.976 407.637 367.595C407.521 364.499 406.883 362.678 407.025 358.612C407.093 356.677 409.556 344.6 409.556 344.6" fill="#F4C3B3"/>
<path d="M407.313 356.975L362.568 356.764C362.568 356.764 342.914 367.726 339.895 370.075C336.877 372.424 334.705 375.507 334.588 378.49C338.147 378.49 408.742 378.49 408.742 378.49C408.742 378.49 408.033 364.51 407.313 356.975Z" fill="#2C2C51"/>
<path d="M408.44 372.981H336.924" stroke="#9E796A" stroke-miterlimit="10" stroke-linejoin="round"/>
<path d="M407.766 362.839C407.766 362.839 399.723 364.728 396.072 372.981" stroke="#9E796A" stroke-miterlimit="10" stroke-linejoin="round"/>
<path d="M359.276 358.612L367.693 362.839" stroke="#9E796A" stroke-miterlimit="10" stroke-linejoin="round"/>
<path d="M353.618 361.558L362.036 365.785" stroke="#9E796A" stroke-miterlimit="10" stroke-linejoin="round"/>
<path d="M454.906 228.339C454.906 228.339 420.804 227.164 412.983 228.339C399.447 230.371 379.873 234.318 375.197 266.673C370.741 297.513 363.491 350.508 363.491 350.508H408.837L422.905 268.506C422.905 268.506 476.53 268.506 490.69 268.506C504.851 268.506 506.084 246.803 502.195 230.518" fill="#6458B9"/>
<path d="M429.179 226.882C404.944 227.816 383.829 227.816 378.702 253.14C377.559 258.784 374.725 268.506 374.725 268.506" stroke="black" stroke-miterlimit="10"/>
<path d="M423.096 268.463C421.141 269.459 419.188 270.454 417.233 271.451" stroke="black" stroke-miterlimit="10"/>
<path d="M338.644 246.216C337.894 253.805 337.602 261.439 337.77 269.063" stroke="black" stroke-miterlimit="10"/>
<path d="M385.619 255.763C385.896 263.721 387.149 271.645 389.343 279.3" stroke="black" stroke-miterlimit="10"/>
<path d="M392.218 261.564C393.362 264.403 394.818 267.115 396.55 269.638" stroke="black" stroke-miterlimit="10"/>
<path d="M428.397 117.304L427.42 128.887L436.562 144.613L457.974 127.892L454.665 103.356" fill="#F4C3B3"/>
<path d="M417.056 105.332C416.483 109.174 417.648 113.166 419.733 116.002C424.698 122.755 434.711 121.216 440.875 117.59C444.327 115.56 447.287 112.55 449.558 109.046C452.118 105.098 453.625 100.425 454.594 95.7211C455.959 89.0938 454.954 81.6845 449.407 77.8031C446.707 75.9136 443.495 75.1418 440.352 74.7894C437.074 74.4211 433.689 74.5485 430.541 75.709C426.764 77.1011 424.133 79.2426 422.27 83.0142C419.201 89.2296 418.054 98.6363 417.056 105.332Z" fill="#F4C3B3"/>
<path d="M422.042 106.813C421.451 106.799 420.823 106.859 420.343 107.214C418.913 108.273 418.768 111.084 420.651 111.658C421.804 112.01 427.743 112.842 426.999 110.036C426.396 107.757 424.268 106.867 422.042 106.813Z" fill="white"/>
<path d="M419.556 93.6052C418.666 96.3205 416.967 99.4477 415.733 101.806C414.638 103.898 418.518 104.481 420.46 104.625" fill="#F4C3B3"/>
<path d="M426.472 86.8462C427.001 88.3033 428.058 89.4964 429.202 90.5183C430.345 91.5403 431.599 92.432 432.688 93.5144" stroke="black" stroke-miterlimit="10"/>
<path d="M426.211 92.6067C427.114 94.1336 428.551 95.3201 430.198 95.9003" stroke="black" stroke-miterlimit="10"/>
<path d="M428.527 96.1858C428.527 97.1603 428.008 97.9507 427.368 97.9507C426.729 97.9507 426.21 97.1603 426.21 96.1858C426.21 95.2113 426.729 94.4209 427.368 94.4209C428.009 94.4209 428.527 95.2104 428.527 96.1858Z" fill="black"/>
<path d="M450.825 114.216C450.446 114.246 450.07 114.302 449.699 114.399C448.573 114.691 447.504 115.346 446.344 115.265C445.117 115.181 444.078 114.261 443.49 113.181C442.902 112.101 442.682 110.866 442.436 109.662C441.4 104.611 439.746 99.687 437.526 95.0338C437.127 94.1988 436.612 93.3135 436.423 92.4004C436.375 92.1716 436.503 89.899 436.803 90.0143C434.777 89.2388 432.585 88.3228 431.556 86.4128C430.841 85.085 430.824 83.4781 431.135 82.0024C429.497 81.4946 426.873 80.8019 425.211 81.4937C423.746 82.1037 422.361 83.3461 421.44 84.6116C420.465 82.5054 419.653 81.2054 420 78.864C420.343 76.5467 421.436 74.4833 423.087 72.8235C425.034 70.866 427.533 69.5558 430.076 68.4818C432.886 67.2953 435.853 66.3542 438.908 66.1115C441.343 65.9172 444.664 66.2668 446.912 67.2729C448.253 67.8727 449.424 68.9439 449.93 70.323C453.946 70.004 455.341 70.1184 457.995 70.7303C460.337 71.2705 462.791 71.8963 464.53 73.5553C467.056 75.9665 467.152 79.9473 465.224 82.7528C466.082 83.0829 466.769 83.7738 467.213 84.5782C468.1 86.1831 468.309 88.2391 467.787 89.9845C467.118 92.2246 465.52 94.0798 463.723 95.575C465.376 95.9274 466.359 97.8207 466.162 99.4991C465.965 101.178 464.866 102.62 463.615 103.756C462.412 104.85 461.39 106.243 460.421 107.549C459.969 108.159 459.523 108.802 459.345 109.54C459.163 110.289 459.27 111.09 459.045 111.827C458.541 113.478 456.588 114.217 454.864 114.28C453.518 114.326 452.152 114.11 450.825 114.216Z" fill="#3F2524"/>
<path d="M462.876 95.8882C459.567 95.6985 456.572 97.7703 453.318 98.4073" stroke="#5B3E3E" stroke-miterlimit="10"/>
<path d="M464.806 82.7844C460.01 83.2271 455.266 84.2146 450.692 85.7229" stroke="#5B3E3E" stroke-miterlimit="10"/>
<path d="M449.848 70.3535C448.162 70.5479 446.504 70.9803 444.939 71.6349" stroke="#5B3E3E" stroke-miterlimit="10"/>
<path d="M431.303 81.6406C433.393 81.8349 435.635 81.9986 437.463 80.9636" stroke="#5B3E3E" stroke-miterlimit="10"/>
<path d="M436.836 89.8068C439.371 89.8486 441.908 89.6896 444.418 89.3325" stroke="#5B3E3E" stroke-miterlimit="10"/>
<path d="M437.807 96.6396C439.082 95.4615 440.642 95.2904 441.865 95.5219C444.649 96.051 445.316 99.5911 445.028 102.071C444.707 104.828 442.955 107.531 440.357 108.519C438.59 109.191 435.639 108.313 435.217 104.887" fill="#F4C3B3"/>
<path d="M442.79 99.2695C440.646 100.278 438.573 101.446 436.594 102.763" stroke="black" stroke-miterlimit="10"/>
<path d="M437.098 96.9017C437.673 96.42 438.317 96.0267 439.003 95.7366" stroke="black" stroke-miterlimit="10"/>
<path d="M435.267 105.882C435.563 107.068 436.499 108.043 437.622 108.458C438.747 108.874 440.028 108.753 441.107 108.226C442.185 107.699 443.063 106.787 443.657 105.724" stroke="black" stroke-miterlimit="10"/>
<path d="M428.023 121.037C433.604 121.789 440.052 119.056 442.667 116.412" stroke="black" stroke-miterlimit="10"/>
<path d="M417.098 103.741C417.863 103.89 418.642 103.973 419.422 103.986" stroke="black" stroke-miterlimit="10"/>
<path d="M418.217 96.6052C419.005 95.2652 419.756 93.9038 420.468 92.5229" stroke="black" stroke-miterlimit="10"/>
<path d="M406.019 98.7858L391.137 89.6096" stroke="black" stroke-miterlimit="10" stroke-linejoin="round"/>
<path d="M405.05 104.139L386.926 103.258" stroke="black" stroke-miterlimit="10" stroke-linejoin="round"/>
<path d="M405.452 113.783L387.156 117.103" stroke="black" stroke-miterlimit="10" stroke-linejoin="round"/>
<path d="M432.58 264.325L435.83 247.218C436.959 241.278 442.15 236.98 448.196 236.98H508.598C514.67 236.98 519.826 241.427 520.72 247.433L522.4 258.728C524.19 270.773 514.859 281.594 502.682 281.594H446.878C437.75 281.594 430.875 273.29 432.58 264.325Z" fill="#F4AA78"/>
<path d="M443.578 281.222C436.168 279.512 431.088 272.172 432.58 264.325L435.83 247.218C436.959 241.278 442.15 236.98 448.196 236.98H508.598C514.67 236.98 519.827 241.427 520.72 247.433L522.4 258.728C523.437 265.709 520.739 272.28 515.916 276.57" stroke="#D3834C" stroke-miterlimit="10"/>
<path d="M471.423 184.548C471.423 184.956 479.328 209.611 479.328 209.611C479.328 209.611 454.565 213.581 442.994 219.831C431.422 226.082 454.203 237.469 454.203 237.469C454.203 237.469 493.489 237.469 504.122 237.469C514.754 237.469 519.315 227.534 516.656 217.078C513.998 206.621 507.368 183.448 507.368 183.448" fill="#F4C3B3"/>
<path d="M469.147 131.758C469.147 131.758 484.275 134.523 492.037 141.593C502.463 151.091 514.878 192.39 514.878 192.39L472.481 195.857L465.814 167.04" fill="#252549"/>
<path d="M472.481 195.857L465.814 167.04" stroke="#494975" stroke-miterlimit="10"/>
<path d="M446.749 218.119C435.319 222.829 431.462 228.927 427.629 234.936C426.098 237.336 424.724 240.103 423.994 242.861C423.657 244.135 423.297 247.799 423.596 249.089C423.916 250.467 425.83 254.65 425.83 254.65C425.83 254.65 425.777 255.63 426.345 257.6C426.913 259.569 426.755 261.638 427.861 261.461C428.966 261.285 429.703 260.544 430.07 260.02C432.049 260.238 433.551 260.285 434.657 258.348C434.635 258.801 435.497 259.034 435.935 258.924C436.373 258.813 437.182 258.123 437.467 257.774C439.142 255.738 440.8 253.66 442.52 251.646C445.726 247.891 448.097 246.471 452.235 243.822C455.101 241.988 459.398 238.425 461.501 235.747" fill="#F4C3B3"/>
<path d="M458.923 238.129C460.346 236.576 462.093 235.348 464.006 234.555" stroke="black" stroke-miterlimit="10"/>
<path d="M434.659 258.348C434.479 257.844 436.064 252.835 436.858 251.263C438.276 248.455 441.674 244.473 441.674 244.473" stroke="black" stroke-miterlimit="10"/>
<path d="M430.072 260.02C430.072 260.02 431.052 252.435 432.103 249.002C433.152 245.569 436.351 241.322 436.351 241.322" stroke="black" stroke-miterlimit="10"/>
<path d="M425.865 255.714C425.865 255.714 426.39 248.604 427.116 245.921C427.841 243.238 431.422 236.977 431.422 236.977" stroke="black" stroke-miterlimit="10"/>
<path d="M479.262 209.276C487.742 208.2 498.261 210.459 504.811 213.007" stroke="black" stroke-miterlimit="10"/>
<path d="M511.167 182.115L470.31 186.472" stroke="#494975" stroke-miterlimit="10"/>
<path d="M592.253 155.24C587.702 158.838 583.928 164.364 581.668 168.412C576.974 176.82 574.381 186.344 571.691 195.531C568.606 206.065 566.285 216.824 564.756 227.695C563.245 238.429 561.871 249.46 565.144 260.017C565.792 262.11 567.53 265.466 570.201 264.056C573.193 262.477 575.187 256.822 576.549 253.99C578.079 250.803 579.38 247.521 580.85 244.308C588.64 227.282 596.429 210.254 604.218 193.227C607.969 185.029 611.784 176.569 612.156 167.562C612.298 164.113 611.897 160.554 610.288 157.5C608.678 154.447 605.702 151.976 602.268 151.63C598.726 151.274 595.314 152.822 592.253 155.24Z" fill="#488C6C"/>
<path d="M561.111 193.267C560.288 179.005 558.094 164.52 552.09 151.428C548.742 144.129 541.087 131.619 531.196 135.943C527.214 137.684 526.083 142.759 525.967 147.103C525.775 154.32 526.935 161.504 528.395 168.574C530.693 179.704 533.741 190.665 536.968 201.562C540.986 215.131 545.314 228.684 551.668 241.328C552.492 242.967 553.717 244.821 555.551 244.788C556.744 244.767 557.768 243.895 558.424 242.897C559.753 240.876 559.955 238.341 560.115 235.926C561.058 221.724 561.931 207.477 561.111 193.267Z" fill="#488C6C"/>
<path d="M536.995 222.981C534.058 211.462 530.489 200.024 524.805 190.132C519.12 180.239 511.109 171.932 501.544 168.629C499.403 167.89 496.996 167.439 495.037 168.721C492.165 170.603 491.546 175.305 491.963 179.231C492.605 185.265 494.846 190.856 497.122 196.278C503.575 211.641 510.592 226.693 518.692 240.877C522.247 247.102 526.498 256.78 531.667 261.165C537.003 265.691 540.221 258.982 540.711 253.184C541.57 242.973 539.464 232.664 536.995 222.981Z" fill="#55AF8C"/>
<path d="M499.967 177.6C523.089 212.225 538.701 254.154 544.824 298.081" stroke="black" stroke-miterlimit="10"/>
<path d="M536.085 144.246C555.8 198.943 561.462 263.88 555.787 321.744" stroke="black" stroke-miterlimit="10"/>
<path d="M595.927 170.234C591.048 179.706 586.405 189.324 582.701 199.315C569.184 235.761 568.633 275.541 568.243 314.411" stroke="black" stroke-miterlimit="10"/>
<path d="M588.119 220.384C584.138 227.263 581.269 235.052 579.315 242.761C577.375 250.417 576.139 258.278 575.625 266.182C575.451 268.863 574.481 273.468 576.015 275.666C577.513 277.815 580.597 277.405 582.449 276.003C584.043 274.795 585.149 272.962 586.212 271.178C593.867 258.328 601.434 245.369 610.202 233.386C615.317 226.396 633.062 210.643 621.966 200.996C618.566 198.039 613.587 198.767 609.468 200.43C600.227 204.16 593.25 211.516 588.119 220.384Z" fill="#55AF8C"/>
<path d="M616.539 205.511C603.718 217.368 590.159 235.321 584.595 251.874C576.175 276.923 572.456 303.543 573.69 329.941" stroke="black" stroke-miterlimit="10"/>
<path d="M597.764 293.542H532.549V361.78H597.764V293.542Z" fill="white"/>
<path d="M597.764 361.78H532.549" stroke="#A0B3EA" stroke-width="1.5" stroke-miterlimit="10"/>
<path d="M532.549 293.542V379.13" stroke="#A0B3EA" stroke-width="1.5" stroke-miterlimit="10"/>
<path d="M578.731 293.542V379.13" stroke="#A0B3EA" stroke-width="1.5" stroke-miterlimit="10"/>
<path d="M597.764 293.542V379.13" stroke="#A0B3EA" stroke-width="1.5" stroke-miterlimit="10"/>
<path d="M0.971191 379.261H617.76" stroke="#A0B3EA" stroke-width="1.5" stroke-miterlimit="10"/>
</svg>
